MSHX1
GROUPS 5
LABEL SIDE_CCIG
MATERIAL 0
TEXTURE 0
FLAG 0
GEOM 130 76
0.1163 -0.3995 0.3299 0.6898 0.0000 0.7240
0.1083 -0.3995 0.3366 0.5353 0.0000 0.8446
0.0988 -0.3995 0.3410 0.2985 0.0000 0.9544
0.0885 -0.3995 0.3428 0.0413 0.0000 0.9991
0.0780 -0.3995 0.3418 -0.2187 0.0000 0.9758
0.0682 -0.3995 0.3382 -0.4638 0.0000 0.8859
0.0597 -0.3995 0.3322 -0.6773 0.0000 0.7357
0.0529 -0.3995 0.3242 -0.8446 0.0000 0.5353
0.0485 -0.3995 0.3147 -0.9544 0.0000 0.2985
0.0468 -0.3995 0.3044 -0.9991 0.0000 0.0413
0.0477 -0.3995 0.2940 -0.9758 0.0000 -0.2187
0.0513 -0.3995 0.2842 -0.8859 0.0000 -0.4638
0.0573 -0.3995 0.2756 -0.7784 0.0000 -0.6277
0.1413 -0.3995 0.3027 0.7784 0.0000 0.6277
0.0823 -0.3995 0.2484 -0.6898 0.0000 -0.7240
0.0904 -0.3995 0.2417 -0.5353 0.0000 -0.8446
0.0999 -0.3995 0.2373 -0.2985 0.0000 -0.9544
0.1102 -0.3995 0.2355 -0.0413 0.0000 -0.9991
0.1206 -0.3995 0.2364 0.2187 0.0000 -0.9758
0.1304 -0.3995 0.2400 0.4638 0.0000 -0.8859
0.1390 -0.3995 0.2461 0.6773 0.0000 -0.7357
0.1457 -0.3995 0.2541 0.8446 0.0000 -0.5353
0.1501 -0.3995 0.2636 0.9544 0.0000 -0.2985
0.1519 -0.3995 0.2739 0.9991 0.0000 -0.0413
0.1509 -0.3995 0.2843 0.9758 0.0000 0.2187
0.1473 -0.3995 0.2941 0.8859 0.0000 0.4638
0.1083 -0.3325 0.3366 -0.0000 1.0000 0.0000
0.1163 -0.3325 0.3299 -0.0000 1.0000 0.0000
0.0988 -0.3325 0.3410 -0.0000 1.0000 0.0000
0.0885 -0.3325 0.3428 -0.0000 1.0000 0.0000
0.0780 -0.3325 0.3418 -0.0000 1.0000 0.0000
0.0682 -0.3325 0.3382 -0.0000 1.0000 0.0000
0.0597 -0.3325 0.3322 -0.0000 1.0000 0.0000
0.0529 -0.3325 0.3242 -0.0000 1.0000 0.0000
0.0485 -0.3325 0.3147 -0.0000 1.0000 0.0000
0.0468 -0.3325 0.3044 -0.0000 1.0000 0.0000
0.0477 -0.3325 0.2940 -0.0000 1.0000 0.0000
0.0513 -0.3325 0.2842 -0.0000 1.0000 0.0000
0.0573 -0.3325 0.2756 -0.0000 1.0000 0.0000
0.0823 -0.3325 0.2484 -0.0000 1.0000 0.0000
0.1413 -0.3325 0.3027 -0.0000 1.0000 0.0000
0.0904 -0.3325 0.2417 -0.0000 1.0000 0.0000
0.0999 -0.3325 0.2373 -0.0000 1.0000 0.0000
0.1102 -0.3325 0.2355 -0.0000 1.0000 0.0000
0.1206 -0.3325 0.2364 -0.0000 1.0000 0.0000
0.1304 -0.3325 0.2400 -0.0000 1.0000 0.0000
0.1390 -0.3325 0.2461 -0.0000 1.0000 0.0000
0.1457 -0.3325 0.2541 -0.0000 1.0000 0.0000
0.1501 -0.3325 0.2636 -0.0000 1.0000 0.0000
0.1519 -0.3325 0.2739 -0.0000 1.0000 0.0000
0.1509 -0.3325 0.2843 -0.0000 1.0000 0.0000
0.1473 -0.3325 0.2941 -0.0000 1.0000 0.0000
0.0468 -0.3325 0.3044 -0.9991 0.0000 0.0413
0.0468 -0.3325 0.3044 -0.9991 0.0000 0.0413
0.0485 -0.3325 0.3147 -0.9544 0.0000 0.2985
0.1509 -0.3325 0.2843 0.9758 0.0000 0.2187
0.1509 -0.3325 0.2843 0.9758 0.0000 0.2187
0.1519 -0.3325 0.2739 0.9991 0.0000 -0.0413
0.0988 -0.3325 0.3410 0.2985 0.0000 0.9544
0.0988 -0.3325 0.3410 0.2985 0.0000 0.9544
0.1083 -0.3325 0.3366 0.5353 0.0000 0.8446
0.1102 -0.3325 0.2355 -0.0413 0.0000 -0.9991
0.1102 -0.3325 0.2355 -0.0413 0.0000 -0.9991
0.0999 -0.3325 0.2373 -0.2985 0.0000 -0.9544
0.0477 -0.3325 0.2940 -0.9758 0.0000 -0.2187
0.0477 -0.3325 0.2940 -0.9758 0.0000 -0.2187
0.0468 -0.3325 0.3044 -0.9991 0.0000 0.0413
0.1473 -0.3325 0.2941 0.8859 0.0000 0.4638
0.1473 -0.3325 0.2941 0.8859 0.0000 0.4638
0.1509 -0.3325 0.2843 0.9758 0.0000 0.2187
0.0885 -0.3325 0.3428 0.0413 0.0000 0.9991
0.0885 -0.3325 0.3428 0.0413 0.0000 0.9991
0.0988 -0.3325 0.3410 0.2985 0.0000 0.9544
0.1206 -0.3325 0.2364 0.2187 0.0000 -0.9758
0.1206 -0.3325 0.2364 0.2187 0.0000 -0.9758
0.1102 -0.3325 0.2355 -0.0413 0.0000 -0.9991
0.0513 -0.3325 0.2842 -0.8859 0.0000 -0.4638
0.0513 -0.3325 0.2842 -0.8859 0.0000 -0.4638
0.0477 -0.3325 0.2940 -0.9758 0.0000 -0.2187
0.1413 -0.3325 0.3027 0.7784 0.0000 0.6277
0.1413 -0.3325 0.3027 0.7784 0.0000 0.6277
0.1473 -0.3325 0.2941 0.8859 0.0000 0.4638
0.0780 -0.3325 0.3418 -0.2187 0.0000 0.9758
0.0780 -0.3325 0.3418 -0.2187 0.0000 0.9758
0.0885 -0.3325 0.3428 0.0413 0.0000 0.9991
0.1304 -0.3325 0.2400 0.4638 0.0000 -0.8859
0.1304 -0.3325 0.2400 0.4638 0.0000 -0.8859
0.1206 -0.3325 0.2364 0.2187 0.0000 -0.9758
0.0573 -0.3325 0.2756 -0.7784 0.0000 -0.6277
0.0573 -0.3325 0.2756 -0.7784 0.0000 -0.6277
0.0513 -0.3325 0.2842 -0.8859 0.0000 -0.4638
0.0682 -0.3325 0.3382 -0.4638 0.0000 0.8859
0.0682 -0.3325 0.3382 -0.4638 0.0000 0.8859
0.0780 -0.3325 0.3418 -0.2187 0.0000 0.9758
0.1390 -0.3325 0.2461 0.6773 0.0000 -0.7357
0.1390 -0.3325 0.2461 0.6773 0.0000 -0.7357
0.1304 -0.3325 0.2400 0.4638 0.0000 -0.8859
0.0823 -0.3325 0.2484 -0.6898 0.0000 -0.7240
0.0823 -0.3325 0.2484 -0.6898 0.0000 -0.7240
0.0573 -0.3325 0.2756 -0.7784 0.0000 -0.6277
0.0597 -0.3325 0.3322 -0.6773 0.0000 0.7357
0.0597 -0.3325 0.3322 -0.6773 0.0000 0.7357
0.0682 -0.3325 0.3382 -0.4638 0.0000 0.8859
0.1457 -0.3325 0.2541 0.8446 0.0000 -0.5353
0.1457 -0.3325 0.2541 0.8446 0.0000 -0.5353
0.1390 -0.3325 0.2461 0.6773 0.0000 -0.7357
0.1163 -0.3325 0.3299 0.6898 0.0000 0.7240
0.1163 -0.3325 0.3299 0.6898 0.0000 0.7240
0.1413 -0.3325 0.3027 0.7784 0.0000 0.6277
0.0529 -0.3325 0.3242 -0.8446 0.0000 0.5353
0.0529 -0.3325 0.3242 -0.8446 0.0000 0.5353
0.0597 -0.3325 0.3322 -0.6773 0.0000 0.7357
0.1501 -0.3325 0.2636 0.9544 0.0000 -0.2985
0.1501 -0.3325 0.2636 0.9544 0.0000 -0.2985
0.1457 -0.3325 0.2541 0.8446 0.0000 -0.5353
0.0904 -0.3325 0.2417 -0.5353 0.0000 -0.8446
0.0904 -0.3325 0.2417 -0.5353 0.0000 -0.8446
0.0823 -0.3325 0.2484 -0.6898 0.0000 -0.7240
0.0485 -0.3325 0.3147 -0.9544 0.0000 0.2985
0.0485 -0.3325 0.3147 -0.9544 0.0000 0.2985
0.0529 -0.3325 0.3242 -0.8446 0.0000 0.5353
0.1519 -0.3325 0.2739 0.9991 0.0000 -0.0413
0.1519 -0.3325 0.2739 0.9991 0.0000 -0.0413
0.1501 -0.3325 0.2636 0.9544 0.0000 -0.2985
0.1083 -0.3325 0.3366 0.5353 0.0000 0.8446
0.1083 -0.3325 0.3366 0.5353 0.0000 0.8446
0.1163 -0.3325 0.3299 0.6898 0.0000 0.7240
0.0999 -0.3325 0.2373 -0.2985 0.0000 -0.9544
0.0999 -0.3325 0.2373 -0.2985 0.0000 -0.9544
0.0904 -0.3325 0.2417 -0.5353 0.0000 -0.8446
27 28 26
28 30 29
30 32 31
32 34 33
34 36 35
36 38 37
38 41 39
41 43 42
43 45 44
45 47 46
47 49 48
49 51 50
51 27 40
27 30 28
30 34 32
34 38 36
38 43 41
43 47 45
47 51 49
51 30 27
30 38 34
38 47 43
47 30 51
30 47 38
8 52 9
8 54 53
23 55 24
23 57 56
1 58 2
1 60 59
16 61 17
16 63 62
9 64 10
9 66 65
24 67 25
24 69 68
2 70 3
2 72 71
17 73 18
17 75 74
10 76 11
10 78 77
25 79 13
25 81 80
3 82 4
3 84 83
18 85 19
18 87 86
11 88 12
11 90 89
4 91 5
4 93 92
19 94 20
19 96 95
12 97 14
12 99 98
5 100 6
5 102 101
20 103 21
20 105 104
13 106 0
13 108 107
6 109 7
6 111 110
21 112 22
21 114 113
14 115 15
14 117 116
7 118 8
7 120 119
22 121 23
22 123 122
0 124 1
0 126 125
15 127 16
15 129 128
LABEL SIDE_DetailsDark
MATERIAL 1
TEXTURE 0
FLAG 0
GEOM 519 256
-0.1499 0.0466 -0.0703 0.0000 1.0000 0.0000
-0.1557 0.0466 -0.0687 0.0000 1.0000 0.0000
-0.1400 0.0466 -0.0645 0.0000 1.0000 0.0000
-0.1442 0.0466 -0.0687 0.0000 1.0000 0.0000
-0.1614 0.0466 -0.0588 0.0000 1.0000 0.0000
-0.1385 0.0466 -0.0448 0.0000 1.0000 0.0000
-0.1385 0.0466 -0.0588 0.0000 1.0000 0.0000
-0.1599 0.0466 -0.0645 0.0000 1.0000 0.0000
-0.1614 0.0466 -0.0448 0.0000 1.0000 0.0000
-0.1442 0.0339 -0.0687 0.0000 -1.0000 0.0000
-0.1499 0.0339 -0.0703 0.0000 -1.0000 0.0000
-0.1557 0.0339 -0.0687 0.0000 -1.0000 0.0000
-0.1599 0.0339 -0.0645 0.0000 -1.0000 0.0000
-0.1614 0.0339 -0.0588 0.0000 -1.0000 0.0000
-0.1385 0.0339 -0.0588 0.0000 -1.0000 0.0000
-0.1400 0.0339 -0.0645 0.0000 -1.0000 0.0000
-0.1385 0.0339 -0.0448 0.0000 -1.0000 0.0000
-0.1614 0.0339 -0.0448 0.0000 -1.0000 0.0000
-0.1630 -0.3970 0.0116 0.0000 0.0000 1.0000
-0.1824 -0.3934 0.0116 0.0000 0.0000 1.0000
-0.1630 -0.3970 -0.0116 -0.0000 -0.0000 -1.0000
-0.1824 -0.3934 -0.0116 -0.0000 -0.0000 -1.0000
-0.1058 -0.2933 0.0116 0.0000 0.0000 1.0000
-0.1222 -0.2842 0.0116 0.0000 0.0000 1.0000
-0.1058 -0.2933 -0.0116 -0.0000 -0.0000 -1.0000
-0.1222 -0.2842 -0.0116 -0.0000 -0.0000 -1.0000
-0.1635 -0.3927 -0.0255 0.2535 0.0000 -0.9673
-0.1601 -0.3927 -0.0236 0.6627 0.0000 -0.7489
-0.1568 -0.3927 -0.0192 0.8937 0.0000 -0.4487
-0.1554 -0.3927 -0.0145 0.9891 0.0000 -0.1474
-0.1554 -0.3993 -0.0145 0.9891 0.0000 -0.1474
-0.1568 -0.3993 -0.0192 -0.0000 -1.0000 0.0000
-0.1601 -0.3993 -0.0236 -0.0000 -1.0000 0.0000
-0.1635 -0.3993 -0.0255 -0.0000 -1.0000 0.0000
-0.1554 -0.3927 0.0145 0.9891 0.0000 0.1474
-0.1568 -0.3927 0.0192 0.8937 0.0000 0.4487
-0.1601 -0.3927 0.0236 0.6627 0.0000 0.7489
-0.1635 -0.3927 0.0255 0.2535 0.0000 0.9673
-0.1635 -0.3993 0.0255 -0.0000 -1.0000 0.0000
-0.1601 -0.3993 0.0236 0.6627 0.0000 0.7489
-0.1568 -0.3993 0.0192 0.8937 0.0000 0.4487
-0.1554 -0.3993 0.0145 0.9891 0.0000 0.1474
-0.1929 -0.3927 -0.0145 -0.9891 0.0000 -0.1474
-0.1915 -0.3927 -0.0192 -0.8937 0.0000 -0.4487
-0.1883 -0.3927 -0.0236 -0.6627 0.0000 -0.7489
-0.1849 -0.3927 -0.0255 -0.2535 0.0000 -0.9673
-0.1849 -0.3993 -0.0255 -0.0000 -1.0000 0.0000
-0.1883 -0.3993 -0.0236 -0.0000 -1.0000 0.0000
-0.1915 -0.3993 -0.0192 -0.0000 -1.0000 0.0000
-0.1929 -0.3993 -0.0145 -0.0000 -1.0000 0.0000
-0.1849 -0.3927 0.0255 -0.2535 0.0000 0.9673
-0.1883 -0.3927 0.0236 -0.6627 0.0000 0.7489
-0.1915 -0.3927 0.0192 -0.8937 0.0000 0.4487
-0.1929 -0.3927 0.0145 -0.9891 0.0000 0.1474
-0.1929 -0.3993 0.0145 -0.0000 -1.0000 0.0000
-0.1915 -0.3993 0.0192 -0.8937 0.0000 0.4487
-0.1883 -0.3993 0.0236 -0.6627 0.0000 0.7489
-0.1849 -0.3993 0.0255 -0.0000 -1.0000 0.0000
0.1805 -0.3970 0.0647 0.7819 0.0000 -0.6234
0.1926 -0.3934 0.0799 0.7819 0.0000 -0.6234
0.1623 -0.3970 0.0792 -0.7819 -0.0000 0.6234
0.1744 -0.3934 0.0944 -0.7819 -0.0000 0.6234
0.1448 -0.2933 0.0200 0.7819 0.0000 -0.6234
0.1551 -0.2842 0.0329 0.7819 0.0000 -0.6234
0.1266 -0.2933 0.0345 -0.7819 -0.0000 0.6234
0.1369 -0.2842 0.0474 -0.7819 -0.0000 0.6234
0.1518 -0.3927 0.0882 -0.9144 0.0000 0.4049
0.1511 -0.3927 0.0844 -0.9987 0.0000 -0.0513
0.1526 -0.3927 0.0791 -0.9079 0.0000 -0.4191
0.1553 -0.3927 0.0751 -0.7319 0.0000 -0.6814
0.1553 -0.3993 0.0751 -0.7319 0.0000 -0.6814
0.1526 -0.3993 0.0791 0.0000 -1.0000 0.0000
0.1511 -0.3993 0.0844 0.0000 -1.0000 0.0000
0.1518 -0.3993 0.0882 0.0000 -1.0000 0.0000
0.1780 -0.3927 0.0570 -0.5013 0.0000 -0.8653
0.1825 -0.3927 0.0552 -0.2063 0.0000 -0.9785
0.1880 -0.3927 0.0550 0.1725 0.0000 -0.9850
0.1916 -0.3927 0.0565 0.5983 0.0000 -0.8012
0.1916 -0.3993 0.0565 0.0000 -1.0000 0.0000
0.1880 -0.3993 0.0550 0.1725 0.0000 -0.9850
0.1825 -0.3993 0.0552 -0.2063 0.0000 -0.9785
0.1780 -0.3993 0.0570 -0.5013 0.0000 -0.8653
0.1787 -0.3927 0.1045 0.5013 0.0000 0.8653
0.1742 -0.3927 0.1062 0.2063 0.0000 0.9785
0.1687 -0.3927 0.1064 -0.1725 0.0000 0.9850
0.1651 -0.3927 0.1050 -0.5983 0.0000 0.8012
0.1651 -0.3993 0.1050 0.0000 -1.0000 0.0000
0.1687 -0.3993 0.1064 0.0000 -1.0000 0.0000
0.1742 -0.3993 0.1062 0.0000 -1.0000 0.0000
0.1787 -0.3993 0.1045 0.0000 -1.0000 0.0000
0.2049 -0.3927 0.0732 0.9144 0.0000 -0.4049
0.2056 -0.3927 0.0771 0.9987 0.0000 0.0513
0.2041 -0.3927 0.0823 0.9079 0.0000 0.4191
0.2014 -0.3927 0.0863 0.7319 0.0000 0.6814
0.2014 -0.3993 0.0863 0.0000 -1.0000 0.0000
0.2041 -0.3993 0.0823 0.9079 0.0000 0.4191
0.2056 -0.3993 0.0771 0.9987 0.0000 0.0513
0.2049 -0.3993 0.0732 0.0000 -1.0000 0.0000
0.1805 -0.3970 -0.0647 0.7819 0.0000 0.6234
0.1926 -0.3934 -0.0799 0.7819 0.0000 0.6234
0.1623 -0.3970 -0.0792 -0.7819 0.0000 -0.6234
0.1744 -0.3934 -0.0944 -0.7819 0.0000 -0.6234
0.1448 -0.2933 -0.0200 0.7819 0.0000 0.6234
0.1551 -0.2842 -0.0329 0.7819 0.0000 0.6234
0.1266 -0.2933 -0.0345 -0.7819 0.0000 -0.6234
0.1369 -0.2842 -0.0474 -0.7819 0.0000 -0.6234
0.1518 -0.3927 -0.0882 -0.9144 0.0000 -0.4049
0.1511 -0.3927 -0.0844 -0.9987 0.0000 0.0513
0.1526 -0.3927 -0.0791 -0.9079 0.0000 0.4191
0.1553 -0.3927 -0.0751 -0.7319 0.0000 0.6814
0.1553 -0.3993 -0.0751 -0.7319 0.0000 0.6814
0.1526 -0.3993 -0.0791 0.0000 -1.0000 0.0000
0.1511 -0.3993 -0.0844 0.0000 -1.0000 0.0000
0.1518 -0.3993 -0.0882 0.0000 -1.0000 0.0000
0.1780 -0.3927 -0.0570 -0.5013 0.0000 0.8653
0.1825 -0.3927 -0.0552 -0.2063 0.0000 0.9785
0.1880 -0.3927 -0.0550 0.1725 0.0000 0.9850
0.1916 -0.3927 -0.0565 0.5983 0.0000 0.8012
0.1916 -0.3993 -0.0565 0.0000 -1.0000 0.0000
0.1880 -0.3993 -0.0550 0.1725 0.0000 0.9850
0.1825 -0.3993 -0.0552 -0.2063 0.0000 0.9785
0.1780 -0.3993 -0.0570 -0.5013 0.0000 0.8653
0.1787 -0.3927 -0.1045 0.5013 0.0000 -0.8653
0.1742 -0.3927 -0.1062 0.2063 0.0000 -0.9785
0.1687 -0.3927 -0.1064 -0.1725 0.0000 -0.9850
0.1651 -0.3927 -0.1050 -0.5983 0.0000 -0.8012
0.1651 -0.3993 -0.1050 0.0000 -1.0000 0.0000
0.1687 -0.3993 -0.1064 0.0000 -1.0000 0.0000
0.1742 -0.3993 -0.1062 0.0000 -1.0000 0.0000
0.1787 -0.3993 -0.1045 0.0000 -1.0000 0.0000
0.2049 -0.3927 -0.0732 0.9144 0.0000 0.4049
0.2056 -0.3927 -0.0771 0.9987 0.0000 -0.0513
0.2041 -0.3927 -0.0823 0.9079 0.0000 -0.4191
0.2014 -0.3927 -0.0863 0.7319 0.0000 -0.6814
0.2014 -0.3993 -0.0863 0.0000 -1.0000 0.0000
0.2041 -0.3993 -0.0823 0.9079 0.0000 -0.4191
0.2056 -0.3993 -0.0771 0.9987 0.0000 -0.0513
0.2049 -0.3993 -0.0732 0.0000 -1.0000 0.0000
0.0698 -0.3544 0.2620 0.0000 1.0000 -0.0000
0.0642 -0.3578 0.2681 -0.4789 0.7071 0.5202
0.0619 -0.3661 0.2707 -0.6773 -0.0000 0.7357
0.0642 -0.3744 0.2681 -0.4789 -0.7071 0.5202
0.0698 -0.3778 0.2620 -0.0000 -1.0000 -0.0000
0.0754 -0.3744 0.2559 0.4789 -0.7071 -0.5202
0.0777 -0.3661 0.2534 0.6773 -0.0000 -0.7357
0.0754 -0.3578 0.2559 0.4789 0.7071 -0.5202
0.0646 -0.3544 0.2573 0.0000 1.0000 0.0000
0.0590 -0.3578 0.2633 -0.4789 0.7071 0.5202
0.0567 -0.3661 0.2659 -0.6773 -0.0000 0.7357
0.0590 -0.3744 0.2633 -0.4789 -0.7071 0.5202
0.0646 -0.3778 0.2573 -0.0000 -1.0000 0.0000
0.0702 -0.3744 0.2512 0.4789 -0.7071 -0.5202
0.0725 -0.3661 0.2486 0.6773 -0.0000 -0.7357
0.0702 -0.3578 0.2512 0.4789 0.7071 -0.5202
-0.1385 0.0466 -0.0448 1.0000 0.0000 0.0000
-0.1385 0.0466 -0.0588 0.9914 0.0000 -0.1305
-0.1385 0.0339 -0.0588 0.9914 0.0000 -0.1305
-0.1385 0.0466 -0.0448 1.0000 0.0000 0.0000
-0.1385 0.0339 -0.0588 0.9914 0.0000 -0.1305
-0.1385 0.0339 -0.0448 1.0000 0.0000 0.0000
-0.1599 0.0466 -0.0645 -0.8660 0.0000 -0.5000
-0.1614 0.0466 -0.0588 -0.9914 0.0000 -0.1305
-0.1614 0.0339 -0.0588 -0.9914 0.0000 -0.1305
-0.1599 0.0466 -0.0645 -0.8660 0.0000 -0.5000
-0.1614 0.0339 -0.0588 -0.9914 0.0000 -0.1305
-0.1599 0.0339 -0.0645 -0.8660 0.0000 -0.5000
-0.1400 0.0466 -0.0645 0.8660 0.0000 -0.5000
-0.1442 0.0466 -0.0687 0.5000 0.0000 -0.8660
-0.1442 0.0339 -0.0687 0.5000 0.0000 -0.8660
-0.1400 0.0466 -0.0645 0.8660 0.0000 -0.5000
-0.1442 0.0339 -0.0687 0.5000 0.0000 -0.8660
-0.1400 0.0339 -0.0645 0.8660 0.0000 -0.5000
-0.1385 0.0466 -0.0588 0.9914 0.0000 -0.1305
-0.1400 0.0466 -0.0645 0.8660 0.0000 -0.5000
-0.1400 0.0339 -0.0645 0.8660 0.0000 -0.5000
-0.1385 0.0466 -0.0588 0.9914 0.0000 -0.1305
-0.1400 0.0339 -0.0645 0.8660 0.0000 -0.5000
-0.1385 0.0339 -0.0588 0.9914 0.0000 -0.1305
-0.1442 0.0466 -0.0687 0.5000 0.0000 -0.8660
-0.1499 0.0466 -0.0703 -0.0000 0.0000 -1.0000
-0.1499 0.0339 -0.0703 -0.0000 0.0000 -1.0000
-0.1442 0.0466 -0.0687 0.5000 0.0000 -0.8660
-0.1499 0.0339 -0.0703 -0.0000 0.0000 -1.0000
-0.1442 0.0339 -0.0687 0.5000 0.0000 -0.8660
-0.1499 0.0466 -0.0703 -0.0000 0.0000 -1.0000
-0.1557 0.0466 -0.0687 -0.5000 0.0000 -0.8660
-0.1557 0.0339 -0.0687 -0.5000 0.0000 -0.8660
-0.1499 0.0466 -0.0703 -0.0000 0.0000 -1.0000
-0.1557 0.0339 -0.0687 -0.5000 0.0000 -0.8660
-0.1499 0.0339 -0.0703 -0.0000 0.0000 -1.0000
-0.1557 0.0466 -0.0687 -0.5000 0.0000 -0.8660
-0.1599 0.0466 -0.0645 -0.8660 0.0000 -0.5000
-0.1599 0.0339 -0.0645 -0.8660 0.0000 -0.5000
-0.1557 0.0466 -0.0687 -0.5000 0.0000 -0.8660
-0.1599 0.0339 -0.0645 -0.8660 0.0000 -0.5000
-0.1557 0.0339 -0.0687 -0.5000 0.0000 -0.8660
-0.1614 0.0466 -0.0588 -0.9914 0.0000 -0.1305
-0.1614 0.0466 -0.0448 -1.0000 0.0000 0.0000
-0.1614 0.0339 -0.0448 -1.0000 0.0000 0.0000
-0.1614 0.0466 -0.0588 -0.9914 0.0000 -0.1305
-0.1614 0.0339 -0.0448 -1.0000 0.0000 0.0000
-0.1614 0.0339 -0.0588 -0.9914 0.0000 -0.1305
-0.1915 -0.3993 0.0192 -0.0000 -1.0000 0.0000
-0.1915 -0.3993 0.0192 -0.0000 -1.0000 0.0000
-0.1883 -0.3993 0.0236 -0.0000 -1.0000 0.0000
-0.1601 -0.3993 0.0236 -0.0000 -1.0000 0.0000
-0.1601 -0.3993 0.0236 -0.0000 -1.0000 0.0000
-0.1568 -0.3993 0.0192 -0.0000 -1.0000 0.0000
-0.1554 -0.3993 0.0145 -0.0000 -1.0000 0.0000
-0.1554 -0.3993 0.0145 -0.0000 -1.0000 0.0000
-0.1554 -0.3993 -0.0145 -0.0000 -1.0000 0.0000
-0.1915 -0.3993 0.0192 -0.0000 -1.0000 0.0000
-0.1601 -0.3993 0.0236 -0.0000 -1.0000 0.0000
-0.1554 -0.3993 0.0145 -0.0000 -1.0000 0.0000
-0.1554 -0.3993 0.0145 -0.0000 -1.0000 0.0000
-0.1554 -0.3993 0.0145 -0.0000 -1.0000 0.0000
-0.1554 -0.3993 0.0145 -0.0000 -1.0000 0.0000
-0.1883 -0.3993 -0.0236 -0.6627 0.0000 -0.7489
-0.1883 -0.3993 -0.0236 -0.6627 0.0000 -0.7489
-0.1915 -0.3993 -0.0192 -0.8937 0.0000 -0.4487
-0.1630 -0.3970 -0.0116 0.8756 -0.4830 0.0000
-0.1630 -0.3970 0.0116 0.8756 -0.4830 0.0000
-0.1058 -0.2933 0.0116 0.8756 -0.4830 0.0000
-0.1630 -0.3970 -0.0116 0.8756 -0.4830 0.0000
-0.1058 -0.2933 0.0116 0.8756 -0.4830 0.0000
-0.1058 -0.2933 -0.0116 0.8756 -0.4830 0.0000
-0.1222 -0.2842 -0.0116 -0.8756 0.4830 0.0000
-0.1222 -0.2842 0.0116 -0.8756 0.4830 0.0000
-0.1824 -0.3934 0.0116 -0.8756 0.4830 0.0000
-0.1222 -0.2842 -0.0116 -0.8756 0.4830 0.0000
-0.1824 -0.3934 0.0116 -0.8756 0.4830 0.0000
-0.1824 -0.3934 -0.0116 -0.8756 0.4830 0.0000
-0.1849 -0.3993 -0.0255 -0.2535 0.0000 -0.9673
-0.1635 -0.3993 -0.0255 0.2535 0.0000 -0.9673
-0.1635 -0.3993 -0.0255 0.2535 0.0000 -0.9673
-0.1635 -0.3993 0.0255 0.2535 0.0000 0.9673
-0.1849 -0.3993 0.0255 -0.2535 0.0000 0.9673
-0.1849 -0.3993 0.0255 -0.2535 0.0000 0.9673
-0.1929 -0.3993 0.0145 -0.9891 0.0000 0.1474
-0.1929 -0.3993 -0.0145 -0.9891 0.0000 -0.1474
-0.1929 -0.3993 -0.0145 -0.9891 0.0000 -0.1474
-0.1601 -0.3993 -0.0236 0.6627 0.0000 -0.7489
-0.1568 -0.3993 -0.0192 0.8937 0.0000 -0.4487
-0.1568 -0.3993 -0.0192 0.8937 0.0000 -0.4487
-0.1635 -0.3993 -0.0255 0.2535 0.0000 -0.9673
-0.1601 -0.3993 -0.0236 0.6627 0.0000 -0.7489
-0.1601 -0.3993 -0.0236 0.6627 0.0000 -0.7489
-0.1568 -0.3993 -0.0192 0.8937 0.0000 -0.4487
-0.1635 -0.3993 0.0255 0.2535 0.0000 0.9673
-0.1635 -0.3993 0.0255 0.2535 0.0000 0.9673
-0.1929 -0.3993 0.0145 -0.9891 0.0000 0.1474
-0.1929 -0.3993 0.0145 -0.9891 0.0000 0.1474
-0.1849 -0.3993 0.0255 -0.2535 0.0000 0.9673
-0.1849 -0.3993 -0.0255 -0.2535 0.0000 -0.9673
-0.1849 -0.3993 -0.0255 -0.2535 0.0000 -0.9673
-0.1883 -0.3993 -0.0236 -0.6627 0.0000 -0.7489
-0.1929 -0.3993 -0.0145 -0.9891 0.0000 -0.1474
-0.1915 -0.3993 -0.0192 -0.8937 0.0000 -0.4487
-0.1915 -0.3993 -0.0192 -0.8937 0.0000 -0.4487
-0.1554 -0.3927 -0.0145 -0.0000 1.0000 0.0000
-0.1554 -0.3927 0.0145 -0.0000 1.0000 0.0000
-0.1568 -0.3927 0.0192 -0.0000 1.0000 0.0000
-0.1568 -0.3927 0.0192 -0.0000 1.0000 0.0000
-0.1601 -0.3927 0.0236 -0.0000 1.0000 0.0000
-0.1635 -0.3927 0.0255 -0.0000 1.0000 0.0000
-0.1635 -0.3927 0.0255 -0.0000 1.0000 0.0000
-0.1849 -0.3927 0.0255 -0.0000 1.0000 0.0000
-0.1883 -0.3927 0.0236 -0.0000 1.0000 0.0000
-0.1883 -0.3927 0.0236 -0.0000 1.0000 0.0000
-0.1915 -0.3927 0.0192 -0.0000 1.0000 0.0000
-0.1929 -0.3927 0.0145 -0.0000 1.0000 0.0000
-0.1929 -0.3927 0.0145 -0.0000 1.0000 0.0000
-0.1929 -0.3927 -0.0145 -0.0000 1.0000 0.0000
-0.1915 -0.3927 -0.0192 -0.0000 1.0000 0.0000
-0.1915 -0.3927 -0.0192 -0.0000 1.0000 0.0000
-0.1883 -0.3927 -0.0236 -0.0000 1.0000 0.0000
-0.1849 -0.3927 -0.0255 -0.0000 1.0000 0.0000
-0.1849 -0.3927 -0.0255 -0.0000 1.0000 0.0000
-0.1635 -0.3927 -0.0255 -0.0000 1.0000 0.0000
-0.1601 -0.3927 -0.0236 -0.0000 1.0000 0.0000
-0.1601 -0.3927 -0.0236 -0.0000 1.0000 0.0000
-0.1568 -0.3927 -0.0192 -0.0000 1.0000 0.0000
-0.1554 -0.3927 -0.0145 -0.0000 1.0000 0.0000
-0.1554 -0.3927 -0.0145 -0.0000 1.0000 0.0000
-0.1568 -0.3927 0.0192 -0.0000 1.0000 0.0000
-0.1635 -0.3927 0.0255 -0.0000 1.0000 0.0000
-0.1635 -0.3927 0.0255 -0.0000 1.0000 0.0000
-0.1883 -0.3927 0.0236 -0.0000 1.0000 0.0000
-0.1929 -0.3927 0.0145 -0.0000 1.0000 0.0000
-0.1929 -0.3927 0.0145 -0.0000 1.0000 0.0000
-0.1915 -0.3927 -0.0192 -0.0000 1.0000 0.0000
-0.1849 -0.3927 -0.0255 -0.0000 1.0000 0.0000
-0.1849 -0.3927 -0.0255 -0.0000 1.0000 0.0000
-0.1601 -0.3927 -0.0236 -0.0000 1.0000 0.0000
-0.1554 -0.3927 -0.0145 -0.0000 1.0000 0.0000
-0.1554 -0.3927 -0.0145 -0.0000 1.0000 0.0000
-0.1635 -0.3927 0.0255 -0.0000 1.0000 0.0000
-0.1929 -0.3927 0.0145 -0.0000 1.0000 0.0000
-0.1929 -0.3927 0.0145 -0.0000 1.0000 0.0000
-0.1849 -0.3927 -0.0255 -0.0000 1.0000 0.0000
-0.1554 -0.3927 -0.0145 -0.0000 1.0000 0.0000
0.2041 -0.3993 0.0823 0.0000 -1.0000 0.0000
0.2041 -0.3993 0.0823 0.0000 -1.0000 0.0000
0.2056 -0.3993 0.0771 0.0000 -1.0000 0.0000
0.1880 -0.3993 0.0550 0.0000 -1.0000 0.0000
0.1880 -0.3993 0.0550 0.0000 -1.0000 0.0000
0.1825 -0.3993 0.0552 0.0000 -1.0000 0.0000
0.1780 -0.3993 0.0570 0.0000 -1.0000 0.0000
0.1780 -0.3993 0.0570 0.0000 -1.0000 0.0000
0.1553 -0.3993 0.0751 0.0000 -1.0000 0.0000
0.2041 -0.3993 0.0823 0.0000 -1.0000 0.0000
0.1880 -0.3993 0.0550 0.0000 -1.0000 0.0000
0.1780 -0.3993 0.0570 0.0000 -1.0000 0.0000
0.1780 -0.3993 0.0570 0.0000 -1.0000 0.0000
0.1780 -0.3993 0.0570 0.0000 -1.0000 0.0000
0.1780 -0.3993 0.0570 0.0000 -1.0000 0.0000
0.1687 -0.3993 0.1064 -0.1725 0.0000 0.9850
0.1687 -0.3993 0.1064 -0.1725 0.0000 0.9850
0.1742 -0.3993 0.1062 0.2063 0.0000 0.9785
0.1623 -0.3970 0.0792 -0.5459 -0.4830 -0.6846
0.1805 -0.3970 0.0647 -0.5459 -0.4830 -0.6846
0.1448 -0.2933 0.0200 -0.5459 -0.4830 -0.6846
0.1623 -0.3970 0.0792 -0.5459 -0.4830 -0.6846
0.1448 -0.2933 0.0200 -0.5459 -0.4830 -0.6846
0.1266 -0.2933 0.0345 -0.5459 -0.4830 -0.6846
0.1369 -0.2842 0.0474 0.5459 0.4830 0.6846
0.1551 -0.2842 0.0329 0.5459 0.4830 0.6846
0.1926 -0.3934 0.0799 0.5459 0.4830 0.6846
0.1369 -0.2842 0.0474 0.5459 0.4830 0.6846
0.1926 -0.3934 0.0799 0.5459 0.4830 0.6846
0.1744 -0.3934 0.0944 0.5459 0.4830 0.6846
0.1651 -0.3993 0.1050 -0.5983 0.0000 0.8012
0.1518 -0.3993 0.0882 -0.9144 0.0000 0.4049
0.1518 -0.3993 0.0882 -0.9144 0.0000 0.4049
0.1916 -0.3993 0.0565 0.5983 0.0000 -0.8012
0.2049 -0.3993 0.0732 0.9144 0.0000 -0.4049
0.2049 -0.3993 0.0732 0.9144 0.0000 -0.4049
0.2014 -0.3993 0.0863 0.7319 0.0000 0.6814
0.1787 -0.3993 0.1045 0.5013 0.0000 0.8653
0.1787 -0.3993 0.1045 0.5013 0.0000 0.8653
0.1511 -0.3993 0.0844 -0.9987 0.0000 -0.0513
0.1526 -0.3993 0.0791 -0.9079 0.0000 -0.4191
0.1526 -0.3993 0.0791 -0.9079 0.0000 -0.4191
0.1518 -0.3993 0.0882 -0.9144 0.0000 0.4049
0.1511 -0.3993 0.0844 -0.9987 0.0000 -0.0513
0.1511 -0.3993 0.0844 -0.9987 0.0000 -0.0513
0.1526 -0.3993 0.0791 -0.9079 0.0000 -0.4191
0.1916 -0.3993 0.0565 0.5983 0.0000 -0.8012
0.1916 -0.3993 0.0565 0.5983 0.0000 -0.8012
0.2014 -0.3993 0.0863 0.7319 0.0000 0.6814
0.2014 -0.3993 0.0863 0.7319 0.0000 0.6814
0.2049 -0.3993 0.0732 0.9144 0.0000 -0.4049
0.1651 -0.3993 0.1050 -0.5983 0.0000 0.8012
0.1651 -0.3993 0.1050 -0.5983 0.0000 0.8012
0.1687 -0.3993 0.1064 -0.1725 0.0000 0.9850
0.1787 -0.3993 0.1045 0.5013 0.0000 0.8653
0.1742 -0.3993 0.1062 0.2063 0.0000 0.9785
0.1742 -0.3993 0.1062 0.2063 0.0000 0.9785
0.1553 -0.3927 0.0751 -0.0000 1.0000 0.0000
0.1780 -0.3927 0.0570 -0.0000 1.0000 0.0000
0.1825 -0.3927 0.0552 -0.0000 1.0000 0.0000
0.1825 -0.3927 0.0552 -0.0000 1.0000 0.0000
0.1880 -0.3927 0.0550 -0.0000 1.0000 0.0000
0.1916 -0.3927 0.0565 -0.0000 1.0000 0.0000
0.1916 -0.3927 0.0565 -0.0000 1.0000 0.0000
0.2049 -0.3927 0.0732 -0.0000 1.0000 0.0000
0.2056 -0.3927 0.0771 -0.0000 1.0000 0.0000
0.2056 -0.3927 0.0771 -0.0000 1.0000 0.0000
0.2041 -0.3927 0.0823 -0.0000 1.0000 0.0000
0.2014 -0.3927 0.0863 -0.0000 1.0000 0.0000
0.2014 -0.3927 0.0863 -0.0000 1.0000 0.0000
0.1787 -0.3927 0.1045 -0.0000 1.0000 0.0000
0.1742 -0.3927 0.1062 -0.0000 1.0000 0.0000
0.1742 -0.3927 0.1062 -0.0000 1.0000 0.0000
0.1687 -0.3927 0.1064 -0.0000 1.0000 0.0000
0.1651 -0.3927 0.1050 -0.0000 1.0000 0.0000
0.1651 -0.3927 0.1050 -0.0000 1.0000 0.0000
0.1518 -0.3927 0.0882 -0.0000 1.0000 0.0000
0.1511 -0.3927 0.0844 -0.0000 1.0000 0.0000
0.1511 -0.3927 0.0844 -0.0000 1.0000 0.0000
0.1526 -0.3927 0.0791 -0.0000 1.0000 0.0000
0.1553 -0.3927 0.0751 -0.0000 1.0000 0.0000
0.1553 -0.3927 0.0751 -0.0000 1.0000 0.0000
0.1825 -0.3927 0.0552 -0.0000 1.0000 0.0000
0.1916 -0.3927 0.0565 -0.0000 1.0000 0.0000
0.1916 -0.3927 0.0565 -0.0000 1.0000 0.0000
0.2056 -0.3927 0.0771 -0.0000 1.0000 0.0000
0.2014 -0.3927 0.0863 -0.0000 1.0000 0.0000
0.2014 -0.3927 0.0863 -0.0000 1.0000 0.0000
0.1742 -0.3927 0.1062 -0.0000 1.0000 0.0000
0.1651 -0.3927 0.1050 -0.0000 1.0000 0.0000
0.1651 -0.3927 0.1050 -0.0000 1.0000 0.0000
0.1511 -0.3927 0.0844 -0.0000 1.0000 0.0000
0.1553 -0.3927 0.0751 -0.0000 1.0000 0.0000
0.1553 -0.3927 0.0751 -0.0000 1.0000 0.0000
0.1916 -0.3927 0.0565 -0.0000 1.0000 0.0000
0.2014 -0.3927 0.0863 -0.0000 1.0000 0.0000
0.2014 -0.3927 0.0863 -0.0000 1.0000 0.0000
0.1651 -0.3927 0.1050 -0.0000 1.0000 0.0000
0.1553 -0.3927 0.0751 -0.0000 1.0000 0.0000
0.2041 -0.3993 -0.0823 0.0000 -1.0000 0.0000
0.1553 -0.3993 -0.0751 0.0000 -1.0000 0.0000
0.1780 -0.3993 -0.0570 0.0000 -1.0000 0.0000
0.1780 -0.3993 -0.0570 0.0000 -1.0000 0.0000
0.1825 -0.3993 -0.0552 0.0000 -1.0000 0.0000
0.1880 -0.3993 -0.0550 0.0000 -1.0000 0.0000
0.1880 -0.3993 -0.0550 0.0000 -1.0000 0.0000
0.2056 -0.3993 -0.0771 0.0000 -1.0000 0.0000
0.2041 -0.3993 -0.0823 0.0000 -1.0000 0.0000
0.2041 -0.3993 -0.0823 0.0000 -1.0000 0.0000
0.1780 -0.3993 -0.0570 0.0000 -1.0000 0.0000
0.1880 -0.3993 -0.0550 0.0000 -1.0000 0.0000
0.1880 -0.3993 -0.0550 0.0000 -1.0000 0.0000
0.2041 -0.3993 -0.0823 0.0000 -1.0000 0.0000
0.2041 -0.3993 -0.0823 0.0000 -1.0000 0.0000
0.1880 -0.3993 -0.0550 0.0000 -1.0000 0.0000
0.2041 -0.3993 -0.0823 0.0000 -1.0000 0.0000
0.1687 -0.3993 -0.1064 -0.1725 0.0000 -0.9850
0.1742 -0.3993 -0.1062 0.2063 0.0000 -0.9785
0.1687 -0.3993 -0.1064 -0.1725 0.0000 -0.9850
0.1623 -0.3970 -0.0792 -0.5459 -0.4830 0.6846
0.1266 -0.2933 -0.0345 -0.5459 -0.4830 0.6846
0.1448 -0.2933 -0.0200 -0.5459 -0.4830 0.6846
0.1623 -0.3970 -0.0792 -0.5459 -0.4830 0.6846
0.1448 -0.2933 -0.0200 -0.5459 -0.4830 0.6846
0.1805 -0.3970 -0.0647 -0.5459 -0.4830 0.6846
0.1369 -0.2842 -0.0474 0.5459 0.4830 -0.6846
0.1744 -0.3934 -0.0944 0.5459 0.4830 -0.6846
0.1926 -0.3934 -0.0799 0.5459 0.4830 -0.6846
0.1369 -0.2842 -0.0474 0.5459 0.4830 -0.6846
0.1926 -0.3934 -0.0799 0.5459 0.4830 -0.6846
0.1551 -0.2842 -0.0329 0.5459 0.4830 -0.6846
0.1518 -0.3993 -0.0882 -0.9144 0.0000 -0.4049
0.1518 -0.3993 -0.0882 -0.9144 0.0000 -0.4049
0.1651 -0.3993 -0.1050 -0.5983 0.0000 -0.8012
0.2049 -0.3993 -0.0732 0.9144 0.0000 0.4049
0.2049 -0.3993 -0.0732 0.9144 0.0000 0.4049
0.1916 -0.3993 -0.0565 0.5983 0.0000 0.8012
0.1787 -0.3993 -0.1045 0.5013 0.0000 -0.8653
0.1787 -0.3993 -0.1045 0.5013 0.0000 -0.8653
0.2014 -0.3993 -0.0863 0.7319 0.0000 -0.6814
0.1526 -0.3993 -0.0791 -0.9079 0.0000 0.4191
0.1526 -0.3993 -0.0791 -0.9079 0.0000 0.4191
0.1511 -0.3993 -0.0844 -0.9987 0.0000 0.0513
0.1511 -0.3993 -0.0844 -0.9987 0.0000 0.0513
0.1511 -0.3993 -0.0844 -0.9987 0.0000 0.0513
0.1518 -0.3993 -0.0882 -0.9144 0.0000 -0.4049
0.1526 -0.3993 -0.0791 -0.9079 0.0000 0.4191
0.1916 -0.3993 -0.0565 0.5983 0.0000 0.8012
0.1916 -0.3993 -0.0565 0.5983 0.0000 0.8012
0.2014 -0.3993 -0.0863 0.7319 0.0000 -0.6814
0.2014 -0.3993 -0.0863 0.7319 0.0000 -0.6814
0.2049 -0.3993 -0.0732 0.9144 0.0000 0.4049
0.1651 -0.3993 -0.1050 -0.5983 0.0000 -0.8012
0.1687 -0.3993 -0.1064 -0.1725 0.0000 -0.9850
0.1651 -0.3993 -0.1050 -0.5983 0.0000 -0.8012
0.1742 -0.3993 -0.1062 0.2063 0.0000 -0.9785
0.1742 -0.3993 -0.1062 0.2063 0.0000 -0.9785
0.1787 -0.3993 -0.1045 0.5013 0.0000 -0.8653
0.1825 -0.3927 -0.0552 -0.0000 1.0000 0.0000
0.1780 -0.3927 -0.0570 -0.0000 1.0000 0.0000
0.1553 -0.3927 -0.0751 -0.0000 1.0000 0.0000
0.1553 -0.3927 -0.0751 -0.0000 1.0000 0.0000
0.1526 -0.3927 -0.0791 -0.0000 1.0000 0.0000
0.1511 -0.3927 -0.0844 -0.0000 1.0000 0.0000
0.1511 -0.3927 -0.0844 -0.0000 1.0000 0.0000
0.1518 -0.3927 -0.0882 -0.0000 1.0000 0.0000
0.1651 -0.3927 -0.1050 -0.0000 1.0000 0.0000
0.1651 -0.3927 -0.1050 -0.0000 1.0000 0.0000
0.1687 -0.3927 -0.1064 -0.0000 1.0000 0.0000
0.1742 -0.3927 -0.1062 -0.0000 1.0000 0.0000
0.1742 -0.3927 -0.1062 -0.0000 1.0000 0.0000
0.1787 -0.3927 -0.1045 -0.0000 1.0000 0.0000
0.2014 -0.3927 -0.0863 -0.0000 1.0000 0.0000
0.2014 -0.3927 -0.0863 -0.0000 1.0000 0.0000
0.2041 -0.3927 -0.0823 -0.0000 1.0000 0.0000
0.2056 -0.3927 -0.0771 -0.0000 1.0000 0.0000
0.2056 -0.3927 -0.0771 -0.0000 1.0000 0.0000
0.2049 -0.3927 -0.0732 -0.0000 1.0000 0.0000
0.1916 -0.3927 -0.0565 -0.0000 1.0000 0.0000
0.1916 -0.3927 -0.0565 -0.0000 1.0000 0.0000
0.1880 -0.3927 -0.0550 -0.0000 1.0000 0.0000
0.1825 -0.3927 -0.0552 -0.0000 1.0000 0.0000
0.1825 -0.3927 -0.0552 -0.0000 1.0000 0.0000
0.1553 -0.3927 -0.0751 -0.0000 1.0000 0.0000
0.1511 -0.3927 -0.0844 -0.0000 1.0000 0.0000
0.1511 -0.3927 -0.0844 -0.0000 1.0000 0.0000
0.1651 -0.3927 -0.1050 -0.0000 1.0000 0.0000
0.1742 -0.3927 -0.1062 -0.0000 1.0000 0.0000
0.1742 -0.3927 -0.1062 -0.0000 1.0000 0.0000
0.2014 -0.3927 -0.0863 -0.0000 1.0000 0.0000
0.2056 -0.3927 -0.0771 -0.0000 1.0000 0.0000
0.2056 -0.3927 -0.0771 -0.0000 1.0000 0.0000
0.1916 -0.3927 -0.0565 -0.0000 1.0000 0.0000
0.1825 -0.3927 -0.0552 -0.0000 1.0000 0.0000
0.1825 -0.3927 -0.0552 -0.0000 1.0000 0.0000
0.1511 -0.3927 -0.0844 -0.0000 1.0000 0.0000
0.1742 -0.3927 -0.1062 -0.0000 1.0000 0.0000
0.1742 -0.3927 -0.1062 -0.0000 1.0000 0.0000
0.2056 -0.3927 -0.0771 -0.0000 1.0000 0.0000
0.1825 -0.3927 -0.0552 -0.0000 1.0000 0.0000
0.0646 -0.3544 0.2573 -0.7357 -0.0000 -0.6773
0.0590 -0.3578 0.2633 -0.7357 -0.0000 -0.6773
0.0567 -0.3661 0.2659 -0.7357 -0.0000 -0.6773
0.0567 -0.3661 0.2659 -0.7357 -0.0000 -0.6773
0.0590 -0.3744 0.2633 -0.7357 -0.0000 -0.6773
0.0646 -0.3778 0.2573 -0.7357 -0.0000 -0.6773
0.0646 -0.3778 0.2573 -0.7357 -0.0000 -0.6773
0.0702 -0.3744 0.2512 -0.7357 -0.0000 -0.6773
0.0725 -0.3661 0.2486 -0.7357 -0.0000 -0.6773
0.0725 -0.3661 0.2486 -0.7357 -0.0000 -0.6773
0.0702 -0.3578 0.2512 -0.7357 -0.0000 -0.6773
0.0646 -0.3544 0.2573 -0.7357 -0.0000 -0.6773
0.0646 -0.3544 0.2573 -0.7357 -0.0000 -0.6773
0.0567 -0.3661 0.2659 -0.7357 -0.0000 -0.6773
0.0646 -0.3778 0.2573 -0.7357 -0.0000 -0.6773
0.0646 -0.3778 0.2573 -0.7357 -0.0000 -0.6773
0.0725 -0.3661 0.2486 -0.7357 -0.0000 -0.6773
0.0646 -0.3544 0.2573 -0.7357 -0.0000 -0.6773
0 2 3
2 5 6
5 4 8
4 1 7
1 2 0
2 4 5
2 1 4
15 10 9
10 12 11
12 17 13
17 14 16
14 10 15
10 17 12
10 14 17
154 156 155
157 159 158
160 162 161
163 165 164
166 168 167
169 171 170
172 174 173
175 177 176
178 180 179
181 183 182
184 186 185
187 189 188
190 192 191
193 195 194
196 198 197
199 201 200
29 41 30
29 34 41
55 51 52
55 56 51
39 35 36
39 40 35
49 202 54
203 57 204
57 205 38
206 208 207
209 31 210
31 33 32
33 47 46
47 49 48
49 57 211
57 213 212
214 33 31
33 49 47
49 215 57
216 49 33
217 43 44
218 219 43
20 25 24
20 21 25
22 19 18
22 23 19
220 222 221
223 225 224
226 228 227
229 231 230
45 233 232
45 26 234
37 236 235
37 50 237
53 239 238
53 42 240
27 242 241
27 28 243
26 245 244
26 27 246
30 28 29
30 247 28
248 36 37
249 39 36
34 40 41
34 35 40
250 52 53
251 55 52
50 56 252
50 51 56
253 44 45
254 255 44
42 257 256
42 43 258
259 261 260
262 264 263
265 267 266
268 270 269
271 273 272
274 276 275
277 279 278
280 282 281
283 285 284
286 288 287
289 291 290
292 294 293
295 297 296
298 300 299
69 81 70
69 74 81
95 91 92
95 96 91
79 75 76
79 80 75
89 301 94
302 97 303
97 304 78
305 307 306
308 71 309
71 73 72
73 87 86
87 89 88
89 97 310
97 312 311
313 73 71
73 89 87
89 314 97
315 89 73
316 83 84
317 318 83
60 65 64
60 61 65
62 59 58
62 63 59
319 321 320
322 324 323
325 327 326
328 330 329
85 332 331
85 66 333
77 335 334
77 90 336
93 338 337
93 82 339
67 341 340
67 68 342
66 344 343
66 67 345
70 68 69
70 346 68
347 76 77
348 79 76
74 80 81
74 75 80
349 92 93
350 95 92
90 96 351
90 91 96
352 84 85
353 354 84
82 356 355
82 83 357
358 360 359
361 363 362
364 366 365
367 369 368
370 372 371
373 375 374
376 378 377
379 381 380
382 384 383
385 387 386
388 390 389
391 393 392
394 396 395
397 399 398
109 121 114
109 110 121
135 131 136
135 132 131
119 115 120
119 116 115
400 129 134
129 127 128
127 113 126
113 111 112
111 402 401
403 405 404
406 137 118
137 408 407
409 127 129
127 111 113
111 411 410
412 413 137
414 111 127
111 416 415
417 123 418
419 124 123
100 105 101
100 104 105
102 99 103
102 98 99
420 422 421
423 425 424
426 428 427
429 431 430
125 432 106
125 434 433
117 435 130
117 437 436
133 438 122
133 440 439
107 441 108
107 443 442
106 444 107
106 446 445
110 108 447
110 109 108
448 116 119
449 117 116
114 120 115
114 121 120
450 132 135
451 133 132
130 136 131
130 452 136
453 124 454
455 125 124
122 456 123
122 458 457
459 461 460
462 464 463
465 467 466
468 470 469
471 473 472
474 476 475
477 479 478
480 482 481
483 485 484
486 488 487
489 491 490
492 494 493
495 497 496
498 500 499
139 148 140
139 147 148
144 153 145
144 152 153
142 151 143
142 150 151
140 149 141
140 148 149
138 147 139
138 146 147
145 146 138
145 153 146
143 152 144
143 151 152
141 150 142
141 149 150
501 503 502
504 506 505
507 509 508
510 512 511
513 515 514
516 518 517
LABEL SIDE_DetailsLight
MATERIAL 2
TEXTURE 0
FLAG 0
GEOM 480 228
-0.1491 0.0890 -0.0128 0.0000 1.0000 0.0000
-0.1557 0.0890 -0.0146 0.0000 1.0000 0.0000
-0.1606 0.0890 -0.0195 0.0000 1.0000 0.0000
-0.1624 0.0890 -0.0261 0.0000 1.0000 0.0000
-0.1606 0.0890 -0.0327 0.0000 1.0000 0.0000
-0.1557 0.0890 -0.0376 0.0000 1.0000 0.0000
-0.1491 0.0890 -0.0394 0.0000 1.0000 0.0000
-0.1424 0.0890 -0.0376 0.0000 1.0000 0.0000
-0.1376 0.0890 -0.0327 0.0000 1.0000 0.0000
-0.1358 0.0890 -0.0261 0.0000 1.0000 0.0000
-0.1376 0.0890 -0.0195 0.0000 1.0000 0.0000
-0.1424 0.0890 -0.0146 0.0000 1.0000 0.0000
-0.1491 0.0890 0.0181 0.0000 1.0000 0.0000
-0.1557 0.0890 0.0163 0.0000 1.0000 0.0000
-0.1606 0.0890 0.0114 0.0000 1.0000 0.0000
-0.1624 0.0890 0.0048 0.0000 1.0000 0.0000
-0.1606 0.0890 -0.0019 0.0000 1.0000 0.0000
-0.1557 0.0890 -0.0068 0.0000 1.0000 0.0000
-0.1491 0.0890 -0.0085 0.0000 1.0000 0.0000
-0.1424 0.0890 -0.0068 0.0000 1.0000 0.0000
-0.1376 0.0890 -0.0019 0.0000 1.0000 0.0000
-0.1358 0.0890 0.0048 0.0000 1.0000 0.0000
-0.1376 0.0890 0.0114 0.0000 1.0000 0.0000
-0.1424 0.0890 0.0163 0.0000 1.0000 0.0000
-0.1557 0.0755 -0.0146 0.0000 -1.0000 0.0000
-0.1491 0.0755 -0.0128 0.0000 -1.0000 0.0000
-0.1606 0.0755 -0.0195 0.0000 -1.0000 0.0000
-0.1624 0.0755 -0.0261 0.0000 -1.0000 0.0000
-0.1606 0.0755 -0.0327 0.0000 -1.0000 0.0000
-0.1557 0.0755 -0.0376 0.0000 -1.0000 0.0000
-0.1491 0.0755 -0.0394 0.0000 -1.0000 0.0000
-0.1424 0.0755 -0.0376 0.0000 -1.0000 0.0000
-0.1376 0.0755 -0.0327 0.0000 -1.0000 0.0000
-0.1358 0.0755 -0.0261 0.0000 -1.0000 0.0000
-0.1376 0.0755 -0.0195 0.0000 -1.0000 0.0000
-0.1424 0.0755 -0.0146 0.0000 -1.0000 0.0000
-0.1557 0.0755 0.0163 -0.0000 -1.0000 0.0000
-0.1491 0.0755 0.0181 -0.0000 -1.0000 0.0000
-0.1606 0.0755 0.0114 -0.0000 -1.0000 0.0000
-0.1624 0.0755 0.0048 -0.0000 -1.0000 0.0000
-0.1606 0.0755 -0.0019 -0.0000 -1.0000 0.0000
-0.1557 0.0755 -0.0068 -0.0000 -1.0000 0.0000
-0.1491 0.0755 -0.0085 -0.0000 -1.0000 0.0000
-0.1424 0.0755 -0.0068 -0.0000 -1.0000 0.0000
-0.1376 0.0755 -0.0019 -0.0000 -1.0000 0.0000
-0.1358 0.0755 0.0048 -0.0000 -1.0000 0.0000
-0.1376 0.0755 0.0114 -0.0000 -1.0000 0.0000
-0.1424 0.0755 0.0163 -0.0000 -1.0000 0.0000
-0.1499 0.1174 -0.0732 0.0000 1.0000 0.0000
-0.1429 0.1174 -0.0713 0.0000 1.0000 0.0000
-0.1378 0.1174 -0.0662 0.0000 1.0000 0.0000
-0.1359 0.1174 -0.0591 0.0000 1.0000 0.0000
-0.1378 0.1174 -0.0521 0.0000 1.0000 0.0000
-0.1429 0.1174 -0.0470 0.0000 1.0000 0.0000
-0.1499 0.1174 -0.0451 0.0000 1.0000 0.0000
-0.1570 0.1174 -0.0470 0.0000 1.0000 0.0000
-0.1621 0.1174 -0.0521 0.0000 1.0000 0.0000
-0.1640 0.1174 -0.0591 0.0000 1.0000 0.0000
-0.1621 0.1174 -0.0662 0.0000 1.0000 0.0000
-0.1570 0.1174 -0.0713 0.0000 1.0000 0.0000
-0.1442 0.1104 -0.0690 0.0000 -1.0000 0.0000
-0.1499 0.1104 -0.0705 -0.0000 -1.0000 0.0000
-0.1401 0.1104 -0.0648 0.8660 0.0000 -0.5000
-0.1386 0.1104 -0.0591 1.0000 0.0000 0.0000
-0.1401 0.1104 -0.0534 0.0000 -1.0000 0.0000
-0.1442 0.1104 -0.0493 -0.0000 -1.0000 0.0000
-0.1499 0.1104 -0.0477 -0.0000 -1.0000 0.0000
-0.1556 0.1104 -0.0493 -0.0000 -1.0000 0.0000
-0.1598 0.1104 -0.0534 -0.0000 -1.0000 0.0000
-0.1613 0.1104 -0.0591 -0.0000 -1.0000 0.0000
-0.1598 0.1104 -0.0648 -0.0000 -1.0000 0.0000
-0.1556 0.1104 -0.0690 0.0000 -1.0000 0.0000
-0.1429 0.1104 -0.0713 0.5000 0.0000 -0.8660
-0.1499 0.1104 -0.0732 -0.0000 0.0000 -1.0000
-0.1378 0.1104 -0.0662 0.8660 0.0000 -0.5000
-0.1359 0.1104 -0.0591 1.0000 0.0000 0.0000
-0.1378 0.1104 -0.0521 0.8660 0.0000 0.5000
-0.1429 0.1104 -0.0470 0.5000 0.0000 0.8660
-0.1499 0.1104 -0.0451 -0.0000 0.0000 1.0000
-0.1570 0.1104 -0.0470 -0.5000 0.0000 0.8660
-0.1621 0.1104 -0.0521 -0.8660 0.0000 0.5000
-0.1640 0.1104 -0.0591 -1.0000 0.0000 0.0000
-0.1621 0.1104 -0.0662 -0.8660 0.0000 -0.5000
-0.1570 0.1104 -0.0713 -0.5000 0.0000 -0.8660
-0.1455 0.0963 -0.0668 0.0000 -1.0000 0.0000
-0.1499 0.0963 -0.0680 0.0000 -1.0000 0.0000
-0.1423 0.0963 -0.0636 0.0000 -1.0000 0.0000
-0.1411 0.0963 -0.0591 -0.0000 -1.0000 0.0000
-0.1423 0.0963 -0.0547 0.0000 -1.0000 0.0000
-0.1455 0.0963 -0.0515 -0.0000 -1.0000 0.0000
-0.1499 0.0963 -0.0503 -0.0000 -1.0000 0.0000
-0.1544 0.0963 -0.0515 -0.0000 -1.0000 0.0000
-0.1576 0.0963 -0.0547 0.0000 -1.0000 0.0000
-0.1588 0.0963 -0.0591 0.0000 -1.0000 0.0000
-0.1576 0.0963 -0.0636 -0.0000 -1.0000 0.0000
-0.1544 0.0963 -0.0668 -0.0000 -1.0000 0.0000
-0.1442 0.0963 -0.0690 0.5000 0.0000 -0.8660
-0.1499 0.0963 -0.0705 0.0000 0.0000 -1.0000
-0.1401 0.0963 -0.0648 0.8660 0.0000 -0.5000
-0.1386 0.0963 -0.0591 1.0000 0.0000 0.0000
-0.1401 0.0963 -0.0534 0.8660 0.0000 0.5000
-0.1442 0.0963 -0.0493 0.5000 0.0000 0.8660
-0.1499 0.0963 -0.0477 0.0000 0.0000 1.0000
-0.1556 0.0963 -0.0493 -0.5000 0.0000 0.8660
-0.1598 0.0963 -0.0534 -0.8660 0.0000 0.5000
-0.1613 0.0963 -0.0591 -1.0000 0.0000 0.0000
-0.1598 0.0963 -0.0648 -0.8660 0.0000 -0.5000
-0.1556 0.0963 -0.0690 -0.5000 0.0000 -0.8660
-0.1455 -0.2761 -0.0668 0.0000 -1.0000 0.0000
-0.1499 -0.2761 -0.0680 0.0000 -1.0000 0.0000
-0.1423 -0.2761 -0.0636 0.0000 -1.0000 0.0000
-0.1411 -0.2761 -0.0591 0.0000 -1.0000 0.0000
-0.1423 -0.2761 -0.0547 0.0000 -1.0000 0.0000
-0.1455 -0.2761 -0.0515 0.0000 -1.0000 0.0000
-0.1499 -0.2761 -0.0503 0.0000 -1.0000 0.0000
-0.1544 -0.2761 -0.0515 0.0000 -1.0000 0.0000
-0.1576 -0.2761 -0.0547 0.0000 -1.0000 0.0000
-0.1588 -0.2761 -0.0591 0.0000 -1.0000 0.0000
-0.1576 -0.2761 -0.0636 0.0000 -1.0000 0.0000
-0.1544 -0.2761 -0.0668 0.0000 -1.0000 0.0000
-0.1491 0.0890 0.0181 -0.0000 0.0000 1.0000
-0.1491 0.0755 0.0181 -0.0000 0.0000 1.0000
-0.1557 0.0755 0.0163 -0.5000 0.0000 0.8660
-0.1491 0.0890 0.0181 -0.0000 0.0000 1.0000
-0.1557 0.0755 0.0163 -0.5000 0.0000 0.8660
-0.1557 0.0890 0.0163 -0.5000 0.0000 0.8660
-0.1557 0.0890 -0.0376 -0.5000 0.0000 -0.8660
-0.1557 0.0755 -0.0376 -0.5000 0.0000 -0.8660
-0.1491 0.0755 -0.0394 -0.0000 0.0000 -1.0000
-0.1557 0.0890 -0.0376 -0.5000 0.0000 -0.8660
-0.1491 0.0755 -0.0394 -0.0000 0.0000 -1.0000
-0.1491 0.0890 -0.0394 -0.0000 0.0000 -1.0000
-0.1376 0.0890 -0.0019 0.8660 0.0000 -0.5000
-0.1376 0.0755 -0.0019 0.8660 0.0000 -0.5000
-0.1358 0.0755 0.0048 1.0000 0.0000 0.0000
-0.1376 0.0890 -0.0019 0.8660 0.0000 -0.5000
-0.1358 0.0755 0.0048 1.0000 0.0000 0.0000
-0.1358 0.0890 0.0048 1.0000 0.0000 0.0000
-0.1557 0.0890 0.0163 -0.5000 0.0000 0.8660
-0.1557 0.0755 0.0163 -0.5000 0.0000 0.8660
-0.1606 0.0755 0.0114 -0.8660 0.0000 0.5000
-0.1557 0.0890 0.0163 -0.5000 0.0000 0.8660
-0.1606 0.0755 0.0114 -0.8660 0.0000 0.5000
-0.1606 0.0890 0.0114 -0.8660 0.0000 0.5000
-0.1491 0.0890 -0.0394 -0.0000 0.0000 -1.0000
-0.1491 0.0755 -0.0394 -0.0000 0.0000 -1.0000
-0.1424 0.0755 -0.0376 0.5000 0.0000 -0.8660
-0.1491 0.0890 -0.0394 -0.0000 0.0000 -1.0000
-0.1424 0.0755 -0.0376 0.5000 0.0000 -0.8660
-0.1424 0.0890 -0.0376 0.5000 0.0000 -0.8660
-0.1358 0.0890 0.0048 1.0000 0.0000 0.0000
-0.1358 0.0755 0.0048 1.0000 0.0000 0.0000
-0.1376 0.0755 0.0114 0.8660 0.0000 0.5000
-0.1358 0.0890 0.0048 1.0000 0.0000 0.0000
-0.1376 0.0755 0.0114 0.8660 0.0000 0.5000
-0.1376 0.0890 0.0114 0.8660 0.0000 0.5000
-0.1606 0.0890 0.0114 -0.8660 0.0000 0.5000
-0.1606 0.0755 0.0114 -0.8660 0.0000 0.5000
-0.1624 0.0755 0.0048 -1.0000 0.0000 0.0000
-0.1606 0.0890 0.0114 -0.8660 0.0000 0.5000
-0.1624 0.0755 0.0048 -1.0000 0.0000 0.0000
-0.1624 0.0890 0.0048 -1.0000 0.0000 0.0000
-0.1424 0.0890 -0.0376 0.5000 0.0000 -0.8660
-0.1424 0.0755 -0.0376 0.5000 0.0000 -0.8660
-0.1376 0.0755 -0.0327 0.8660 0.0000 -0.5000
-0.1424 0.0890 -0.0376 0.5000 0.0000 -0.8660
-0.1376 0.0755 -0.0327 0.8660 0.0000 -0.5000
-0.1376 0.0890 -0.0327 0.8660 0.0000 -0.5000
-0.1376 0.0890 0.0114 0.8660 0.0000 0.5000
-0.1376 0.0755 0.0114 0.8660 0.0000 0.5000
-0.1424 0.0755 0.0163 0.5000 0.0000 0.8660
-0.1376 0.0890 0.0114 0.8660 0.0000 0.5000
-0.1424 0.0755 0.0163 0.5000 0.0000 0.8660
-0.1424 0.0890 0.0163 0.5000 0.0000 0.8660
-0.1491 0.0890 -0.0128 -0.0000 0.0000 1.0000
-0.1491 0.0755 -0.0128 -0.0000 0.0000 1.0000
-0.1557 0.0755 -0.0146 -0.5000 0.0000 0.8660
-0.1491 0.0890 -0.0128 -0.0000 0.0000 1.0000
-0.1557 0.0755 -0.0146 -0.5000 0.0000 0.8660
-0.1557 0.0890 -0.0146 -0.5000 0.0000 0.8660
-0.1624 0.0890 0.0048 -1.0000 0.0000 0.0000
-0.1624 0.0755 0.0048 -1.0000 0.0000 0.0000
-0.1606 0.0755 -0.0019 -0.8660 0.0000 -0.5000
-0.1624 0.0890 0.0048 -1.0000 0.0000 0.0000
-0.1606 0.0755 -0.0019 -0.8660 0.0000 -0.5000
-0.1606 0.0890 -0.0019 -0.8660 0.0000 -0.5000
-0.1376 0.0890 -0.0327 0.8660 0.0000 -0.5000
-0.1376 0.0755 -0.0327 0.8660 0.0000 -0.5000
-0.1358 0.0755 -0.0261 1.0000 0.0000 0.0000
-0.1376 0.0890 -0.0327 0.8660 0.0000 -0.5000
-0.1358 0.0755 -0.0261 1.0000 0.0000 0.0000
-0.1358 0.0890 -0.0261 1.0000 0.0000 0.0000
-0.1424 0.0890 0.0163 0.5000 0.0000 0.8660
-0.1424 0.0755 0.0163 0.5000 0.0000 0.8660
-0.1491 0.0755 0.0181 -0.0000 0.0000 1.0000
-0.1424 0.0890 0.0163 0.5000 0.0000 0.8660
-0.1491 0.0755 0.0181 -0.0000 0.0000 1.0000
-0.1491 0.0890 0.0181 -0.0000 0.0000 1.0000
-0.1557 0.0890 -0.0146 -0.5000 0.0000 0.8660
-0.1557 0.0755 -0.0146 -0.5000 0.0000 0.8660
-0.1606 0.0755 -0.0195 -0.8660 0.0000 0.5000
-0.1557 0.0890 -0.0146 -0.5000 0.0000 0.8660
-0.1606 0.0755 -0.0195 -0.8660 0.0000 0.5000
-0.1606 0.0890 -0.0195 -0.8660 0.0000 0.5000
-0.1606 0.0890 -0.0019 -0.8660 0.0000 -0.5000
-0.1606 0.0755 -0.0019 -0.8660 0.0000 -0.5000
-0.1557 0.0755 -0.0068 -0.5000 0.0000 -0.8660
-0.1606 0.0890 -0.0019 -0.8660 0.0000 -0.5000
-0.1557 0.0755 -0.0068 -0.5000 0.0000 -0.8660
-0.1557 0.0890 -0.0068 -0.5000 0.0000 -0.8660
-0.1358 0.0890 -0.0261 1.0000 0.0000 0.0000
-0.1358 0.0755 -0.0261 1.0000 0.0000 0.0000
-0.1376 0.0755 -0.0195 0.8660 0.0000 0.5000
-0.1358 0.0890 -0.0261 1.0000 0.0000 0.0000
-0.1376 0.0755 -0.0195 0.8660 0.0000 0.5000
-0.1376 0.0890 -0.0195 0.8660 0.0000 0.5000
-0.1606 0.0890 -0.0195 -0.8660 0.0000 0.5000
-0.1606 0.0755 -0.0195 -0.8660 0.0000 0.5000
-0.1624 0.0755 -0.0261 -1.0000 0.0000 0.0000
-0.1606 0.0890 -0.0195 -0.8660 0.0000 0.5000
-0.1624 0.0755 -0.0261 -1.0000 0.0000 0.0000
-0.1624 0.0890 -0.0261 -1.0000 0.0000 0.0000
-0.1557 0.0890 -0.0068 -0.5000 0.0000 -0.8660
-0.1557 0.0755 -0.0068 -0.5000 0.0000 -0.8660
-0.1491 0.0755 -0.0085 -0.0000 0.0000 -1.0000
-0.1557 0.0890 -0.0068 -0.5000 0.0000 -0.8660
-0.1491 0.0755 -0.0085 -0.0000 0.0000 -1.0000
-0.1491 0.0890 -0.0085 -0.0000 0.0000 -1.0000
-0.1376 0.0890 -0.0195 0.8660 0.0000 0.5000
-0.1376 0.0755 -0.0195 0.8660 0.0000 0.5000
-0.1424 0.0755 -0.0146 0.5000 0.0000 0.8660
-0.1376 0.0890 -0.0195 0.8660 0.0000 0.5000
-0.1424 0.0755 -0.0146 0.5000 0.0000 0.8660
-0.1424 0.0890 -0.0146 0.5000 0.0000 0.8660
-0.1624 0.0890 -0.0261 -1.0000 0.0000 0.0000
-0.1624 0.0755 -0.0261 -1.0000 0.0000 0.0000
-0.1606 0.0755 -0.0327 -0.8660 0.0000 -0.5000
-0.1624 0.0890 -0.0261 -1.0000 0.0000 0.0000
-0.1606 0.0755 -0.0327 -0.8660 0.0000 -0.5000
-0.1606 0.0890 -0.0327 -0.8660 0.0000 -0.5000
-0.1491 0.0890 -0.0085 -0.0000 0.0000 -1.0000
-0.1491 0.0755 -0.0085 -0.0000 0.0000 -1.0000
-0.1424 0.0755 -0.0068 0.5000 0.0000 -0.8660
-0.1491 0.0890 -0.0085 -0.0000 0.0000 -1.0000
-0.1424 0.0755 -0.0068 0.5000 0.0000 -0.8660
-0.1424 0.0890 -0.0068 0.5000 0.0000 -0.8660
-0.1424 0.0890 -0.0146 0.5000 0.0000 0.8660
-0.1424 0.0755 -0.0146 0.5000 0.0000 0.8660
-0.1491 0.0755 -0.0128 -0.0000 0.0000 1.0000
-0.1424 0.0890 -0.0146 0.5000 0.0000 0.8660
-0.1491 0.0755 -0.0128 -0.0000 0.0000 1.0000
-0.1491 0.0890 -0.0128 -0.0000 0.0000 1.0000
-0.1606 0.0890 -0.0327 -0.8660 0.0000 -0.5000
-0.1606 0.0755 -0.0327 -0.8660 0.0000 -0.5000
-0.1557 0.0755 -0.0376 -0.5000 0.0000 -0.8660
-0.1606 0.0890 -0.0327 -0.8660 0.0000 -0.5000
-0.1557 0.0755 -0.0376 -0.5000 0.0000 -0.8660
-0.1557 0.0890 -0.0376 -0.5000 0.0000 -0.8660
-0.1424 0.0890 -0.0068 0.5000 0.0000 -0.8660
-0.1424 0.0755 -0.0068 0.5000 0.0000 -0.8660
-0.1376 0.0755 -0.0019 0.8660 0.0000 -0.5000
-0.1424 0.0890 -0.0068 0.5000 0.0000 -0.8660
-0.1376 0.0755 -0.0019 0.8660 0.0000 -0.5000
-0.1376 0.0890 -0.0019 0.8660 0.0000 -0.5000
-0.1621 0.1174 -0.0662 -0.8660 0.0000 -0.5000
-0.1621 0.1174 -0.0662 -0.8660 0.0000 -0.5000
-0.1570 0.1174 -0.0713 -0.5000 0.0000 -0.8660
-0.1499 0.1174 -0.0732 -0.0000 0.0000 -1.0000
-0.1499 0.1174 -0.0732 -0.0000 0.0000 -1.0000
-0.1429 0.1174 -0.0713 0.5000 0.0000 -0.8660
-0.1570 0.1174 -0.0470 -0.5000 0.0000 0.8660
-0.1570 0.1174 -0.0470 -0.5000 0.0000 0.8660
-0.1621 0.1174 -0.0521 -0.8660 0.0000 0.5000
-0.1378 0.1174 -0.0521 0.8660 0.0000 0.5000
-0.1378 0.1174 -0.0521 0.8660 0.0000 0.5000
-0.1429 0.1174 -0.0470 0.5000 0.0000 0.8660
-0.1570 0.1174 -0.0713 -0.5000 0.0000 -0.8660
-0.1570 0.1174 -0.0713 -0.5000 0.0000 -0.8660
-0.1499 0.1174 -0.0732 -0.0000 0.0000 -1.0000
-0.1429 0.1174 -0.0713 0.5000 0.0000 -0.8660
-0.1429 0.1174 -0.0713 0.5000 0.0000 -0.8660
-0.1378 0.1174 -0.0662 0.8660 0.0000 -0.5000
-0.1621 0.1174 -0.0521 -0.8660 0.0000 0.5000
-0.1621 0.1174 -0.0521 -0.8660 0.0000 0.5000
-0.1640 0.1174 -0.0591 -1.0000 0.0000 0.0000
-0.1429 0.1174 -0.0470 0.5000 0.0000 0.8660
-0.1429 0.1174 -0.0470 0.5000 0.0000 0.8660
-0.1499 0.1174 -0.0451 -0.0000 0.0000 1.0000
-0.1378 0.1174 -0.0662 0.8660 0.0000 -0.5000
-0.1378 0.1174 -0.0662 0.8660 0.0000 -0.5000
-0.1359 0.1174 -0.0591 1.0000 0.0000 0.0000
-0.1640 0.1174 -0.0591 -1.0000 0.0000 0.0000
-0.1640 0.1174 -0.0591 -1.0000 0.0000 0.0000
-0.1621 0.1174 -0.0662 -0.8660 0.0000 -0.5000
-0.1499 0.1174 -0.0451 -0.0000 0.0000 1.0000
-0.1499 0.1174 -0.0451 -0.0000 0.0000 1.0000
-0.1570 0.1174 -0.0470 -0.5000 0.0000 0.8660
-0.1359 0.1174 -0.0591 1.0000 0.0000 0.0000
-0.1359 0.1174 -0.0591 1.0000 0.0000 0.0000
-0.1378 0.1174 -0.0521 0.8660 0.0000 0.5000
-0.1429 0.1104 -0.0713 -0.0000 -1.0000 0.0000
-0.1499 0.1104 -0.0732 -0.0000 -1.0000 0.0000
-0.1499 0.1104 -0.0732 -0.0000 -1.0000 0.0000
-0.1401 0.1104 -0.0648 0.0000 -1.0000 0.0000
-0.1378 0.1104 -0.0662 0.0000 -1.0000 0.0000
-0.1429 0.1104 -0.0713 -0.0000 -1.0000 0.0000
-0.1401 0.1104 -0.0648 0.0000 -1.0000 0.0000
-0.1429 0.1104 -0.0713 -0.0000 -1.0000 0.0000
-0.1386 0.1104 -0.0591 0.0000 -1.0000 0.0000
-0.1359 0.1104 -0.0591 0.0000 -1.0000 0.0000
-0.1378 0.1104 -0.0662 0.0000 -1.0000 0.0000
-0.1386 0.1104 -0.0591 0.0000 -1.0000 0.0000
-0.1378 0.1104 -0.0662 0.0000 -1.0000 0.0000
-0.1401 0.1104 -0.0648 0.0000 -1.0000 0.0000
-0.1378 0.1104 -0.0521 0.0000 -1.0000 0.0000
-0.1359 0.1104 -0.0591 0.0000 -1.0000 0.0000
-0.1359 0.1104 -0.0591 0.0000 -1.0000 0.0000
-0.1386 0.1104 -0.0591 0.0000 -1.0000 0.0000
-0.1429 0.1104 -0.0470 -0.0000 -1.0000 0.0000
-0.1378 0.1104 -0.0521 0.0000 -1.0000 0.0000
-0.1378 0.1104 -0.0521 0.0000 -1.0000 0.0000
-0.1499 0.1104 -0.0451 -0.0000 -1.0000 0.0000
-0.1429 0.1104 -0.0470 -0.0000 -1.0000 0.0000
-0.1429 0.1104 -0.0470 -0.0000 -1.0000 0.0000
-0.1570 0.1104 -0.0470 0.0000 -1.0000 0.0000
-0.1499 0.1104 -0.0451 -0.0000 -1.0000 0.0000
-0.1499 0.1104 -0.0451 -0.0000 -1.0000 0.0000
-0.1621 0.1104 -0.0521 -0.0000 -1.0000 0.0000
-0.1570 0.1104 -0.0470 0.0000 -1.0000 0.0000
-0.1570 0.1104 -0.0470 0.0000 -1.0000 0.0000
-0.1640 0.1104 -0.0591 -0.0000 -1.0000 0.0000
-0.1621 0.1104 -0.0521 -0.0000 -1.0000 0.0000
-0.1621 0.1104 -0.0521 -0.0000 -1.0000 0.0000
-0.1621 0.1104 -0.0662 -0.0000 -1.0000 0.0000
-0.1640 0.1104 -0.0591 -0.0000 -1.0000 0.0000
-0.1640 0.1104 -0.0591 -0.0000 -1.0000 0.0000
-0.1570 0.1104 -0.0713 0.0000 -1.0000 0.0000
-0.1621 0.1104 -0.0662 -0.0000 -1.0000 0.0000
-0.1621 0.1104 -0.0662 -0.0000 -1.0000 0.0000
-0.1499 0.1104 -0.0732 -0.0000 -1.0000 0.0000
-0.1570 0.1104 -0.0713 0.0000 -1.0000 0.0000
-0.1570 0.1104 -0.0713 0.0000 -1.0000 0.0000
-0.1613 0.1104 -0.0591 -1.0000 0.0000 0.0000
-0.1613 0.1104 -0.0591 -1.0000 0.0000 0.0000
-0.1598 0.1104 -0.0648 -0.8660 0.0000 -0.5000
-0.1499 0.1104 -0.0477 0.0000 0.0000 1.0000
-0.1499 0.1104 -0.0477 0.0000 0.0000 1.0000
-0.1556 0.1104 -0.0493 -0.5000 0.0000 0.8660
-0.1401 0.1104 -0.0534 0.8660 0.0000 0.5000
-0.1598 0.1104 -0.0648 -0.8660 0.0000 -0.5000
-0.1598 0.1104 -0.0648 -0.8660 0.0000 -0.5000
-0.1556 0.1104 -0.0690 -0.5000 0.0000 -0.8660
-0.1499 0.1104 -0.0705 0.0000 0.0000 -1.0000
-0.1499 0.1104 -0.0705 0.0000 0.0000 -1.0000
-0.1442 0.1104 -0.0690 0.5000 0.0000 -0.8660
-0.1556 0.1104 -0.0493 -0.5000 0.0000 0.8660
-0.1556 0.1104 -0.0493 -0.5000 0.0000 0.8660
-0.1598 0.1104 -0.0534 -0.8660 0.0000 0.5000
-0.1401 0.1104 -0.0534 0.8660 0.0000 0.5000
-0.1401 0.1104 -0.0534 0.8660 0.0000 0.5000
-0.1442 0.1104 -0.0493 0.5000 0.0000 0.8660
-0.1556 0.1104 -0.0690 -0.5000 0.0000 -0.8660
-0.1556 0.1104 -0.0690 -0.5000 0.0000 -0.8660
-0.1499 0.1104 -0.0705 0.0000 0.0000 -1.0000
-0.1442 0.1104 -0.0690 0.5000 0.0000 -0.8660
-0.1442 0.1104 -0.0690 0.5000 0.0000 -0.8660
-0.1598 0.1104 -0.0534 -0.8660 0.0000 0.5000
-0.1598 0.1104 -0.0534 -0.8660 0.0000 0.5000
-0.1613 0.1104 -0.0591 -1.0000 0.0000 0.0000
-0.1442 0.1104 -0.0493 0.5000 0.0000 0.8660
-0.1442 0.1104 -0.0493 0.5000 0.0000 0.8660
-0.1499 0.1104 -0.0477 0.0000 0.0000 1.0000
-0.1442 0.0963 -0.0690 0.0000 -1.0000 0.0000
-0.1499 0.0963 -0.0705 0.0000 -1.0000 0.0000
-0.1499 0.0963 -0.0705 0.0000 -1.0000 0.0000
-0.1401 0.0963 -0.0648 0.0000 -1.0000 0.0000
-0.1442 0.0963 -0.0690 0.0000 -1.0000 0.0000
-0.1442 0.0963 -0.0690 0.0000 -1.0000 0.0000
-0.1386 0.0963 -0.0591 -0.0000 -1.0000 0.0000
-0.1401 0.0963 -0.0648 0.0000 -1.0000 0.0000
-0.1401 0.0963 -0.0648 0.0000 -1.0000 0.0000
-0.1401 0.0963 -0.0534 0.0000 -1.0000 0.0000
-0.1386 0.0963 -0.0591 -0.0000 -1.0000 0.0000
-0.1386 0.0963 -0.0591 -0.0000 -1.0000 0.0000
-0.1442 0.0963 -0.0493 -0.0000 -1.0000 0.0000
-0.1401 0.0963 -0.0534 0.0000 -1.0000 0.0000
-0.1401 0.0963 -0.0534 0.0000 -1.0000 0.0000
-0.1499 0.0963 -0.0477 -0.0000 -1.0000 0.0000
-0.1442 0.0963 -0.0493 -0.0000 -1.0000 0.0000
-0.1442 0.0963 -0.0493 -0.0000 -1.0000 0.0000
-0.1556 0.0963 -0.0493 -0.0000 -1.0000 0.0000
-0.1499 0.0963 -0.0477 -0.0000 -1.0000 0.0000
-0.1499 0.0963 -0.0477 -0.0000 -1.0000 0.0000
-0.1598 0.0963 -0.0534 0.0000 -1.0000 0.0000
-0.1556 0.0963 -0.0493 -0.0000 -1.0000 0.0000
-0.1556 0.0963 -0.0493 -0.0000 -1.0000 0.0000
-0.1613 0.0963 -0.0591 0.0000 -1.0000 0.0000
-0.1598 0.0963 -0.0534 0.0000 -1.0000 0.0000
-0.1598 0.0963 -0.0534 0.0000 -1.0000 0.0000
-0.1598 0.0963 -0.0648 -0.0000 -1.0000 0.0000
-0.1613 0.0963 -0.0591 0.0000 -1.0000 0.0000
-0.1613 0.0963 -0.0591 0.0000 -1.0000 0.0000
-0.1556 0.0963 -0.0690 -0.0000 -1.0000 0.0000
-0.1598 0.0963 -0.0648 -0.0000 -1.0000 0.0000
-0.1598 0.0963 -0.0648 -0.0000 -1.0000 0.0000
-0.1499 0.0963 -0.0705 0.0000 -1.0000 0.0000
-0.1556 0.0963 -0.0690 -0.0000 -1.0000 0.0000
-0.1556 0.0963 -0.0690 -0.0000 -1.0000 0.0000
-0.1423 0.0963 -0.0547 0.8660 -0.0000 0.5000
-0.1423 -0.2761 -0.0547 0.8660 -0.0000 0.5000
-0.1455 -0.2761 -0.0515 0.5000 -0.0000 0.8660
-0.1423 0.0963 -0.0547 0.8660 -0.0000 0.5000
-0.1455 -0.2761 -0.0515 0.5000 -0.0000 0.8660
-0.1455 0.0963 -0.0515 0.5000 -0.0000 0.8660
-0.1544 0.0963 -0.0668 -0.5000 0.0000 -0.8660
-0.1544 -0.2761 -0.0668 -0.5000 0.0000 -0.8660
-0.1499 -0.2761 -0.0680 -0.0000 -0.0000 -1.0000
-0.1544 0.0963 -0.0668 -0.5000 0.0000 -0.8660
-0.1499 -0.2761 -0.0680 -0.0000 -0.0000 -1.0000
-0.1499 0.0963 -0.0680 -0.0000 -0.0000 -1.0000
-0.1455 0.0963 -0.0668 0.5000 -0.0000 -0.8660
-0.1455 -0.2761 -0.0668 0.5000 -0.0000 -0.8660
-0.1423 -0.2761 -0.0636 0.8660 -0.0000 -0.5000
-0.1455 0.0963 -0.0668 0.5000 -0.0000 -0.8660
-0.1423 -0.2761 -0.0636 0.8660 -0.0000 -0.5000
-0.1423 0.0963 -0.0636 0.8660 -0.0000 -0.5000
-0.1576 0.0963 -0.0547 -0.8660 0.0000 0.5000
-0.1576 -0.2761 -0.0547 -0.8660 0.0000 0.5000
-0.1588 -0.2761 -0.0591 -1.0000 0.0000 0.0000
-0.1576 0.0963 -0.0547 -0.8660 0.0000 0.5000
-0.1588 -0.2761 -0.0591 -1.0000 0.0000 0.0000
-0.1588 0.0963 -0.0591 -1.0000 0.0000 0.0000
-0.1455 0.0963 -0.0515 0.5000 -0.0000 0.8660
-0.1455 -0.2761 -0.0515 0.5000 -0.0000 0.8660
-0.1499 -0.2761 -0.0503 -0.0000 -0.0000 1.0000
-0.1455 0.0963 -0.0515 0.5000 -0.0000 0.8660
-0.1499 -0.2761 -0.0503 -0.0000 -0.0000 1.0000
-0.1499 0.0963 -0.0503 -0.0000 -0.0000 1.0000
-0.1423 0.0963 -0.0636 0.8660 -0.0000 -0.5000
-0.1423 -0.2761 -0.0636 0.8660 -0.0000 -0.5000
-0.1411 -0.2761 -0.0591 1.0000 -0.0000 0.0000
-0.1423 0.0963 -0.0636 0.8660 -0.0000 -0.5000
-0.1411 -0.2761 -0.0591 1.0000 -0.0000 0.0000
-0.1411 0.0963 -0.0591 1.0000 -0.0000 0.0000
-0.1588 0.0963 -0.0591 -1.0000 0.0000 0.0000
-0.1588 -0.2761 -0.0591 -1.0000 0.0000 0.0000
-0.1576 -0.2761 -0.0636 -0.8660 0.0000 -0.5000
-0.1588 0.0963 -0.0591 -1.0000 0.0000 0.0000
-0.1576 -0.2761 -0.0636 -0.8660 0.0000 -0.5000
-0.1576 0.0963 -0.0636 -0.8660 0.0000 -0.5000
-0.1499 0.0963 -0.0503 -0.0000 -0.0000 1.0000
-0.1499 -0.2761 -0.0503 -0.0000 -0.0000 1.0000
-0.1544 -0.2761 -0.0515 -0.5000 0.0000 0.8660
-0.1499 0.0963 -0.0503 -0.0000 -0.0000 1.0000
-0.1544 -0.2761 -0.0515 -0.5000 0.0000 0.8660
-0.1544 0.0963 -0.0515 -0.5000 0.0000 0.8660
-0.1411 0.0963 -0.0591 1.0000 -0.0000 0.0000
-0.1411 -0.2761 -0.0591 1.0000 -0.0000 0.0000
-0.1423 -0.2761 -0.0547 0.8660 -0.0000 0.5000
-0.1411 0.0963 -0.0591 1.0000 -0.0000 0.0000
-0.1423 -0.2761 -0.0547 0.8660 -0.0000 0.5000
-0.1423 0.0963 -0.0547 0.8660 -0.0000 0.5000
-0.1576 0.0963 -0.0636 -0.8660 0.0000 -0.5000
-0.1576 -0.2761 -0.0636 -0.8660 0.0000 -0.5000
-0.1544 -0.2761 -0.0668 -0.5000 0.0000 -0.8660
-0.1576 0.0963 -0.0636 -0.8660 0.0000 -0.5000
-0.1544 -0.2761 -0.0668 -0.5000 0.0000 -0.8660
-0.1544 0.0963 -0.0668 -0.5000 0.0000 -0.8660
-0.1499 0.0963 -0.0680 -0.0000 -0.0000 -1.0000
-0.1499 -0.2761 -0.0680 -0.0000 -0.0000 -1.0000
-0.1455 -0.2761 -0.0668 0.5000 -0.0000 -0.8660
-0.1499 0.0963 -0.0680 -0.0000 -0.0000 -1.0000
-0.1455 -0.2761 -0.0668 0.5000 -0.0000 -0.8660
-0.1455 0.0963 -0.0668 0.5000 -0.0000 -0.8660
-0.1544 0.0963 -0.0515 -0.5000 0.0000 0.8660
-0.1544 -0.2761 -0.0515 -0.5000 0.0000 0.8660
-0.1576 -0.2761 -0.0547 -0.8660 0.0000 0.5000
-0.1544 0.0963 -0.0515 -0.5000 0.0000 0.8660
-0.1576 -0.2761 -0.0547 -0.8660 0.0000 0.5000
-0.1576 0.0963 -0.0547 -0.8660 0.0000 0.5000
0 2 1
2 4 3
4 6 5
6 8 7
8 10 9
10 0 11
0 4 2
4 8 6
8 0 10
4 0 8
12 14 13
14 16 15
16 18 17
18 20 19
20 22 21
22 12 23
12 16 14
16 20 18
20 12 22
16 12 20
26 25 24
25 34 35
34 32 33
32 30 31
30 28 29
28 26 27
26 34 25
34 30 32
30 26 28
34 26 30
38 37 36
37 46 47
46 44 45
44 42 43
42 40 41
40 38 39
38 46 37
46 42 44
42 38 40
46 38 42
120 122 121
123 125 124
126 128 127
129 131 130
132 134 133
135 137 136
138 140 139
141 143 142
144 146 145
147 149 148
150 152 151
153 155 154
156 158 157
159 161 160
162 164 163
165 167 166
168 170 169
171 173 172
174 176 175
177 179 178
180 182 181
183 185 184
186 188 187
189 191 190
192 194 193
195 197 196
198 200 199
201 203 202
204 206 205
207 209 208
210 212 211
213 215 214
216 218 217
219 221 220
222 224 223
225 227 226
228 230 229
231 233 232
234 236 235
237 239 238
240 242 241
243 245 244
246 248 247
249 251 250
252 254 253
255 257 256
258 260 259
261 263 262
48 50 49
50 52 51
52 54 53
54 56 55
56 58 57
58 48 59
48 52 50
52 56 54
56 48 58
52 48 56
62 99 98
62 63 99
264 83 82
265 266 83
267 72 73
268 269 72
270 80 79
271 272 80
273 77 76
274 275 77
276 73 83
277 278 73
279 74 72
280 281 74
282 81 80
283 284 81
285 78 77
286 287 78
288 75 74
289 290 75
291 82 81
292 293 82
294 79 78
295 296 79
297 76 75
298 299 76
60 301 300
60 61 302
303 305 304
306 60 307
308 310 309
311 313 312
64 315 314
64 317 316
65 319 318
65 64 320
66 322 321
66 65 323
67 325 324
67 66 326
68 328 327
68 67 329
69 331 330
69 68 332
70 334 333
70 69 335
71 337 336
71 70 338
61 340 339
61 71 341
342 106 105
343 344 106
345 103 102
346 347 103
63 100 99
63 348 100
349 107 106
350 351 107
352 96 97
353 354 96
355 104 103
356 357 104
358 101 100
359 360 101
361 97 107
362 363 97
364 98 96
365 62 98
366 105 104
367 368 105
369 102 101
370 371 102
84 373 372
84 85 374
86 376 375
86 84 377
87 379 378
87 86 380
88 382 381
88 87 383
89 385 384
89 88 386
90 388 387
90 89 389
91 391 390
91 90 392
92 394 393
92 91 395
93 397 396
93 92 398
94 400 399
94 93 401
95 403 402
95 94 404
85 406 405
85 95 407
110 109 108
109 118 119
118 116 117
116 114 115
114 112 113
112 110 111
110 118 109
118 114 116
114 110 112
118 110 114
408 410 409
411 413 412
414 416 415
417 419 418
420 422 421
423 425 424
426 428 427
429 431 430
432 434 433
435 437 436
438 440 439
441 443 442
444 446 445
447 449 448
450 452 451
453 455 454
456 458 457
459 461 460
462 464 463
465 467 466
468 470 469
471 473 472
474 476 475
477 479 478
LABEL SIDE_ElecBox
MATERIAL 3
TEXTURE 0
FLAG 0
GEOM 219 83
0.1650 0.0940 0.0570 0.0000 -0.0000 1.0000
0.1512 -0.0428 0.0359 -0.0000 0.0000 1.0000
0.1650 -0.0428 0.0570 0.0000 -0.0000 1.0000
0.1512 -0.2950 -0.0570 -0.0000 -0.0000 -1.0000
0.1512 -0.2950 0.0570 0.0000 -0.0000 1.0000
0.1512 -0.0428 0.0570 0.0000 -0.0000 1.0000
0.1650 -0.2950 -0.0570 -0.0000 0.4541 -0.8909
0.1650 -0.2950 0.0570 -0.0000 0.4541 0.8909
0.1650 -0.0428 0.0359 -0.0000 0.0000 1.0000
0.1512 -0.2536 -0.0359 -0.0000 0.4541 -0.8909
0.1512 -0.2536 0.0359 -0.0000 0.4541 0.8909
0.1650 -0.2536 -0.0359 -0.0000 0.4541 -0.8909
0.1650 -0.2536 0.0359 -0.0000 0.4541 0.8909
-0.1231 0.0940 0.0570 0.0000 -0.0000 1.0000
-0.1231 -0.2950 0.0570 0.0000 -0.0000 1.0000
-0.1650 -0.2950 0.0570 -0.0000 0.4859 0.8740
-0.1231 0.0940 -0.0570 -0.0000 -0.0000 -1.0000
-0.1231 -0.2950 -0.0570 -0.0000 -0.0000 -1.0000
-0.1650 -0.2950 -0.0570 0.0000 0.2352 -0.9719
-0.1650 0.0769 0.0340 -1.0000 0.0000 0.0000
-0.1231 0.0769 0.0340 -0.0000 1.0000 0.0000
-0.1650 0.0769 -0.0470 -0.0000 0.0000 -1.0000
-0.1231 0.0769 -0.0470 -0.0000 0.0000 -1.0000
-0.1650 -0.2536 0.0340 -0.0000 0.0000 1.0000
-0.1231 -0.2536 0.0340 -0.0000 0.0000 1.0000
-0.1231 -0.2536 -0.0470 -0.0000 0.0000 -1.0000
-0.1650 -0.2536 -0.0470 -0.0000 0.0000 -1.0000
-0.1650 -0.0663 0.0340 -1.0000 0.0000 0.0000
-0.1650 -0.2048 0.0340 -0.0000 0.0000 1.0000
-0.1650 -0.0663 -0.0470 -0.0000 0.0000 -1.0000
-0.1650 -0.2048 -0.0470 -0.0000 0.0000 -1.0000
-0.1231 -0.2048 0.0340 -0.0000 0.0000 1.0000
-0.1231 -0.0663 0.0340 -0.0000 -0.0000 1.0000
-0.1231 -0.1009 0.0570 0.0000 -0.0000 1.0000
-0.1231 -0.1702 0.0570 0.0000 -0.0000 1.0000
-0.0422 -0.2048 -0.0470 -0.0000 0.0000 1.0000
-0.0422 -0.0663 -0.0470 -0.0000 0.0000 1.0000
-0.0422 -0.1009 0.0570 0.0000 0.0000 -1.0000
-0.0422 -0.1702 0.0570 0.0000 0.5541 -0.8324
-0.0422 -0.2048 0.0340 0.0000 0.5541 -0.8324
-0.0422 -0.0663 0.0340 0.0000 -0.5541 -0.8324
0.1650 0.0940 -0.0359 0.0000 1.0000 0.0000
0.1512 0.0940 -0.0570 -0.0000 -0.0000 -1.0000
0.1512 0.0940 -0.0359 0.0000 1.0000 0.0000
0.1512 -0.2950 0.0570 -0.0000 0.4541 0.8909
0.1650 -0.2536 0.0359 -0.0000 0.0000 1.0000
0.1650 -0.2536 0.0359 -0.0000 0.0000 1.0000
0.1512 -0.2536 0.0359 -0.0000 0.0000 1.0000
0.1512 -0.2950 -0.0570 -0.0000 0.4541 -0.8909
0.1512 -0.2950 -0.0570 -0.0000 0.4541 -0.8909
-0.1231 -0.2950 -0.0570 -1.0000 -0.0000 0.0000
-0.1231 0.0940 -0.0570 -1.0000 -0.0000 0.0000
-0.1231 0.0769 -0.0470 -1.0000 -0.0000 0.0000
-0.1231 -0.2950 -0.0570 -1.0000 -0.0000 0.0000
-0.1231 0.0769 -0.0470 -1.0000 -0.0000 0.0000
-0.1231 -0.2536 -0.0470 -1.0000 -0.0000 0.0000
-0.1650 0.0769 -0.0470 -1.0000 0.0000 0.0000
-0.1650 0.0769 -0.0470 -1.0000 0.0000 0.0000
-0.1650 -0.0663 -0.0470 -1.0000 0.0000 0.0000
-0.1650 0.0769 0.0340 -0.0000 1.0000 0.0000
-0.1650 0.0769 -0.0470 -0.0000 1.0000 0.0000
-0.1231 0.0769 -0.0470 -0.0000 1.0000 0.0000
-0.1650 0.0769 0.0340 -0.0000 1.0000 0.0000
-0.1231 0.0769 -0.0470 -0.0000 1.0000 0.0000
-0.1231 0.0940 -0.0570 -1.0000 -0.0000 0.0000
-0.1231 0.0940 0.0570 -1.0000 -0.0000 0.0000
-0.1231 0.0769 0.0340 -1.0000 -0.0000 0.0000
-0.1231 0.0940 -0.0570 -1.0000 -0.0000 0.0000
-0.1231 0.0769 0.0340 -1.0000 -0.0000 0.0000
-0.1231 0.0769 -0.0470 -1.0000 -0.0000 0.0000
-0.1231 -0.2950 0.0570 -0.0000 0.4859 0.8740
-0.1650 -0.2536 0.0340 -0.0000 0.4859 0.8740
-0.1231 -0.2950 0.0570 -0.0000 0.4859 0.8740
-0.1650 -0.2536 0.0340 -0.0000 0.4859 0.8740
-0.1231 -0.2536 0.0340 -0.0000 0.4859 0.8740
-0.1231 -0.2950 -0.0570 0.0000 0.2352 -0.9719
-0.1231 -0.2536 -0.0470 0.0000 0.2352 -0.9719
-0.1650 -0.2536 -0.0470 0.0000 0.2352 -0.9719
-0.1231 -0.2950 -0.0570 0.0000 0.2352 -0.9719
-0.1650 -0.2536 -0.0470 0.0000 0.2352 -0.9719
-0.1231 -0.2048 0.0340 -1.0000 -0.0000 -0.0000
-0.1231 -0.1702 0.0570 -1.0000 -0.0000 -0.0000
-0.1231 -0.2950 0.0570 -1.0000 -0.0000 -0.0000
-0.1231 -0.2048 0.0340 -1.0000 -0.0000 -0.0000
-0.1231 -0.2950 0.0570 -1.0000 -0.0000 -0.0000
-0.1231 -0.2536 0.0340 -1.0000 -0.0000 -0.0000
-0.1650 -0.2048 -0.0470 -1.0000 0.0000 0.0000
-0.1650 -0.2048 0.0340 -1.0000 0.0000 0.0000
-0.1650 -0.2536 0.0340 -1.0000 0.0000 0.0000
-0.1650 -0.2536 0.0340 -1.0000 0.0000 0.0000
-0.1650 -0.2950 0.0570 -1.0000 0.0000 0.0000
-0.1650 -0.2950 -0.0570 -1.0000 0.0000 0.0000
-0.1650 -0.2536 -0.0470 -1.0000 0.0000 0.0000
-0.1650 -0.2048 -0.0470 -1.0000 0.0000 0.0000
-0.1650 -0.2536 0.0340 -1.0000 0.0000 0.0000
-0.1650 -0.2536 0.0340 -1.0000 0.0000 0.0000
-0.1650 -0.2950 -0.0570 -1.0000 0.0000 0.0000
-0.1650 -0.2536 -0.0470 -1.0000 0.0000 0.0000
-0.1650 -0.0663 0.0340 -0.0000 -0.0000 1.0000
-0.1650 0.0769 0.0340 -0.0000 -0.0000 1.0000
-0.1231 0.0769 0.0340 -0.0000 -0.0000 1.0000
-0.1650 -0.0663 0.0340 -0.0000 -0.0000 1.0000
-0.1231 0.0769 0.0340 -0.0000 -0.0000 1.0000
-0.1231 -0.0663 0.0340 -1.0000 -0.0000 -0.0000
-0.1231 0.0769 0.0340 -1.0000 -0.0000 -0.0000
-0.1231 0.0940 0.0570 -1.0000 -0.0000 -0.0000
-0.1231 -0.0663 0.0340 -1.0000 -0.0000 -0.0000
-0.1231 0.0940 0.0570 -1.0000 -0.0000 -0.0000
-0.1231 -0.1009 0.0570 -1.0000 -0.0000 -0.0000
-0.1231 -0.2048 0.0340 0.0000 0.5541 -0.8324
-0.1231 -0.2048 0.0340 0.0000 0.5541 -0.8324
-0.1231 -0.1702 0.0570 0.0000 0.5541 -0.8324
-0.1650 -0.0663 -0.0470 -0.0000 0.0000 1.0000
-0.1650 -0.0663 -0.0470 -0.0000 0.0000 1.0000
-0.1650 -0.2048 -0.0470 -0.0000 0.0000 1.0000
-0.1231 -0.1009 0.0570 0.0000 0.0000 -1.0000
-0.1231 -0.1702 0.0570 0.0000 0.0000 -1.0000
-0.0422 -0.1702 0.0570 0.0000 0.0000 -1.0000
-0.1231 -0.1009 0.0570 0.0000 0.0000 -1.0000
-0.0422 -0.1702 0.0570 0.0000 0.0000 -1.0000
-0.1231 -0.0663 0.0340 0.0000 -0.5541 -0.8324
-0.1231 -0.1009 0.0570 0.0000 -0.5541 -0.8324
-0.1231 -0.1009 0.0570 0.0000 -0.5541 -0.8324
-0.0422 -0.1009 0.0570 0.0000 -0.5541 -0.8324
-0.0422 -0.1009 0.0570 -1.0000 -0.0000 -0.0000
-0.0422 -0.1702 0.0570 -1.0000 -0.0000 -0.0000
-0.0422 -0.2048 0.0340 -1.0000 -0.0000 -0.0000
-0.0422 -0.2048 0.0340 -1.0000 -0.0000 -0.0000
-0.0422 -0.2048 -0.0470 -1.0000 -0.0000 -0.0000
-0.0422 -0.0663 -0.0470 -1.0000 -0.0000 -0.0000
-0.0422 -0.0663 -0.0470 -1.0000 -0.0000 -0.0000
-0.0422 -0.0663 0.0340 -1.0000 -0.0000 -0.0000
-0.0422 -0.1009 0.0570 -1.0000 -0.0000 -0.0000
-0.0422 -0.2048 0.0340 -1.0000 -0.0000 -0.0000
-0.0422 -0.0663 -0.0470 -1.0000 -0.0000 -0.0000
-0.0422 -0.1009 0.0570 -1.0000 -0.0000 -0.0000
-0.0422 -0.0663 -0.0470 0.0000 -1.0000 -0.0000
-0.1650 -0.0663 -0.0470 0.0000 -1.0000 -0.0000
-0.1650 -0.0663 0.0340 0.0000 -1.0000 -0.0000
-0.1650 -0.0663 0.0340 0.0000 -1.0000 -0.0000
-0.1231 -0.0663 0.0340 0.0000 -1.0000 -0.0000
-0.0422 -0.0663 0.0340 0.0000 -1.0000 -0.0000
-0.1650 -0.0663 0.0340 0.0000 -1.0000 -0.0000
-0.0422 -0.0663 0.0340 0.0000 -1.0000 -0.0000
-0.0422 -0.0663 -0.0470 0.0000 -1.0000 -0.0000
-0.1650 -0.2048 0.0340 -0.0000 1.0000 -0.0000
-0.1650 -0.2048 -0.0470 -0.0000 1.0000 -0.0000
-0.0422 -0.2048 -0.0470 -0.0000 1.0000 -0.0000
-0.1650 -0.2048 0.0340 -0.0000 1.0000 -0.0000
-0.0422 -0.2048 -0.0470 -0.0000 1.0000 -0.0000
-0.0422 -0.2048 0.0340 -0.0000 1.0000 -0.0000
0.1650 -0.0428 0.0359 0.0000 -1.0000 -0.0000
0.1512 -0.0428 0.0359 0.0000 -1.0000 -0.0000
0.1512 -0.0428 0.0570 0.0000 -1.0000 -0.0000
0.1650 -0.0428 0.0359 0.0000 -1.0000 -0.0000
0.1512 -0.0428 0.0570 0.0000 -1.0000 -0.0000
0.1650 -0.0428 0.0570 0.0000 -1.0000 -0.0000
-0.1231 0.0940 -0.0570 0.0000 1.0000 0.0000
0.1512 0.0940 -0.0570 0.0000 1.0000 0.0000
0.1650 0.0940 0.0570 0.0000 1.0000 0.0000
0.1650 0.0940 0.0570 0.0000 1.0000 0.0000
-0.1231 0.0940 0.0570 0.0000 1.0000 0.0000
-0.1231 0.0940 -0.0570 0.0000 1.0000 0.0000
0.1650 0.0940 0.0570 0.0000 1.0000 0.0000
-0.1231 0.0940 -0.0570 0.0000 1.0000 0.0000
0.1512 -0.2536 -0.0359 1.0000 0.0000 0.0000
0.1512 0.0940 -0.0359 1.0000 0.0000 0.0000
0.1512 0.0940 -0.0570 1.0000 0.0000 0.0000
0.1512 -0.2536 -0.0359 1.0000 0.0000 0.0000
0.1512 0.0940 -0.0570 1.0000 0.0000 0.0000
0.1512 -0.2950 -0.0570 1.0000 0.0000 0.0000
0.1512 -0.0428 0.0359 1.0000 0.0000 0.0000
0.1512 -0.2536 0.0359 1.0000 0.0000 0.0000
0.1512 -0.2950 0.0570 1.0000 0.0000 0.0000
0.1512 -0.0428 0.0359 1.0000 0.0000 0.0000
0.1512 -0.2950 0.0570 1.0000 0.0000 0.0000
0.1512 -0.0428 0.0570 1.0000 0.0000 0.0000
0.1650 -0.2950 0.0570 -0.0000 -1.0000 0.0000
0.1650 -0.2950 -0.0570 -0.0000 -1.0000 0.0000
0.1512 -0.2950 -0.0570 -0.0000 -1.0000 0.0000
-0.1231 -0.2950 -0.0570 -0.0000 -1.0000 0.0000
-0.1650 -0.2950 -0.0570 -0.0000 -1.0000 0.0000
-0.1650 -0.2950 0.0570 -0.0000 -1.0000 0.0000
0.1650 -0.2950 0.0570 -0.0000 -1.0000 0.0000
0.1512 -0.2950 -0.0570 -0.0000 -1.0000 0.0000
-0.1231 -0.2950 -0.0570 -0.0000 -1.0000 0.0000
-0.1650 -0.2950 0.0570 -0.0000 -1.0000 0.0000
-0.1231 -0.2950 0.0570 -0.0000 -1.0000 0.0000
0.1512 -0.2950 0.0570 -0.0000 -1.0000 0.0000
0.1512 -0.2950 0.0570 -0.0000 -1.0000 0.0000
0.1650 -0.2950 0.0570 -0.0000 -1.0000 0.0000
-0.1231 -0.2950 -0.0570 -0.0000 -1.0000 0.0000
-0.1231 -0.2950 -0.0570 -0.0000 -1.0000 0.0000
-0.1650 -0.2950 0.0570 -0.0000 -1.0000 0.0000
0.1512 -0.2950 0.0570 -0.0000 -1.0000 0.0000
0.1650 -0.2536 -0.0359 0.0000 -0.0000 -1.0000
0.1650 0.0940 -0.0359 0.0000 -0.0000 -1.0000
0.1512 0.0940 -0.0359 0.0000 -0.0000 -1.0000
0.1650 -0.2536 -0.0359 0.0000 -0.0000 -1.0000
0.1512 0.0940 -0.0359 0.0000 -0.0000 -1.0000
0.1512 -0.2536 -0.0359 0.0000 -0.0000 -1.0000
0.1650 -0.0428 0.0570 1.0000 0.0000 -0.0000
0.1650 0.0940 0.0570 1.0000 0.0000 -0.0000
0.1650 0.0940 -0.0359 1.0000 0.0000 -0.0000
0.1650 -0.2536 -0.0359 1.0000 0.0000 -0.0000
0.1650 -0.2950 -0.0570 1.0000 0.0000 -0.0000
0.1650 -0.2950 0.0570 1.0000 0.0000 -0.0000
0.1650 -0.0428 0.0359 1.0000 0.0000 -0.0000
0.1650 -0.0428 0.0570 1.0000 0.0000 -0.0000
0.1650 0.0940 -0.0359 1.0000 0.0000 -0.0000
0.1650 -0.2536 -0.0359 1.0000 0.0000 -0.0000
0.1650 -0.2950 0.0570 1.0000 0.0000 -0.0000
0.1650 -0.2536 0.0359 1.0000 0.0000 -0.0000
0.1650 -0.2536 0.0359 1.0000 0.0000 -0.0000
0.1650 -0.0428 0.0359 1.0000 0.0000 -0.0000
0.1650 0.0940 -0.0359 1.0000 0.0000 -0.0000
0.1650 0.0940 -0.0359 1.0000 0.0000 -0.0000
0.1650 -0.2536 -0.0359 1.0000 0.0000 -0.0000
0.1650 -0.2536 0.0359 1.0000 0.0000 -0.0000
26 22 25
22 29 21
30 22 26
22 30 29
5 14 4
14 33 34
33 0 13
0 5 2
5 33 14
33 5 0
3 16 42
3 17 16
10 7 12
10 44 7
1 45 8
1 47 46
48 11 6
49 9 11
24 28 23
24 31 28
50 52 51
53 55 54
56 27 19
57 58 27
59 61 60
62 20 63
64 66 65
67 69 68
70 71 15
72 74 73
75 77 76
78 18 79
80 82 81
83 85 84
86 88 87
89 91 90
92 94 93
95 97 96
98 100 99
101 32 102
103 105 104
106 108 107
109 38 39
110 111 38
112 35 36
113 114 35
115 117 116
118 37 119
40 121 120
40 123 122
124 126 125
127 129 128
130 132 131
133 135 134
136 138 137
139 141 140
142 144 143
145 147 146
148 150 149
151 153 152
154 156 155
157 43 158
43 159 41
160 162 161
43 164 163
165 167 166
168 170 169
171 173 172
174 176 175
177 179 178
180 182 181
183 185 184
186 188 187
189 191 190
192 194 193
195 197 196
198 200 199
201 203 202
204 206 205
207 209 208
210 212 211
213 215 214
216 218 217
LABEL SIDE_GroundNet
MATERIAL 4
TEXTURE 1
FLAG 0
GEOM 50 20
0.0000 -0.3987 0.1964 0.0000 1.0000 0.0000 0.1281 0.2341
-0.1154 -0.3987 0.1589 0.0000 1.0000 0.0000 0.2242 0.2341
-0.1868 -0.3987 0.0607 -0.0000 1.0000 0.0000 0.2242 0.2341
-0.1868 -0.3987 -0.0607 0.0000 1.0000 0.0000 0.2242 0.2341
-0.1154 -0.3987 -0.1589 0.0000 1.0000 0.0000 0.2242 0.2341
0.0000 -0.3987 -0.1964 -0.0000 1.0000 0.0000 0.2242 0.2341
0.1154 -0.3987 -0.1589 0.0000 1.0000 0.0000 0.2242 0.2341
0.1868 -0.3987 -0.0607 -0.0000 1.0000 0.0000 0.2242 0.2341
0.1868 -0.3987 0.0607 -0.0000 1.0000 0.0000 0.2242 0.2341
0.1154 -0.3987 0.1589 -0.0000 1.0000 0.0000 0.2242 0.2341
-0.0084 -0.3987 0.0115 0.0000 1.0000 0.0000 0.2237 0.0004
0.0000 -0.3987 0.0143 0.0000 1.0000 0.0000 0.1286 0.0004
-0.0136 -0.3987 0.0044 -0.0000 1.0000 0.0000 0.2237 0.0004
-0.0136 -0.3987 -0.0044 0.0000 1.0000 0.0000 0.2237 0.0004
-0.0084 -0.3987 -0.0115 0.0000 1.0000 0.0000 0.2237 0.0004
0.0000 -0.3987 -0.0143 -0.0000 1.0000 0.0000 0.2237 0.0004
0.0084 -0.3987 -0.0115 0.0000 1.0000 0.0000 0.2237 0.0004
0.0136 -0.3987 -0.0044 -0.0000 1.0000 0.0000 0.2237 0.0004
0.0136 -0.3987 0.0044 -0.0000 1.0000 0.0000 0.2237 0.0004
0.0084 -0.3987 0.0115 -0.0000 1.0000 0.0000 0.2237 0.0004
-0.1154 -0.3987 0.1589 -0.0000 1.0000 0.0000 0.1281 0.2341
-0.1154 -0.3987 0.1589 -0.0000 1.0000 0.0000 0.1281 0.2341
-0.0084 -0.3987 0.0115 -0.0000 1.0000 0.0000 0.1286 0.0004
-0.1868 -0.3987 0.0607 0.0000 1.0000 0.0000 0.1281 0.2341
-0.1868 -0.3987 0.0607 0.0000 1.0000 0.0000 0.1281 0.2341
-0.0136 -0.3987 0.0044 0.0000 1.0000 0.0000 0.1286 0.0004
-0.1868 -0.3987 -0.0607 0.0000 1.0000 0.0000 0.1281 0.2341
-0.1868 -0.3987 -0.0607 0.0000 1.0000 0.0000 0.1281 0.2341
-0.0136 -0.3987 -0.0044 0.0000 1.0000 0.0000 0.1286 0.0004
-0.1154 -0.3987 -0.1589 -0.0000 1.0000 0.0000 0.1281 0.2341
-0.1154 -0.3987 -0.1589 -0.0000 1.0000 0.0000 0.1281 0.2341
-0.0084 -0.3987 -0.0115 -0.0000 1.0000 0.0000 0.1286 0.0004
0.0000 -0.3987 -0.1964 0.0000 1.0000 0.0000 0.1281 0.2341
0.0000 -0.3987 -0.1964 0.0000 1.0000 0.0000 0.1281 0.2341
0.0000 -0.3987 -0.0143 0.0000 1.0000 0.0000 0.1286 0.0004
0.1154 -0.3987 -0.1589 -0.0000 1.0000 0.0000 0.1281 0.2341
0.1154 -0.3987 -0.1589 -0.0000 1.0000 0.0000 0.1281 0.2341
0.0084 -0.3987 -0.0115 -0.0000 1.0000 0.0000 0.1286 0.0004
0.1868 -0.3987 -0.0607 -0.0000 1.0000 0.0000 0.1281 0.2341
0.1868 -0.3987 -0.0607 -0.0000 1.0000 0.0000 0.1281 0.2341
0.0136 -0.3987 -0.0044 -0.0000 1.0000 0.0000 0.1286 0.0004
0.1868 -0.3987 0.0607 -0.0000 1.0000 0.0000 0.1281 0.2341
0.1868 -0.3987 0.0607 -0.0000 1.0000 0.0000 0.1281 0.2341
0.0136 -0.3987 0.0044 -0.0000 1.0000 0.0000 0.1286 0.0004
0.1154 -0.3987 0.1589 0.0000 1.0000 0.0000 0.1281 0.2341
0.0000 -0.3987 0.1964 0.0000 1.0000 0.0000 0.2242 0.2341
0.0000 -0.3987 0.0143 0.0000 1.0000 0.0000 0.2237 0.0004
0.1154 -0.3987 0.1589 0.0000 1.0000 0.0000 0.1281 0.2341
0.0000 -0.3987 0.0143 0.0000 1.0000 0.0000 0.2237 0.0004
0.0084 -0.3987 0.0115 0.0000 1.0000 0.0000 0.1286 0.0004
0 10 1
0 11 10
20 12 2
21 22 12
23 13 3
24 25 13
26 14 4
27 28 14
29 15 5
30 31 15
32 16 6
33 34 16
35 17 7
36 37 17
38 18 8
39 40 18
41 19 9
42 43 19
44 46 45
47 49 48
MATERIALS 4
ALSEP_Dark
ALSEP_Light
ALSEP_White
ALSEP_SIDE_Net
MATERIAL ALSEP_Dark
0.200 0.200 0.200 1.000
0.200 0.200 0.200 1.000
0.200 0.200 0.200 1.000 0.000
0.000 0.000 0.000 1.000
MATERIAL ALSEP_Light
0.500 0.500 0.500 1.000
0.500 0.500 0.500 1.000
0.500 0.500 0.500 1.000 100.000
0.000 0.000 0.000 0.500
MATERIAL ALSEP_White
0.800 0.800 0.800 1.000
1.000 1.000 1.000 1.000
1.000 1.000 1.000 1.000 0.000
0.000 0.000 0.000 1.000
MATERIAL ALSEP_SIDE_Net
0.800 0.800 0.800 1.000
1.000 1.000 1.000 1.000
1.000 1.000 1.000 1.000 10.000
0.000 0.000 0.000 0.000
TEXTURES 1
ProjectApollo\ALSEP_Misc.dds
