MSHX1
GROUPS 2
LABEL RTG
MATERIAL 1
TEXTURE 1
FLAG 0
GEOM 352 148
-0.0754 -0.3525 0.1826 0.0000 0.0000 1.0000 0.2740 0.2375
-0.0754 0.1056 0.1826 0.0000 0.0000 1.0000 0.7308 0.2375
-0.0470 -0.3525 0.1770 0.3827 0.0000 0.9239 0.2740 0.2312
-0.0470 0.1056 0.1770 0.3827 0.0000 0.9239 0.7308 0.2312
-0.0229 -0.3525 0.1609 0.7071 0.0000 0.7071 0.2740 0.2131
-0.0229 0.1056 0.1609 0.7071 0.0000 0.7071 0.7308 0.2131
-0.0068 -0.3525 0.1368 0.9239 0.0000 0.3827 0.2740 0.1861
-0.0068 0.1056 0.1368 0.9239 0.0000 0.3827 0.7308 0.1861
-0.0012 -0.3525 0.1085 1.0000 0.0000 0.0000 0.2740 0.1543
-0.0012 0.1056 0.1085 1.0000 0.0000 0.0000 0.7308 0.1543
-0.0068 -0.3525 0.0801 0.9239 0.0000 -0.3827 0.2740 0.1225
-0.0068 0.1056 0.0801 0.9239 0.0000 -0.3827 0.7308 0.1225
-0.0229 -0.3525 0.0560 0.7071 0.0000 -0.7071 0.2740 0.0955
-0.0229 0.1056 0.0560 0.7071 0.0000 -0.7071 0.7308 0.0955
-0.0470 -0.3525 0.0399 -0.0000 -1.0000 0.0000 0.3619 1.0000
-0.0470 0.1056 0.0399 0.3827 0.0000 -0.9239 0.7308 0.0774
-0.0754 -0.3525 0.0343 -0.0000 -1.0000 0.0000 0.3505 1.0000
-0.0754 0.1056 0.0343 0.0000 0.0000 -1.0000 0.7308 0.0711
-0.1038 -0.3525 0.0399 -0.0000 -1.0000 0.0000 0.3619 1.0000
-0.1038 0.1056 0.0399 -0.3827 0.0000 -0.9239 0.7308 0.0774
-0.1278 -0.3525 0.0560 -0.0000 -1.0000 0.0000 0.3943 1.0000
-0.1278 0.1056 0.0560 -0.7071 0.0000 -0.7071 0.7308 0.0955
-0.1439 -0.3525 0.0801 -0.0000 -1.0000 0.0000 0.4428 1.0000
-0.1439 0.1056 0.0801 -0.9239 0.0000 -0.3827 0.7308 0.1225
-0.1496 -0.3525 0.1085 -0.0000 -1.0000 0.0000 0.5000 1.0000
-0.1496 0.1056 0.1085 -1.0000 0.0000 0.0000 0.7308 0.1543
-0.1439 -0.3525 0.1368 -0.0000 -1.0000 0.0000 0.5572 1.0000
-0.1439 0.1056 0.1368 -0.9239 0.0000 0.3827 0.7308 0.1861
-0.1278 -0.3525 0.1609 -0.7071 0.0000 0.7071 0.2740 0.2131
-0.1278 0.1056 0.1609 -0.7071 0.0000 0.7071 0.7308 0.2131
-0.1038 -0.3525 0.1770 -0.3827 0.0000 0.9239 0.2740 0.2312
-0.1038 0.1056 0.1770 -0.3827 0.0000 0.9239 0.7308 0.2312
0.0683 -0.3525 -0.0352 -0.0000 -1.0000 0.0000 0.0000 1.0000
-0.0350 -0.3525 0.0645 -0.0000 -1.0000 0.0000 0.3533 1.0000
-0.0314 -0.3525 0.0681 -0.0000 -1.0000 0.0000 0.3533 1.0000
-0.0350 0.0992 0.0645 -0.0000 1.0000 0.0000 0.3533 0.0119
-0.0314 0.0992 0.0681 -0.0000 1.0000 0.0000 0.3533 0.0119
0.0683 0.0992 -0.0352 -0.0000 1.0000 0.0000 0.0000 0.0119
0.1278 0.0992 0.1085 0.0178 0.0000 -0.9998 0.0000 0.0504
-0.0158 0.0992 0.1110 0.0178 0.0000 0.9998 0.3533 0.0504
-0.0158 0.0992 0.1059 0.0178 0.0000 -0.9998 0.3533 0.0504
-0.0158 -0.3525 0.1110 0.0178 0.0000 0.9998 0.3533 0.9536
-0.0158 -0.3525 0.1059 0.0178 0.0000 -0.9998 0.3533 0.9536
0.1278 -0.3525 0.1085 0.0178 0.0000 -0.9998 0.0000 0.9536
0.0683 -0.3525 0.2521 0.0000 -1.0000 0.0000 0.0000 1.0000
-0.0314 -0.3525 0.1488 0.0000 -1.0000 0.0000 0.3533 1.0000
-0.0350 -0.3525 0.1524 0.0000 -1.0000 0.0000 0.3533 1.0000
-0.0314 0.0992 0.1488 -0.0000 1.0000 0.0000 0.3533 0.0119
-0.0350 0.0992 0.1524 -0.0000 1.0000 0.0000 0.3533 0.0119
0.0683 0.0992 0.2521 -0.0000 1.0000 0.0000 0.0000 0.0119
-0.0754 0.0992 -0.0947 -0.9998 0.0000 -0.0178 0.0000 0.0504
-0.0728 0.0992 0.0489 0.9998 0.0000 -0.0178 0.3533 0.0504
-0.0779 0.0992 0.0489 -0.9998 0.0000 -0.0178 0.3533 0.0504
-0.0728 -0.3525 0.0489 0.9998 0.0000 -0.0178 0.3533 0.9536
-0.0779 -0.3525 0.0489 -0.9998 0.0000 -0.0178 0.3533 0.9536
-0.0754 -0.3525 -0.0947 -0.9998 0.0000 -0.0178 0.0000 0.9536
-0.0754 0.0992 0.3117 0.9998 0.0000 0.0178 0.0000 0.0504
-0.0779 0.0992 0.1681 -0.9998 0.0000 0.0178 0.3533 0.0504
-0.0728 0.0992 0.1681 0.9998 0.0000 0.0178 0.3533 0.0504
-0.0779 -0.3525 0.1681 -0.9998 0.0000 0.0178 0.3533 0.9536
-0.0728 -0.3525 0.1681 0.9998 0.0000 0.0178 0.3533 0.9536
-0.0754 -0.3525 0.3117 0.9998 0.0000 0.0178 0.0000 0.9536
-0.2191 -0.3525 0.2521 0.0000 -1.0000 0.0000 0.0000 1.0000
-0.1157 -0.3525 0.1524 0.0000 -1.0000 0.0000 0.3533 1.0000
-0.1193 -0.3525 0.1488 0.0000 -1.0000 0.0000 0.3533 1.0000
-0.1157 0.0992 0.1524 -0.0000 1.0000 0.0000 0.3533 0.0119
-0.1193 0.0992 0.1488 -0.0000 1.0000 0.0000 0.3533 0.0119
-0.2191 0.0992 0.2521 -0.0000 1.0000 0.0000 0.0000 0.0119
-0.2786 0.0992 0.1085 -0.0178 0.0000 0.9998 0.0000 0.0504
-0.1350 0.0992 0.1059 -0.0178 0.0000 -0.9998 0.3533 0.0504
-0.1350 0.0992 0.1110 -0.0178 0.0000 0.9998 0.3533 0.0504
-0.1350 -0.3525 0.1059 -0.0178 0.0000 -0.9998 0.3533 0.9536
-0.1350 -0.3525 0.1110 -0.0178 0.0000 0.9998 0.3533 0.9536
-0.2786 -0.3525 0.1085 -0.0178 0.0000 0.9998 0.0000 0.9536
-0.2191 -0.3525 -0.0352 -0.0000 -1.0000 0.0000 0.0000 1.0000
-0.1193 -0.3525 0.0681 -0.0000 -1.0000 0.0000 0.3533 1.0000
-0.1157 -0.3525 0.0645 -0.0000 -1.0000 0.0000 0.3533 1.0000
-0.1193 0.0992 0.0681 0.0000 1.0000 0.0000 0.3533 0.0119
-0.1157 0.0992 0.0645 0.0000 1.0000 0.0000 0.3533 0.0119
-0.2191 0.0992 -0.0352 0.0000 1.0000 0.0000 0.0000 0.0119
-0.0140 -0.3836 0.0706 -0.9239 0.0000 0.3827 0.2791 0.2729
-0.0140 -0.3114 0.0706 -0.9239 0.0000 0.3827 0.3440 0.2729
-0.0053 -0.3836 0.0919 -0.9239 0.0000 0.3827 0.2791 0.2079
-0.0053 -0.3114 0.0919 -0.9239 0.0000 0.3827 0.3440 0.2079
0.0072 -0.3836 0.0618 0.9239 0.0000 -0.3827 0.2791 0.0781
0.0072 -0.3580 0.0618 0.9239 0.0000 -0.3827 0.3021 0.0781
0.0160 -0.3836 0.0831 0.3827 0.0000 0.9239 0.2791 0.1430
0.0160 -0.3580 0.0831 0.3827 0.0000 0.9239 0.3021 0.1430
-0.0375 -0.3836 0.1698 -0.3827 0.0000 -0.9239 0.2791 0.2729
-0.0375 -0.3114 0.1698 -0.3827 0.0000 -0.9239 0.3440 0.2729
-0.0588 -0.3836 0.1786 -0.3827 0.0000 -0.9239 0.2791 0.2079
-0.0588 -0.3114 0.1786 -0.3827 0.0000 -0.9239 0.3440 0.2079
-0.0287 -0.3836 0.1910 0.3827 0.0000 0.9239 0.2791 0.0781
-0.0287 -0.3580 0.1910 0.3827 0.0000 0.9239 0.3021 0.0781
-0.0500 -0.3836 0.1998 -0.9239 0.0000 0.3827 0.2791 0.1430
-0.0500 -0.3580 0.1998 -0.9239 0.0000 0.3827 0.3021 0.1430
-0.1367 -0.3836 0.1463 0.9239 0.0000 -0.3827 0.2791 0.2729
-0.1367 -0.3114 0.1463 0.9239 0.0000 -0.3827 0.3440 0.2729
-0.1455 -0.3836 0.1251 0.9239 0.0000 -0.3827 0.2791 0.2079
-0.1455 -0.3114 0.1251 0.9239 0.0000 -0.3827 0.3440 0.2079
-0.1579 -0.3836 0.1551 -0.9239 0.0000 0.3827 0.2791 0.0781
-0.1579 -0.3580 0.1551 -0.9239 0.0000 0.3827 0.3021 0.0781
-0.1667 -0.3836 0.1339 -0.3827 0.0000 -0.9239 0.2791 0.1430
-0.1667 -0.3580 0.1339 -0.3827 0.0000 -0.9239 0.3021 0.1430
-0.1132 -0.3836 0.0471 0.3827 0.0000 0.9239 0.2791 0.2729
-0.1132 -0.3114 0.0471 0.3827 0.0000 0.9239 0.3440 0.2729
-0.0920 -0.3836 0.0383 0.3827 0.0000 0.9239 0.2791 0.2079
-0.0920 -0.3114 0.0383 0.3827 0.0000 0.9239 0.3440 0.2079
-0.1220 -0.3836 0.0259 -0.3827 0.0000 -0.9239 0.2791 0.0781
-0.1220 -0.3580 0.0259 -0.3827 0.0000 -0.9239 0.3021 0.0781
-0.1008 -0.3836 0.0171 0.9239 0.0000 -0.3827 0.2791 0.1430
-0.1008 -0.3580 0.0171 0.9239 0.0000 -0.3827 0.3021 0.1430
-0.1038 -0.3525 0.1770 -0.0000 -1.0000 0.0000 0.6381 1.0000
-0.0754 -0.3525 0.1826 -0.0000 -1.0000 0.0000 0.6495 1.0000
-0.0470 -0.3525 0.1770 -0.0000 -1.0000 0.0000 0.6381 1.0000
-0.0470 -0.3525 0.1770 -0.0000 -1.0000 0.0000 0.6381 1.0000
-0.0229 -0.3525 0.1609 -0.0000 -1.0000 0.0000 0.6057 1.0000
-0.0068 -0.3525 0.1368 -0.0000 -1.0000 0.0000 0.5572 1.0000
-0.0068 -0.3525 0.1368 -0.0000 -1.0000 0.0000 0.5572 1.0000
-0.0012 -0.3525 0.1085 -0.0000 -1.0000 0.0000 0.5000 1.0000
-0.0068 -0.3525 0.0801 -0.0000 -1.0000 0.0000 0.4428 1.0000
-0.0068 -0.3525 0.0801 -0.0000 -1.0000 0.0000 0.4428 1.0000
-0.0229 -0.3525 0.0560 -0.0000 -1.0000 0.0000 0.3943 1.0000
-0.1278 -0.3525 0.1609 -0.0000 -1.0000 0.0000 0.6057 1.0000
-0.1038 -0.3525 0.1770 -0.0000 -1.0000 0.0000 0.6381 1.0000
-0.1038 -0.3525 0.1770 -0.0000 -1.0000 0.0000 0.6381 1.0000
-0.0470 -0.3525 0.1770 -0.0000 -1.0000 0.0000 0.6381 1.0000
-0.0068 -0.3525 0.1368 -0.0000 -1.0000 0.0000 0.5572 1.0000
-0.0068 -0.3525 0.1368 -0.0000 -1.0000 0.0000 0.5572 1.0000
-0.0068 -0.3525 0.0801 -0.0000 -1.0000 0.0000 0.4428 1.0000
-0.1038 -0.3525 0.1770 -0.0000 -1.0000 0.0000 0.6381 1.0000
-0.1038 -0.3525 0.1770 -0.0000 -1.0000 0.0000 0.6381 1.0000
-0.0068 -0.3525 0.1368 -0.0000 -1.0000 0.0000 0.5572 1.0000
-0.1038 -0.3525 0.1770 -0.0000 -1.0000 0.0000 0.6381 1.0000
-0.1439 -0.3525 0.1368 -0.9239 0.0000 0.3827 0.2740 0.1861
-0.1439 -0.3525 0.1368 -0.9239 0.0000 0.3827 0.2740 0.1861
-0.1496 -0.3525 0.1085 -1.0000 0.0000 0.0000 0.2740 0.1543
-0.1496 -0.3525 0.1085 -1.0000 0.0000 0.0000 0.2740 0.1543
-0.1496 -0.3525 0.1085 -1.0000 0.0000 0.0000 0.2740 0.1543
-0.1439 -0.3525 0.0801 -0.9239 0.0000 -0.3827 0.2740 0.1225
-0.1439 -0.3525 0.0801 -0.9239 0.0000 -0.3827 0.2740 0.1225
-0.1439 -0.3525 0.0801 -0.9239 0.0000 -0.3827 0.2740 0.1225
-0.1278 -0.3525 0.0560 -0.7071 0.0000 -0.7071 0.2740 0.0955
-0.1278 -0.3525 0.0560 -0.7071 0.0000 -0.7071 0.2740 0.0955
-0.1278 -0.3525 0.0560 -0.7071 0.0000 -0.7071 0.2740 0.0955
-0.1038 -0.3525 0.0399 -0.3827 0.0000 -0.9239 0.2740 0.0774
-0.1038 -0.3525 0.0399 -0.3827 0.0000 -0.9239 0.2740 0.0774
-0.1038 -0.3525 0.0399 -0.3827 0.0000 -0.9239 0.2740 0.0774
-0.0754 -0.3525 0.0343 0.0000 0.0000 -1.0000 0.2740 0.0711
-0.0754 -0.3525 0.0343 0.0000 0.0000 -1.0000 0.2740 0.0711
-0.0470 -0.3525 0.0399 0.3827 0.0000 -0.9239 0.2740 0.0774
-0.0754 -0.3525 0.0343 0.0000 0.0000 -1.0000 0.2740 0.0711
-0.0470 -0.3525 0.0399 0.3827 0.0000 -0.9239 0.2740 0.0774
-0.0470 -0.3525 0.0399 0.3827 0.0000 -0.9239 0.2740 0.0774
-0.1278 0.1056 0.0560 0.0000 1.0000 0.0000 0.3943 0.0000
-0.1038 0.1056 0.0399 0.0000 1.0000 0.0000 0.3619 0.0000
-0.0754 0.1056 0.0343 0.0000 1.0000 0.0000 0.3505 0.0000
-0.0754 0.1056 0.0343 0.0000 1.0000 0.0000 0.3505 0.0000
-0.0470 0.1056 0.0399 0.0000 1.0000 0.0000 0.3619 0.0000
-0.0229 0.1056 0.0560 0.0000 1.0000 0.0000 0.3943 0.0000
-0.0229 0.1056 0.0560 0.0000 1.0000 0.0000 0.3943 0.0000
-0.0068 0.1056 0.0801 0.0000 1.0000 0.0000 0.4428 0.0000
-0.0012 0.1056 0.1085 0.0000 1.0000 0.0000 0.5000 0.0000
-0.0012 0.1056 0.1085 0.0000 1.0000 0.0000 0.5000 0.0000
-0.0068 0.1056 0.1368 0.0000 1.0000 0.0000 0.5572 0.0000
-0.0229 0.1056 0.1609 0.0000 1.0000 0.0000 0.6057 0.0000
-0.0229 0.1056 0.1609 0.0000 1.0000 0.0000 0.6057 0.0000
-0.0470 0.1056 0.1770 0.0000 1.0000 0.0000 0.6381 0.0000
-0.0754 0.1056 0.1826 0.0000 1.0000 0.0000 0.6495 0.0000
-0.0754 0.1056 0.1826 0.0000 1.0000 0.0000 0.6495 0.0000
-0.1038 0.1056 0.1770 0.0000 1.0000 0.0000 0.6381 0.0000
-0.1278 0.1056 0.1609 0.0000 1.0000 0.0000 0.6057 0.0000
-0.1278 0.1056 0.1609 0.0000 1.0000 0.0000 0.6057 0.0000
-0.1439 0.1056 0.1368 0.0000 1.0000 0.0000 0.5572 0.0000
-0.1496 0.1056 0.1085 0.0000 1.0000 0.0000 0.5000 0.0000
-0.1496 0.1056 0.1085 0.0000 1.0000 0.0000 0.5000 0.0000
-0.1439 0.1056 0.0801 0.0000 1.0000 0.0000 0.4428 0.0000
-0.1278 0.1056 0.0560 0.0000 1.0000 0.0000 0.3943 0.0000
-0.1278 0.1056 0.0560 0.0000 1.0000 0.0000 0.3943 0.0000
-0.0754 0.1056 0.0343 0.0000 1.0000 0.0000 0.3505 0.0000
-0.0229 0.1056 0.0560 0.0000 1.0000 0.0000 0.3943 0.0000
-0.0229 0.1056 0.0560 0.0000 1.0000 0.0000 0.3943 0.0000
-0.0012 0.1056 0.1085 0.0000 1.0000 0.0000 0.5000 0.0000
-0.0229 0.1056 0.1609 0.0000 1.0000 0.0000 0.6057 0.0000
-0.0229 0.1056 0.1609 0.0000 1.0000 0.0000 0.6057 0.0000
-0.0754 0.1056 0.1826 0.0000 1.0000 0.0000 0.6495 0.0000
-0.1278 0.1056 0.1609 0.0000 1.0000 0.0000 0.6057 0.0000
-0.1278 0.1056 0.1609 0.0000 1.0000 0.0000 0.6057 0.0000
-0.1496 0.1056 0.1085 0.0000 1.0000 0.0000 0.5000 0.0000
-0.1278 0.1056 0.0560 0.0000 1.0000 0.0000 0.3943 0.0000
-0.1278 0.1056 0.0560 0.0000 1.0000 0.0000 0.3943 0.0000
-0.0229 0.1056 0.0560 0.0000 1.0000 0.0000 0.3943 0.0000
-0.0229 0.1056 0.1609 0.0000 1.0000 0.0000 0.6057 0.0000
-0.0229 0.1056 0.1609 0.0000 1.0000 0.0000 0.6057 0.0000
-0.1278 0.1056 0.1609 0.0000 1.0000 0.0000 0.6057 0.0000
-0.1278 0.1056 0.0560 0.0000 1.0000 0.0000 0.3943 0.0000
-0.0314 0.0992 0.0681 0.7196 0.0000 0.6944 0.3533 0.0504
0.0683 0.0992 -0.0352 0.7196 0.0000 0.6944 0.0000 0.0504
0.0683 -0.3525 -0.0352 0.7196 0.0000 0.6944 0.0000 0.9536
-0.0314 0.0992 0.0681 0.7196 0.0000 0.6944 0.3533 0.0504
0.0683 -0.3525 -0.0352 0.7196 0.0000 0.6944 0.0000 0.9536
-0.0314 -0.3525 0.0681 0.7196 0.0000 0.6944 0.3533 0.9536
0.0683 0.0992 -0.0352 -0.6944 0.0000 -0.7196 0.0000 0.0504
-0.0350 0.0992 0.0645 -0.6944 0.0000 -0.7196 0.3533 0.0504
-0.0350 -0.3525 0.0645 -0.6944 0.0000 -0.7196 0.3533 0.9536
0.0683 0.0992 -0.0352 -0.6944 0.0000 -0.7196 0.0000 0.0504
-0.0350 -0.3525 0.0645 -0.6944 0.0000 -0.7196 0.3533 0.9536
0.0683 -0.3525 -0.0352 -0.6944 0.0000 -0.7196 0.0000 0.9536
0.1278 0.0992 0.1085 0.0178 0.0000 0.9998 0.0000 0.0504
0.1278 -0.3525 0.1085 0.0178 0.0000 0.9998 0.0000 0.9536
0.1278 -0.3525 0.1085 0.0178 0.0000 0.9998 0.0000 0.9536
0.1278 0.0992 0.1085 0.0000 1.0000 0.0000 0.0000 0.0119
-0.0158 0.0992 0.1110 0.0000 1.0000 0.0000 0.3533 0.0119
-0.0158 0.0992 0.1059 0.0000 1.0000 0.0000 0.3533 0.0119
0.1278 -0.3525 0.1085 0.0000 -1.0000 0.0000 0.0000 1.0000
-0.0158 -0.3525 0.1059 0.0000 -1.0000 0.0000 0.3533 1.0000
-0.0158 -0.3525 0.1110 0.0000 -1.0000 0.0000 0.3533 1.0000
-0.0350 0.0992 0.1524 -0.6944 0.0000 0.7196 0.3533 0.0504
0.0683 0.0992 0.2521 -0.6944 0.0000 0.7196 0.0000 0.0504
0.0683 -0.3525 0.2521 -0.6944 0.0000 0.7196 0.0000 0.9536
-0.0350 0.0992 0.1524 -0.6944 0.0000 0.7196 0.3533 0.0504
0.0683 -0.3525 0.2521 -0.6944 0.0000 0.7196 0.0000 0.9536
-0.0350 -0.3525 0.1524 -0.6944 0.0000 0.7196 0.3533 0.9536
0.0683 0.0992 0.2521 0.7196 0.0000 -0.6944 0.0000 0.0504
-0.0314 0.0992 0.1488 0.7196 0.0000 -0.6944 0.3533 0.0504
-0.0314 -0.3525 0.1488 0.7196 0.0000 -0.6944 0.3533 0.9536
0.0683 0.0992 0.2521 0.7196 0.0000 -0.6944 0.0000 0.0504
-0.0314 -0.3525 0.1488 0.7196 0.0000 -0.6944 0.3533 0.9536
0.0683 -0.3525 0.2521 0.7196 0.0000 -0.6944 0.0000 0.9536
-0.0754 0.0992 -0.0947 0.9998 0.0000 -0.0178 0.0000 0.0504
-0.0754 -0.3525 -0.0947 0.9998 0.0000 -0.0178 0.0000 0.9536
-0.0754 -0.3525 -0.0947 0.9998 0.0000 -0.0178 0.0000 0.9536
-0.0754 0.0992 -0.0947 0.0000 1.0000 0.0000 0.0000 0.0119
-0.0728 0.0992 0.0489 0.0000 1.0000 0.0000 0.3533 0.0119
-0.0779 0.0992 0.0489 0.0000 1.0000 0.0000 0.3533 0.0119
-0.0754 -0.3525 -0.0947 0.0000 -1.0000 0.0000 0.0000 1.0000
-0.0779 -0.3525 0.0489 0.0000 -1.0000 0.0000 0.3533 1.0000
-0.0728 -0.3525 0.0489 0.0000 -1.0000 0.0000 0.3533 1.0000
-0.0754 0.0992 0.3117 -0.9998 0.0000 0.0178 0.0000 0.0504
-0.0754 -0.3525 0.3117 -0.9998 0.0000 0.0178 0.0000 0.9536
-0.0754 -0.3525 0.3117 -0.9998 0.0000 0.0178 0.0000 0.9536
-0.0754 0.0992 0.3117 0.0000 1.0000 0.0000 0.0000 0.0119
-0.0779 0.0992 0.1681 0.0000 1.0000 0.0000 0.3533 0.0119
-0.0728 0.0992 0.1681 0.0000 1.0000 0.0000 0.3533 0.0119
-0.0754 -0.3525 0.3117 0.0000 -1.0000 0.0000 0.0000 1.0000
-0.0728 -0.3525 0.1681 0.0000 -1.0000 0.0000 0.3533 1.0000
-0.0779 -0.3525 0.1681 0.0000 -1.0000 0.0000 0.3533 1.0000
-0.1193 0.0992 0.1488 -0.7196 0.0000 -0.6944 0.3533 0.0504
-0.2191 0.0992 0.2521 -0.7196 0.0000 -0.6944 0.0000 0.0504
-0.2191 -0.3525 0.2521 -0.7196 0.0000 -0.6944 0.0000 0.9536
-0.1193 0.0992 0.1488 -0.7196 0.0000 -0.6944 0.3533 0.0504
-0.2191 -0.3525 0.2521 -0.7196 0.0000 -0.6944 0.0000 0.9536
-0.1193 -0.3525 0.1488 -0.7196 0.0000 -0.6944 0.3533 0.9536
-0.2191 0.0992 0.2521 0.6944 0.0000 0.7196 0.0000 0.0504
-0.1157 0.0992 0.1524 0.6944 0.0000 0.7196 0.3533 0.0504
-0.1157 -0.3525 0.1524 0.6944 0.0000 0.7196 0.3533 0.9536
-0.2191 0.0992 0.2521 0.6944 0.0000 0.7196 0.0000 0.0504
-0.1157 -0.3525 0.1524 0.6944 0.0000 0.7196 0.3533 0.9536
-0.2191 -0.3525 0.2521 0.6944 0.0000 0.7196 0.0000 0.9536
-0.2786 0.0992 0.1085 -0.0178 0.0000 -0.9998 0.0000 0.0504
-0.2786 -0.3525 0.1085 -0.0178 0.0000 -0.9998 0.0000 0.9536
-0.2786 -0.3525 0.1085 -0.0178 0.0000 -0.9998 0.0000 0.9536
-0.2786 0.0992 0.1085 0.0000 1.0000 0.0000 0.0000 0.0119
-0.1350 0.0992 0.1059 0.0000 1.0000 0.0000 0.3533 0.0119
-0.1350 0.0992 0.1110 0.0000 1.0000 0.0000 0.3533 0.0119
-0.2786 -0.3525 0.1085 0.0000 -1.0000 0.0000 0.0000 1.0000
-0.1350 -0.3525 0.1110 0.0000 -1.0000 0.0000 0.3533 1.0000
-0.1350 -0.3525 0.1059 0.0000 -1.0000 0.0000 0.3533 1.0000
-0.1157 0.0992 0.0645 0.6944 0.0000 -0.7196 0.3533 0.0504
-0.2191 0.0992 -0.0352 0.6944 0.0000 -0.7196 0.0000 0.0504
-0.2191 -0.3525 -0.0352 0.6944 0.0000 -0.7196 0.0000 0.9536
-0.1157 0.0992 0.0645 0.6944 0.0000 -0.7196 0.3533 0.0504
-0.2191 -0.3525 -0.0352 0.6944 0.0000 -0.7196 0.0000 0.9536
-0.1157 -0.3525 0.0645 0.6944 0.0000 -0.7196 0.3533 0.9536
-0.2191 0.0992 -0.0352 -0.7196 0.0000 0.6944 0.0000 0.0504
-0.1193 0.0992 0.0681 -0.7196 0.0000 0.6944 0.3533 0.0504
-0.1193 -0.3525 0.0681 -0.7196 0.0000 0.6944 0.3533 0.9536
-0.2191 0.0992 -0.0352 -0.7196 0.0000 0.6944 0.0000 0.0504
-0.1193 -0.3525 0.0681 -0.7196 0.0000 0.6944 0.3533 0.9536
-0.2191 -0.3525 -0.0352 -0.7196 0.0000 0.6944 0.0000 0.9536
-0.0053 -0.3836 0.0919 0.3827 0.0000 0.9239 0.2791 0.2079
-0.0053 -0.3114 0.0919 0.3827 0.0000 0.9239 0.3440 0.2079
-0.0053 -0.3836 0.0919 0.3827 0.0000 0.9239 0.2791 0.2079
0.0160 -0.3836 0.0831 0.9239 0.0000 -0.3827 0.2791 0.1430
0.0160 -0.3580 0.0831 0.9239 0.0000 -0.3827 0.3021 0.1430
0.0160 -0.3836 0.0831 0.9239 0.0000 -0.3827 0.2791 0.1430
0.0072 -0.3836 0.0618 -0.3827 0.0000 -0.9239 0.2791 0.0781
0.0072 -0.3580 0.0618 -0.3827 0.0000 -0.9239 0.3021 0.0781
-0.0140 -0.3114 0.0706 -0.3827 0.0000 -0.9239 0.3440 0.0132
0.0072 -0.3836 0.0618 -0.3827 0.0000 -0.9239 0.2791 0.0781
-0.0140 -0.3114 0.0706 -0.3827 0.0000 -0.9239 0.3440 0.0132
-0.0140 -0.3836 0.0706 -0.3827 0.0000 -0.9239 0.2791 0.0132
0.0160 -0.3580 0.0831 0.8286 0.4423 -0.3432 0.3021 0.1430
-0.0053 -0.3114 0.0919 0.8286 0.4423 -0.3432 0.4089 0.1430
-0.0140 -0.3114 0.0706 0.8286 0.4423 -0.3432 0.4089 0.0781
0.0160 -0.3580 0.0831 0.8286 0.4423 -0.3432 0.3021 0.1430
-0.0140 -0.3114 0.0706 0.8286 0.4423 -0.3432 0.4089 0.0781
0.0072 -0.3580 0.0618 0.8286 0.4423 -0.3432 0.3021 0.0781
-0.0588 -0.3836 0.1786 -0.9239 0.0000 0.3827 0.2791 0.2079
-0.0588 -0.3114 0.1786 -0.9239 0.0000 0.3827 0.3440 0.2079
-0.0588 -0.3836 0.1786 -0.9239 0.0000 0.3827 0.2791 0.2079
-0.0500 -0.3836 0.1998 0.3827 0.0000 0.9239 0.2791 0.1430
-0.0500 -0.3580 0.1998 0.3827 0.0000 0.9239 0.3021 0.1430
-0.0500 -0.3836 0.1998 0.3827 0.0000 0.9239 0.2791 0.1430
-0.0287 -0.3836 0.1910 0.9239 0.0000 -0.3827 0.2791 0.0781
-0.0287 -0.3580 0.1910 0.9239 0.0000 -0.3827 0.3021 0.0781
-0.0375 -0.3114 0.1698 0.9239 0.0000 -0.3827 0.3440 0.0132
-0.0287 -0.3836 0.1910 0.9239 0.0000 -0.3827 0.2791 0.0781
-0.0375 -0.3114 0.1698 0.9239 0.0000 -0.3827 0.3440 0.0132
-0.0375 -0.3836 0.1698 0.9239 0.0000 -0.3827 0.2791 0.0132
-0.0500 -0.3580 0.1998 0.3432 0.4423 0.8286 0.3021 0.1430
-0.0588 -0.3114 0.1786 0.3432 0.4423 0.8286 0.4089 0.1430
-0.0375 -0.3114 0.1698 0.3432 0.4423 0.8286 0.4089 0.0781
-0.0500 -0.3580 0.1998 0.3432 0.4423 0.8286 0.3021 0.1430
-0.0375 -0.3114 0.1698 0.3432 0.4423 0.8286 0.4089 0.0781
-0.0287 -0.3580 0.1910 0.3432 0.4423 0.8286 0.3021 0.0781
-0.1455 -0.3836 0.1251 -0.3827 0.0000 -0.9239 0.2791 0.2079
-0.1455 -0.3114 0.1251 -0.3827 0.0000 -0.9239 0.3440 0.2079
-0.1455 -0.3836 0.1251 -0.3827 0.0000 -0.9239 0.2791 0.2079
-0.1667 -0.3836 0.1339 -0.9239 0.0000 0.3827 0.2791 0.1430
-0.1667 -0.3580 0.1339 -0.9239 0.0000 0.3827 0.3021 0.1430
-0.1667 -0.3836 0.1339 -0.9239 0.0000 0.3827 0.2791 0.1430
-0.1579 -0.3836 0.1551 0.3827 0.0000 0.9239 0.2791 0.0781
-0.1579 -0.3580 0.1551 0.3827 0.0000 0.9239 0.3021 0.0781
-0.1367 -0.3114 0.1463 0.3827 0.0000 0.9239 0.3440 0.0132
-0.1579 -0.3836 0.1551 0.3827 0.0000 0.9239 0.2791 0.0781
-0.1367 -0.3114 0.1463 0.3827 0.0000 0.9239 0.3440 0.0132
-0.1367 -0.3836 0.1463 0.3827 0.0000 0.9239 0.2791 0.0132
-0.1667 -0.3580 0.1339 -0.8286 0.4423 0.3432 0.3021 0.1430
-0.1455 -0.3114 0.1251 -0.8286 0.4423 0.3432 0.4089 0.1430
-0.1367 -0.3114 0.1463 -0.8286 0.4423 0.3432 0.4089 0.0781
-0.1667 -0.3580 0.1339 -0.8286 0.4423 0.3432 0.3021 0.1430
-0.1367 -0.3114 0.1463 -0.8286 0.4423 0.3432 0.4089 0.0781
-0.1579 -0.3580 0.1551 -0.8286 0.4423 0.3432 0.3021 0.0781
-0.0920 -0.3836 0.0383 0.9239 0.0000 -0.3827 0.2791 0.2079
-0.0920 -0.3114 0.0383 0.9239 0.0000 -0.3827 0.3440 0.2079
-0.0920 -0.3836 0.0383 0.9239 0.0000 -0.3827 0.2791 0.2079
-0.1008 -0.3836 0.0171 -0.3827 0.0000 -0.9239 0.2791 0.1430
-0.1008 -0.3580 0.0171 -0.3827 0.0000 -0.9239 0.3021 0.1430
-0.1008 -0.3836 0.0171 -0.3827 0.0000 -0.9239 0.2791 0.1430
-0.1220 -0.3836 0.0259 -0.9239 0.0000 0.3827 0.2791 0.0781
-0.1220 -0.3580 0.0259 -0.9239 0.0000 0.3827 0.3021 0.0781
-0.1132 -0.3114 0.0471 -0.9239 0.0000 0.3827 0.3440 0.0132
-0.1220 -0.3836 0.0259 -0.9239 0.0000 0.3827 0.2791 0.0781
-0.1132 -0.3114 0.0471 -0.9239 0.0000 0.3827 0.3440 0.0132
-0.1132 -0.3836 0.0471 -0.9239 0.0000 0.3827 0.2791 0.0132
-0.1008 -0.3580 0.0171 -0.3432 0.4423 -0.8286 0.3021 0.1430
-0.0920 -0.3114 0.0383 -0.3432 0.4423 -0.8286 0.4089 0.1430
-0.1132 -0.3114 0.0471 -0.3432 0.4423 -0.8286 0.4089 0.0781
-0.1008 -0.3580 0.0171 -0.3432 0.4423 -0.8286 0.3021 0.1430
-0.1132 -0.3114 0.0471 -0.3432 0.4423 -0.8286 0.4089 0.0781
-0.1220 -0.3580 0.0259 -0.3432 0.4423 -0.8286 0.3021 0.0781
30 1 31
30 0 1
28 31 29
28 30 31
2 5 3
2 4 5
0 3 1
0 2 3
6 9 7
6 8 9
4 7 5
4 6 7
10 13 11
10 12 13
8 11 9
8 10 11
112 114 113
115 117 116
118 120 119
121 14 122
14 18 16
18 22 20
22 26 24
26 124 123
125 127 126
128 14 129
14 22 18
22 130 26
131 14 132
14 133 22
28 27 134
28 29 27
27 136 135
27 25 137
25 139 138
25 23 140
23 142 141
23 21 143
21 145 144
21 19 146
19 148 147
19 17 149
12 15 13
12 150 15
17 152 151
17 15 153
154 156 155
157 159 158
160 162 161
163 165 164
166 168 167
169 171 170
172 174 173
175 177 176
178 180 179
181 183 182
184 186 185
187 189 188
190 192 191
193 195 194
32 34 33
37 35 36
196 198 197
199 201 200
202 204 203
205 207 206
38 42 40
38 43 42
39 209 208
39 41 210
211 213 212
214 216 215
44 46 45
49 47 48
217 219 218
220 222 221
223 225 224
226 228 227
50 54 52
50 55 54
51 230 229
51 53 231
232 234 233
235 237 236
56 60 58
56 61 60
57 239 238
57 59 240
241 243 242
244 246 245
62 64 63
67 65 66
247 249 248
250 252 251
253 255 254
256 258 257
68 72 70
68 73 72
69 260 259
69 71 261
262 264 263
265 267 266
74 76 75
79 77 78
268 270 269
271 273 272
274 276 275
277 279 278
80 83 81
80 82 83
280 87 281
282 86 87
283 85 284
285 84 85
286 288 287
289 291 290
292 294 293
295 297 296
88 91 89
88 90 91
298 95 299
300 94 95
301 93 302
303 92 93
304 306 305
307 309 308
310 312 311
313 315 314
96 99 97
96 98 99
316 103 317
318 102 103
319 101 320
321 100 101
322 324 323
325 327 326
328 330 329
331 333 332
104 107 105
104 106 107
334 111 335
336 110 111
337 109 338
339 108 109
340 342 341
343 345 344
346 348 347
349 351 350
LABEL RTG_Base
MATERIAL 2
TEXTURE 0
FLAG 0
GEOM 44 16
0.2693 -0.3668 0.3214 0.0000 0.0000 1.0000
-0.2836 -0.3668 -0.3049 -0.0000 0.0000 -1.0000
0.2693 -0.3668 -0.3049 -0.0000 0.0000 -1.0000
-0.2836 -0.3990 -0.3049 -0.0000 0.0000 -1.0000
0.2693 -0.3990 0.3214 0.0000 0.0000 1.0000
0.2693 -0.3990 -0.3049 -0.0000 0.0000 -1.0000
-0.1503 -0.3668 0.3214 0.0000 0.0000 1.0000
-0.2836 -0.3668 0.1878 -0.7079 0.0000 0.7063
-0.2836 -0.3990 0.1878 -0.0000 -1.0000 -0.0000
-0.1503 -0.3990 0.3214 0.0000 0.0000 1.0000
-0.2836 -0.3990 -0.3049 -0.0000 -1.0000 -0.0000
-0.1503 -0.3990 0.3214 -0.0000 -1.0000 -0.0000
-0.1503 -0.3990 0.3214 -0.0000 -1.0000 -0.0000
0.2693 -0.3990 0.3214 -0.0000 -1.0000 -0.0000
0.2693 -0.3990 -0.3049 -0.0000 -1.0000 -0.0000
-0.1503 -0.3990 0.3214 -0.0000 -1.0000 -0.0000
0.2693 -0.3990 -0.3049 -0.0000 -1.0000 -0.0000
-0.2836 -0.3990 -0.3049 -0.0000 -1.0000 -0.0000
0.2693 -0.3668 0.3214 1.0000 0.0000 0.0000
0.2693 -0.3668 -0.3049 1.0000 0.0000 0.0000
0.2693 -0.3990 -0.3049 1.0000 0.0000 0.0000
0.2693 -0.3668 0.3214 1.0000 0.0000 0.0000
0.2693 -0.3990 -0.3049 1.0000 0.0000 0.0000
0.2693 -0.3990 0.3214 1.0000 0.0000 0.0000
-0.2836 -0.3990 0.1878 -0.7079 0.0000 0.7063
-0.1503 -0.3668 0.3214 -0.7079 0.0000 0.7063
-0.2836 -0.3990 0.1878 -0.7079 0.0000 0.7063
-0.1503 -0.3668 0.3214 -0.7079 0.0000 0.7063
-0.1503 -0.3990 0.3214 -0.7079 0.0000 0.7063
-0.2836 -0.3668 -0.3049 -1.0000 0.0000 0.0000
-0.2836 -0.3668 0.1878 -1.0000 0.0000 0.0000
-0.2836 -0.3990 0.1878 -1.0000 0.0000 0.0000
-0.2836 -0.3668 -0.3049 -1.0000 0.0000 0.0000
-0.2836 -0.3990 0.1878 -1.0000 0.0000 0.0000
-0.2836 -0.3990 -0.3049 -1.0000 0.0000 0.0000
0.2693 -0.3668 -0.3049 0.0000 1.0000 0.0000
0.2693 -0.3668 0.3214 0.0000 1.0000 0.0000
-0.1503 -0.3668 0.3214 0.0000 1.0000 0.0000
-0.1503 -0.3668 0.3214 0.0000 1.0000 0.0000
-0.2836 -0.3668 0.1878 0.0000 1.0000 0.0000
-0.2836 -0.3668 -0.3049 0.0000 1.0000 0.0000
-0.1503 -0.3668 0.3214 0.0000 1.0000 0.0000
-0.2836 -0.3668 -0.3049 0.0000 1.0000 0.0000
0.2693 -0.3668 -0.3049 0.0000 1.0000 0.0000
6 4 0
6 9 4
2 3 1
2 5 3
10 11 8
12 14 13
15 17 16
18 20 19
21 23 22
24 25 7
26 28 27
29 31 30
32 34 33
35 37 36
38 40 39
41 43 42
MATERIALS 2
ALSEP_RTG
ALSEP_White
MATERIAL ALSEP_RTG
0.800 0.800 0.800 1.000
1.000 1.000 1.000 1.000
1.000 1.000 1.000 1.000 0.000
0.000 0.000 0.000 1.000
MATERIAL ALSEP_White
0.800 0.800 0.800 1.000
1.000 1.000 1.000 1.000
1.000 1.000 1.000 1.000 0.000
0.000 0.000 0.000 1.000
TEXTURES 1
ProjectApollo\ALSEP_RTG.dds
