MSHX1
GROUPS 3
LABEL Color_CamTripod
MATERIAL 1
TEXTURE 0
FLAG 0
GEOM 212 164
-0.0039 -0.6685 0.0222 0.0000 0.0000 1.0000
-0.0039 0.3698 0.0222 0.0000 0.0000 1.0000
0.0068 -0.6685 0.0193 0.5000 0.0000 0.8660
0.0068 0.3698 0.0193 0.5000 0.0000 0.8660
0.0146 -0.6685 0.0115 0.8660 0.0000 0.5000
0.0146 0.3698 0.0115 0.8660 0.0000 0.5000
0.0175 -0.6685 0.0008 1.0000 0.0000 0.0000
0.0175 0.3698 0.0008 1.0000 0.0000 0.0000
0.0146 -0.6685 -0.0098 0.8660 0.0000 -0.5000
0.0146 0.3698 -0.0098 0.8660 0.0000 -0.5000
0.0068 -0.6685 -0.0177 0.5000 0.0000 -0.8660
0.0068 0.3698 -0.0177 0.5000 0.0000 -0.8660
-0.0039 -0.6685 -0.0205 0.0000 0.0000 -1.0000
-0.0039 0.3698 -0.0205 0.0000 0.0000 -1.0000
-0.0146 -0.6685 -0.0177 -0.5000 0.0000 -0.8660
-0.0146 0.3698 -0.0177 -0.5000 0.0000 -0.8660
-0.0224 -0.6685 -0.0098 -0.8660 0.0000 -0.5000
-0.0224 0.3698 -0.0098 -0.8660 0.0000 -0.5000
-0.0252 -0.6685 0.0008 -1.0000 0.0000 0.0000
-0.0252 0.3698 0.0008 -1.0000 0.0000 0.0000
-0.0224 -0.6685 0.0115 -0.8660 0.0000 0.5000
-0.0224 0.3698 0.0115 -0.8660 0.0000 0.5000
-0.0146 -0.6685 0.0193 -0.5000 0.0000 0.8660
-0.0146 0.3698 0.0193 0.0000 1.0000 0.0000
-0.0089 -0.7940 -0.8926 -0.4933 0.7663 -0.4116
0.0011 -0.7940 -0.8926 0.4933 0.7663 -0.4116
0.0061 -0.8016 -0.8885 1.0000 0.0001 0.0003
0.0011 -0.8092 -0.8844 0.4933 -0.7656 0.4131
-0.0089 -0.8092 -0.8844 -0.4933 -0.7656 0.4131
-0.0139 -0.8016 -0.8885 -1.0000 0.0001 0.0003
-0.0089 -0.5435 -0.4260 -0.4620 0.8802 -0.1085
0.0011 -0.5435 -0.4260 0.4620 0.8802 -0.1085
0.0061 -0.5521 -0.4249 0.9936 0.1118 -0.0138
0.0011 -0.5607 -0.4238 0.5656 -0.8185 0.1007
-0.0089 -0.5607 -0.4238 -0.5656 -0.8185 0.1007
-0.0139 -0.5521 -0.4249 -0.9936 0.1118 -0.0138
-0.0089 -0.6511 0.0001 -0.4933 0.8433 0.2132
0.0011 -0.6511 0.0001 0.4933 0.8433 0.2132
0.0061 -0.6595 -0.0020 1.0000 0.0000 -0.0004
0.0011 -0.6679 -0.0041 0.4932 -0.8429 -0.2151
-0.0089 -0.6679 -0.0041 -0.4932 -0.8429 -0.2151
-0.0139 -0.6595 -0.0020 -1.0000 0.0000 -0.0004
-0.0089 -0.5444 -0.4290 -0.5000 0.7625 -0.4105
0.0011 -0.5444 -0.4290 0.5000 0.7625 -0.4105
0.0061 -0.5521 -0.4249 1.0000 0.0000 -0.0000
0.0011 -0.5597 -0.4208 0.5000 -0.7625 0.4105
-0.0089 -0.5597 -0.4208 -0.5000 -0.7625 0.4105
-0.0139 -0.5521 -0.4249 -1.0000 0.0000 -0.0000
-0.0089 -0.3164 -0.0054 -0.5000 0.7625 -0.4105
0.0011 -0.3164 -0.0054 0.5000 0.7625 -0.4105
0.0061 -0.3240 -0.0013 1.0000 0.0000 -0.0000
0.0011 -0.3316 0.0028 0.5000 -0.7625 0.4105
-0.0089 -0.3316 0.0028 -0.5000 -0.7625 0.4105
-0.0139 -0.3240 -0.0013 -1.0000 0.0000 -0.0000
-0.7751 -0.7940 0.4519 -0.1098 0.7663 0.6330
-0.7801 -0.7940 0.4432 -0.6031 0.7663 -0.2214
-0.7790 -0.8016 0.4368 -0.4997 0.0001 -0.8662
-0.7730 -0.8092 0.4391 0.1111 -0.7656 -0.6337
-0.7680 -0.8092 0.4478 0.6044 -0.7656 0.2206
-0.7690 -0.8016 0.4542 0.5003 0.0001 0.8659
-0.3710 -0.5435 0.2186 0.1371 0.8802 0.4544
-0.3760 -0.5435 0.2099 -0.3250 0.8802 -0.3459
-0.3776 -0.5521 0.2050 -0.5088 0.1119 -0.8536
-0.3742 -0.5607 0.2088 -0.1956 -0.8185 -0.5402
-0.3692 -0.5607 0.2175 0.3700 -0.8185 0.4395
-0.3676 -0.5521 0.2224 0.4849 0.1119 0.8674
-0.0020 -0.6511 0.0055 0.4313 0.8433 0.3206
-0.0070 -0.6511 -0.0031 -0.0620 0.8433 -0.5338
-0.0114 -0.6595 -0.0064 -0.5003 0.0000 -0.8658
-0.0107 -0.6679 -0.0010 -0.4329 -0.8429 -0.3196
-0.0057 -0.6679 0.0077 0.0603 -0.8429 0.5347
-0.0014 -0.6595 0.0109 0.4996 0.0000 0.8662
-0.3736 -0.5444 0.2201 -0.1055 0.7625 0.6383
-0.3786 -0.5444 0.2114 -0.6055 0.7625 -0.2278
-0.3776 -0.5521 0.2050 -0.5000 -0.0000 -0.8660
-0.3715 -0.5597 0.2073 0.1055 -0.7625 -0.6383
-0.3665 -0.5597 0.2160 0.6055 -0.7625 0.2278
-0.3676 -0.5521 0.2224 0.5000 0.0000 0.8660
-0.0068 -0.3164 0.0083 -0.1055 0.7625 0.6383
-0.0118 -0.3164 -0.0004 -0.6055 0.7625 -0.2278
-0.0107 -0.3240 -0.0068 -0.5000 -0.0000 -0.8660
-0.0047 -0.3316 -0.0045 0.1055 -0.7625 -0.6383
0.0003 -0.3316 0.0042 0.6055 -0.7625 0.2278
-0.0007 -0.3240 0.0106 0.5000 0.0000 0.8660
0.7723 -0.7940 0.4432 0.6031 0.7663 -0.2214
0.7673 -0.7940 0.4519 0.1098 0.7663 0.6330
0.7613 -0.8016 0.4542 -0.5003 0.0001 0.8659
0.7602 -0.8092 0.4478 -0.6044 -0.7656 0.2206
0.7652 -0.8092 0.4391 -0.1111 -0.7656 -0.6337
0.7713 -0.8016 0.4368 0.4997 0.0001 -0.8662
0.3682 -0.5435 0.2099 0.3250 0.8802 -0.3459
0.3632 -0.5435 0.2186 -0.1371 0.8802 0.4544
0.3598 -0.5521 0.2224 -0.4849 0.1119 0.8674
0.3614 -0.5607 0.2175 -0.3700 -0.8185 0.4395
0.3664 -0.5607 0.2089 0.1956 -0.8185 -0.5402
0.3698 -0.5521 0.2050 0.5088 0.1119 -0.8536
-0.0008 -0.6511 -0.0031 0.0620 0.8433 -0.5338
-0.0058 -0.6511 0.0055 -0.4313 0.8433 0.3206
-0.0064 -0.6595 0.0109 -0.4996 0.0000 0.8662
-0.0021 -0.6679 0.0077 -0.0603 -0.8429 0.5347
0.0029 -0.6679 -0.0010 0.4329 -0.8429 -0.3196
0.0036 -0.6595 -0.0064 0.5003 0.0001 -0.8658
0.3709 -0.5444 0.2114 0.6055 0.7625 -0.2278
0.3659 -0.5444 0.2201 0.1055 0.7625 0.6383
0.3598 -0.5521 0.2224 -0.5000 0.0000 0.8660
0.3588 -0.5597 0.2160 -0.6055 -0.7625 0.2278
0.3638 -0.5597 0.2073 -0.1055 -0.7625 -0.6383
0.3698 -0.5521 0.2050 0.5000 -0.0000 -0.8660
0.0040 -0.3164 -0.0004 0.6055 0.7625 -0.2278
-0.0010 -0.3164 0.0083 0.1055 0.7625 0.6383
-0.0070 -0.3240 0.0106 -0.5000 0.0000 0.8660
-0.0081 -0.3316 0.0042 -0.6055 -0.7625 0.2278
-0.0031 -0.3316 -0.0045 -0.1055 -0.7625 -0.6383
0.0030 -0.3240 -0.0068 0.5000 0.0000 -0.8660
0.0146 0.3698 0.0115 0.0000 1.0000 0.0000
0.0068 0.3698 0.0193 0.0000 1.0000 0.0000
-0.0039 0.3698 0.0222 0.0000 1.0000 0.0000
-0.0039 0.3698 0.0222 0.0000 1.0000 0.0000
-0.0224 0.3698 0.0115 0.0000 1.0000 0.0000
-0.0224 0.3698 0.0115 0.0000 1.0000 0.0000
-0.0252 0.3698 0.0008 0.0000 1.0000 0.0000
-0.0224 0.3698 -0.0098 0.0000 1.0000 0.0000
-0.0224 0.3698 -0.0098 0.0000 1.0000 0.0000
-0.0146 0.3698 -0.0177 0.0000 1.0000 0.0000
-0.0039 0.3698 -0.0205 0.0000 1.0000 0.0000
-0.0039 0.3698 -0.0205 0.0000 1.0000 0.0000
0.0068 0.3698 -0.0177 0.0000 1.0000 0.0000
0.0146 0.3698 -0.0098 0.0000 1.0000 0.0000
0.0146 0.3698 -0.0098 0.0000 1.0000 0.0000
0.0175 0.3698 0.0008 0.0000 1.0000 0.0000
0.0146 0.3698 0.0115 0.0000 1.0000 0.0000
0.0146 0.3698 0.0115 0.0000 1.0000 0.0000
-0.0039 0.3698 0.0222 0.0000 1.0000 0.0000
-0.0224 0.3698 0.0115 0.0000 1.0000 0.0000
-0.0224 0.3698 0.0115 0.0000 1.0000 0.0000
-0.0224 0.3698 -0.0098 0.0000 1.0000 0.0000
-0.0039 0.3698 -0.0205 0.0000 1.0000 0.0000
-0.0039 0.3698 -0.0205 0.0000 1.0000 0.0000
0.0146 0.3698 -0.0098 0.0000 1.0000 0.0000
0.0146 0.3698 0.0115 0.0000 1.0000 0.0000
-0.0224 0.3698 0.0115 0.0000 1.0000 0.0000
-0.0039 0.3698 -0.0205 0.0000 1.0000 0.0000
0.0146 0.3698 0.0115 0.0000 1.0000 0.0000
-0.0146 0.3698 0.0193 -0.5000 0.0000 0.8660
-0.0146 0.3698 0.0193 -0.5000 0.0000 0.8660
-0.0146 0.3698 0.0193 -0.5000 0.0000 0.8660
-0.0146 -0.6685 0.0193 -0.0000 -1.0000 0.0000
-0.0039 -0.6685 0.0222 -0.0000 -1.0000 0.0000
0.0068 -0.6685 0.0193 -0.0000 -1.0000 0.0000
0.0068 -0.6685 0.0193 -0.0000 -1.0000 0.0000
0.0146 -0.6685 0.0115 -0.0000 -1.0000 0.0000
0.0175 -0.6685 0.0008 -0.0000 -1.0000 0.0000
0.0175 -0.6685 0.0008 -0.0000 -1.0000 0.0000
0.0146 -0.6685 -0.0098 -0.0000 -1.0000 0.0000
0.0068 -0.6685 -0.0177 -0.0000 -1.0000 0.0000
0.0068 -0.6685 -0.0177 -0.0000 -1.0000 0.0000
-0.0039 -0.6685 -0.0205 -0.0000 -1.0000 0.0000
-0.0146 -0.6685 -0.0177 -0.0000 -1.0000 0.0000
-0.0146 -0.6685 -0.0177 -0.0000 -1.0000 0.0000
-0.0224 -0.6685 -0.0098 -0.0000 -1.0000 0.0000
-0.0252 -0.6685 0.0008 -0.0000 -1.0000 0.0000
-0.0252 -0.6685 0.0008 -0.0000 -1.0000 0.0000
-0.0224 -0.6685 0.0115 -0.0000 -1.0000 0.0000
-0.0146 -0.6685 0.0193 -0.0000 -1.0000 0.0000
-0.0146 -0.6685 0.0193 -0.0000 -1.0000 0.0000
0.0068 -0.6685 0.0193 -0.0000 -1.0000 0.0000
0.0175 -0.6685 0.0008 -0.0000 -1.0000 0.0000
0.0175 -0.6685 0.0008 -0.0000 -1.0000 0.0000
0.0068 -0.6685 -0.0177 -0.0000 -1.0000 0.0000
-0.0146 -0.6685 -0.0177 -0.0000 -1.0000 0.0000
-0.0146 -0.6685 -0.0177 -0.0000 -1.0000 0.0000
-0.0252 -0.6685 0.0008 -0.0000 -1.0000 0.0000
-0.0146 -0.6685 0.0193 -0.0000 -1.0000 0.0000
0.0175 -0.6685 0.0008 -0.0000 -1.0000 0.0000
-0.0146 -0.6685 -0.0177 -0.0000 -1.0000 0.0000
-0.0146 -0.6685 0.0193 -0.0000 -1.0000 0.0000
0.0011 -0.7940 -0.8926 -0.0000 -0.4740 -0.8805
-0.0089 -0.7940 -0.8926 -0.0000 -0.4740 -0.8805
-0.0139 -0.8016 -0.8885 -0.0000 -0.4740 -0.8805
-0.0139 -0.8016 -0.8885 -0.0000 -0.4740 -0.8805
-0.0089 -0.8092 -0.8844 -0.0000 -0.4740 -0.8805
0.0011 -0.8092 -0.8844 -0.0000 -0.4740 -0.8805
0.0011 -0.8092 -0.8844 -0.0000 -0.4740 -0.8805
0.0061 -0.8016 -0.8885 -0.0000 -0.4740 -0.8805
0.0011 -0.7940 -0.8926 -0.0000 -0.4740 -0.8805
-0.0139 -0.8016 -0.8885 -0.0000 -0.4740 -0.8805
0.0011 -0.8092 -0.8844 -0.0000 -0.4740 -0.8805
0.0011 -0.7940 -0.8926 -0.0000 -0.4740 -0.8805
0.7613 -0.8016 0.4542 0.7625 -0.4740 0.4403
0.7673 -0.7940 0.4519 0.7625 -0.4740 0.4403
0.7723 -0.7940 0.4432 0.7625 -0.4740 0.4403
0.7723 -0.7940 0.4432 0.7625 -0.4740 0.4403
0.7713 -0.8016 0.4368 0.7625 -0.4740 0.4403
0.7652 -0.8092 0.4391 0.7625 -0.4740 0.4403
0.7652 -0.8092 0.4391 0.7625 -0.4740 0.4403
0.7602 -0.8092 0.4478 0.7625 -0.4740 0.4403
0.7613 -0.8016 0.4542 0.7625 -0.4740 0.4403
0.7723 -0.7940 0.4432 0.7625 -0.4740 0.4403
0.7652 -0.8092 0.4391 0.7625 -0.4740 0.4403
0.7613 -0.8016 0.4542 0.7625 -0.4740 0.4403
-0.7790 -0.8016 0.4368 -0.7625 -0.4740 0.4403
-0.7801 -0.7940 0.4432 -0.7625 -0.4740 0.4403
-0.7751 -0.7940 0.4519 -0.7625 -0.4740 0.4403
-0.7751 -0.7940 0.4519 -0.7625 -0.4740 0.4403
-0.7690 -0.8016 0.4542 -0.7625 -0.4740 0.4403
-0.7680 -0.8092 0.4478 -0.7625 -0.4740 0.4403
-0.7680 -0.8092 0.4478 -0.7625 -0.4740 0.4403
-0.7730 -0.8092 0.4391 -0.7625 -0.4740 0.4403
-0.7790 -0.8016 0.4368 -0.7625 -0.4740 0.4403
-0.7751 -0.7940 0.4519 -0.7625 -0.4740 0.4403
-0.7680 -0.8092 0.4478 -0.7625 -0.4740 0.4403
-0.7790 -0.8016 0.4368 -0.7625 -0.4740 0.4403
0 3 1
0 2 3
2 5 3
2 4 5
4 7 5
4 6 7
6 9 7
6 8 9
8 11 9
8 10 11
10 13 11
10 12 13
12 15 13
12 14 15
14 17 15
14 16 17
16 19 17
16 18 19
18 21 19
18 20 21
114 116 115
117 118 23
119 121 120
122 124 123
125 127 126
128 130 129
131 133 132
134 136 135
137 139 138
140 142 141
20 143 21
20 22 144
22 1 145
22 0 1
146 148 147
149 151 150
152 154 153
155 157 156
158 160 159
161 163 162
164 166 165
167 169 168
170 172 171
173 175 174
24 35 30
24 29 35
25 30 31
25 24 30
26 31 32
26 25 31
27 32 33
27 26 32
28 33 34
28 27 33
29 34 35
29 28 34
30 41 36
30 35 41
31 36 37
31 30 36
32 37 38
32 31 37
33 38 39
33 32 38
34 39 40
34 33 39
35 40 41
35 34 40
42 53 48
42 47 53
43 48 49
43 42 48
44 49 50
44 43 49
45 50 51
45 44 50
46 51 52
46 45 51
47 52 53
47 46 52
54 65 60
54 59 65
55 60 61
55 54 60
56 61 62
56 55 61
57 62 63
57 56 62
58 63 64
58 57 63
59 64 65
59 58 64
60 71 66
60 65 71
61 66 67
61 60 66
62 67 68
62 61 67
63 68 69
63 62 68
64 69 70
64 63 69
65 70 71
65 64 70
72 83 78
72 77 83
73 78 79
73 72 78
74 79 80
74 73 79
75 80 81
75 74 80
76 81 82
76 75 81
77 82 83
77 76 82
84 95 90
84 89 95
85 90 91
85 84 90
86 91 92
86 85 91
87 92 93
87 86 92
88 93 94
88 87 93
89 94 95
89 88 94
90 101 96
90 95 101
91 96 97
91 90 96
92 97 98
92 91 97
93 98 99
93 92 98
94 99 100
94 93 99
95 100 101
95 94 100
102 113 108
102 107 113
103 108 109
103 102 108
104 109 110
104 103 109
105 110 111
105 104 110
106 111 112
106 105 111
107 112 113
107 106 112
176 178 177
179 181 180
182 184 183
185 187 186
188 190 189
191 193 192
194 196 195
197 199 198
200 202 201
203 205 204
206 208 207
209 211 210
LABEL Color_Lens
MATERIAL 2
TEXTURE 0
FLAG 0
GEOM 29 32
-0.0000 0.4688 0.1917 0.0000 0.3744 0.9273
-0.0000 0.4494 0.1956 -0.0000 -0.0000 1.0000
-0.0000 0.4300 0.1917 -0.0000 -0.3744 0.9273
0.0194 0.4494 0.1917 0.3827 -0.0000 0.9239
-0.0194 0.4494 0.1917 -0.3827 -0.0000 0.9239
0.0118 0.4300 0.1894 0.1877 -0.2727 0.9436
-0.0118 0.4688 0.1894 -0.1877 0.2727 0.9436
0.0184 0.4627 0.1893 0.2624 0.1937 0.9453
0.0000 0.4725 0.1893 0.0000 0.5556 0.8315
0.0231 0.4494 0.1893 0.5556 -0.0000 0.8315
0.0000 0.4263 0.1893 0.0000 -0.5556 0.8315
0.0118 0.4688 0.1894 0.1877 0.2727 0.9436
0.0184 0.4361 0.1893 0.2624 -0.1937 0.9453
-0.0184 0.4627 0.1893 -0.2624 0.1937 0.9453
-0.0184 0.4361 0.1893 -0.2624 -0.1937 0.9453
-0.0118 0.4300 0.1894 -0.1877 -0.2727 0.9436
-0.0231 0.4494 0.1893 -0.5556 0.0000 0.8315
0.0164 0.4658 0.1891 0.1915 0.1915 0.9626
-0.0214 0.4583 0.1884 -0.5453 0.1915 0.8161
0.0088 0.4708 0.1887 0.1632 0.5481 0.8203
0.0214 0.4406 0.1884 0.5453 -0.1915 0.8161
-0.0088 0.4708 0.1887 -0.1632 0.5481 0.8203
-0.0164 0.4658 0.1891 -0.1915 0.1915 0.9626
0.0088 0.4280 0.1887 0.1632 -0.5481 0.8203
0.0164 0.4331 0.1891 0.1915 -0.1915 0.9626
-0.0214 0.4406 0.1884 -0.5453 -0.1915 0.8161
-0.0088 0.4280 0.1887 -0.1632 -0.5481 0.8203
-0.0164 0.4331 0.1891 -0.1915 -0.1915 0.9626
0.0214 0.4583 0.1884 0.5453 0.1915 0.8161
3 0 1
0 17 11
17 3 7
0 3 17
5 1 2
1 12 3
12 5 24
1 5 12
0 19 8
0 11 19
3 28 7
3 9 28
1 13 4
13 6 22
6 1 0
13 1 6
16 13 18
16 4 13
9 12 20
9 3 12
6 8 21
6 0 8
5 10 23
5 2 10
14 16 25
14 4 16
10 15 26
10 2 15
2 27 15
27 4 14
4 2 1
27 2 4
LABEL Color_TV
MATERIAL 3
TEXTURE 0
FLAG 0
GEOM 652 480
0.0000 0.4680 0.0776 0.0000 0.9673 -0.2538
-0.0000 0.4792 0.1795 0.0000 0.9915 -0.1305
-0.0071 0.4666 0.0776 -0.3702 0.8936 -0.2538
-0.0114 0.4769 0.1795 -0.3794 0.9160 -0.1305
-0.0131 0.4625 0.0776 -0.6840 0.6840 -0.2538
-0.0210 0.4705 0.1795 -0.7011 0.7011 -0.1305
-0.0172 0.4565 0.0776 -0.8936 0.3702 -0.2538
-0.0275 0.4608 0.1795 -0.9160 0.3794 -0.1305
-0.0186 0.4494 0.0776 -0.9673 -0.0000 -0.2538
-0.0298 0.4494 0.1795 -0.9915 0.0000 -0.1305
-0.0172 0.4423 0.0776 -0.8936 -0.3702 -0.2538
-0.0275 0.4380 0.1795 -0.9160 -0.3794 -0.1305
-0.0131 0.4363 0.0776 -0.6840 -0.6840 -0.2538
-0.0210 0.4284 0.1795 -0.7011 -0.7011 -0.1305
-0.0071 0.4323 0.0776 -0.3702 -0.8936 -0.2538
-0.0114 0.4219 0.1795 -0.3794 -0.9160 -0.1305
0.0000 0.4308 0.0776 0.0000 -0.9673 -0.2538
-0.0000 0.4196 0.1795 -0.0000 -0.9915 -0.1305
0.0071 0.4323 0.0776 0.3702 -0.8936 -0.2538
0.0114 0.4219 0.1795 0.3794 -0.9160 -0.1305
0.0131 0.4363 0.0776 0.6840 -0.6840 -0.2538
0.0210 0.4284 0.1795 0.7011 -0.7011 -0.1305
0.0172 0.4423 0.0776 0.8936 -0.3702 -0.2538
0.0275 0.4380 0.1795 0.9160 -0.3794 -0.1305
0.0186 0.4494 0.0776 0.9673 -0.0000 -0.2538
0.0298 0.4494 0.1795 0.9915 0.0000 -0.1305
0.0172 0.4565 0.0776 0.8936 0.3702 -0.2538
0.0275 0.4608 0.1795 0.9160 0.3794 -0.1305
0.0131 0.4625 0.0776 0.6840 0.6840 -0.2538
0.0210 0.4705 0.1795 0.7011 0.7011 -0.1305
0.0071 0.4666 0.0776 0.3702 0.8936 -0.2538
0.0114 0.4769 0.1795 0.3794 0.9160 -0.1305
-0.0088 0.4708 0.1938 0.0000 0.0000 1.0000
-0.0000 0.4725 0.1938 0.0000 0.0000 1.0000
-0.0164 0.4658 0.1938 0.0000 0.0000 1.0000
-0.0214 0.4583 0.1938 0.0000 0.0000 1.0000
-0.0231 0.4494 0.1938 1.0000 -0.0000 0.0000
-0.0214 0.4406 0.1938 0.9239 0.3827 0.0000
-0.0164 0.4331 0.1938 0.0000 -0.0000 1.0000
-0.0088 0.4280 0.1938 0.0000 -0.0000 1.0000
-0.0000 0.4263 0.1938 0.0000 0.0000 1.0000
0.0088 0.4280 0.1938 0.0000 -0.0000 1.0000
0.0164 0.4331 0.1938 0.0000 -0.0000 1.0000
0.0214 0.4406 0.1938 0.0000 -0.0000 1.0000
0.0231 0.4494 0.1938 0.0000 0.0000 1.0000
0.0214 0.4583 0.1938 0.0000 0.0000 1.0000
0.0164 0.4658 0.1938 0.0000 0.0000 1.0000
0.0088 0.4708 0.1938 0.0000 0.0000 1.0000
-0.0000 0.4747 0.1452 -0.0000 0.9915 -0.1305
-0.0097 0.4727 0.1452 -0.3794 0.9160 -0.1305
-0.0179 0.4673 0.1452 -0.7011 0.7011 -0.1305
-0.0233 0.4591 0.1452 -0.9160 0.3794 -0.1305
-0.0252 0.4494 0.1452 -0.9915 0.0000 -0.1305
-0.0233 0.4397 0.1452 -0.9160 -0.3794 -0.1305
-0.0179 0.4316 0.1452 -0.7011 -0.7011 -0.1305
-0.0097 0.4261 0.1452 -0.3794 -0.9160 -0.1305
-0.0000 0.4242 0.1452 0.0000 -0.9915 -0.1305
0.0097 0.4261 0.1452 0.3794 -0.9160 -0.1305
0.0179 0.4316 0.1452 0.7011 -0.7011 -0.1305
0.0233 0.4397 0.1452 0.9160 -0.3794 -0.1305
0.0252 0.4494 0.1452 0.9915 0.0000 -0.1305
0.0233 0.4591 0.1452 0.9160 0.3794 -0.1305
0.0179 0.4673 0.1452 0.7011 0.7011 -0.1305
0.0097 0.4727 0.1452 0.3794 0.9160 -0.1305
-0.0096 0.4727 0.1030 -0.3827 0.9239 -0.0008
-0.0178 0.4672 0.1030 -0.7071 0.7071 -0.0008
-0.0233 0.4591 0.1030 -0.9239 0.3827 -0.0008
-0.0252 0.4494 0.1030 -1.0000 -0.0000 -0.0008
-0.0233 0.4398 0.1030 -0.9239 -0.3827 -0.0008
-0.0178 0.4316 0.1030 -0.7071 -0.7071 -0.0008
-0.0096 0.4261 0.1030 -0.3827 -0.9239 -0.0008
0.0000 0.4242 0.1030 0.0000 -1.0000 -0.0008
0.0096 0.4261 0.1030 0.3827 -0.9239 -0.0008
0.0178 0.4316 0.1030 0.7071 -0.7071 -0.0008
0.0233 0.4398 0.1030 0.9239 -0.3827 -0.0008
0.0252 0.4494 0.1030 1.0000 0.0000 -0.0008
0.0233 0.4591 0.1030 0.9239 0.3827 -0.0008
0.0178 0.4672 0.1030 0.7071 0.7071 -0.0008
0.0096 0.4727 0.1030 0.3827 0.9239 -0.0008
0.0000 0.4746 0.1030 0.0000 1.0000 -0.0008
-0.0114 0.4769 0.1938 -0.3827 0.9239 -0.0000
-0.0000 0.4792 0.1938 -0.0000 1.0000 -0.0000
-0.0210 0.4705 0.1938 -0.7071 0.7071 -0.0000
-0.0275 0.4608 0.1938 -0.9239 0.3827 0.0000
-0.0298 0.4494 0.1938 -1.0000 -0.0000 0.0000
-0.0275 0.4380 0.1938 -0.9239 -0.3827 -0.0000
-0.0210 0.4284 0.1938 -0.7071 -0.7071 -0.0000
-0.0114 0.4219 0.1938 -0.3827 -0.9239 -0.0000
-0.0000 0.4196 0.1938 0.0000 -1.0000 -0.0000
0.0114 0.4219 0.1938 0.3827 -0.9239 -0.0000
0.0210 0.4284 0.1938 0.7071 -0.7071 -0.0000
0.0275 0.4380 0.1938 0.9239 -0.3827 -0.0000
0.0298 0.4494 0.1938 1.0000 0.0000 0.0000
0.0275 0.4608 0.1938 0.9239 0.3827 0.0000
0.0210 0.4705 0.1938 0.7071 0.7071 0.0000
0.0114 0.4769 0.1938 0.3827 0.9239 0.0000
-0.0088 0.4708 0.1822 0.3827 -0.9239 0.0000
-0.0000 0.4725 0.1822 0.0000 -1.0000 0.0000
-0.0164 0.4658 0.1822 0.7071 -0.7071 0.0000
-0.0214 0.4583 0.1822 0.9239 -0.3827 0.0000
-0.0231 0.4494 0.1822 1.0000 -0.0000 0.0000
-0.0214 0.4406 0.1822 0.9239 0.3827 0.0000
-0.0164 0.4331 0.1822 0.7071 0.7071 -0.0000
-0.0088 0.4280 0.1822 0.3827 0.9239 -0.0000
-0.0000 0.4263 0.1822 0.0000 1.0000 0.0000
0.0088 0.4280 0.1822 -0.3827 0.9239 0.0000
0.0164 0.4331 0.1822 -0.7071 0.7071 0.0000
0.0214 0.4406 0.1822 -0.9239 0.3827 0.0000
0.0231 0.4494 0.1822 -1.0000 -0.0000 0.0000
0.0214 0.4583 0.1822 -0.9239 -0.3827 0.0000
0.0164 0.4658 0.1822 -0.7071 -0.7071 0.0000
0.0088 0.4708 0.1822 -0.3827 -0.9239 0.0000
0.0541 0.3973 0.0714 0.9914 -0.1305 -0.0000
0.0516 0.3948 0.0714 0.1305 -0.9914 -0.0000
0.0538 0.3961 0.0714 0.8660 -0.5000 -0.0000
0.0528 0.3951 0.0714 0.5000 -0.8660 -0.0000
0.0516 0.3948 -0.1704 0.1305 -0.9914 -0.0000
0.0541 0.3973 -0.1704 0.9914 -0.1305 -0.0000
0.0528 0.3951 -0.1704 0.5000 -0.8660 -0.0000
0.0538 0.3961 -0.1704 0.8660 -0.5000 -0.0000
0.0516 0.5040 0.0714 0.1305 0.9914 -0.0000
0.0541 0.5015 0.0714 0.9914 0.1305 -0.0000
0.0528 0.5037 0.0714 0.2588 0.9659 -0.0000
0.0538 0.5027 0.0714 0.8660 0.5000 -0.0000
0.0541 0.5015 -0.1704 0.9914 0.1305 -0.0000
0.0516 0.5040 -0.1704 0.1305 0.9914 -0.0000
0.0538 0.5027 -0.1704 0.8660 0.5000 -0.0000
0.0528 0.5037 -0.1704 0.2588 0.9659 -0.0000
-0.0516 0.3948 0.0714 -0.1305 -0.9914 0.0000
-0.0541 0.3973 0.0714 -0.9914 -0.1305 0.0000
-0.0528 0.3951 0.0714 -0.5000 -0.8660 0.0000
-0.0538 0.3961 0.0714 -0.8660 -0.5000 0.0000
-0.0541 0.3973 -0.1704 -0.9914 -0.1305 0.0000
-0.0516 0.3948 -0.1704 -0.1305 -0.9914 0.0000
-0.0538 0.3961 -0.1704 -0.8660 -0.5000 0.0000
-0.0528 0.3951 -0.1704 -0.5000 -0.8660 0.0000
-0.0541 0.5015 0.0714 -0.9914 0.1305 0.0000
-0.0516 0.5040 0.0714 -0.1305 0.9914 0.0000
-0.0538 0.5027 0.0714 -0.8660 0.5000 0.0000
-0.0528 0.5037 0.0714 -0.7071 0.7071 0.0000
-0.0516 0.5040 -0.1704 -0.1305 0.9914 0.0000
-0.0541 0.5015 -0.1704 -0.9914 0.1305 0.0000
-0.0528 0.5037 -0.1704 -0.7071 0.7071 0.0000
-0.0538 0.5027 -0.1704 -0.8660 0.5000 0.0000
-0.0516 0.3633 0.0689 -0.1296 -0.1296 0.9831
-0.0516 0.3608 0.0664 -0.1296 -0.9831 0.1296
-0.0541 0.3633 0.0664 -0.9831 -0.1296 0.1296
-0.0516 0.3620 0.0686 -0.1216 -0.4915 0.8623
-0.0528 0.3633 0.0686 -0.4915 -0.1216 0.8623
-0.0528 0.3621 0.0682 -0.4474 -0.4473 0.7744
-0.0528 0.3611 0.0664 -0.4915 -0.8623 0.1216
-0.0516 0.3611 0.0676 -0.1216 -0.8623 0.4915
-0.0528 0.3614 0.0676 -0.4474 -0.7744 0.4473
-0.0538 0.3633 0.0676 -0.8623 -0.1216 0.4915
-0.0538 0.3620 0.0664 -0.8623 -0.4915 0.1216
-0.0534 0.3621 0.0676 -0.7744 -0.4473 0.4473
-0.0516 0.3923 0.0689 -0.1296 0.1296 0.9831
-0.0541 0.3923 0.0664 -0.9831 0.1296 0.1296
-0.0516 0.3948 0.0664 -0.1296 0.9831 0.1296
-0.0528 0.3923 0.0686 -0.4915 0.1216 0.8623
-0.0516 0.3935 0.0686 -0.1216 0.4915 0.8623
-0.0528 0.3935 0.0682 -0.4474 0.4473 0.7744
-0.0538 0.3935 0.0664 -0.8623 0.4915 0.1216
-0.0538 0.3923 0.0676 -0.8623 0.1216 0.4915
-0.0534 0.3935 0.0676 -0.7744 0.4474 0.4473
-0.0516 0.3945 0.0676 -0.1216 0.8623 0.4915
-0.0528 0.3945 0.0664 -0.4915 0.8623 0.1216
-0.0528 0.3941 0.0676 -0.4474 0.7744 0.4473
-0.0516 0.3923 -0.0302 -0.1296 0.1296 -0.9831
-0.0516 0.3948 -0.0276 -0.1296 0.9831 -0.1296
-0.0541 0.3923 -0.0276 -0.9831 0.1296 -0.1296
-0.0516 0.3935 -0.0298 -0.1216 0.4915 -0.8623
-0.0528 0.3923 -0.0298 -0.4915 0.1216 -0.8623
-0.0528 0.3935 -0.0295 -0.4473 0.4474 -0.7744
-0.0528 0.3945 -0.0276 -0.4915 0.8623 -0.1216
-0.0516 0.3945 -0.0289 -0.1216 0.8623 -0.4915
-0.0528 0.3941 -0.0288 -0.4473 0.7744 -0.4473
-0.0538 0.3923 -0.0289 -0.8623 0.1216 -0.4915
-0.0538 0.3935 -0.0276 -0.8623 0.4915 -0.1216
-0.0534 0.3935 -0.0288 -0.7744 0.4474 -0.4473
-0.0516 0.3633 -0.0302 -0.1296 -0.1296 -0.9831
-0.0541 0.3633 -0.0276 -0.9831 -0.1296 -0.1296
-0.0516 0.3608 -0.0276 -0.1296 -0.9831 -0.1296
-0.0528 0.3633 -0.0298 -0.4915 -0.1216 -0.8623
-0.0516 0.3620 -0.0298 -0.1216 -0.4915 -0.8623
-0.0528 0.3621 -0.0295 -0.4474 -0.4473 -0.7744
-0.0538 0.3620 -0.0276 -0.8623 -0.4915 -0.1216
-0.0538 0.3633 -0.0289 -0.8623 -0.1216 -0.4915
-0.0534 0.3621 -0.0288 -0.7744 -0.4473 -0.4473
-0.0516 0.3611 -0.0289 -0.1216 -0.8623 -0.4915
-0.0528 0.3611 -0.0276 -0.4915 -0.8623 -0.1216
-0.0528 0.3614 -0.0288 -0.4474 -0.7744 -0.4473
0.0516 0.3923 0.0689 0.1296 0.1296 0.9831
0.0516 0.3948 0.0664 0.1296 0.9831 0.1296
0.0541 0.3923 0.0664 0.9831 0.1296 0.1296
0.0516 0.3935 0.0686 0.1216 0.4915 0.8623
0.0528 0.3923 0.0686 0.4915 0.1216 0.8623
0.0528 0.3935 0.0682 0.4474 0.4474 0.7744
0.0528 0.3945 0.0664 0.4915 0.8623 0.1216
0.0516 0.3945 0.0676 0.1216 0.8623 0.4915
0.0528 0.3941 0.0676 0.4474 0.7744 0.4473
0.0538 0.3923 0.0676 0.8623 0.1216 0.4915
0.0538 0.3935 0.0664 0.8623 0.4915 0.1216
0.0534 0.3935 0.0676 0.7744 0.4474 0.4474
0.0516 0.3633 0.0689 0.1296 -0.1296 0.9831
0.0541 0.3633 0.0664 0.9831 -0.1296 0.1296
0.0516 0.3608 0.0664 0.1296 -0.9831 0.1296
0.0528 0.3633 0.0686 0.4915 -0.1216 0.8623
0.0516 0.3620 0.0686 0.1216 -0.4915 0.8623
0.0528 0.3621 0.0682 0.4474 -0.4473 0.7744
0.0538 0.3620 0.0664 0.8623 -0.4915 0.1216
0.0538 0.3633 0.0676 0.8623 -0.1216 0.4915
0.0534 0.3621 0.0676 0.7744 -0.4474 0.4473
0.0516 0.3611 0.0676 0.1216 -0.8623 0.4915
0.0528 0.3611 0.0664 0.4915 -0.8623 0.1216
0.0528 0.3614 0.0676 0.4473 -0.7744 0.4473
0.0516 0.3633 -0.0302 0.1296 -0.1296 -0.9831
0.0516 0.3608 -0.0276 0.1296 -0.9831 -0.1296
0.0541 0.3633 -0.0276 0.9831 -0.1296 -0.1296
0.0516 0.3620 -0.0298 0.1216 -0.4915 -0.8623
0.0528 0.3633 -0.0298 0.4915 -0.1216 -0.8623
0.0528 0.3621 -0.0295 0.4474 -0.4473 -0.7744
0.0528 0.3611 -0.0276 0.4916 -0.8623 -0.1216
0.0516 0.3611 -0.0289 0.1216 -0.8623 -0.4915
0.0528 0.3614 -0.0288 0.4474 -0.7744 -0.4473
0.0538 0.3633 -0.0289 0.8623 -0.1216 -0.4915
0.0538 0.3620 -0.0276 0.8623 -0.4915 -0.1216
0.0534 0.3621 -0.0288 0.7744 -0.4473 -0.4473
0.0516 0.3923 -0.0302 0.1296 0.1296 -0.9831
0.0541 0.3923 -0.0276 0.9831 0.1296 -0.1296
0.0516 0.3948 -0.0276 0.1296 0.9831 -0.1296
0.0528 0.3923 -0.0298 0.4915 0.1216 -0.8623
0.0516 0.3935 -0.0298 0.1216 0.4915 -0.8623
0.0528 0.3935 -0.0295 0.4473 0.4473 -0.7744
0.0538 0.3935 -0.0276 0.8623 0.4915 -0.1216
0.0538 0.3923 -0.0289 0.8623 0.1216 -0.4915
0.0534 0.3935 -0.0288 0.7744 0.4474 -0.4473
0.0516 0.3945 -0.0289 0.1216 0.8623 -0.4915
0.0528 0.3945 -0.0276 0.4915 0.8623 -0.1216
0.0528 0.3941 -0.0288 0.4473 0.7744 -0.4473
0.0369 0.4863 0.0684 1.0000 -0.0000 0.0000
0.0482 0.4694 0.0684 0.9239 0.3827 0.0000
0.0369 0.4863 0.0809 -0.0000 -0.0000 1.0000
0.0482 0.4694 0.0809 -0.0000 -0.0000 1.0000
0.0522 0.4494 0.0809 -0.0000 -0.0000 1.0000
0.0482 0.4294 0.0809 -0.0000 -0.0000 1.0000
0.0369 0.4125 0.0809 -0.0000 -0.0000 1.0000
-0.0369 0.5040 0.0809 -0.0000 -0.0000 1.0000
0.0369 0.5040 0.0809 -0.0000 -0.0000 1.0000
-0.0369 0.3608 0.0809 -0.0000 -0.0000 1.0000
-0.0369 0.4125 0.0809 -0.0000 -0.0000 1.0000
-0.0482 0.4294 0.0809 -0.0000 -0.0000 1.0000
-0.0522 0.4494 0.0809 -0.0000 -0.0000 1.0000
-0.0482 0.4694 0.0809 -0.0000 -0.0000 1.0000
-0.0369 0.4863 0.0809 -0.0000 -0.0000 1.0000
0.0369 0.3608 0.0809 -0.0000 -0.0000 1.0000
0.0522 0.4494 0.0684 1.0000 0.0000 0.0000
0.0482 0.4294 0.0684 0.9239 -0.3827 0.0000
0.0369 0.4125 0.0684 1.0000 -0.0000 0.0000
-0.0369 0.5040 0.0714 -0.0000 1.0000 0.0000
0.0369 0.5040 0.0714 1.0000 -0.0000 0.0000
-0.0369 0.3608 0.0664 -1.0000 0.0000 -0.0000
0.0369 0.3608 0.0664 1.0000 -0.0000 0.0000
-0.0369 0.4125 0.0684 -1.0000 0.0000 -0.0000
-0.0482 0.4294 0.0684 -0.9239 -0.3827 -0.0000
-0.0522 0.4494 0.0684 -1.0000 0.0000 -0.0000
-0.0482 0.4694 0.0684 -0.9239 0.3827 -0.0000
-0.0369 0.4863 0.0684 -0.8315 0.5556 -0.0000
-0.0000 0.4196 0.1795 0.0000 -1.0000 -0.0000
-0.0114 0.4219 0.1795 -0.3827 -0.9239 -0.0000
-0.0000 0.4196 0.1795 0.0000 -1.0000 -0.0000
-0.0114 0.4769 0.1795 -0.3827 0.9239 -0.0000
-0.0000 0.4792 0.1795 0.0000 1.0000 -0.0000
-0.0114 0.4769 0.1795 -0.3827 0.9239 -0.0000
0.0275 0.4608 0.1795 0.9239 0.3827 0.0000
0.0298 0.4494 0.1795 1.0000 0.0000 0.0000
0.0275 0.4608 0.1795 0.9239 0.3827 0.0000
-0.0210 0.4284 0.1795 -0.7071 -0.7071 -0.0000
-0.0275 0.4380 0.1795 -0.9239 -0.3827 -0.0000
-0.0210 0.4284 0.1795 -0.7071 -0.7071 -0.0000
0.0275 0.4380 0.1795 0.9239 -0.3827 -0.0000
0.0210 0.4284 0.1795 0.7071 -0.7071 -0.0000
0.0275 0.4380 0.1795 0.9239 -0.3827 -0.0000
-0.0000 0.4792 0.1795 0.0000 1.0000 -0.0000
0.0114 0.4769 0.1795 0.3827 0.9239 0.0000
-0.0000 0.4792 0.1795 0.0000 1.0000 -0.0000
-0.0298 0.4494 0.1795 -1.0000 -0.0000 0.0000
-0.0275 0.4608 0.1795 -0.9239 0.3827 0.0000
-0.0298 0.4494 0.1795 -1.0000 -0.0000 0.0000
0.0114 0.4219 0.1795 0.3827 -0.9239 -0.0000
-0.0000 0.4196 0.1795 0.0000 -1.0000 -0.0000
0.0114 0.4219 0.1795 0.3827 -0.9239 -0.0000
0.0210 0.4705 0.1795 0.7071 0.7071 0.0000
0.0275 0.4608 0.1795 0.9239 0.3827 0.0000
0.0210 0.4705 0.1795 0.7071 0.7071 0.0000
-0.0210 0.4705 0.1795 -0.7071 0.7071 -0.0000
-0.0114 0.4769 0.1795 -0.3827 0.9239 -0.0000
-0.0210 0.4705 0.1795 -0.7071 0.7071 -0.0000
-0.0114 0.4219 0.1795 -0.3827 -0.9239 -0.0000
-0.0210 0.4284 0.1795 -0.7071 -0.7071 -0.0000
-0.0114 0.4219 0.1795 -0.3827 -0.9239 -0.0000
0.0298 0.4494 0.1795 1.0000 0.0000 0.0000
0.0275 0.4380 0.1795 0.9239 -0.3827 -0.0000
0.0298 0.4494 0.1795 1.0000 0.0000 0.0000
-0.0275 0.4380 0.1795 -0.9239 -0.3827 -0.0000
-0.0298 0.4494 0.1795 -1.0000 -0.0000 0.0000
-0.0275 0.4380 0.1795 -0.9239 -0.3827 -0.0000
0.0210 0.4284 0.1795 0.7071 -0.7071 -0.0000
0.0114 0.4219 0.1795 0.3827 -0.9239 -0.0000
0.0210 0.4284 0.1795 0.7071 -0.7071 -0.0000
0.0114 0.4769 0.1795 0.3827 0.9239 0.0000
0.0210 0.4705 0.1795 0.7071 0.7071 0.0000
0.0114 0.4769 0.1795 0.3827 0.9239 0.0000
-0.0275 0.4608 0.1795 -0.9239 0.3827 0.0000
-0.0210 0.4705 0.1795 -0.7071 0.7071 -0.0000
-0.0275 0.4608 0.1795 -0.9239 0.3827 0.0000
0.0097 0.4727 0.1452 0.3827 0.9239 -0.0008
-0.0000 0.4747 0.1452 0.0000 1.0000 -0.0008
-0.0000 0.4747 0.1452 0.0000 1.0000 -0.0008
0.0179 0.4673 0.1452 0.7071 0.7071 -0.0008
0.0097 0.4727 0.1452 0.3827 0.9239 -0.0008
0.0097 0.4727 0.1452 0.3827 0.9239 -0.0008
0.0233 0.4591 0.1452 0.9239 0.3827 -0.0008
0.0179 0.4673 0.1452 0.7071 0.7071 -0.0008
0.0179 0.4673 0.1452 0.7071 0.7071 -0.0008
0.0252 0.4494 0.1452 1.0000 0.0000 -0.0008
0.0233 0.4591 0.1452 0.9239 0.3827 -0.0008
0.0233 0.4591 0.1452 0.9239 0.3827 -0.0008
0.0233 0.4397 0.1452 0.9239 -0.3827 -0.0008
0.0252 0.4494 0.1452 1.0000 0.0000 -0.0008
0.0252 0.4494 0.1452 1.0000 0.0000 -0.0008
0.0179 0.4316 0.1452 0.7071 -0.7071 -0.0008
0.0233 0.4397 0.1452 0.9239 -0.3827 -0.0008
0.0233 0.4397 0.1452 0.9239 -0.3827 -0.0008
0.0097 0.4261 0.1452 0.3827 -0.9239 -0.0008
0.0179 0.4316 0.1452 0.7071 -0.7071 -0.0008
0.0179 0.4316 0.1452 0.7071 -0.7071 -0.0008
-0.0000 0.4242 0.1452 -0.0000 -1.0000 -0.0008
0.0097 0.4261 0.1452 0.3827 -0.9239 -0.0008
0.0097 0.4261 0.1452 0.3827 -0.9239 -0.0008
-0.0097 0.4261 0.1452 -0.3827 -0.9239 -0.0008
-0.0000 0.4242 0.1452 -0.0000 -1.0000 -0.0008
-0.0000 0.4242 0.1452 -0.0000 -1.0000 -0.0008
-0.0179 0.4316 0.1452 -0.7071 -0.7071 -0.0008
-0.0097 0.4261 0.1452 -0.3827 -0.9239 -0.0008
-0.0097 0.4261 0.1452 -0.3827 -0.9239 -0.0008
-0.0233 0.4397 0.1452 -0.9239 -0.3827 -0.0008
-0.0179 0.4316 0.1452 -0.7071 -0.7071 -0.0008
-0.0179 0.4316 0.1452 -0.7071 -0.7071 -0.0008
-0.0252 0.4494 0.1452 -1.0000 -0.0000 -0.0008
-0.0233 0.4397 0.1452 -0.9239 -0.3827 -0.0008
-0.0233 0.4397 0.1452 -0.9239 -0.3827 -0.0008
-0.0233 0.4591 0.1452 -0.9239 0.3827 -0.0008
-0.0252 0.4494 0.1452 -1.0000 -0.0000 -0.0008
-0.0252 0.4494 0.1452 -1.0000 -0.0000 -0.0008
-0.0179 0.4673 0.1452 -0.7071 0.7071 -0.0008
-0.0233 0.4591 0.1452 -0.9239 0.3827 -0.0008
-0.0233 0.4591 0.1452 -0.9239 0.3827 -0.0008
-0.0097 0.4727 0.1452 -0.3827 0.9239 -0.0008
-0.0179 0.4673 0.1452 -0.7071 0.7071 -0.0008
-0.0179 0.4673 0.1452 -0.7071 0.7071 -0.0008
0.0000 0.4746 0.1030 0.0000 0.9673 -0.2538
-0.0096 0.4727 0.1030 -0.3702 0.8936 -0.2538
-0.0096 0.4727 0.1030 -0.3702 0.8936 -0.2538
-0.0096 0.4727 0.1030 -0.3702 0.8936 -0.2538
-0.0178 0.4672 0.1030 -0.6840 0.6840 -0.2538
-0.0178 0.4672 0.1030 -0.6840 0.6840 -0.2538
-0.0178 0.4672 0.1030 -0.6840 0.6840 -0.2538
-0.0233 0.4591 0.1030 -0.8936 0.3702 -0.2538
-0.0233 0.4591 0.1030 -0.8936 0.3702 -0.2538
-0.0233 0.4591 0.1030 -0.8936 0.3702 -0.2538
-0.0252 0.4494 0.1030 -0.9673 -0.0000 -0.2538
-0.0252 0.4494 0.1030 -0.9673 -0.0000 -0.2538
-0.0252 0.4494 0.1030 -0.9673 -0.0000 -0.2538
-0.0233 0.4398 0.1030 -0.8936 -0.3702 -0.2538
-0.0233 0.4398 0.1030 -0.8936 -0.3702 -0.2538
-0.0233 0.4398 0.1030 -0.8936 -0.3702 -0.2538
-0.0178 0.4316 0.1030 -0.6840 -0.6840 -0.2538
-0.0178 0.4316 0.1030 -0.6840 -0.6840 -0.2538
-0.0178 0.4316 0.1030 -0.6840 -0.6840 -0.2538
-0.0096 0.4261 0.1030 -0.3702 -0.8936 -0.2538
-0.0096 0.4261 0.1030 -0.3702 -0.8936 -0.2538
-0.0096 0.4261 0.1030 -0.3702 -0.8936 -0.2538
0.0000 0.4242 0.1030 0.0000 -0.9673 -0.2538
0.0000 0.4242 0.1030 0.0000 -0.9673 -0.2538
0.0000 0.4242 0.1030 0.0000 -0.9673 -0.2538
0.0096 0.4261 0.1030 0.3702 -0.8936 -0.2538
0.0096 0.4261 0.1030 0.3702 -0.8936 -0.2538
0.0096 0.4261 0.1030 0.3702 -0.8936 -0.2538
0.0178 0.4316 0.1030 0.6840 -0.6840 -0.2538
0.0178 0.4316 0.1030 0.6840 -0.6840 -0.2538
0.0178 0.4316 0.1030 0.6840 -0.6840 -0.2538
0.0233 0.4398 0.1030 0.8936 -0.3702 -0.2538
0.0233 0.4398 0.1030 0.8936 -0.3702 -0.2538
0.0233 0.4398 0.1030 0.8936 -0.3702 -0.2538
0.0252 0.4494 0.1030 0.9673 -0.0000 -0.2538
0.0252 0.4494 0.1030 0.9673 -0.0000 -0.2538
0.0252 0.4494 0.1030 0.9673 -0.0000 -0.2538
0.0233 0.4591 0.1030 0.8936 0.3702 -0.2538
0.0233 0.4591 0.1030 0.8936 0.3702 -0.2538
0.0233 0.4591 0.1030 0.8936 0.3702 -0.2538
0.0178 0.4672 0.1030 0.6840 0.6840 -0.2538
0.0178 0.4672 0.1030 0.6840 0.6840 -0.2538
0.0178 0.4672 0.1030 0.6840 0.6840 -0.2538
0.0096 0.4727 0.1030 0.3702 0.8936 -0.2538
0.0096 0.4727 0.1030 0.3702 0.8936 -0.2538
0.0096 0.4727 0.1030 0.3702 0.8936 -0.2538
0.0000 0.4746 0.1030 0.0000 0.9673 -0.2538
0.0000 0.4746 0.1030 0.0000 0.9673 -0.2538
-0.0000 0.4747 0.1452 0.0000 1.0000 -0.0008
-0.0097 0.4727 0.1452 -0.3827 0.9239 -0.0008
-0.0097 0.4727 0.1452 -0.3827 0.9239 -0.0008
-0.0114 0.4769 0.1938 0.0000 0.0000 1.0000
-0.0114 0.4769 0.1938 0.0000 0.0000 1.0000
-0.0000 0.4792 0.1938 0.0000 0.0000 1.0000
-0.0210 0.4705 0.1938 0.0000 0.0000 1.0000
-0.0210 0.4705 0.1938 0.0000 0.0000 1.0000
-0.0114 0.4769 0.1938 0.0000 0.0000 1.0000
-0.0275 0.4608 0.1938 0.0000 0.0000 1.0000
-0.0275 0.4608 0.1938 0.0000 0.0000 1.0000
-0.0210 0.4705 0.1938 0.0000 0.0000 1.0000
-0.0231 0.4494 0.1938 0.0000 0.0000 1.0000
-0.0298 0.4494 0.1938 0.0000 0.0000 1.0000
-0.0298 0.4494 0.1938 0.0000 0.0000 1.0000
-0.0275 0.4608 0.1938 0.0000 0.0000 1.0000
-0.0231 0.4494 0.1938 0.0000 0.0000 1.0000
-0.0214 0.4406 0.1938 0.0000 -0.0000 1.0000
-0.0275 0.4380 0.1938 0.0000 -0.0000 1.0000
-0.0231 0.4494 0.1938 0.0000 0.0000 1.0000
-0.0275 0.4380 0.1938 0.0000 -0.0000 1.0000
-0.0298 0.4494 0.1938 0.0000 0.0000 1.0000
-0.0214 0.4406 0.1938 0.0000 -0.0000 1.0000
-0.0210 0.4284 0.1938 0.0000 -0.0000 1.0000
-0.0214 0.4406 0.1938 0.0000 -0.0000 1.0000
-0.0210 0.4284 0.1938 0.0000 -0.0000 1.0000
-0.0275 0.4380 0.1938 0.0000 -0.0000 1.0000
-0.0114 0.4219 0.1938 0.0000 -0.0000 1.0000
-0.0114 0.4219 0.1938 0.0000 -0.0000 1.0000
-0.0210 0.4284 0.1938 0.0000 -0.0000 1.0000
-0.0000 0.4196 0.1938 0.0000 0.0000 1.0000
-0.0000 0.4196 0.1938 0.0000 0.0000 1.0000
-0.0114 0.4219 0.1938 0.0000 -0.0000 1.0000
0.0114 0.4219 0.1938 0.0000 -0.0000 1.0000
0.0114 0.4219 0.1938 0.0000 -0.0000 1.0000
-0.0000 0.4196 0.1938 0.0000 0.0000 1.0000
0.0210 0.4284 0.1938 0.0000 -0.0000 1.0000
0.0210 0.4284 0.1938 0.0000 -0.0000 1.0000
0.0114 0.4219 0.1938 0.0000 -0.0000 1.0000
0.0275 0.4380 0.1938 0.0000 -0.0000 1.0000
0.0275 0.4380 0.1938 0.0000 -0.0000 1.0000
0.0210 0.4284 0.1938 0.0000 -0.0000 1.0000
0.0298 0.4494 0.1938 0.0000 0.0000 1.0000
0.0298 0.4494 0.1938 0.0000 0.0000 1.0000
0.0275 0.4380 0.1938 0.0000 -0.0000 1.0000
0.0275 0.4608 0.1938 0.0000 0.0000 1.0000
0.0275 0.4608 0.1938 0.0000 0.0000 1.0000
0.0298 0.4494 0.1938 0.0000 0.0000 1.0000
0.0210 0.4705 0.1938 0.0000 0.0000 1.0000
0.0210 0.4705 0.1938 0.0000 0.0000 1.0000
0.0275 0.4608 0.1938 0.0000 0.0000 1.0000
0.0114 0.4769 0.1938 0.0000 0.0000 1.0000
0.0114 0.4769 0.1938 0.0000 0.0000 1.0000
0.0210 0.4705 0.1938 0.0000 0.0000 1.0000
-0.0000 0.4792 0.1938 0.0000 0.0000 1.0000
-0.0000 0.4792 0.1938 0.0000 0.0000 1.0000
0.0114 0.4769 0.1938 0.0000 0.0000 1.0000
0.0214 0.4583 0.1938 -0.9239 -0.3827 0.0000
0.0231 0.4494 0.1938 -1.0000 -0.0000 0.0000
0.0214 0.4583 0.1938 -0.9239 -0.3827 0.0000
-0.0164 0.4331 0.1938 0.7071 0.7071 -0.0000
-0.0164 0.4331 0.1938 0.7071 0.7071 -0.0000
0.0164 0.4658 0.1938 -0.7071 -0.7071 0.0000
0.0214 0.4583 0.1938 -0.9239 -0.3827 0.0000
0.0164 0.4658 0.1938 -0.7071 -0.7071 0.0000
-0.0088 0.4280 0.1938 0.3827 0.9239 -0.0000
-0.0164 0.4331 0.1938 0.7071 0.7071 -0.0000
-0.0088 0.4280 0.1938 0.3827 0.9239 -0.0000
0.0088 0.4708 0.1938 -0.3827 -0.9239 0.0000
0.0164 0.4658 0.1938 -0.7071 -0.7071 0.0000
0.0088 0.4708 0.1938 -0.3827 -0.9239 0.0000
-0.0000 0.4263 0.1938 0.0000 1.0000 0.0000
-0.0088 0.4280 0.1938 0.3827 0.9239 -0.0000
-0.0000 0.4263 0.1938 0.0000 1.0000 0.0000
-0.0088 0.4708 0.1938 0.3827 -0.9239 0.0000
-0.0000 0.4725 0.1938 0.0000 -1.0000 0.0000
-0.0088 0.4708 0.1938 0.3827 -0.9239 0.0000
-0.0000 0.4725 0.1938 0.0000 -1.0000 0.0000
0.0088 0.4708 0.1938 -0.3827 -0.9239 0.0000
-0.0000 0.4725 0.1938 0.0000 -1.0000 0.0000
0.0088 0.4280 0.1938 -0.3827 0.9239 0.0000
-0.0000 0.4263 0.1938 0.0000 1.0000 0.0000
0.0088 0.4280 0.1938 -0.3827 0.9239 0.0000
-0.0164 0.4658 0.1938 0.7071 -0.7071 0.0000
-0.0088 0.4708 0.1938 0.3827 -0.9239 0.0000
-0.0164 0.4658 0.1938 0.7071 -0.7071 0.0000
0.0164 0.4331 0.1938 -0.7071 0.7071 0.0000
0.0088 0.4280 0.1938 -0.3827 0.9239 0.0000
0.0164 0.4331 0.1938 -0.7071 0.7071 0.0000
-0.0214 0.4583 0.1938 0.9239 -0.3827 0.0000
-0.0164 0.4658 0.1938 0.7071 -0.7071 0.0000
-0.0214 0.4583 0.1938 0.9239 -0.3827 0.0000
0.0214 0.4406 0.1938 -0.9239 0.3827 0.0000
0.0164 0.4331 0.1938 -0.7071 0.7071 0.0000
0.0214 0.4406 0.1938 -0.9239 0.3827 0.0000
-0.0214 0.4583 0.1938 0.9239 -0.3827 0.0000
0.0231 0.4494 0.1938 -1.0000 -0.0000 0.0000
0.0214 0.4406 0.1938 -0.9239 0.3827 0.0000
0.0231 0.4494 0.1938 -1.0000 -0.0000 0.0000
0.0528 0.5037 0.0714 0.7071 0.7071 -0.0000
0.0528 0.5037 -0.1704 0.7071 0.7071 -0.0000
0.0528 0.5037 0.0714 0.7071 0.7071 -0.0000
-0.0528 0.5037 0.0714 -0.2588 0.9659 0.0000
-0.0528 0.5037 -0.1704 -0.2588 0.9659 0.0000
-0.0528 0.5037 0.0714 -0.2588 0.9659 0.0000
0.0538 0.3961 -0.1704 0.0000 -0.0000 -1.0000
0.0541 0.3973 -0.1704 0.0000 -0.0000 -1.0000
0.0541 0.5015 -0.1704 0.0000 -0.0000 -1.0000
0.0541 0.5015 -0.1704 0.0000 -0.0000 -1.0000
0.0538 0.5027 -0.1704 0.0000 -0.0000 -1.0000
0.0528 0.5037 -0.1704 0.0000 -0.0000 -1.0000
0.0528 0.5037 -0.1704 0.0000 -0.0000 -1.0000
0.0516 0.5040 -0.1704 0.0000 -0.0000 -1.0000
-0.0516 0.5040 -0.1704 0.0000 -0.0000 -1.0000
-0.0516 0.5040 -0.1704 0.0000 -0.0000 -1.0000
-0.0528 0.5037 -0.1704 0.0000 -0.0000 -1.0000
-0.0538 0.5027 -0.1704 0.0000 -0.0000 -1.0000
-0.0538 0.5027 -0.1704 0.0000 -0.0000 -1.0000
-0.0541 0.5015 -0.1704 0.0000 -0.0000 -1.0000
-0.0541 0.3973 -0.1704 0.0000 -0.0000 -1.0000
-0.0541 0.3973 -0.1704 0.0000 -0.0000 -1.0000
-0.0538 0.3961 -0.1704 0.0000 -0.0000 -1.0000
-0.0528 0.3951 -0.1704 0.0000 -0.0000 -1.0000
-0.0528 0.3951 -0.1704 0.0000 -0.0000 -1.0000
-0.0516 0.3948 -0.1704 0.0000 -0.0000 -1.0000
0.0516 0.3948 -0.1704 0.0000 -0.0000 -1.0000
0.0516 0.3948 -0.1704 0.0000 -0.0000 -1.0000
0.0528 0.3951 -0.1704 0.0000 -0.0000 -1.0000
0.0538 0.3961 -0.1704 0.0000 -0.0000 -1.0000
0.0538 0.3961 -0.1704 0.0000 -0.0000 -1.0000
0.0541 0.5015 -0.1704 0.0000 -0.0000 -1.0000
0.0528 0.5037 -0.1704 0.0000 -0.0000 -1.0000
0.0528 0.5037 -0.1704 0.0000 -0.0000 -1.0000
-0.0516 0.5040 -0.1704 0.0000 -0.0000 -1.0000
-0.0538 0.5027 -0.1704 0.0000 -0.0000 -1.0000
-0.0538 0.5027 -0.1704 0.0000 -0.0000 -1.0000
-0.0541 0.3973 -0.1704 0.0000 -0.0000 -1.0000
-0.0528 0.3951 -0.1704 0.0000 -0.0000 -1.0000
-0.0528 0.3951 -0.1704 0.0000 -0.0000 -1.0000
0.0516 0.3948 -0.1704 0.0000 -0.0000 -1.0000
0.0538 0.3961 -0.1704 0.0000 -0.0000 -1.0000
0.0538 0.3961 -0.1704 0.0000 -0.0000 -1.0000
0.0528 0.5037 -0.1704 0.0000 -0.0000 -1.0000
-0.0538 0.5027 -0.1704 0.0000 -0.0000 -1.0000
-0.0538 0.5027 -0.1704 0.0000 -0.0000 -1.0000
-0.0528 0.3951 -0.1704 0.0000 -0.0000 -1.0000
0.0538 0.3961 -0.1704 0.0000 -0.0000 -1.0000
0.0541 0.3973 0.0714 -0.0000 0.0000 1.0000
0.0538 0.3961 0.0714 -0.0000 0.0000 1.0000
0.0528 0.3951 0.0714 -0.0000 0.0000 1.0000
0.0528 0.3951 0.0714 -0.0000 0.0000 1.0000
0.0516 0.3948 0.0714 -0.0000 0.0000 1.0000
-0.0516 0.3948 0.0714 -0.0000 0.0000 1.0000
-0.0516 0.3948 0.0714 -0.0000 0.0000 1.0000
-0.0528 0.3951 0.0714 -0.0000 0.0000 1.0000
-0.0538 0.3961 0.0714 -0.0000 0.0000 1.0000
-0.0538 0.3961 0.0714 -0.0000 0.0000 1.0000
-0.0541 0.3973 0.0714 -0.0000 0.0000 1.0000
-0.0541 0.5015 0.0714 -0.0000 0.0000 1.0000
-0.0541 0.5015 0.0714 -0.0000 0.0000 1.0000
-0.0538 0.5027 0.0714 -0.0000 0.0000 1.0000
-0.0528 0.5037 0.0714 -0.0000 0.0000 1.0000
-0.0528 0.5037 0.0714 -0.0000 0.0000 1.0000
-0.0516 0.5040 0.0714 -0.0000 0.0000 1.0000
0.0516 0.5040 0.0714 -0.0000 0.0000 1.0000
0.0516 0.5040 0.0714 -0.0000 0.0000 1.0000
0.0528 0.5037 0.0714 -0.0000 0.0000 1.0000
0.0538 0.5027 0.0714 -0.0000 0.0000 1.0000
0.0538 0.5027 0.0714 -0.0000 0.0000 1.0000
0.0541 0.5015 0.0714 -0.0000 0.0000 1.0000
0.0541 0.3973 0.0714 -0.0000 0.0000 1.0000
0.0541 0.3973 0.0714 -0.0000 0.0000 1.0000
0.0528 0.3951 0.0714 -0.0000 0.0000 1.0000
-0.0516 0.3948 0.0714 -0.0000 0.0000 1.0000
-0.0516 0.3948 0.0714 -0.0000 0.0000 1.0000
-0.0538 0.3961 0.0714 -0.0000 0.0000 1.0000
-0.0541 0.5015 0.0714 -0.0000 0.0000 1.0000
-0.0541 0.5015 0.0714 -0.0000 0.0000 1.0000
-0.0528 0.5037 0.0714 -0.0000 0.0000 1.0000
0.0516 0.5040 0.0714 -0.0000 0.0000 1.0000
0.0516 0.5040 0.0714 -0.0000 0.0000 1.0000
0.0538 0.5027 0.0714 -0.0000 0.0000 1.0000
0.0541 0.3973 0.0714 -0.0000 0.0000 1.0000
0.0541 0.3973 0.0714 -0.0000 0.0000 1.0000
-0.0516 0.3948 0.0714 -0.0000 0.0000 1.0000
-0.0541 0.5015 0.0714 -0.0000 0.0000 1.0000
-0.0541 0.5015 0.0714 -0.0000 0.0000 1.0000
0.0516 0.5040 0.0714 -0.0000 0.0000 1.0000
0.0541 0.3973 0.0714 -0.0000 0.0000 1.0000
0.0369 0.4863 0.0809 1.0000 -0.0000 0.0000
0.0369 0.5040 0.0809 1.0000 -0.0000 0.0000
0.0369 0.4863 0.0809 1.0000 -0.0000 0.0000
0.0369 0.3608 0.0809 1.0000 -0.0000 0.0000
0.0369 0.4125 0.0809 1.0000 -0.0000 0.0000
0.0369 0.3608 0.0809 1.0000 -0.0000 0.0000
-0.0369 0.4125 0.0809 -1.0000 0.0000 -0.0000
-0.0369 0.3608 0.0809 -1.0000 0.0000 -0.0000
-0.0369 0.4125 0.0809 -1.0000 0.0000 -0.0000
0.0482 0.4694 0.0809 0.9239 0.3827 0.0000
0.0369 0.4863 0.0809 0.8315 0.5556 0.0000
0.0369 0.4863 0.0684 0.8315 0.5556 0.0000
0.0482 0.4694 0.0809 0.9239 0.3827 0.0000
0.0369 0.4863 0.0684 0.8315 0.5556 0.0000
-0.0482 0.4294 0.0809 -0.9239 -0.3827 -0.0000
-0.0369 0.4125 0.0809 -0.8315 -0.5556 -0.0000
-0.0369 0.4125 0.0684 -0.8315 -0.5556 -0.0000
-0.0482 0.4294 0.0809 -0.9239 -0.3827 -0.0000
-0.0369 0.4125 0.0684 -0.8315 -0.5556 -0.0000
0.0522 0.4494 0.0809 1.0000 0.0000 0.0000
0.0482 0.4694 0.0809 0.9239 0.3827 0.0000
0.0522 0.4494 0.0809 1.0000 0.0000 0.0000
-0.0522 0.4494 0.0809 -1.0000 0.0000 -0.0000
-0.0482 0.4294 0.0809 -0.9239 -0.3827 -0.0000
-0.0522 0.4494 0.0809 -1.0000 0.0000 -0.0000
0.0482 0.4294 0.0809 0.9239 -0.3827 0.0000
0.0522 0.4494 0.0809 1.0000 0.0000 0.0000
0.0482 0.4294 0.0809 0.9239 -0.3827 0.0000
-0.0482 0.4694 0.0809 -0.9239 0.3827 -0.0000
-0.0522 0.4494 0.0809 -1.0000 0.0000 -0.0000
-0.0482 0.4694 0.0809 -0.9239 0.3827 -0.0000
0.0369 0.4125 0.0809 0.8315 -0.5556 0.0000
0.0482 0.4294 0.0809 0.9239 -0.3827 0.0000
0.0369 0.4125 0.0809 0.8315 -0.5556 0.0000
0.0369 0.4125 0.0684 0.8315 -0.5556 0.0000
-0.0369 0.4863 0.0809 -0.8315 0.5556 -0.0000
-0.0482 0.4694 0.0809 -0.9239 0.3827 -0.0000
-0.0369 0.4863 0.0809 -0.8315 0.5556 -0.0000
0.0369 0.5040 0.0809 -0.0000 1.0000 0.0000
-0.0369 0.5040 0.0809 -0.0000 1.0000 0.0000
0.0369 0.5040 0.0809 -0.0000 1.0000 0.0000
0.0369 0.5040 0.0714 -0.0000 1.0000 0.0000
-0.0369 0.5040 0.0809 -1.0000 0.0000 -0.0000
-0.0369 0.4863 0.0809 -1.0000 0.0000 -0.0000
-0.0369 0.4863 0.0684 -1.0000 0.0000 -0.0000
-0.0369 0.5040 0.0809 -1.0000 0.0000 -0.0000
-0.0369 0.4863 0.0684 -1.0000 0.0000 -0.0000
-0.0369 0.5040 0.0714 -1.0000 0.0000 -0.0000
-0.0369 0.3608 0.0809 0.0000 -1.0000 0.0000
0.0369 0.3608 0.0809 0.0000 -1.0000 0.0000
0.0369 0.3608 0.0664 0.0000 -1.0000 0.0000
-0.0369 0.3608 0.0809 0.0000 -1.0000 0.0000
0.0369 0.3608 0.0664 0.0000 -1.0000 0.0000
-0.0369 0.3608 0.0664 0.0000 -1.0000 0.0000
48 3 1
48 49 3
49 5 3
49 50 5
50 7 5
50 51 7
51 9 7
51 52 9
52 11 9
52 53 11
53 13 11
53 54 13
54 15 13
54 55 15
55 17 15
55 56 17
56 19 17
56 57 19
57 21 19
57 58 21
58 23 21
58 59 23
59 25 23
59 60 25
60 27 25
60 61 27
268 87 269
270 88 87
61 29 27
61 62 29
62 31 29
62 63 31
37 100 36
37 101 100
271 81 272
273 80 81
274 92 275
276 93 92
277 85 278
279 86 85
280 90 281
282 91 90
283 95 284
285 81 95
286 83 287
288 84 83
289 88 290
291 89 88
292 93 293
294 94 93
295 80 296
297 82 80
298 86 299
300 87 86
301 91 302
303 92 91
304 84 305
306 85 84
307 89 308
309 90 89
310 94 311
312 95 94
313 82 314
315 83 82
63 1 31
63 48 1
78 317 316
78 79 318
77 320 319
77 78 321
76 323 322
76 77 324
75 326 325
75 76 327
74 329 328
74 75 330
73 332 331
73 74 333
72 335 334
72 73 336
71 338 337
71 72 339
70 341 340
70 71 342
69 344 343
69 70 345
68 347 346
68 69 348
67 350 349
67 68 351
66 353 352
66 67 354
65 356 355
65 66 357
64 359 358
64 65 360
0 362 361
0 2 363
2 365 364
2 4 366
4 368 367
4 6 369
6 371 370
6 8 372
8 374 373
8 10 375
10 377 376
10 12 378
12 380 379
12 14 381
14 383 382
14 16 384
16 386 385
16 18 387
18 389 388
18 20 390
20 392 391
20 22 393
22 395 394
22 24 396
24 398 397
24 26 399
26 401 400
26 28 402
28 404 403
28 30 405
30 407 406
30 0 408
79 410 409
79 64 411
33 412 32
33 414 413
32 415 34
32 417 416
34 418 35
34 420 419
35 422 421
35 424 423
425 427 426
428 430 429
431 432 38
433 435 434
38 436 39
38 438 437
39 439 40
39 441 440
40 442 41
40 444 443
41 445 42
41 447 446
42 448 43
42 450 449
43 451 44
43 453 452
44 454 45
44 456 455
45 457 46
45 459 458
46 460 47
46 462 461
47 463 33
47 465 464
466 108 467
468 109 108
469 101 37
470 102 101
471 109 472
473 110 109
474 102 475
476 103 102
477 110 478
479 111 110
480 103 481
482 104 103
483 97 484
485 96 97
486 111 487
488 97 111
489 104 490
491 105 104
492 96 493
494 98 96
495 105 496
497 106 105
498 98 499
500 99 98
501 106 502
503 107 106
36 99 504
36 100 99
505 107 506
507 108 107
125 137 120
125 140 137
117 121 112
117 124 121
132 136 141
132 129 136
112 119 117
112 114 119
114 118 119
114 115 118
115 116 118
115 113 116
120 127 125
120 122 127
508 126 509
510 123 126
123 124 126
123 121 124
128 135 133
128 130 135
130 134 135
130 131 134
131 132 134
131 129 132
136 143 141
136 138 143
138 142 143
138 139 142
511 140 512
513 137 140
113 133 116
113 128 133
514 516 515
517 519 518
520 522 521
523 525 524
526 528 527
529 531 530
532 534 533
535 537 536
538 540 539
541 543 542
544 546 545
547 549 548
550 552 551
553 555 554
556 558 557
559 561 560
562 564 563
565 567 566
568 570 569
571 573 572
574 576 575
577 579 578
580 582 581
583 585 584
586 588 587
589 591 590
592 594 593
595 597 596
182 206 145
182 217 206
158 230 169
158 193 230
157 181 146
157 170 181
168 216 180
168 228 216
194 218 229
194 205 218
144 149 147
144 148 149
147 152 151
147 149 152
145 152 150
145 151 152
150 155 154
150 152 155
146 155 153
146 154 155
153 149 148
153 155 149
149 155 152
156 161 159
156 160 161
159 164 163
159 161 164
157 164 162
157 163 164
162 167 166
162 164 167
158 167 165
158 166 167
165 161 160
165 167 161
161 167 164
168 173 171
168 172 173
171 176 175
171 173 176
169 176 174
169 175 176
174 179 178
174 176 179
170 179 177
170 178 179
177 173 172
177 179 173
173 179 176
180 185 183
180 184 185
183 188 187
183 185 188
181 188 186
181 187 188
186 191 190
186 188 191
182 191 189
182 190 191
189 185 184
189 191 185
185 191 188
192 197 195
192 196 197
195 200 199
195 197 200
193 200 198
193 199 200
198 203 202
198 200 203
194 203 201
194 202 203
201 197 196
201 203 197
197 203 200
204 209 207
204 208 209
207 212 211
207 209 212
205 212 210
205 211 212
210 215 214
210 212 215
206 215 213
206 214 215
213 209 208
213 215 209
209 215 212
216 221 219
216 220 221
219 224 223
219 221 224
217 224 222
217 223 224
222 227 226
222 224 227
218 227 225
218 226 227
225 221 220
225 227 221
221 227 224
228 233 231
228 232 233
231 236 235
231 233 236
229 236 234
229 235 236
234 239 238
234 236 239
230 239 237
230 238 239
237 233 232
237 239 233
233 239 236
146 163 157
146 153 163
153 159 163
153 148 159
148 156 159
148 144 156
180 172 168
180 183 172
183 177 172
183 187 177
187 170 177
187 181 170
145 190 182
145 150 190
150 186 190
150 154 186
154 181 186
154 146 181
157 178 170
157 162 178
162 174 178
162 166 174
166 169 174
166 158 169
204 196 192
204 207 196
207 201 196
207 211 201
211 194 201
211 205 194
218 235 229
218 225 235
225 231 235
225 220 231
220 228 231
220 216 228
205 226 218
205 210 226
210 222 226
210 214 222
214 217 222
214 206 217
193 238 230
193 198 238
198 234 238
198 202 234
202 229 234
202 194 229
144 208 204
144 147 208
147 213 208
147 151 213
151 206 213
151 145 206
216 184 180
216 219 184
219 189 184
219 223 189
223 182 189
223 217 182
158 199 193
158 165 199
165 195 199
165 160 195
160 192 195
160 156 192
168 232 228
168 171 232
171 237 232
171 175 237
175 230 237
175 169 230
144 192 156
144 204 192
242 244 243
244 246 245
246 249 255
250 252 251
246 250 249
242 246 244
247 242 248
252 254 253
254 242 247
242 250 246
250 254 252
250 242 254
598 260 599
600 240 260
601 258 602
603 262 258
604 261 605
606 263 261
607 609 608
610 241 611
612 614 613
615 264 616
617 241 618
619 256 241
620 264 621
622 265 264
623 256 624
625 257 256
626 265 627
628 266 265
629 257 630
631 632 257
633 266 634
635 267 266
636 259 637
638 639 259
640 642 641
643 645 644
646 648 647
649 651 650
MATERIALS 3
MESA_Camera_Body
ALSEP_Black
ALSEP_White
MATERIAL MESA_Camera_Body
0.438 0.438 0.438 1.000
0.438 0.438 0.438 1.000
0.438 0.438 0.438 1.000 0.000
0.000 0.000 0.000 1.000
MATERIAL ALSEP_Black
0.012 0.012 0.012 1.000
0.200 0.200 0.200 1.000
0.200 0.200 0.200 1.000 0.000
0.000 0.000 0.000 1.000
MATERIAL ALSEP_White
0.800 0.800 0.800 1.000
1.000 1.000 1.000 1.000
1.000 1.000 1.000 1.000 0.000
0.000 0.000 0.000 1.000
TEXTURES 0
