MSHX1
GROUPS 8
LABEL CentralStation_Antenna
MATERIAL 1
TEXTURE 1
FLAG 0
GEOM 223 88
-0.2287 0.5974 -0.1978 0.0000 0.0000 1.0000 0.1259 0.2344
-0.2287 0.6482 -0.1978 0.0000 0.0000 1.0000 0.1259 0.0000
-0.2044 0.5974 -0.2026 0.3827 0.0000 0.9239 0.0010 0.2344
-0.2044 0.6482 -0.2026 0.3827 0.0000 0.9239 0.0010 0.0000
-0.1838 0.5974 -0.2164 0.7071 0.0000 0.7071 0.0010 0.2344
-0.1838 0.6482 -0.2164 0.7071 0.0000 0.7071 0.0010 0.0000
-0.1700 0.5974 -0.2370 0.9239 0.0000 0.3827 0.0010 0.2344
-0.1700 0.6482 -0.2370 0.9239 0.0000 0.3827 0.0010 0.0000
-0.1652 0.5974 -0.2613 1.0000 0.0000 0.0000 0.0010 0.2344
-0.1652 0.6482 -0.2613 1.0000 0.0000 0.0000 0.0010 0.0000
-0.1700 0.5974 -0.2856 0.9239 0.0000 -0.3827 0.0010 0.2344
-0.1700 0.6482 -0.2856 0.9239 0.0000 -0.3827 0.0010 0.0000
-0.1838 0.5974 -0.3062 0.7071 0.0000 -0.7071 0.0010 0.2344
-0.1838 0.6482 -0.3062 0.7071 0.0000 -0.7071 0.0010 0.0000
-0.2044 0.5974 -0.3199 0.3827 0.0000 -0.9239 0.0010 0.2344
-0.2044 0.6482 -0.3199 0.3827 0.0000 -0.9239 0.0010 0.0000
-0.2287 0.5974 -0.3248 0.0000 0.0000 -1.0000 0.0010 0.2344
-0.2287 0.6482 -0.3248 0.0000 0.0000 -1.0000 0.0010 0.0000
-0.2530 0.5974 -0.3199 -0.3827 0.0000 -0.9239 0.0010 0.2344
-0.2530 0.6482 -0.3199 -0.3827 0.0000 -0.9239 0.0010 0.0000
-0.2736 0.5974 -0.3062 -0.7071 0.0000 -0.7071 0.0010 0.2344
-0.2736 0.6482 -0.3062 -0.7071 0.0000 -0.7071 0.0010 0.0000
-0.2874 0.5974 -0.2856 -0.9239 0.0000 -0.3827 0.0010 0.2344
-0.2874 0.6482 -0.2856 -0.9239 0.0000 -0.3827 0.0010 0.0000
-0.2922 0.5974 -0.2613 -1.0000 0.0000 0.0000 0.0010 0.2344
-0.2922 0.6482 -0.2613 -1.0000 0.0000 0.0000 0.0010 0.0000
-0.2874 0.5974 -0.2370 -0.9239 0.0000 0.3827 0.0010 0.2344
-0.2874 0.6482 -0.2370 -0.9239 0.0000 0.3827 0.0010 0.0000
-0.2736 0.5974 -0.2164 -0.7071 0.0000 0.7071 0.0010 0.2344
-0.2736 0.6482 -0.2164 -0.7071 0.0000 0.7071 0.0010 0.0000
-0.2530 0.5974 -0.2026 -0.3827 0.0000 0.9239 0.0010 0.2344
-0.2530 0.6482 -0.2026 0.0000 1.0000 0.0000 0.0301 0.1262
-0.2287 1.1308 -0.2422 -0.0000 1.0000 0.0000 0.0254 0.1185
-0.2152 1.1308 -0.2478 -0.0000 1.0000 0.0000 0.0228 0.1175
-0.2096 1.1308 -0.2613 -0.0000 1.0000 0.0000 0.0217 0.1149
-0.2152 1.1308 -0.2747 -0.0000 1.0000 0.0000 0.0228 0.1123
-0.2287 1.1308 -0.2803 -0.0000 1.0000 0.0000 0.0254 0.1112
-0.2422 1.1308 -0.2747 -0.0000 1.0000 0.0000 0.0280 0.1123
-0.2477 1.1308 -0.2613 -0.0000 1.0000 0.0000 0.0291 0.1149
-0.2422 1.1308 -0.2478 -0.0000 1.0000 0.0000 0.0280 0.1175
-0.2152 0.5412 -0.2478 0.7071 0.0000 0.7071 0.0228 0.1175
-0.2096 0.5412 -0.2613 1.0000 0.0000 0.0000 0.0217 0.1149
-0.2152 0.5412 -0.2747 0.7071 0.0000 -0.7071 0.0228 0.1123
-0.2287 0.5412 -0.2422 0.0000 0.0000 1.0000 0.0254 0.1185
-0.2287 0.5412 -0.2803 0.0000 0.0000 -1.0000 0.0254 0.1112
-0.2422 0.5412 -0.2747 -0.7071 0.0000 -0.7071 0.0280 0.1123
-0.2477 0.5412 -0.2613 -1.0000 0.0000 0.0000 0.0291 0.1149
-0.2422 0.5412 -0.2478 -0.7071 0.0000 0.7071 0.0280 0.1175
-0.2044 0.5974 -0.2026 0.3827 0.0000 0.9239 0.1259 0.2344
-0.2044 0.6482 -0.2026 0.3827 0.0000 0.9239 0.1259 0.0000
-0.2044 0.5974 -0.2026 0.3827 0.0000 0.9239 0.1259 0.2344
-0.1838 0.5974 -0.2164 0.7071 0.0000 0.7071 0.1259 0.2344
-0.1838 0.6482 -0.2164 0.7071 0.0000 0.7071 0.1259 0.0000
-0.1838 0.5974 -0.2164 0.7071 0.0000 0.7071 0.1259 0.2344
-0.1700 0.5974 -0.2370 0.9239 0.0000 0.3827 0.1259 0.2344
-0.1700 0.6482 -0.2370 0.9239 0.0000 0.3827 0.1259 0.0000
-0.1700 0.5974 -0.2370 0.9239 0.0000 0.3827 0.1259 0.2344
-0.1652 0.5974 -0.2613 1.0000 0.0000 0.0000 0.1259 0.2344
-0.1652 0.6482 -0.2613 1.0000 0.0000 0.0000 0.1259 0.0000
-0.1652 0.5974 -0.2613 1.0000 0.0000 0.0000 0.1259 0.2344
-0.1700 0.5974 -0.2856 0.9239 0.0000 -0.3827 0.1259 0.2344
-0.1700 0.6482 -0.2856 0.9239 0.0000 -0.3827 0.1259 0.0000
-0.1700 0.5974 -0.2856 0.9239 0.0000 -0.3827 0.1259 0.2344
-0.1838 0.5974 -0.3062 0.7071 0.0000 -0.7071 0.1259 0.2344
-0.1838 0.6482 -0.3062 0.7071 0.0000 -0.7071 0.1259 0.0000
-0.1838 0.5974 -0.3062 0.7071 0.0000 -0.7071 0.1259 0.2344
-0.2044 0.5974 -0.3199 0.3827 0.0000 -0.9239 0.1259 0.2344
-0.2044 0.6482 -0.3199 0.3827 0.0000 -0.9239 0.1259 0.0000
-0.2044 0.5974 -0.3199 0.3827 0.0000 -0.9239 0.1259 0.2344
-0.2287 0.5974 -0.3248 0.0000 0.0000 -1.0000 0.1259 0.2344
-0.2287 0.6482 -0.3248 0.0000 0.0000 -1.0000 0.1259 0.0000
-0.2287 0.5974 -0.3248 0.0000 0.0000 -1.0000 0.1259 0.2344
-0.2530 0.5974 -0.3199 -0.3827 0.0000 -0.9239 0.1259 0.2344
-0.2530 0.6482 -0.3199 -0.3827 0.0000 -0.9239 0.1259 0.0000
-0.2530 0.5974 -0.3199 -0.3827 0.0000 -0.9239 0.1259 0.2344
-0.2736 0.5974 -0.3062 -0.7071 0.0000 -0.7071 0.1259 0.2344
-0.2736 0.6482 -0.3062 -0.7071 0.0000 -0.7071 0.1259 0.0000
-0.2736 0.5974 -0.3062 -0.7071 0.0000 -0.7071 0.1259 0.2344
-0.2874 0.5974 -0.2856 -0.9239 0.0000 -0.3827 0.1259 0.2344
-0.2874 0.6482 -0.2856 -0.9239 0.0000 -0.3827 0.1259 0.0000
-0.2874 0.5974 -0.2856 -0.9239 0.0000 -0.3827 0.1259 0.2344
-0.2922 0.5974 -0.2613 -1.0000 0.0000 0.0000 0.1259 0.2344
-0.2922 0.6482 -0.2613 -1.0000 0.0000 0.0000 0.1259 0.0000
-0.2922 0.5974 -0.2613 -1.0000 0.0000 0.0000 0.1259 0.2344
-0.2874 0.5974 -0.2370 -0.9239 0.0000 0.3827 0.1259 0.2344
-0.2874 0.6482 -0.2370 -0.9239 0.0000 0.3827 0.1259 0.0000
-0.2874 0.5974 -0.2370 -0.9239 0.0000 0.3827 0.1259 0.2344
-0.1838 0.6482 -0.2164 0.0000 1.0000 0.0000 0.0168 0.1235
-0.2044 0.6482 -0.2026 0.0000 1.0000 0.0000 0.0207 0.1262
-0.2287 0.6482 -0.1978 0.0000 1.0000 0.0000 0.0254 0.1271
-0.2287 0.6482 -0.1978 0.0000 1.0000 0.0000 0.0254 0.1271
-0.2736 0.6482 -0.2164 0.0000 1.0000 0.0000 0.0341 0.1235
-0.2736 0.6482 -0.2164 0.0000 1.0000 0.0000 0.0341 0.1235
-0.2874 0.6482 -0.2370 0.0000 1.0000 0.0000 0.0367 0.1195
-0.2922 0.6482 -0.2613 0.0000 1.0000 0.0000 0.0376 0.1149
-0.2922 0.6482 -0.2613 0.0000 1.0000 0.0000 0.0376 0.1149
-0.2874 0.6482 -0.2856 0.0000 1.0000 0.0000 0.0367 0.1102
-0.2736 0.6482 -0.3062 0.0000 1.0000 0.0000 0.0341 0.1062
-0.2736 0.6482 -0.3062 0.0000 1.0000 0.0000 0.0341 0.1062
-0.2530 0.6482 -0.3199 0.0000 1.0000 0.0000 0.0301 0.1036
-0.2287 0.6482 -0.3248 0.0000 1.0000 0.0000 0.0254 0.1026
-0.2287 0.6482 -0.3248 0.0000 1.0000 0.0000 0.0254 0.1026
-0.2044 0.6482 -0.3199 0.0000 1.0000 0.0000 0.0207 0.1036
-0.1838 0.6482 -0.3062 0.0000 1.0000 0.0000 0.0168 0.1062
-0.1838 0.6482 -0.3062 0.0000 1.0000 0.0000 0.0168 0.1062
-0.1700 0.6482 -0.2856 0.0000 1.0000 0.0000 0.0141 0.1102
-0.1652 0.6482 -0.2613 0.0000 1.0000 0.0000 0.0132 0.1149
-0.1652 0.6482 -0.2613 0.0000 1.0000 0.0000 0.0132 0.1149
-0.1700 0.6482 -0.2370 0.0000 1.0000 0.0000 0.0141 0.1195
-0.1838 0.6482 -0.2164 0.0000 1.0000 0.0000 0.0168 0.1235
-0.1838 0.6482 -0.2164 0.0000 1.0000 0.0000 0.0168 0.1235
-0.2287 0.6482 -0.1978 0.0000 1.0000 0.0000 0.0254 0.1271
-0.2736 0.6482 -0.2164 0.0000 1.0000 0.0000 0.0341 0.1235
-0.2736 0.6482 -0.2164 0.0000 1.0000 0.0000 0.0341 0.1235
-0.2922 0.6482 -0.2613 0.0000 1.0000 0.0000 0.0376 0.1149
-0.2736 0.6482 -0.3062 0.0000 1.0000 0.0000 0.0341 0.1062
-0.2736 0.6482 -0.3062 0.0000 1.0000 0.0000 0.0341 0.1062
-0.2287 0.6482 -0.3248 0.0000 1.0000 0.0000 0.0254 0.1026
-0.1838 0.6482 -0.3062 0.0000 1.0000 0.0000 0.0168 0.1062
-0.1838 0.6482 -0.3062 0.0000 1.0000 0.0000 0.0168 0.1062
-0.1652 0.6482 -0.2613 0.0000 1.0000 0.0000 0.0132 0.1149
-0.1838 0.6482 -0.2164 0.0000 1.0000 0.0000 0.0168 0.1235
-0.1838 0.6482 -0.2164 0.0000 1.0000 0.0000 0.0168 0.1235
-0.2736 0.6482 -0.2164 0.0000 1.0000 0.0000 0.0341 0.1235
-0.2736 0.6482 -0.3062 0.0000 1.0000 0.0000 0.0341 0.1062
-0.2736 0.6482 -0.3062 0.0000 1.0000 0.0000 0.0341 0.1062
-0.1838 0.6482 -0.3062 0.0000 1.0000 0.0000 0.0168 0.1062
-0.1838 0.6482 -0.2164 0.0000 1.0000 0.0000 0.0168 0.1235
-0.2736 0.5974 -0.2164 -0.7071 0.0000 0.7071 0.1259 0.2344
-0.2736 0.6482 -0.2164 -0.7071 0.0000 0.7071 0.1259 0.0000
-0.2530 0.6482 -0.2026 -0.3827 0.0000 0.9239 0.0010 0.0000
-0.2736 0.5974 -0.2164 -0.7071 0.0000 0.7071 0.1259 0.2344
-0.2530 0.6482 -0.2026 -0.3827 0.0000 0.9239 0.0010 0.0000
-0.2530 0.5974 -0.2026 -0.3827 0.0000 0.9239 0.1259 0.2344
-0.2530 0.6482 -0.2026 -0.3827 0.0000 0.9239 0.1259 0.0000
-0.2287 0.6482 -0.1978 0.0000 0.0000 1.0000 0.0010 0.0000
-0.2530 0.5974 -0.2026 -0.3827 0.0000 0.9239 0.1259 0.2344
-0.2287 0.6482 -0.1978 0.0000 0.0000 1.0000 0.0010 0.0000
-0.2287 0.5974 -0.1978 0.0000 0.0000 1.0000 0.0010 0.2344
-0.2287 1.1308 -0.2422 0.0000 0.0000 1.0000 0.0254 0.1185
-0.2287 1.1308 -0.2422 0.0000 0.0000 1.0000 0.0254 0.1185
-0.2152 1.1308 -0.2478 0.7071 0.0000 0.7071 0.0228 0.1175
-0.2477 1.1308 -0.2613 -1.0000 0.0000 0.0000 0.0291 0.1149
-0.2477 1.1308 -0.2613 -1.0000 0.0000 0.0000 0.0291 0.1149
-0.2422 1.1308 -0.2478 -0.7071 0.0000 0.7071 0.0280 0.1175
-0.2287 1.1308 -0.2803 0.0000 0.0000 -1.0000 0.0254 0.1112
-0.2287 1.1308 -0.2803 0.0000 0.0000 -1.0000 0.0254 0.1112
-0.2422 1.1308 -0.2747 -0.7071 0.0000 -0.7071 0.0280 0.1123
-0.2152 1.1308 -0.2478 0.7071 0.0000 0.7071 0.0228 0.1175
-0.2152 1.1308 -0.2478 0.7071 0.0000 0.7071 0.0228 0.1175
-0.2096 1.1308 -0.2613 1.0000 0.0000 0.0000 0.0217 0.1149
-0.2422 1.1308 -0.2478 -0.7071 0.0000 0.7071 0.0280 0.1175
-0.2422 1.1308 -0.2478 -0.7071 0.0000 0.7071 0.0280 0.1175
-0.2287 1.1308 -0.2422 0.0000 0.0000 1.0000 0.0254 0.1185
-0.2422 1.1308 -0.2747 -0.7071 0.0000 -0.7071 0.0280 0.1123
-0.2422 1.1308 -0.2747 -0.7071 0.0000 -0.7071 0.0280 0.1123
-0.2477 1.1308 -0.2613 -1.0000 0.0000 0.0000 0.0291 0.1149
-0.2096 1.1308 -0.2613 1.0000 0.0000 0.0000 0.0217 0.1149
-0.2096 1.1308 -0.2613 1.0000 0.0000 0.0000 0.0217 0.1149
-0.2152 1.1308 -0.2747 0.7071 0.0000 -0.7071 0.0228 0.1123
-0.2152 1.1308 -0.2747 0.7071 0.0000 -0.7071 0.0228 0.1123
-0.2152 1.1308 -0.2747 0.7071 0.0000 -0.7071 0.0228 0.1123
-0.2287 1.1308 -0.2803 0.0000 0.0000 -1.0000 0.0254 0.1112
-0.2530 0.5974 -0.2026 0.0000 -1.0000 0.0000 0.0301 0.1262
-0.2287 0.5974 -0.1978 0.0000 -1.0000 0.0000 0.0254 0.1271
-0.2044 0.5974 -0.2026 0.0000 -1.0000 0.0000 0.0207 0.1262
-0.2044 0.5974 -0.2026 0.0000 -1.0000 0.0000 0.0207 0.1262
-0.1838 0.5974 -0.2164 0.0000 -1.0000 0.0000 0.0168 0.1235
-0.1700 0.5974 -0.2370 0.0000 -1.0000 0.0000 0.0141 0.1195
-0.1700 0.5974 -0.2370 0.0000 -1.0000 0.0000 0.0141 0.1195
-0.1652 0.5974 -0.2613 0.0000 -1.0000 0.0000 0.0132 0.1149
-0.1700 0.5974 -0.2856 0.0000 -1.0000 0.0000 0.0141 0.1102
-0.1700 0.5974 -0.2856 0.0000 -1.0000 0.0000 0.0141 0.1102
-0.1838 0.5974 -0.3062 0.0000 -1.0000 0.0000 0.0168 0.1062
-0.2044 0.5974 -0.3199 0.0000 -1.0000 0.0000 0.0207 0.1036
-0.2044 0.5974 -0.3199 0.0000 -1.0000 0.0000 0.0207 0.1036
-0.2287 0.5974 -0.3248 0.0000 -1.0000 0.0000 0.0254 0.1026
-0.2530 0.5974 -0.3199 0.0000 -1.0000 0.0000 0.0301 0.1036
-0.2530 0.5974 -0.3199 0.0000 -1.0000 0.0000 0.0301 0.1036
-0.2736 0.5974 -0.3062 0.0000 -1.0000 0.0000 0.0341 0.1062
-0.2874 0.5974 -0.2856 0.0000 -1.0000 0.0000 0.0367 0.1102
-0.2874 0.5974 -0.2856 0.0000 -1.0000 0.0000 0.0367 0.1102
-0.2922 0.5974 -0.2613 0.0000 -1.0000 0.0000 0.0376 0.1149
-0.2874 0.5974 -0.2370 0.0000 -1.0000 0.0000 0.0367 0.1195
-0.2874 0.5974 -0.2370 0.0000 -1.0000 0.0000 0.0367 0.1195
-0.2736 0.5974 -0.2164 0.0000 -1.0000 0.0000 0.0341 0.1235
-0.2530 0.5974 -0.2026 0.0000 -1.0000 0.0000 0.0301 0.1262
-0.2530 0.5974 -0.2026 0.0000 -1.0000 0.0000 0.0301 0.1262
-0.2044 0.5974 -0.2026 0.0000 -1.0000 0.0000 0.0207 0.1262
-0.1700 0.5974 -0.2370 0.0000 -1.0000 0.0000 0.0141 0.1195
-0.1700 0.5974 -0.2370 0.0000 -1.0000 0.0000 0.0141 0.1195
-0.1700 0.5974 -0.2856 0.0000 -1.0000 0.0000 0.0141 0.1102
-0.2044 0.5974 -0.3199 0.0000 -1.0000 0.0000 0.0207 0.1036
-0.2044 0.5974 -0.3199 0.0000 -1.0000 0.0000 0.0207 0.1036
-0.2530 0.5974 -0.3199 0.0000 -1.0000 0.0000 0.0301 0.1036
-0.2874 0.5974 -0.2856 0.0000 -1.0000 0.0000 0.0367 0.1102
-0.2874 0.5974 -0.2856 0.0000 -1.0000 0.0000 0.0367 0.1102
-0.2874 0.5974 -0.2370 0.0000 -1.0000 0.0000 0.0367 0.1195
-0.2530 0.5974 -0.2026 0.0000 -1.0000 0.0000 0.0301 0.1262
-0.2530 0.5974 -0.2026 0.0000 -1.0000 0.0000 0.0301 0.1262
-0.1700 0.5974 -0.2370 0.0000 -1.0000 0.0000 0.0141 0.1195
-0.2044 0.5974 -0.3199 0.0000 -1.0000 0.0000 0.0207 0.1036
-0.2044 0.5974 -0.3199 0.0000 -1.0000 0.0000 0.0207 0.1036
-0.2874 0.5974 -0.2856 0.0000 -1.0000 0.0000 0.0367 0.1102
-0.2530 0.5974 -0.2026 0.0000 -1.0000 0.0000 0.0301 0.1262
-0.2287 0.5412 -0.2422 0.0000 -1.0000 0.0000 0.0254 0.1185
-0.2152 0.5412 -0.2478 0.0000 -1.0000 0.0000 0.0228 0.1175
-0.2096 0.5412 -0.2613 0.0000 -1.0000 0.0000 0.0217 0.1149
-0.2096 0.5412 -0.2613 0.0000 -1.0000 0.0000 0.0217 0.1149
-0.2152 0.5412 -0.2747 0.0000 -1.0000 0.0000 0.0228 0.1123
-0.2287 0.5412 -0.2803 0.0000 -1.0000 0.0000 0.0254 0.1112
-0.2287 0.5412 -0.2803 0.0000 -1.0000 0.0000 0.0254 0.1112
-0.2422 0.5412 -0.2747 0.0000 -1.0000 0.0000 0.0280 0.1123
-0.2477 0.5412 -0.2613 0.0000 -1.0000 0.0000 0.0291 0.1149
-0.2477 0.5412 -0.2613 0.0000 -1.0000 0.0000 0.0291 0.1149
-0.2422 0.5412 -0.2478 0.0000 -1.0000 0.0000 0.0280 0.1175
-0.2287 0.5412 -0.2422 0.0000 -1.0000 0.0000 0.0254 0.1185
-0.2287 0.5412 -0.2422 0.0000 -1.0000 0.0000 0.0254 0.1185
-0.2096 0.5412 -0.2613 0.0000 -1.0000 0.0000 0.0217 0.1149
-0.2287 0.5412 -0.2803 0.0000 -1.0000 0.0000 0.0254 0.1112
-0.2287 0.5412 -0.2803 0.0000 -1.0000 0.0000 0.0254 0.1112
-0.2477 0.5412 -0.2613 0.0000 -1.0000 0.0000 0.0291 0.1149
-0.2287 0.5412 -0.2422 0.0000 -1.0000 0.0000 0.0254 0.1185
0 3 1
0 2 3
48 5 49
50 4 5
51 7 52
53 6 7
54 9 55
56 8 9
57 11 58
59 10 11
60 13 61
62 12 13
63 15 64
65 14 15
66 17 67
68 16 17
69 19 70
71 18 19
72 21 73
74 20 21
75 23 76
77 22 23
78 25 79
80 24 25
81 27 82
83 26 27
84 29 85
86 28 29
87 89 88
90 91 31
92 94 93
95 97 96
98 100 99
101 103 102
104 106 105
107 109 108
110 112 111
113 115 114
116 118 117
119 121 120
122 124 123
125 127 126
128 130 129
131 30 132
133 135 134
136 138 137
34 32 33
32 38 39
38 36 37
36 34 35
34 38 32
38 34 36
40 139 43
40 141 140
47 142 46
47 144 143
45 145 44
45 147 146
41 148 40
41 150 149
43 151 47
43 153 152
46 154 45
46 156 155
42 157 41
42 159 158
44 160 42
44 162 161
163 165 164
166 168 167
169 171 170
172 174 173
175 177 176
178 180 179
181 183 182
184 186 185
187 189 188
190 192 191
193 195 194
196 198 197
199 201 200
202 204 203
205 207 206
208 210 209
211 213 212
214 216 215
217 219 218
220 222 221
LABEL CentralStation_Antenna_Mast
MATERIAL 2
TEXTURE 0
FLAG 0
GEOM 34 22
-0.2287 -0.3036 -0.2445 0.0000 0.0000 1.0000
-0.2287 0.2999 -0.2445 0.0000 0.0000 1.0000
-0.2152 -0.3036 -0.2501 0.7071 0.0000 0.7071
-0.2152 0.2999 -0.2501 0.7071 0.0000 0.7071
-0.2096 -0.3036 -0.2636 1.0000 0.0000 0.0000
-0.2096 0.2999 -0.2636 1.0000 0.0000 0.0000
-0.2152 -0.3036 -0.2770 0.7071 0.0000 -0.7071
-0.2152 0.2999 -0.2770 0.7071 0.0000 -0.7071
-0.2287 -0.3036 -0.2826 0.0000 0.0000 -1.0000
-0.2287 0.2999 -0.2826 0.0000 0.0000 -1.0000
-0.2422 -0.3036 -0.2770 -0.7071 0.0000 -0.7071
-0.2422 0.2999 -0.2770 -0.7071 0.0000 -0.7071
-0.2477 -0.3036 -0.2636 -1.0000 0.0000 0.0000
-0.2477 0.2999 -0.2636 -1.0000 0.0000 0.0000
-0.2422 -0.3036 -0.2501 -0.7071 0.0000 0.7071
-0.2422 0.2999 -0.2501 -0.7071 0.0000 0.7071
-0.2096 0.2999 -0.2636 -0.0000 1.0000 0.0000
-0.2152 0.2999 -0.2501 -0.0000 1.0000 0.0000
-0.2287 0.2999 -0.2445 -0.0000 1.0000 0.0000
-0.2287 0.2999 -0.2445 -0.0000 1.0000 0.0000
-0.2422 0.2999 -0.2501 -0.0000 1.0000 0.0000
-0.2477 0.2999 -0.2636 -0.0000 1.0000 0.0000
-0.2477 0.2999 -0.2636 -0.0000 1.0000 0.0000
-0.2422 0.2999 -0.2770 -0.0000 1.0000 0.0000
-0.2287 0.2999 -0.2826 -0.0000 1.0000 0.0000
-0.2287 0.2999 -0.2826 -0.0000 1.0000 0.0000
-0.2152 0.2999 -0.2770 -0.0000 1.0000 0.0000
-0.2096 0.2999 -0.2636 -0.0000 1.0000 0.0000
-0.2096 0.2999 -0.2636 -0.0000 1.0000 0.0000
-0.2287 0.2999 -0.2445 -0.0000 1.0000 0.0000
-0.2477 0.2999 -0.2636 -0.0000 1.0000 0.0000
-0.2477 0.2999 -0.2636 -0.0000 1.0000 0.0000
-0.2287 0.2999 -0.2826 -0.0000 1.0000 0.0000
-0.2096 0.2999 -0.2636 -0.0000 1.0000 0.0000
0 3 1
0 2 3
2 5 3
2 4 5
4 7 5
4 6 7
6 9 7
6 8 9
8 11 9
8 10 11
10 13 11
10 12 13
12 15 13
12 14 15
14 1 15
14 0 1
16 18 17
19 21 20
22 24 23
25 27 26
28 30 29
31 33 32
LABEL CentralStation_Antenna_Pointer
MATERIAL 2
TEXTURE 0
FLAG 0
GEOM 324 166
-0.2463 0.5345 -0.2763 0.0000 -0.0000 -1.0000
-0.2463 0.5742 -0.2763 0.0000 0.0000 -1.0000
-0.2463 0.5345 -0.2508 0.0000 0.0000 1.0000
-0.2463 0.5742 -0.2508 0.0000 0.0000 1.0000
-0.2111 0.5345 -0.2763 0.0000 -0.0000 -1.0000
-0.2111 0.5742 -0.2763 0.0000 0.0000 -1.0000
-0.2111 0.5345 -0.2508 0.0000 0.0000 1.0000
-0.2111 0.5742 -0.2508 0.0000 0.0000 1.0000
-0.2507 0.5742 -0.2508 -1.0000 0.0000 0.0000
-0.2507 0.5301 -0.2508 -1.0000 0.0000 0.0000
-0.2067 0.5301 -0.2508 1.0000 0.0000 0.0000
-0.2067 0.5742 -0.2508 1.0000 0.0000 0.0000
-0.2507 0.5301 -0.2763 -1.0000 0.0000 0.0000
-0.2507 0.5742 -0.2763 -1.0000 0.0000 0.0000
-0.2067 0.5742 -0.2763 1.0000 0.0000 0.0000
-0.2067 0.5301 -0.2763 1.0000 0.0000 0.0000
-0.2287 0.5208 -0.2326 0.0000 0.0000 1.0000
-0.2287 0.5301 -0.2326 0.0000 0.0000 1.0000
-0.2168 0.5208 -0.2349 0.3827 0.0000 0.9239
-0.2168 0.5301 -0.2349 0.3827 0.0000 0.9239
-0.2068 0.5208 -0.2417 0.7071 0.0000 0.7071
-0.2068 0.5301 -0.2417 0.7071 0.0000 0.7071
-0.2001 0.5208 -0.2517 0.9239 0.0000 0.3827
-0.2001 0.5301 -0.2517 0.9239 0.0000 0.3827
-0.1977 0.5208 -0.2636 1.0000 0.0000 0.0000
-0.1977 0.5301 -0.2636 1.0000 0.0000 0.0000
-0.2001 0.5208 -0.2754 0.9239 0.0000 -0.3827
-0.2001 0.5301 -0.2754 0.9239 0.0000 -0.3827
-0.2068 0.5208 -0.2855 0.7071 0.0000 -0.7071
-0.2068 0.5301 -0.2855 0.7071 0.0000 -0.7071
-0.2168 0.5208 -0.2922 0.3827 0.0000 -0.9239
-0.2168 0.5301 -0.2922 0.3827 0.0000 -0.9239
-0.2287 0.5208 -0.2946 0.0000 0.0000 -1.0000
-0.2287 0.5301 -0.2946 0.0000 0.0000 -1.0000
-0.2405 0.5208 -0.2922 -0.3827 0.0000 -0.9239
-0.2405 0.5301 -0.2922 -0.3827 0.0000 -0.9239
-0.2506 0.5208 -0.2855 -0.7071 0.0000 -0.7071
-0.2506 0.5301 -0.2855 -0.7071 0.0000 -0.7071
-0.2573 0.5208 -0.2754 -0.9239 0.0000 -0.3827
-0.2573 0.5301 -0.2754 -0.9239 0.0000 -0.3827
-0.2597 0.5208 -0.2636 -1.0000 0.0000 0.0000
-0.2597 0.5301 -0.2636 -1.0000 0.0000 0.0000
-0.2573 0.5208 -0.2517 -0.9239 0.0000 0.3827
-0.2573 0.5301 -0.2517 -0.9239 0.0000 0.3827
-0.2506 0.5208 -0.2417 -0.7071 0.0000 0.7071
-0.2506 0.5301 -0.2417 -0.7071 0.0000 0.7071
-0.2405 0.5208 -0.2349 -0.3827 0.0000 0.9239
-0.2405 0.5301 -0.2349 -0.0000 1.0000 0.0000
-0.2287 0.2999 -0.2445 0.0000 0.0000 1.0000
-0.2287 0.5208 -0.2445 0.0000 0.0000 1.0000
-0.2152 0.2999 -0.2501 0.7071 0.0000 0.7071
-0.2152 0.5208 -0.2501 0.7071 0.0000 0.7071
-0.2096 0.2999 -0.2636 1.0000 0.0000 0.0000
-0.2096 0.5208 -0.2636 1.0000 0.0000 0.0000
-0.2152 0.2999 -0.2770 0.7071 0.0000 -0.7071
-0.2152 0.5208 -0.2770 0.7071 0.0000 -0.7071
-0.2287 0.2999 -0.2826 0.0000 0.0000 -1.0000
-0.2287 0.5208 -0.2826 0.0000 0.0000 -1.0000
-0.2422 0.2999 -0.2770 -0.7071 0.0000 -0.7071
-0.2422 0.5208 -0.2770 -0.7071 0.0000 -0.7071
-0.2477 0.2999 -0.2636 -1.0000 0.0000 0.0000
-0.2477 0.5208 -0.2636 -1.0000 0.0000 0.0000
-0.2422 0.2999 -0.2501 -0.7071 0.0000 0.7071
-0.2422 0.5208 -0.2501 -0.7071 0.0000 0.7071
-0.2287 0.4401 -0.2405 0.0000 0.0000 1.0000
-0.2287 0.4863 -0.2405 0.0000 0.0000 1.0000
-0.2199 0.4401 -0.2423 0.3827 0.0000 0.9239
-0.2199 0.4863 -0.2423 0.3827 0.0000 0.9239
-0.2124 0.4401 -0.2473 0.7071 0.0000 0.7071
-0.2124 0.4863 -0.2473 0.7071 0.0000 0.7071
-0.2074 0.4401 -0.2547 0.9239 0.0000 0.3827
-0.2074 0.4863 -0.2547 0.9239 0.0000 0.3827
-0.2056 0.4401 -0.2636 1.0000 0.0000 -0.0000
-0.2056 0.4863 -0.2636 1.0000 0.0000 -0.0000
-0.2074 0.4401 -0.2724 0.9239 0.0000 -0.3827
-0.2074 0.4863 -0.2724 0.9239 0.0000 -0.3827
-0.2124 0.4401 -0.2799 0.7071 0.0000 -0.7071
-0.2124 0.4863 -0.2799 0.7071 0.0000 -0.7071
-0.2199 0.4401 -0.2849 0.3827 0.0000 -0.9239
-0.2199 0.4863 -0.2849 0.3827 0.0000 -0.9239
-0.2287 0.4401 -0.2866 0.0000 0.0000 -1.0000
-0.2287 0.4863 -0.2866 0.0000 0.0000 -1.0000
-0.2375 0.4401 -0.2849 -0.3827 0.0000 -0.9239
-0.2375 0.4863 -0.2849 -0.3827 0.0000 -0.9239
-0.2450 0.4401 -0.2799 -0.7071 0.0000 -0.7071
-0.2450 0.4863 -0.2799 -0.7071 0.0000 -0.7071
-0.2500 0.4401 -0.2724 -0.9239 0.0000 -0.3827
-0.2500 0.4863 -0.2724 -0.9239 0.0000 -0.3827
-0.2518 0.4401 -0.2636 -1.0000 0.0000 -0.0000
-0.2518 0.4863 -0.2636 -1.0000 0.0000 -0.0000
-0.2500 0.4401 -0.2547 -0.9239 0.0000 0.3827
-0.2500 0.4863 -0.2547 -0.9239 0.0000 0.3827
-0.2450 0.4401 -0.2473 -0.7071 0.0000 0.7071
-0.2450 0.4863 -0.2473 -0.7071 0.0000 0.7071
-0.2375 0.4401 -0.2423 -0.3827 0.0000 0.9239
-0.2375 0.4863 -0.2423 0.0000 1.0000 0.0000
-0.2519 0.4375 -0.2987 -0.9858 0.0000 -0.1679
-0.2519 0.4457 -0.2987 -0.9858 0.0000 -0.1679
-0.2638 0.4375 -0.2284 -0.9858 0.0000 -0.1679
-0.2638 0.4457 -0.2284 -0.9858 0.0000 -0.1679
-0.2055 0.4375 -0.2987 0.9858 0.0000 -0.1679
-0.2055 0.4457 -0.2987 0.9858 0.0000 -0.1679
-0.1936 0.4375 -0.2284 0.0000 0.0000 1.0000
-0.1936 0.4457 -0.2284 0.0000 0.0000 1.0000
-0.2507 0.5301 -0.2508 0.0000 0.0000 1.0000
-0.2507 0.5301 -0.2508 0.0000 0.0000 1.0000
-0.2507 0.5742 -0.2508 0.0000 0.0000 1.0000
-0.2067 0.5301 -0.2508 0.0000 0.0000 1.0000
-0.2067 0.5301 -0.2508 0.0000 0.0000 1.0000
-0.2507 0.5301 -0.2508 0.0000 0.0000 1.0000
-0.2067 0.5742 -0.2508 0.0000 0.0000 1.0000
-0.2067 0.5742 -0.2508 0.0000 0.0000 1.0000
-0.2067 0.5301 -0.2508 0.0000 0.0000 1.0000
-0.2507 0.5742 -0.2763 0.0000 0.0000 -1.0000
-0.2507 0.5742 -0.2763 0.0000 0.0000 -1.0000
-0.2507 0.5301 -0.2763 0.0000 -0.0000 -1.0000
-0.2067 0.5301 -0.2763 0.0000 -0.0000 -1.0000
-0.2067 0.5301 -0.2763 0.0000 -0.0000 -1.0000
-0.2067 0.5742 -0.2763 0.0000 0.0000 -1.0000
-0.2507 0.5301 -0.2763 0.0000 -0.0000 -1.0000
-0.2507 0.5301 -0.2763 0.0000 -0.0000 -1.0000
-0.2067 0.5301 -0.2763 0.0000 -0.0000 -1.0000
-0.2067 0.5742 -0.2763 -0.0000 1.0000 0.0000
-0.2067 0.5742 -0.2508 -0.0000 1.0000 0.0000
-0.2111 0.5742 -0.2508 -0.0000 1.0000 0.0000
-0.2067 0.5742 -0.2763 -0.0000 1.0000 0.0000
-0.2111 0.5742 -0.2508 -0.0000 1.0000 0.0000
-0.2111 0.5742 -0.2763 -0.0000 1.0000 0.0000
-0.2507 0.5742 -0.2763 0.0000 1.0000 0.0000
-0.2463 0.5742 -0.2763 0.0000 1.0000 0.0000
-0.2463 0.5742 -0.2508 0.0000 1.0000 0.0000
-0.2507 0.5742 -0.2763 0.0000 1.0000 0.0000
-0.2463 0.5742 -0.2508 0.0000 1.0000 0.0000
-0.2507 0.5742 -0.2508 0.0000 1.0000 0.0000
-0.2463 0.5742 -0.2508 1.0000 0.0000 0.0000
-0.2463 0.5742 -0.2763 1.0000 0.0000 0.0000
-0.2463 0.5345 -0.2763 1.0000 0.0000 0.0000
-0.2463 0.5742 -0.2508 1.0000 0.0000 0.0000
-0.2463 0.5345 -0.2763 1.0000 0.0000 0.0000
-0.2463 0.5345 -0.2508 1.0000 0.0000 0.0000
-0.2111 0.5345 -0.2508 -1.0000 0.0000 0.0000
-0.2111 0.5345 -0.2763 -1.0000 0.0000 0.0000
-0.2111 0.5742 -0.2763 -1.0000 0.0000 0.0000
-0.2111 0.5345 -0.2508 -1.0000 0.0000 0.0000
-0.2111 0.5742 -0.2763 -1.0000 0.0000 0.0000
-0.2111 0.5742 -0.2508 -1.0000 0.0000 0.0000
-0.2111 0.5345 -0.2508 0.0000 1.0000 0.0000
-0.2463 0.5345 -0.2508 0.0000 1.0000 0.0000
-0.2463 0.5345 -0.2763 0.0000 1.0000 0.0000
-0.2111 0.5345 -0.2508 0.0000 1.0000 0.0000
-0.2463 0.5345 -0.2763 0.0000 1.0000 0.0000
-0.2111 0.5345 -0.2763 0.0000 1.0000 0.0000
-0.2068 0.5301 -0.2417 -0.0000 1.0000 0.0000
-0.2168 0.5301 -0.2349 -0.0000 1.0000 0.0000
-0.2287 0.5301 -0.2326 -0.0000 1.0000 0.0000
-0.2287 0.5301 -0.2326 -0.0000 1.0000 0.0000
-0.2506 0.5301 -0.2417 -0.0000 1.0000 0.0000
-0.2506 0.5301 -0.2417 -0.0000 1.0000 0.0000
-0.2573 0.5301 -0.2517 -0.0000 1.0000 0.0000
-0.2597 0.5301 -0.2636 -0.0000 1.0000 0.0000
-0.2597 0.5301 -0.2636 -0.0000 1.0000 0.0000
-0.2573 0.5301 -0.2754 -0.0000 1.0000 0.0000
-0.2506 0.5301 -0.2855 -0.0000 1.0000 0.0000
-0.2506 0.5301 -0.2855 -0.0000 1.0000 0.0000
-0.2405 0.5301 -0.2922 -0.0000 1.0000 0.0000
-0.2287 0.5301 -0.2946 -0.0000 1.0000 0.0000
-0.2287 0.5301 -0.2946 -0.0000 1.0000 0.0000
-0.2168 0.5301 -0.2922 -0.0000 1.0000 0.0000
-0.2068 0.5301 -0.2855 -0.0000 1.0000 0.0000
-0.2068 0.5301 -0.2855 -0.0000 1.0000 0.0000
-0.2001 0.5301 -0.2754 -0.0000 1.0000 0.0000
-0.1977 0.5301 -0.2636 -0.0000 1.0000 0.0000
-0.1977 0.5301 -0.2636 -0.0000 1.0000 0.0000
-0.2001 0.5301 -0.2517 -0.0000 1.0000 0.0000
-0.2068 0.5301 -0.2417 -0.0000 1.0000 0.0000
-0.2068 0.5301 -0.2417 -0.0000 1.0000 0.0000
-0.2287 0.5301 -0.2326 -0.0000 1.0000 0.0000
-0.2506 0.5301 -0.2417 -0.0000 1.0000 0.0000
-0.2506 0.5301 -0.2417 -0.0000 1.0000 0.0000
-0.2597 0.5301 -0.2636 -0.0000 1.0000 0.0000
-0.2506 0.5301 -0.2855 -0.0000 1.0000 0.0000
-0.2506 0.5301 -0.2855 -0.0000 1.0000 0.0000
-0.2287 0.5301 -0.2946 -0.0000 1.0000 0.0000
-0.2068 0.5301 -0.2855 -0.0000 1.0000 0.0000
-0.2068 0.5301 -0.2855 -0.0000 1.0000 0.0000
-0.1977 0.5301 -0.2636 -0.0000 1.0000 0.0000
-0.2068 0.5301 -0.2417 -0.0000 1.0000 0.0000
-0.2068 0.5301 -0.2417 -0.0000 1.0000 0.0000
-0.2506 0.5301 -0.2417 -0.0000 1.0000 0.0000
-0.2506 0.5301 -0.2855 -0.0000 1.0000 0.0000
-0.2506 0.5301 -0.2855 -0.0000 1.0000 0.0000
-0.2068 0.5301 -0.2855 -0.0000 1.0000 0.0000
-0.2068 0.5301 -0.2417 -0.0000 1.0000 0.0000
-0.2405 0.5301 -0.2349 -0.3827 0.0000 0.9239
-0.2405 0.5301 -0.2349 -0.3827 0.0000 0.9239
-0.2405 0.5301 -0.2349 -0.3827 0.0000 0.9239
-0.2405 0.5208 -0.2349 -0.0000 -1.0000 0.0000
-0.2287 0.5208 -0.2326 -0.0000 -1.0000 0.0000
-0.2168 0.5208 -0.2349 -0.0000 -1.0000 0.0000
-0.2168 0.5208 -0.2349 -0.0000 -1.0000 0.0000
-0.2068 0.5208 -0.2417 -0.0000 -1.0000 0.0000
-0.2001 0.5208 -0.2517 -0.0000 -1.0000 0.0000
-0.2001 0.5208 -0.2517 -0.0000 -1.0000 0.0000
-0.1977 0.5208 -0.2636 -0.0000 -1.0000 0.0000
-0.2001 0.5208 -0.2754 -0.0000 -1.0000 0.0000
-0.2001 0.5208 -0.2754 -0.0000 -1.0000 0.0000
-0.2068 0.5208 -0.2855 -0.0000 -1.0000 0.0000
-0.2168 0.5208 -0.2922 -0.0000 -1.0000 0.0000
-0.2168 0.5208 -0.2922 -0.0000 -1.0000 0.0000
-0.2287 0.5208 -0.2946 -0.0000 -1.0000 0.0000
-0.2405 0.5208 -0.2922 -0.0000 -1.0000 0.0000
-0.2405 0.5208 -0.2922 -0.0000 -1.0000 0.0000
-0.2506 0.5208 -0.2855 -0.0000 -1.0000 0.0000
-0.2573 0.5208 -0.2754 -0.0000 -1.0000 0.0000
-0.2573 0.5208 -0.2754 -0.0000 -1.0000 0.0000
-0.2597 0.5208 -0.2636 -0.0000 -1.0000 0.0000
-0.2573 0.5208 -0.2517 -0.0000 -1.0000 0.0000
-0.2573 0.5208 -0.2517 -0.0000 -1.0000 0.0000
-0.2506 0.5208 -0.2417 -0.0000 -1.0000 0.0000
-0.2405 0.5208 -0.2349 -0.0000 -1.0000 0.0000
-0.2405 0.5208 -0.2349 -0.0000 -1.0000 0.0000
-0.2168 0.5208 -0.2349 -0.0000 -1.0000 0.0000
-0.2001 0.5208 -0.2517 -0.0000 -1.0000 0.0000
-0.2001 0.5208 -0.2517 -0.0000 -1.0000 0.0000
-0.2001 0.5208 -0.2754 -0.0000 -1.0000 0.0000
-0.2168 0.5208 -0.2922 -0.0000 -1.0000 0.0000
-0.2168 0.5208 -0.2922 -0.0000 -1.0000 0.0000
-0.2405 0.5208 -0.2922 -0.0000 -1.0000 0.0000
-0.2573 0.5208 -0.2754 -0.0000 -1.0000 0.0000
-0.2573 0.5208 -0.2754 -0.0000 -1.0000 0.0000
-0.2573 0.5208 -0.2517 -0.0000 -1.0000 0.0000
-0.2405 0.5208 -0.2349 -0.0000 -1.0000 0.0000
-0.2405 0.5208 -0.2349 -0.0000 -1.0000 0.0000
-0.2001 0.5208 -0.2517 -0.0000 -1.0000 0.0000
-0.2168 0.5208 -0.2922 -0.0000 -1.0000 0.0000
-0.2168 0.5208 -0.2922 -0.0000 -1.0000 0.0000
-0.2573 0.5208 -0.2754 -0.0000 -1.0000 0.0000
-0.2405 0.5208 -0.2349 -0.0000 -1.0000 0.0000
-0.2124 0.4863 -0.2473 0.0000 1.0000 0.0000
-0.2199 0.4863 -0.2423 0.0000 1.0000 0.0000
-0.2287 0.4863 -0.2405 0.0000 1.0000 0.0000
-0.2287 0.4863 -0.2405 0.0000 1.0000 0.0000
-0.2450 0.4863 -0.2473 0.0000 1.0000 0.0000
-0.2450 0.4863 -0.2473 0.0000 1.0000 0.0000
-0.2500 0.4863 -0.2547 0.0000 1.0000 0.0000
-0.2518 0.4863 -0.2636 0.0000 1.0000 0.0000
-0.2518 0.4863 -0.2636 0.0000 1.0000 0.0000
-0.2500 0.4863 -0.2724 0.0000 1.0000 0.0000
-0.2450 0.4863 -0.2799 0.0000 1.0000 0.0000
-0.2450 0.4863 -0.2799 0.0000 1.0000 0.0000
-0.2375 0.4863 -0.2849 0.0000 1.0000 0.0000
-0.2287 0.4863 -0.2866 0.0000 1.0000 0.0000
-0.2287 0.4863 -0.2866 0.0000 1.0000 0.0000
-0.2199 0.4863 -0.2849 0.0000 1.0000 0.0000
-0.2124 0.4863 -0.2799 0.0000 1.0000 0.0000
-0.2124 0.4863 -0.2799 0.0000 1.0000 0.0000
-0.2074 0.4863 -0.2724 0.0000 1.0000 0.0000
-0.2056 0.4863 -0.2636 0.0000 1.0000 0.0000
-0.2056 0.4863 -0.2636 0.0000 1.0000 0.0000
-0.2074 0.4863 -0.2547 0.0000 1.0000 0.0000
-0.2124 0.4863 -0.2473 0.0000 1.0000 0.0000
-0.2124 0.4863 -0.2473 0.0000 1.0000 0.0000
-0.2287 0.4863 -0.2405 0.0000 1.0000 0.0000
-0.2450 0.4863 -0.2473 0.0000 1.0000 0.0000
-0.2450 0.4863 -0.2473 0.0000 1.0000 0.0000
-0.2518 0.4863 -0.2636 0.0000 1.0000 0.0000
-0.2450 0.4863 -0.2799 0.0000 1.0000 0.0000
-0.2450 0.4863 -0.2799 0.0000 1.0000 0.0000
-0.2287 0.4863 -0.2866 0.0000 1.0000 0.0000
-0.2124 0.4863 -0.2799 0.0000 1.0000 0.0000
-0.2124 0.4863 -0.2799 0.0000 1.0000 0.0000
-0.2056 0.4863 -0.2636 0.0000 1.0000 0.0000
-0.2124 0.4863 -0.2473 0.0000 1.0000 0.0000
-0.2124 0.4863 -0.2473 0.0000 1.0000 0.0000
-0.2450 0.4863 -0.2473 0.0000 1.0000 0.0000
-0.2450 0.4863 -0.2799 0.0000 1.0000 0.0000
-0.2450 0.4863 -0.2799 0.0000 1.0000 0.0000
-0.2124 0.4863 -0.2799 0.0000 1.0000 0.0000
-0.2124 0.4863 -0.2473 0.0000 1.0000 0.0000
-0.2375 0.4863 -0.2423 -0.3827 0.0000 0.9239
-0.2375 0.4863 -0.2423 -0.3827 0.0000 0.9239
-0.2375 0.4863 -0.2423 -0.3827 0.0000 0.9239
-0.2638 0.4375 -0.2284 0.0000 0.0000 1.0000
-0.2638 0.4457 -0.2284 0.0000 0.0000 1.0000
-0.2638 0.4375 -0.2284 0.0000 0.0000 1.0000
-0.1936 0.4375 -0.2284 0.9858 0.0000 -0.1679
-0.1936 0.4457 -0.2284 0.9858 0.0000 -0.1679
-0.1936 0.4375 -0.2284 0.9858 0.0000 -0.1679
-0.2055 0.4375 -0.2987 0.0000 0.0000 -1.0000
-0.2055 0.4457 -0.2987 0.0000 0.0000 -1.0000
-0.2519 0.4457 -0.2987 0.0000 0.0000 -1.0000
-0.2055 0.4375 -0.2987 0.0000 0.0000 -1.0000
-0.2519 0.4457 -0.2987 0.0000 0.0000 -1.0000
-0.2519 0.4375 -0.2987 0.0000 0.0000 -1.0000
-0.2638 0.4375 -0.2284 0.0000 -1.0000 0.0000
-0.1936 0.4375 -0.2284 0.0000 -1.0000 0.0000
-0.2055 0.4375 -0.2987 0.0000 -1.0000 0.0000
-0.2638 0.4375 -0.2284 0.0000 -1.0000 0.0000
-0.2055 0.4375 -0.2987 0.0000 -1.0000 0.0000
-0.2519 0.4375 -0.2987 0.0000 -1.0000 0.0000
-0.1936 0.4457 -0.2284 0.0000 1.0000 0.0000
-0.2638 0.4457 -0.2284 0.0000 1.0000 0.0000
-0.2519 0.4457 -0.2987 0.0000 1.0000 0.0000
-0.1936 0.4457 -0.2284 0.0000 1.0000 0.0000
-0.2519 0.4457 -0.2987 0.0000 1.0000 0.0000
-0.2055 0.4457 -0.2987 0.0000 1.0000 0.0000
-0.2422 0.2999 -0.2501 0.0000 -1.0000 0.0000
-0.2287 0.2999 -0.2445 0.0000 -1.0000 0.0000
-0.2152 0.2999 -0.2501 0.0000 -1.0000 0.0000
-0.2152 0.2999 -0.2501 0.0000 -1.0000 0.0000
-0.2096 0.2999 -0.2636 0.0000 -1.0000 0.0000
-0.2152 0.2999 -0.2770 0.0000 -1.0000 0.0000
-0.2152 0.2999 -0.2770 0.0000 -1.0000 0.0000
-0.2287 0.2999 -0.2826 0.0000 -1.0000 0.0000
-0.2422 0.2999 -0.2770 0.0000 -1.0000 0.0000
-0.2422 0.2999 -0.2770 0.0000 -1.0000 0.0000
-0.2477 0.2999 -0.2636 0.0000 -1.0000 0.0000
-0.2422 0.2999 -0.2501 0.0000 -1.0000 0.0000
-0.2422 0.2999 -0.2501 0.0000 -1.0000 0.0000
-0.2152 0.2999 -0.2501 0.0000 -1.0000 0.0000
-0.2152 0.2999 -0.2770 0.0000 -1.0000 0.0000
-0.2152 0.2999 -0.2770 0.0000 -1.0000 0.0000
-0.2422 0.2999 -0.2770 0.0000 -1.0000 0.0000
-0.2422 0.2999 -0.2501 0.0000 -1.0000 0.0000
12 8 13
12 9 8
10 14 11
10 15 14
3 104 2
3 106 105
2 107 6
2 109 108
6 110 7
6 112 111
0 113 1
0 115 114
5 116 4
5 118 117
4 119 0
4 121 120
122 124 123
125 127 126
128 130 129
131 133 132
134 136 135
137 139 138
140 142 141
143 145 144
146 148 147
149 151 150
16 19 17
16 18 19
18 21 19
18 20 21
20 23 21
20 22 23
22 25 23
22 24 25
24 27 25
24 26 27
26 29 27
26 28 29
28 31 29
28 30 31
30 33 31
30 32 33
32 35 33
32 34 35
34 37 35
34 36 37
36 39 37
36 38 39
38 41 39
38 40 41
40 43 41
40 42 43
42 45 43
42 44 45
152 154 153
155 156 47
157 159 158
160 162 161
163 165 164
166 168 167
169 171 170
172 174 173
175 177 176
178 180 179
181 183 182
184 186 185
187 189 188
190 192 191
44 193 45
44 46 194
46 17 195
46 16 17
196 198 197
199 201 200
202 204 203
205 207 206
208 210 209
211 213 212
214 216 215
217 219 218
220 222 221
223 225 224
226 228 227
229 231 230
232 234 233
235 237 236
48 51 49
48 50 51
50 53 51
50 52 53
52 55 53
52 54 55
54 57 55
54 56 57
56 59 57
56 58 59
58 61 59
58 60 61
60 63 61
60 62 63
62 49 63
62 48 49
64 67 65
64 66 67
66 69 67
66 68 69
68 71 69
68 70 71
70 73 71
70 72 73
72 75 73
72 74 75
74 77 75
74 76 77
76 79 77
76 78 79
78 81 79
78 80 81
80 83 81
80 82 83
82 85 83
82 84 85
84 87 85
84 86 87
86 89 87
86 88 89
88 91 89
88 90 91
90 93 91
90 92 93
238 240 239
241 242 95
243 245 244
246 248 247
249 251 250
252 254 253
255 257 256
258 260 259
261 263 262
264 266 265
267 269 268
270 272 271
273 275 274
276 278 277
92 279 93
92 94 280
94 65 281
94 64 65
96 99 97
96 98 99
282 103 283
284 102 103
285 101 286
287 100 101
288 290 289
291 293 292
294 296 295
297 299 298
300 302 301
303 305 304
306 308 307
309 311 310
312 314 313
315 317 316
318 320 319
321 323 322
LABEL CentralStation_Curtian
MATERIAL 3
TEXTURE 2
FLAG 0
GEOM 26 12
-0.2765 -0.2871 0.3131 0.0000 -0.0000 -1.0000 0.9772 0.9935
0.2765 -0.2871 0.3131 0.0000 -0.0000 -1.0000 0.0230 0.9935
-0.2765 0.2903 0.3131 0.0000 -0.0000 -1.0000 0.9772 0.0155
0.2765 0.2903 0.3131 0.0000 -0.0000 -1.0000 0.0230 0.0155
0.2765 -0.2871 -0.3131 0.0000 0.0000 -1.0000 0.0230 0.9935
-0.1432 -0.2871 -0.3131 -0.7079 0.0000 -0.7063 0.7472 0.9935
-0.2765 -0.2871 -0.1796 -0.7079 0.0000 -0.7063 0.9772 0.9935
0.2765 0.2903 -0.3131 0.0000 0.0000 -1.0000 0.0230 0.0155
-0.1432 0.2903 -0.3131 -0.7079 0.0000 -0.7063 0.7472 0.0155
-0.2765 0.2903 -0.1796 -0.7079 0.0000 -0.7063 0.9772 0.0155
-0.2765 -0.2871 0.3131 0.0000 0.0000 1.0000 0.9772 0.9935
0.2765 -0.2871 0.3131 0.0000 0.0000 1.0000 0.0230 0.9935
-0.2765 0.2903 0.3131 0.0000 0.0000 1.0000 0.9772 0.0155
0.2765 0.2903 0.3131 0.0000 0.0000 1.0000 0.0230 0.0155
0.2765 -0.2871 -0.3131 0.0000 0.0000 1.0000 0.0230 0.9935
-0.1432 -0.2871 -0.3131 0.7079 0.0000 0.7063 0.7472 0.9935
-0.2765 -0.2871 -0.1796 0.7079 0.0000 0.7063 0.9772 0.9935
0.2765 0.2903 -0.3131 0.0000 0.0000 1.0000 0.0230 0.0155
-0.1432 0.2903 -0.3131 0.7079 0.0000 0.7063 0.7472 0.0155
-0.2765 0.2903 -0.1796 0.7079 0.0000 0.7063 0.9772 0.0155
-0.1432 0.2903 -0.3131 0.0000 0.0000 -1.0000 0.7472 0.0155
-0.1432 -0.2871 -0.3131 0.0000 0.0000 -1.0000 0.7472 0.9935
-0.1432 0.2903 -0.3131 0.0000 0.0000 -1.0000 0.7472 0.0155
-0.1432 0.2903 -0.3131 0.0000 0.0000 1.0000 0.7472 0.0155
-0.1432 0.2903 -0.3131 0.0000 0.0000 1.0000 0.7472 0.0155
-0.1432 -0.2871 -0.3131 0.0000 0.0000 1.0000 0.7472 0.9935
0 3 1
0 2 3
5 9 8
5 6 9
20 4 21
22 7 4
10 13 12
10 11 13
15 19 16
15 18 19
23 14 17
24 25 14
LABEL CentralStation_ElecBox
MATERIAL 2
TEXTURE 0
FLAG 0
GEOM 68 26
0.2765 -0.2871 -0.3131 0.0000 0.0000 -1.0000
-0.2765 -0.2871 0.3131 0.0000 0.0000 1.0000
0.2765 -0.2871 0.3131 0.0000 0.0000 1.0000
-0.1432 -0.2871 -0.3131 0.0000 0.0000 -1.0000
-0.2765 -0.2871 -0.1796 -1.0000 0.0000 0.0000
0.2765 -0.3990 -0.3131 0.0000 -1.0000 0.0000
0.2765 -0.3990 0.3131 0.0000 -1.0000 0.0000
-0.2765 -0.3990 0.3131 0.0000 -1.0000 0.0000
-0.2765 -0.3990 -0.1796 0.0000 -1.0000 0.0000
-0.1432 -0.3990 -0.3131 0.0000 -1.0000 0.0000
-0.2765 -0.2871 0.3131
0.2765 -0.2871 0.3131
-0.1950 -0.2871 -0.2612 0.7063 0.0000 -0.7079
-0.2258 -0.2871 -0.2303 -0.7063 0.0000 0.7079
-0.2258 -0.3990 -0.2303 -0.2024 -0.9582 -0.2020
-0.1950 -0.3990 -0.2612 0.7063 0.0000 -0.7079
-0.2608 -0.2871 -0.2653 -0.7079 0.0000 -0.7063
-0.2301 -0.2871 -0.2961 0.7063 0.0000 -0.7079
-0.2608 -0.3842 -0.2653 -0.7079 0.0000 -0.7063
-0.2301 -0.3842 -0.2961 0.7063 0.0000 -0.7079
0.2765 -0.3990 0.3131 0.0000 0.0000 1.0000
0.2765 -0.3990 0.3131 0.0000 0.0000 1.0000
-0.2765 -0.3990 0.3131 0.0000 0.0000 1.0000
-0.1432 -0.3990 -0.3131 0.0000 0.0000 -1.0000
-0.1432 -0.3990 -0.3131 0.0000 0.0000 -1.0000
0.2765 -0.3990 -0.3131 0.0000 0.0000 -1.0000
0.2765 -0.2871 0.3131 1.0000 0.0000 0.0000
0.2765 -0.2871 -0.3131 1.0000 0.0000 0.0000
0.2765 -0.3990 -0.3131 1.0000 0.0000 0.0000
0.2765 -0.2871 0.3131 1.0000 0.0000 0.0000
0.2765 -0.3990 -0.3131 1.0000 0.0000 0.0000
0.2765 -0.3990 0.3131 1.0000 0.0000 0.0000
-0.2765 -0.2871 0.3131 -1.0000 0.0000 0.0000
-0.2765 -0.3990 0.3131 -1.0000 0.0000 0.0000
-0.2765 -0.3990 0.3131 -1.0000 0.0000 0.0000
-0.2765 -0.3990 -0.1796 -1.0000 0.0000 0.0000
-0.2765 -0.2871 -0.1796 0.0000 1.0000 0.0000
-0.1432 -0.2871 -0.3131 0.0000 1.0000 0.0000
0.2765 -0.2871 -0.3131 0.0000 1.0000 0.0000
0.2765 -0.2871 -0.3131 0.0000 1.0000 0.0000
0.2765 -0.2871 0.3131 0.0000 1.0000 0.0000
-0.2765 -0.2871 0.3131 0.0000 1.0000 0.0000
0.2765 -0.2871 -0.3131 0.0000 1.0000 0.0000
-0.2765 -0.2871 0.3131 0.0000 1.0000 0.0000
-0.2765 -0.2871 -0.1796 0.0000 1.0000 0.0000
-0.2301 -0.2871 -0.2961 -0.7079 0.0000 -0.7063
-0.2301 -0.2871 -0.2961 -0.7079 0.0000 -0.7063
-0.2301 -0.3842 -0.2961 -0.7079 0.0000 -0.7063
-0.1950 -0.3990 -0.2612 -0.2024 -0.9582 -0.2020
-0.2301 -0.3842 -0.2961 -0.2024 -0.9582 -0.2020
-0.2301 -0.3842 -0.2961 -0.2024 -0.9582 -0.2020
-0.2608 -0.3842 -0.2653 -0.2024 -0.9582 -0.2020
-0.2258 -0.3990 -0.2303 -0.7063 0.0000 0.7079
-0.2608 -0.3842 -0.2653 -0.7063 0.0000 0.7079
-0.2608 -0.3842 -0.2653 -0.7063 0.0000 0.7079
-0.2608 -0.2871 -0.2653 -0.7063 0.0000 0.7079
-0.1950 -0.2871 -0.2612 0.0000 1.0000 0.0000
-0.2258 -0.2871 -0.2303 0.0000 1.0000 0.0000
-0.2608 -0.2871 -0.2653 0.0000 1.0000 0.0000
-0.1950 -0.2871 -0.2612 0.0000 1.0000 0.0000
-0.2608 -0.2871 -0.2653 0.0000 1.0000 0.0000
-0.2301 -0.2871 -0.2961 0.0000 1.0000 0.0000
-0.1432 -0.2871 -0.3131 -0.7079 0.0000 -0.7063
-0.2765 -0.2871 -0.1796 -0.7079 0.0000 -0.7063
-0.2765 -0.3990 -0.1796 -0.7079 0.0000 -0.7063
-0.1432 -0.2871 -0.3131 -0.7079 0.0000 -0.7063
-0.2765 -0.3990 -0.1796 -0.7079 0.0000 -0.7063
-0.1432 -0.3990 -0.3131 -0.7079 0.0000 -0.7063
5 8 9
8 6 7
8 5 6
1 20 2
1 22 21
0 23 3
0 25 24
26 28 27
29 31 30
4 33 32
4 35 34
36 38 37
39 41 40
42 44 43
15 17 12
15 19 17
45 18 16
46 47 18
14 49 48
14 51 50
13 53 52
13 55 54
56 58 57
59 61 60
62 64 63
65 67 66
LABEL CentralStation_Reflector
MATERIAL 4
TEXTURE 3
FLAG 0
GEOM 9 4
0.2765 0.2903 -0.3131 0.8214 -0.5704 0.0000 0.0164 0.0219
-0.2765 0.2903 0.3131 -0.9671 -0.2545 0.0000 0.9875 0.0219
0.2765 0.2903 0.3131 0.8214 -0.5704 0.0000 0.9875 0.0219
-0.2765 0.2903 -0.1796 -0.9671 -0.2545 0.0000 0.2235 0.0219
-0.1245 -0.2871 -0.3131 0.8214 -0.5704 0.0000 0.0164 0.9882
-0.1245 -0.2871 0.3131 0.8214 -0.5704 0.0000 0.9875 0.9882
-0.1245 -0.2871 0.3131 -0.9671 -0.2545 0.0000 0.9875 0.9882
-0.1245 -0.2871 -0.3131 -0.9671 -0.2545 0.0000 0.0164 0.9882
-0.1245 -0.2871 0.3131 -0.9671 -0.2545 0.0000 0.9875 0.9882
4 2 5
4 0 2
6 3 7
8 1 3
LABEL CentralStation_Sunshade
MATERIAL 2
TEXTURE 0
FLAG 0
GEOM 44 16
0.2765 0.2903 -0.3131 0.0000 0.0000 -1.0000
-0.2765 0.2903 0.3131 -0.0000 0.0000 1.0000
0.2765 0.2903 0.3131 -0.0000 0.0000 1.0000
-0.2765 0.3224 0.3131 -0.0000 0.0000 1.0000
0.2765 0.3224 -0.3131 0.0000 0.0000 -1.0000
0.2765 0.3224 0.3131 -0.0000 0.0000 1.0000
-0.1432 0.2903 -0.3131 0.0000 0.0000 -1.0000
-0.2765 0.2903 -0.1796 -0.7079 0.0000 -0.7063
-0.2765 0.3224 -0.1796 -0.0000 1.0000 -0.0000
-0.1432 0.3224 -0.3131 0.0000 0.0000 -1.0000
-0.2765 0.3224 0.3131 -0.0000 1.0000 -0.0000
-0.1432 0.3224 -0.3131 -0.0000 1.0000 -0.0000
-0.1432 0.3224 -0.3131 -0.0000 1.0000 -0.0000
0.2765 0.3224 -0.3131 -0.0000 1.0000 -0.0000
0.2765 0.3224 0.3131 -0.0000 1.0000 -0.0000
-0.1432 0.3224 -0.3131 -0.0000 1.0000 -0.0000
0.2765 0.3224 0.3131 -0.0000 1.0000 -0.0000
-0.2765 0.3224 0.3131 -0.0000 1.0000 -0.0000
0.2765 0.2903 -0.3131 1.0000 0.0000 0.0000
0.2765 0.2903 0.3131 1.0000 0.0000 0.0000
0.2765 0.3224 0.3131 1.0000 0.0000 0.0000
0.2765 0.2903 -0.3131 1.0000 0.0000 0.0000
0.2765 0.3224 0.3131 1.0000 0.0000 0.0000
0.2765 0.3224 -0.3131 1.0000 0.0000 0.0000
-0.2765 0.3224 -0.1796 -0.7079 0.0000 -0.7063
-0.1432 0.2903 -0.3131 -0.7079 0.0000 -0.7063
-0.2765 0.3224 -0.1796 -0.7079 0.0000 -0.7063
-0.1432 0.2903 -0.3131 -0.7079 0.0000 -0.7063
-0.1432 0.3224 -0.3131 -0.7079 0.0000 -0.7063
-0.2765 0.2903 0.3131 -1.0000 0.0000 0.0000
-0.2765 0.2903 -0.1796 -1.0000 0.0000 0.0000
-0.2765 0.3224 -0.1796 -1.0000 0.0000 0.0000
-0.2765 0.2903 0.3131 -1.0000 0.0000 0.0000
-0.2765 0.3224 -0.1796 -1.0000 0.0000 0.0000
-0.2765 0.3224 0.3131 -1.0000 0.0000 0.0000
0.2765 0.2903 0.3131 0.0000 -1.0000 0.0000
0.2765 0.2903 -0.3131 0.0000 -1.0000 0.0000
-0.1432 0.2903 -0.3131 0.0000 -1.0000 0.0000
-0.1432 0.2903 -0.3131 0.0000 -1.0000 0.0000
-0.2765 0.2903 -0.1796 0.0000 -1.0000 0.0000
-0.2765 0.2903 0.3131 0.0000 -1.0000 0.0000
-0.1432 0.2903 -0.3131 0.0000 -1.0000 0.0000
-0.2765 0.2903 0.3131 0.0000 -1.0000 0.0000
0.2765 0.2903 0.3131 0.0000 -1.0000 0.0000
6 4 0
6 9 4
2 3 1
2 5 3
10 11 8
12 14 13
15 17 16
18 20 19
21 23 22
24 25 7
26 28 27
29 31 30
32 34 33
35 37 36
38 40 39
41 43 42
LABEL CentralStation_Sunshade_Mounts
MATERIAL 5
TEXTURE 0
FLAG 0
GEOM 364 154
0.2536 0.3224 0.0818 0.7158 0.0000 -0.6983
0.2331 0.3742 0.0607 0.7158 0.0000 -0.6983
0.2042 0.3224 0.0311 0.7158 0.0000 -0.6983
0.2214 0.3742 0.0488 0.7158 0.0000 -0.6983
0.2223 0.3224 0.1124 -0.7158 0.0000 0.6983
0.2018 0.3742 0.0913 -0.7158 0.0000 0.6983
0.1729 0.3224 0.0616 -0.6304 0.4301 -0.6463
0.1901 0.3742 0.0793 -0.6304 0.4301 -0.6463
0.0239 0.3224 0.0353 -0.8867 0.0000 -0.4624
0.0103 0.3742 0.0614 -0.8867 0.0000 -0.4624
-0.0089 0.3224 0.0981 -0.8867 0.0000 -0.4624
0.0025 0.3742 0.0763 -0.8867 0.0000 -0.4624
0.0626 0.3224 0.0555 0.8867 0.0000 0.4624
0.0490 0.3742 0.0817 0.8867 0.0000 0.4624
0.0299 0.3224 0.1184 -0.4174 0.4301 0.8005
0.0413 0.3742 0.0965 -0.4174 0.4301 0.8005
-0.0138 0.3224 0.2516 -0.7190 -0.0000 0.6950
0.0067 0.3742 0.2728 -0.7190 -0.0000 0.6950
0.0354 0.3224 0.3025 -0.7190 -0.0000 0.6950
0.0183 0.3742 0.2848 -0.7190 -0.0000 0.6950
0.0176 0.3224 0.2212 0.7190 0.0000 -0.6950
0.0381 0.3742 0.2424 0.7190 0.0000 -0.6950
0.0669 0.3224 0.2722 0.6274 0.4301 0.6491
0.0497 0.3742 0.2544 0.6274 0.4301 0.6491
0.2085 0.3224 0.2988 0.8093 -0.0000 0.5873
0.2277 0.3742 0.2723 0.8093 -0.0000 0.5873
0.2548 0.3224 0.2349 0.8093 -0.0000 0.5873
0.2387 0.3742 0.2572 0.8093 -0.0000 0.5873
0.1731 0.3224 0.2732 -0.8093 -0.0000 -0.5873
0.1924 0.3742 0.2466 -0.8093 -0.0000 -0.5873
0.2195 0.3224 0.2093 0.5188 0.4688 -0.7149
0.2033 0.3742 0.2315 0.5188 0.4688 -0.7149
-0.1679 0.3224 0.2362 -0.0000 0.5243 0.8515
-0.1973 0.3224 0.2304 -0.3259 0.5243 0.7867
-0.2222 0.3224 0.2137 -0.6021 0.5243 0.6021
-0.2389 0.3224 0.1888 -0.7867 0.5243 0.3259
-0.2447 0.3224 0.1594 -0.8515 0.5243 -0.0000
-0.2389 0.3224 0.1300 -0.7867 0.5243 -0.3259
-0.2222 0.3224 0.1050 -0.6021 0.5243 -0.6021
-0.1973 0.3224 0.0884 -0.3259 0.5243 -0.7867
-0.1679 0.3224 0.0825 0.0000 0.5243 -0.8515
-0.1385 0.3224 0.0884 0.3259 0.5243 -0.7867
-0.1135 0.3224 0.1050 0.6021 0.5243 -0.6021
-0.0969 0.3224 0.1300 0.7867 0.5243 -0.3259
-0.0910 0.3224 0.1594 0.8515 0.5243 0.0000
-0.0969 0.3224 0.1888 0.7867 0.5243 0.3259
-0.1135 0.3224 0.2137 0.6021 0.5243 0.6021
-0.1385 0.3224 0.2304 0.3259 0.5243 0.7867
-0.1851 0.3742 0.2009 -0.0000 1.0000 0.0000
-0.1679 0.3742 0.2043 -0.0000 1.0000 0.0000
-0.1997 0.3742 0.1912 -0.0000 1.0000 0.0000
-0.2094 0.3742 0.1766 -0.0000 1.0000 0.0000
-0.2128 0.3742 0.1594 -0.0000 1.0000 0.0000
-0.2094 0.3742 0.1422 -0.0000 1.0000 0.0000
-0.1997 0.3742 0.1276 -0.0000 1.0000 0.0000
-0.1851 0.3742 0.1178 -0.0000 1.0000 0.0000
-0.1679 0.3742 0.1144 -0.0000 1.0000 0.0000
-0.1507 0.3742 0.1178 -0.0000 1.0000 0.0000
-0.1361 0.3742 0.1276 -0.0000 1.0000 0.0000
-0.1263 0.3742 0.1422 -0.0000 1.0000 0.0000
-0.1229 0.3742 0.1594 -0.0000 1.0000 0.0000
-0.1263 0.3742 0.1766 -0.0000 1.0000 0.0000
-0.1361 0.3742 0.1912 -0.0000 1.0000 0.0000
-0.1507 0.3742 0.2009 -0.0000 1.0000 0.0000
-0.0093 0.3224 -0.0999 -0.7497 0.6617 0.0000
0.0084 0.3425 -0.0831 -0.7497 0.6617 0.0000
-0.0093 0.3224 -0.0398 -0.7497 0.6617 0.0000
0.0084 0.3425 -0.0592 -0.7497 0.6617 0.0000
0.0512 0.3224 -0.0999 0.7298 0.6837 0.0000
0.0324 0.3425 -0.0831 0.7298 0.6837 0.0000
0.0512 0.3224 -0.0398 -0.0000 0.6953 0.7188
0.0324 0.3425 -0.0592 -0.0000 0.6953 0.7188
-0.0093 0.3224 -0.2514 -0.7497 0.6617 0.0000
0.0084 0.3425 -0.2346 -0.7497 0.6617 0.0000
-0.0093 0.3224 -0.1914 -0.7497 0.6617 0.0000
0.0084 0.3425 -0.2108 -0.7497 0.6617 0.0000
0.0512 0.3224 -0.2514 0.7298 0.6837 -0.0000
0.0324 0.3425 -0.2346 0.7298 0.6837 -0.0000
0.0512 0.3224 -0.1914 0.0000 0.6953 0.7188
0.0324 0.3425 -0.2108 0.0000 0.6953 0.7188
0.1910 0.3224 -0.2514 -0.7497 0.6617 0.0000
0.2087 0.3425 -0.2346 -0.7497 0.6617 0.0000
0.1910 0.3224 -0.1914 -0.7497 0.6617 0.0000
0.2087 0.3425 -0.2108 -0.7497 0.6617 0.0000
0.2515 0.3224 -0.2514 0.7298 0.6837 0.0000
0.2327 0.3425 -0.2346 0.7298 0.6837 0.0000
0.2515 0.3224 -0.1914 0.0000 0.6953 0.7188
0.2327 0.3425 -0.2108 0.0000 0.6953 0.7188
0.1910 0.3224 -0.0999 -0.7497 0.6617 0.0000
0.2087 0.3425 -0.0831 -0.7497 0.6617 0.0000
0.1910 0.3224 -0.0398 -0.7497 0.6617 0.0000
0.2087 0.3425 -0.0592 -0.7497 0.6617 0.0000
0.2515 0.3224 -0.0999 0.7298 0.6837 0.0000
0.2327 0.3425 -0.0831 0.7298 0.6837 0.0000
0.2515 0.3224 -0.0398 0.0000 0.6953 0.7188
0.2327 0.3425 -0.0592 0.0000 0.6953 0.7188
-0.1033 0.3224 -0.0149 -0.9523 0.3050 -0.0000
-0.0868 0.3742 -0.0149 -0.9523 0.3050 -0.0000
-0.1033 0.3224 0.0068 -0.9523 0.3050 -0.0000
-0.0868 0.3742 0.0068 -0.9523 0.3050 -0.0000
-0.0586 0.3224 -0.0149 0.9650 0.2624 -0.0000
-0.0727 0.3742 -0.0149 0.9650 0.2624 -0.0000
-0.0586 0.3224 0.0068 -0.0000 0.0000 1.0000
-0.0727 0.3742 0.0068 -0.0000 0.0000 1.0000
-0.1834 0.3224 0.0235 0.9523 0.3050 -0.0000
-0.1999 0.3742 0.0235 0.9523 0.3050 -0.0000
-0.1834 0.3224 0.0018 0.9523 0.3050 -0.0000
-0.1999 0.3742 0.0018 0.9523 0.3050 -0.0000
-0.2281 0.3224 0.0235 -0.9650 0.2624 -0.0000
-0.2140 0.3742 0.0235 -0.9650 0.2624 -0.0000
-0.2281 0.3224 0.0018 -0.0000 -0.0000 -1.0000
-0.2140 0.3742 0.0018 -0.0000 -0.0000 -1.0000
0.2042 0.3224 0.0311 -0.6304 0.4301 -0.6463
0.2214 0.3742 0.0488 -0.6304 0.4301 -0.6463
0.2042 0.3224 0.0311 -0.6304 0.4301 -0.6463
0.1729 0.3224 0.0616 -0.7158 0.0000 0.6983
0.1901 0.3742 0.0793 -0.7158 0.0000 0.6983
0.1729 0.3224 0.0616 -0.7158 0.0000 0.6983
0.2223 0.3224 0.1124 0.6068 0.4948 0.6221
0.2018 0.3742 0.0913 0.6068 0.4948 0.6221
0.2331 0.3742 0.0607 0.6068 0.4948 0.6221
0.2223 0.3224 0.1124 0.6068 0.4948 0.6221
0.2331 0.3742 0.0607 0.6068 0.4948 0.6221
0.2536 0.3224 0.0818 0.6068 0.4948 0.6221
0.2042 0.3224 0.0311 -0.0000 -1.0000 0.0000
0.1729 0.3224 0.0616 -0.0000 -1.0000 0.0000
0.2223 0.3224 0.1124 -0.0000 -1.0000 0.0000
0.2042 0.3224 0.0311 -0.0000 -1.0000 0.0000
0.2223 0.3224 0.1124 -0.0000 -1.0000 0.0000
0.2536 0.3224 0.0818 -0.0000 -1.0000 0.0000
0.1901 0.3742 0.0793 0.0000 1.0000 0.0000
0.2214 0.3742 0.0488 0.0000 1.0000 0.0000
0.2331 0.3742 0.0607 0.0000 1.0000 0.0000
0.1901 0.3742 0.0793 0.0000 1.0000 0.0000
0.2331 0.3742 0.0607 0.0000 1.0000 0.0000
0.2018 0.3742 0.0913 0.0000 1.0000 0.0000
-0.0089 0.3224 0.0981 -0.4174 0.4301 0.8005
0.0025 0.3742 0.0763 -0.4174 0.4301 0.8005
-0.0089 0.3224 0.0981 -0.4174 0.4301 0.8005
0.0299 0.3224 0.1184 0.8867 0.0000 0.4624
0.0413 0.3742 0.0965 0.8867 0.0000 0.4624
0.0299 0.3224 0.1184 0.8867 0.0000 0.4624
0.0626 0.3224 0.0555 0.4018 0.4948 -0.7705
0.0490 0.3742 0.0817 0.4018 0.4948 -0.7705
0.0103 0.3742 0.0614 0.4018 0.4948 -0.7705
0.0626 0.3224 0.0555 0.4018 0.4948 -0.7705
0.0103 0.3742 0.0614 0.4018 0.4948 -0.7705
0.0239 0.3224 0.0353 0.4018 0.4948 -0.7705
-0.0089 0.3224 0.0981 -0.0000 -1.0000 0.0000
0.0299 0.3224 0.1184 -0.0000 -1.0000 0.0000
0.0626 0.3224 0.0555 -0.0000 -1.0000 0.0000
-0.0089 0.3224 0.0981 -0.0000 -1.0000 0.0000
0.0626 0.3224 0.0555 -0.0000 -1.0000 0.0000
0.0239 0.3224 0.0353 -0.0000 -1.0000 0.0000
0.0413 0.3742 0.0965 0.0000 1.0000 0.0000
0.0025 0.3742 0.0763 0.0000 1.0000 0.0000
0.0103 0.3742 0.0614 0.0000 1.0000 0.0000
0.0413 0.3742 0.0965 0.0000 1.0000 0.0000
0.0103 0.3742 0.0614 0.0000 1.0000 0.0000
0.0490 0.3742 0.0817 0.0000 1.0000 0.0000
0.0354 0.3224 0.3025 0.6274 0.4301 0.6491
0.0183 0.3742 0.2848 0.6274 0.4301 0.6491
0.0354 0.3224 0.3025 0.6274 0.4301 0.6491
0.0669 0.3224 0.2722 0.7190 0.0000 -0.6950
0.0497 0.3742 0.2544 0.7190 0.0000 -0.6950
0.0669 0.3224 0.2722 0.7190 0.0000 -0.6950
0.0176 0.3224 0.2212 -0.6040 0.4948 -0.6248
0.0381 0.3742 0.2424 -0.6040 0.4948 -0.6248
0.0067 0.3742 0.2728 -0.6040 0.4948 -0.6248
0.0176 0.3224 0.2212 -0.6040 0.4948 -0.6248
0.0067 0.3742 0.2728 -0.6040 0.4948 -0.6248
-0.0138 0.3224 0.2516 -0.6040 0.4948 -0.6248
0.0354 0.3224 0.3025 0.0000 -1.0000 0.0000
0.0669 0.3224 0.2722 0.0000 -1.0000 0.0000
0.0176 0.3224 0.2212 0.0000 -1.0000 0.0000
0.0354 0.3224 0.3025 0.0000 -1.0000 0.0000
0.0176 0.3224 0.2212 0.0000 -1.0000 0.0000
-0.0138 0.3224 0.2516 0.0000 -1.0000 0.0000
0.0497 0.3742 0.2544 0.0000 1.0000 0.0000
0.0183 0.3742 0.2848 0.0000 1.0000 0.0000
0.0067 0.3742 0.2728 0.0000 1.0000 0.0000
0.0497 0.3742 0.2544 0.0000 1.0000 0.0000
0.0067 0.3742 0.2728 0.0000 1.0000 0.0000
0.0381 0.3742 0.2424 0.0000 1.0000 0.0000
0.2548 0.3224 0.2349 0.5188 0.4688 -0.7149
0.2387 0.3742 0.2572 0.5188 0.4688 -0.7149
0.2548 0.3224 0.2349 0.5188 0.4688 -0.7149
0.2195 0.3224 0.2093 -0.8093 -0.0000 -0.5873
0.2033 0.3742 0.2315 -0.8093 -0.0000 -0.5873
0.2195 0.3224 0.2093 -0.8093 -0.0000 -0.5873
0.1731 0.3224 0.2732 -0.4960 0.5357 0.6834
0.1924 0.3742 0.2466 -0.4960 0.5357 0.6834
0.2277 0.3742 0.2723 -0.4960 0.5357 0.6834
0.1731 0.3224 0.2732 -0.4960 0.5357 0.6834
0.2277 0.3742 0.2723 -0.4960 0.5357 0.6834
0.2085 0.3224 0.2988 -0.4960 0.5357 0.6834
0.2548 0.3224 0.2349 -0.0000 -1.0000 0.0000
0.2195 0.3224 0.2093 -0.0000 -1.0000 0.0000
0.1731 0.3224 0.2732 -0.0000 -1.0000 0.0000
0.2548 0.3224 0.2349 -0.0000 -1.0000 0.0000
0.1731 0.3224 0.2732 -0.0000 -1.0000 0.0000
0.2085 0.3224 0.2988 -0.0000 -1.0000 0.0000
0.2033 0.3742 0.2315 0.0000 1.0000 0.0000
0.2387 0.3742 0.2572 0.0000 1.0000 0.0000
0.2277 0.3742 0.2723 0.0000 1.0000 0.0000
0.2033 0.3742 0.2315 0.0000 1.0000 0.0000
0.2277 0.3742 0.2723 0.0000 1.0000 0.0000
0.1924 0.3742 0.2466 0.0000 1.0000 0.0000
-0.1851 0.3742 0.2009 -0.3259 0.5243 0.7867
-0.1679 0.3742 0.2043 -0.0000 0.5243 0.8515
-0.1851 0.3742 0.2009 -0.3259 0.5243 0.7867
-0.1997 0.3742 0.1912 -0.6021 0.5243 0.6021
-0.1851 0.3742 0.2009 -0.3259 0.5243 0.7867
-0.1997 0.3742 0.1912 -0.6021 0.5243 0.6021
-0.2094 0.3742 0.1766 -0.7867 0.5243 0.3259
-0.1997 0.3742 0.1912 -0.6021 0.5243 0.6021
-0.2094 0.3742 0.1766 -0.7867 0.5243 0.3259
-0.2128 0.3742 0.1594 -0.8515 0.5243 -0.0000
-0.2094 0.3742 0.1766 -0.7867 0.5243 0.3259
-0.2128 0.3742 0.1594 -0.8515 0.5243 -0.0000
-0.2094 0.3742 0.1422 -0.7867 0.5243 -0.3259
-0.2128 0.3742 0.1594 -0.8515 0.5243 -0.0000
-0.2094 0.3742 0.1422 -0.7867 0.5243 -0.3259
-0.1997 0.3742 0.1276 -0.6021 0.5243 -0.6021
-0.2094 0.3742 0.1422 -0.7867 0.5243 -0.3259
-0.1997 0.3742 0.1276 -0.6021 0.5243 -0.6021
-0.1851 0.3742 0.1178 -0.3259 0.5243 -0.7867
-0.1997 0.3742 0.1276 -0.6021 0.5243 -0.6021
-0.1851 0.3742 0.1178 -0.3259 0.5243 -0.7867
-0.1679 0.3742 0.1144 0.0000 0.5243 -0.8515
-0.1851 0.3742 0.1178 -0.3259 0.5243 -0.7867
-0.1679 0.3742 0.1144 0.0000 0.5243 -0.8515
-0.1507 0.3742 0.1178 0.3259 0.5243 -0.7867
-0.1679 0.3742 0.1144 0.0000 0.5243 -0.8515
-0.1507 0.3742 0.1178 0.3259 0.5243 -0.7867
-0.1361 0.3742 0.1276 0.6021 0.5243 -0.6021
-0.1507 0.3742 0.1178 0.3259 0.5243 -0.7867
-0.1361 0.3742 0.1276 0.6021 0.5243 -0.6021
-0.1263 0.3742 0.1422 0.7867 0.5243 -0.3259
-0.1361 0.3742 0.1276 0.6021 0.5243 -0.6021
-0.1263 0.3742 0.1422 0.7867 0.5243 -0.3259
-0.1229 0.3742 0.1594 0.8515 0.5243 0.0000
-0.1263 0.3742 0.1422 0.7867 0.5243 -0.3259
-0.1229 0.3742 0.1594 0.8515 0.5243 0.0000
-0.1263 0.3742 0.1766 0.7867 0.5243 0.3259
-0.1229 0.3742 0.1594 0.8515 0.5243 0.0000
-0.1263 0.3742 0.1766 0.7867 0.5243 0.3259
-0.1361 0.3742 0.1912 0.6021 0.5243 0.6021
-0.1263 0.3742 0.1766 0.7867 0.5243 0.3259
-0.1361 0.3742 0.1912 0.6021 0.5243 0.6021
-0.1507 0.3742 0.2009 0.3259 0.5243 0.7867
-0.1361 0.3742 0.1912 0.6021 0.5243 0.6021
-0.1507 0.3742 0.2009 0.3259 0.5243 0.7867
-0.1679 0.3742 0.2043 -0.0000 0.5243 0.8515
-0.1507 0.3742 0.2009 0.3259 0.5243 0.7867
-0.1679 0.3742 0.2043 -0.0000 0.5243 0.8515
-0.0093 0.3224 -0.0398 -0.0000 0.6953 0.7188
0.0084 0.3425 -0.0592 -0.0000 0.6953 0.7188
-0.0093 0.3224 -0.0398 -0.0000 0.6953 0.7188
0.0512 0.3224 -0.0398 0.7298 0.6837 0.0000
0.0324 0.3425 -0.0592 0.7298 0.6837 0.0000
0.0512 0.3224 -0.0398 0.7298 0.6837 0.0000
0.0512 0.3224 -0.0999 0.0000 0.6421 -0.7667
0.0324 0.3425 -0.0831 0.0000 0.6421 -0.7667
0.0084 0.3425 -0.0831 0.0000 0.6421 -0.7667
0.0512 0.3224 -0.0999 0.0000 0.6421 -0.7667
0.0084 0.3425 -0.0831 0.0000 0.6421 -0.7667
-0.0093 0.3224 -0.0999 0.0000 0.6421 -0.7667
0.0324 0.3425 -0.0592 0.0000 1.0000 0.0000
0.0084 0.3425 -0.0592 0.0000 1.0000 0.0000
0.0084 0.3425 -0.0831 0.0000 1.0000 0.0000
0.0324 0.3425 -0.0592 0.0000 1.0000 0.0000
0.0084 0.3425 -0.0831 0.0000 1.0000 0.0000
0.0324 0.3425 -0.0831 0.0000 1.0000 0.0000
-0.0093 0.3224 -0.1914 0.0000 0.6953 0.7188
0.0084 0.3425 -0.2108 0.0000 0.6953 0.7188
-0.0093 0.3224 -0.1914 0.0000 0.6953 0.7188
0.0512 0.3224 -0.1914 0.7298 0.6837 -0.0000
0.0324 0.3425 -0.2108 0.7298 0.6837 -0.0000
0.0512 0.3224 -0.1914 0.7298 0.6837 -0.0000
0.0512 0.3224 -0.2514 0.0000 0.6421 -0.7667
0.0324 0.3425 -0.2346 0.0000 0.6421 -0.7667
0.0084 0.3425 -0.2346 0.0000 0.6421 -0.7667
0.0512 0.3224 -0.2514 0.0000 0.6421 -0.7667
0.0084 0.3425 -0.2346 0.0000 0.6421 -0.7667
-0.0093 0.3224 -0.2514 0.0000 0.6421 -0.7667
0.0324 0.3425 -0.2108 0.0000 1.0000 0.0000
0.0084 0.3425 -0.2108 0.0000 1.0000 0.0000
0.0084 0.3425 -0.2346 0.0000 1.0000 0.0000
0.0324 0.3425 -0.2108 0.0000 1.0000 0.0000
0.0084 0.3425 -0.2346 0.0000 1.0000 0.0000
0.0324 0.3425 -0.2346 0.0000 1.0000 0.0000
0.1910 0.3224 -0.1914 0.0000 0.6953 0.7188
0.2087 0.3425 -0.2108 0.0000 0.6953 0.7188
0.1910 0.3224 -0.1914 0.0000 0.6953 0.7188
0.2515 0.3224 -0.1914 0.7298 0.6837 0.0000
0.2327 0.3425 -0.2108 0.7298 0.6837 0.0000
0.2515 0.3224 -0.1914 0.7298 0.6837 0.0000
0.2515 0.3224 -0.2514 0.0000 0.6421 -0.7667
0.2327 0.3425 -0.2346 0.0000 0.6421 -0.7667
0.2087 0.3425 -0.2346 0.0000 0.6421 -0.7667
0.2515 0.3224 -0.2514 0.0000 0.6421 -0.7667
0.2087 0.3425 -0.2346 0.0000 0.6421 -0.7667
0.1910 0.3224 -0.2514 0.0000 0.6421 -0.7667
0.2327 0.3425 -0.2108 0.0000 1.0000 0.0000
0.2087 0.3425 -0.2108 0.0000 1.0000 0.0000
0.2087 0.3425 -0.2346 0.0000 1.0000 0.0000
0.2327 0.3425 -0.2108 0.0000 1.0000 0.0000
0.2087 0.3425 -0.2346 0.0000 1.0000 0.0000
0.2327 0.3425 -0.2346 0.0000 1.0000 0.0000
0.1910 0.3224 -0.0398 0.0000 0.6953 0.7188
0.2087 0.3425 -0.0592 0.0000 0.6953 0.7188
0.1910 0.3224 -0.0398 0.0000 0.6953 0.7188
0.2515 0.3224 -0.0398 0.7298 0.6837 0.0000
0.2327 0.3425 -0.0592 0.7298 0.6837 0.0000
0.2515 0.3224 -0.0398 0.7298 0.6837 0.0000
0.2515 0.3224 -0.0999 0.0000 0.6421 -0.7667
0.2327 0.3425 -0.0831 0.0000 0.6421 -0.7667
0.2087 0.3425 -0.0831 0.0000 0.6421 -0.7667
0.2515 0.3224 -0.0999 0.0000 0.6421 -0.7667
0.2087 0.3425 -0.0831 0.0000 0.6421 -0.7667
0.1910 0.3224 -0.0999 0.0000 0.6421 -0.7667
0.2327 0.3425 -0.0592 0.0000 1.0000 0.0000
0.2087 0.3425 -0.0592 0.0000 1.0000 0.0000
0.2087 0.3425 -0.0831 0.0000 1.0000 0.0000
0.2327 0.3425 -0.0592 0.0000 1.0000 0.0000
0.2087 0.3425 -0.0831 0.0000 1.0000 0.0000
0.2327 0.3425 -0.0831 0.0000 1.0000 0.0000
-0.1033 0.3224 0.0068 -0.0000 0.0000 1.0000
-0.0868 0.3742 0.0068 -0.0000 0.0000 1.0000
-0.1033 0.3224 0.0068 -0.0000 0.0000 1.0000
-0.0586 0.3224 0.0068 0.9650 0.2624 -0.0000
-0.0727 0.3742 0.0068 0.9650 0.2624 -0.0000
-0.0586 0.3224 0.0068 0.9650 0.2624 -0.0000
-0.0586 0.3224 -0.0149 0.0000 0.0000 -1.0000
-0.0727 0.3742 -0.0149 0.0000 0.0000 -1.0000
-0.0868 0.3742 -0.0149 0.0000 0.0000 -1.0000
-0.0586 0.3224 -0.0149 0.0000 0.0000 -1.0000
-0.0868 0.3742 -0.0149 0.0000 0.0000 -1.0000
-0.1033 0.3224 -0.0149 0.0000 0.0000 -1.0000
-0.0727 0.3742 0.0068 -0.0000 1.0000 0.0000
-0.0868 0.3742 0.0068 -0.0000 1.0000 0.0000
-0.0868 0.3742 -0.0149 -0.0000 1.0000 0.0000
-0.0727 0.3742 0.0068 -0.0000 1.0000 0.0000
-0.0868 0.3742 -0.0149 -0.0000 1.0000 0.0000
-0.0727 0.3742 -0.0149 -0.0000 1.0000 0.0000
-0.1834 0.3224 0.0018 -0.0000 -0.0000 -1.0000
-0.1999 0.3742 0.0018 -0.0000 -0.0000 -1.0000
-0.1834 0.3224 0.0018 -0.0000 -0.0000 -1.0000
-0.2281 0.3224 0.0018 -0.9650 0.2624 -0.0000
-0.2140 0.3742 0.0018 -0.9650 0.2624 -0.0000
-0.2281 0.3224 0.0018 -0.9650 0.2624 -0.0000
-0.2281 0.3224 0.0235 0.0000 0.0000 1.0000
-0.2140 0.3742 0.0235 0.0000 0.0000 1.0000
-0.1999 0.3742 0.0235 0.0000 0.0000 1.0000
-0.2281 0.3224 0.0235 0.0000 0.0000 1.0000
-0.1999 0.3742 0.0235 0.0000 0.0000 1.0000
-0.1834 0.3224 0.0235 0.0000 0.0000 1.0000
-0.2140 0.3742 0.0018 0.0000 1.0000 0.0000
-0.1999 0.3742 0.0018 0.0000 1.0000 0.0000
-0.1999 0.3742 0.0235 0.0000 1.0000 0.0000
-0.2140 0.3742 0.0018 0.0000 1.0000 0.0000
-0.1999 0.3742 0.0235 0.0000 1.0000 0.0000
-0.2140 0.3742 0.0235 0.0000 1.0000 0.0000
0 3 1
0 2 3
112 7 113
114 6 7
115 5 116
117 4 5
118 120 119
121 123 122
124 126 125
127 129 128
130 132 131
133 135 134
8 11 9
8 10 11
136 15 137
138 14 15
139 13 140
141 12 13
142 144 143
145 147 146
148 150 149
151 153 152
154 156 155
157 159 158
16 19 17
16 18 19
160 23 161
162 22 23
163 21 164
165 20 21
166 168 167
169 171 170
172 174 173
175 177 176
178 180 179
181 183 182
24 27 25
24 26 27
184 31 185
186 30 31
187 29 188
189 28 29
190 192 191
193 195 194
196 198 197
199 201 200
202 204 203
205 207 206
49 50 48
50 52 51
52 54 53
54 56 55
56 58 57
58 60 59
60 62 61
62 49 63
49 52 50
52 56 54
56 60 58
60 49 62
49 56 52
56 49 60
208 32 209
210 33 32
211 33 212
213 34 33
214 34 215
216 35 34
217 35 218
219 36 35
220 36 221
222 37 36
223 37 224
225 38 37
226 38 227
228 39 38
229 39 230
231 40 39
232 40 233
234 41 40
235 41 236
237 42 41
238 42 239
240 43 42
241 43 242
243 44 43
244 44 245
246 45 44
247 45 248
249 46 45
250 46 251
252 47 46
253 47 254
255 32 47
64 67 65
64 66 67
256 71 257
258 70 71
259 69 260
261 68 69
262 264 263
265 267 266
268 270 269
271 273 272
72 75 73
72 74 75
274 79 275
276 78 79
277 77 278
279 76 77
280 282 281
283 285 284
286 288 287
289 291 290
80 83 81
80 82 83
292 87 293
294 86 87
295 85 296
297 84 85
298 300 299
301 303 302
304 306 305
307 309 308
88 91 89
88 90 91
310 95 311
312 94 95
313 93 314
315 92 93
316 318 317
319 321 320
322 324 323
325 327 326
96 99 97
96 98 99
328 103 329
330 102 103
331 101 332
333 100 101
334 336 335
337 339 338
340 342 341
343 345 344
104 107 105
104 106 107
346 111 347
348 110 111
349 109 350
351 108 109
352 354 353
355 357 356
358 360 359
361 363 362
MATERIALS 5
ALSEP_Antenna
ALSEP_White
ALSEP_Gold
ALSEP_Silver
ALSEP_Light
MATERIAL ALSEP_Antenna
0.800 0.800 0.800 1.000
1.000 1.000 1.000 1.000
1.000 1.000 1.000 1.000 10.000
0.000 0.000 0.000 0.000
MATERIAL ALSEP_White
0.800 0.800 0.800 1.000
1.000 1.000 1.000 1.000
1.000 1.000 1.000 1.000 0.000
0.000 0.000 0.000 1.000
MATERIAL ALSEP_Gold
0.800 0.800 0.800 1.000
1.000 1.000 1.000 1.000
1.000 1.000 1.000 1.000 100.000
0.000 0.000 0.000 0.500
MATERIAL ALSEP_Silver
0.800 0.800 0.800 1.000
1.000 1.000 1.000 1.000
1.000 1.000 1.000 1.000 100.000
0.000 0.000 0.000 0.500
MATERIAL ALSEP_Light
0.500 0.500 0.500 1.000
0.500 0.500 0.500 1.000
0.500 0.500 0.500 1.000 100.000
0.000 0.000 0.000 0.500
TEXTURES 3
ProjectApollo\ALSEP_Misc.dds
ProjectApollo\goldfoil.dds
ProjectApollo\silverfo.dds
