MSHX1
GROUPS 3
LABEL PSE
MATERIAL 1
TEXTURE 1
FLAG 0
GEOM 121 60
0.0000 -0.3609 0.1150 0.0000 0.0000 1.0000 1.0000 0.5000
0.0000 -0.0709 0.1150 0.0000 0.0000 1.0000 1.0000 0.0000
0.0440 -0.3609 0.1062 0.3827 0.0000 0.9239 0.9375 0.5000
0.0440 -0.0709 0.1062 0.3827 0.0000 0.9239 0.9375 0.0000
0.0813 -0.3609 0.0813 0.7071 0.0000 0.7071 0.8750 0.5000
0.0813 -0.0709 0.0813 0.7071 0.0000 0.7071 0.8750 0.0000
0.1062 -0.3609 0.0440 0.9239 0.0000 0.3827 0.8125 0.5000
0.1062 -0.0709 0.0440 0.9239 0.0000 0.3827 0.8125 0.0000
0.1150 -0.3609 -0.0000 1.0000 0.0000 0.0000 0.7500 0.5000
0.1150 -0.0709 -0.0000 1.0000 0.0000 0.0000 0.7500 0.0000
0.1062 -0.3609 -0.0440 0.9239 0.0000 -0.3827 0.6875 0.5000
0.1062 -0.0709 -0.0440 0.9239 0.0000 -0.3827 0.6875 0.0000
0.0813 -0.3609 -0.0813 0.7071 0.0000 -0.7071 0.6250 0.5000
0.0813 -0.0709 -0.0813 0.7071 0.0000 -0.7071 0.6250 0.0000
0.0440 -0.3609 -0.1062 0.3827 0.0000 -0.9239 0.5625 0.5000
0.0440 -0.0709 -0.1062 0.3827 0.0000 -0.9239 0.5625 0.0000
0.0000 -0.3609 -0.1150 0.0000 0.0000 -1.0000 0.5000 0.5000
0.0000 -0.0709 -0.1150 0.0000 0.0000 -1.0000 0.5000 0.0000
-0.0440 -0.3609 -0.1062 -0.3827 0.0000 -0.9239 0.4375 0.5000
-0.0440 -0.0709 -0.1062 -0.3827 0.0000 -0.9239 0.4375 0.0000
-0.0813 -0.3609 -0.0813 -0.7071 0.0000 -0.7071 0.3750 0.5000
-0.0813 -0.0709 -0.0813 -0.7071 0.0000 -0.7071 0.3750 0.0000
-0.1062 -0.3609 -0.0440 -0.9239 0.0000 -0.3827 0.3125 0.5000
-0.1062 -0.0709 -0.0440 -0.9239 0.0000 -0.3827 0.3125 0.0000
-0.1150 -0.3609 -0.0000 -1.0000 0.0000 0.0000 0.2500 0.5000
-0.1150 -0.0709 -0.0000 -1.0000 0.0000 0.0000 0.2500 0.0000
-0.1062 -0.3609 0.0440 -0.9239 0.0000 0.3827 0.1875 0.5000
-0.1062 -0.0709 0.0440 -0.9239 0.0000 0.3827 0.1875 0.0000
-0.0813 -0.3609 0.0813 -0.7071 0.0000 0.7071 0.1250 0.5000
-0.0813 -0.0709 0.0813 -0.7071 0.0000 0.7071 0.1250 0.0000
-0.0440 -0.3609 0.1062 -0.3827 0.0000 0.9239 0.0625 0.5000
-0.0440 -0.0709 0.1062 0.0000 1.0000 0.0000 0.1582 0.5283
0.0813 -0.0709 0.0813 0.0000 1.0000 0.0000 0.4197 0.5803
0.0440 -0.0709 0.1062 0.0000 1.0000 0.0000 0.3418 0.5283
0.0000 -0.0709 0.1150 0.0000 1.0000 0.0000 0.2500 0.5100
0.0000 -0.0709 0.1150 0.0000 1.0000 0.0000 0.2500 0.5100
-0.0813 -0.0709 0.0813 0.0000 1.0000 0.0000 0.0803 0.5803
-0.0813 -0.0709 0.0813 0.0000 1.0000 0.0000 0.0803 0.5803
-0.1062 -0.0709 0.0440 0.0000 1.0000 0.0000 0.0283 0.6582
-0.1150 -0.0709 -0.0000 0.0000 1.0000 0.0000 0.0100 0.7500
-0.1150 -0.0709 -0.0000 0.0000 1.0000 0.0000 0.0100 0.7500
-0.1062 -0.0709 -0.0440 0.0000 1.0000 0.0000 0.0283 0.8418
-0.0813 -0.0709 -0.0813 0.0000 1.0000 0.0000 0.0803 0.9197
-0.0813 -0.0709 -0.0813 0.0000 1.0000 0.0000 0.0803 0.9197
-0.0440 -0.0709 -0.1062 0.0000 1.0000 0.0000 0.1582 0.9717
0.0000 -0.0709 -0.1150 0.0000 1.0000 0.0000 0.2500 0.9900
0.0000 -0.0709 -0.1150 0.0000 1.0000 0.0000 0.2500 0.9900
0.0440 -0.0709 -0.1062 0.0000 1.0000 0.0000 0.3418 0.9717
0.0813 -0.0709 -0.0813 0.0000 1.0000 0.0000 0.4197 0.9197
0.0813 -0.0709 -0.0813 0.0000 1.0000 0.0000 0.4197 0.9197
0.1062 -0.0709 -0.0440 0.0000 1.0000 0.0000 0.4717 0.8418
0.1150 -0.0709 -0.0000 0.0000 1.0000 0.0000 0.4900 0.7500
0.1150 -0.0709 -0.0000 0.0000 1.0000 0.0000 0.4900 0.7500
0.1062 -0.0709 0.0440 0.0000 1.0000 0.0000 0.4717 0.6582
0.0813 -0.0709 0.0813 0.0000 1.0000 0.0000 0.4197 0.5803
0.0813 -0.0709 0.0813 0.0000 1.0000 0.0000 0.4197 0.5803
0.0000 -0.0709 0.1150 0.0000 1.0000 0.0000 0.2500 0.5100
-0.0813 -0.0709 0.0813 0.0000 1.0000 0.0000 0.0803 0.5803
-0.0813 -0.0709 0.0813 0.0000 1.0000 0.0000 0.0803 0.5803
-0.1150 -0.0709 -0.0000 0.0000 1.0000 0.0000 0.0100 0.7500
-0.0813 -0.0709 -0.0813 0.0000 1.0000 0.0000 0.0803 0.9197
-0.0813 -0.0709 -0.0813 0.0000 1.0000 0.0000 0.0803 0.9197
0.0000 -0.0709 -0.1150 0.0000 1.0000 0.0000 0.2500 0.9900
0.0813 -0.0709 -0.0813 0.0000 1.0000 0.0000 0.4197 0.9197
0.0813 -0.0709 -0.0813 0.0000 1.0000 0.0000 0.4197 0.9197
0.1150 -0.0709 -0.0000 0.0000 1.0000 0.0000 0.4900 0.7500
0.0813 -0.0709 0.0813 0.0000 1.0000 0.0000 0.4197 0.5803
0.0813 -0.0709 0.0813 0.0000 1.0000 0.0000 0.4197 0.5803
-0.0813 -0.0709 0.0813 0.0000 1.0000 0.0000 0.0803 0.5803
-0.0813 -0.0709 -0.0813 0.0000 1.0000 0.0000 0.0803 0.9197
-0.0813 -0.0709 -0.0813 0.0000 1.0000 0.0000 0.0803 0.9197
0.0813 -0.0709 -0.0813 0.0000 1.0000 0.0000 0.4197 0.9197
0.0813 -0.0709 0.0813 0.0000 1.0000 0.0000 0.4197 0.5803
-0.0440 -0.0709 0.1062 -0.3827 0.0000 0.9239 0.0625 0.0000
-0.0440 -0.0709 0.1062 -0.3827 0.0000 0.9239 0.0625 0.0000
-0.0440 -0.0709 0.1062 -0.3827 0.0000 0.9239 0.0625 0.0000
0.0000 -0.0709 0.1150 0.0000 0.0000 1.0000
0.0000 -0.0709 0.1150 0.0000 0.0000 1.0000
0.0000 -0.3609 0.1150 0.0000 0.0000 1.0000 0.0000 0.5000
-0.0440 -0.3609 0.1062 0.0000 -1.0000 0.0000 0.6582 0.5283
0.0000 -0.3609 0.1150 0.0000 -1.0000 0.0000 0.7500 0.5100
0.0440 -0.3609 0.1062 0.0000 -1.0000 0.0000 0.8418 0.5283
0.0440 -0.3609 0.1062 0.0000 -1.0000 0.0000 0.8418 0.5283
0.0813 -0.3609 0.0813 0.0000 -1.0000 0.0000 0.9197 0.5803
0.1062 -0.3609 0.0440 0.0000 -1.0000 0.0000 0.9717 0.6582
0.1062 -0.3609 0.0440 0.0000 -1.0000 0.0000 0.9717 0.6582
0.1150 -0.3609 -0.0000 0.0000 -1.0000 0.0000 0.9900 0.7500
0.1062 -0.3609 -0.0440 0.0000 -1.0000 0.0000 0.9717 0.8418
0.1062 -0.3609 -0.0440 0.0000 -1.0000 0.0000 0.9717 0.8418
0.0813 -0.3609 -0.0813 0.0000 -1.0000 0.0000 0.9197 0.9197
0.0440 -0.3609 -0.1062 0.0000 -1.0000 0.0000 0.8418 0.9717
0.0440 -0.3609 -0.1062 0.0000 -1.0000 0.0000 0.8418 0.9717
0.0000 -0.3609 -0.1150 0.0000 -1.0000 0.0000 0.7500 0.9900
-0.0440 -0.3609 -0.1062 0.0000 -1.0000 0.0000 0.6582 0.9717
-0.0440 -0.3609 -0.1062 0.0000 -1.0000 0.0000 0.6582 0.9717
-0.0813 -0.3609 -0.0813 0.0000 -1.0000 0.0000 0.5803 0.9197
-0.1062 -0.3609 -0.0440 0.0000 -1.0000 0.0000 0.5283 0.8418
-0.1062 -0.3609 -0.0440 0.0000 -1.0000 0.0000 0.5283 0.8418
-0.1150 -0.3609 -0.0000 0.0000 -1.0000 0.0000 0.5100 0.7500
-0.1062 -0.3609 0.0440 0.0000 -1.0000 0.0000 0.5283 0.6582
-0.1062 -0.3609 0.0440 0.0000 -1.0000 0.0000 0.5283 0.6582
-0.0813 -0.3609 0.0813 0.0000 -1.0000 0.0000 0.5803 0.5803
-0.0440 -0.3609 0.1062 0.0000 -1.0000 0.0000 0.6582 0.5283
-0.0440 -0.3609 0.1062 0.0000 -1.0000 0.0000 0.6582 0.5283
0.0440 -0.3609 0.1062 0.0000 -1.0000 0.0000 0.8418 0.5283
0.1062 -0.3609 0.0440 0.0000 -1.0000 0.0000 0.9717 0.6582
0.1062 -0.3609 0.0440 0.0000 -1.0000 0.0000 0.9717 0.6582
0.1062 -0.3609 -0.0440 0.0000 -1.0000 0.0000 0.9717 0.8418
0.0440 -0.3609 -0.1062 0.0000 -1.0000 0.0000 0.8418 0.9717
0.0440 -0.3609 -0.1062 0.0000 -1.0000 0.0000 0.8418 0.9717
-0.0440 -0.3609 -0.1062 0.0000 -1.0000 0.0000 0.6582 0.9717
-0.1062 -0.3609 -0.0440 0.0000 -1.0000 0.0000 0.5283 0.8418
-0.1062 -0.3609 -0.0440 0.0000 -1.0000 0.0000 0.5283 0.8418
-0.1062 -0.3609 0.0440 0.0000 -1.0000 0.0000 0.5283 0.6582
-0.0440 -0.3609 0.1062 0.0000 -1.0000 0.0000 0.6582 0.5283
-0.0440 -0.3609 0.1062 0.0000 -1.0000 0.0000 0.6582 0.5283
0.1062 -0.3609 0.0440 0.0000 -1.0000 0.0000 0.9717 0.6582
0.0440 -0.3609 -0.1062 0.0000 -1.0000 0.0000 0.8418 0.9717
0.0440 -0.3609 -0.1062 0.0000 -1.0000 0.0000 0.8418 0.9717
-0.1062 -0.3609 -0.0440 0.0000 -1.0000 0.0000 0.5283 0.8418
-0.0440 -0.3609 0.1062 0.0000 -1.0000 0.0000 0.6582 0.5283
0 3 1
0 2 3
2 5 3
2 4 5
4 7 5
4 6 7
6 9 7
6 8 9
8 11 9
8 10 11
10 13 11
10 12 13
12 15 13
12 14 15
14 17 15
14 16 17
16 19 17
16 18 19
18 21 19
18 20 21
20 23 21
20 22 23
22 25 23
22 24 25
24 27 25
24 26 27
26 29 27
26 28 29
32 34 33
35 36 31
37 39 38
40 42 41
43 45 44
46 48 47
49 51 50
52 54 53
55 57 56
58 60 59
61 63 62
64 66 65
67 69 68
70 72 71
28 73 29
28 30 74
30 76 75
30 78 77
79 81 80
82 84 83
85 87 86
88 90 89
91 93 92
94 96 95
97 99 98
100 102 101
103 105 104
106 108 107
109 111 110
112 114 113
115 117 116
118 120 119
LABEL PSE_Details
MATERIAL 2
TEXTURE 0
FLAG 0
GEOM 664 249
0.1122 -0.0710 -0.0103 0.1546 0.1627 -0.9745
-0.0475 -0.0710 -0.1025 0.7666 0.1630 -0.6211
-0.0654 -0.0710 -0.0922 -0.9215 0.1603 0.3537
-0.0654 -0.0710 0.0922 -0.9215 0.1603 -0.3537
-0.0285 -0.0710 -0.0000 -0.9215 0.1603 0.3537
-0.0475 -0.0710 0.1025 0.7666 0.1630 0.6211
0.0139 -0.0710 0.0245 0.7666 0.1630 0.6211
0.1122 -0.0710 0.0103 0.1546 0.1627 0.9745
0.0139 -0.0710 -0.0245 0.1546 0.1627 -0.9745
-0.0285 -0.0624 -0.0000 -0.9215 0.1603 0.3537
0.0139 -0.0624 0.0245 0.7666 0.1630 0.6211
0.0139 -0.0624 -0.0245 0.1546 0.1627 -0.9745
0.0988 -0.0624 -0.0096 0.1546 0.1627 -0.9745
0.0988 -0.0624 0.0096 0.1546 0.1627 0.9745
-0.0420 -0.0624 -0.0912 0.7666 0.1630 -0.6211
-0.0584 -0.0624 -0.0817 -0.9215 0.1603 0.3537
-0.0584 -0.0624 0.0817 -0.9215 0.1603 -0.3537
-0.0420 -0.0624 0.0912 0.7666 0.1630 0.6211
-0.0678 -0.3852 -0.0678 0.0000 -1.0000 0.0000
0.0678 -0.3852 -0.0678 0.0000 -1.0000 0.0000
-0.0678 -0.3852 0.0678 0.0000 -1.0000 0.0000
0.0678 -0.3852 0.0678 0.0000 -1.0000 0.0000
-0.0678 -0.3741 0.0678 0.0000 1.0000 0.0000
-0.0678 -0.3741 -0.0678 0.0000 1.0000 0.0000
0.0678 -0.3741 -0.0678 0.0000 1.0000 0.0000
0.0678 -0.3741 0.0678 0.0000 1.0000 0.0000
0.0311 -0.3764 0.0139 0.7071 -0.0000 -0.7071
0.1012 -0.3660 0.0840 0.0000 -1.0000 0.0000
0.0139 -0.3764 0.0311 -0.7071 0.0000 0.7071
0.0840 -0.3660 0.1012 0.0000 -1.0000 0.0000
0.0673 -0.3660 0.0501 0.0000 -1.0000 0.0000
0.0501 -0.3660 0.0673 0.0000 -1.0000 0.0000
0.0320 -0.3764 0.0492 0.2649 -0.9272 0.2649
0.0492 -0.3764 0.0320 0.2649 -0.9272 0.2649
0.0134 -0.3711 0.0306 0.0000 1.0000 0.0000
0.0306 -0.3711 0.0134 0.0000 1.0000 0.0000
0.0668 -0.3608 0.0496 -0.2649 0.9272 -0.2649
0.1012 -0.3608 0.0840 0.7071 -0.0000 -0.7071
0.0840 -0.3608 0.1012 -0.7071 0.0000 0.7071
0.0315 -0.3711 0.0487 -0.2649 0.9272 -0.2649
0.0487 -0.3711 0.0315 -0.2649 0.9272 -0.2649
0.0496 -0.3608 0.0668 -0.2649 0.9272 -0.2649
0.0139 -0.3764 -0.0311 -0.7071 -0.0000 -0.7071
0.0840 -0.3660 -0.1012 -0.0000 -1.0000 0.0000
0.0311 -0.3764 -0.0139 0.7071 -0.0000 0.7071
0.1012 -0.3660 -0.0840 -0.0000 -1.0000 0.0000
0.0501 -0.3660 -0.0673 -0.0000 -1.0000 0.0000
0.0673 -0.3660 -0.0501 -0.0000 -1.0000 0.0000
0.0492 -0.3764 -0.0320 0.2649 -0.9272 -0.2649
0.0320 -0.3764 -0.0492 0.2649 -0.9272 -0.2649
0.0306 -0.3711 -0.0134 -0.0000 1.0000 0.0000
0.0134 -0.3711 -0.0306 -0.0000 1.0000 0.0000
0.0496 -0.3608 -0.0668 -0.2649 0.9272 0.2649
0.0835 -0.3608 -0.1007 -0.7071 -0.0000 -0.7071
0.1007 -0.3608 -0.0835 0.7071 0.0000 0.7071
0.0487 -0.3711 -0.0315 -0.2649 0.9272 0.2649
0.0315 -0.3711 -0.0487 -0.2649 0.9272 0.2649
0.0668 -0.3608 -0.0496 -0.2649 0.9272 0.2649
-0.0139 -0.3764 0.0311 0.7071 0.0000 0.7071
-0.0840 -0.3660 0.1012 0.0000 -1.0000 0.0000
-0.0311 -0.3764 0.0139 -0.7071 0.0000 -0.7071
-0.1012 -0.3660 0.0840 0.0000 -1.0000 0.0000
-0.0501 -0.3660 0.0673 0.0000 -1.0000 0.0000
-0.0673 -0.3660 0.0501 0.0000 -1.0000 0.0000
-0.0492 -0.3764 0.0320 -0.2649 -0.9272 0.2649
-0.0320 -0.3764 0.0492 -0.2649 -0.9272 0.2649
-0.0306 -0.3711 0.0134 -0.0000 1.0000 0.0000
-0.0134 -0.3711 0.0306 -0.0000 1.0000 0.0000
-0.0496 -0.3608 0.0668 0.2649 0.9272 -0.2649
-0.0835 -0.3608 0.1007 0.7071 -0.0000 0.7071
-0.1007 -0.3608 0.0835 -0.7071 0.0000 -0.7071
-0.0487 -0.3711 0.0315 0.2649 0.9272 -0.2649
-0.0315 -0.3711 0.0487 0.2649 0.9272 -0.2649
-0.0668 -0.3608 0.0496 0.2649 0.9272 -0.2649
-0.0311 -0.3764 -0.0139 -0.7071 -0.0000 0.7071
-0.1012 -0.3660 -0.0840 -0.0000 -1.0000 0.0000
-0.0139 -0.3764 -0.0311 0.7071 0.0000 -0.7071
-0.0840 -0.3660 -0.1012 -0.0000 -1.0000 0.0000
-0.0673 -0.3660 -0.0501 -0.0000 -1.0000 0.0000
-0.0501 -0.3660 -0.0673 -0.0000 -1.0000 0.0000
-0.0320 -0.3764 -0.0492 -0.2649 -0.9272 -0.2649
-0.0492 -0.3764 -0.0320 -0.2649 -0.9272 -0.2649
-0.0134 -0.3711 -0.0306 0.0000 1.0000 0.0000
-0.0306 -0.3711 -0.0134 0.0000 1.0000 0.0000
-0.0668 -0.3608 -0.0496 0.2649 0.9272 0.2649
-0.1007 -0.3608 -0.0835 -0.7071 0.0000 0.7071
-0.0835 -0.3608 -0.1007 0.7071 0.0000 -0.7071
-0.0315 -0.3711 -0.0487 0.2649 0.9272 0.2649
-0.0487 -0.3711 -0.0315 0.2649 0.9272 0.2649
-0.0496 -0.3608 -0.0668 0.2649 0.9272 0.2649
0.0311 -0.3838 -0.0139 0.7071 0.0000 0.7071
0.0843 -0.3942 -0.0670 0.0000 1.0000 0.0000
0.0139 -0.3838 -0.0311 -0.7071 0.0000 -0.7071
0.0670 -0.3942 -0.0843 0.0000 1.0000 0.0000
0.0673 -0.3942 -0.0501 0.0000 1.0000 0.0000
0.0501 -0.3942 -0.0673 0.0000 1.0000 0.0000
0.0320 -0.3838 -0.0492 0.2649 0.9272 -0.2649
0.0492 -0.3838 -0.0320 0.2649 0.9272 -0.2649
0.0134 -0.3890 -0.0306 0.0000 -1.0000 0.0000
0.0306 -0.3890 -0.0134 0.0000 -1.0000 0.0000
0.0668 -0.3994 -0.0496 -0.2649 -0.9272 0.2649
0.0838 -0.3994 -0.0666 0.7071 0.0000 0.7071
0.0666 -0.3994 -0.0838 -0.7071 0.0000 -0.7071
0.0315 -0.3890 -0.0487 -0.2649 -0.9272 0.2649
0.0487 -0.3890 -0.0315 -0.2649 -0.9272 0.2649
0.0496 -0.3994 -0.0668 -0.2649 -0.9272 0.2649
0.0139 -0.3838 0.0311 -0.7071 0.0000 0.7071
0.0670 -0.3942 0.0843 -0.0000 1.0000 0.0000
0.0311 -0.3838 0.0139 0.7071 0.0000 -0.7071
0.0843 -0.3942 0.0670 -0.0000 1.0000 0.0000
0.0501 -0.3942 0.0673 -0.0000 1.0000 0.0000
0.0673 -0.3942 0.0501 -0.0000 1.0000 0.0000
0.0492 -0.3838 0.0320 0.2649 0.9272 0.2649
0.0320 -0.3838 0.0492 0.2649 0.9272 0.2649
0.0306 -0.3890 0.0134 0.0000 -1.0000 0.0000
0.0134 -0.3890 0.0306 0.0000 -1.0000 0.0000
0.0496 -0.3994 0.0668 -0.2649 -0.9272 -0.2649
0.0666 -0.3994 0.0838 -0.7071 0.0000 0.7071
0.0838 -0.3994 0.0666 0.7071 -0.0000 -0.7071
0.0487 -0.3890 0.0315 -0.2649 -0.9272 -0.2649
0.0315 -0.3890 0.0487 -0.2649 -0.9272 -0.2649
0.0668 -0.3994 0.0496 -0.2649 -0.9272 -0.2649
-0.0139 -0.3838 -0.0311 0.7071 -0.0000 -0.7071
-0.0670 -0.3942 -0.0843 -0.0000 1.0000 0.0000
-0.0311 -0.3838 -0.0139 -0.7071 0.0000 0.7071
-0.0843 -0.3942 -0.0670 -0.0000 1.0000 0.0000
-0.0501 -0.3942 -0.0673 -0.0000 1.0000 0.0000
-0.0673 -0.3942 -0.0501 -0.0000 1.0000 0.0000
-0.0492 -0.3838 -0.0320 -0.2649 0.9272 -0.2649
-0.0320 -0.3838 -0.0492 -0.2649 0.9272 -0.2649
-0.0306 -0.3890 -0.0134 -0.0000 -1.0000 0.0000
-0.0134 -0.3890 -0.0306 -0.0000 -1.0000 0.0000
-0.0496 -0.3994 -0.0668 0.2649 -0.9272 0.2649
-0.0666 -0.3994 -0.0838 0.7071 0.0000 -0.7071
-0.0838 -0.3994 -0.0666 -0.7071 -0.0000 0.7071
-0.0487 -0.3890 -0.0315 0.2649 -0.9272 0.2649
-0.0315 -0.3890 -0.0487 0.2649 -0.9272 0.2649
-0.0668 -0.3994 -0.0496 0.2649 -0.9272 0.2649
-0.0311 -0.3838 0.0139 -0.7071 0.0000 -0.7071
-0.0843 -0.3942 0.0670 0.0000 1.0000 0.0000
-0.0139 -0.3838 0.0311 0.7071 -0.0000 0.7071
-0.0670 -0.3942 0.0843 0.0000 1.0000 0.0000
-0.0673 -0.3942 0.0501 0.0000 1.0000 0.0000
-0.0501 -0.3942 0.0673 0.0000 1.0000 0.0000
-0.0320 -0.3838 0.0492 -0.2649 0.9272 0.2649
-0.0492 -0.3838 0.0320 -0.2649 0.9272 0.2649
-0.0134 -0.3890 0.0306 0.0000 -1.0000 0.0000
-0.0306 -0.3890 0.0134 0.0000 -1.0000 0.0000
-0.0668 -0.3994 0.0496 0.2649 -0.9272 -0.2649
-0.0838 -0.3994 0.0666 -0.7071 0.0000 -0.7071
-0.0666 -0.3994 0.0838 0.7071 0.0000 0.7071
-0.0315 -0.3890 0.0487 0.2649 -0.9272 -0.2649
-0.0487 -0.3890 0.0315 0.2649 -0.9272 -0.2649
-0.0496 -0.3994 0.0668 0.2649 -0.9272 -0.2649
0.0668 -0.3608 0.0496 0.0000 1.0000 0.0000
0.0496 -0.3608 0.0668 0.0000 1.0000 0.0000
0.0139 -0.0710 0.0245 0.1546 0.1627 0.9745
0.0139 -0.0624 0.0245 0.1546 0.1627 0.9745
0.0139 -0.0624 0.0245 0.1546 0.1627 0.9745
0.0139 -0.0710 -0.0245 0.7666 0.1630 -0.6211
0.0139 -0.0624 -0.0245 0.7666 0.1630 -0.6211
0.0139 -0.0624 -0.0245 0.7666 0.1630 -0.6211
-0.0285 -0.0710 -0.0000 -0.9215 0.1603 -0.3537
-0.0285 -0.0624 -0.0000 -0.9215 0.1603 -0.3537
-0.0285 -0.0624 -0.0000 -0.9215 0.1603 -0.3537
0.0139 -0.0624 -0.0245 -0.0000 1.0000 -0.0000
0.0139 -0.0624 0.0245 -0.0000 1.0000 -0.0000
-0.0285 -0.0624 -0.0000 -0.0000 1.0000 -0.0000
-0.0285 -0.0624 -0.0000 -0.0000 1.0000 -0.0000
-0.0584 -0.0624 -0.0817 -0.0000 1.0000 -0.0000
-0.0420 -0.0624 -0.0912 -0.0000 1.0000 -0.0000
-0.0285 -0.0624 -0.0000 -0.0000 1.0000 -0.0000
-0.0420 -0.0624 -0.0912 -0.0000 1.0000 -0.0000
0.0139 -0.0624 -0.0245 -0.0000 1.0000 -0.0000
-0.0584 -0.0624 0.0817 -0.0000 1.0000 0.0000
-0.0285 -0.0624 -0.0000 -0.0000 1.0000 0.0000
0.0139 -0.0624 0.0245 -0.0000 1.0000 0.0000
-0.0584 -0.0624 0.0817 -0.0000 1.0000 0.0000
0.0139 -0.0624 0.0245 -0.0000 1.0000 0.0000
-0.0420 -0.0624 0.0912 -0.0000 1.0000 0.0000
0.0988 -0.0624 0.0096 0.0000 1.0000 -0.0000
0.0139 -0.0624 0.0245 0.0000 1.0000 -0.0000
0.0139 -0.0624 -0.0245 0.0000 1.0000 -0.0000
0.0988 -0.0624 0.0096 0.0000 1.0000 -0.0000
0.0139 -0.0624 -0.0245 0.0000 1.0000 -0.0000
0.0988 -0.0624 -0.0096 0.0000 1.0000 -0.0000
0.1122 -0.0710 -0.0103 0.5384 0.8427 0.0000
0.1122 -0.0710 0.0103 0.5384 0.8427 0.0000
0.0988 -0.0624 0.0096 0.5384 0.8427 0.0000
0.1122 -0.0710 -0.0103 0.5384 0.8427 0.0000
0.0988 -0.0624 0.0096 0.5384 0.8427 0.0000
0.0988 -0.0624 -0.0096 0.5384 0.8427 0.0000
-0.0420 -0.0624 -0.0912 -0.2806 0.8276 -0.4861
-0.0584 -0.0624 -0.0817 -0.2806 0.8276 -0.4861
-0.0654 -0.0710 -0.0922 -0.2806 0.8276 -0.4861
-0.0420 -0.0624 -0.0912 -0.2806 0.8276 -0.4861
-0.0654 -0.0710 -0.0922 -0.2806 0.8276 -0.4861
-0.0475 -0.0710 -0.1025 -0.2806 0.8276 -0.4861
-0.0584 -0.0624 0.0817 -0.2806 0.8276 0.4861
-0.0420 -0.0624 0.0912 -0.2806 0.8276 0.4861
-0.0475 -0.0710 0.1025 -0.2806 0.8276 0.4861
-0.0584 -0.0624 0.0817 -0.2806 0.8276 0.4861
-0.0475 -0.0710 0.1025 -0.2806 0.8276 0.4861
-0.0654 -0.0710 0.0922 -0.2806 0.8276 0.4861
0.0678 -0.3852 0.0678 0.0000 0.0000 1.0000
-0.0678 -0.3852 0.0678 0.0000 0.0000 1.0000
-0.0678 -0.3741 0.0678 0.0000 0.0000 1.0000
0.0678 -0.3852 0.0678 0.0000 0.0000 1.0000
-0.0678 -0.3741 0.0678 0.0000 0.0000 1.0000
0.0678 -0.3741 0.0678 0.0000 0.0000 1.0000
-0.0678 -0.3852 -0.0678 0.0000 0.0000 -1.0000
0.0678 -0.3852 -0.0678 0.0000 0.0000 -1.0000
0.0678 -0.3741 -0.0678 0.0000 0.0000 -1.0000
-0.0678 -0.3852 -0.0678 0.0000 0.0000 -1.0000
0.0678 -0.3741 -0.0678 0.0000 0.0000 -1.0000
-0.0678 -0.3741 -0.0678 0.0000 0.0000 -1.0000
0.0678 -0.3852 -0.0678 1.0000 0.0000 0.0000
0.0678 -0.3852 0.0678 1.0000 0.0000 0.0000
0.0678 -0.3741 0.0678 1.0000 0.0000 0.0000
0.0678 -0.3852 -0.0678 1.0000 0.0000 0.0000
0.0678 -0.3741 0.0678 1.0000 0.0000 0.0000
0.0678 -0.3741 -0.0678 1.0000 0.0000 0.0000
-0.0678 -0.3852 0.0678 -1.0000 0.0000 0.0000
-0.0678 -0.3852 -0.0678 -1.0000 0.0000 0.0000
-0.0678 -0.3741 -0.0678 -1.0000 0.0000 0.0000
-0.0678 -0.3852 0.0678 -1.0000 0.0000 0.0000
-0.0678 -0.3741 -0.0678 -1.0000 0.0000 0.0000
-0.0678 -0.3741 0.0678 -1.0000 0.0000 0.0000
0.0501 -0.3660 0.0673 0.2649 -0.9272 0.2649
0.0501 -0.3660 0.0673 0.2649 -0.9272 0.2649
0.0673 -0.3660 0.0501 0.2649 -0.9272 0.2649
0.0487 -0.3711 0.0315 0.0000 1.0000 0.0000
0.0315 -0.3711 0.0487 0.0000 1.0000 0.0000
0.0315 -0.3711 0.0487 0.0000 1.0000 0.0000
0.0501 -0.3660 0.0673 -0.7071 0.0000 0.7071
0.0320 -0.3764 0.0492 -0.7071 0.0000 0.7071
0.0315 -0.3711 0.0487 -0.7071 0.0000 0.7071
0.0501 -0.3660 0.0673 -0.7071 0.0000 0.7071
0.0315 -0.3711 0.0487 -0.7071 0.0000 0.7071
0.0496 -0.3608 0.0668 -0.7071 0.0000 0.7071
0.0840 -0.3660 0.1012 -0.7071 0.0000 0.7071
0.0501 -0.3660 0.0673 -0.7071 0.0000 0.7071
0.0496 -0.3608 0.0668 -0.7071 0.0000 0.7071
0.0840 -0.3660 0.1012 -0.7071 0.0000 0.7071
0.0496 -0.3608 0.0668 -0.7071 0.0000 0.7071
0.0320 -0.3764 0.0492 -0.7071 0.0000 0.7071
0.0134 -0.3711 0.0306 -0.7071 0.0000 0.7071
0.0320 -0.3764 0.0492 -0.7071 0.0000 0.7071
0.0134 -0.3711 0.0306 -0.7071 0.0000 0.7071
0.0315 -0.3711 0.0487 -0.7071 0.0000 0.7071
0.0673 -0.3660 0.0501 0.7071 -0.0000 -0.7071
0.1012 -0.3660 0.0840 0.7071 -0.0000 -0.7071
0.0673 -0.3660 0.0501 0.7071 -0.0000 -0.7071
0.0668 -0.3608 0.0496 0.7071 -0.0000 -0.7071
0.0492 -0.3764 0.0320 0.7071 -0.0000 -0.7071
0.0487 -0.3711 0.0315 0.7071 -0.0000 -0.7071
0.0487 -0.3711 0.0315 0.7071 -0.0000 -0.7071
0.0306 -0.3711 0.0134 0.7071 -0.0000 -0.7071
0.0492 -0.3764 0.0320 0.7071 0.0000 -0.7071
0.0673 -0.3660 0.0501 0.7071 0.0000 -0.7071
0.0668 -0.3608 0.0496 0.7071 0.0000 -0.7071
0.0492 -0.3764 0.0320 0.7071 0.0000 -0.7071
0.0668 -0.3608 0.0496 0.7071 0.0000 -0.7071
0.0487 -0.3711 0.0315 0.7071 0.0000 -0.7071
0.1012 -0.3660 0.0840 0.7071 0.0000 0.7071
0.0840 -0.3660 0.1012 0.7071 0.0000 0.7071
0.0840 -0.3608 0.1012 0.7071 0.0000 0.7071
0.1012 -0.3660 0.0840 0.7071 0.0000 0.7071
0.0840 -0.3608 0.1012 0.7071 0.0000 0.7071
0.1012 -0.3608 0.0840 0.7071 0.0000 0.7071
0.0139 -0.3764 0.0311 -0.7009 -0.1323 -0.7009
0.0311 -0.3764 0.0139 -0.7009 -0.1323 -0.7009
0.0306 -0.3711 0.0134 -0.7009 -0.1323 -0.7009
0.0139 -0.3764 0.0311 -0.7009 -0.1323 -0.7009
0.0306 -0.3711 0.0134 -0.7009 -0.1323 -0.7009
0.0134 -0.3711 0.0306 -0.7009 -0.1323 -0.7009
0.0673 -0.3660 -0.0501 0.2649 -0.9272 -0.2649
0.0673 -0.3660 -0.0501 0.2649 -0.9272 -0.2649
0.0501 -0.3660 -0.0673 0.2649 -0.9272 -0.2649
0.0315 -0.3711 -0.0487 -0.0000 1.0000 0.0000
0.0487 -0.3711 -0.0315 -0.0000 1.0000 0.0000
0.0487 -0.3711 -0.0315 -0.0000 1.0000 0.0000
0.0673 -0.3660 -0.0501 0.7071 0.0000 0.7071
0.0492 -0.3764 -0.0320 0.7071 0.0000 0.7071
0.0487 -0.3711 -0.0315 0.7071 0.0000 0.7071
0.0673 -0.3660 -0.0501 0.7071 0.0000 0.7071
0.0487 -0.3711 -0.0315 0.7071 0.0000 0.7071
0.0668 -0.3608 -0.0496 0.7071 0.0000 0.7071
0.1012 -0.3660 -0.0840 0.7071 0.0000 0.7071
0.0673 -0.3660 -0.0501 0.7071 0.0000 0.7071
0.0668 -0.3608 -0.0496 0.7071 0.0000 0.7071
0.1012 -0.3660 -0.0840 0.7071 0.0000 0.7071
0.0668 -0.3608 -0.0496 0.7071 0.0000 0.7071
0.0492 -0.3764 -0.0320 0.7071 -0.0000 0.7071
0.0306 -0.3711 -0.0134 0.7071 -0.0000 0.7071
0.0492 -0.3764 -0.0320 0.7071 -0.0000 0.7071
0.0306 -0.3711 -0.0134 0.7071 -0.0000 0.7071
0.0487 -0.3711 -0.0315 0.7071 -0.0000 0.7071
0.0501 -0.3660 -0.0673 -0.7071 -0.0000 -0.7071
0.0840 -0.3660 -0.1012 -0.7071 -0.0000 -0.7071
0.0501 -0.3660 -0.0673 -0.7071 -0.0000 -0.7071
0.0496 -0.3608 -0.0668 -0.7071 -0.0000 -0.7071
0.0320 -0.3764 -0.0492 -0.7071 -0.0000 -0.7071
0.0315 -0.3711 -0.0487 -0.7071 -0.0000 -0.7071
0.0315 -0.3711 -0.0487 -0.7071 -0.0000 -0.7071
0.0134 -0.3711 -0.0306 -0.7071 -0.0000 -0.7071
0.0320 -0.3764 -0.0492 -0.7071 -0.0000 -0.7071
0.0501 -0.3660 -0.0673 -0.7071 -0.0000 -0.7071
0.0496 -0.3608 -0.0668 -0.7071 -0.0000 -0.7071
0.0320 -0.3764 -0.0492 -0.7071 -0.0000 -0.7071
0.0496 -0.3608 -0.0668 -0.7071 -0.0000 -0.7071
0.0315 -0.3711 -0.0487 -0.7071 -0.0000 -0.7071
0.0840 -0.3660 -0.1012 0.7009 0.1323 -0.7009
0.1012 -0.3660 -0.0840 0.7009 0.1323 -0.7009
0.1007 -0.3608 -0.0835 0.7009 0.1323 -0.7009
0.0840 -0.3660 -0.1012 0.7009 0.1323 -0.7009
0.1007 -0.3608 -0.0835 0.7009 0.1323 -0.7009
0.0835 -0.3608 -0.1007 0.7009 0.1323 -0.7009
0.0311 -0.3764 -0.0139 -0.7009 -0.1323 0.7009
0.0139 -0.3764 -0.0311 -0.7009 -0.1323 0.7009
0.0134 -0.3711 -0.0306 -0.7009 -0.1323 0.7009
0.0311 -0.3764 -0.0139 -0.7009 -0.1323 0.7009
0.0134 -0.3711 -0.0306 -0.7009 -0.1323 0.7009
0.0306 -0.3711 -0.0134 -0.7009 -0.1323 0.7009
-0.0673 -0.3660 0.0501 -0.2649 -0.9272 0.2649
-0.0673 -0.3660 0.0501 -0.2649 -0.9272 0.2649
-0.0501 -0.3660 0.0673 -0.2649 -0.9272 0.2649
-0.0315 -0.3711 0.0487 -0.0000 1.0000 0.0000
-0.0487 -0.3711 0.0315 -0.0000 1.0000 0.0000
-0.0487 -0.3711 0.0315 -0.0000 1.0000 0.0000
-0.0673 -0.3660 0.0501 -0.7071 -0.0000 -0.7071
-0.0492 -0.3764 0.0320 -0.7071 -0.0000 -0.7071
-0.0487 -0.3711 0.0315 -0.7071 -0.0000 -0.7071
-0.0673 -0.3660 0.0501 -0.7071 -0.0000 -0.7071
-0.0487 -0.3711 0.0315 -0.7071 -0.0000 -0.7071
-0.0668 -0.3608 0.0496 -0.7071 -0.0000 -0.7071
-0.1012 -0.3660 0.0840 -0.7071 0.0000 -0.7071
-0.0673 -0.3660 0.0501 -0.7071 0.0000 -0.7071
-0.0668 -0.3608 0.0496 -0.7071 0.0000 -0.7071
-0.1012 -0.3660 0.0840 -0.7071 0.0000 -0.7071
-0.0668 -0.3608 0.0496 -0.7071 0.0000 -0.7071
-0.0492 -0.3764 0.0320 -0.7071 0.0000 -0.7071
-0.0306 -0.3711 0.0134 -0.7071 0.0000 -0.7071
-0.0492 -0.3764 0.0320 -0.7071 0.0000 -0.7071
-0.0306 -0.3711 0.0134 -0.7071 0.0000 -0.7071
-0.0487 -0.3711 0.0315 -0.7071 0.0000 -0.7071
-0.0501 -0.3660 0.0673 0.7071 -0.0000 0.7071
-0.0840 -0.3660 0.1012 0.7071 -0.0000 0.7071
-0.0501 -0.3660 0.0673 0.7071 -0.0000 0.7071
-0.0496 -0.3608 0.0668 0.7071 -0.0000 0.7071
-0.0320 -0.3764 0.0492 0.7071 0.0000 0.7071
-0.0315 -0.3711 0.0487 0.7071 0.0000 0.7071
-0.0315 -0.3711 0.0487 0.7071 0.0000 0.7071
-0.0134 -0.3711 0.0306 0.7071 0.0000 0.7071
-0.0320 -0.3764 0.0492 0.7071 -0.0000 0.7071
-0.0501 -0.3660 0.0673 0.7071 -0.0000 0.7071
-0.0496 -0.3608 0.0668 0.7071 -0.0000 0.7071
-0.0320 -0.3764 0.0492 0.7071 -0.0000 0.7071
-0.0496 -0.3608 0.0668 0.7071 -0.0000 0.7071
-0.0315 -0.3711 0.0487 0.7071 -0.0000 0.7071
-0.0840 -0.3660 0.1012 -0.7009 0.1323 0.7009
-0.1012 -0.3660 0.0840 -0.7009 0.1323 0.7009
-0.1007 -0.3608 0.0835 -0.7009 0.1323 0.7009
-0.0840 -0.3660 0.1012 -0.7009 0.1323 0.7009
-0.1007 -0.3608 0.0835 -0.7009 0.1323 0.7009
-0.0835 -0.3608 0.1007 -0.7009 0.1323 0.7009
-0.0311 -0.3764 0.0139 0.7009 -0.1323 -0.7009
-0.0139 -0.3764 0.0311 0.7009 -0.1323 -0.7009
-0.0134 -0.3711 0.0306 0.7009 -0.1323 -0.7009
-0.0311 -0.3764 0.0139 0.7009 -0.1323 -0.7009
-0.0134 -0.3711 0.0306 0.7009 -0.1323 -0.7009
-0.0306 -0.3711 0.0134 0.7009 -0.1323 -0.7009
-0.0501 -0.3660 -0.0673 -0.2649 -0.9272 -0.2649
-0.0501 -0.3660 -0.0673 -0.2649 -0.9272 -0.2649
-0.0673 -0.3660 -0.0501 -0.2649 -0.9272 -0.2649
-0.0487 -0.3711 -0.0315 0.0000 1.0000 0.0000
-0.0315 -0.3711 -0.0487 0.0000 1.0000 0.0000
-0.0315 -0.3711 -0.0487 0.0000 1.0000 0.0000
-0.0501 -0.3660 -0.0673 0.7071 0.0000 -0.7071
-0.0320 -0.3764 -0.0492 0.7071 0.0000 -0.7071
-0.0315 -0.3711 -0.0487 0.7071 0.0000 -0.7071
-0.0501 -0.3660 -0.0673 0.7071 0.0000 -0.7071
-0.0315 -0.3711 -0.0487 0.7071 0.0000 -0.7071
-0.0496 -0.3608 -0.0668 0.7071 0.0000 -0.7071
-0.0840 -0.3660 -0.1012 0.7071 0.0000 -0.7071
-0.0501 -0.3660 -0.0673 0.7071 0.0000 -0.7071
-0.0496 -0.3608 -0.0668 0.7071 0.0000 -0.7071
-0.0840 -0.3660 -0.1012 0.7071 0.0000 -0.7071
-0.0496 -0.3608 -0.0668 0.7071 0.0000 -0.7071
-0.0320 -0.3764 -0.0492 0.7071 0.0000 -0.7071
-0.0134 -0.3711 -0.0306 0.7071 0.0000 -0.7071
-0.0320 -0.3764 -0.0492 0.7071 0.0000 -0.7071
-0.0134 -0.3711 -0.0306 0.7071 0.0000 -0.7071
-0.0315 -0.3711 -0.0487 0.7071 0.0000 -0.7071
-0.0673 -0.3660 -0.0501 -0.7071 0.0000 0.7071
-0.1012 -0.3660 -0.0840 -0.7071 0.0000 0.7071
-0.0673 -0.3660 -0.0501 -0.7071 0.0000 0.7071
-0.0668 -0.3608 -0.0496 -0.7071 0.0000 0.7071
-0.0492 -0.3764 -0.0320 -0.7071 -0.0000 0.7071
-0.0487 -0.3711 -0.0315 -0.7071 -0.0000 0.7071
-0.0487 -0.3711 -0.0315 -0.7071 -0.0000 0.7071
-0.0306 -0.3711 -0.0134 -0.7071 -0.0000 0.7071
-0.0492 -0.3764 -0.0320 -0.7071 0.0000 0.7071
-0.0673 -0.3660 -0.0501 -0.7071 0.0000 0.7071
-0.0668 -0.3608 -0.0496 -0.7071 0.0000 0.7071
-0.0492 -0.3764 -0.0320 -0.7071 0.0000 0.7071
-0.0668 -0.3608 -0.0496 -0.7071 0.0000 0.7071
-0.0487 -0.3711 -0.0315 -0.7071 0.0000 0.7071
-0.1012 -0.3660 -0.0840 -0.7009 0.1323 -0.7009
-0.0840 -0.3660 -0.1012 -0.7009 0.1323 -0.7009
-0.0835 -0.3608 -0.1007 -0.7009 0.1323 -0.7009
-0.1012 -0.3660 -0.0840 -0.7009 0.1323 -0.7009
-0.0835 -0.3608 -0.1007 -0.7009 0.1323 -0.7009
-0.1007 -0.3608 -0.0835 -0.7009 0.1323 -0.7009
-0.0139 -0.3764 -0.0311 0.7009 -0.1323 0.7009
-0.0311 -0.3764 -0.0139 0.7009 -0.1323 0.7009
-0.0306 -0.3711 -0.0134 0.7009 -0.1323 0.7009
-0.0139 -0.3764 -0.0311 0.7009 -0.1323 0.7009
-0.0306 -0.3711 -0.0134 0.7009 -0.1323 0.7009
-0.0134 -0.3711 -0.0306 0.7009 -0.1323 0.7009
0.0501 -0.3942 -0.0673 0.2649 0.9272 -0.2649
0.0501 -0.3942 -0.0673 0.2649 0.9272 -0.2649
0.0673 -0.3942 -0.0501 0.2649 0.9272 -0.2649
0.0487 -0.3890 -0.0315 0.0000 -1.0000 0.0000
0.0315 -0.3890 -0.0487 0.0000 -1.0000 0.0000
0.0315 -0.3890 -0.0487 0.0000 -1.0000 0.0000
0.0501 -0.3942 -0.0673 -0.7071 0.0000 -0.7071
0.0320 -0.3838 -0.0492 -0.7071 0.0000 -0.7071
0.0315 -0.3890 -0.0487 -0.7071 0.0000 -0.7071
0.0501 -0.3942 -0.0673 -0.7071 0.0000 -0.7071
0.0315 -0.3890 -0.0487 -0.7071 0.0000 -0.7071
0.0496 -0.3994 -0.0668 -0.7071 0.0000 -0.7071
0.0670 -0.3942 -0.0843 -0.7071 0.0000 -0.7071
0.0501 -0.3942 -0.0673 -0.7071 0.0000 -0.7071
0.0496 -0.3994 -0.0668 -0.7071 0.0000 -0.7071
0.0670 -0.3942 -0.0843 -0.7071 0.0000 -0.7071
0.0496 -0.3994 -0.0668 -0.7071 0.0000 -0.7071
0.0320 -0.3838 -0.0492 -0.7071 0.0000 -0.7071
0.0134 -0.3890 -0.0306 -0.7071 0.0000 -0.7071
0.0320 -0.3838 -0.0492 -0.7071 0.0000 -0.7071
0.0134 -0.3890 -0.0306 -0.7071 0.0000 -0.7071
0.0315 -0.3890 -0.0487 -0.7071 0.0000 -0.7071
0.0673 -0.3942 -0.0501 0.7071 0.0000 0.7071
0.0843 -0.3942 -0.0670 0.7071 0.0000 0.7071
0.0673 -0.3942 -0.0501 0.7071 0.0000 0.7071
0.0668 -0.3994 -0.0496 0.7071 0.0000 0.7071
0.0492 -0.3838 -0.0320 0.7071 0.0000 0.7071
0.0487 -0.3890 -0.0315 0.7071 0.0000 0.7071
0.0487 -0.3890 -0.0315 0.7071 0.0000 0.7071
0.0306 -0.3890 -0.0134 0.7071 0.0000 0.7071
0.0492 -0.3838 -0.0320 0.7071 -0.0000 0.7071
0.0673 -0.3942 -0.0501 0.7071 -0.0000 0.7071
0.0668 -0.3994 -0.0496 0.7071 -0.0000 0.7071
0.0492 -0.3838 -0.0320 0.7071 -0.0000 0.7071
0.0668 -0.3994 -0.0496 0.7071 -0.0000 0.7071
0.0487 -0.3890 -0.0315 0.7071 -0.0000 0.7071
0.0843 -0.3942 -0.0670 0.7009 -0.1323 -0.7009
0.0670 -0.3942 -0.0843 0.7009 -0.1323 -0.7009
0.0666 -0.3994 -0.0838 0.7009 -0.1323 -0.7009
0.0843 -0.3942 -0.0670 0.7009 -0.1323 -0.7009
0.0666 -0.3994 -0.0838 0.7009 -0.1323 -0.7009
0.0838 -0.3994 -0.0666 0.7009 -0.1323 -0.7009
0.0139 -0.3838 -0.0311 -0.7009 0.1323 0.7009
0.0311 -0.3838 -0.0139 -0.7009 0.1323 0.7009
0.0306 -0.3890 -0.0134 -0.7009 0.1323 0.7009
0.0139 -0.3838 -0.0311 -0.7009 0.1323 0.7009
0.0306 -0.3890 -0.0134 -0.7009 0.1323 0.7009
0.0134 -0.3890 -0.0306 -0.7009 0.1323 0.7009
0.0673 -0.3942 0.0501 0.2649 0.9272 0.2649
0.0673 -0.3942 0.0501 0.2649 0.9272 0.2649
0.0501 -0.3942 0.0673 0.2649 0.9272 0.2649
0.0315 -0.3890 0.0487 0.0000 -1.0000 0.0000
0.0487 -0.3890 0.0315 0.0000 -1.0000 0.0000
0.0487 -0.3890 0.0315 0.0000 -1.0000 0.0000
0.0673 -0.3942 0.0501 0.7071 0.0000 -0.7071
0.0492 -0.3838 0.0320 0.7071 0.0000 -0.7071
0.0487 -0.3890 0.0315 0.7071 0.0000 -0.7071
0.0673 -0.3942 0.0501 0.7071 0.0000 -0.7071
0.0487 -0.3890 0.0315 0.7071 0.0000 -0.7071
0.0668 -0.3994 0.0496 0.7071 0.0000 -0.7071
0.0843 -0.3942 0.0670 0.7071 -0.0000 -0.7071
0.0673 -0.3942 0.0501 0.7071 -0.0000 -0.7071
0.0668 -0.3994 0.0496 0.7071 -0.0000 -0.7071
0.0843 -0.3942 0.0670 0.7071 -0.0000 -0.7071
0.0668 -0.3994 0.0496 0.7071 -0.0000 -0.7071
0.0492 -0.3838 0.0320 0.7071 0.0000 -0.7071
0.0306 -0.3890 0.0134 0.7071 0.0000 -0.7071
0.0492 -0.3838 0.0320 0.7071 0.0000 -0.7071
0.0306 -0.3890 0.0134 0.7071 0.0000 -0.7071
0.0487 -0.3890 0.0315 0.7071 0.0000 -0.7071
0.0501 -0.3942 0.0673 -0.7071 0.0000 0.7071
0.0670 -0.3942 0.0843 -0.7071 0.0000 0.7071
0.0501 -0.3942 0.0673 -0.7071 0.0000 0.7071
0.0496 -0.3994 0.0668 -0.7071 0.0000 0.7071
0.0320 -0.3838 0.0492 -0.7071 0.0000 0.7071
0.0315 -0.3890 0.0487 -0.7071 0.0000 0.7071
0.0315 -0.3890 0.0487 -0.7071 0.0000 0.7071
0.0134 -0.3890 0.0306 -0.7071 0.0000 0.7071
0.0320 -0.3838 0.0492 -0.7071 0.0000 0.7071
0.0501 -0.3942 0.0673 -0.7071 0.0000 0.7071
0.0496 -0.3994 0.0668 -0.7071 0.0000 0.7071
0.0320 -0.3838 0.0492 -0.7071 0.0000 0.7071
0.0496 -0.3994 0.0668 -0.7071 0.0000 0.7071
0.0315 -0.3890 0.0487 -0.7071 0.0000 0.7071
0.0670 -0.3942 0.0843 0.7009 -0.1323 0.7009
0.0843 -0.3942 0.0670 0.7009 -0.1323 0.7009
0.0838 -0.3994 0.0666 0.7009 -0.1323 0.7009
0.0670 -0.3942 0.0843 0.7009 -0.1323 0.7009
0.0838 -0.3994 0.0666 0.7009 -0.1323 0.7009
0.0666 -0.3994 0.0838 0.7009 -0.1323 0.7009
0.0311 -0.3838 0.0139 -0.7009 0.1323 -0.7009
0.0139 -0.3838 0.0311 -0.7009 0.1323 -0.7009
0.0134 -0.3890 0.0306 -0.7009 0.1323 -0.7009
0.0311 -0.3838 0.0139 -0.7009 0.1323 -0.7009
0.0134 -0.3890 0.0306 -0.7009 0.1323 -0.7009
0.0306 -0.3890 0.0134 -0.7009 0.1323 -0.7009
-0.0673 -0.3942 -0.0501 -0.2649 0.9272 -0.2649
-0.0673 -0.3942 -0.0501 -0.2649 0.9272 -0.2649
-0.0501 -0.3942 -0.0673 -0.2649 0.9272 -0.2649
-0.0315 -0.3890 -0.0487 -0.0000 -1.0000 0.0000
-0.0487 -0.3890 -0.0315 -0.0000 -1.0000 0.0000
-0.0487 -0.3890 -0.0315 -0.0000 -1.0000 0.0000
-0.0673 -0.3942 -0.0501 -0.7071 -0.0000 0.7071
-0.0492 -0.3838 -0.0320 -0.7071 -0.0000 0.7071
-0.0487 -0.3890 -0.0315 -0.7071 -0.0000 0.7071
-0.0673 -0.3942 -0.0501 -0.7071 -0.0000 0.7071
-0.0487 -0.3890 -0.0315 -0.7071 -0.0000 0.7071
-0.0668 -0.3994 -0.0496 -0.7071 -0.0000 0.7071
-0.0843 -0.3942 -0.0670 -0.7071 -0.0000 0.7071
-0.0673 -0.3942 -0.0501 -0.7071 -0.0000 0.7071
-0.0668 -0.3994 -0.0496 -0.7071 -0.0000 0.7071
-0.0843 -0.3942 -0.0670 -0.7071 -0.0000 0.7071
-0.0668 -0.3994 -0.0496 -0.7071 -0.0000 0.7071
-0.0492 -0.3838 -0.0320 -0.7071 0.0000 0.7071
-0.0306 -0.3890 -0.0134 -0.7071 0.0000 0.7071
-0.0492 -0.3838 -0.0320 -0.7071 0.0000 0.7071
-0.0306 -0.3890 -0.0134 -0.7071 0.0000 0.7071
-0.0487 -0.3890 -0.0315 -0.7071 0.0000 0.7071
-0.0501 -0.3942 -0.0673 0.7071 0.0000 -0.7071
-0.0670 -0.3942 -0.0843 0.7071 0.0000 -0.7071
-0.0501 -0.3942 -0.0673 0.7071 0.0000 -0.7071
-0.0496 -0.3994 -0.0668 0.7071 0.0000 -0.7071
-0.0320 -0.3838 -0.0492 0.7071 -0.0000 -0.7071
-0.0315 -0.3890 -0.0487 0.7071 -0.0000 -0.7071
-0.0315 -0.3890 -0.0487 0.7071 -0.0000 -0.7071
-0.0134 -0.3890 -0.0306 0.7071 -0.0000 -0.7071
-0.0320 -0.3838 -0.0492 0.7071 0.0000 -0.7071
-0.0501 -0.3942 -0.0673 0.7071 0.0000 -0.7071
-0.0496 -0.3994 -0.0668 0.7071 0.0000 -0.7071
-0.0320 -0.3838 -0.0492 0.7071 0.0000 -0.7071
-0.0496 -0.3994 -0.0668 0.7071 0.0000 -0.7071
-0.0315 -0.3890 -0.0487 0.7071 0.0000 -0.7071
-0.0670 -0.3942 -0.0843 -0.7009 -0.1323 -0.7009
-0.0843 -0.3942 -0.0670 -0.7009 -0.1323 -0.7009
-0.0838 -0.3994 -0.0666 -0.7009 -0.1323 -0.7009
-0.0670 -0.3942 -0.0843 -0.7009 -0.1323 -0.7009
-0.0838 -0.3994 -0.0666 -0.7009 -0.1323 -0.7009
-0.0666 -0.3994 -0.0838 -0.7009 -0.1323 -0.7009
-0.0311 -0.3838 -0.0139 0.7009 0.1323 0.7009
-0.0139 -0.3838 -0.0311 0.7009 0.1323 0.7009
-0.0134 -0.3890 -0.0306 0.7009 0.1323 0.7009
-0.0311 -0.3838 -0.0139 0.7009 0.1323 0.7009
-0.0134 -0.3890 -0.0306 0.7009 0.1323 0.7009
-0.0306 -0.3890 -0.0134 0.7009 0.1323 0.7009
-0.0501 -0.3942 0.0673 -0.2649 0.9272 0.2649
-0.0501 -0.3942 0.0673 -0.2649 0.9272 0.2649
-0.0673 -0.3942 0.0501 -0.2649 0.9272 0.2649
-0.0487 -0.3890 0.0315 0.0000 -1.0000 0.0000
-0.0315 -0.3890 0.0487 0.0000 -1.0000 0.0000
-0.0315 -0.3890 0.0487 0.0000 -1.0000 0.0000
-0.0501 -0.3942 0.0673 0.7071 -0.0000 0.7071
-0.0320 -0.3838 0.0492 0.7071 -0.0000 0.7071
-0.0315 -0.3890 0.0487 0.7071 -0.0000 0.7071
-0.0501 -0.3942 0.0673 0.7071 -0.0000 0.7071
-0.0315 -0.3890 0.0487 0.7071 -0.0000 0.7071
-0.0496 -0.3994 0.0668 0.7071 -0.0000 0.7071
-0.0670 -0.3942 0.0843 0.7071 0.0000 0.7071
-0.0501 -0.3942 0.0673 0.7071 0.0000 0.7071
-0.0496 -0.3994 0.0668 0.7071 0.0000 0.7071
-0.0670 -0.3942 0.0843 0.7071 0.0000 0.7071
-0.0496 -0.3994 0.0668 0.7071 0.0000 0.7071
-0.0320 -0.3838 0.0492 0.7071 -0.0000 0.7071
-0.0134 -0.3890 0.0306 0.7071 -0.0000 0.7071
-0.0320 -0.3838 0.0492 0.7071 -0.0000 0.7071
-0.0134 -0.3890 0.0306 0.7071 -0.0000 0.7071
-0.0315 -0.3890 0.0487 0.7071 -0.0000 0.7071
-0.0673 -0.3942 0.0501 -0.7071 0.0000 -0.7071
-0.0843 -0.3942 0.0670 -0.7071 0.0000 -0.7071
-0.0673 -0.3942 0.0501 -0.7071 0.0000 -0.7071
-0.0668 -0.3994 0.0496 -0.7071 0.0000 -0.7071
-0.0492 -0.3838 0.0320 -0.7071 0.0000 -0.7071
-0.0487 -0.3890 0.0315 -0.7071 0.0000 -0.7071
-0.0487 -0.3890 0.0315 -0.7071 0.0000 -0.7071
-0.0306 -0.3890 0.0134 -0.7071 0.0000 -0.7071
-0.0492 -0.3838 0.0320 -0.7071 -0.0000 -0.7071
-0.0673 -0.3942 0.0501 -0.7071 -0.0000 -0.7071
-0.0668 -0.3994 0.0496 -0.7071 -0.0000 -0.7071
-0.0492 -0.3838 0.0320 -0.7071 -0.0000 -0.7071
-0.0668 -0.3994 0.0496 -0.7071 -0.0000 -0.7071
-0.0487 -0.3890 0.0315 -0.7071 -0.0000 -0.7071
-0.0843 -0.3942 0.0670 -0.7009 -0.1323 0.7009
-0.0670 -0.3942 0.0843 -0.7009 -0.1323 0.7009
-0.0666 -0.3994 0.0838 -0.7009 -0.1323 0.7009
-0.0843 -0.3942 0.0670 -0.7009 -0.1323 0.7009
-0.0666 -0.3994 0.0838 -0.7009 -0.1323 0.7009
-0.0838 -0.3994 0.0666 -0.7009 -0.1323 0.7009
-0.0139 -0.3838 0.0311 0.7009 0.1323 -0.7009
-0.0311 -0.3838 0.0139 0.7009 0.1323 -0.7009
-0.0306 -0.3890 0.0134 0.7009 0.1323 -0.7009
-0.0139 -0.3838 0.0311 0.7009 0.1323 -0.7009
-0.0306 -0.3890 0.0134 0.7009 0.1323 -0.7009
-0.0134 -0.3890 0.0306 0.7009 0.1323 -0.7009
0.0496 -0.3994 0.0668 0.0000 -1.0000 -0.0000
0.0666 -0.3994 0.0838 0.0000 -1.0000 -0.0000
0.0838 -0.3994 0.0666 0.0000 -1.0000 -0.0000
0.0496 -0.3994 0.0668 0.0000 -1.0000 -0.0000
0.0838 -0.3994 0.0666 0.0000 -1.0000 -0.0000
0.0668 -0.3994 0.0496 0.0000 -1.0000 -0.0000
-0.0668 -0.3994 0.0496 0.0000 -1.0000 0.0000
-0.0838 -0.3994 0.0666 0.0000 -1.0000 0.0000
-0.0666 -0.3994 0.0838 0.0000 -1.0000 0.0000
-0.0668 -0.3994 0.0496 0.0000 -1.0000 0.0000
-0.0666 -0.3994 0.0838 0.0000 -1.0000 0.0000
-0.0496 -0.3994 0.0668 0.0000 -1.0000 0.0000
-0.0496 -0.3994 -0.0668 -0.0000 -1.0000 -0.0000
-0.0666 -0.3994 -0.0838 -0.0000 -1.0000 -0.0000
-0.0838 -0.3994 -0.0666 -0.0000 -1.0000 -0.0000
-0.0496 -0.3994 -0.0668 -0.0000 -1.0000 -0.0000
-0.0838 -0.3994 -0.0666 -0.0000 -1.0000 -0.0000
-0.0668 -0.3994 -0.0496 -0.0000 -1.0000 -0.0000
0.0668 -0.3994 -0.0496 -0.0000 -1.0000 -0.0000
0.0838 -0.3994 -0.0666 -0.0000 -1.0000 -0.0000
0.0666 -0.3994 -0.0838 -0.0000 -1.0000 -0.0000
0.0668 -0.3994 -0.0496 -0.0000 -1.0000 -0.0000
0.0666 -0.3994 -0.0838 -0.0000 -1.0000 -0.0000
0.0496 -0.3994 -0.0668 -0.0000 -1.0000 -0.0000
0.0496 -0.3608 0.0668 0.0000 1.0000 0.0000
0.0668 -0.3608 0.0496 0.0000 1.0000 0.0000
0.0496 -0.3608 0.0668 0.0000 1.0000 0.0000
0.0840 -0.3608 0.1012 0.0000 1.0000 0.0000
0.0840 -0.3608 0.1012 0.0000 1.0000 0.0000
0.1012 -0.3608 0.0840 0.0000 1.0000 0.0000
0.0840 -0.3608 0.1012 0.0000 1.0000 0.0000
0.0496 -0.3608 0.0668 0.0000 1.0000 0.0000
0.0668 -0.3608 0.0496 0.0000 1.0000 0.0000
0.1012 -0.3608 0.0840 0.0000 1.0000 0.0000
0.0496 -0.3608 -0.0668 0.0000 1.0000 0.0000
0.0835 -0.3608 -0.1007 0.0000 1.0000 0.0000
0.1007 -0.3608 -0.0835 0.0000 1.0000 0.0000
0.0496 -0.3608 -0.0668 0.0000 1.0000 0.0000
0.1007 -0.3608 -0.0835 0.0000 1.0000 0.0000
0.0668 -0.3608 -0.0496 0.0000 1.0000 0.0000
-0.0496 -0.3608 0.0668 0.0000 1.0000 0.0000
-0.0835 -0.3608 0.1007 0.0000 1.0000 0.0000
-0.1007 -0.3608 0.0835 0.0000 1.0000 0.0000
-0.0496 -0.3608 0.0668 0.0000 1.0000 0.0000
-0.1007 -0.3608 0.0835 0.0000 1.0000 0.0000
-0.0668 -0.3608 0.0496 0.0000 1.0000 0.0000
-0.0668 -0.3608 -0.0496 0.0000 1.0000 0.0000
-0.1007 -0.3608 -0.0835 0.0000 1.0000 0.0000
-0.0835 -0.3608 -0.1007 0.0000 1.0000 0.0000
-0.0668 -0.3608 -0.0496 0.0000 1.0000 0.0000
-0.0835 -0.3608 -0.1007 0.0000 1.0000 0.0000
-0.0496 -0.3608 -0.0668 0.0000 1.0000 0.0000
6 17 5
6 10 17
4 15 2
4 9 15
7 157 156
7 13 158
8 12 0
8 11 12
1 160 159
1 14 161
3 163 162
3 16 164
165 167 166
168 170 169
171 173 172
174 176 175
177 179 178
180 182 181
183 185 184
186 188 187
189 191 190
192 194 193
195 197 196
198 200 199
201 203 202
18 21 20
18 19 21
23 25 24
23 22 25
204 206 205
207 209 208
210 212 211
213 215 214
216 218 217
219 221 220
222 224 223
225 227 226
30 29 31
30 27 29
33 228 32
33 230 229
40 41 36
40 39 41
35 232 231
35 34 233
234 236 235
237 239 238
240 242 241
243 38 244
245 246 28
247 249 248
250 37 251
252 253 37
26 255 254
26 257 256
258 260 259
261 263 262
264 266 265
267 269 268
270 272 271
273 275 274
46 45 47
46 43 45
49 276 48
49 278 277
56 57 52
56 55 57
51 280 279
51 50 281
282 284 283
285 287 286
288 290 289
291 54 292
293 294 44
295 297 296
298 53 299
300 301 53
42 303 302
42 305 304
306 308 307
309 311 310
312 314 313
315 317 316
318 320 319
321 323 322
62 61 63
62 59 61
65 324 64
65 326 325
72 73 68
72 71 73
67 328 327
67 66 329
330 332 331
333 335 334
336 338 337
339 70 340
341 342 60
343 345 344
346 69 347
348 349 69
58 351 350
58 353 352
354 356 355
357 359 358
360 362 361
363 365 364
366 368 367
369 371 370
78 77 79
78 75 77
81 372 80
81 374 373
88 89 84
88 87 89
83 376 375
83 82 377
378 380 379
381 383 382
384 386 385
387 86 388
389 390 76
391 393 392
394 85 395
396 397 85
74 399 398
74 401 400
402 404 403
405 407 406
408 410 409
411 413 412
414 416 415
417 419 418
94 93 95
94 91 93
97 420 96
97 422 421
104 105 100
104 103 105
99 424 423
99 98 425
426 428 427
429 431 430
432 434 433
435 102 436
437 438 92
439 441 440
442 101 443
444 445 101
90 447 446
90 449 448
450 452 451
453 455 454
456 458 457
459 461 460
462 464 463
465 467 466
110 109 111
110 107 109
113 468 112
113 470 469
120 121 116
120 119 121
115 472 471
115 114 473
474 476 475
477 479 478
480 482 481
483 118 484
485 486 108
487 489 488
490 117 491
492 493 117
106 495 494
106 497 496
498 500 499
501 503 502
504 506 505
507 509 508
510 512 511
513 515 514
126 125 127
126 123 125
129 516 128
129 518 517
136 137 132
136 135 137
131 520 519
131 130 521
522 524 523
525 527 526
528 530 529
531 134 532
533 534 124
535 537 536
538 133 539
540 541 133
122 543 542
122 545 544
546 548 547
549 551 550
552 554 553
555 557 556
558 560 559
561 563 562
142 141 143
142 139 141
145 564 144
145 566 565
152 153 148
152 151 153
147 568 567
147 146 569
570 572 571
573 575 574
576 578 577
579 150 580
581 582 140
583 585 584
586 149 587
588 589 149
138 591 590
138 593 592
594 596 595
597 599 598
600 602 601
603 605 604
606 608 607
609 611 610
612 614 613
615 617 616
618 620 619
621 623 622
624 626 625
627 629 628
630 632 631
633 635 634
636 154 637
638 155 154
639 154 155
640 641 154
642 155 643
644 154 645
646 648 647
649 651 650
652 654 653
655 657 656
658 660 659
661 663 662
LABEL PSE_Skirt
MATERIAL 1
TEXTURE 1
FLAG 0
GEOM 165 256
0.0008 -0.4010 0.7482 0.0022 0.9924 0.1233 0.9822 0.5077
-0.1452 -0.4022 0.7354 -0.0140 0.9876 0.1563 0.9729 0.4133
-0.2735 -0.4043 0.6846 -0.0675 0.9805 0.1847 0.9454 0.3225
-0.4271 -0.4058 0.6132 -0.1293 0.9810 0.1448 0.9006 0.2388
-0.5302 -0.4041 0.5204 -0.1110 0.9880 0.1071 0.8405 0.1655
-0.6004 -0.4015 0.4099 -0.1130 0.9892 0.0932 0.7671 0.1053
-0.7182 -0.4037 0.2960 -0.1239 0.9911 0.0494 0.6834 0.0606
-0.7333 -0.4030 0.1310 -0.1543 0.9876 0.0273 0.5926 0.0330
-0.7552 -0.4089 0.0025 -0.2138 0.9768 0.0141 0.4982 0.0237
-0.7428 -0.4139 -0.1512 -0.2290 0.9721 -0.0500 0.4038 0.0330
-0.6810 -0.4027 -0.2916 -0.1708 0.9825 -0.0744 0.3130 0.0606
-0.6313 -0.4024 -0.4211 -0.0918 0.9923 -0.0829 0.2293 0.1053
-0.5336 -0.4020 -0.5248 -0.0805 0.9921 -0.0964 0.1560 0.1655
-0.4081 -0.4088 -0.6347 -0.1249 0.9848 -0.1211 0.0958 0.2388
-0.3002 -0.4051 -0.7067 -0.1028 0.9792 -0.1751 0.0511 0.3225
-0.1457 -0.4028 -0.7385 -0.0189 0.9834 -0.1805 0.0235 0.4133
0.0034 -0.4004 -0.7632 0.0353 0.9896 -0.1397 0.0142 0.5077
0.1449 -0.4054 -0.7332 0.0360 0.9906 -0.1318 0.0235 0.6021
0.2781 -0.4032 -0.6833 0.0550 0.9872 -0.1500 0.0511 0.6929
0.4093 -0.4088 -0.6365 0.1013 0.9809 -0.1662 0.0958 0.7766
0.5290 -0.4108 -0.5303 0.1397 0.9754 -0.1703 0.1560 0.8500
0.6260 -0.4012 -0.4198 0.1487 0.9868 -0.0647 0.2293 0.9101
0.6937 -0.4030 -0.2870 0.1015 0.9947 -0.0142 0.3130 0.9549
0.7585 -0.4032 -0.1392 0.0922 0.9948 -0.0433 0.4038 0.9824
0.7522 -0.4037 -0.0018 0.1184 0.9930 -0.0052 0.4982 0.9917
0.7355 -0.4006 0.1479 0.0996 0.9946 0.0300 0.5926 0.9824
0.6976 -0.4007 0.2997 0.0878 0.9957 0.0296 0.6834 0.9549
0.6282 -0.4021 0.4202 0.1387 0.9892 0.0483 0.7671 0.9101
0.5234 -0.4026 0.5390 0.1733 0.9747 0.1409 0.8405 0.8500
0.4128 -0.4051 0.6206 0.1226 0.9674 0.2218 0.9006 0.7766
0.2863 -0.4058 0.6950 0.0426 0.9765 0.2114 0.9454 0.6929
0.1463 -0.4043 0.7313 0.0215 0.9876 0.1553 0.9729 0.6021
-0.0191 -0.3215 0.0960 -0.1667 0.9856 0.0293 0.5602 0.4954
0.0000 -0.3215 0.0979 0.0483 0.9973 0.0546 0.5614 0.5077
-0.0375 -0.3215 0.0904 -0.0315 0.9926 0.1175 0.5566 0.4836
-0.0544 -0.3215 0.0814 0.0435 0.9938 0.1020 0.5507 0.4726
-0.0692 -0.3215 0.0692 -0.1637 0.9858 -0.0370 0.5429 0.4631
-0.0814 -0.3215 0.0544 -0.2504 0.9642 -0.0869 0.5333 0.4552
-0.0904 -0.3215 0.0374 -0.2886 0.9508 -0.1124 0.5224 0.4494
-0.0960 -0.3215 0.0191 -0.0773 0.9576 0.2775 0.5105 0.4458
-0.0979 -0.3215 -0.0000 -0.0846 0.9964 -0.0038 0.4982 0.4446
-0.0960 -0.3215 -0.0191 -0.0963 0.9862 -0.1345 0.4859 0.4458
-0.0904 -0.3215 -0.0375 -0.1355 0.9883 -0.0696 0.4741 0.4494
-0.0814 -0.3215 -0.0544 -0.1205 0.9907 -0.0630 0.4631 0.4552
-0.0692 -0.3215 -0.0692 -0.0538 0.9849 -0.1643 0.4536 0.4631
-0.0544 -0.3215 -0.0814 -0.0892 0.9814 -0.1700 0.4457 0.4726
-0.0375 -0.3215 -0.0904 -0.1581 0.9802 -0.1192 0.4399 0.4836
-0.0191 -0.3215 -0.0960 -0.0802 0.9902 -0.1146 0.4363 0.4954
0.0000 -0.3215 -0.0979 -0.0053 0.9923 -0.1235 0.4351 0.5077
0.0191 -0.3215 -0.0960 -0.0027 0.9930 -0.1182 0.4363 0.5200
0.0375 -0.3215 -0.0904 0.0348 0.9942 -0.1017 0.4399 0.5319
0.0544 -0.3215 -0.0814 0.0406 0.9941 -0.1005 0.4457 0.5428
0.0692 -0.3215 -0.0692 0.0753 0.9954 -0.0600 0.4536 0.5524
0.0814 -0.3215 -0.0544 0.2359 0.9655 0.1098 0.4631 0.5602
0.0904 -0.3215 -0.0375 0.2508 0.9680 -0.0128 0.4741 0.5661
0.0960 -0.3215 -0.0191 0.1639 0.9761 -0.1426 0.4859 0.5697
0.0979 -0.3215 -0.0000 0.1622 0.9830 -0.0861 0.4982 0.5709
0.0960 -0.3215 0.0191 0.1302 0.9915 0.0064 0.5105 0.5697
0.0904 -0.3215 0.0374 0.1582 0.9871 0.0229 0.5224 0.5661
0.0814 -0.3215 0.0544 0.1525 0.9883 -0.0078 0.5333 0.5602
0.0692 -0.3215 0.0692 0.0924 0.9926 0.0784 0.5429 0.5524
0.0544 -0.3215 0.0814 0.1770 0.9842 0.0010 0.5507 0.5428
0.0375 -0.3215 0.0904 0.2684 0.9597 -0.0835 0.5566 0.5319
0.0191 -0.3215 0.0960 -0.0552 0.9928 0.1067 0.5602 0.5200
-0.0894 -0.3594 0.4175 -0.0407 0.9905 0.1312 0.7665 0.4543
-0.0029 -0.3608 0.4393 0.0315 0.9898 0.1392 0.7718 0.5077
-0.1617 -0.3595 0.3901 -0.0369 0.9941 0.1023 0.7510 0.4030
-0.2395 -0.3604 0.3529 -0.0716 0.9930 0.0943 0.7257 0.3557
-0.3003 -0.3608 0.2991 -0.1311 0.9904 0.0439 0.6917 0.3143
-0.3503 -0.3678 0.2332 -0.1344 0.9901 -0.0402 0.6502 0.2803
-0.3849 -0.3804 0.1536 -0.0703 0.9951 0.0698 0.6029 0.2550
-0.4170 -0.3641 0.0839 -0.0635 0.9877 0.1429 0.5516 0.2394
-0.4327 -0.3636 0.0026 -0.1047 0.9920 0.0706 0.4982 0.2342
-0.4215 -0.3468 -0.0920 -0.0594 0.9958 -0.0702 0.4449 0.2394
-0.3941 -0.3652 -0.1632 -0.0563 0.9913 -0.1187 0.3935 0.2550
-0.3532 -0.3668 -0.2376 -0.1215 0.9922 -0.0264 0.3462 0.2803
-0.3129 -0.3494 -0.3160 -0.0888 0.9928 -0.0807 0.3048 0.3143
-0.2349 -0.3604 -0.3526 -0.0900 0.9947 -0.0495 0.2708 0.3557
-0.1584 -0.3393 -0.3945 -0.0659 0.9973 -0.0311 0.2455 0.4030
-0.0862 -0.3548 -0.4049 0.0357 0.9953 -0.0906 0.2299 0.4543
-0.0072 -0.3554 -0.4380 0.0417 0.9925 -0.1147 0.2247 0.5077
0.0824 -0.3616 -0.4157 0.0139 0.9914 -0.1299 0.2299 0.5611
0.1667 -0.3541 -0.4002 0.0420 0.9931 -0.1097 0.2455 0.6124
0.2352 -0.3641 -0.3458 0.0164 0.9894 -0.1446 0.2708 0.6597
0.2890 -0.3451 -0.3216 0.0287 0.9940 -0.1057 0.3048 0.7012
0.3559 -0.3635 -0.2362 0.1495 0.9868 0.0618 0.3462 0.7352
0.4128 -0.3664 -0.1468 0.1136 0.9934 -0.0133 0.3935 0.7605
0.4213 -0.3666 -0.0823 0.0826 0.9946 -0.0629 0.4449 0.7760
0.4183 -0.3681 0.0043 0.1160 0.9885 -0.0970 0.4982 0.7813
0.4301 -0.3445 0.0926 0.1185 0.9929 0.0030 0.5516 0.7760
0.4170 -0.3564 0.1665 0.1168 0.9878 0.1035 0.6029 0.7605
0.3472 -0.3588 0.2214 0.0886 0.9947 0.0525 0.6502 0.7352
0.2887 -0.3667 0.3099 0.1001 0.9949 0.0102 0.6917 0.7012
0.2383 -0.3532 0.3413 0.0892 0.9953 0.0375 0.7257 0.6597
0.1610 -0.3675 0.3972 -0.0361 0.9908 0.1307 0.7510 0.6124
0.0875 -0.3669 0.4104 0.0083 0.9878 0.1553 0.7665 0.5611
-0.0749 -0.3350 0.2720 -0.1339 0.9866 0.0928 0.6634 0.4749
-0.1032 -0.3463 0.2394 -0.0547 0.9911 0.1212 0.6538 0.4433
-0.1363 -0.3277 0.2103 0.0052 0.9924 0.1233 0.6382 0.4142
-0.1768 -0.3339 0.1889 -0.1676 0.9858 0.0054 0.6173 0.3887
-0.2356 -0.3544 0.1323 -0.2223 0.9706 -0.0920 0.5918 0.3677
-0.2507 -0.3684 0.0925 -0.0257 0.9205 0.3898 0.5627 0.3522
-0.2567 -0.3408 0.0505 -0.0806 0.9650 0.2495 0.5311 0.3426
-0.2508 -0.3323 0.0026 -0.1038 0.9944 0.0215 0.4982 0.3394
-0.2703 -0.3439 -0.0573 -0.0697 0.9926 -0.0990 0.4654 0.3426
-0.2511 -0.3494 -0.0953 -0.0938 0.9906 -0.0998 0.4338 0.3522
-0.2159 -0.3421 -0.1395 -0.1273 0.9914 -0.0290 0.4047 0.3677
-0.1878 -0.3457 -0.1791 -0.0420 0.9944 -0.0972 0.3792 0.3887
-0.1430 -0.3575 -0.2325 -0.0695 0.9963 -0.0500 0.3582 0.4142
-0.0963 -0.3490 -0.2340 -0.1140 0.9922 -0.0501 0.3427 0.4433
-0.0497 -0.3411 -0.2552 -0.0234 0.9964 -0.0814 0.3331 0.4749
-0.0051 -0.3412 -0.2524 0.0042 0.9942 -0.1078 0.3299 0.5077
0.0423 -0.3423 -0.2706 0.0089 0.9937 -0.1116 0.3331 0.5406
0.1038 -0.3390 -0.2425 0.0465 0.9942 -0.0968 0.3427 0.5721
0.1461 -0.3395 -0.2155 0.0189 0.9920 -0.1248 0.3582 0.6013
0.1756 -0.3350 -0.1802 0.0565 0.9962 -0.0669 0.3792 0.6268
0.2170 -0.3416 -0.1446 0.1997 0.9738 0.1092 0.4047 0.6477
0.2462 -0.3684 -0.1099 0.1517 0.9884 0.0084 0.4338 0.6633
0.2717 -0.3542 -0.0514 0.0984 0.9901 -0.0997 0.4654 0.6728
0.2426 -0.3461 0.0050 0.1419 0.9843 -0.1046 0.4982 0.6761
0.2614 -0.3411 0.0434 0.0844 0.9955 -0.0439 0.5311 0.6728
0.2389 -0.3498 0.1110 0.1061 0.9937 0.0351 0.5627 0.6633
0.2435 -0.3443 0.1388 0.1005 0.9943 0.0347 0.5918 0.6477
0.1786 -0.3415 0.1924 0.1157 0.9912 0.0636 0.6173 0.6268
0.1381 -0.3393 0.2097 0.1771 0.9839 0.0256 0.6382 0.6013
0.1049 -0.3201 0.2603 0.0035 0.9892 0.1462 0.6538 0.5721
0.0509 -0.3417 0.2559 -0.0247 0.9869 0.1595 0.6634 0.5406
-0.0142 -0.3273 0.2615 0.0401 0.9936 0.1052 0.6666 0.5077
-0.0033 -0.3799 0.5859 0.0068 0.9924 0.1232 0.8770 0.5077
-0.1076 -0.3851 0.5842 -0.0033 0.9900 0.1410 0.8697 0.4338
-0.2415 -0.3666 0.5575 -0.0555 0.9893 0.1353 0.8482 0.3628
-0.3298 -0.3782 0.4865 -0.1104 0.9889 0.0998 0.8132 0.2973
-0.4136 -0.3804 0.4166 -0.1028 0.9912 0.0838 0.7661 0.2399
-0.4786 -0.3801 0.3305 -0.0968 0.9943 0.0446 0.7087 0.1928
-0.5666 -0.3812 0.2331 -0.0925 0.9949 0.0411 0.6432 0.1578
-0.5761 -0.3825 0.1144 -0.1023 0.9933 0.0530 0.5721 0.1362
-0.5884 -0.3723 0.0129 -0.1506 0.9875 0.0472 0.4982 0.1289
-0.5827 -0.3662 -0.1298 -0.1557 0.9861 -0.0572 0.4243 0.1362
-0.5449 -0.3794 -0.2256 -0.1168 0.9883 -0.0976 0.3533 0.1578
-0.4882 -0.3772 -0.3169 -0.1020 0.9924 -0.0692 0.2878 0.1928
-0.4148 -0.3905 -0.4109 -0.1078 0.9890 -0.1017 0.2304 0.2399
-0.3239 -0.3760 -0.5006 -0.1360 0.9847 -0.1093 0.1833 0.2973
-0.2076 -0.3661 -0.5392 -0.0768 0.9875 -0.1375 0.1483 0.3628
-0.1214 -0.3673 -0.5799 0.0108 0.9871 -0.1594 0.1267 0.4338
0.0023 -0.3802 -0.5768 0.0454 0.9896 -0.1368 0.1195 0.5077
0.1117 -0.3839 -0.5822 0.0272 0.9898 -0.1401 0.1267 0.5816
0.2181 -0.3829 -0.5691 0.0421 0.9894 -0.1391 0.1483 0.6527
0.3499 -0.3770 -0.4766 0.0605 0.9843 -0.1657 0.1833 0.7182
0.4357 -0.3724 -0.4247 0.1048 0.9852 -0.1359 0.2304 0.7756
0.4983 -0.3733 -0.3253 0.1491 0.9887 -0.0160 0.2878 0.8227
0.5293 -0.3934 -0.2309 0.1299 0.9915 -0.0084 0.3533 0.8577
0.5595 -0.3855 -0.1254 0.1011 0.9936 -0.0509 0.4243 0.8792
0.5940 -0.3792 0.0039 0.1240 0.9919 -0.0268 0.4982 0.8865
0.5790 -0.3860 0.1272 0.1412 0.9895 0.0316 0.5721 0.8792
0.5473 -0.3887 0.2223 0.1301 0.9891 0.0686 0.6432 0.8577
0.4868 -0.3805 0.3241 0.1220 0.9915 0.0459 0.7087 0.8227
0.4317 -0.3658 0.4183 0.1320 0.9892 0.0636 0.7661 0.7756
0.3265 -0.3601 0.4984 0.0642 0.9898 0.1268 0.8132 0.7182
0.2196 -0.3696 0.5400 -0.0140 0.9896 0.1429 0.8482 0.6527
0.1142 -0.3829 0.5773 0.0156 0.9920 0.1254 0.8697 0.5816
-0.2507 -0.3684 0.0925 -0.2379 0.9631 -0.1258 0.5627 0.3522
-0.2507 -0.3684 0.0925 -0.2379 0.9631 -0.1258 0.5627 0.3522
-0.2507 -0.3684 0.0925 -0.2379 0.9631 -0.1258 0.5627 0.3522
-0.0904 -0.3215 0.0374 -0.0712 0.9019 0.4261 0.5224 0.4494
0.0375 -0.3215 0.0904 -0.2812 0.9496 0.1385 0.5566 0.5319
129 0 128
129 1 0
130 1 129
130 2 1
131 2 130
131 3 2
132 3 131
132 4 3
133 4 132
133 5 4
134 5 133
134 6 5
135 6 134
135 7 6
136 7 135
136 8 7
137 8 136
137 9 8
138 9 137
138 10 9
139 10 138
139 11 10
140 11 139
140 12 11
141 12 140
141 13 12
142 13 141
142 14 13
143 14 142
143 15 14
144 15 143
144 16 15
145 16 144
145 17 16
146 17 145
146 18 17
147 18 146
147 19 18
148 19 147
148 20 19
149 20 148
149 21 20
150 21 149
150 22 21
151 22 150
151 23 22
152 23 151
152 24 23
153 24 152
153 25 24
154 25 153
154 26 25
155 26 154
155 27 26
156 27 155
156 28 27
157 28 156
157 29 28
158 29 157
158 30 29
159 30 158
159 31 30
128 31 159
128 0 31
127 95 126
127 65 95
126 94 125
126 95 94
125 93 124
125 94 93
124 92 123
124 93 92
123 91 122
123 92 91
122 90 121
122 91 90
121 89 120
121 90 89
120 88 119
120 89 88
119 87 118
119 88 87
118 86 117
118 87 86
117 85 116
117 86 85
116 84 115
116 85 84
115 83 114
115 84 83
114 82 113
114 83 82
113 81 112
113 82 81
112 80 111
112 81 80
111 79 110
111 80 79
110 78 109
110 79 78
109 77 108
109 78 77
108 76 107
108 77 76
107 75 106
107 76 75
106 74 105
106 75 74
105 73 104
105 74 73
104 72 103
104 73 72
103 71 102
103 72 71
102 70 101
102 71 70
160 69 100
161 70 69
100 68 99
100 69 68
99 67 98
99 68 67
98 66 97
98 67 66
97 64 96
97 66 64
96 65 127
96 64 65
32 127 33
32 96 127
34 96 32
34 97 96
35 97 34
35 98 97
36 98 35
36 99 98
37 99 36
37 100 99
38 100 37
38 162 100
39 101 163
39 102 101
40 102 39
40 103 102
41 103 40
41 104 103
42 104 41
42 105 104
43 105 42
43 106 105
44 106 43
44 107 106
45 107 44
45 108 107
46 108 45
46 109 108
47 109 46
47 110 109
48 110 47
48 111 110
49 111 48
49 112 111
50 112 49
50 113 112
51 113 50
51 114 113
52 114 51
52 115 114
53 115 52
53 116 115
54 116 53
54 117 116
55 117 54
55 118 117
56 118 55
56 119 118
57 119 56
57 120 119
58 120 57
58 121 120
59 121 58
59 122 121
60 122 59
60 123 122
61 123 60
61 124 123
62 124 61
62 125 124
63 125 164
63 126 125
33 126 63
33 127 126
65 159 95
65 128 159
95 158 94
95 159 158
94 157 93
94 158 157
93 156 92
93 157 156
92 155 91
92 156 155
91 154 90
91 155 154
90 153 89
90 154 153
89 152 88
89 153 152
88 151 87
88 152 151
87 150 86
87 151 150
86 149 85
86 150 149
85 148 84
85 149 148
84 147 83
84 148 147
83 146 82
83 147 146
82 145 81
82 146 145
81 144 80
81 145 144
80 143 79
80 144 143
79 142 78
79 143 142
78 141 77
78 142 141
77 140 76
77 141 140
76 139 75
76 140 139
75 138 74
75 139 138
74 137 73
74 138 137
73 136 72
73 137 136
72 135 71
72 136 135
71 134 70
71 135 134
70 133 69
70 134 133
69 132 68
69 133 132
68 131 67
68 132 131
67 130 66
67 131 130
66 129 64
66 130 129
64 128 65
64 129 128
MATERIALS 2
ALSEP_Silver
ALSEP_White
MATERIAL ALSEP_Silver
0.800 0.800 0.800 1.000
1.000 1.000 1.000 1.000
1.000 1.000 1.000 1.000 100.000
0.000 0.000 0.000 0.500
MATERIAL ALSEP_White
0.800 0.800 0.800 1.000
1.000 1.000 1.000 1.000
1.000 1.000 1.000 1.000 0.000
0.000 0.000 0.000 1.000
TEXTURES 1
ProjectApollo\silverfo.dds
