MSHX1
GROUPS 8
LABEL 01_CM_SCT_EyePiece
MATERIAL 1
TEXTURE 1
FLAG 0
GEOM 60 68
-0.2850 0.2850 -0.0006 0.0000 -0.0000 -1.0000
-0.2850 -0.2850 -0.0006 0.0000 -0.0000 -1.0000 0.0000 1.0000
0.2850 0.2850 -0.0006 0.0000 -0.0000 -1.0000 1.0000 0.0000
0.0822 -0.0218 -0.0006 0.0000 -0.0000 -1.0000 0.6443 0.5383
0.0600 0.0604 -0.0006 0.0000 -0.0000 -1.0000 0.6053 0.3941
0.0603 -0.0601 -0.0006 0.0000 0.0000 -1.0000 0.6058 0.6054
-0.0219 -0.0823 -0.0006 0.0000 0.0000 -1.0000 0.4615 0.6444
-0.0003 0.0852 -0.0006 0.0000 -0.0000 -1.0000 0.4995 0.3506
0.0423 0.0738 -0.0006 0.0000 -0.0000 -1.0000 0.5743 0.3704
-0.0737 -0.0427 -0.0006 0.0000 -0.0000 -1.0000 0.3707 0.5750
0.0738 -0.0424 -0.0006 0.0000 -0.0000 -1.0000 0.6294 0.5744
0.0851 0.0002 -0.0006 0.0000 -0.0000 -1.0000 0.6493 0.4996
-0.0223 0.0822 -0.0006 0.0000 -0.0000 -1.0000 0.4609 0.3558
0.0222 -0.0822 -0.0006 0.0000 0.0000 -1.0000 0.5389 0.6442
-0.0823 -0.0222 -0.0006 0.0000 -0.0000 -1.0000 0.3556 0.5390
0.0821 0.0222 -0.0006 0.0000 -0.0000 -1.0000 0.6441 0.4610
0.0218 0.0823 -0.0006 0.0000 -0.0000 -1.0000 0.5382 0.3556
-0.0604 0.0601 -0.0006 0.0000 -0.0000 -1.0000 0.3940 0.3946
-0.0824 0.0218 -0.0006 0.0000 -0.0000 -1.0000 0.3555 0.4617
0.0736 0.0428 -0.0006 0.0000 -0.0000 -1.0000 0.6291 0.4250
-0.0425 -0.0738 -0.0006 0.0000 0.0000 -1.0000 0.4255 0.6296
0.0427 -0.0736 -0.0006 0.0000 0.0000 -1.0000 0.5749 0.6292
0.0001 -0.0851 -0.0006 0.0000 0.0000 -1.0000 0.5002 0.6494
-0.0428 0.0736 -0.0006 0.0000 -0.0000 -1.0000 0.4249 0.3708
-0.0852 -0.0002 -0.0006 0.0000 -0.0000 -1.0000 0.3505 0.5004
-0.0739 0.0424 -0.0006 0.0000 -0.0000 -1.0000 0.3703 0.4256
0.0676 -0.0517 -0.0006 0.0000 0.0000 -1.0000 0.6186 0.5907
0.0519 -0.0674 -0.0006 0.0000 0.0000 -1.0000 0.5911 0.6183
0.0327 -0.0786 -0.0006 0.0000 0.0000 -1.0000 0.5574 0.6379
0.0112 -0.0844 -0.0006 0.0000 0.0000 -1.0000 0.5197 0.6481
-0.0110 -0.0844 -0.0006 0.0000 0.0000 -1.0000 0.4807 0.6482
-0.0325 -0.0787 -0.0006 0.0000 0.0000 -1.0000 0.4430 0.6382
-0.0518 -0.0677 -0.0006 0.0000 0.0000 -1.0000 0.4092 0.6187
-0.0675 -0.0520 -0.0006 0.0000 -0.0000 -1.0000 0.3816 0.5912
-0.0787 -0.0328 -0.0006 0.0000 -0.0000 -1.0000 0.3620 0.5575
-0.0845 -0.0113 -0.0006 0.0000 -0.0000 -1.0000 0.3518 0.5199
-0.0845 0.0109 -0.0006 0.0000 -0.0000 -1.0000 0.3517 0.4809
-0.0788 0.0324 -0.0006 0.0000 -0.0000 -1.0000 0.3617 0.4432
-0.0678 0.0517 -0.0006 0.0000 -0.0000 -1.0000 0.3811 0.4093
-0.0521 0.0674 -0.0006 0.0000 -0.0000 -1.0000 0.4086 0.3817
-0.0329 0.0786 -0.0006 0.0000 -0.0000 -1.0000 0.4424 0.3621
-0.0114 0.0844 -0.0006 0.0000 -0.0000 -1.0000 0.4800 0.3519
0.0108 0.0844 -0.0006 0.0000 -0.0000 -1.0000 0.5190 0.3518
0.0323 0.0787 -0.0006 0.0000 -0.0000 -1.0000 0.5567 0.3618
0.0516 0.0677 -0.0006 0.0000 -0.0000 -1.0000 0.5905 0.3813
0.0674 0.0520 -0.0006 0.0000 -0.0000 -1.0000 0.6182 0.4088
0.0785 0.0328 -0.0006 0.0000 -0.0000 -1.0000 0.6378 0.4425
0.0843 0.0113 -0.0006 0.0000 -0.0000 -1.0000 0.6479 0.4801
0.0844 -0.0109 -0.0006 0.0000 -0.0000 -1.0000 0.6480 0.5191
0.0787 -0.0324 -0.0006 0.0000 -0.0000 -1.0000 0.6380 0.5568
0.1015 0.0103 -0.0006 0.0000 -0.0000 -1.0000 0.6781 0.4819
0.1853 0.0103 -0.0006 0.0000 -0.0000 -1.0000 0.8252 0.4819
0.1853 0.1063 -0.0006 0.0000 -0.0000 -1.0000 0.8252 0.3134
0.1015 0.1063 -0.0006 0.0000 -0.0000 -1.0000 0.6781 0.3134
0.2850 -0.2850 -0.0006 0.0000 0.0000 -1.0000 1.0000 1.0000
-0.0601 -0.0604 -0.0006 0.0000 -0.0000 -1.0000 0.3945 0.6059
0.2005 -0.1141 -0.0006 0.0000 0.0000 -1.0000 0.8518 0.7002
0.0785 -0.1141 -0.0006 0.0000 0.0000 -1.0000 0.6377 0.7002
0.0756 -0.0477 -0.0006 0.0000 -0.0000 -1.0000 0.6327 0.5837
0.2036 -0.0477 -0.0006 0.0000 -0.0000 -1.0000 0.8573 0.5837
53 2 52
1 33 55
1 9 33
53 0 2
59 50 51
0 9 1
0 34 9
58 50 59
49 58 10
3 58 49
0 14 34
0 35 14
3 50 58
48 50 3
0 24 35
0 36 24
48 53 50
11 53 48
0 18 36
0 37 18
47 53 11
15 53 47
0 25 37
0 38 25
46 53 15
19 53 46
0 17 38
0 39 17
45 53 19
4 53 45
0 23 39
0 40 23
44 53 4
8 53 44
0 12 40
0 41 12
8 0 53
43 0 8
0 7 41
0 42 7
16 0 43
0 16 42
57 10 58
57 26 10
57 5 26
57 27 5
57 21 27
57 28 21
57 13 28
57 29 13
57 22 29
57 30 22
57 6 30
52 59 51
54 52 2
32 1 55
20 1 32
54 59 52
54 56 59
20 54 1
31 54 20
54 57 56
6 54 31
57 54 6
50 52 51
50 53 52
56 58 59
56 57 58
LABEL 02_CM_SXT_EyePiece
MATERIAL 2
TEXTURE 2
FLAG 0
GEOM 60 68
-0.2850 0.2850 -0.0006 0.0000 -0.0000 -1.0000
-0.2850 -0.2850 -0.0006 0.0000 0.0000 -1.0000 0.0000 1.0000
0.2850 -0.2850 -0.0006 0.0000 0.0000 -1.0000 1.0000 1.0000
0.2850 0.2850 -0.0006 0.0000 0.0000 -1.0000 1.0000 0.0000
0.0822 -0.0218 -0.0006 0.0000 -0.0000 -1.0000 0.6443 0.5383
0.0600 0.0604 -0.0006 0.0000 -0.0000 -1.0000 0.6053 0.3941
0.0603 -0.0601 -0.0006 0.0000 0.0000 -1.0000 0.6058 0.6054
-0.0219 -0.0823 -0.0006 0.0000 0.0000 -1.0000 0.4615 0.6444
-0.0003 0.0852 -0.0006 0.0000 -0.0000 -1.0000 0.4995 0.3506
0.0423 0.0738 -0.0006 0.0000 -0.0000 -1.0000 0.5743 0.3704
-0.0737 -0.0427 -0.0006 0.0000 -0.0000 -1.0000 0.3707 0.5750
0.0738 -0.0424 -0.0006 0.0000 0.0000 -1.0000 0.6294 0.5744
0.0851 0.0002 -0.0006 0.0000 -0.0000 -1.0000 0.6493 0.4996
-0.0223 0.0822 -0.0006 0.0000 -0.0000 -1.0000 0.4609 0.3558
0.0222 -0.0822 -0.0006 0.0000 0.0000 -1.0000 0.5389 0.6442
-0.0601 -0.0604 -0.0006 0.0000 0.0000 -1.0000 0.3945 0.6059
-0.0823 -0.0222 -0.0006 0.0000 -0.0000 -1.0000 0.3556 0.5390
0.0821 0.0222 -0.0006 0.0000 -0.0000 -1.0000 0.6441 0.4610
0.0218 0.0823 -0.0006 0.0000 -0.0000 -1.0000 0.5382 0.3556
-0.0604 0.0601 -0.0006 0.0000 -0.0000 -1.0000 0.3940 0.3946
-0.0824 0.0218 -0.0006 0.0000 -0.0000 -1.0000 0.3555 0.4617
0.0736 0.0428 -0.0006 0.0000 -0.0000 -1.0000 0.6291 0.4250
-0.0425 -0.0738 -0.0006 0.0000 0.0000 -1.0000 0.4255 0.6296
0.0427 -0.0736 -0.0006 0.0000 0.0000 -1.0000 0.5749 0.6292
0.0001 -0.0851 -0.0006 0.0000 0.0000 -1.0000 0.5002 0.6494
-0.0428 0.0736 -0.0006 0.0000 -0.0000 -1.0000 0.4249 0.3708
-0.0852 -0.0002 -0.0006 0.0000 -0.0000 -1.0000 0.3505 0.5004
-0.0739 0.0424 -0.0006 0.0000 -0.0000 -1.0000 0.3703 0.4256
0.0676 -0.0517 -0.0006 0.0000 0.0000 -1.0000 0.6186 0.5907
0.0519 -0.0674 -0.0006 0.0000 0.0000 -1.0000 0.5911 0.6183
0.0327 -0.0786 -0.0006 0.0000 0.0000 -1.0000 0.5574 0.6379
0.0112 -0.0844 -0.0006 0.0000 0.0000 -1.0000 0.5197 0.6481
-0.0110 -0.0844 -0.0006 0.0000 0.0000 -1.0000 0.4807 0.6482
-0.0325 -0.0787 -0.0006 0.0000 0.0000 -1.0000 0.4430 0.6382
-0.0518 -0.0677 -0.0006 0.0000 0.0000 -1.0000 0.4092 0.6187
-0.0675 -0.0520 -0.0006 0.0000 -0.0000 -1.0000 0.3816 0.5912
-0.0787 -0.0328 -0.0006 0.0000 -0.0000 -1.0000 0.3620 0.5575
-0.0845 -0.0113 -0.0006 0.0000 -0.0000 -1.0000 0.3518 0.5199
-0.0845 0.0109 -0.0006 0.0000 -0.0000 -1.0000 0.3517 0.4809
-0.0788 0.0324 -0.0006 0.0000 -0.0000 -1.0000 0.3617 0.4432
-0.0678 0.0517 -0.0006 0.0000 -0.0000 -1.0000 0.3811 0.4093
-0.0521 0.0674 -0.0006 0.0000 -0.0000 -1.0000 0.4086 0.3817
-0.0329 0.0786 -0.0006 0.0000 -0.0000 -1.0000 0.4424 0.3621
-0.0114 0.0844 -0.0006 0.0000 -0.0000 -1.0000 0.4800 0.3519
0.0108 0.0844 -0.0006 0.0000 -0.0000 -1.0000 0.5190 0.3518
0.0323 0.0787 -0.0006 0.0000 -0.0000 -1.0000 0.5567 0.3618
0.0516 0.0677 -0.0006 0.0000 -0.0000 -1.0000 0.5905 0.3813
0.0674 0.0520 -0.0006 0.0000 -0.0000 -1.0000 0.6182 0.4088
0.0785 0.0328 -0.0006 0.0000 -0.0000 -1.0000 0.6378 0.4425
0.0843 0.0113 -0.0006 0.0000 -0.0000 -1.0000 0.6479 0.4801
0.0844 -0.0109 -0.0006 0.0000 -0.0000 -1.0000 0.6480 0.5191
0.0787 -0.0324 -0.0006 0.0000 -0.0000 -1.0000 0.6380 0.5568
0.1015 0.0103 -0.0006 0.0000 -0.0000 -1.0000 0.6781 0.4819
0.1853 0.0103 -0.0006 0.0000 0.0000 -1.0000 0.8252 0.4819
0.1853 0.1063 -0.0006 0.0000 0.0000 -1.0000 0.8252 0.3134
0.1015 0.1063 -0.0006 0.0000 -0.0000 -1.0000 0.6781 0.3134
0.2005 -0.1141 -0.0006 0.0000 0.0000 -1.0000 0.8518 0.7002
0.0785 -0.1141 -0.0006 0.0000 0.0000 -1.0000 0.6377 0.7002
0.0756 -0.0477 -0.0006 0.0000 0.0000 -1.0000 0.6327 0.5837
0.2036 -0.0477 -0.0006 0.0000 0.0000 -1.0000 0.8573 0.5837
2 54 3
54 59 53
2 59 54
34 1 15
22 1 34
2 56 59
57 11 58
2 57 56
22 2 1
33 2 22
57 28 11
7 2 33
32 2 7
57 6 28
32 57 2
24 57 32
57 29 6
57 23 29
31 57 24
14 57 31
57 30 23
57 14 30
51 58 11
58 53 59
58 52 53
4 58 51
4 52 58
55 3 54
50 52 4
12 52 50
55 0 3
12 55 52
49 55 12
1 35 15
1 10 35
17 55 49
48 55 17
0 10 1
0 36 10
21 55 48
47 55 21
0 16 36
0 37 16
5 55 47
46 55 5
0 26 37
0 38 26
9 55 46
45 55 9
0 20 38
0 39 20
45 0 55
18 0 45
0 27 39
0 40 27
44 0 18
8 0 44
0 19 40
0 41 19
43 0 8
13 0 43
0 25 41
42 0 13
25 0 42
52 54 53
52 55 54
56 58 59
56 57 58
LABEL 03_DSKY4CMOptics
MATERIAL 3
TEXTURE 3
FLAG 0
GEOM 4 2
0.1015 0.1063 -0.0007 0.0000 0.0000 -1.0000
0.1853 0.1063 -0.0007 0.0000 0.0000 -1.0000 1.0000 0.0000
0.1015 0.0103 -0.0007 0.0000 0.0000 -1.0000 0.0000 0.6035
0.1853 0.0103 -0.0007 0.0000 0.0000 -1.0000 1.0000 0.6035
2 1 3
2 0 1
LABEL 04_CMVCOptics_Panel_122
MATERIAL 4
TEXTURE 4
FLAG 0
GEOM 4 2
0.0785 -0.1141 -0.0007 0.0000 0.0000 -1.0000 0.0246 0.7245
0.2036 -0.0477 -0.0007 0.0000 0.0000 -1.0000 0.9982 0.0036
0.0756 -0.0477 -0.0007 0.0000 0.0000 -1.0000 0.0023 0.0036
0.2005 -0.1141 -0.0007 0.0000 0.0000 -1.0000 0.9739 0.7245
0 1 3
0 2 1
LABEL 05_Optics_ClickPoints
MATERIAL 0
TEXTURE 0
FLAG 0
GEOM 43 35
0.1097 0.0348 -0.0007 0.0000 0.0000 -1.0000
0.1097 0.0241 -0.0007 0.0000 0.0000 -1.0000
0.1211 0.0407 -0.0007 0.0000 0.0000 -1.0000
0.1211 0.0293 -0.0007 0.0000 0.0000 -1.0000
0.1211 0.0180 -0.0007 0.0000 0.0000 -1.0000
0.1324 0.0180 -0.0007 0.0000 0.0000 -1.0000
0.1438 0.0180 -0.0007 0.0000 0.0000 -1.0000
0.1551 0.0180 -0.0007 0.0000 0.0000 -1.0000
0.1324 0.0293 -0.0007 0.0000 0.0000 -1.0000
0.1438 0.0293 -0.0007 0.0000 0.0000 -1.0000
0.1551 0.0293 -0.0007 0.0000 0.0000 -1.0000
0.1324 0.0407 -0.0007 0.0000 0.0000 -1.0000
0.1438 0.0407 -0.0007 0.0000 0.0000 -1.0000
0.1551 0.0407 -0.0007 0.0000 0.0000 -1.0000
0.1665 0.0407 -0.0007 0.0000 0.0000 -1.0000
0.1665 0.0293 -0.0007 0.0000 0.0000 -1.0000
0.1665 0.0180 -0.0007 0.0000 0.0000 -1.0000
0.1778 0.0348 -0.0007 0.0000 0.0000 -1.0000
0.1778 0.0241 -0.0007 0.0000 0.0000 -1.0000
0.0860 -0.0577 -0.0007 0.0000 0.0000 -1.0000
0.0860 -0.0610 -0.0007 0.0000 0.0000 -1.0000
0.1008 -0.0577 -0.0007 0.0000 0.0000 -1.0000
0.1008 -0.0610 -0.0007 0.0000 0.0000 -1.0000
0.1135 -0.0577 -0.0007 0.0000 0.0000 -1.0000
0.1135 -0.0610 -0.0007 0.0000 0.0000 -1.0000
0.1014 -0.0736 -0.0007 0.0000 0.0000 -1.0000
0.1014 -0.0769 -0.0007 0.0000 0.0000 -1.0000
0.1135 -0.0736 -0.0007 0.0000 0.0000 -1.0000
0.1135 -0.0769 -0.0007 0.0000 0.0000 -1.0000
0.1038 -0.0980 -0.0007 0.0000 -0.0000 -1.0000
0.1038 -0.1022 -0.0007 0.0000 -0.0000 -1.0000
0.1017 -0.1001 -0.0007 0.0000 -0.0000 -1.0000
0.1059 -0.1001 -0.0007 0.0000 -0.0000 -1.0000
0.0987 -0.0980 -0.0007 0.0000 -0.0000 -1.0000
0.1062 -0.0980 -0.0007 0.0000 -0.0000 -1.0000
0.1747 -0.0980 -0.0007 0.0000 0.0000 -1.0000
0.1747 -0.1022 -0.0007 0.0000 0.0000 -1.0000
0.1726 -0.1001 -0.0007 0.0000 0.0000 -1.0000
0.1768 -0.1001 -0.0007 0.0000 0.0000 -1.0000
0.1826 -0.0978 -0.0007 0.0000 0.0000 -1.0000
0.1878 -0.0997 -0.0007 0.0000 0.0000 -1.0000
0.1137 -0.0128 -0.0007 0.0000 0.0000 -1.0000
0.0044 -0.0011 -0.0007 0.0000 0.0000 -1.0000
0 8 3
8 4 1
5 9 6
8 5 4
2 8 0
11 8 2
8 9 5
9 16 7
16 10 18
10 17 15
17 13 14
12 8 11
17 12 13
9 10 16
10 12 17
12 9 8
9 12 10
38 40 36
40 35 39
35 38 37
40 38 35
32 29 34
29 31 33
31 32 30
29 32 31
21 20 19
21 22 20
41 21 42
23 21 41
21 25 22
25 28 26
28 24 27
24 21 23
21 28 25
21 24 28
LABEL 06_CM_SCT_Reticle
MATERIAL 5
TEXTURE 5
FLAG 0
GEOM 48 46
0.0822 -0.0218 -0.0006 0.0000 0.0000 -1.0000 0.9840 0.6270
0.0600 0.0604 -0.0006 0.0000 0.0000 -1.0000 0.8535 0.1444
0.0603 -0.0601 -0.0006 0.0000 0.0000 -1.0000 0.8552 0.8515
-0.0219 -0.0823 -0.0006 0.0000 0.0000 -1.0000 0.3725 0.9820
-0.0003 0.0852 -0.0006 0.0000 0.0000 -1.0000 0.4996 -0.0012
0.0423 0.0738 -0.0006 0.0000 0.0000 -1.0000 0.7497 0.0652
-0.0737 -0.0427 -0.0006 0.0000 0.0000 -1.0000 0.0683 0.7498
0.0738 -0.0424 -0.0006 0.0000 0.0000 -1.0000 0.9344 0.7477
0.0851 0.0002 -0.0006 0.0000 0.0000 -1.0000 1.0008 0.4976
-0.0223 0.0822 -0.0006 0.0000 0.0000 -1.0000 0.3702 0.0161
0.0222 -0.0822 -0.0006 0.0000 0.0000 -1.0000 0.6313 0.9814
-0.0601 -0.0604 -0.0006 0.0000 0.0000 -1.0000 0.1480 0.8532
-0.0823 -0.0222 -0.0006 0.0000 0.0000 -1.0000 0.0181 0.6293
0.0821 0.0222 -0.0006 0.0000 0.0000 -1.0000 0.9834 0.3682
0.0218 0.0823 -0.0006 0.0000 0.0000 -1.0000 0.6290 0.0155
-0.0604 0.0601 -0.0006 0.0000 0.0000 -1.0000 0.1464 0.1461
-0.0824 0.0218 -0.0006 0.0000 0.0000 -1.0000 0.0175 0.3705
0.0736 0.0428 -0.0006 0.0000 0.0000 -1.0000 0.9332 0.2477
-0.0425 -0.0738 -0.0006 0.0000 0.0000 -1.0000 0.2518 0.9324
0.0427 -0.0736 -0.0006 0.0000 0.0000 -1.0000 0.7518 0.9312
0.0001 -0.0851 -0.0006 0.0000 0.0000 -1.0000 0.5019 0.9988
-0.0428 0.0736 -0.0006 0.0000 0.0000 -1.0000 0.2497 0.0663
-0.0852 -0.0002 -0.0006 0.0000 0.0000 -1.0000 0.0008 0.4999
-0.0739 0.0424 -0.0006 0.0000 0.0000 -1.0000 0.0671 0.2498
0.0676 -0.0517 -0.0006 0.0000 0.0000 -1.0000 0.8982 0.8022
0.0519 -0.0674 -0.0006 0.0000 0.0000 -1.0000 0.8061 0.8947
0.0327 -0.0786 -0.0006 0.0000 0.0000 -1.0000 0.6932 0.9602
0.0112 -0.0844 -0.0006 0.0000 0.0000 -1.0000 0.5672 0.9943
-0.0110 -0.0844 -0.0006 0.0000 0.0000 -1.0000 0.4367 0.9946
-0.0325 -0.0787 -0.0006 0.0000 0.0000 -1.0000 0.3105 0.9612
-0.0518 -0.0677 -0.0006 0.0000 0.0000 -1.0000 0.1973 0.8962
-0.0675 -0.0520 -0.0006 0.0000 0.0000 -1.0000 0.1048 0.8041
-0.0787 -0.0328 -0.0006 0.0000 0.0000 -1.0000 0.0393 0.6912
-0.0845 -0.0113 -0.0006 0.0000 0.0000 -1.0000 0.0052 0.5652
-0.0845 0.0109 -0.0006 0.0000 0.0000 -1.0000 0.0049 0.4347
-0.0788 0.0324 -0.0006 0.0000 0.0000 -1.0000 0.0384 0.3085
-0.0678 0.0517 -0.0006 0.0000 0.0000 -1.0000 0.1033 0.1953
-0.0521 0.0674 -0.0006 0.0000 0.0000 -1.0000 0.1954 0.1028
-0.0329 0.0786 -0.0006 0.0000 0.0000 -1.0000 0.3083 0.0373
-0.0114 0.0844 -0.0006 0.0000 0.0000 -1.0000 0.4343 0.0032
0.0108 0.0844 -0.0006 0.0000 0.0000 -1.0000 0.5648 0.0029
0.0323 0.0787 -0.0006 0.0000 0.0000 -1.0000 0.6910 0.0364
0.0516 0.0677 -0.0006 0.0000 0.0000 -1.0000 0.8042 0.1014
0.0674 0.0520 -0.0006 0.0000 0.0000 -1.0000 0.8967 0.1934
0.0785 0.0328 -0.0006 0.0000 0.0000 -1.0000 0.9622 0.3063
0.0843 0.0113 -0.0006 0.0000 0.0000 -1.0000 0.9963 0.4323
0.0844 -0.0109 -0.0006 0.0000 0.0000 -1.0000 0.9966 0.5628
0.0787 -0.0324 -0.0006 0.0000 0.0000 -1.0000 0.9631 0.6890
33 32 12
32 31 6
31 30 11
30 29 18
29 28 3
28 27 20
27 26 10
26 25 19
25 24 2
24 47 7
47 46 0
46 45 8
45 44 13
44 43 17
43 42 1
42 41 5
41 40 14
40 39 4
39 38 9
38 37 21
37 36 15
36 35 23
35 34 16
34 33 22
33 31 32
31 29 30
29 27 28
27 25 26
25 47 24
47 45 46
45 43 44
43 41 42
41 39 40
39 37 38
37 35 36
35 33 34
33 29 31
29 25 27
25 45 47
45 41 43
41 37 39
37 33 35
33 25 29
25 41 45
41 33 37
25 33 41
LABEL 07_CM_SXT_Reticle
MATERIAL 6
TEXTURE 6
FLAG 0
GEOM 48 46
0.0822 -0.0218 -0.0005 0.0000 0.0000 -1.0000 0.9851 0.6271
0.0600 0.0604 -0.0005 0.0000 0.0000 -1.0000 0.8545 0.1444
0.0603 -0.0601 -0.0005 0.0000 0.0000 -1.0000 0.8562 0.8515
-0.0219 -0.0823 -0.0005 0.0000 0.0000 -1.0000 0.3735 0.9821
-0.0003 0.0852 -0.0005 0.0000 0.0000 -1.0000 0.5006 -0.0012
0.0423 0.0738 -0.0005 0.0000 0.0000 -1.0000 0.7508 0.0652
-0.0737 -0.0427 -0.0005 0.0000 0.0000 -1.0000 0.0694 0.7498
0.0738 -0.0424 -0.0005 0.0000 0.0000 -1.0000 0.9354 0.7478
0.0851 0.0002 -0.0005 0.0000 0.0000 -1.0000 1.0018 0.4976
-0.0223 0.0822 -0.0005 0.0000 0.0000 -1.0000 0.3712 0.0162
0.0222 -0.0822 -0.0005 0.0000 0.0000 -1.0000 0.6323 0.9815
-0.0601 -0.0604 -0.0005 0.0000 0.0000 -1.0000 0.1491 0.8532
-0.0823 -0.0222 -0.0005 0.0000 0.0000 -1.0000 0.0191 0.6294
0.0821 0.0222 -0.0005 0.0000 0.0000 -1.0000 0.9844 0.3683
0.0218 0.0823 -0.0005 0.0000 0.0000 -1.0000 0.6300 0.0155
-0.0604 0.0601 -0.0005 0.0000 0.0000 -1.0000 0.1474 0.1461
-0.0824 0.0218 -0.0005 0.0000 0.0000 -1.0000 0.0185 0.3706
0.0736 0.0428 -0.0005 0.0000 0.0000 -1.0000 0.9342 0.2478
-0.0425 -0.0738 -0.0005 0.0000 0.0000 -1.0000 0.2528 0.9324
0.0427 -0.0736 -0.0005 0.0000 0.0000 -1.0000 0.7528 0.9312
0.0001 -0.0851 -0.0005 0.0000 0.0000 -1.0000 0.5030 0.9988
-0.0428 0.0736 -0.0005 0.0000 0.0000 -1.0000 0.2508 0.0664
-0.0852 -0.0002 -0.0005 0.0000 0.0000 -1.0000 0.0018 0.5000
-0.0739 0.0424 -0.0005 0.0000 0.0000 -1.0000 0.0682 0.2498
0.0676 -0.0517 -0.0005 0.0000 0.0000 -1.0000 0.8992 0.8022
0.0519 -0.0674 -0.0005 0.0000 0.0000 -1.0000 0.8071 0.8948
0.0327 -0.0786 -0.0005 0.0000 0.0000 -1.0000 0.6942 0.9603
0.0112 -0.0844 -0.0005 0.0000 0.0000 -1.0000 0.5682 0.9944
-0.0110 -0.0844 -0.0005 0.0000 0.0000 -1.0000 0.4377 0.9947
-0.0325 -0.0787 -0.0005 0.0000 0.0000 -1.0000 0.3115 0.9612
-0.0518 -0.0677 -0.0005 0.0000 0.0000 -1.0000 0.1984 0.8962
-0.0675 -0.0520 -0.0005 0.0000 0.0000 -1.0000 0.1058 0.8041
-0.0787 -0.0328 -0.0005 0.0000 0.0000 -1.0000 0.0403 0.6913
-0.0845 -0.0113 -0.0005 0.0000 0.0000 -1.0000 0.0062 0.5653
-0.0845 0.0109 -0.0005 0.0000 0.0000 -1.0000 0.0059 0.4347
-0.0788 0.0324 -0.0005 0.0000 0.0000 -1.0000 0.0394 0.3086
-0.0678 0.0517 -0.0005 0.0000 0.0000 -1.0000 0.1044 0.1954
-0.0521 0.0674 -0.0005 0.0000 0.0000 -1.0000 0.1965 0.1029
-0.0329 0.0786 -0.0005 0.0000 0.0000 -1.0000 0.3093 0.0373
-0.0114 0.0844 -0.0005 0.0000 0.0000 -1.0000 0.4353 0.0032
0.0108 0.0844 -0.0005 0.0000 0.0000 -1.0000 0.5659 0.0029
0.0323 0.0787 -0.0005 0.0000 0.0000 -1.0000 0.6920 0.0364
0.0516 0.0677 -0.0005 0.0000 0.0000 -1.0000 0.8052 0.1014
0.0674 0.0520 -0.0005 0.0000 0.0000 -1.0000 0.8977 0.1935
0.0785 0.0328 -0.0005 0.0000 0.0000 -1.0000 0.9633 0.3064
0.0843 0.0113 -0.0005 0.0000 0.0000 -1.0000 0.9974 0.4324
0.0844 -0.0109 -0.0005 0.0000 0.0000 -1.0000 0.9977 0.5629
0.0787 -0.0324 -0.0005 0.0000 0.0000 -1.0000 0.9642 0.6891
33 32 12
32 31 6
31 30 11
30 29 18
29 28 3
28 27 20
27 26 10
26 25 19
25 24 2
24 47 7
47 46 0
46 45 8
45 44 13
44 43 17
43 42 1
42 41 5
41 40 14
40 39 4
39 38 9
38 37 21
37 36 15
36 35 23
35 34 16
34 33 22
33 31 32
31 29 30
29 27 28
27 25 26
25 47 24
47 45 46
45 43 44
43 41 42
41 39 40
39 37 38
37 35 36
35 33 34
33 29 31
29 25 27
25 45 47
45 41 43
41 37 39
37 33 35
33 25 29
25 41 45
41 33 37
25 33 41
LABEL 08_CM_SXT_CustomCamera
MATERIAL 7
TEXTURE 7
FLAG 0
GEOM 48 46
0.0822 -0.0218 -0.0006 0.0000 0.0000 -1.0000 0.9833 0.6283
0.0600 0.0604 -0.0006 0.0000 0.0000 -1.0000 0.8527 0.1456
0.0603 -0.0601 -0.0006 0.0000 0.0000 -1.0000 0.8544 0.8527
-0.0219 -0.0823 -0.0006 0.0000 0.0000 -1.0000 0.3717 0.9833
-0.0003 0.0852 -0.0006 0.0000 0.0000 -1.0000 0.4988 0.0000
0.0423 0.0738 -0.0006 0.0000 0.0000 -1.0000 0.7490 0.0664
-0.0737 -0.0427 -0.0006 0.0000 0.0000 -1.0000 0.0676 0.7510
0.0738 -0.0424 -0.0006 0.0000 0.0000 -1.0000 0.9336 0.7490
0.0851 0.0002 -0.0006 0.0000 0.0000 -1.0000 1.0000 0.4988
-0.0223 0.0822 -0.0006 0.0000 0.0000 -1.0000 0.3694 0.0173
0.0222 -0.0822 -0.0006 0.0000 0.0000 -1.0000 0.6306 0.9827
-0.0601 -0.0604 -0.0006 0.0000 0.0000 -1.0000 0.1473 0.8544
-0.0823 -0.0222 -0.0006 0.0000 0.0000 -1.0000 0.0173 0.6306
0.0821 0.0222 -0.0006 0.0000 0.0000 -1.0000 0.9827 0.3694
0.0218 0.0823 -0.0006 0.0000 0.0000 -1.0000 0.6283 0.0167
-0.0604 0.0601 -0.0006 0.0000 0.0000 -1.0000 0.1456 0.1473
-0.0824 0.0218 -0.0006 0.0000 0.0000 -1.0000 0.0167 0.3717
0.0736 0.0428 -0.0006 0.0000 0.0000 -1.0000 0.9324 0.2490
-0.0425 -0.0738 -0.0006 0.0000 0.0000 -1.0000 0.2510 0.9336
0.0427 -0.0736 -0.0006 0.0000 0.0000 -1.0000 0.7510 0.9324
0.0001 -0.0851 -0.0006 0.0000 0.0000 -1.0000 0.5012 1.0000
-0.0428 0.0736 -0.0006 0.0000 0.0000 -1.0000 0.2490 0.0676
-0.0852 -0.0002 -0.0006 0.0000 0.0000 -1.0000 0.0000 0.5012
-0.0739 0.0424 -0.0006 0.0000 0.0000 -1.0000 0.0664 0.2510
0.0676 -0.0517 -0.0006 0.0000 0.0000 -1.0000 0.8974 0.8034
0.0519 -0.0674 -0.0006 0.0000 0.0000 -1.0000 0.8053 0.8960
0.0327 -0.0786 -0.0006 0.0000 0.0000 -1.0000 0.6924 0.9615
0.0112 -0.0844 -0.0006 0.0000 0.0000 -1.0000 0.5664 0.9956
-0.0110 -0.0844 -0.0006 0.0000 0.0000 -1.0000 0.4359 0.9959
-0.0325 -0.0787 -0.0006 0.0000 0.0000 -1.0000 0.3098 0.9624
-0.0518 -0.0677 -0.0006 0.0000 0.0000 -1.0000 0.1966 0.8974
-0.0675 -0.0520 -0.0006 0.0000 0.0000 -1.0000 0.1040 0.8053
-0.0787 -0.0328 -0.0006 0.0000 0.0000 -1.0000 0.0385 0.6924
-0.0845 -0.0113 -0.0006 0.0000 0.0000 -1.0000 0.0044 0.5664
-0.0845 0.0109 -0.0006 0.0000 0.0000 -1.0000 0.0041 0.4359
-0.0788 0.0324 -0.0006 0.0000 0.0000 -1.0000 0.0376 0.3098
-0.0678 0.0517 -0.0006 0.0000 0.0000 -1.0000 0.1026 0.1966
-0.0521 0.0674 -0.0006 0.0000 0.0000 -1.0000 0.1947 0.1041
-0.0329 0.0786 -0.0006 0.0000 0.0000 -1.0000 0.3076 0.0385
-0.0114 0.0844 -0.0006 0.0000 0.0000 -1.0000 0.4336 0.0044
0.0108 0.0844 -0.0006 0.0000 0.0000 -1.0000 0.5641 0.0041
0.0323 0.0787 -0.0006 0.0000 0.0000 -1.0000 0.6902 0.0376
0.0516 0.0677 -0.0006 0.0000 0.0000 -1.0000 0.8034 0.1026
0.0674 0.0520 -0.0006 0.0000 0.0000 -1.0000 0.8959 0.1947
0.0785 0.0328 -0.0006 0.0000 0.0000 -1.0000 0.9615 0.3076
0.0843 0.0113 -0.0006 0.0000 0.0000 -1.0000 0.9956 0.4336
0.0844 -0.0109 -0.0006 0.0000 0.0000 -1.0000 0.9959 0.5641
0.0787 -0.0324 -0.0006 0.0000 0.0000 -1.0000 0.9624 0.6902
33 32 12
32 31 6
31 30 11
30 29 18
29 28 3
28 27 20
27 26 10
26 25 19
25 24 2
24 47 7
47 46 0
46 45 8
45 44 13
44 43 17
43 42 1
42 41 5
41 40 14
40 39 4
39 38 9
38 37 21
37 36 15
36 35 23
35 34 16
34 33 22
33 31 32
31 29 30
29 27 28
27 25 26
25 47 24
47 45 46
45 43 44
43 41 42
41 39 40
39 37 38
37 35 36
35 33 34
33 29 31
29 25 27
25 45 47
45 41 43
41 37 39
37 33 35
33 25 29
25 41 45
41 33 37
25 33 41
MATERIALS 7
OpticsSCTEyepiece
CMVC_SXT_Eyepiece
DSKY4CMOptics
CMVCOptics_Panel_122
CM_SCT_Reticle
CM_SXT_Reticle
CM_SXT_Reticle2ndView
MATERIAL OpticsSCTEyepiece
0.800 0.800 0.800 1.000
1.000 1.000 1.000 1.000
1.000 1.000 1.000 1.000 0.000
0.700 0.700 0.700 1.000
MATERIAL CMVC_SXT_Eyepiece
0.800 0.800 0.800 1.000
1.000 1.000 1.000 1.000
1.000 1.000 1.000 1.000 0.000
0.700 0.700 0.700 1.000
MATERIAL DSKY4CMOptics
0.800 0.800 0.800 1.000
1.000 1.000 1.000 1.000
1.000 1.000 1.000 1.000 0.000
0.700 0.700 0.700 1.000
MATERIAL CMVCOptics_Panel_122
0.800 0.800 0.800 1.000
1.000 1.000 1.000 1.000
1.000 1.000 1.000 1.000 0.000
0.700 0.700 0.700 1.000
MATERIAL CM_SCT_Reticle
0.800 0.800 0.800 1.000
1.000 1.000 1.000 1.000
1.000 1.000 1.000 1.000 0.000
0.700 0.700 0.700 1.000
MATERIAL CM_SXT_Reticle
0.800 0.800 0.800 1.000
1.000 1.000 1.000 1.000
1.000 1.000 1.000 1.000 0.000
0.702 0.702 0.702 1.000
MATERIAL CM_SXT_Reticle2ndView
0.800 0.800 0.800 0.500
1.000 1.000 1.000 0.500
1.000 1.000 1.000 0.500 0.000
0.700 0.700 0.700 0.500
TEXTURES 7
ProjectApollo\VC\CMVC_SCT_EyePiece.dds
ProjectApollo\VC\CMVC_SXT_EyePiece.dds
ProjectApollo\VC\DSKY4CMOptics.dds
ProjectApollo\VC\CMVCOptics_Panel_122.dds
ProjectApollo\VC\CMVC_SCT_Reticle.dds
ProjectApollo\VC\CMVC_SXT_Reticle.dds
ProjectApollo\VC\CMVC_SXT_CustomCamera.dds
