MSHX1
GROUPS 15
LABEL Group_0
MATERIAL 1
TEXTURE 0
GEOM 36 34
-0.00337008573114872 -0.0036418598610907793 -0.008594002574682236 -0.3393658399581909 -0.3671071529388428 -0.8660237193107605 0.0 1.0
-1.8749942682916299e-06 1.8473668887963868e-06 -0.009922999888658524 -0.0 0.0 -1.0 0.0 1.0
-0.005835491232573986 -0.006308919750154018 -0.004962005186825991 -0.5878475308418274 -0.6359447240829468 -0.4999542236328125 0.0 1.0
-0.006737619172781706 -0.007284836377948523 -5.584527063007272e-09 -0.6787927150726318 -0.7343058586120605 -0.0 0.0 1.0
-0.00583549402654171 -0.006308925338089466 0.00496199494227767 -0.5878475308418274 -0.6359447240829468 0.4999237060546875 0.0 1.0
-0.003370090154930949 -0.0036418696399778128 0.008593996986746788 -0.3393658399581909 -0.3671071529388428 0.8660237193107605 0.0 1.0
-1.8796976064550108e-06 1.8364808056503534e-06 0.009922999888658524 -0.0 0.0 1.0 0.0 1.0
0.0033663311041891575 0.003645543707534671 0.008594002574682236 0.3393658399581909 0.3671071529388428 0.8660237193107605 0.0 1.0
0.5296087265014648 -0.48280835151672363 -0.008594127371907234 0.7343058586120605 -0.6787927150726318 -0.0 0.0 1.0
0.5320741534233093 -0.4801413118839264 -0.004962125793099403 0.7343058586120605 -0.6787927150726318 -0.0 0.0 1.0
0.005831737071275711 0.006312603130936623 0.004962005186825991 0.5878475308418274 0.6359447240829468 0.4999542236328125 0.0 1.0
0.5329762697219849 -0.4791654050350189 -1.2511546287896635e-07 0.7343058586120605 -0.6787927150726318 -0.0 0.0 1.0
0.5320741534233093 -0.4801413118839264 0.004961874336004257 0.7343058586120605 -0.6787927150726318 -0.0 0.0 1.0
0.0067338645458221436 0.007288520224392414 5.603286723498968e-09 0.6787927150726318 0.7343058586120605 -0.0 0.0 1.0
0.5296087265014648 -0.482808381319046 0.00859387218952179 0.7343058586120605 -0.6787927150726318 -0.0 0.0 1.0
0.5262405276298523 -0.4864520728588104 0.009922869503498077 0.7343058586120605 -0.6787927150726318 -0.0 0.0 1.0
0.005831739865243435 0.006312609650194645 -0.00496199494227767 0.5878475308418274 0.6359447240829468 -0.4999542236328125 0.0 1.0
0.5228723287582397 -0.4900957942008972 0.008593866601586342 0.7343058586120605 -0.6787927150726318 -0.0 0.0 1.0
0.5204069018363953 -0.49276283383369446 0.004961864091455936 0.7343058586120605 -0.6787927150726318 -0.0 0.0 1.0
0.0033663350623100996 0.003645553020760417 -0.008593996986746788 0.3393658399581909 0.3671071529388428 -0.8660237193107605 0.0 1.0
0.5195047855377197 -0.49373874068260193 -1.3630328510316758e-07 0.7343058586120605 -0.6787927150726318 -0.0 0.0 1.0
0.5204069018363953 -0.49276283383369446 -0.004962136037647724 0.7343058586120605 -0.6787927150726318 -0.0 0.0 1.0
0.5262405276298523 -0.4864520728588104 -0.00992313027381897 0.7343058586120605 -0.6787927150726318 -0.0 0.0 1.0
0.5228723287582397 -0.49009576439857483 -0.008594132959842682 0.7343058586120605 -0.6787927150726318 -0.0 0.0 1.0
0.5204069018363953 -0.49276283383369446 0.004961864091455936 -0.5878475308418274 -0.6359447240829468 0.4999237060546875 0.0 1.0
0.5228723287582397 -0.4900957942008972 0.008593866601586342 -0.3393658399581909 -0.3671071529388428 0.8660237193107605 0.0 1.0
0.5296087265014648 -0.48280835151672363 -0.008594127371907234 0.3393658399581909 0.3671071529388428 -0.8660237193107605 0.0 1.0
0.5262405276298523 -0.4864520728588104 -0.00992313027381897 -0.0 0.0 -1.0 0.0 1.0
0.5228723287582397 -0.49009576439857483 -0.008594132959842682 -0.3393658399581909 -0.3671071529388428 -0.8660237193107605 0.0 1.0
0.5204069018363953 -0.49276283383369446 -0.004962136037647724 -0.5878475308418274 -0.6359447240829468 -0.4999542236328125 0.0 1.0
0.5262405276298523 -0.4864520728588104 0.009922869503498077 -0.0 0.0 1.0 0.0 1.0
0.5329762697219849 -0.4791654050350189 -1.2511546287896635e-07 0.6787927150726318 0.7343058586120605 -0.0 0.0 1.0
0.5320741534233093 -0.4801413118839264 -0.004962125793099403 0.5878475308418274 0.6359447240829468 -0.4999542236328125 0.0 1.0
0.5296087265014648 -0.482808381319046 0.00859387218952179 0.3393658399581909 0.3671071529388428 0.8660237193107605 0.0 1.0
0.5320741534233093 -0.4801413118839264 0.004961874336004257 0.5878475308418274 0.6359447240829468 0.4999542236328125 0.0 1.0
0.5195047855377197 -0.49373874068260193 -1.3630328510316758e-07 -0.6787927150726318 -0.7343058586120605 -0.0 0.0 1.0
3 24 4
24 3 35
0 29 2
29 0 28
10 31 13
31 10 34
13 32 16
32 13 31
5 30 6
30 5 25
16 26 19
26 16 32
0 27 28
27 0 1
19 27 1
27 19 26
7 34 10
34 7 33
4 25 5
25 4 24
6 33 7
33 6 30
2 35 3
35 2 29
20 17 18
17 14 15
14 11 12
11 8 9
8 23 22
23 20 21
20 14 17
14 8 11
8 20 23
14 20 8
LABEL Group_1
MATERIAL 1
TEXTURE 0
GEOM 36 34
-0.00337008573114872 -0.0036418598610907793 -0.008594002574682236 -0.3393658399581909 -0.3671071529388428 -0.8660237193107605 0.0 1.0
-1.8749942682916299e-06 1.8473668887963868e-06 -0.009922999888658524 -0.0 0.0 -1.0 0.0 1.0
-0.005835491232573986 -0.006308919750154018 -0.004962005186825991 -0.5878475308418274 -0.6359447240829468 -0.4999542236328125 0.0 1.0
-0.006737619172781706 -0.007284836377948523 -5.584527063007272e-09 -0.6787927150726318 -0.7343058586120605 -0.0 0.0 1.0
-0.00583549402654171 -0.006308925338089466 0.00496199494227767 -0.5878475308418274 -0.6359447240829468 0.4999237060546875 0.0 1.0
-0.003370090154930949 -0.0036418696399778128 0.008593996986746788 -0.3393658399581909 -0.3671071529388428 0.8660237193107605 0.0 1.0
-1.8796976064550108e-06 1.8364808056503534e-06 0.009922999888658524 -0.0 0.0 1.0 0.0 1.0
0.0033663311041891575 0.003645543707534671 0.008594002574682236 0.3393658399581909 0.3671071529388428 0.8660237193107605 0.0 1.0
0.5296087265014648 -0.48280835151672363 -0.008594127371907234 0.7343058586120605 -0.6787927150726318 -0.0 0.0 1.0
0.5320741534233093 -0.4801413118839264 -0.004962125793099403 0.7343058586120605 -0.6787927150726318 -0.0 0.0 1.0
0.005831737071275711 0.006312603130936623 0.004962005186825991 0.5878475308418274 0.6359447240829468 0.4999542236328125 0.0 1.0
0.5329762697219849 -0.4791654050350189 -1.2511546287896635e-07 0.7343058586120605 -0.6787927150726318 -0.0 0.0 1.0
0.5320741534233093 -0.4801413118839264 0.004961874336004257 0.7343058586120605 -0.6787927150726318 -0.0 0.0 1.0
0.0067338645458221436 0.007288520224392414 5.603286723498968e-09 0.6787927150726318 0.7343058586120605 -0.0 0.0 1.0
0.5296087265014648 -0.482808381319046 0.00859387218952179 0.7343058586120605 -0.6787927150726318 -0.0 0.0 1.0
0.5262405276298523 -0.4864520728588104 0.009922869503498077 0.7343058586120605 -0.6787927150726318 -0.0 0.0 1.0
0.005831739865243435 0.006312609650194645 -0.00496199494227767 0.5878475308418274 0.6359447240829468 -0.4999542236328125 0.0 1.0
0.5228723287582397 -0.4900957942008972 0.008593866601586342 0.7343058586120605 -0.6787927150726318 -0.0 0.0 1.0
0.5204069018363953 -0.49276283383369446 0.004961864091455936 0.7343058586120605 -0.6787927150726318 -0.0 0.0 1.0
0.0033663350623100996 0.003645553020760417 -0.008593996986746788 0.3393658399581909 0.3671071529388428 -0.8660237193107605 0.0 1.0
0.5195047855377197 -0.49373874068260193 -1.3630328510316758e-07 0.7343058586120605 -0.6787927150726318 -0.0 0.0 1.0
0.5204069018363953 -0.49276283383369446 -0.004962136037647724 0.7343058586120605 -0.6787927150726318 -0.0 0.0 1.0
0.5262405276298523 -0.4864520728588104 -0.00992313027381897 0.7343058586120605 -0.6787927150726318 -0.0 0.0 1.0
0.5228723287582397 -0.49009576439857483 -0.008594132959842682 0.7343058586120605 -0.6787927150726318 -0.0 0.0 1.0
0.5204069018363953 -0.49276283383369446 0.004961864091455936 -0.5878475308418274 -0.6359447240829468 0.4999237060546875 0.0 1.0
0.5228723287582397 -0.4900957942008972 0.008593866601586342 -0.3393658399581909 -0.3671071529388428 0.8660237193107605 0.0 1.0
0.5296087265014648 -0.48280835151672363 -0.008594127371907234 0.3393658399581909 0.3671071529388428 -0.8660237193107605 0.0 1.0
0.5262405276298523 -0.4864520728588104 -0.00992313027381897 -0.0 0.0 -1.0 0.0 1.0
0.5228723287582397 -0.49009576439857483 -0.008594132959842682 -0.3393658399581909 -0.3671071529388428 -0.8660237193107605 0.0 1.0
0.5204069018363953 -0.49276283383369446 -0.004962136037647724 -0.5878475308418274 -0.6359447240829468 -0.4999542236328125 0.0 1.0
0.5262405276298523 -0.4864520728588104 0.009922869503498077 -0.0 0.0 1.0 0.0 1.0
0.5329762697219849 -0.4791654050350189 -1.2511546287896635e-07 0.6787927150726318 0.7343058586120605 -0.0 0.0 1.0
0.5320741534233093 -0.4801413118839264 -0.004962125793099403 0.5878475308418274 0.6359447240829468 -0.4999542236328125 0.0 1.0
0.5296087265014648 -0.482808381319046 0.00859387218952179 0.3393658399581909 0.3671071529388428 0.8660237193107605 0.0 1.0
0.5320741534233093 -0.4801413118839264 0.004961874336004257 0.5878475308418274 0.6359447240829468 0.4999542236328125 0.0 1.0
0.5195047855377197 -0.49373874068260193 -1.3630328510316758e-07 -0.6787927150726318 -0.7343058586120605 -0.0 0.0 1.0
3 24 4
24 3 35
0 29 2
29 0 28
10 31 13
31 10 34
13 32 16
32 13 31
5 30 6
30 5 25
16 26 19
26 16 32
0 27 28
27 0 1
19 27 1
27 19 26
7 34 10
34 7 33
4 25 5
25 4 24
6 33 7
33 6 30
2 35 3
35 2 29
20 17 18
17 14 15
14 11 12
11 8 9
8 23 22
23 20 21
20 14 17
14 8 11
8 20 23
14 20 8
LABEL Group_10
MATERIAL 1
TEXTURE 0
GEOM 36 34
-0.00337008573114872 -0.0036418598610907793 -0.008594002574682236 -0.3393658399581909 -0.3671071529388428 -0.8660237193107605 0.0 1.0
-1.8749942682916299e-06 1.8473668887963868e-06 -0.009922999888658524 -0.0 0.0 -1.0 0.0 1.0
-0.005835491232573986 -0.006308919750154018 -0.004962005186825991 -0.5878475308418274 -0.6359447240829468 -0.4999542236328125 0.0 1.0
-0.006737619172781706 -0.007284836377948523 -5.584527063007272e-09 -0.6787927150726318 -0.7343058586120605 -0.0 0.0 1.0
-0.00583549402654171 -0.006308925338089466 0.00496199494227767 -0.5878475308418274 -0.6359447240829468 0.4999237060546875 0.0 1.0
-0.003370090154930949 -0.0036418696399778128 0.008593996986746788 -0.3393658399581909 -0.3671071529388428 0.8660237193107605 0.0 1.0
-1.8796976064550108e-06 1.8364808056503534e-06 0.009922999888658524 -0.0 0.0 1.0 0.0 1.0
0.0033663311041891575 0.003645543707534671 0.008594002574682236 0.3393658399581909 0.3671071529388428 0.8660237193107605 0.0 1.0
0.5296087265014648 -0.48280835151672363 -0.008594127371907234 0.7343058586120605 -0.6787927150726318 -0.0 0.0 1.0
0.5320741534233093 -0.4801413118839264 -0.004962125793099403 0.7343058586120605 -0.6787927150726318 -0.0 0.0 1.0
0.005831737071275711 0.006312603130936623 0.004962005186825991 0.5878475308418274 0.6359447240829468 0.4999542236328125 0.0 1.0
0.5329762697219849 -0.4791654050350189 -1.2511546287896635e-07 0.7343058586120605 -0.6787927150726318 -0.0 0.0 1.0
0.5320741534233093 -0.4801413118839264 0.004961874336004257 0.7343058586120605 -0.6787927150726318 -0.0 0.0 1.0
0.0067338645458221436 0.007288520224392414 5.603286723498968e-09 0.6787927150726318 0.7343058586120605 -0.0 0.0 1.0
0.5296087265014648 -0.482808381319046 0.00859387218952179 0.7343058586120605 -0.6787927150726318 -0.0 0.0 1.0
0.5262405276298523 -0.4864520728588104 0.009922869503498077 0.7343058586120605 -0.6787927150726318 -0.0 0.0 1.0
0.005831739865243435 0.006312609650194645 -0.00496199494227767 0.5878475308418274 0.6359447240829468 -0.4999542236328125 0.0 1.0
0.5228723287582397 -0.4900957942008972 0.008593866601586342 0.7343058586120605 -0.6787927150726318 -0.0 0.0 1.0
0.5204069018363953 -0.49276283383369446 0.004961864091455936 0.7343058586120605 -0.6787927150726318 -0.0 0.0 1.0
0.0033663350623100996 0.003645553020760417 -0.008593996986746788 0.3393658399581909 0.3671071529388428 -0.8660237193107605 0.0 1.0
0.5195047855377197 -0.49373874068260193 -1.3630328510316758e-07 0.7343058586120605 -0.6787927150726318 -0.0 0.0 1.0
0.5204069018363953 -0.49276283383369446 -0.004962136037647724 0.7343058586120605 -0.6787927150726318 -0.0 0.0 1.0
0.5262405276298523 -0.4864520728588104 -0.00992313027381897 0.7343058586120605 -0.6787927150726318 -0.0 0.0 1.0
0.5228723287582397 -0.49009576439857483 -0.008594132959842682 0.7343058586120605 -0.6787927150726318 -0.0 0.0 1.0
0.5204069018363953 -0.49276283383369446 0.004961864091455936 -0.5878475308418274 -0.6359447240829468 0.4999237060546875 0.0 1.0
0.5228723287582397 -0.4900957942008972 0.008593866601586342 -0.3393658399581909 -0.3671071529388428 0.8660237193107605 0.0 1.0
0.5296087265014648 -0.48280835151672363 -0.008594127371907234 0.3393658399581909 0.3671071529388428 -0.8660237193107605 0.0 1.0
0.5262405276298523 -0.4864520728588104 -0.00992313027381897 -0.0 0.0 -1.0 0.0 1.0
0.5228723287582397 -0.49009576439857483 -0.008594132959842682 -0.3393658399581909 -0.3671071529388428 -0.8660237193107605 0.0 1.0
0.5204069018363953 -0.49276283383369446 -0.004962136037647724 -0.5878475308418274 -0.6359447240829468 -0.4999542236328125 0.0 1.0
0.5262405276298523 -0.4864520728588104 0.009922869503498077 -0.0 0.0 1.0 0.0 1.0
0.5329762697219849 -0.4791654050350189 -1.2511546287896635e-07 0.6787927150726318 0.7343058586120605 -0.0 0.0 1.0
0.5320741534233093 -0.4801413118839264 -0.004962125793099403 0.5878475308418274 0.6359447240829468 -0.4999542236328125 0.0 1.0
0.5296087265014648 -0.482808381319046 0.00859387218952179 0.3393658399581909 0.3671071529388428 0.8660237193107605 0.0 1.0
0.5320741534233093 -0.4801413118839264 0.004961874336004257 0.5878475308418274 0.6359447240829468 0.4999542236328125 0.0 1.0
0.5195047855377197 -0.49373874068260193 -1.3630328510316758e-07 -0.6787927150726318 -0.7343058586120605 -0.0 0.0 1.0
3 24 4
24 3 35
0 29 2
29 0 28
10 31 13
31 10 34
13 32 16
32 13 31
5 30 6
30 5 25
16 26 19
26 16 32
0 27 28
27 0 1
19 27 1
27 19 26
7 34 10
34 7 33
4 25 5
25 4 24
6 33 7
33 6 30
2 35 3
35 2 29
20 17 18
17 14 15
14 11 12
11 8 9
8 23 22
23 20 21
20 14 17
14 8 11
8 20 23
14 20 8
LABEL Group_11
MATERIAL 1
TEXTURE 0
GEOM 36 34
-0.00337008573114872 -0.0036418598610907793 -0.008594002574682236 -0.3393658399581909 -0.3671071529388428 -0.8660237193107605 0.0 1.0
-1.8749942682916299e-06 1.8473668887963868e-06 -0.009922999888658524 -0.0 0.0 -1.0 0.0 1.0
-0.005835491232573986 -0.006308919750154018 -0.004962005186825991 -0.5878475308418274 -0.6359447240829468 -0.4999542236328125 0.0 1.0
-0.006737619172781706 -0.007284836377948523 -5.584527063007272e-09 -0.6787927150726318 -0.7343058586120605 -0.0 0.0 1.0
-0.00583549402654171 -0.006308925338089466 0.00496199494227767 -0.5878475308418274 -0.6359447240829468 0.4999237060546875 0.0 1.0
-0.003370090154930949 -0.0036418696399778128 0.008593996986746788 -0.3393658399581909 -0.3671071529388428 0.8660237193107605 0.0 1.0
-1.8796976064550108e-06 1.8364808056503534e-06 0.009922999888658524 -0.0 0.0 1.0 0.0 1.0
0.0033663311041891575 0.003645543707534671 0.008594002574682236 0.3393658399581909 0.3671071529388428 0.8660237193107605 0.0 1.0
0.5296087265014648 -0.48280835151672363 -0.008594127371907234 0.7343058586120605 -0.6787927150726318 -0.0 0.0 1.0
0.5320741534233093 -0.4801413118839264 -0.004962125793099403 0.7343058586120605 -0.6787927150726318 -0.0 0.0 1.0
0.005831737071275711 0.006312603130936623 0.004962005186825991 0.5878475308418274 0.6359447240829468 0.4999542236328125 0.0 1.0
0.5329762697219849 -0.4791654050350189 -1.2511546287896635e-07 0.7343058586120605 -0.6787927150726318 -0.0 0.0 1.0
0.5320741534233093 -0.4801413118839264 0.004961874336004257 0.7343058586120605 -0.6787927150726318 -0.0 0.0 1.0
0.0067338645458221436 0.007288520224392414 5.603286723498968e-09 0.6787927150726318 0.7343058586120605 -0.0 0.0 1.0
0.5296087265014648 -0.482808381319046 0.00859387218952179 0.7343058586120605 -0.6787927150726318 -0.0 0.0 1.0
0.5262405276298523 -0.4864520728588104 0.009922869503498077 0.7343058586120605 -0.6787927150726318 -0.0 0.0 1.0
0.005831739865243435 0.006312609650194645 -0.00496199494227767 0.5878475308418274 0.6359447240829468 -0.4999542236328125 0.0 1.0
0.5228723287582397 -0.4900957942008972 0.008593866601586342 0.7343058586120605 -0.6787927150726318 -0.0 0.0 1.0
0.5204069018363953 -0.49276283383369446 0.004961864091455936 0.7343058586120605 -0.6787927150726318 -0.0 0.0 1.0
0.0033663350623100996 0.003645553020760417 -0.008593996986746788 0.3393658399581909 0.3671071529388428 -0.8660237193107605 0.0 1.0
0.5195047855377197 -0.49373874068260193 -1.3630328510316758e-07 0.7343058586120605 -0.6787927150726318 -0.0 0.0 1.0
0.5204069018363953 -0.49276283383369446 -0.004962136037647724 0.7343058586120605 -0.6787927150726318 -0.0 0.0 1.0
0.5262405276298523 -0.4864520728588104 -0.00992313027381897 0.7343058586120605 -0.6787927150726318 -0.0 0.0 1.0
0.5228723287582397 -0.49009576439857483 -0.008594132959842682 0.7343058586120605 -0.6787927150726318 -0.0 0.0 1.0
0.5204069018363953 -0.49276283383369446 0.004961864091455936 -0.5878475308418274 -0.6359447240829468 0.4999237060546875 0.0 1.0
0.5228723287582397 -0.4900957942008972 0.008593866601586342 -0.3393658399581909 -0.3671071529388428 0.8660237193107605 0.0 1.0
0.5296087265014648 -0.48280835151672363 -0.008594127371907234 0.3393658399581909 0.3671071529388428 -0.8660237193107605 0.0 1.0
0.5262405276298523 -0.4864520728588104 -0.00992313027381897 -0.0 0.0 -1.0 0.0 1.0
0.5228723287582397 -0.49009576439857483 -0.008594132959842682 -0.3393658399581909 -0.3671071529388428 -0.8660237193107605 0.0 1.0
0.5204069018363953 -0.49276283383369446 -0.004962136037647724 -0.5878475308418274 -0.6359447240829468 -0.4999542236328125 0.0 1.0
0.5262405276298523 -0.4864520728588104 0.009922869503498077 -0.0 0.0 1.0 0.0 1.0
0.5329762697219849 -0.4791654050350189 -1.2511546287896635e-07 0.6787927150726318 0.7343058586120605 -0.0 0.0 1.0
0.5320741534233093 -0.4801413118839264 -0.004962125793099403 0.5878475308418274 0.6359447240829468 -0.4999542236328125 0.0 1.0
0.5296087265014648 -0.482808381319046 0.00859387218952179 0.3393658399581909 0.3671071529388428 0.8660237193107605 0.0 1.0
0.5320741534233093 -0.4801413118839264 0.004961874336004257 0.5878475308418274 0.6359447240829468 0.4999542236328125 0.0 1.0
0.5195047855377197 -0.49373874068260193 -1.3630328510316758e-07 -0.6787927150726318 -0.7343058586120605 -0.0 0.0 1.0
3 24 4
24 3 35
0 29 2
29 0 28
10 31 13
31 10 34
13 32 16
32 13 31
5 30 6
30 5 25
16 26 19
26 16 32
0 27 28
27 0 1
19 27 1
27 19 26
7 34 10
34 7 33
4 25 5
25 4 24
6 33 7
33 6 30
2 35 3
35 2 29
20 17 18
17 14 15
14 11 12
11 8 9
8 23 22
23 20 21
20 14 17
14 8 11
8 20 23
14 20 8
LABEL Group_12
MATERIAL 1
TEXTURE 0
GEOM 36 34
-0.00337008573114872 -0.0036418598610907793 -0.008594002574682236 -0.3393658399581909 -0.3671071529388428 -0.8660237193107605 0.0 1.0
-1.8749942682916299e-06 1.8473668887963868e-06 -0.009922999888658524 -0.0 0.0 -1.0 0.0 1.0
-0.005835491232573986 -0.006308919750154018 -0.004962005186825991 -0.5878475308418274 -0.6359447240829468 -0.4999542236328125 0.0 1.0
-0.006737619172781706 -0.007284836377948523 -5.584527063007272e-09 -0.6787927150726318 -0.7343058586120605 -0.0 0.0 1.0
-0.00583549402654171 -0.006308925338089466 0.00496199494227767 -0.5878475308418274 -0.6359447240829468 0.4999237060546875 0.0 1.0
-0.003370090154930949 -0.0036418696399778128 0.008593996986746788 -0.3393658399581909 -0.3671071529388428 0.8660237193107605 0.0 1.0
-1.8796976064550108e-06 1.8364808056503534e-06 0.009922999888658524 -0.0 0.0 1.0 0.0 1.0
0.0033663311041891575 0.003645543707534671 0.008594002574682236 0.3393658399581909 0.3671071529388428 0.8660237193107605 0.0 1.0
0.5296087265014648 -0.48280835151672363 -0.008594127371907234 0.7343058586120605 -0.6787927150726318 -0.0 0.0 1.0
0.5320741534233093 -0.4801413118839264 -0.004962125793099403 0.7343058586120605 -0.6787927150726318 -0.0 0.0 1.0
0.005831737071275711 0.006312603130936623 0.004962005186825991 0.5878475308418274 0.6359447240829468 0.4999542236328125 0.0 1.0
0.5329762697219849 -0.4791654050350189 -1.2511546287896635e-07 0.7343058586120605 -0.6787927150726318 -0.0 0.0 1.0
0.5320741534233093 -0.4801413118839264 0.004961874336004257 0.7343058586120605 -0.6787927150726318 -0.0 0.0 1.0
0.0067338645458221436 0.007288520224392414 5.603286723498968e-09 0.6787927150726318 0.7343058586120605 -0.0 0.0 1.0
0.5296087265014648 -0.482808381319046 0.00859387218952179 0.7343058586120605 -0.6787927150726318 -0.0 0.0 1.0
0.5262405276298523 -0.4864520728588104 0.009922869503498077 0.7343058586120605 -0.6787927150726318 -0.0 0.0 1.0
0.005831739865243435 0.006312609650194645 -0.00496199494227767 0.5878475308418274 0.6359447240829468 -0.4999542236328125 0.0 1.0
0.5228723287582397 -0.4900957942008972 0.008593866601586342 0.7343058586120605 -0.6787927150726318 -0.0 0.0 1.0
0.5204069018363953 -0.49276283383369446 0.004961864091455936 0.7343058586120605 -0.6787927150726318 -0.0 0.0 1.0
0.0033663350623100996 0.003645553020760417 -0.008593996986746788 0.3393658399581909 0.3671071529388428 -0.8660237193107605 0.0 1.0
0.5195047855377197 -0.49373874068260193 -1.3630328510316758e-07 0.7343058586120605 -0.6787927150726318 -0.0 0.0 1.0
0.5204069018363953 -0.49276283383369446 -0.004962136037647724 0.7343058586120605 -0.6787927150726318 -0.0 0.0 1.0
0.5262405276298523 -0.4864520728588104 -0.00992313027381897 0.7343058586120605 -0.6787927150726318 -0.0 0.0 1.0
0.5228723287582397 -0.49009576439857483 -0.008594132959842682 0.7343058586120605 -0.6787927150726318 -0.0 0.0 1.0
0.5204069018363953 -0.49276283383369446 0.004961864091455936 -0.5878475308418274 -0.6359447240829468 0.4999237060546875 0.0 1.0
0.5228723287582397 -0.4900957942008972 0.008593866601586342 -0.3393658399581909 -0.3671071529388428 0.8660237193107605 0.0 1.0
0.5296087265014648 -0.48280835151672363 -0.008594127371907234 0.3393658399581909 0.3671071529388428 -0.8660237193107605 0.0 1.0
0.5262405276298523 -0.4864520728588104 -0.00992313027381897 -0.0 0.0 -1.0 0.0 1.0
0.5228723287582397 -0.49009576439857483 -0.008594132959842682 -0.3393658399581909 -0.3671071529388428 -0.8660237193107605 0.0 1.0
0.5204069018363953 -0.49276283383369446 -0.004962136037647724 -0.5878475308418274 -0.6359447240829468 -0.4999542236328125 0.0 1.0
0.5262405276298523 -0.4864520728588104 0.009922869503498077 -0.0 0.0 1.0 0.0 1.0
0.5329762697219849 -0.4791654050350189 -1.2511546287896635e-07 0.6787927150726318 0.7343058586120605 -0.0 0.0 1.0
0.5320741534233093 -0.4801413118839264 -0.004962125793099403 0.5878475308418274 0.6359447240829468 -0.4999542236328125 0.0 1.0
0.5296087265014648 -0.482808381319046 0.00859387218952179 0.3393658399581909 0.3671071529388428 0.8660237193107605 0.0 1.0
0.5320741534233093 -0.4801413118839264 0.004961874336004257 0.5878475308418274 0.6359447240829468 0.4999542236328125 0.0 1.0
0.5195047855377197 -0.49373874068260193 -1.3630328510316758e-07 -0.6787927150726318 -0.7343058586120605 -0.0 0.0 1.0
3 24 4
24 3 35
0 29 2
29 0 28
10 31 13
31 10 34
13 32 16
32 13 31
5 30 6
30 5 25
16 26 19
26 16 32
0 27 28
27 0 1
19 27 1
27 19 26
7 34 10
34 7 33
4 25 5
25 4 24
6 33 7
33 6 30
2 35 3
35 2 29
20 17 18
17 14 15
14 11 12
11 8 9
8 23 22
23 20 21
20 14 17
14 8 11
8 20 23
14 20 8
LABEL Group_13
MATERIAL 1
TEXTURE 0
GEOM 36 34
-0.00337008573114872 -0.0036418598610907793 -0.008594002574682236 -0.3393658399581909 -0.3671071529388428 -0.8660237193107605 0.0 1.0
-1.8749942682916299e-06 1.8473668887963868e-06 -0.009922999888658524 -0.0 0.0 -1.0 0.0 1.0
-0.005835491232573986 -0.006308919750154018 -0.004962005186825991 -0.5878475308418274 -0.6359447240829468 -0.4999542236328125 0.0 1.0
-0.006737619172781706 -0.007284836377948523 -5.584527063007272e-09 -0.6787927150726318 -0.7343058586120605 -0.0 0.0 1.0
-0.00583549402654171 -0.006308925338089466 0.00496199494227767 -0.5878475308418274 -0.6359447240829468 0.4999237060546875 0.0 1.0
-0.003370090154930949 -0.0036418696399778128 0.008593996986746788 -0.3393658399581909 -0.3671071529388428 0.8660237193107605 0.0 1.0
-1.8796976064550108e-06 1.8364808056503534e-06 0.009922999888658524 -0.0 0.0 1.0 0.0 1.0
0.0033663311041891575 0.003645543707534671 0.008594002574682236 0.3393658399581909 0.3671071529388428 0.8660237193107605 0.0 1.0
0.5296087265014648 -0.48280835151672363 -0.008594127371907234 0.7343058586120605 -0.6787927150726318 -0.0 0.0 1.0
0.5320741534233093 -0.4801413118839264 -0.004962125793099403 0.7343058586120605 -0.6787927150726318 -0.0 0.0 1.0
0.005831737071275711 0.006312603130936623 0.004962005186825991 0.5878475308418274 0.6359447240829468 0.4999542236328125 0.0 1.0
0.5329762697219849 -0.4791654050350189 -1.2511546287896635e-07 0.7343058586120605 -0.6787927150726318 -0.0 0.0 1.0
0.5320741534233093 -0.4801413118839264 0.004961874336004257 0.7343058586120605 -0.6787927150726318 -0.0 0.0 1.0
0.0067338645458221436 0.007288520224392414 5.603286723498968e-09 0.6787927150726318 0.7343058586120605 -0.0 0.0 1.0
0.5296087265014648 -0.482808381319046 0.00859387218952179 0.7343058586120605 -0.6787927150726318 -0.0 0.0 1.0
0.5262405276298523 -0.4864520728588104 0.009922869503498077 0.7343058586120605 -0.6787927150726318 -0.0 0.0 1.0
0.005831739865243435 0.006312609650194645 -0.00496199494227767 0.5878475308418274 0.6359447240829468 -0.4999542236328125 0.0 1.0
0.5228723287582397 -0.4900957942008972 0.008593866601586342 0.7343058586120605 -0.6787927150726318 -0.0 0.0 1.0
0.5204069018363953 -0.49276283383369446 0.004961864091455936 0.7343058586120605 -0.6787927150726318 -0.0 0.0 1.0
0.0033663350623100996 0.003645553020760417 -0.008593996986746788 0.3393658399581909 0.3671071529388428 -0.8660237193107605 0.0 1.0
0.5195047855377197 -0.49373874068260193 -1.3630328510316758e-07 0.7343058586120605 -0.6787927150726318 -0.0 0.0 1.0
0.5204069018363953 -0.49276283383369446 -0.004962136037647724 0.7343058586120605 -0.6787927150726318 -0.0 0.0 1.0
0.5262405276298523 -0.4864520728588104 -0.00992313027381897 0.7343058586120605 -0.6787927150726318 -0.0 0.0 1.0
0.5228723287582397 -0.49009576439857483 -0.008594132959842682 0.7343058586120605 -0.6787927150726318 -0.0 0.0 1.0
0.5204069018363953 -0.49276283383369446 0.004961864091455936 -0.5878475308418274 -0.6359447240829468 0.4999237060546875 0.0 1.0
0.5228723287582397 -0.4900957942008972 0.008593866601586342 -0.3393658399581909 -0.3671071529388428 0.8660237193107605 0.0 1.0
0.5296087265014648 -0.48280835151672363 -0.008594127371907234 0.3393658399581909 0.3671071529388428 -0.8660237193107605 0.0 1.0
0.5262405276298523 -0.4864520728588104 -0.00992313027381897 -0.0 0.0 -1.0 0.0 1.0
0.5228723287582397 -0.49009576439857483 -0.008594132959842682 -0.3393658399581909 -0.3671071529388428 -0.8660237193107605 0.0 1.0
0.5204069018363953 -0.49276283383369446 -0.004962136037647724 -0.5878475308418274 -0.6359447240829468 -0.4999542236328125 0.0 1.0
0.5262405276298523 -0.4864520728588104 0.009922869503498077 -0.0 0.0 1.0 0.0 1.0
0.5329762697219849 -0.4791654050350189 -1.2511546287896635e-07 0.6787927150726318 0.7343058586120605 -0.0 0.0 1.0
0.5320741534233093 -0.4801413118839264 -0.004962125793099403 0.5878475308418274 0.6359447240829468 -0.4999542236328125 0.0 1.0
0.5296087265014648 -0.482808381319046 0.00859387218952179 0.3393658399581909 0.3671071529388428 0.8660237193107605 0.0 1.0
0.5320741534233093 -0.4801413118839264 0.004961874336004257 0.5878475308418274 0.6359447240829468 0.4999542236328125 0.0 1.0
0.5195047855377197 -0.49373874068260193 -1.3630328510316758e-07 -0.6787927150726318 -0.7343058586120605 -0.0 0.0 1.0
3 24 4
24 3 35
0 29 2
29 0 28
10 31 13
31 10 34
13 32 16
32 13 31
5 30 6
30 5 25
16 26 19
26 16 32
0 27 28
27 0 1
19 27 1
27 19 26
7 34 10
34 7 33
4 25 5
25 4 24
6 33 7
33 6 30
2 35 3
35 2 29
20 17 18
17 14 15
14 11 12
11 8 9
8 23 22
23 20 21
20 14 17
14 8 11
8 20 23
14 20 8
LABEL Group_14
MATERIAL 1
TEXTURE 0
GEOM 36 34
-0.00337008573114872 -0.0036418598610907793 -0.008594002574682236 -0.3393658399581909 -0.3671071529388428 -0.8660237193107605 0.0 1.0
-1.8749942682916299e-06 1.8473668887963868e-06 -0.009922999888658524 -0.0 0.0 -1.0 0.0 1.0
-0.005835491232573986 -0.006308919750154018 -0.004962005186825991 -0.5878475308418274 -0.6359447240829468 -0.4999542236328125 0.0 1.0
-0.006737619172781706 -0.007284836377948523 -5.584527063007272e-09 -0.6787927150726318 -0.7343058586120605 -0.0 0.0 1.0
-0.00583549402654171 -0.006308925338089466 0.00496199494227767 -0.5878475308418274 -0.6359447240829468 0.4999237060546875 0.0 1.0
-0.003370090154930949 -0.0036418696399778128 0.008593996986746788 -0.3393658399581909 -0.3671071529388428 0.8660237193107605 0.0 1.0
-1.8796976064550108e-06 1.8364808056503534e-06 0.009922999888658524 -0.0 0.0 1.0 0.0 1.0
0.0033663311041891575 0.003645543707534671 0.008594002574682236 0.3393658399581909 0.3671071529388428 0.8660237193107605 0.0 1.0
0.5296087265014648 -0.48280835151672363 -0.008594127371907234 0.7343058586120605 -0.6787927150726318 -0.0 0.0 1.0
0.5320741534233093 -0.4801413118839264 -0.004962125793099403 0.7343058586120605 -0.6787927150726318 -0.0 0.0 1.0
0.005831737071275711 0.006312603130936623 0.004962005186825991 0.5878475308418274 0.6359447240829468 0.4999542236328125 0.0 1.0
0.5329762697219849 -0.4791654050350189 -1.2511546287896635e-07 0.7343058586120605 -0.6787927150726318 -0.0 0.0 1.0
0.5320741534233093 -0.4801413118839264 0.004961874336004257 0.7343058586120605 -0.6787927150726318 -0.0 0.0 1.0
0.0067338645458221436 0.007288520224392414 5.603286723498968e-09 0.6787927150726318 0.7343058586120605 -0.0 0.0 1.0
0.5296087265014648 -0.482808381319046 0.00859387218952179 0.7343058586120605 -0.6787927150726318 -0.0 0.0 1.0
0.5262405276298523 -0.4864520728588104 0.009922869503498077 0.7343058586120605 -0.6787927150726318 -0.0 0.0 1.0
0.005831739865243435 0.006312609650194645 -0.00496199494227767 0.5878475308418274 0.6359447240829468 -0.4999542236328125 0.0 1.0
0.5228723287582397 -0.4900957942008972 0.008593866601586342 0.7343058586120605 -0.6787927150726318 -0.0 0.0 1.0
0.5204069018363953 -0.49276283383369446 0.004961864091455936 0.7343058586120605 -0.6787927150726318 -0.0 0.0 1.0
0.0033663350623100996 0.003645553020760417 -0.008593996986746788 0.3393658399581909 0.3671071529388428 -0.8660237193107605 0.0 1.0
0.5195047855377197 -0.49373874068260193 -1.3630328510316758e-07 0.7343058586120605 -0.6787927150726318 -0.0 0.0 1.0
0.5204069018363953 -0.49276283383369446 -0.004962136037647724 0.7343058586120605 -0.6787927150726318 -0.0 0.0 1.0
0.5262405276298523 -0.4864520728588104 -0.00992313027381897 0.7343058586120605 -0.6787927150726318 -0.0 0.0 1.0
0.5228723287582397 -0.49009576439857483 -0.008594132959842682 0.7343058586120605 -0.6787927150726318 -0.0 0.0 1.0
0.5204069018363953 -0.49276283383369446 0.004961864091455936 -0.5878475308418274 -0.6359447240829468 0.4999237060546875 0.0 1.0
0.5228723287582397 -0.4900957942008972 0.008593866601586342 -0.3393658399581909 -0.3671071529388428 0.8660237193107605 0.0 1.0
0.5296087265014648 -0.48280835151672363 -0.008594127371907234 0.3393658399581909 0.3671071529388428 -0.8660237193107605 0.0 1.0
0.5262405276298523 -0.4864520728588104 -0.00992313027381897 -0.0 0.0 -1.0 0.0 1.0
0.5228723287582397 -0.49009576439857483 -0.008594132959842682 -0.3393658399581909 -0.3671071529388428 -0.8660237193107605 0.0 1.0
0.5204069018363953 -0.49276283383369446 -0.004962136037647724 -0.5878475308418274 -0.6359447240829468 -0.4999542236328125 0.0 1.0
0.5262405276298523 -0.4864520728588104 0.009922869503498077 -0.0 0.0 1.0 0.0 1.0
0.5329762697219849 -0.4791654050350189 -1.2511546287896635e-07 0.6787927150726318 0.7343058586120605 -0.0 0.0 1.0
0.5320741534233093 -0.4801413118839264 -0.004962125793099403 0.5878475308418274 0.6359447240829468 -0.4999542236328125 0.0 1.0
0.5296087265014648 -0.482808381319046 0.00859387218952179 0.3393658399581909 0.3671071529388428 0.8660237193107605 0.0 1.0
0.5320741534233093 -0.4801413118839264 0.004961874336004257 0.5878475308418274 0.6359447240829468 0.4999542236328125 0.0 1.0
0.5195047855377197 -0.49373874068260193 -1.3630328510316758e-07 -0.6787927150726318 -0.7343058586120605 -0.0 0.0 1.0
3 24 4
24 3 35
0 29 2
29 0 28
10 31 13
31 10 34
13 32 16
32 13 31
5 30 6
30 5 25
16 26 19
26 16 32
0 27 28
27 0 1
19 27 1
27 19 26
7 34 10
34 7 33
4 25 5
25 4 24
6 33 7
33 6 30
2 35 3
35 2 29
20 17 18
17 14 15
14 11 12
11 8 9
8 23 22
23 20 21
20 14 17
14 8 11
8 20 23
14 20 8
LABEL Group_2
MATERIAL 1
TEXTURE 0
GEOM 36 34
-0.00337008573114872 -0.0036418598610907793 -0.008594002574682236 -0.3393658399581909 -0.3671071529388428 -0.8660237193107605 0.0 1.0
-1.8749942682916299e-06 1.8473668887963868e-06 -0.009922999888658524 -0.0 0.0 -1.0 0.0 1.0
-0.005835491232573986 -0.006308919750154018 -0.004962005186825991 -0.5878475308418274 -0.6359447240829468 -0.4999542236328125 0.0 1.0
-0.006737619172781706 -0.007284836377948523 -5.584527063007272e-09 -0.6787927150726318 -0.7343058586120605 -0.0 0.0 1.0
-0.00583549402654171 -0.006308925338089466 0.00496199494227767 -0.5878475308418274 -0.6359447240829468 0.4999237060546875 0.0 1.0
-0.003370090154930949 -0.0036418696399778128 0.008593996986746788 -0.3393658399581909 -0.3671071529388428 0.8660237193107605 0.0 1.0
-1.8796976064550108e-06 1.8364808056503534e-06 0.009922999888658524 -0.0 0.0 1.0 0.0 1.0
0.0033663311041891575 0.003645543707534671 0.008594002574682236 0.3393658399581909 0.3671071529388428 0.8660237193107605 0.0 1.0
0.5296087265014648 -0.48280835151672363 -0.008594127371907234 0.7343058586120605 -0.6787927150726318 -0.0 0.0 1.0
0.5320741534233093 -0.4801413118839264 -0.004962125793099403 0.7343058586120605 -0.6787927150726318 -0.0 0.0 1.0
0.005831737071275711 0.006312603130936623 0.004962005186825991 0.5878475308418274 0.6359447240829468 0.4999542236328125 0.0 1.0
0.5329762697219849 -0.4791654050350189 -1.2511546287896635e-07 0.7343058586120605 -0.6787927150726318 -0.0 0.0 1.0
0.5320741534233093 -0.4801413118839264 0.004961874336004257 0.7343058586120605 -0.6787927150726318 -0.0 0.0 1.0
0.0067338645458221436 0.007288520224392414 5.603286723498968e-09 0.6787927150726318 0.7343058586120605 -0.0 0.0 1.0
0.5296087265014648 -0.482808381319046 0.00859387218952179 0.7343058586120605 -0.6787927150726318 -0.0 0.0 1.0
0.5262405276298523 -0.4864520728588104 0.009922869503498077 0.7343058586120605 -0.6787927150726318 -0.0 0.0 1.0
0.005831739865243435 0.006312609650194645 -0.00496199494227767 0.5878475308418274 0.6359447240829468 -0.4999542236328125 0.0 1.0
0.5228723287582397 -0.4900957942008972 0.008593866601586342 0.7343058586120605 -0.6787927150726318 -0.0 0.0 1.0
0.5204069018363953 -0.49276283383369446 0.004961864091455936 0.7343058586120605 -0.6787927150726318 -0.0 0.0 1.0
0.0033663350623100996 0.003645553020760417 -0.008593996986746788 0.3393658399581909 0.3671071529388428 -0.8660237193107605 0.0 1.0
0.5195047855377197 -0.49373874068260193 -1.3630328510316758e-07 0.7343058586120605 -0.6787927150726318 -0.0 0.0 1.0
0.5204069018363953 -0.49276283383369446 -0.004962136037647724 0.7343058586120605 -0.6787927150726318 -0.0 0.0 1.0
0.5262405276298523 -0.4864520728588104 -0.00992313027381897 0.7343058586120605 -0.6787927150726318 -0.0 0.0 1.0
0.5228723287582397 -0.49009576439857483 -0.008594132959842682 0.7343058586120605 -0.6787927150726318 -0.0 0.0 1.0
0.5204069018363953 -0.49276283383369446 0.004961864091455936 -0.5878475308418274 -0.6359447240829468 0.4999237060546875 0.0 1.0
0.5228723287582397 -0.4900957942008972 0.008593866601586342 -0.3393658399581909 -0.3671071529388428 0.8660237193107605 0.0 1.0
0.5296087265014648 -0.48280835151672363 -0.008594127371907234 0.3393658399581909 0.3671071529388428 -0.8660237193107605 0.0 1.0
0.5262405276298523 -0.4864520728588104 -0.00992313027381897 -0.0 0.0 -1.0 0.0 1.0
0.5228723287582397 -0.49009576439857483 -0.008594132959842682 -0.3393658399581909 -0.3671071529388428 -0.8660237193107605 0.0 1.0
0.5204069018363953 -0.49276283383369446 -0.004962136037647724 -0.5878475308418274 -0.6359447240829468 -0.4999542236328125 0.0 1.0
0.5262405276298523 -0.4864520728588104 0.009922869503498077 -0.0 0.0 1.0 0.0 1.0
0.5329762697219849 -0.4791654050350189 -1.2511546287896635e-07 0.6787927150726318 0.7343058586120605 -0.0 0.0 1.0
0.5320741534233093 -0.4801413118839264 -0.004962125793099403 0.5878475308418274 0.6359447240829468 -0.4999542236328125 0.0 1.0
0.5296087265014648 -0.482808381319046 0.00859387218952179 0.3393658399581909 0.3671071529388428 0.8660237193107605 0.0 1.0
0.5320741534233093 -0.4801413118839264 0.004961874336004257 0.5878475308418274 0.6359447240829468 0.4999542236328125 0.0 1.0
0.5195047855377197 -0.49373874068260193 -1.3630328510316758e-07 -0.6787927150726318 -0.7343058586120605 -0.0 0.0 1.0
3 24 4
24 3 35
0 29 2
29 0 28
10 31 13
31 10 34
13 32 16
32 13 31
5 30 6
30 5 25
16 26 19
26 16 32
0 27 28
27 0 1
19 27 1
27 19 26
7 34 10
34 7 33
4 25 5
25 4 24
6 33 7
33 6 30
2 35 3
35 2 29
20 17 18
17 14 15
14 11 12
11 8 9
8 23 22
23 20 21
20 14 17
14 8 11
8 20 23
14 20 8
LABEL Group_3
MATERIAL 1
TEXTURE 0
GEOM 36 34
-0.00337008573114872 -0.0036418598610907793 -0.008594002574682236 -0.3393658399581909 -0.3671071529388428 -0.8660237193107605 0.0 1.0
-1.8749942682916299e-06 1.8473668887963868e-06 -0.009922999888658524 -0.0 0.0 -1.0 0.0 1.0
-0.005835491232573986 -0.006308919750154018 -0.004962005186825991 -0.5878475308418274 -0.6359447240829468 -0.4999542236328125 0.0 1.0
-0.006737619172781706 -0.007284836377948523 -5.584527063007272e-09 -0.6787927150726318 -0.7343058586120605 -0.0 0.0 1.0
-0.00583549402654171 -0.006308925338089466 0.00496199494227767 -0.5878475308418274 -0.6359447240829468 0.4999237060546875 0.0 1.0
-0.003370090154930949 -0.0036418696399778128 0.008593996986746788 -0.3393658399581909 -0.3671071529388428 0.8660237193107605 0.0 1.0
-1.8796976064550108e-06 1.8364808056503534e-06 0.009922999888658524 -0.0 0.0 1.0 0.0 1.0
0.0033663311041891575 0.003645543707534671 0.008594002574682236 0.3393658399581909 0.3671071529388428 0.8660237193107605 0.0 1.0
0.5296087265014648 -0.48280835151672363 -0.008594127371907234 0.7343058586120605 -0.6787927150726318 -0.0 0.0 1.0
0.5320741534233093 -0.4801413118839264 -0.004962125793099403 0.7343058586120605 -0.6787927150726318 -0.0 0.0 1.0
0.005831737071275711 0.006312603130936623 0.004962005186825991 0.5878475308418274 0.6359447240829468 0.4999542236328125 0.0 1.0
0.5329762697219849 -0.4791654050350189 -1.2511546287896635e-07 0.7343058586120605 -0.6787927150726318 -0.0 0.0 1.0
0.5320741534233093 -0.4801413118839264 0.004961874336004257 0.7343058586120605 -0.6787927150726318 -0.0 0.0 1.0
0.0067338645458221436 0.007288520224392414 5.603286723498968e-09 0.6787927150726318 0.7343058586120605 -0.0 0.0 1.0
0.5296087265014648 -0.482808381319046 0.00859387218952179 0.7343058586120605 -0.6787927150726318 -0.0 0.0 1.0
0.5262405276298523 -0.4864520728588104 0.009922869503498077 0.7343058586120605 -0.6787927150726318 -0.0 0.0 1.0
0.005831739865243435 0.006312609650194645 -0.00496199494227767 0.5878475308418274 0.6359447240829468 -0.4999542236328125 0.0 1.0
0.5228723287582397 -0.4900957942008972 0.008593866601586342 0.7343058586120605 -0.6787927150726318 -0.0 0.0 1.0
0.5204069018363953 -0.49276283383369446 0.004961864091455936 0.7343058586120605 -0.6787927150726318 -0.0 0.0 1.0
0.0033663350623100996 0.003645553020760417 -0.008593996986746788 0.3393658399581909 0.3671071529388428 -0.8660237193107605 0.0 1.0
0.5195047855377197 -0.49373874068260193 -1.3630328510316758e-07 0.7343058586120605 -0.6787927150726318 -0.0 0.0 1.0
0.5204069018363953 -0.49276283383369446 -0.004962136037647724 0.7343058586120605 -0.6787927150726318 -0.0 0.0 1.0
0.5262405276298523 -0.4864520728588104 -0.00992313027381897 0.7343058586120605 -0.6787927150726318 -0.0 0.0 1.0
0.5228723287582397 -0.49009576439857483 -0.008594132959842682 0.7343058586120605 -0.6787927150726318 -0.0 0.0 1.0
0.5204069018363953 -0.49276283383369446 0.004961864091455936 -0.5878475308418274 -0.6359447240829468 0.4999237060546875 0.0 1.0
0.5228723287582397 -0.4900957942008972 0.008593866601586342 -0.3393658399581909 -0.3671071529388428 0.8660237193107605 0.0 1.0
0.5296087265014648 -0.48280835151672363 -0.008594127371907234 0.3393658399581909 0.3671071529388428 -0.8660237193107605 0.0 1.0
0.5262405276298523 -0.4864520728588104 -0.00992313027381897 -0.0 0.0 -1.0 0.0 1.0
0.5228723287582397 -0.49009576439857483 -0.008594132959842682 -0.3393658399581909 -0.3671071529388428 -0.8660237193107605 0.0 1.0
0.5204069018363953 -0.49276283383369446 -0.004962136037647724 -0.5878475308418274 -0.6359447240829468 -0.4999542236328125 0.0 1.0
0.5262405276298523 -0.4864520728588104 0.009922869503498077 -0.0 0.0 1.0 0.0 1.0
0.5329762697219849 -0.4791654050350189 -1.2511546287896635e-07 0.6787927150726318 0.7343058586120605 -0.0 0.0 1.0
0.5320741534233093 -0.4801413118839264 -0.004962125793099403 0.5878475308418274 0.6359447240829468 -0.4999542236328125 0.0 1.0
0.5296087265014648 -0.482808381319046 0.00859387218952179 0.3393658399581909 0.3671071529388428 0.8660237193107605 0.0 1.0
0.5320741534233093 -0.4801413118839264 0.004961874336004257 0.5878475308418274 0.6359447240829468 0.4999542236328125 0.0 1.0
0.5195047855377197 -0.49373874068260193 -1.3630328510316758e-07 -0.6787927150726318 -0.7343058586120605 -0.0 0.0 1.0
3 24 4
24 3 35
0 29 2
29 0 28
10 31 13
31 10 34
13 32 16
32 13 31
5 30 6
30 5 25
16 26 19
26 16 32
0 27 28
27 0 1
19 27 1
27 19 26
7 34 10
34 7 33
4 25 5
25 4 24
6 33 7
33 6 30
2 35 3
35 2 29
20 17 18
17 14 15
14 11 12
11 8 9
8 23 22
23 20 21
20 14 17
14 8 11
8 20 23
14 20 8
LABEL Group_4
MATERIAL 1
TEXTURE 0
GEOM 36 34
-0.00337008573114872 -0.0036418598610907793 -0.008594002574682236 -0.3393658399581909 -0.3671071529388428 -0.8660237193107605 0.0 1.0
-1.8749942682916299e-06 1.8473668887963868e-06 -0.009922999888658524 -0.0 0.0 -1.0 0.0 1.0
-0.005835491232573986 -0.006308919750154018 -0.004962005186825991 -0.5878475308418274 -0.6359447240829468 -0.4999542236328125 0.0 1.0
-0.006737619172781706 -0.007284836377948523 -5.584527063007272e-09 -0.6787927150726318 -0.7343058586120605 -0.0 0.0 1.0
-0.00583549402654171 -0.006308925338089466 0.00496199494227767 -0.5878475308418274 -0.6359447240829468 0.4999237060546875 0.0 1.0
-0.003370090154930949 -0.0036418696399778128 0.008593996986746788 -0.3393658399581909 -0.3671071529388428 0.8660237193107605 0.0 1.0
-1.8796976064550108e-06 1.8364808056503534e-06 0.009922999888658524 -0.0 0.0 1.0 0.0 1.0
0.0033663311041891575 0.003645543707534671 0.008594002574682236 0.3393658399581909 0.3671071529388428 0.8660237193107605 0.0 1.0
0.5296087265014648 -0.48280835151672363 -0.008594127371907234 0.7343058586120605 -0.6787927150726318 -0.0 0.0 1.0
0.5320741534233093 -0.4801413118839264 -0.004962125793099403 0.7343058586120605 -0.6787927150726318 -0.0 0.0 1.0
0.005831737071275711 0.006312603130936623 0.004962005186825991 0.5878475308418274 0.6359447240829468 0.4999542236328125 0.0 1.0
0.5329762697219849 -0.4791654050350189 -1.2511546287896635e-07 0.7343058586120605 -0.6787927150726318 -0.0 0.0 1.0
0.5320741534233093 -0.4801413118839264 0.004961874336004257 0.7343058586120605 -0.6787927150726318 -0.0 0.0 1.0
0.0067338645458221436 0.007288520224392414 5.603286723498968e-09 0.6787927150726318 0.7343058586120605 -0.0 0.0 1.0
0.5296087265014648 -0.482808381319046 0.00859387218952179 0.7343058586120605 -0.6787927150726318 -0.0 0.0 1.0
0.5262405276298523 -0.4864520728588104 0.009922869503498077 0.7343058586120605 -0.6787927150726318 -0.0 0.0 1.0
0.005831739865243435 0.006312609650194645 -0.00496199494227767 0.5878475308418274 0.6359447240829468 -0.4999542236328125 0.0 1.0
0.5228723287582397 -0.4900957942008972 0.008593866601586342 0.7343058586120605 -0.6787927150726318 -0.0 0.0 1.0
0.5204069018363953 -0.49276283383369446 0.004961864091455936 0.7343058586120605 -0.6787927150726318 -0.0 0.0 1.0
0.0033663350623100996 0.003645553020760417 -0.008593996986746788 0.3393658399581909 0.3671071529388428 -0.8660237193107605 0.0 1.0
0.5195047855377197 -0.49373874068260193 -1.3630328510316758e-07 0.7343058586120605 -0.6787927150726318 -0.0 0.0 1.0
0.5204069018363953 -0.49276283383369446 -0.004962136037647724 0.7343058586120605 -0.6787927150726318 -0.0 0.0 1.0
0.5262405276298523 -0.4864520728588104 -0.00992313027381897 0.7343058586120605 -0.6787927150726318 -0.0 0.0 1.0
0.5228723287582397 -0.49009576439857483 -0.008594132959842682 0.7343058586120605 -0.6787927150726318 -0.0 0.0 1.0
0.5204069018363953 -0.49276283383369446 0.004961864091455936 -0.5878475308418274 -0.6359447240829468 0.4999237060546875 0.0 1.0
0.5228723287582397 -0.4900957942008972 0.008593866601586342 -0.3393658399581909 -0.3671071529388428 0.8660237193107605 0.0 1.0
0.5296087265014648 -0.48280835151672363 -0.008594127371907234 0.3393658399581909 0.3671071529388428 -0.8660237193107605 0.0 1.0
0.5262405276298523 -0.4864520728588104 -0.00992313027381897 -0.0 0.0 -1.0 0.0 1.0
0.5228723287582397 -0.49009576439857483 -0.008594132959842682 -0.3393658399581909 -0.3671071529388428 -0.8660237193107605 0.0 1.0
0.5204069018363953 -0.49276283383369446 -0.004962136037647724 -0.5878475308418274 -0.6359447240829468 -0.4999542236328125 0.0 1.0
0.5262405276298523 -0.4864520728588104 0.009922869503498077 -0.0 0.0 1.0 0.0 1.0
0.5329762697219849 -0.4791654050350189 -1.2511546287896635e-07 0.6787927150726318 0.7343058586120605 -0.0 0.0 1.0
0.5320741534233093 -0.4801413118839264 -0.004962125793099403 0.5878475308418274 0.6359447240829468 -0.4999542236328125 0.0 1.0
0.5296087265014648 -0.482808381319046 0.00859387218952179 0.3393658399581909 0.3671071529388428 0.8660237193107605 0.0 1.0
0.5320741534233093 -0.4801413118839264 0.004961874336004257 0.5878475308418274 0.6359447240829468 0.4999542236328125 0.0 1.0
0.5195047855377197 -0.49373874068260193 -1.3630328510316758e-07 -0.6787927150726318 -0.7343058586120605 -0.0 0.0 1.0
3 24 4
24 3 35
0 29 2
29 0 28
10 31 13
31 10 34
13 32 16
32 13 31
5 30 6
30 5 25
16 26 19
26 16 32
0 27 28
27 0 1
19 27 1
27 19 26
7 34 10
34 7 33
4 25 5
25 4 24
6 33 7
33 6 30
2 35 3
35 2 29
20 17 18
17 14 15
14 11 12
11 8 9
8 23 22
23 20 21
20 14 17
14 8 11
8 20 23
14 20 8
LABEL Group_5
MATERIAL 1
TEXTURE 0
GEOM 36 34
-0.00337008573114872 -0.0036418598610907793 -0.008594002574682236 -0.3393658399581909 -0.3671071529388428 -0.8660237193107605 0.0 1.0
-1.8749942682916299e-06 1.8473668887963868e-06 -0.009922999888658524 -0.0 0.0 -1.0 0.0 1.0
-0.005835491232573986 -0.006308919750154018 -0.004962005186825991 -0.5878475308418274 -0.6359447240829468 -0.4999542236328125 0.0 1.0
-0.006737619172781706 -0.007284836377948523 -5.584527063007272e-09 -0.6787927150726318 -0.7343058586120605 -0.0 0.0 1.0
-0.00583549402654171 -0.006308925338089466 0.00496199494227767 -0.5878475308418274 -0.6359447240829468 0.4999237060546875 0.0 1.0
-0.003370090154930949 -0.0036418696399778128 0.008593996986746788 -0.3393658399581909 -0.3671071529388428 0.8660237193107605 0.0 1.0
-1.8796976064550108e-06 1.8364808056503534e-06 0.009922999888658524 -0.0 0.0 1.0 0.0 1.0
0.0033663311041891575 0.003645543707534671 0.008594002574682236 0.3393658399581909 0.3671071529388428 0.8660237193107605 0.0 1.0
0.5296087265014648 -0.48280835151672363 -0.008594127371907234 0.7343058586120605 -0.6787927150726318 -0.0 0.0 1.0
0.5320741534233093 -0.4801413118839264 -0.004962125793099403 0.7343058586120605 -0.6787927150726318 -0.0 0.0 1.0
0.005831737071275711 0.006312603130936623 0.004962005186825991 0.5878475308418274 0.6359447240829468 0.4999542236328125 0.0 1.0
0.5329762697219849 -0.4791654050350189 -1.2511546287896635e-07 0.7343058586120605 -0.6787927150726318 -0.0 0.0 1.0
0.5320741534233093 -0.4801413118839264 0.004961874336004257 0.7343058586120605 -0.6787927150726318 -0.0 0.0 1.0
0.0067338645458221436 0.007288520224392414 5.603286723498968e-09 0.6787927150726318 0.7343058586120605 -0.0 0.0 1.0
0.5296087265014648 -0.482808381319046 0.00859387218952179 0.7343058586120605 -0.6787927150726318 -0.0 0.0 1.0
0.5262405276298523 -0.4864520728588104 0.009922869503498077 0.7343058586120605 -0.6787927150726318 -0.0 0.0 1.0
0.005831739865243435 0.006312609650194645 -0.00496199494227767 0.5878475308418274 0.6359447240829468 -0.4999542236328125 0.0 1.0
0.5228723287582397 -0.4900957942008972 0.008593866601586342 0.7343058586120605 -0.6787927150726318 -0.0 0.0 1.0
0.5204069018363953 -0.49276283383369446 0.004961864091455936 0.7343058586120605 -0.6787927150726318 -0.0 0.0 1.0
0.0033663350623100996 0.003645553020760417 -0.008593996986746788 0.3393658399581909 0.3671071529388428 -0.8660237193107605 0.0 1.0
0.5195047855377197 -0.49373874068260193 -1.3630328510316758e-07 0.7343058586120605 -0.6787927150726318 -0.0 0.0 1.0
0.5204069018363953 -0.49276283383369446 -0.004962136037647724 0.7343058586120605 -0.6787927150726318 -0.0 0.0 1.0
0.5262405276298523 -0.4864520728588104 -0.00992313027381897 0.7343058586120605 -0.6787927150726318 -0.0 0.0 1.0
0.5228723287582397 -0.49009576439857483 -0.008594132959842682 0.7343058586120605 -0.6787927150726318 -0.0 0.0 1.0
0.5204069018363953 -0.49276283383369446 0.004961864091455936 -0.5878475308418274 -0.6359447240829468 0.4999237060546875 0.0 1.0
0.5228723287582397 -0.4900957942008972 0.008593866601586342 -0.3393658399581909 -0.3671071529388428 0.8660237193107605 0.0 1.0
0.5296087265014648 -0.48280835151672363 -0.008594127371907234 0.3393658399581909 0.3671071529388428 -0.8660237193107605 0.0 1.0
0.5262405276298523 -0.4864520728588104 -0.00992313027381897 -0.0 0.0 -1.0 0.0 1.0
0.5228723287582397 -0.49009576439857483 -0.008594132959842682 -0.3393658399581909 -0.3671071529388428 -0.8660237193107605 0.0 1.0
0.5204069018363953 -0.49276283383369446 -0.004962136037647724 -0.5878475308418274 -0.6359447240829468 -0.4999542236328125 0.0 1.0
0.5262405276298523 -0.4864520728588104 0.009922869503498077 -0.0 0.0 1.0 0.0 1.0
0.5329762697219849 -0.4791654050350189 -1.2511546287896635e-07 0.6787927150726318 0.7343058586120605 -0.0 0.0 1.0
0.5320741534233093 -0.4801413118839264 -0.004962125793099403 0.5878475308418274 0.6359447240829468 -0.4999542236328125 0.0 1.0
0.5296087265014648 -0.482808381319046 0.00859387218952179 0.3393658399581909 0.3671071529388428 0.8660237193107605 0.0 1.0
0.5320741534233093 -0.4801413118839264 0.004961874336004257 0.5878475308418274 0.6359447240829468 0.4999542236328125 0.0 1.0
0.5195047855377197 -0.49373874068260193 -1.3630328510316758e-07 -0.6787927150726318 -0.7343058586120605 -0.0 0.0 1.0
3 24 4
24 3 35
0 29 2
29 0 28
10 31 13
31 10 34
13 32 16
32 13 31
5 30 6
30 5 25
16 26 19
26 16 32
0 27 28
27 0 1
19 27 1
27 19 26
7 34 10
34 7 33
4 25 5
25 4 24
6 33 7
33 6 30
2 35 3
35 2 29
20 17 18
17 14 15
14 11 12
11 8 9
8 23 22
23 20 21
20 14 17
14 8 11
8 20 23
14 20 8
LABEL Group_6
MATERIAL 1
TEXTURE 0
GEOM 36 34
-0.00337008573114872 -0.0036418598610907793 -0.008594002574682236 -0.3393658399581909 -0.3671071529388428 -0.8660237193107605 0.0 1.0
-1.8749942682916299e-06 1.8473668887963868e-06 -0.009922999888658524 -0.0 0.0 -1.0 0.0 1.0
-0.005835491232573986 -0.006308919750154018 -0.004962005186825991 -0.5878475308418274 -0.6359447240829468 -0.4999542236328125 0.0 1.0
-0.006737619172781706 -0.007284836377948523 -5.584527063007272e-09 -0.6787927150726318 -0.7343058586120605 -0.0 0.0 1.0
-0.00583549402654171 -0.006308925338089466 0.00496199494227767 -0.5878475308418274 -0.6359447240829468 0.4999237060546875 0.0 1.0
-0.003370090154930949 -0.0036418696399778128 0.008593996986746788 -0.3393658399581909 -0.3671071529388428 0.8660237193107605 0.0 1.0
-1.8796976064550108e-06 1.8364808056503534e-06 0.009922999888658524 -0.0 0.0 1.0 0.0 1.0
0.0033663311041891575 0.003645543707534671 0.008594002574682236 0.3393658399581909 0.3671071529388428 0.8660237193107605 0.0 1.0
0.5296087265014648 -0.48280835151672363 -0.008594127371907234 0.7343058586120605 -0.6787927150726318 -0.0 0.0 1.0
0.5320741534233093 -0.4801413118839264 -0.004962125793099403 0.7343058586120605 -0.6787927150726318 -0.0 0.0 1.0
0.005831737071275711 0.006312603130936623 0.004962005186825991 0.5878475308418274 0.6359447240829468 0.4999542236328125 0.0 1.0
0.5329762697219849 -0.4791654050350189 -1.2511546287896635e-07 0.7343058586120605 -0.6787927150726318 -0.0 0.0 1.0
0.5320741534233093 -0.4801413118839264 0.004961874336004257 0.7343058586120605 -0.6787927150726318 -0.0 0.0 1.0
0.0067338645458221436 0.007288520224392414 5.603286723498968e-09 0.6787927150726318 0.7343058586120605 -0.0 0.0 1.0
0.5296087265014648 -0.482808381319046 0.00859387218952179 0.7343058586120605 -0.6787927150726318 -0.0 0.0 1.0
0.5262405276298523 -0.4864520728588104 0.009922869503498077 0.7343058586120605 -0.6787927150726318 -0.0 0.0 1.0
0.005831739865243435 0.006312609650194645 -0.00496199494227767 0.5878475308418274 0.6359447240829468 -0.4999542236328125 0.0 1.0
0.5228723287582397 -0.4900957942008972 0.008593866601586342 0.7343058586120605 -0.6787927150726318 -0.0 0.0 1.0
0.5204069018363953 -0.49276283383369446 0.004961864091455936 0.7343058586120605 -0.6787927150726318 -0.0 0.0 1.0
0.0033663350623100996 0.003645553020760417 -0.008593996986746788 0.3393658399581909 0.3671071529388428 -0.8660237193107605 0.0 1.0
0.5195047855377197 -0.49373874068260193 -1.3630328510316758e-07 0.7343058586120605 -0.6787927150726318 -0.0 0.0 1.0
0.5204069018363953 -0.49276283383369446 -0.004962136037647724 0.7343058586120605 -0.6787927150726318 -0.0 0.0 1.0
0.5262405276298523 -0.4864520728588104 -0.00992313027381897 0.7343058586120605 -0.6787927150726318 -0.0 0.0 1.0
0.5228723287582397 -0.49009576439857483 -0.008594132959842682 0.7343058586120605 -0.6787927150726318 -0.0 0.0 1.0
0.5204069018363953 -0.49276283383369446 0.004961864091455936 -0.5878475308418274 -0.6359447240829468 0.4999237060546875 0.0 1.0
0.5228723287582397 -0.4900957942008972 0.008593866601586342 -0.3393658399581909 -0.3671071529388428 0.8660237193107605 0.0 1.0
0.5296087265014648 -0.48280835151672363 -0.008594127371907234 0.3393658399581909 0.3671071529388428 -0.8660237193107605 0.0 1.0
0.5262405276298523 -0.4864520728588104 -0.00992313027381897 -0.0 0.0 -1.0 0.0 1.0
0.5228723287582397 -0.49009576439857483 -0.008594132959842682 -0.3393658399581909 -0.3671071529388428 -0.8660237193107605 0.0 1.0
0.5204069018363953 -0.49276283383369446 -0.004962136037647724 -0.5878475308418274 -0.6359447240829468 -0.4999542236328125 0.0 1.0
0.5262405276298523 -0.4864520728588104 0.009922869503498077 -0.0 0.0 1.0 0.0 1.0
0.5329762697219849 -0.4791654050350189 -1.2511546287896635e-07 0.6787927150726318 0.7343058586120605 -0.0 0.0 1.0
0.5320741534233093 -0.4801413118839264 -0.004962125793099403 0.5878475308418274 0.6359447240829468 -0.4999542236328125 0.0 1.0
0.5296087265014648 -0.482808381319046 0.00859387218952179 0.3393658399581909 0.3671071529388428 0.8660237193107605 0.0 1.0
0.5320741534233093 -0.4801413118839264 0.004961874336004257 0.5878475308418274 0.6359447240829468 0.4999542236328125 0.0 1.0
0.5195047855377197 -0.49373874068260193 -1.3630328510316758e-07 -0.6787927150726318 -0.7343058586120605 -0.0 0.0 1.0
3 24 4
24 3 35
0 29 2
29 0 28
10 31 13
31 10 34
13 32 16
32 13 31
5 30 6
30 5 25
16 26 19
26 16 32
0 27 28
27 0 1
19 27 1
27 19 26
7 34 10
34 7 33
4 25 5
25 4 24
6 33 7
33 6 30
2 35 3
35 2 29
20 17 18
17 14 15
14 11 12
11 8 9
8 23 22
23 20 21
20 14 17
14 8 11
8 20 23
14 20 8
LABEL Group_7
MATERIAL 1
TEXTURE 0
GEOM 36 34
-0.00337008573114872 -0.0036418598610907793 -0.008594002574682236 -0.3393658399581909 -0.3671071529388428 -0.8660237193107605 0.0 1.0
-1.8749942682916299e-06 1.8473668887963868e-06 -0.009922999888658524 -0.0 0.0 -1.0 0.0 1.0
-0.005835491232573986 -0.006308919750154018 -0.004962005186825991 -0.5878475308418274 -0.6359447240829468 -0.4999542236328125 0.0 1.0
-0.006737619172781706 -0.007284836377948523 -5.584527063007272e-09 -0.6787927150726318 -0.7343058586120605 -0.0 0.0 1.0
-0.00583549402654171 -0.006308925338089466 0.00496199494227767 -0.5878475308418274 -0.6359447240829468 0.4999237060546875 0.0 1.0
-0.003370090154930949 -0.0036418696399778128 0.008593996986746788 -0.3393658399581909 -0.3671071529388428 0.8660237193107605 0.0 1.0
-1.8796976064550108e-06 1.8364808056503534e-06 0.009922999888658524 -0.0 0.0 1.0 0.0 1.0
0.0033663311041891575 0.003645543707534671 0.008594002574682236 0.3393658399581909 0.3671071529388428 0.8660237193107605 0.0 1.0
0.5296087265014648 -0.48280835151672363 -0.008594127371907234 0.7343058586120605 -0.6787927150726318 -0.0 0.0 1.0
0.5320741534233093 -0.4801413118839264 -0.004962125793099403 0.7343058586120605 -0.6787927150726318 -0.0 0.0 1.0
0.005831737071275711 0.006312603130936623 0.004962005186825991 0.5878475308418274 0.6359447240829468 0.4999542236328125 0.0 1.0
0.5329762697219849 -0.4791654050350189 -1.2511546287896635e-07 0.7343058586120605 -0.6787927150726318 -0.0 0.0 1.0
0.5320741534233093 -0.4801413118839264 0.004961874336004257 0.7343058586120605 -0.6787927150726318 -0.0 0.0 1.0
0.0067338645458221436 0.007288520224392414 5.603286723498968e-09 0.6787927150726318 0.7343058586120605 -0.0 0.0 1.0
0.5296087265014648 -0.482808381319046 0.00859387218952179 0.7343058586120605 -0.6787927150726318 -0.0 0.0 1.0
0.5262405276298523 -0.4864520728588104 0.009922869503498077 0.7343058586120605 -0.6787927150726318 -0.0 0.0 1.0
0.005831739865243435 0.006312609650194645 -0.00496199494227767 0.5878475308418274 0.6359447240829468 -0.4999542236328125 0.0 1.0
0.5228723287582397 -0.4900957942008972 0.008593866601586342 0.7343058586120605 -0.6787927150726318 -0.0 0.0 1.0
0.5204069018363953 -0.49276283383369446 0.004961864091455936 0.7343058586120605 -0.6787927150726318 -0.0 0.0 1.0
0.0033663350623100996 0.003645553020760417 -0.008593996986746788 0.3393658399581909 0.3671071529388428 -0.8660237193107605 0.0 1.0
0.5195047855377197 -0.49373874068260193 -1.3630328510316758e-07 0.7343058586120605 -0.6787927150726318 -0.0 0.0 1.0
0.5204069018363953 -0.49276283383369446 -0.004962136037647724 0.7343058586120605 -0.6787927150726318 -0.0 0.0 1.0
0.5262405276298523 -0.4864520728588104 -0.00992313027381897 0.7343058586120605 -0.6787927150726318 -0.0 0.0 1.0
0.5228723287582397 -0.49009576439857483 -0.008594132959842682 0.7343058586120605 -0.6787927150726318 -0.0 0.0 1.0
0.5204069018363953 -0.49276283383369446 0.004961864091455936 -0.5878475308418274 -0.6359447240829468 0.4999237060546875 0.0 1.0
0.5228723287582397 -0.4900957942008972 0.008593866601586342 -0.3393658399581909 -0.3671071529388428 0.8660237193107605 0.0 1.0
0.5296087265014648 -0.48280835151672363 -0.008594127371907234 0.3393658399581909 0.3671071529388428 -0.8660237193107605 0.0 1.0
0.5262405276298523 -0.4864520728588104 -0.00992313027381897 -0.0 0.0 -1.0 0.0 1.0
0.5228723287582397 -0.49009576439857483 -0.008594132959842682 -0.3393658399581909 -0.3671071529388428 -0.8660237193107605 0.0 1.0
0.5204069018363953 -0.49276283383369446 -0.004962136037647724 -0.5878475308418274 -0.6359447240829468 -0.4999542236328125 0.0 1.0
0.5262405276298523 -0.4864520728588104 0.009922869503498077 -0.0 0.0 1.0 0.0 1.0
0.5329762697219849 -0.4791654050350189 -1.2511546287896635e-07 0.6787927150726318 0.7343058586120605 -0.0 0.0 1.0
0.5320741534233093 -0.4801413118839264 -0.004962125793099403 0.5878475308418274 0.6359447240829468 -0.4999542236328125 0.0 1.0
0.5296087265014648 -0.482808381319046 0.00859387218952179 0.3393658399581909 0.3671071529388428 0.8660237193107605 0.0 1.0
0.5320741534233093 -0.4801413118839264 0.004961874336004257 0.5878475308418274 0.6359447240829468 0.4999542236328125 0.0 1.0
0.5195047855377197 -0.49373874068260193 -1.3630328510316758e-07 -0.6787927150726318 -0.7343058586120605 -0.0 0.0 1.0
3 24 4
24 3 35
0 29 2
29 0 28
10 31 13
31 10 34
13 32 16
32 13 31
5 30 6
30 5 25
16 26 19
26 16 32
0 27 28
27 0 1
19 27 1
27 19 26
7 34 10
34 7 33
4 25 5
25 4 24
6 33 7
33 6 30
2 35 3
35 2 29
20 17 18
17 14 15
14 11 12
11 8 9
8 23 22
23 20 21
20 14 17
14 8 11
8 20 23
14 20 8
LABEL Group_8
MATERIAL 1
TEXTURE 0
GEOM 36 34
-0.00337008573114872 -0.0036418598610907793 -0.008594002574682236 -0.3393658399581909 -0.3671071529388428 -0.8660237193107605 0.0 1.0
-1.8749942682916299e-06 1.8473668887963868e-06 -0.009922999888658524 -0.0 0.0 -1.0 0.0 1.0
-0.005835491232573986 -0.006308919750154018 -0.004962005186825991 -0.5878475308418274 -0.6359447240829468 -0.4999542236328125 0.0 1.0
-0.006737619172781706 -0.007284836377948523 -5.584527063007272e-09 -0.6787927150726318 -0.7343058586120605 -0.0 0.0 1.0
-0.00583549402654171 -0.006308925338089466 0.00496199494227767 -0.5878475308418274 -0.6359447240829468 0.4999237060546875 0.0 1.0
-0.003370090154930949 -0.0036418696399778128 0.008593996986746788 -0.3393658399581909 -0.3671071529388428 0.8660237193107605 0.0 1.0
-1.8796976064550108e-06 1.8364808056503534e-06 0.009922999888658524 -0.0 0.0 1.0 0.0 1.0
0.0033663311041891575 0.003645543707534671 0.008594002574682236 0.3393658399581909 0.3671071529388428 0.8660237193107605 0.0 1.0
0.5296087265014648 -0.48280835151672363 -0.008594127371907234 0.7343058586120605 -0.6787927150726318 -0.0 0.0 1.0
0.5320741534233093 -0.4801413118839264 -0.004962125793099403 0.7343058586120605 -0.6787927150726318 -0.0 0.0 1.0
0.005831737071275711 0.006312603130936623 0.004962005186825991 0.5878475308418274 0.6359447240829468 0.4999542236328125 0.0 1.0
0.5329762697219849 -0.4791654050350189 -1.2511546287896635e-07 0.7343058586120605 -0.6787927150726318 -0.0 0.0 1.0
0.5320741534233093 -0.4801413118839264 0.004961874336004257 0.7343058586120605 -0.6787927150726318 -0.0 0.0 1.0
0.0067338645458221436 0.007288520224392414 5.603286723498968e-09 0.6787927150726318 0.7343058586120605 -0.0 0.0 1.0
0.5296087265014648 -0.482808381319046 0.00859387218952179 0.7343058586120605 -0.6787927150726318 -0.0 0.0 1.0
0.5262405276298523 -0.4864520728588104 0.009922869503498077 0.7343058586120605 -0.6787927150726318 -0.0 0.0 1.0
0.005831739865243435 0.006312609650194645 -0.00496199494227767 0.5878475308418274 0.6359447240829468 -0.4999542236328125 0.0 1.0
0.5228723287582397 -0.4900957942008972 0.008593866601586342 0.7343058586120605 -0.6787927150726318 -0.0 0.0 1.0
0.5204069018363953 -0.49276283383369446 0.004961864091455936 0.7343058586120605 -0.6787927150726318 -0.0 0.0 1.0
0.0033663350623100996 0.003645553020760417 -0.008593996986746788 0.3393658399581909 0.3671071529388428 -0.8660237193107605 0.0 1.0
0.5195047855377197 -0.49373874068260193 -1.3630328510316758e-07 0.7343058586120605 -0.6787927150726318 -0.0 0.0 1.0
0.5204069018363953 -0.49276283383369446 -0.004962136037647724 0.7343058586120605 -0.6787927150726318 -0.0 0.0 1.0
0.5262405276298523 -0.4864520728588104 -0.00992313027381897 0.7343058586120605 -0.6787927150726318 -0.0 0.0 1.0
0.5228723287582397 -0.49009576439857483 -0.008594132959842682 0.7343058586120605 -0.6787927150726318 -0.0 0.0 1.0
0.5204069018363953 -0.49276283383369446 0.004961864091455936 -0.5878475308418274 -0.6359447240829468 0.4999237060546875 0.0 1.0
0.5228723287582397 -0.4900957942008972 0.008593866601586342 -0.3393658399581909 -0.3671071529388428 0.8660237193107605 0.0 1.0
0.5296087265014648 -0.48280835151672363 -0.008594127371907234 0.3393658399581909 0.3671071529388428 -0.8660237193107605 0.0 1.0
0.5262405276298523 -0.4864520728588104 -0.00992313027381897 -0.0 0.0 -1.0 0.0 1.0
0.5228723287582397 -0.49009576439857483 -0.008594132959842682 -0.3393658399581909 -0.3671071529388428 -0.8660237193107605 0.0 1.0
0.5204069018363953 -0.49276283383369446 -0.004962136037647724 -0.5878475308418274 -0.6359447240829468 -0.4999542236328125 0.0 1.0
0.5262405276298523 -0.4864520728588104 0.009922869503498077 -0.0 0.0 1.0 0.0 1.0
0.5329762697219849 -0.4791654050350189 -1.2511546287896635e-07 0.6787927150726318 0.7343058586120605 -0.0 0.0 1.0
0.5320741534233093 -0.4801413118839264 -0.004962125793099403 0.5878475308418274 0.6359447240829468 -0.4999542236328125 0.0 1.0
0.5296087265014648 -0.482808381319046 0.00859387218952179 0.3393658399581909 0.3671071529388428 0.8660237193107605 0.0 1.0
0.5320741534233093 -0.4801413118839264 0.004961874336004257 0.5878475308418274 0.6359447240829468 0.4999542236328125 0.0 1.0
0.5195047855377197 -0.49373874068260193 -1.3630328510316758e-07 -0.6787927150726318 -0.7343058586120605 -0.0 0.0 1.0
3 24 4
24 3 35
0 29 2
29 0 28
10 31 13
31 10 34
13 32 16
32 13 31
5 30 6
30 5 25
16 26 19
26 16 32
0 27 28
27 0 1
19 27 1
27 19 26
7 34 10
34 7 33
4 25 5
25 4 24
6 33 7
33 6 30
2 35 3
35 2 29
20 17 18
17 14 15
14 11 12
11 8 9
8 23 22
23 20 21
20 14 17
14 8 11
8 20 23
14 20 8
LABEL Group_9
MATERIAL 1
TEXTURE 0
GEOM 36 34
-0.00337008573114872 -0.0036418598610907793 -0.008594002574682236 -0.3393658399581909 -0.3671071529388428 -0.8660237193107605 0.0 1.0
-1.8749942682916299e-06 1.8473668887963868e-06 -0.009922999888658524 -0.0 0.0 -1.0 0.0 1.0
-0.005835491232573986 -0.006308919750154018 -0.004962005186825991 -0.5878475308418274 -0.6359447240829468 -0.4999542236328125 0.0 1.0
-0.006737619172781706 -0.007284836377948523 -5.584527063007272e-09 -0.6787927150726318 -0.7343058586120605 -0.0 0.0 1.0
-0.00583549402654171 -0.006308925338089466 0.00496199494227767 -0.5878475308418274 -0.6359447240829468 0.4999237060546875 0.0 1.0
-0.003370090154930949 -0.0036418696399778128 0.008593996986746788 -0.3393658399581909 -0.3671071529388428 0.8660237193107605 0.0 1.0
-1.8796976064550108e-06 1.8364808056503534e-06 0.009922999888658524 -0.0 0.0 1.0 0.0 1.0
0.0033663311041891575 0.003645543707534671 0.008594002574682236 0.3393658399581909 0.3671071529388428 0.8660237193107605 0.0 1.0
0.5296087265014648 -0.48280835151672363 -0.008594127371907234 0.7343058586120605 -0.6787927150726318 -0.0 0.0 1.0
0.5320741534233093 -0.4801413118839264 -0.004962125793099403 0.7343058586120605 -0.6787927150726318 -0.0 0.0 1.0
0.005831737071275711 0.006312603130936623 0.004962005186825991 0.5878475308418274 0.6359447240829468 0.4999542236328125 0.0 1.0
0.5329762697219849 -0.4791654050350189 -1.2511546287896635e-07 0.7343058586120605 -0.6787927150726318 -0.0 0.0 1.0
0.5320741534233093 -0.4801413118839264 0.004961874336004257 0.7343058586120605 -0.6787927150726318 -0.0 0.0 1.0
0.0067338645458221436 0.007288520224392414 5.603286723498968e-09 0.6787927150726318 0.7343058586120605 -0.0 0.0 1.0
0.5296087265014648 -0.482808381319046 0.00859387218952179 0.7343058586120605 -0.6787927150726318 -0.0 0.0 1.0
0.5262405276298523 -0.4864520728588104 0.009922869503498077 0.7343058586120605 -0.6787927150726318 -0.0 0.0 1.0
0.005831739865243435 0.006312609650194645 -0.00496199494227767 0.5878475308418274 0.6359447240829468 -0.4999542236328125 0.0 1.0
0.5228723287582397 -0.4900957942008972 0.008593866601586342 0.7343058586120605 -0.6787927150726318 -0.0 0.0 1.0
0.5204069018363953 -0.49276283383369446 0.004961864091455936 0.7343058586120605 -0.6787927150726318 -0.0 0.0 1.0
0.0033663350623100996 0.003645553020760417 -0.008593996986746788 0.3393658399581909 0.3671071529388428 -0.8660237193107605 0.0 1.0
0.5195047855377197 -0.49373874068260193 -1.3630328510316758e-07 0.7343058586120605 -0.6787927150726318 -0.0 0.0 1.0
0.5204069018363953 -0.49276283383369446 -0.004962136037647724 0.7343058586120605 -0.6787927150726318 -0.0 0.0 1.0
0.5262405276298523 -0.4864520728588104 -0.00992313027381897 0.7343058586120605 -0.6787927150726318 -0.0 0.0 1.0
0.5228723287582397 -0.49009576439857483 -0.008594132959842682 0.7343058586120605 -0.6787927150726318 -0.0 0.0 1.0
0.5204069018363953 -0.49276283383369446 0.004961864091455936 -0.5878475308418274 -0.6359447240829468 0.4999237060546875 0.0 1.0
0.5228723287582397 -0.4900957942008972 0.008593866601586342 -0.3393658399581909 -0.3671071529388428 0.8660237193107605 0.0 1.0
0.5296087265014648 -0.48280835151672363 -0.008594127371907234 0.3393658399581909 0.3671071529388428 -0.8660237193107605 0.0 1.0
0.5262405276298523 -0.4864520728588104 -0.00992313027381897 -0.0 0.0 -1.0 0.0 1.0
0.5228723287582397 -0.49009576439857483 -0.008594132959842682 -0.3393658399581909 -0.3671071529388428 -0.8660237193107605 0.0 1.0
0.5204069018363953 -0.49276283383369446 -0.004962136037647724 -0.5878475308418274 -0.6359447240829468 -0.4999542236328125 0.0 1.0
0.5262405276298523 -0.4864520728588104 0.009922869503498077 -0.0 0.0 1.0 0.0 1.0
0.5329762697219849 -0.4791654050350189 -1.2511546287896635e-07 0.6787927150726318 0.7343058586120605 -0.0 0.0 1.0
0.5320741534233093 -0.4801413118839264 -0.004962125793099403 0.5878475308418274 0.6359447240829468 -0.4999542236328125 0.0 1.0
0.5296087265014648 -0.482808381319046 0.00859387218952179 0.3393658399581909 0.3671071529388428 0.8660237193107605 0.0 1.0
0.5320741534233093 -0.4801413118839264 0.004961874336004257 0.5878475308418274 0.6359447240829468 0.4999542236328125 0.0 1.0
0.5195047855377197 -0.49373874068260193 -1.3630328510316758e-07 -0.6787927150726318 -0.7343058586120605 -0.0 0.0 1.0
3 24 4
24 3 35
0 29 2
29 0 28
10 31 13
31 10 34
13 32 16
32 13 31
5 30 6
30 5 25
16 26 19
26 16 32
0 27 28
27 0 1
19 27 1
27 19 26
7 34 10
34 7 33
4 25 5
25 4 24
6 33 7
33 6 30
2 35 3
35 2 29
20 17 18
17 14 15
14 11 12
11 8 9
8 23 22
23 20 21
20 14 17
14 8 11
8 20 23
14 20 8
MATERIALS 1
METAL.001
MATERIAL METAL.001
0.800000011920929 0.800000011920929 0.800000011920929 1.0
0.800000011920929 0.800000011920929 0.800000011920929 1.0
1.0 1.0 1.0 1.0 50
0.0 0.0 0.0 1.0
TEXTURES 0
