MSHX1
GROUPS 15
LABEL Group_0
MATERIAL 1
TEXTURE 0
GEOM 36 34
0.0033700845669955015 0.003641864052042365 -0.008594001643359661 0.4999237060546875 0.0 -0.8660237193107605 0.0 1.0
1.8749952914731693e-06 -1.8446999092702754e-06 -0.009922999888658524 -0.0 0.0 -1.0 0.0 1.0
0.005835489369928837 0.006308923941105604 -0.0049620033241808414 0.8660237193107605 0.0 -0.4999542236328125 0.0 1.0
0.006737616844475269 0.007284840103238821 -3.6269625081075674e-09 1.0 0.0 -0.0 0.0 1.0
0.005835491698235273 0.006308926735073328 0.004961996804922819 0.8660237193107605 0.0 0.4999237060546875 0.0 1.0
0.003370088990777731 0.0036418691743165255 0.008593997918069363 0.4999542236328125 0.0 0.8660237193107605 0.0 1.0
1.8796985159497126e-06 -1.8391466483080876e-06 0.009922999888658524 -0.0 0.0 1.0 0.0 1.0
-0.003366329940035939 -0.003645547665655613 0.008594001643359661 -0.4999237060546875 0.0 0.8660237193107605 0.0 1.0
-0.5296090245246887 0.4828082025051117 -0.008593997918069363 -0.0 1.0 -0.0 0.0 1.0
-0.5320744514465332 0.48014116287231445 -0.004961996804922819 -0.0 1.0 -0.0 0.0 1.0
-0.0058317347429692745 -0.006312607787549496 0.0049620033241808414 -0.8660237193107605 0.0 0.4999542236328125 0.0 1.0
-0.5329765677452087 0.479165256023407 3.644731849661298e-09 -0.0 1.0 -0.0 0.0 1.0
-0.5320744514465332 0.48014116287231445 0.0049620033241808414 -0.0 0.999969482421875 -0.0 0.0 1.0
-0.006733862217515707 -0.0072885239496827126 3.644731849661298e-09 -0.999969482421875 0.0 -0.0 0.0 1.0
-0.5296090245246887 0.4828082323074341 0.008594001643359661 -0.0 0.999969482421875 -0.0 0.0 1.0
-0.5262408256530762 0.4864519238471985 0.009922999888658524 -0.0 0.999969482421875 -0.0 0.0 1.0
-0.005831738002598286 -0.006312611047178507 -0.004961996804922819 -0.8660237193107605 0.0 -0.4999237060546875 0.0 1.0
-0.5228726267814636 0.4900956451892853 0.008593997918069363 -0.0 1.0 -0.0 0.0 1.0
-0.5204071998596191 0.4927626848220825 0.004961996804922819 -0.0 0.999969482421875 -0.0 0.0 1.0
-0.0033663338981568813 -0.003645552322268486 -0.008593997918069363 -0.4999542236328125 0.0 -0.8660237193107605 0.0 1.0
-0.5195050835609436 0.4937386214733124 -3.6269625081075674e-09 -0.0 1.0 -0.0 0.0 1.0
-0.5204071998596191 0.4927626848220825 -0.0049620033241808414 -0.0 0.999969482421875 -0.0 0.0 1.0
-0.5262408256530762 0.4864519238471985 -0.009922999888658524 -0.0 0.999969482421875 -0.0 0.0 1.0
-0.5228726267814636 0.4900956451892853 -0.008594001643359661 -0.0 0.999969482421875 -0.0 0.0 1.0
-0.5204071998596191 0.4927626848220825 0.004961996804922819 0.8660237193107605 0.0 0.4999237060546875 0.0 1.0
-0.5228726267814636 0.4900956451892853 0.008593997918069363 0.4999542236328125 0.0 0.8660237193107605 0.0 1.0
-0.5296090245246887 0.4828082025051117 -0.008593997918069363 -0.4999542236328125 0.0 -0.8660237193107605 0.0 1.0
-0.5262408256530762 0.4864519238471985 -0.009922999888658524 -0.0 0.0 -1.0 0.0 1.0
-0.5228726267814636 0.4900956451892853 -0.008594001643359661 0.4999237060546875 0.0 -0.8660237193107605 0.0 1.0
-0.5204071998596191 0.4927626848220825 -0.0049620033241808414 0.8660237193107605 0.0 -0.4999542236328125 0.0 1.0
-0.5262408256530762 0.4864519238471985 0.009922999888658524 -0.0 0.0 1.0 0.0 1.0
-0.5329765677452087 0.479165256023407 3.644731849661298e-09 -1.0 0.0 -0.0 0.0 1.0
-0.5320744514465332 0.48014116287231445 -0.004961996804922819 -0.8660237193107605 0.0 -0.4999237060546875 0.0 1.0
-0.5296090245246887 0.4828082323074341 0.008594001643359661 -0.4999237060546875 0.0 0.8660237193107605 0.0 1.0
-0.5320744514465332 0.48014116287231445 0.0049620033241808414 -0.8660237193107605 0.0 0.4999542236328125 0.0 1.0
-0.5195050835609436 0.4937386214733124 -3.6269625081075674e-09 1.0 0.0 -0.0 0.0 1.0
3 24 4
24 3 35
0 29 2
29 0 28
10 31 13
31 10 34
13 32 16
32 13 31
5 30 6
30 5 25
16 26 19
26 16 32
0 27 28
27 0 1
19 27 1
27 19 26
7 34 10
34 7 33
4 25 5
25 4 24
6 33 7
33 6 30
2 35 3
35 2 29
20 17 18
17 14 15
14 11 12
11 8 9
8 23 22
23 20 21
20 14 17
14 8 11
8 20 23
14 20 8
LABEL Group_1
MATERIAL 1
TEXTURE 0
GEOM 36 34
0.0033700845669955015 0.003641864052042365 -0.008594001643359661 0.4999237060546875 0.0 -0.8660237193107605 0.0 1.0
1.8749952914731693e-06 -1.8446999092702754e-06 -0.009922999888658524 -0.0 0.0 -1.0 0.0 1.0
0.005835489369928837 0.006308923941105604 -0.0049620033241808414 0.8660237193107605 0.0 -0.4999542236328125 0.0 1.0
0.006737616844475269 0.007284840103238821 -3.6269625081075674e-09 1.0 0.0 -0.0 0.0 1.0
0.005835491698235273 0.006308926735073328 0.004961996804922819 0.8660237193107605 0.0 0.4999237060546875 0.0 1.0
0.003370088990777731 0.0036418691743165255 0.008593997918069363 0.4999542236328125 0.0 0.8660237193107605 0.0 1.0
1.8796985159497126e-06 -1.8391466483080876e-06 0.009922999888658524 -0.0 0.0 1.0 0.0 1.0
-0.003366329940035939 -0.003645547665655613 0.008594001643359661 -0.4999237060546875 0.0 0.8660237193107605 0.0 1.0
-0.5296090245246887 0.4828082025051117 -0.008593997918069363 -0.0 1.0 -0.0 0.0 1.0
-0.5320744514465332 0.48014116287231445 -0.004961996804922819 -0.0 1.0 -0.0 0.0 1.0
-0.0058317347429692745 -0.006312607787549496 0.0049620033241808414 -0.8660237193107605 0.0 0.4999542236328125 0.0 1.0
-0.5329765677452087 0.479165256023407 3.644731849661298e-09 -0.0 1.0 -0.0 0.0 1.0
-0.5320744514465332 0.48014116287231445 0.0049620033241808414 -0.0 0.999969482421875 -0.0 0.0 1.0
-0.006733862217515707 -0.0072885239496827126 3.644731849661298e-09 -0.999969482421875 0.0 -0.0 0.0 1.0
-0.5296090245246887 0.4828082323074341 0.008594001643359661 -0.0 0.999969482421875 -0.0 0.0 1.0
-0.5262408256530762 0.4864519238471985 0.009922999888658524 -0.0 0.999969482421875 -0.0 0.0 1.0
-0.005831738002598286 -0.006312611047178507 -0.004961996804922819 -0.8660237193107605 0.0 -0.4999237060546875 0.0 1.0
-0.5228726267814636 0.4900956451892853 0.008593997918069363 -0.0 1.0 -0.0 0.0 1.0
-0.5204071998596191 0.4927626848220825 0.004961996804922819 -0.0 0.999969482421875 -0.0 0.0 1.0
-0.0033663338981568813 -0.003645552322268486 -0.008593997918069363 -0.4999542236328125 0.0 -0.8660237193107605 0.0 1.0
-0.5195050835609436 0.4937386214733124 -3.6269625081075674e-09 -0.0 1.0 -0.0 0.0 1.0
-0.5204071998596191 0.4927626848220825 -0.0049620033241808414 -0.0 0.999969482421875 -0.0 0.0 1.0
-0.5262408256530762 0.4864519238471985 -0.009922999888658524 -0.0 0.999969482421875 -0.0 0.0 1.0
-0.5228726267814636 0.4900956451892853 -0.008594001643359661 -0.0 0.999969482421875 -0.0 0.0 1.0
-0.5204071998596191 0.4927626848220825 0.004961996804922819 0.8660237193107605 0.0 0.4999237060546875 0.0 1.0
-0.5228726267814636 0.4900956451892853 0.008593997918069363 0.4999542236328125 0.0 0.8660237193107605 0.0 1.0
-0.5296090245246887 0.4828082025051117 -0.008593997918069363 -0.4999542236328125 0.0 -0.8660237193107605 0.0 1.0
-0.5262408256530762 0.4864519238471985 -0.009922999888658524 -0.0 0.0 -1.0 0.0 1.0
-0.5228726267814636 0.4900956451892853 -0.008594001643359661 0.4999237060546875 0.0 -0.8660237193107605 0.0 1.0
-0.5204071998596191 0.4927626848220825 -0.0049620033241808414 0.8660237193107605 0.0 -0.4999542236328125 0.0 1.0
-0.5262408256530762 0.4864519238471985 0.009922999888658524 -0.0 0.0 1.0 0.0 1.0
-0.5329765677452087 0.479165256023407 3.644731849661298e-09 -1.0 0.0 -0.0 0.0 1.0
-0.5320744514465332 0.48014116287231445 -0.004961996804922819 -0.8660237193107605 0.0 -0.4999237060546875 0.0 1.0
-0.5296090245246887 0.4828082323074341 0.008594001643359661 -0.4999237060546875 0.0 0.8660237193107605 0.0 1.0
-0.5320744514465332 0.48014116287231445 0.0049620033241808414 -0.8660237193107605 0.0 0.4999542236328125 0.0 1.0
-0.5195050835609436 0.4937386214733124 -3.6269625081075674e-09 1.0 0.0 -0.0 0.0 1.0
3 24 4
24 3 35
0 29 2
29 0 28
10 31 13
31 10 34
13 32 16
32 13 31
5 30 6
30 5 25
16 26 19
26 16 32
0 27 28
27 0 1
19 27 1
27 19 26
7 34 10
34 7 33
4 25 5
25 4 24
6 33 7
33 6 30
2 35 3
35 2 29
20 17 18
17 14 15
14 11 12
11 8 9
8 23 22
23 20 21
20 14 17
14 8 11
8 20 23
14 20 8
LABEL Group_10
MATERIAL 1
TEXTURE 0
GEOM 36 34
0.0033700845669955015 0.003641864052042365 -0.008594001643359661 0.4999237060546875 0.0 -0.8660237193107605 0.0 1.0
1.8749952914731693e-06 -1.8446999092702754e-06 -0.009922999888658524 -0.0 0.0 -1.0 0.0 1.0
0.005835489369928837 0.006308923941105604 -0.0049620033241808414 0.8660237193107605 0.0 -0.4999542236328125 0.0 1.0
0.006737616844475269 0.007284840103238821 -3.6269625081075674e-09 1.0 0.0 -0.0 0.0 1.0
0.005835491698235273 0.006308926735073328 0.004961996804922819 0.8660237193107605 0.0 0.4999237060546875 0.0 1.0
0.003370088990777731 0.0036418691743165255 0.008593997918069363 0.4999542236328125 0.0 0.8660237193107605 0.0 1.0
1.8796985159497126e-06 -1.8391466483080876e-06 0.009922999888658524 -0.0 0.0 1.0 0.0 1.0
-0.003366329940035939 -0.003645547665655613 0.008594001643359661 -0.4999237060546875 0.0 0.8660237193107605 0.0 1.0
-0.5296090245246887 0.4828082025051117 -0.008593997918069363 -0.0 1.0 -0.0 0.0 1.0
-0.5320744514465332 0.48014116287231445 -0.004961996804922819 -0.0 1.0 -0.0 0.0 1.0
-0.0058317347429692745 -0.006312607787549496 0.0049620033241808414 -0.8660237193107605 0.0 0.4999542236328125 0.0 1.0
-0.5329765677452087 0.479165256023407 3.644731849661298e-09 -0.0 1.0 -0.0 0.0 1.0
-0.5320744514465332 0.48014116287231445 0.0049620033241808414 -0.0 0.999969482421875 -0.0 0.0 1.0
-0.006733862217515707 -0.0072885239496827126 3.644731849661298e-09 -0.999969482421875 0.0 -0.0 0.0 1.0
-0.5296090245246887 0.4828082323074341 0.008594001643359661 -0.0 0.999969482421875 -0.0 0.0 1.0
-0.5262408256530762 0.4864519238471985 0.009922999888658524 -0.0 0.999969482421875 -0.0 0.0 1.0
-0.005831738002598286 -0.006312611047178507 -0.004961996804922819 -0.8660237193107605 0.0 -0.4999237060546875 0.0 1.0
-0.5228726267814636 0.4900956451892853 0.008593997918069363 -0.0 1.0 -0.0 0.0 1.0
-0.5204071998596191 0.4927626848220825 0.004961996804922819 -0.0 0.999969482421875 -0.0 0.0 1.0
-0.0033663338981568813 -0.003645552322268486 -0.008593997918069363 -0.4999542236328125 0.0 -0.8660237193107605 0.0 1.0
-0.5195050835609436 0.4937386214733124 -3.6269625081075674e-09 -0.0 1.0 -0.0 0.0 1.0
-0.5204071998596191 0.4927626848220825 -0.0049620033241808414 -0.0 0.999969482421875 -0.0 0.0 1.0
-0.5262408256530762 0.4864519238471985 -0.009922999888658524 -0.0 0.999969482421875 -0.0 0.0 1.0
-0.5228726267814636 0.4900956451892853 -0.008594001643359661 -0.0 0.999969482421875 -0.0 0.0 1.0
-0.5204071998596191 0.4927626848220825 0.004961996804922819 0.8660237193107605 0.0 0.4999237060546875 0.0 1.0
-0.5228726267814636 0.4900956451892853 0.008593997918069363 0.4999542236328125 0.0 0.8660237193107605 0.0 1.0
-0.5296090245246887 0.4828082025051117 -0.008593997918069363 -0.4999542236328125 0.0 -0.8660237193107605 0.0 1.0
-0.5262408256530762 0.4864519238471985 -0.009922999888658524 -0.0 0.0 -1.0 0.0 1.0
-0.5228726267814636 0.4900956451892853 -0.008594001643359661 0.4999237060546875 0.0 -0.8660237193107605 0.0 1.0
-0.5204071998596191 0.4927626848220825 -0.0049620033241808414 0.8660237193107605 0.0 -0.4999542236328125 0.0 1.0
-0.5262408256530762 0.4864519238471985 0.009922999888658524 -0.0 0.0 1.0 0.0 1.0
-0.5329765677452087 0.479165256023407 3.644731849661298e-09 -1.0 0.0 -0.0 0.0 1.0
-0.5320744514465332 0.48014116287231445 -0.004961996804922819 -0.8660237193107605 0.0 -0.4999237060546875 0.0 1.0
-0.5296090245246887 0.4828082323074341 0.008594001643359661 -0.4999237060546875 0.0 0.8660237193107605 0.0 1.0
-0.5320744514465332 0.48014116287231445 0.0049620033241808414 -0.8660237193107605 0.0 0.4999542236328125 0.0 1.0
-0.5195050835609436 0.4937386214733124 -3.6269625081075674e-09 1.0 0.0 -0.0 0.0 1.0
3 24 4
24 3 35
0 29 2
29 0 28
10 31 13
31 10 34
13 32 16
32 13 31
5 30 6
30 5 25
16 26 19
26 16 32
0 27 28
27 0 1
19 27 1
27 19 26
7 34 10
34 7 33
4 25 5
25 4 24
6 33 7
33 6 30
2 35 3
35 2 29
20 17 18
17 14 15
14 11 12
11 8 9
8 23 22
23 20 21
20 14 17
14 8 11
8 20 23
14 20 8
LABEL Group_11
MATERIAL 1
TEXTURE 0
GEOM 36 34
0.0033700845669955015 0.003641864052042365 -0.008594001643359661 0.4999237060546875 0.0 -0.8660237193107605 0.0 1.0
1.8749952914731693e-06 -1.8446999092702754e-06 -0.009922999888658524 -0.0 0.0 -1.0 0.0 1.0
0.005835489369928837 0.006308923941105604 -0.0049620033241808414 0.8660237193107605 0.0 -0.4999542236328125 0.0 1.0
0.006737616844475269 0.007284840103238821 -3.6269625081075674e-09 1.0 0.0 -0.0 0.0 1.0
0.005835491698235273 0.006308926735073328 0.004961996804922819 0.8660237193107605 0.0 0.4999237060546875 0.0 1.0
0.003370088990777731 0.0036418691743165255 0.008593997918069363 0.4999542236328125 0.0 0.8660237193107605 0.0 1.0
1.8796985159497126e-06 -1.8391466483080876e-06 0.009922999888658524 -0.0 0.0 1.0 0.0 1.0
-0.003366329940035939 -0.003645547665655613 0.008594001643359661 -0.4999237060546875 0.0 0.8660237193107605 0.0 1.0
-0.5296090245246887 0.4828082025051117 -0.008593997918069363 -0.0 1.0 -0.0 0.0 1.0
-0.5320744514465332 0.48014116287231445 -0.004961996804922819 -0.0 1.0 -0.0 0.0 1.0
-0.0058317347429692745 -0.006312607787549496 0.0049620033241808414 -0.8660237193107605 0.0 0.4999542236328125 0.0 1.0
-0.5329765677452087 0.479165256023407 3.644731849661298e-09 -0.0 1.0 -0.0 0.0 1.0
-0.5320744514465332 0.48014116287231445 0.0049620033241808414 -0.0 0.999969482421875 -0.0 0.0 1.0
-0.006733862217515707 -0.0072885239496827126 3.644731849661298e-09 -0.999969482421875 0.0 -0.0 0.0 1.0
-0.5296090245246887 0.4828082323074341 0.008594001643359661 -0.0 0.999969482421875 -0.0 0.0 1.0
-0.5262408256530762 0.4864519238471985 0.009922999888658524 -0.0 0.999969482421875 -0.0 0.0 1.0
-0.005831738002598286 -0.006312611047178507 -0.004961996804922819 -0.8660237193107605 0.0 -0.4999237060546875 0.0 1.0
-0.5228726267814636 0.4900956451892853 0.008593997918069363 -0.0 1.0 -0.0 0.0 1.0
-0.5204071998596191 0.4927626848220825 0.004961996804922819 -0.0 0.999969482421875 -0.0 0.0 1.0
-0.0033663338981568813 -0.003645552322268486 -0.008593997918069363 -0.4999542236328125 0.0 -0.8660237193107605 0.0 1.0
-0.5195050835609436 0.4937386214733124 -3.6269625081075674e-09 -0.0 1.0 -0.0 0.0 1.0
-0.5204071998596191 0.4927626848220825 -0.0049620033241808414 -0.0 0.999969482421875 -0.0 0.0 1.0
-0.5262408256530762 0.4864519238471985 -0.009922999888658524 -0.0 0.999969482421875 -0.0 0.0 1.0
-0.5228726267814636 0.4900956451892853 -0.008594001643359661 -0.0 0.999969482421875 -0.0 0.0 1.0
-0.5204071998596191 0.4927626848220825 0.004961996804922819 0.8660237193107605 0.0 0.4999237060546875 0.0 1.0
-0.5228726267814636 0.4900956451892853 0.008593997918069363 0.4999542236328125 0.0 0.8660237193107605 0.0 1.0
-0.5296090245246887 0.4828082025051117 -0.008593997918069363 -0.4999542236328125 0.0 -0.8660237193107605 0.0 1.0
-0.5262408256530762 0.4864519238471985 -0.009922999888658524 -0.0 0.0 -1.0 0.0 1.0
-0.5228726267814636 0.4900956451892853 -0.008594001643359661 0.4999237060546875 0.0 -0.8660237193107605 0.0 1.0
-0.5204071998596191 0.4927626848220825 -0.0049620033241808414 0.8660237193107605 0.0 -0.4999542236328125 0.0 1.0
-0.5262408256530762 0.4864519238471985 0.009922999888658524 -0.0 0.0 1.0 0.0 1.0
-0.5329765677452087 0.479165256023407 3.644731849661298e-09 -1.0 0.0 -0.0 0.0 1.0
-0.5320744514465332 0.48014116287231445 -0.004961996804922819 -0.8660237193107605 0.0 -0.4999237060546875 0.0 1.0
-0.5296090245246887 0.4828082323074341 0.008594001643359661 -0.4999237060546875 0.0 0.8660237193107605 0.0 1.0
-0.5320744514465332 0.48014116287231445 0.0049620033241808414 -0.8660237193107605 0.0 0.4999542236328125 0.0 1.0
-0.5195050835609436 0.4937386214733124 -3.6269625081075674e-09 1.0 0.0 -0.0 0.0 1.0
3 24 4
24 3 35
0 29 2
29 0 28
10 31 13
31 10 34
13 32 16
32 13 31
5 30 6
30 5 25
16 26 19
26 16 32
0 27 28
27 0 1
19 27 1
27 19 26
7 34 10
34 7 33
4 25 5
25 4 24
6 33 7
33 6 30
2 35 3
35 2 29
20 17 18
17 14 15
14 11 12
11 8 9
8 23 22
23 20 21
20 14 17
14 8 11
8 20 23
14 20 8
LABEL Group_12
MATERIAL 1
TEXTURE 0
GEOM 36 34
0.0033700845669955015 0.003641864052042365 -0.008594001643359661 0.4999237060546875 0.0 -0.8660237193107605 0.0 1.0
1.8749952914731693e-06 -1.8446999092702754e-06 -0.009922999888658524 -0.0 0.0 -1.0 0.0 1.0
0.005835489369928837 0.006308923941105604 -0.0049620033241808414 0.8660237193107605 0.0 -0.4999542236328125 0.0 1.0
0.006737616844475269 0.007284840103238821 -3.6269625081075674e-09 1.0 0.0 -0.0 0.0 1.0
0.005835491698235273 0.006308926735073328 0.004961996804922819 0.8660237193107605 0.0 0.4999237060546875 0.0 1.0
0.003370088990777731 0.0036418691743165255 0.008593997918069363 0.4999542236328125 0.0 0.8660237193107605 0.0 1.0
1.8796985159497126e-06 -1.8391466483080876e-06 0.009922999888658524 -0.0 0.0 1.0 0.0 1.0
-0.003366329940035939 -0.003645547665655613 0.008594001643359661 -0.4999237060546875 0.0 0.8660237193107605 0.0 1.0
-0.5296090245246887 0.4828082025051117 -0.008593997918069363 -0.0 1.0 -0.0 0.0 1.0
-0.5320744514465332 0.48014116287231445 -0.004961996804922819 -0.0 1.0 -0.0 0.0 1.0
-0.0058317347429692745 -0.006312607787549496 0.0049620033241808414 -0.8660237193107605 0.0 0.4999542236328125 0.0 1.0
-0.5329765677452087 0.479165256023407 3.644731849661298e-09 -0.0 1.0 -0.0 0.0 1.0
-0.5320744514465332 0.48014116287231445 0.0049620033241808414 -0.0 0.999969482421875 -0.0 0.0 1.0
-0.006733862217515707 -0.0072885239496827126 3.644731849661298e-09 -0.999969482421875 0.0 -0.0 0.0 1.0
-0.5296090245246887 0.4828082323074341 0.008594001643359661 -0.0 0.999969482421875 -0.0 0.0 1.0
-0.5262408256530762 0.4864519238471985 0.009922999888658524 -0.0 0.999969482421875 -0.0 0.0 1.0
-0.005831738002598286 -0.006312611047178507 -0.004961996804922819 -0.8660237193107605 0.0 -0.4999237060546875 0.0 1.0
-0.5228726267814636 0.4900956451892853 0.008593997918069363 -0.0 1.0 -0.0 0.0 1.0
-0.5204071998596191 0.4927626848220825 0.004961996804922819 -0.0 0.999969482421875 -0.0 0.0 1.0
-0.0033663338981568813 -0.003645552322268486 -0.008593997918069363 -0.4999542236328125 0.0 -0.8660237193107605 0.0 1.0
-0.5195050835609436 0.4937386214733124 -3.6269625081075674e-09 -0.0 1.0 -0.0 0.0 1.0
-0.5204071998596191 0.4927626848220825 -0.0049620033241808414 -0.0 0.999969482421875 -0.0 0.0 1.0
-0.5262408256530762 0.4864519238471985 -0.009922999888658524 -0.0 0.999969482421875 -0.0 0.0 1.0
-0.5228726267814636 0.4900956451892853 -0.008594001643359661 -0.0 0.999969482421875 -0.0 0.0 1.0
-0.5204071998596191 0.4927626848220825 0.004961996804922819 0.8660237193107605 0.0 0.4999237060546875 0.0 1.0
-0.5228726267814636 0.4900956451892853 0.008593997918069363 0.4999542236328125 0.0 0.8660237193107605 0.0 1.0
-0.5296090245246887 0.4828082025051117 -0.008593997918069363 -0.4999542236328125 0.0 -0.8660237193107605 0.0 1.0
-0.5262408256530762 0.4864519238471985 -0.009922999888658524 -0.0 0.0 -1.0 0.0 1.0
-0.5228726267814636 0.4900956451892853 -0.008594001643359661 0.4999237060546875 0.0 -0.8660237193107605 0.0 1.0
-0.5204071998596191 0.4927626848220825 -0.0049620033241808414 0.8660237193107605 0.0 -0.4999542236328125 0.0 1.0
-0.5262408256530762 0.4864519238471985 0.009922999888658524 -0.0 0.0 1.0 0.0 1.0
-0.5329765677452087 0.479165256023407 3.644731849661298e-09 -1.0 0.0 -0.0 0.0 1.0
-0.5320744514465332 0.48014116287231445 -0.004961996804922819 -0.8660237193107605 0.0 -0.4999237060546875 0.0 1.0
-0.5296090245246887 0.4828082323074341 0.008594001643359661 -0.4999237060546875 0.0 0.8660237193107605 0.0 1.0
-0.5320744514465332 0.48014116287231445 0.0049620033241808414 -0.8660237193107605 0.0 0.4999542236328125 0.0 1.0
-0.5195050835609436 0.4937386214733124 -3.6269625081075674e-09 1.0 0.0 -0.0 0.0 1.0
3 24 4
24 3 35
0 29 2
29 0 28
10 31 13
31 10 34
13 32 16
32 13 31
5 30 6
30 5 25
16 26 19
26 16 32
0 27 28
27 0 1
19 27 1
27 19 26
7 34 10
34 7 33
4 25 5
25 4 24
6 33 7
33 6 30
2 35 3
35 2 29
20 17 18
17 14 15
14 11 12
11 8 9
8 23 22
23 20 21
20 14 17
14 8 11
8 20 23
14 20 8
LABEL Group_13
MATERIAL 1
TEXTURE 0
GEOM 36 34
0.0033700845669955015 0.003641864052042365 -0.008594001643359661 0.4999237060546875 0.0 -0.8660237193107605 0.0 1.0
1.8749952914731693e-06 -1.8446999092702754e-06 -0.009922999888658524 -0.0 0.0 -1.0 0.0 1.0
0.005835489369928837 0.006308923941105604 -0.0049620033241808414 0.8660237193107605 0.0 -0.4999542236328125 0.0 1.0
0.006737616844475269 0.007284840103238821 -3.6269625081075674e-09 1.0 0.0 -0.0 0.0 1.0
0.005835491698235273 0.006308926735073328 0.004961996804922819 0.8660237193107605 0.0 0.4999237060546875 0.0 1.0
0.003370088990777731 0.0036418691743165255 0.008593997918069363 0.4999542236328125 0.0 0.8660237193107605 0.0 1.0
1.8796985159497126e-06 -1.8391466483080876e-06 0.009922999888658524 -0.0 0.0 1.0 0.0 1.0
-0.003366329940035939 -0.003645547665655613 0.008594001643359661 -0.4999237060546875 0.0 0.8660237193107605 0.0 1.0
-0.5296090245246887 0.4828082025051117 -0.008593997918069363 -0.0 1.0 -0.0 0.0 1.0
-0.5320744514465332 0.48014116287231445 -0.004961996804922819 -0.0 1.0 -0.0 0.0 1.0
-0.0058317347429692745 -0.006312607787549496 0.0049620033241808414 -0.8660237193107605 0.0 0.4999542236328125 0.0 1.0
-0.5329765677452087 0.479165256023407 3.644731849661298e-09 -0.0 1.0 -0.0 0.0 1.0
-0.5320744514465332 0.48014116287231445 0.0049620033241808414 -0.0 0.999969482421875 -0.0 0.0 1.0
-0.006733862217515707 -0.0072885239496827126 3.644731849661298e-09 -0.999969482421875 0.0 -0.0 0.0 1.0
-0.5296090245246887 0.4828082323074341 0.008594001643359661 -0.0 0.999969482421875 -0.0 0.0 1.0
-0.5262408256530762 0.4864519238471985 0.009922999888658524 -0.0 0.999969482421875 -0.0 0.0 1.0
-0.005831738002598286 -0.006312611047178507 -0.004961996804922819 -0.8660237193107605 0.0 -0.4999237060546875 0.0 1.0
-0.5228726267814636 0.4900956451892853 0.008593997918069363 -0.0 1.0 -0.0 0.0 1.0
-0.5204071998596191 0.4927626848220825 0.004961996804922819 -0.0 0.999969482421875 -0.0 0.0 1.0
-0.0033663338981568813 -0.003645552322268486 -0.008593997918069363 -0.4999542236328125 0.0 -0.8660237193107605 0.0 1.0
-0.5195050835609436 0.4937386214733124 -3.6269625081075674e-09 -0.0 1.0 -0.0 0.0 1.0
-0.5204071998596191 0.4927626848220825 -0.0049620033241808414 -0.0 0.999969482421875 -0.0 0.0 1.0
-0.5262408256530762 0.4864519238471985 -0.009922999888658524 -0.0 0.999969482421875 -0.0 0.0 1.0
-0.5228726267814636 0.4900956451892853 -0.008594001643359661 -0.0 0.999969482421875 -0.0 0.0 1.0
-0.5204071998596191 0.4927626848220825 0.004961996804922819 0.8660237193107605 0.0 0.4999237060546875 0.0 1.0
-0.5228726267814636 0.4900956451892853 0.008593997918069363 0.4999542236328125 0.0 0.8660237193107605 0.0 1.0
-0.5296090245246887 0.4828082025051117 -0.008593997918069363 -0.4999542236328125 0.0 -0.8660237193107605 0.0 1.0
-0.5262408256530762 0.4864519238471985 -0.009922999888658524 -0.0 0.0 -1.0 0.0 1.0
-0.5228726267814636 0.4900956451892853 -0.008594001643359661 0.4999237060546875 0.0 -0.8660237193107605 0.0 1.0
-0.5204071998596191 0.4927626848220825 -0.0049620033241808414 0.8660237193107605 0.0 -0.4999542236328125 0.0 1.0
-0.5262408256530762 0.4864519238471985 0.009922999888658524 -0.0 0.0 1.0 0.0 1.0
-0.5329765677452087 0.479165256023407 3.644731849661298e-09 -1.0 0.0 -0.0 0.0 1.0
-0.5320744514465332 0.48014116287231445 -0.004961996804922819 -0.8660237193107605 0.0 -0.4999237060546875 0.0 1.0
-0.5296090245246887 0.4828082323074341 0.008594001643359661 -0.4999237060546875 0.0 0.8660237193107605 0.0 1.0
-0.5320744514465332 0.48014116287231445 0.0049620033241808414 -0.8660237193107605 0.0 0.4999542236328125 0.0 1.0
-0.5195050835609436 0.4937386214733124 -3.6269625081075674e-09 1.0 0.0 -0.0 0.0 1.0
3 24 4
24 3 35
0 29 2
29 0 28
10 31 13
31 10 34
13 32 16
32 13 31
5 30 6
30 5 25
16 26 19
26 16 32
0 27 28
27 0 1
19 27 1
27 19 26
7 34 10
34 7 33
4 25 5
25 4 24
6 33 7
33 6 30
2 35 3
35 2 29
20 17 18
17 14 15
14 11 12
11 8 9
8 23 22
23 20 21
20 14 17
14 8 11
8 20 23
14 20 8
LABEL Group_14
MATERIAL 1
TEXTURE 0
GEOM 36 34
0.0033700845669955015 0.003641864052042365 -0.008594001643359661 0.4999237060546875 0.0 -0.8660237193107605 0.0 1.0
1.8749952914731693e-06 -1.8446999092702754e-06 -0.009922999888658524 -0.0 0.0 -1.0 0.0 1.0
0.005835489369928837 0.006308923941105604 -0.0049620033241808414 0.8660237193107605 0.0 -0.4999542236328125 0.0 1.0
0.006737616844475269 0.007284840103238821 -3.6269625081075674e-09 1.0 0.0 -0.0 0.0 1.0
0.005835491698235273 0.006308926735073328 0.004961996804922819 0.8660237193107605 0.0 0.4999237060546875 0.0 1.0
0.003370088990777731 0.0036418691743165255 0.008593997918069363 0.4999542236328125 0.0 0.8660237193107605 0.0 1.0
1.8796985159497126e-06 -1.8391466483080876e-06 0.009922999888658524 -0.0 0.0 1.0 0.0 1.0
-0.003366329940035939 -0.003645547665655613 0.008594001643359661 -0.4999237060546875 0.0 0.8660237193107605 0.0 1.0
-0.5296090245246887 0.4828082025051117 -0.008593997918069363 -0.0 1.0 -0.0 0.0 1.0
-0.5320744514465332 0.48014116287231445 -0.004961996804922819 -0.0 1.0 -0.0 0.0 1.0
-0.0058317347429692745 -0.006312607787549496 0.0049620033241808414 -0.8660237193107605 0.0 0.4999542236328125 0.0 1.0
-0.5329765677452087 0.479165256023407 3.644731849661298e-09 -0.0 1.0 -0.0 0.0 1.0
-0.5320744514465332 0.48014116287231445 0.0049620033241808414 -0.0 0.999969482421875 -0.0 0.0 1.0
-0.006733862217515707 -0.0072885239496827126 3.644731849661298e-09 -0.999969482421875 0.0 -0.0 0.0 1.0
-0.5296090245246887 0.4828082323074341 0.008594001643359661 -0.0 0.999969482421875 -0.0 0.0 1.0
-0.5262408256530762 0.4864519238471985 0.009922999888658524 -0.0 0.999969482421875 -0.0 0.0 1.0
-0.005831738002598286 -0.006312611047178507 -0.004961996804922819 -0.8660237193107605 0.0 -0.4999237060546875 0.0 1.0
-0.5228726267814636 0.4900956451892853 0.008593997918069363 -0.0 1.0 -0.0 0.0 1.0
-0.5204071998596191 0.4927626848220825 0.004961996804922819 -0.0 0.999969482421875 -0.0 0.0 1.0
-0.0033663338981568813 -0.003645552322268486 -0.008593997918069363 -0.4999542236328125 0.0 -0.8660237193107605 0.0 1.0
-0.5195050835609436 0.4937386214733124 -3.6269625081075674e-09 -0.0 1.0 -0.0 0.0 1.0
-0.5204071998596191 0.4927626848220825 -0.0049620033241808414 -0.0 0.999969482421875 -0.0 0.0 1.0
-0.5262408256530762 0.4864519238471985 -0.009922999888658524 -0.0 0.999969482421875 -0.0 0.0 1.0
-0.5228726267814636 0.4900956451892853 -0.008594001643359661 -0.0 0.999969482421875 -0.0 0.0 1.0
-0.5204071998596191 0.4927626848220825 0.004961996804922819 0.8660237193107605 0.0 0.4999237060546875 0.0 1.0
-0.5228726267814636 0.4900956451892853 0.008593997918069363 0.4999542236328125 0.0 0.8660237193107605 0.0 1.0
-0.5296090245246887 0.4828082025051117 -0.008593997918069363 -0.4999542236328125 0.0 -0.8660237193107605 0.0 1.0
-0.5262408256530762 0.4864519238471985 -0.009922999888658524 -0.0 0.0 -1.0 0.0 1.0
-0.5228726267814636 0.4900956451892853 -0.008594001643359661 0.4999237060546875 0.0 -0.8660237193107605 0.0 1.0
-0.5204071998596191 0.4927626848220825 -0.0049620033241808414 0.8660237193107605 0.0 -0.4999542236328125 0.0 1.0
-0.5262408256530762 0.4864519238471985 0.009922999888658524 -0.0 0.0 1.0 0.0 1.0
-0.5329765677452087 0.479165256023407 3.644731849661298e-09 -1.0 0.0 -0.0 0.0 1.0
-0.5320744514465332 0.48014116287231445 -0.004961996804922819 -0.8660237193107605 0.0 -0.4999237060546875 0.0 1.0
-0.5296090245246887 0.4828082323074341 0.008594001643359661 -0.4999237060546875 0.0 0.8660237193107605 0.0 1.0
-0.5320744514465332 0.48014116287231445 0.0049620033241808414 -0.8660237193107605 0.0 0.4999542236328125 0.0 1.0
-0.5195050835609436 0.4937386214733124 -3.6269625081075674e-09 1.0 0.0 -0.0 0.0 1.0
3 24 4
24 3 35
0 29 2
29 0 28
10 31 13
31 10 34
13 32 16
32 13 31
5 30 6
30 5 25
16 26 19
26 16 32
0 27 28
27 0 1
19 27 1
27 19 26
7 34 10
34 7 33
4 25 5
25 4 24
6 33 7
33 6 30
2 35 3
35 2 29
20 17 18
17 14 15
14 11 12
11 8 9
8 23 22
23 20 21
20 14 17
14 8 11
8 20 23
14 20 8
LABEL Group_2
MATERIAL 1
TEXTURE 0
GEOM 36 34
0.0033700845669955015 0.003641864052042365 -0.008594001643359661 0.4999237060546875 0.0 -0.8660237193107605 0.0 1.0
1.8749952914731693e-06 -1.8446999092702754e-06 -0.009922999888658524 -0.0 0.0 -1.0 0.0 1.0
0.005835489369928837 0.006308923941105604 -0.0049620033241808414 0.8660237193107605 0.0 -0.4999542236328125 0.0 1.0
0.006737616844475269 0.007284840103238821 -3.6269625081075674e-09 1.0 0.0 -0.0 0.0 1.0
0.005835491698235273 0.006308926735073328 0.004961996804922819 0.8660237193107605 0.0 0.4999237060546875 0.0 1.0
0.003370088990777731 0.0036418691743165255 0.008593997918069363 0.4999542236328125 0.0 0.8660237193107605 0.0 1.0
1.8796985159497126e-06 -1.8391466483080876e-06 0.009922999888658524 -0.0 0.0 1.0 0.0 1.0
-0.003366329940035939 -0.003645547665655613 0.008594001643359661 -0.4999237060546875 0.0 0.8660237193107605 0.0 1.0
-0.5296090245246887 0.4828082025051117 -0.008593997918069363 -0.0 1.0 -0.0 0.0 1.0
-0.5320744514465332 0.48014116287231445 -0.004961996804922819 -0.0 1.0 -0.0 0.0 1.0
-0.0058317347429692745 -0.006312607787549496 0.0049620033241808414 -0.8660237193107605 0.0 0.4999542236328125 0.0 1.0
-0.5329765677452087 0.479165256023407 3.644731849661298e-09 -0.0 1.0 -0.0 0.0 1.0
-0.5320744514465332 0.48014116287231445 0.0049620033241808414 -0.0 0.999969482421875 -0.0 0.0 1.0
-0.006733862217515707 -0.0072885239496827126 3.644731849661298e-09 -0.999969482421875 0.0 -0.0 0.0 1.0
-0.5296090245246887 0.4828082323074341 0.008594001643359661 -0.0 0.999969482421875 -0.0 0.0 1.0
-0.5262408256530762 0.4864519238471985 0.009922999888658524 -0.0 0.999969482421875 -0.0 0.0 1.0
-0.005831738002598286 -0.006312611047178507 -0.004961996804922819 -0.8660237193107605 0.0 -0.4999237060546875 0.0 1.0
-0.5228726267814636 0.4900956451892853 0.008593997918069363 -0.0 1.0 -0.0 0.0 1.0
-0.5204071998596191 0.4927626848220825 0.004961996804922819 -0.0 0.999969482421875 -0.0 0.0 1.0
-0.0033663338981568813 -0.003645552322268486 -0.008593997918069363 -0.4999542236328125 0.0 -0.8660237193107605 0.0 1.0
-0.5195050835609436 0.4937386214733124 -3.6269625081075674e-09 -0.0 1.0 -0.0 0.0 1.0
-0.5204071998596191 0.4927626848220825 -0.0049620033241808414 -0.0 0.999969482421875 -0.0 0.0 1.0
-0.5262408256530762 0.4864519238471985 -0.009922999888658524 -0.0 0.999969482421875 -0.0 0.0 1.0
-0.5228726267814636 0.4900956451892853 -0.008594001643359661 -0.0 0.999969482421875 -0.0 0.0 1.0
-0.5204071998596191 0.4927626848220825 0.004961996804922819 0.8660237193107605 0.0 0.4999237060546875 0.0 1.0
-0.5228726267814636 0.4900956451892853 0.008593997918069363 0.4999542236328125 0.0 0.8660237193107605 0.0 1.0
-0.5296090245246887 0.4828082025051117 -0.008593997918069363 -0.4999542236328125 0.0 -0.8660237193107605 0.0 1.0
-0.5262408256530762 0.4864519238471985 -0.009922999888658524 -0.0 0.0 -1.0 0.0 1.0
-0.5228726267814636 0.4900956451892853 -0.008594001643359661 0.4999237060546875 0.0 -0.8660237193107605 0.0 1.0
-0.5204071998596191 0.4927626848220825 -0.0049620033241808414 0.8660237193107605 0.0 -0.4999542236328125 0.0 1.0
-0.5262408256530762 0.4864519238471985 0.009922999888658524 -0.0 0.0 1.0 0.0 1.0
-0.5329765677452087 0.479165256023407 3.644731849661298e-09 -1.0 0.0 -0.0 0.0 1.0
-0.5320744514465332 0.48014116287231445 -0.004961996804922819 -0.8660237193107605 0.0 -0.4999237060546875 0.0 1.0
-0.5296090245246887 0.4828082323074341 0.008594001643359661 -0.4999237060546875 0.0 0.8660237193107605 0.0 1.0
-0.5320744514465332 0.48014116287231445 0.0049620033241808414 -0.8660237193107605 0.0 0.4999542236328125 0.0 1.0
-0.5195050835609436 0.4937386214733124 -3.6269625081075674e-09 1.0 0.0 -0.0 0.0 1.0
3 24 4
24 3 35
0 29 2
29 0 28
10 31 13
31 10 34
13 32 16
32 13 31
5 30 6
30 5 25
16 26 19
26 16 32
0 27 28
27 0 1
19 27 1
27 19 26
7 34 10
34 7 33
4 25 5
25 4 24
6 33 7
33 6 30
2 35 3
35 2 29
20 17 18
17 14 15
14 11 12
11 8 9
8 23 22
23 20 21
20 14 17
14 8 11
8 20 23
14 20 8
LABEL Group_3
MATERIAL 1
TEXTURE 0
GEOM 36 34
0.0033700845669955015 0.003641864052042365 -0.008594001643359661 0.4999237060546875 0.0 -0.8660237193107605 0.0 1.0
1.8749952914731693e-06 -1.8446999092702754e-06 -0.009922999888658524 -0.0 0.0 -1.0 0.0 1.0
0.005835489369928837 0.006308923941105604 -0.0049620033241808414 0.8660237193107605 0.0 -0.4999542236328125 0.0 1.0
0.006737616844475269 0.007284840103238821 -3.6269625081075674e-09 1.0 0.0 -0.0 0.0 1.0
0.005835491698235273 0.006308926735073328 0.004961996804922819 0.8660237193107605 0.0 0.4999237060546875 0.0 1.0
0.003370088990777731 0.0036418691743165255 0.008593997918069363 0.4999542236328125 0.0 0.8660237193107605 0.0 1.0
1.8796985159497126e-06 -1.8391466483080876e-06 0.009922999888658524 -0.0 0.0 1.0 0.0 1.0
-0.003366329940035939 -0.003645547665655613 0.008594001643359661 -0.4999237060546875 0.0 0.8660237193107605 0.0 1.0
-0.5296090245246887 0.4828082025051117 -0.008593997918069363 -0.0 1.0 -0.0 0.0 1.0
-0.5320744514465332 0.48014116287231445 -0.004961996804922819 -0.0 1.0 -0.0 0.0 1.0
-0.0058317347429692745 -0.006312607787549496 0.0049620033241808414 -0.8660237193107605 0.0 0.4999542236328125 0.0 1.0
-0.5329765677452087 0.479165256023407 3.644731849661298e-09 -0.0 1.0 -0.0 0.0 1.0
-0.5320744514465332 0.48014116287231445 0.0049620033241808414 -0.0 0.999969482421875 -0.0 0.0 1.0
-0.006733862217515707 -0.0072885239496827126 3.644731849661298e-09 -0.999969482421875 0.0 -0.0 0.0 1.0
-0.5296090245246887 0.4828082323074341 0.008594001643359661 -0.0 0.999969482421875 -0.0 0.0 1.0
-0.5262408256530762 0.4864519238471985 0.009922999888658524 -0.0 0.999969482421875 -0.0 0.0 1.0
-0.005831738002598286 -0.006312611047178507 -0.004961996804922819 -0.8660237193107605 0.0 -0.4999237060546875 0.0 1.0
-0.5228726267814636 0.4900956451892853 0.008593997918069363 -0.0 1.0 -0.0 0.0 1.0
-0.5204071998596191 0.4927626848220825 0.004961996804922819 -0.0 0.999969482421875 -0.0 0.0 1.0
-0.0033663338981568813 -0.003645552322268486 -0.008593997918069363 -0.4999542236328125 0.0 -0.8660237193107605 0.0 1.0
-0.5195050835609436 0.4937386214733124 -3.6269625081075674e-09 -0.0 1.0 -0.0 0.0 1.0
-0.5204071998596191 0.4927626848220825 -0.0049620033241808414 -0.0 0.999969482421875 -0.0 0.0 1.0
-0.5262408256530762 0.4864519238471985 -0.009922999888658524 -0.0 0.999969482421875 -0.0 0.0 1.0
-0.5228726267814636 0.4900956451892853 -0.008594001643359661 -0.0 0.999969482421875 -0.0 0.0 1.0
-0.5204071998596191 0.4927626848220825 0.004961996804922819 0.8660237193107605 0.0 0.4999237060546875 0.0 1.0
-0.5228726267814636 0.4900956451892853 0.008593997918069363 0.4999542236328125 0.0 0.8660237193107605 0.0 1.0
-0.5296090245246887 0.4828082025051117 -0.008593997918069363 -0.4999542236328125 0.0 -0.8660237193107605 0.0 1.0
-0.5262408256530762 0.4864519238471985 -0.009922999888658524 -0.0 0.0 -1.0 0.0 1.0
-0.5228726267814636 0.4900956451892853 -0.008594001643359661 0.4999237060546875 0.0 -0.8660237193107605 0.0 1.0
-0.5204071998596191 0.4927626848220825 -0.0049620033241808414 0.8660237193107605 0.0 -0.4999542236328125 0.0 1.0
-0.5262408256530762 0.4864519238471985 0.009922999888658524 -0.0 0.0 1.0 0.0 1.0
-0.5329765677452087 0.479165256023407 3.644731849661298e-09 -1.0 0.0 -0.0 0.0 1.0
-0.5320744514465332 0.48014116287231445 -0.004961996804922819 -0.8660237193107605 0.0 -0.4999237060546875 0.0 1.0
-0.5296090245246887 0.4828082323074341 0.008594001643359661 -0.4999237060546875 0.0 0.8660237193107605 0.0 1.0
-0.5320744514465332 0.48014116287231445 0.0049620033241808414 -0.8660237193107605 0.0 0.4999542236328125 0.0 1.0
-0.5195050835609436 0.4937386214733124 -3.6269625081075674e-09 1.0 0.0 -0.0 0.0 1.0
3 24 4
24 3 35
0 29 2
29 0 28
10 31 13
31 10 34
13 32 16
32 13 31
5 30 6
30 5 25
16 26 19
26 16 32
0 27 28
27 0 1
19 27 1
27 19 26
7 34 10
34 7 33
4 25 5
25 4 24
6 33 7
33 6 30
2 35 3
35 2 29
20 17 18
17 14 15
14 11 12
11 8 9
8 23 22
23 20 21
20 14 17
14 8 11
8 20 23
14 20 8
LABEL Group_4
MATERIAL 1
TEXTURE 0
GEOM 36 34
0.0033700845669955015 0.003641864052042365 -0.008594001643359661 0.4999237060546875 0.0 -0.8660237193107605 0.0 1.0
1.8749952914731693e-06 -1.8446999092702754e-06 -0.009922999888658524 -0.0 0.0 -1.0 0.0 1.0
0.005835489369928837 0.006308923941105604 -0.0049620033241808414 0.8660237193107605 0.0 -0.4999542236328125 0.0 1.0
0.006737616844475269 0.007284840103238821 -3.6269625081075674e-09 1.0 0.0 -0.0 0.0 1.0
0.005835491698235273 0.006308926735073328 0.004961996804922819 0.8660237193107605 0.0 0.4999237060546875 0.0 1.0
0.003370088990777731 0.0036418691743165255 0.008593997918069363 0.4999542236328125 0.0 0.8660237193107605 0.0 1.0
1.8796985159497126e-06 -1.8391466483080876e-06 0.009922999888658524 -0.0 0.0 1.0 0.0 1.0
-0.003366329940035939 -0.003645547665655613 0.008594001643359661 -0.4999237060546875 0.0 0.8660237193107605 0.0 1.0
-0.5296090245246887 0.4828082025051117 -0.008593997918069363 -0.0 1.0 -0.0 0.0 1.0
-0.5320744514465332 0.48014116287231445 -0.004961996804922819 -0.0 1.0 -0.0 0.0 1.0
-0.0058317347429692745 -0.006312607787549496 0.0049620033241808414 -0.8660237193107605 0.0 0.4999542236328125 0.0 1.0
-0.5329765677452087 0.479165256023407 3.644731849661298e-09 -0.0 1.0 -0.0 0.0 1.0
-0.5320744514465332 0.48014116287231445 0.0049620033241808414 -0.0 0.999969482421875 -0.0 0.0 1.0
-0.006733862217515707 -0.0072885239496827126 3.644731849661298e-09 -0.999969482421875 0.0 -0.0 0.0 1.0
-0.5296090245246887 0.4828082323074341 0.008594001643359661 -0.0 0.999969482421875 -0.0 0.0 1.0
-0.5262408256530762 0.4864519238471985 0.009922999888658524 -0.0 0.999969482421875 -0.0 0.0 1.0
-0.005831738002598286 -0.006312611047178507 -0.004961996804922819 -0.8660237193107605 0.0 -0.4999237060546875 0.0 1.0
-0.5228726267814636 0.4900956451892853 0.008593997918069363 -0.0 1.0 -0.0 0.0 1.0
-0.5204071998596191 0.4927626848220825 0.004961996804922819 -0.0 0.999969482421875 -0.0 0.0 1.0
-0.0033663338981568813 -0.003645552322268486 -0.008593997918069363 -0.4999542236328125 0.0 -0.8660237193107605 0.0 1.0
-0.5195050835609436 0.4937386214733124 -3.6269625081075674e-09 -0.0 1.0 -0.0 0.0 1.0
-0.5204071998596191 0.4927626848220825 -0.0049620033241808414 -0.0 0.999969482421875 -0.0 0.0 1.0
-0.5262408256530762 0.4864519238471985 -0.009922999888658524 -0.0 0.999969482421875 -0.0 0.0 1.0
-0.5228726267814636 0.4900956451892853 -0.008594001643359661 -0.0 0.999969482421875 -0.0 0.0 1.0
-0.5204071998596191 0.4927626848220825 0.004961996804922819 0.8660237193107605 0.0 0.4999237060546875 0.0 1.0
-0.5228726267814636 0.4900956451892853 0.008593997918069363 0.4999542236328125 0.0 0.8660237193107605 0.0 1.0
-0.5296090245246887 0.4828082025051117 -0.008593997918069363 -0.4999542236328125 0.0 -0.8660237193107605 0.0 1.0
-0.5262408256530762 0.4864519238471985 -0.009922999888658524 -0.0 0.0 -1.0 0.0 1.0
-0.5228726267814636 0.4900956451892853 -0.008594001643359661 0.4999237060546875 0.0 -0.8660237193107605 0.0 1.0
-0.5204071998596191 0.4927626848220825 -0.0049620033241808414 0.8660237193107605 0.0 -0.4999542236328125 0.0 1.0
-0.5262408256530762 0.4864519238471985 0.009922999888658524 -0.0 0.0 1.0 0.0 1.0
-0.5329765677452087 0.479165256023407 3.644731849661298e-09 -1.0 0.0 -0.0 0.0 1.0
-0.5320744514465332 0.48014116287231445 -0.004961996804922819 -0.8660237193107605 0.0 -0.4999237060546875 0.0 1.0
-0.5296090245246887 0.4828082323074341 0.008594001643359661 -0.4999237060546875 0.0 0.8660237193107605 0.0 1.0
-0.5320744514465332 0.48014116287231445 0.0049620033241808414 -0.8660237193107605 0.0 0.4999542236328125 0.0 1.0
-0.5195050835609436 0.4937386214733124 -3.6269625081075674e-09 1.0 0.0 -0.0 0.0 1.0
3 24 4
24 3 35
0 29 2
29 0 28
10 31 13
31 10 34
13 32 16
32 13 31
5 30 6
30 5 25
16 26 19
26 16 32
0 27 28
27 0 1
19 27 1
27 19 26
7 34 10
34 7 33
4 25 5
25 4 24
6 33 7
33 6 30
2 35 3
35 2 29
20 17 18
17 14 15
14 11 12
11 8 9
8 23 22
23 20 21
20 14 17
14 8 11
8 20 23
14 20 8
LABEL Group_5
MATERIAL 1
TEXTURE 0
GEOM 36 34
0.0033700845669955015 0.003641864052042365 -0.008594001643359661 0.4999237060546875 0.0 -0.8660237193107605 0.0 1.0
1.8749952914731693e-06 -1.8446999092702754e-06 -0.009922999888658524 -0.0 0.0 -1.0 0.0 1.0
0.005835489369928837 0.006308923941105604 -0.0049620033241808414 0.8660237193107605 0.0 -0.4999542236328125 0.0 1.0
0.006737616844475269 0.007284840103238821 -3.6269625081075674e-09 1.0 0.0 -0.0 0.0 1.0
0.005835491698235273 0.006308926735073328 0.004961996804922819 0.8660237193107605 0.0 0.4999237060546875 0.0 1.0
0.003370088990777731 0.0036418691743165255 0.008593997918069363 0.4999542236328125 0.0 0.8660237193107605 0.0 1.0
1.8796985159497126e-06 -1.8391466483080876e-06 0.009922999888658524 -0.0 0.0 1.0 0.0 1.0
-0.003366329940035939 -0.003645547665655613 0.008594001643359661 -0.4999237060546875 0.0 0.8660237193107605 0.0 1.0
-0.5296090245246887 0.4828082025051117 -0.008593997918069363 -0.0 1.0 -0.0 0.0 1.0
-0.5320744514465332 0.48014116287231445 -0.004961996804922819 -0.0 1.0 -0.0 0.0 1.0
-0.0058317347429692745 -0.006312607787549496 0.0049620033241808414 -0.8660237193107605 0.0 0.4999542236328125 0.0 1.0
-0.5329765677452087 0.479165256023407 3.644731849661298e-09 -0.0 1.0 -0.0 0.0 1.0
-0.5320744514465332 0.48014116287231445 0.0049620033241808414 -0.0 0.999969482421875 -0.0 0.0 1.0
-0.006733862217515707 -0.0072885239496827126 3.644731849661298e-09 -0.999969482421875 0.0 -0.0 0.0 1.0
-0.5296090245246887 0.4828082323074341 0.008594001643359661 -0.0 0.999969482421875 -0.0 0.0 1.0
-0.5262408256530762 0.4864519238471985 0.009922999888658524 -0.0 0.999969482421875 -0.0 0.0 1.0
-0.005831738002598286 -0.006312611047178507 -0.004961996804922819 -0.8660237193107605 0.0 -0.4999237060546875 0.0 1.0
-0.5228726267814636 0.4900956451892853 0.008593997918069363 -0.0 1.0 -0.0 0.0 1.0
-0.5204071998596191 0.4927626848220825 0.004961996804922819 -0.0 0.999969482421875 -0.0 0.0 1.0
-0.0033663338981568813 -0.003645552322268486 -0.008593997918069363 -0.4999542236328125 0.0 -0.8660237193107605 0.0 1.0
-0.5195050835609436 0.4937386214733124 -3.6269625081075674e-09 -0.0 1.0 -0.0 0.0 1.0
-0.5204071998596191 0.4927626848220825 -0.0049620033241808414 -0.0 0.999969482421875 -0.0 0.0 1.0
-0.5262408256530762 0.4864519238471985 -0.009922999888658524 -0.0 0.999969482421875 -0.0 0.0 1.0
-0.5228726267814636 0.4900956451892853 -0.008594001643359661 -0.0 0.999969482421875 -0.0 0.0 1.0
-0.5204071998596191 0.4927626848220825 0.004961996804922819 0.8660237193107605 0.0 0.4999237060546875 0.0 1.0
-0.5228726267814636 0.4900956451892853 0.008593997918069363 0.4999542236328125 0.0 0.8660237193107605 0.0 1.0
-0.5296090245246887 0.4828082025051117 -0.008593997918069363 -0.4999542236328125 0.0 -0.8660237193107605 0.0 1.0
-0.5262408256530762 0.4864519238471985 -0.009922999888658524 -0.0 0.0 -1.0 0.0 1.0
-0.5228726267814636 0.4900956451892853 -0.008594001643359661 0.4999237060546875 0.0 -0.8660237193107605 0.0 1.0
-0.5204071998596191 0.4927626848220825 -0.0049620033241808414 0.8660237193107605 0.0 -0.4999542236328125 0.0 1.0
-0.5262408256530762 0.4864519238471985 0.009922999888658524 -0.0 0.0 1.0 0.0 1.0
-0.5329765677452087 0.479165256023407 3.644731849661298e-09 -1.0 0.0 -0.0 0.0 1.0
-0.5320744514465332 0.48014116287231445 -0.004961996804922819 -0.8660237193107605 0.0 -0.4999237060546875 0.0 1.0
-0.5296090245246887 0.4828082323074341 0.008594001643359661 -0.4999237060546875 0.0 0.8660237193107605 0.0 1.0
-0.5320744514465332 0.48014116287231445 0.0049620033241808414 -0.8660237193107605 0.0 0.4999542236328125 0.0 1.0
-0.5195050835609436 0.4937386214733124 -3.6269625081075674e-09 1.0 0.0 -0.0 0.0 1.0
3 24 4
24 3 35
0 29 2
29 0 28
10 31 13
31 10 34
13 32 16
32 13 31
5 30 6
30 5 25
16 26 19
26 16 32
0 27 28
27 0 1
19 27 1
27 19 26
7 34 10
34 7 33
4 25 5
25 4 24
6 33 7
33 6 30
2 35 3
35 2 29
20 17 18
17 14 15
14 11 12
11 8 9
8 23 22
23 20 21
20 14 17
14 8 11
8 20 23
14 20 8
LABEL Group_6
MATERIAL 1
TEXTURE 0
GEOM 36 34
0.0033700845669955015 0.003641864052042365 -0.008594001643359661 0.4999237060546875 0.0 -0.8660237193107605 0.0 1.0
1.8749952914731693e-06 -1.8446999092702754e-06 -0.009922999888658524 -0.0 0.0 -1.0 0.0 1.0
0.005835489369928837 0.006308923941105604 -0.0049620033241808414 0.8660237193107605 0.0 -0.4999542236328125 0.0 1.0
0.006737616844475269 0.007284840103238821 -3.6269625081075674e-09 1.0 0.0 -0.0 0.0 1.0
0.005835491698235273 0.006308926735073328 0.004961996804922819 0.8660237193107605 0.0 0.4999237060546875 0.0 1.0
0.003370088990777731 0.0036418691743165255 0.008593997918069363 0.4999542236328125 0.0 0.8660237193107605 0.0 1.0
1.8796985159497126e-06 -1.8391466483080876e-06 0.009922999888658524 -0.0 0.0 1.0 0.0 1.0
-0.003366329940035939 -0.003645547665655613 0.008594001643359661 -0.4999237060546875 0.0 0.8660237193107605 0.0 1.0
-0.5296090245246887 0.4828082025051117 -0.008593997918069363 -0.0 1.0 -0.0 0.0 1.0
-0.5320744514465332 0.48014116287231445 -0.004961996804922819 -0.0 1.0 -0.0 0.0 1.0
-0.0058317347429692745 -0.006312607787549496 0.0049620033241808414 -0.8660237193107605 0.0 0.4999542236328125 0.0 1.0
-0.5329765677452087 0.479165256023407 3.644731849661298e-09 -0.0 1.0 -0.0 0.0 1.0
-0.5320744514465332 0.48014116287231445 0.0049620033241808414 -0.0 0.999969482421875 -0.0 0.0 1.0
-0.006733862217515707 -0.0072885239496827126 3.644731849661298e-09 -0.999969482421875 0.0 -0.0 0.0 1.0
-0.5296090245246887 0.4828082323074341 0.008594001643359661 -0.0 0.999969482421875 -0.0 0.0 1.0
-0.5262408256530762 0.4864519238471985 0.009922999888658524 -0.0 0.999969482421875 -0.0 0.0 1.0
-0.005831738002598286 -0.006312611047178507 -0.004961996804922819 -0.8660237193107605 0.0 -0.4999237060546875 0.0 1.0
-0.5228726267814636 0.4900956451892853 0.008593997918069363 -0.0 1.0 -0.0 0.0 1.0
-0.5204071998596191 0.4927626848220825 0.004961996804922819 -0.0 0.999969482421875 -0.0 0.0 1.0
-0.0033663338981568813 -0.003645552322268486 -0.008593997918069363 -0.4999542236328125 0.0 -0.8660237193107605 0.0 1.0
-0.5195050835609436 0.4937386214733124 -3.6269625081075674e-09 -0.0 1.0 -0.0 0.0 1.0
-0.5204071998596191 0.4927626848220825 -0.0049620033241808414 -0.0 0.999969482421875 -0.0 0.0 1.0
-0.5262408256530762 0.4864519238471985 -0.009922999888658524 -0.0 0.999969482421875 -0.0 0.0 1.0
-0.5228726267814636 0.4900956451892853 -0.008594001643359661 -0.0 0.999969482421875 -0.0 0.0 1.0
-0.5204071998596191 0.4927626848220825 0.004961996804922819 0.8660237193107605 0.0 0.4999237060546875 0.0 1.0
-0.5228726267814636 0.4900956451892853 0.008593997918069363 0.4999542236328125 0.0 0.8660237193107605 0.0 1.0
-0.5296090245246887 0.4828082025051117 -0.008593997918069363 -0.4999542236328125 0.0 -0.8660237193107605 0.0 1.0
-0.5262408256530762 0.4864519238471985 -0.009922999888658524 -0.0 0.0 -1.0 0.0 1.0
-0.5228726267814636 0.4900956451892853 -0.008594001643359661 0.4999237060546875 0.0 -0.8660237193107605 0.0 1.0
-0.5204071998596191 0.4927626848220825 -0.0049620033241808414 0.8660237193107605 0.0 -0.4999542236328125 0.0 1.0
-0.5262408256530762 0.4864519238471985 0.009922999888658524 -0.0 0.0 1.0 0.0 1.0
-0.5329765677452087 0.479165256023407 3.644731849661298e-09 -1.0 0.0 -0.0 0.0 1.0
-0.5320744514465332 0.48014116287231445 -0.004961996804922819 -0.8660237193107605 0.0 -0.4999237060546875 0.0 1.0
-0.5296090245246887 0.4828082323074341 0.008594001643359661 -0.4999237060546875 0.0 0.8660237193107605 0.0 1.0
-0.5320744514465332 0.48014116287231445 0.0049620033241808414 -0.8660237193107605 0.0 0.4999542236328125 0.0 1.0
-0.5195050835609436 0.4937386214733124 -3.6269625081075674e-09 1.0 0.0 -0.0 0.0 1.0
3 24 4
24 3 35
0 29 2
29 0 28
10 31 13
31 10 34
13 32 16
32 13 31
5 30 6
30 5 25
16 26 19
26 16 32
0 27 28
27 0 1
19 27 1
27 19 26
7 34 10
34 7 33
4 25 5
25 4 24
6 33 7
33 6 30
2 35 3
35 2 29
20 17 18
17 14 15
14 11 12
11 8 9
8 23 22
23 20 21
20 14 17
14 8 11
8 20 23
14 20 8
LABEL Group_7
MATERIAL 1
TEXTURE 0
GEOM 36 34
0.0033700845669955015 0.003641864052042365 -0.008594001643359661 0.4999237060546875 0.0 -0.8660237193107605 0.0 1.0
1.8749952914731693e-06 -1.8446999092702754e-06 -0.009922999888658524 -0.0 0.0 -1.0 0.0 1.0
0.005835489369928837 0.006308923941105604 -0.0049620033241808414 0.8660237193107605 0.0 -0.4999542236328125 0.0 1.0
0.006737616844475269 0.007284840103238821 -3.6269625081075674e-09 1.0 0.0 -0.0 0.0 1.0
0.005835491698235273 0.006308926735073328 0.004961996804922819 0.8660237193107605 0.0 0.4999237060546875 0.0 1.0
0.003370088990777731 0.0036418691743165255 0.008593997918069363 0.4999542236328125 0.0 0.8660237193107605 0.0 1.0
1.8796985159497126e-06 -1.8391466483080876e-06 0.009922999888658524 -0.0 0.0 1.0 0.0 1.0
-0.003366329940035939 -0.003645547665655613 0.008594001643359661 -0.4999237060546875 0.0 0.8660237193107605 0.0 1.0
-0.5296090245246887 0.4828082025051117 -0.008593997918069363 -0.0 1.0 -0.0 0.0 1.0
-0.5320744514465332 0.48014116287231445 -0.004961996804922819 -0.0 1.0 -0.0 0.0 1.0
-0.0058317347429692745 -0.006312607787549496 0.0049620033241808414 -0.8660237193107605 0.0 0.4999542236328125 0.0 1.0
-0.5329765677452087 0.479165256023407 3.644731849661298e-09 -0.0 1.0 -0.0 0.0 1.0
-0.5320744514465332 0.48014116287231445 0.0049620033241808414 -0.0 0.999969482421875 -0.0 0.0 1.0
-0.006733862217515707 -0.0072885239496827126 3.644731849661298e-09 -0.999969482421875 0.0 -0.0 0.0 1.0
-0.5296090245246887 0.4828082323074341 0.008594001643359661 -0.0 0.999969482421875 -0.0 0.0 1.0
-0.5262408256530762 0.4864519238471985 0.009922999888658524 -0.0 0.999969482421875 -0.0 0.0 1.0
-0.005831738002598286 -0.006312611047178507 -0.004961996804922819 -0.8660237193107605 0.0 -0.4999237060546875 0.0 1.0
-0.5228726267814636 0.4900956451892853 0.008593997918069363 -0.0 1.0 -0.0 0.0 1.0
-0.5204071998596191 0.4927626848220825 0.004961996804922819 -0.0 0.999969482421875 -0.0 0.0 1.0
-0.0033663338981568813 -0.003645552322268486 -0.008593997918069363 -0.4999542236328125 0.0 -0.8660237193107605 0.0 1.0
-0.5195050835609436 0.4937386214733124 -3.6269625081075674e-09 -0.0 1.0 -0.0 0.0 1.0
-0.5204071998596191 0.4927626848220825 -0.0049620033241808414 -0.0 0.999969482421875 -0.0 0.0 1.0
-0.5262408256530762 0.4864519238471985 -0.009922999888658524 -0.0 0.999969482421875 -0.0 0.0 1.0
-0.5228726267814636 0.4900956451892853 -0.008594001643359661 -0.0 0.999969482421875 -0.0 0.0 1.0
-0.5204071998596191 0.4927626848220825 0.004961996804922819 0.8660237193107605 0.0 0.4999237060546875 0.0 1.0
-0.5228726267814636 0.4900956451892853 0.008593997918069363 0.4999542236328125 0.0 0.8660237193107605 0.0 1.0
-0.5296090245246887 0.4828082025051117 -0.008593997918069363 -0.4999542236328125 0.0 -0.8660237193107605 0.0 1.0
-0.5262408256530762 0.4864519238471985 -0.009922999888658524 -0.0 0.0 -1.0 0.0 1.0
-0.5228726267814636 0.4900956451892853 -0.008594001643359661 0.4999237060546875 0.0 -0.8660237193107605 0.0 1.0
-0.5204071998596191 0.4927626848220825 -0.0049620033241808414 0.8660237193107605 0.0 -0.4999542236328125 0.0 1.0
-0.5262408256530762 0.4864519238471985 0.009922999888658524 -0.0 0.0 1.0 0.0 1.0
-0.5329765677452087 0.479165256023407 3.644731849661298e-09 -1.0 0.0 -0.0 0.0 1.0
-0.5320744514465332 0.48014116287231445 -0.004961996804922819 -0.8660237193107605 0.0 -0.4999237060546875 0.0 1.0
-0.5296090245246887 0.4828082323074341 0.008594001643359661 -0.4999237060546875 0.0 0.8660237193107605 0.0 1.0
-0.5320744514465332 0.48014116287231445 0.0049620033241808414 -0.8660237193107605 0.0 0.4999542236328125 0.0 1.0
-0.5195050835609436 0.4937386214733124 -3.6269625081075674e-09 1.0 0.0 -0.0 0.0 1.0
3 24 4
24 3 35
0 29 2
29 0 28
10 31 13
31 10 34
13 32 16
32 13 31
5 30 6
30 5 25
16 26 19
26 16 32
0 27 28
27 0 1
19 27 1
27 19 26
7 34 10
34 7 33
4 25 5
25 4 24
6 33 7
33 6 30
2 35 3
35 2 29
20 17 18
17 14 15
14 11 12
11 8 9
8 23 22
23 20 21
20 14 17
14 8 11
8 20 23
14 20 8
LABEL Group_8
MATERIAL 1
TEXTURE 0
GEOM 36 34
0.0033700845669955015 0.003641864052042365 -0.008594001643359661 0.4999237060546875 0.0 -0.8660237193107605 0.0 1.0
1.8749952914731693e-06 -1.8446999092702754e-06 -0.009922999888658524 -0.0 0.0 -1.0 0.0 1.0
0.005835489369928837 0.006308923941105604 -0.0049620033241808414 0.8660237193107605 0.0 -0.4999542236328125 0.0 1.0
0.006737616844475269 0.007284840103238821 -3.6269625081075674e-09 1.0 0.0 -0.0 0.0 1.0
0.005835491698235273 0.006308926735073328 0.004961996804922819 0.8660237193107605 0.0 0.4999237060546875 0.0 1.0
0.003370088990777731 0.0036418691743165255 0.008593997918069363 0.4999542236328125 0.0 0.8660237193107605 0.0 1.0
1.8796985159497126e-06 -1.8391466483080876e-06 0.009922999888658524 -0.0 0.0 1.0 0.0 1.0
-0.003366329940035939 -0.003645547665655613 0.008594001643359661 -0.4999237060546875 0.0 0.8660237193107605 0.0 1.0
-0.5296090245246887 0.4828082025051117 -0.008593997918069363 -0.0 1.0 -0.0 0.0 1.0
-0.5320744514465332 0.48014116287231445 -0.004961996804922819 -0.0 1.0 -0.0 0.0 1.0
-0.0058317347429692745 -0.006312607787549496 0.0049620033241808414 -0.8660237193107605 0.0 0.4999542236328125 0.0 1.0
-0.5329765677452087 0.479165256023407 3.644731849661298e-09 -0.0 1.0 -0.0 0.0 1.0
-0.5320744514465332 0.48014116287231445 0.0049620033241808414 -0.0 0.999969482421875 -0.0 0.0 1.0
-0.006733862217515707 -0.0072885239496827126 3.644731849661298e-09 -0.999969482421875 0.0 -0.0 0.0 1.0
-0.5296090245246887 0.4828082323074341 0.008594001643359661 -0.0 0.999969482421875 -0.0 0.0 1.0
-0.5262408256530762 0.4864519238471985 0.009922999888658524 -0.0 0.999969482421875 -0.0 0.0 1.0
-0.005831738002598286 -0.006312611047178507 -0.004961996804922819 -0.8660237193107605 0.0 -0.4999237060546875 0.0 1.0
-0.5228726267814636 0.4900956451892853 0.008593997918069363 -0.0 1.0 -0.0 0.0 1.0
-0.5204071998596191 0.4927626848220825 0.004961996804922819 -0.0 0.999969482421875 -0.0 0.0 1.0
-0.0033663338981568813 -0.003645552322268486 -0.008593997918069363 -0.4999542236328125 0.0 -0.8660237193107605 0.0 1.0
-0.5195050835609436 0.4937386214733124 -3.6269625081075674e-09 -0.0 1.0 -0.0 0.0 1.0
-0.5204071998596191 0.4927626848220825 -0.0049620033241808414 -0.0 0.999969482421875 -0.0 0.0 1.0
-0.5262408256530762 0.4864519238471985 -0.009922999888658524 -0.0 0.999969482421875 -0.0 0.0 1.0
-0.5228726267814636 0.4900956451892853 -0.008594001643359661 -0.0 0.999969482421875 -0.0 0.0 1.0
-0.5204071998596191 0.4927626848220825 0.004961996804922819 0.8660237193107605 0.0 0.4999237060546875 0.0 1.0
-0.5228726267814636 0.4900956451892853 0.008593997918069363 0.4999542236328125 0.0 0.8660237193107605 0.0 1.0
-0.5296090245246887 0.4828082025051117 -0.008593997918069363 -0.4999542236328125 0.0 -0.8660237193107605 0.0 1.0
-0.5262408256530762 0.4864519238471985 -0.009922999888658524 -0.0 0.0 -1.0 0.0 1.0
-0.5228726267814636 0.4900956451892853 -0.008594001643359661 0.4999237060546875 0.0 -0.8660237193107605 0.0 1.0
-0.5204071998596191 0.4927626848220825 -0.0049620033241808414 0.8660237193107605 0.0 -0.4999542236328125 0.0 1.0
-0.5262408256530762 0.4864519238471985 0.009922999888658524 -0.0 0.0 1.0 0.0 1.0
-0.5329765677452087 0.479165256023407 3.644731849661298e-09 -1.0 0.0 -0.0 0.0 1.0
-0.5320744514465332 0.48014116287231445 -0.004961996804922819 -0.8660237193107605 0.0 -0.4999237060546875 0.0 1.0
-0.5296090245246887 0.4828082323074341 0.008594001643359661 -0.4999237060546875 0.0 0.8660237193107605 0.0 1.0
-0.5320744514465332 0.48014116287231445 0.0049620033241808414 -0.8660237193107605 0.0 0.4999542236328125 0.0 1.0
-0.5195050835609436 0.4937386214733124 -3.6269625081075674e-09 1.0 0.0 -0.0 0.0 1.0
3 24 4
24 3 35
0 29 2
29 0 28
10 31 13
31 10 34
13 32 16
32 13 31
5 30 6
30 5 25
16 26 19
26 16 32
0 27 28
27 0 1
19 27 1
27 19 26
7 34 10
34 7 33
4 25 5
25 4 24
6 33 7
33 6 30
2 35 3
35 2 29
20 17 18
17 14 15
14 11 12
11 8 9
8 23 22
23 20 21
20 14 17
14 8 11
8 20 23
14 20 8
LABEL Group_9
MATERIAL 1
TEXTURE 0
GEOM 36 34
0.0033700845669955015 0.003641864052042365 -0.008594001643359661 0.4999237060546875 0.0 -0.8660237193107605 0.0 1.0
1.8749952914731693e-06 -1.8446999092702754e-06 -0.009922999888658524 -0.0 0.0 -1.0 0.0 1.0
0.005835489369928837 0.006308923941105604 -0.0049620033241808414 0.8660237193107605 0.0 -0.4999542236328125 0.0 1.0
0.006737616844475269 0.007284840103238821 -3.6269625081075674e-09 1.0 0.0 -0.0 0.0 1.0
0.005835491698235273 0.006308926735073328 0.004961996804922819 0.8660237193107605 0.0 0.4999237060546875 0.0 1.0
0.003370088990777731 0.0036418691743165255 0.008593997918069363 0.4999542236328125 0.0 0.8660237193107605 0.0 1.0
1.8796985159497126e-06 -1.8391466483080876e-06 0.009922999888658524 -0.0 0.0 1.0 0.0 1.0
-0.003366329940035939 -0.003645547665655613 0.008594001643359661 -0.4999237060546875 0.0 0.8660237193107605 0.0 1.0
-0.5296090245246887 0.4828082025051117 -0.008593997918069363 -0.0 1.0 -0.0 0.0 1.0
-0.5320744514465332 0.48014116287231445 -0.004961996804922819 -0.0 1.0 -0.0 0.0 1.0
-0.0058317347429692745 -0.006312607787549496 0.0049620033241808414 -0.8660237193107605 0.0 0.4999542236328125 0.0 1.0
-0.5329765677452087 0.479165256023407 3.644731849661298e-09 -0.0 1.0 -0.0 0.0 1.0
-0.5320744514465332 0.48014116287231445 0.0049620033241808414 -0.0 0.999969482421875 -0.0 0.0 1.0
-0.006733862217515707 -0.0072885239496827126 3.644731849661298e-09 -0.999969482421875 0.0 -0.0 0.0 1.0
-0.5296090245246887 0.4828082323074341 0.008594001643359661 -0.0 0.999969482421875 -0.0 0.0 1.0
-0.5262408256530762 0.4864519238471985 0.009922999888658524 -0.0 0.999969482421875 -0.0 0.0 1.0
-0.005831738002598286 -0.006312611047178507 -0.004961996804922819 -0.8660237193107605 0.0 -0.4999237060546875 0.0 1.0
-0.5228726267814636 0.4900956451892853 0.008593997918069363 -0.0 1.0 -0.0 0.0 1.0
-0.5204071998596191 0.4927626848220825 0.004961996804922819 -0.0 0.999969482421875 -0.0 0.0 1.0
-0.0033663338981568813 -0.003645552322268486 -0.008593997918069363 -0.4999542236328125 0.0 -0.8660237193107605 0.0 1.0
-0.5195050835609436 0.4937386214733124 -3.6269625081075674e-09 -0.0 1.0 -0.0 0.0 1.0
-0.5204071998596191 0.4927626848220825 -0.0049620033241808414 -0.0 0.999969482421875 -0.0 0.0 1.0
-0.5262408256530762 0.4864519238471985 -0.009922999888658524 -0.0 0.999969482421875 -0.0 0.0 1.0
-0.5228726267814636 0.4900956451892853 -0.008594001643359661 -0.0 0.999969482421875 -0.0 0.0 1.0
-0.5204071998596191 0.4927626848220825 0.004961996804922819 0.8660237193107605 0.0 0.4999237060546875 0.0 1.0
-0.5228726267814636 0.4900956451892853 0.008593997918069363 0.4999542236328125 0.0 0.8660237193107605 0.0 1.0
-0.5296090245246887 0.4828082025051117 -0.008593997918069363 -0.4999542236328125 0.0 -0.8660237193107605 0.0 1.0
-0.5262408256530762 0.4864519238471985 -0.009922999888658524 -0.0 0.0 -1.0 0.0 1.0
-0.5228726267814636 0.4900956451892853 -0.008594001643359661 0.4999237060546875 0.0 -0.8660237193107605 0.0 1.0
-0.5204071998596191 0.4927626848220825 -0.0049620033241808414 0.8660237193107605 0.0 -0.4999542236328125 0.0 1.0
-0.5262408256530762 0.4864519238471985 0.009922999888658524 -0.0 0.0 1.0 0.0 1.0
-0.5329765677452087 0.479165256023407 3.644731849661298e-09 -1.0 0.0 -0.0 0.0 1.0
-0.5320744514465332 0.48014116287231445 -0.004961996804922819 -0.8660237193107605 0.0 -0.4999237060546875 0.0 1.0
-0.5296090245246887 0.4828082323074341 0.008594001643359661 -0.4999237060546875 0.0 0.8660237193107605 0.0 1.0
-0.5320744514465332 0.48014116287231445 0.0049620033241808414 -0.8660237193107605 0.0 0.4999542236328125 0.0 1.0
-0.5195050835609436 0.4937386214733124 -3.6269625081075674e-09 1.0 0.0 -0.0 0.0 1.0
3 24 4
24 3 35
0 29 2
29 0 28
10 31 13
31 10 34
13 32 16
32 13 31
5 30 6
30 5 25
16 26 19
26 16 32
0 27 28
27 0 1
19 27 1
27 19 26
7 34 10
34 7 33
4 25 5
25 4 24
6 33 7
33 6 30
2 35 3
35 2 29
20 17 18
17 14 15
14 11 12
11 8 9
8 23 22
23 20 21
20 14 17
14 8 11
8 20 23
14 20 8
MATERIALS 1
METAL.001
MATERIAL METAL.001
0.800000011920929 0.800000011920929 0.800000011920929 1.0
0.800000011920929 0.800000011920929 0.800000011920929 1.0
1.0 1.0 1.0 1.0 50
0.0 0.0 0.0 1.0
TEXTURES 0
