MSHX1
GROUPS 2
LABEL ORBGroup1
MATERIAL 1
TEXTURE 0
GEOM 24 12
1.4014415740966797 1.3753646612167358 -1.1527050733566284 0.5662404298782349 -0.8242133855819702 -0.0
1.3741925954818726 1.3481192588806152 -1.1527050733566284 0.5662404298782349 -0.8242133855819702 -0.0
1.4014415740966797 1.3753646612167358 -1.1988149881362915 0.5662404298782349 -0.8242133855819702 -0.0
1.3741925954818726 1.3481192588806152 -1.1988149881362915 0.5662404298782349 -0.8242133855819702 -0.0
1.3746927976608276 1.4020750522613525 -1.1527050733566284 -0.5664845705032349 0.8240302801132202 -0.0
1.3474634885787964 1.374833345413208 -1.1527050733566284 -0.5664845705032349 0.8240302801132202 -0.0
1.3746927976608276 1.4020750522613525 -1.1988149881362915 -0.5664845705032349 0.8240302801132202 -0.0
1.3474634885787964 1.374833345413208 -1.1988149881362915 -0.5664845705032349 0.8240302801132202 -0.0
1.4014415740966797 1.3753646612167358 -1.1527050733566284 -0.0 0.0 1.0
1.4014415740966797 1.3753646612167358 -1.1527050733566284 0.8237556219100952 0.5669118165969849 -0.0
1.3741925954818726 1.3481192588806152 -1.1527050733566284 -0.0 0.0 1.0
1.3741925954818726 1.3481192588806152 -1.1527050733566284 -0.8239997625350952 -0.5665456056594849 -0.0
1.4014415740966797 1.3753646612167358 -1.1988149881362915 -0.0 0.0 -1.0
1.4014415740966797 1.3753646612167358 -1.1988149881362915 0.8237556219100952 0.5668812990188599 -0.0
1.3741925954818726 1.3481192588806152 -1.1988149881362915 -0.8239997625350952 -0.5665456056594849 -0.0
1.3741925954818726 1.3481192588806152 -1.1988149881362915 -0.0 0.0 -1.0
1.3746927976608276 1.4020750522613525 -1.1527050733566284 -0.0 0.0 1.0
1.3746927976608276 1.4020750522613525 -1.1527050733566284 0.8237556219100952 0.5668812990188599 -0.0
1.3474634885787964 1.374833345413208 -1.1527050733566284 -0.0 0.0 1.0
1.3474634885787964 1.374833345413208 -1.1527050733566284 -0.8239997625350952 -0.5665456056594849 -0.0
1.3746927976608276 1.4020750522613525 -1.1988149881362915 -0.0 0.0 -1.0
1.3746927976608276 1.4020750522613525 -1.1988149881362915 0.8237556219100952 0.5668812990188599 -0.0
1.3474634885787964 1.374833345413208 -1.1988149881362915 -0.8239997625350952 -0.5665456056594849 -0.0
1.3474634885787964 1.374833345413208 -1.1988149881362915 -0.0 0.0 -1.0
0 3 2
3 0 1
4 7 5
7 4 6
8 18 10
18 8 16
11 22 14
22 11 19
15 20 12
20 15 23
13 17 9
17 13 21
LABEL ORBGroup2
MATERIAL 2
TEXTURE 0
GEOM 58 48
1.7343599796295166 0.9007220268249512 -1.2673900127410889 0.843348503112793 0.5373088717460632 -0.0
1.7343599796295166 0.9007220268249512 1.8280500173568726 0.843348503112793 0.5373088717460632 -0.0
1.711840033531189 0.8890020251274109 1.8280500173568726 -0.0 0.0 1.0
1.711840033531189 0.8890020251274109 -1.2673900127410889 -0.843379020690918 -0.5372783541679382 -0.0
1.551300048828125 1.1880500316619873 -1.2673900127410889 0.7933591604232788 0.6087527275085449 -0.0
1.551300048828125 1.1880500316619873 1.8280500173568726 0.7933591604232788 0.6087527275085449 -0.0
1.5311700105667114 1.1726000308990479 1.8280500173568726 -0.0 0.0 1.0
1.5311700105667114 1.1726000308990479 -1.2673900127410889 -0.7933591604232788 -0.6087527275085449 -0.0
1.3211499452590942 1.4392399787902832 -1.2673900127410889 0.6755882501602173 0.7372661232948303 -0.0
1.3211499452590942 1.4392399787902832 1.8280500173568726 0.6755882501602173 0.7372661232948303 -0.0
1.3040000200271606 1.4205199480056763 1.8280500173568726 -0.0 0.0 1.0
1.3040000200271606 1.4205199480056763 -1.2673900127410889 -0.6755882501602173 -0.7372661232948303 -0.0
1.050860047340393 1.646630048751831 -1.2673900127410889 0.5372783541679382 0.843379020690918 -0.0
1.050860047340393 1.646630048751831 1.8280500173568726 0.5372783541679382 0.843379020690918 -0.0
1.0372200012207031 1.6252199411392212 1.8280500173568726 -0.0 0.0 1.0
1.0372200012207031 1.6252199411392212 -1.2673900127410889 -0.5372783541679382 -0.843379020690918 -0.0
0.7486709952354431 1.8039499521255493 -1.2673900127410889 0.382671594619751 0.9238563179969788 -0.0
0.7486709952354431 1.8039499521255493 1.8280500173568726 0.382671594619751 0.9238563179969788 -0.0
0.7389580011367798 1.7804900407791138 1.8280500173568726 -0.0 0.0 1.0
0.7389580011367798 1.7804900407791138 -1.2673900127410889 -0.382671594619751 -0.9238563179969788 -0.0
0.4237540066242218 1.9063899517059326 -1.2673900127410889 0.3006683588027954 0.9537034034729004 -0.0
0.4237540066242218 1.9063899517059326 1.8280500173568726 0.3006683588027954 0.9537034034729004 -0.0
0.41826000809669495 1.881600022315979 1.8280500173568726 -0.0 0.0 0.999969482421875
0.41826000809669495 1.881600022315979 -1.2673900127410889 -0.3006683588027954 -0.9537034034729004 -0.0
1.723099946975708 0.8948670029640198 0.28032299876213074 0.4616535007953644 -0.887050986289978 -0.0
0.42100799083709717 1.8939900398254395 0.28032299876213074 -0.9762871265411377 0.21634571254253387 -0.0
1.7343599796295166 0.9007220268249512 -1.2673900127410889 -0.0 0.0 -0.999969482421875
1.7343599796295166 0.9007220268249512 -1.2673900127410889 0.4616229832172394 -0.887050986289978 -0.0
1.7343599796295166 0.9007220268249512 1.8280500173568726 -0.0 0.0 1.0
1.7343599796295166 0.9007220268249512 1.8280500173568726 0.4616229832172394 -0.887050986289978 -0.0
1.711840033531189 0.8890020251274109 1.8280500173568726 -0.843379020690918 -0.5372783541679382 -0.0
1.711840033531189 0.8890020251274109 1.8280500173568726 0.4616229832172394 -0.887050986289978 -0.0
1.711840033531189 0.8890020251274109 -1.2673900127410889 -0.0 0.0 -1.0
1.711840033531189 0.8890020251274109 -1.2673900127410889 0.4616229832172394 -0.887050986289978 -0.0
1.551300048828125 1.1880500316619873 -1.2673900127410889 -0.0 0.0 -1.0
1.551300048828125 1.1880500316619873 1.8280500173568726 -0.0 0.0 1.0
1.5311700105667114 1.1726000308990479 1.8280500173568726 -0.7933591604232788 -0.6087527275085449 -0.0
1.5311700105667114 1.1726000308990479 -1.2673900127410889 -0.0 0.0 -0.999969482421875
1.3211499452590942 1.4392399787902832 -1.2673900127410889 -0.0 0.0 -1.0
1.3211499452590942 1.4392399787902832 1.8280500173568726 -0.0 0.0 1.0
1.3040000200271606 1.4205199480056763 1.8280500173568726 -0.6755882501602173 -0.7372661232948303 -0.0
1.3040000200271606 1.4205199480056763 -1.2673900127410889 -0.0 0.0 -1.0
1.050860047340393 1.646630048751831 -1.2673900127410889 -0.0 0.0 -0.999969482421875
1.050860047340393 1.646630048751831 1.8280500173568726 -0.0 0.0 1.0
1.0372200012207031 1.6252199411392212 1.8280500173568726 -0.5372783541679382 -0.843379020690918 -0.0
1.0372200012207031 1.6252199411392212 -1.2673900127410889 -0.0 0.0 -1.0
0.7486709952354431 1.8039499521255493 -1.2673900127410889 -0.0 0.0 -0.999969482421875
0.7486709952354431 1.8039499521255493 1.8280500173568726 -0.0 0.0 0.999969482421875
0.7389580011367798 1.7804900407791138 1.8280500173568726 -0.382671594619751 -0.9238563179969788 -0.0
0.7389580011367798 1.7804900407791138 -1.2673900127410889 -0.0 0.0 -1.0
0.4237540066242218 1.9063899517059326 -1.2673900127410889 -0.0 0.0 -1.0
0.4237540066242218 1.9063899517059326 -1.2673900127410889 -0.9762871265411377 0.21634571254253387 -0.0
0.4237540066242218 1.9063899517059326 1.8280500173568726 -0.0 0.0 1.0
0.4237540066242218 1.9063899517059326 1.8280500173568726 -0.9762871265411377 0.21634571254253387 -0.0
0.41826000809669495 1.881600022315979 1.8280500173568726 -0.3006683588027954 -0.9537034034729004 -0.0
0.41826000809669495 1.881600022315979 1.8280500173568726 -0.9762871265411377 0.21634571254253387 -0.0
0.41826000809669495 1.881600022315979 -1.2673900127410889 -0.0 0.0 -1.0
0.41826000809669495 1.881600022315979 -1.2673900127410889 -0.9762871265411377 0.21634571254253387 -0.0
0 4 5
0 5 1
28 35 6
28 6 2
30 36 7
30 7 3
32 37 34
32 34 26
4 8 9
4 9 5
35 39 10
35 10 6
36 40 11
36 11 7
37 41 38
37 38 34
8 12 13
8 13 9
39 43 14
39 14 10
40 44 15
40 15 11
41 45 42
41 42 38
12 16 17
12 17 13
43 47 18
43 18 14
44 48 19
44 19 15
45 49 46
45 46 42
16 20 21
16 21 17
47 52 22
47 22 18
48 54 23
48 23 19
49 56 50
49 50 46
24 27 29
24 29 31
24 31 33
24 33 27
25 53 51
25 55 53
25 57 55
25 51 57
MATERIALS 2
Mtl #6
Mtl #4
MATERIAL Mtl #6
0.0 0.9137259721755981 0.062745101749897 1.0
0.0 0.9137259721755981 0.062745101749897 1.0
0.8999999761581421 0.8999999761581421 0.8999999761581421 1.0 1
0.0 0.29740899150537814 0.020422925473932985 1.0
MATERIAL Mtl #4
0.749019980430603 0.749019980430603 0.749019980430603 1.0
0.749019980430603 0.749019980430603 0.749019980430603 1.0
0.556863009929657 0.556863009929657 0.556863009929657 1.0 8
0.0 0.0 0.0 1.0
TEXTURES 0
