MSHX1
GROUPS 2
LABEL ORBGroup1
MATERIAL 1
TEXTURE 0
GEOM 58 48
-1.732890009880066 -0.9042159914970398 -1.2673900127410889 -0.843379020690918 -0.5372478365898132 -0.0
-1.732890009880066 -0.9042159914970398 2.73088002204895 -0.843379020690918 -0.5372478365898132 -0.0
-1.710379958152771 -0.8924959897994995 2.73088002204895 -0.0 0.0 1.0
-1.710379958152771 -0.8924959897994995 -1.2673900127410889 0.843379020690918 0.5372783541679382 -0.0
-1.5498499870300293 -1.1915500164031982 -1.2673900127410889 -0.7933286428451538 -0.6087527275085449 -0.0
-1.5498499870300293 -1.1915500164031982 2.73088002204895 -0.7933286428451538 -0.6087527275085449 -0.0
-1.529710054397583 -1.1761000156402588 2.73088002204895 -0.0 0.0 1.0
-1.529710054397583 -1.1761000156402588 -1.2673900127410889 0.7933286428451538 0.6087527275085449 -0.0
-1.3196799755096436 -1.4427200555801392 -1.2673900127410889 -0.6755577325820923 -0.7372661232948303 -0.0
-1.3196799755096436 -1.4427200555801392 2.73088002204895 -0.6755577325820923 -0.7372661232948303 -0.0
-1.30253005027771 -1.4240100383758545 2.73088002204895 -0.0 0.0 1.0
-1.30253005027771 -1.4240100383758545 -1.2673900127410889 0.6755577325820923 0.7372661232948303 -0.0
-1.049399971961975 -1.6501200199127197 -1.2673900127410889 -0.5372783541679382 -0.843379020690918 -0.0
-1.049399971961975 -1.6501200199127197 2.73088002204895 -0.5372783541679382 -0.843379020690918 -0.0
-1.0357600450515747 -1.6287100315093994 2.73088002204895 -0.0 0.0 1.0
-1.0357600450515747 -1.6287100315093994 -1.2673900127410889 0.5373088717460632 0.843379020690918 -0.0
-0.7472079992294312 -1.8074300289154053 -1.2673900127410889 -0.382671594619751 -0.9238563179969788 -0.0
-0.7472079992294312 -1.8074300289154053 2.73088002204895 -0.382671594619751 -0.9238563179969788 -0.0
-0.7374950051307678 -1.7839900255203247 2.73088002204895 -0.0 0.0 1.0
-0.7374950051307678 -1.7839900255203247 -1.2673900127410889 0.382671594619751 0.9238563179969788 -0.0
-0.42229101061820984 -1.9098800420761108 -1.2673900127410889 -0.3006988763809204 -0.9537034034729004 -0.0
-0.42229101061820984 -1.9098800420761108 2.73088002204895 -0.3006988763809204 -0.9537034034729004 -0.0
-0.4167979955673218 -1.88510000705719 2.73088002204895 -0.0 0.0 0.999969482421875
-0.4167979955673218 -1.88510000705719 -1.2673900127410889 0.3006683588027954 0.9537034034729004 -0.0
-1.7216399908065796 -0.898356020450592 0.7317410111427307 -0.4618060886859894 0.886959433555603 -0.0
-0.4195440113544464 -1.8974900245666504 0.7317410111427307 0.9762871265411377 -0.21640674769878387 -0.0
-1.732890009880066 -0.9042159914970398 -1.2673900127410889 -0.0 0.0 -1.0
-1.732890009880066 -0.9042159914970398 -1.2673900127410889 -0.4618060886859894 0.886959433555603 -0.0
-1.732890009880066 -0.9042159914970398 2.73088002204895 -0.0 0.0 0.999969482421875
-1.732890009880066 -0.9042159914970398 2.73088002204895 -0.4618060886859894 0.886959433555603 -0.0
-1.710379958152771 -0.8924959897994995 2.73088002204895 0.843379020690918 0.5372783541679382 -0.0
-1.710379958152771 -0.8924959897994995 2.73088002204895 -0.4618060886859894 0.886959433555603 -0.0
-1.710379958152771 -0.8924959897994995 -1.2673900127410889 -0.0 0.0 -0.999969482421875
-1.710379958152771 -0.8924959897994995 -1.2673900127410889 -0.4618060886859894 0.886959433555603 -0.0
-1.5498499870300293 -1.1915500164031982 -1.2673900127410889 -0.0 0.0 -1.0
-1.5498499870300293 -1.1915500164031982 2.73088002204895 -0.0 0.0 1.0
-1.529710054397583 -1.1761000156402588 2.73088002204895 0.7933286428451538 0.6087527275085449 -0.0
-1.529710054397583 -1.1761000156402588 -1.2673900127410889 -0.0 0.0 -0.999969482421875
-1.3196799755096436 -1.4427200555801392 -1.2673900127410889 -0.0 0.0 -1.0
-1.3196799755096436 -1.4427200555801392 2.73088002204895 -0.0 0.0 1.0
-1.30253005027771 -1.4240100383758545 2.73088002204895 0.6755577325820923 0.7372661232948303 -0.0
-1.30253005027771 -1.4240100383758545 -1.2673900127410889 -0.0 0.0 -1.0
-1.049399971961975 -1.6501200199127197 -1.2673900127410889 -0.0 0.0 -1.0
-1.049399971961975 -1.6501200199127197 2.73088002204895 -0.0 0.0 1.0
-1.0357600450515747 -1.6287100315093994 2.73088002204895 0.5373088717460632 0.843379020690918 -0.0
-1.0357600450515747 -1.6287100315093994 -1.2673900127410889 -0.0 0.0 -0.999969482421875
-0.7472079992294312 -1.8074300289154053 -1.2673900127410889 -0.0 0.0 -1.0
-0.7472079992294312 -1.8074300289154053 2.73088002204895 -0.0 0.0 1.0
-0.7374950051307678 -1.7839900255203247 2.73088002204895 0.382671594619751 0.9238563179969788 -0.0
-0.7374950051307678 -1.7839900255203247 -1.2673900127410889 -0.0 0.0 -1.0
-0.42229101061820984 -1.9098800420761108 -1.2673900127410889 -0.0 0.0 -1.0
-0.42229101061820984 -1.9098800420761108 -1.2673900127410889 0.9762871265411377 -0.21640674769878387 -0.0
-0.42229101061820984 -1.9098800420761108 2.73088002204895 -0.0 0.0 1.0
-0.42229101061820984 -1.9098800420761108 2.73088002204895 0.9762871265411377 -0.21640674769878387 -0.0
-0.4167979955673218 -1.88510000705719 2.73088002204895 0.3006683588027954 0.9537034034729004 -0.0
-0.4167979955673218 -1.88510000705719 2.73088002204895 0.9762871265411377 -0.21640674769878387 -0.0
-0.4167979955673218 -1.88510000705719 -1.2673900127410889 -0.0 0.0 -1.0
-0.4167979955673218 -1.88510000705719 -1.2673900127410889 0.9762871265411377 -0.21640674769878387 -0.0
0 4 5
0 5 1
28 35 6
28 6 2
30 36 7
30 7 3
32 37 34
32 34 26
4 8 9
4 9 5
35 39 10
35 10 6
36 40 11
36 11 7
37 41 38
37 38 34
8 12 13
8 13 9
39 43 14
39 14 10
40 44 15
40 15 11
41 45 42
41 42 38
12 16 17
12 17 13
43 47 18
43 18 14
44 48 19
44 19 15
45 49 46
45 46 42
16 20 21
16 21 17
47 52 22
47 22 18
48 54 23
48 23 19
49 56 50
49 50 46
24 27 29
24 29 31
24 31 33
24 33 27
25 53 51
25 55 53
25 57 55
25 51 57
LABEL ORBGroup2
MATERIAL 2
TEXTURE 0
GEOM 24 12
-1.5178333520889282 -1.255656123161316 -1.1527005434036255 -0.6439710855484009 0.765007495880127 -0.0
-1.4985991716384888 -1.2394649982452393 -1.1527005434036255 -0.6439710855484009 0.765007495880127 -0.0
-1.5178333520889282 -1.255656123161316 -1.1988104581832886 -0.6439710855484009 0.765007495880127 -0.0
-1.4985991716384888 -1.2394649982452393 -1.1988104581832886 -0.6439710855484009 0.765007495880127 -0.0
-1.4940283298492432 -1.2838736772537231 -1.152700424194336 0.6443372964859009 -0.764732837677002 -0.0
-1.4748139381408691 -1.2676844596862793 -1.152700424194336 0.6443372964859009 -0.764732837677002 -0.0
-1.4940283298492432 -1.2838736772537231 -1.198810338973999 0.6443372964859009 -0.764732837677002 -0.0
-1.4748139381408691 -1.2676844596862793 -1.198810338973999 0.6443372964859009 -0.764732837677002 -0.0
-1.5178333520889282 -1.255656123161316 -1.1527005434036255 -0.0 0.0 0.999969482421875
-1.5178333520889282 -1.255656123161316 -1.1527005434036255 -0.7643360495567322 -0.6447950601577759 -0.0
-1.4985991716384888 -1.2394649982452393 -1.1527005434036255 -0.0 0.0 1.0
-1.4985991716384888 -1.2394649982452393 -1.1527005434036255 0.7646107077598572 0.6444593667984009 -0.0
-1.5178333520889282 -1.255656123161316 -1.1988104581832886 -0.0 0.0 -0.999969482421875
-1.5178333520889282 -1.255656123161316 -1.1988104581832886 -0.7643360495567322 -0.6447950601577759 -0.0
-1.4985991716384888 -1.2394649982452393 -1.1988104581832886 0.7646107077598572 0.6444593667984009 -0.0
-1.4985991716384888 -1.2394649982452393 -1.1988104581832886 -0.0 0.0 -1.0
-1.4940283298492432 -1.2838736772537231 -1.152700424194336 -0.0 0.0 0.999969482421875
-1.4940283298492432 -1.2838736772537231 -1.152700424194336 -0.7643360495567322 -0.6447950601577759 -0.0
-1.4748139381408691 -1.2676844596862793 -1.152700424194336 -0.0 0.0 1.0
-1.4748139381408691 -1.2676844596862793 -1.152700424194336 0.7646107077598572 0.6444593667984009 -0.0
-1.4940283298492432 -1.2838736772537231 -1.198810338973999 -0.0 0.0 -0.999969482421875
-1.4940283298492432 -1.2838736772537231 -1.198810338973999 -0.7643360495567322 -0.6447950601577759 -0.0
-1.4748139381408691 -1.2676844596862793 -1.198810338973999 0.7646107077598572 0.6444593667984009 -0.0
-1.4748139381408691 -1.2676844596862793 -1.198810338973999 -0.0 0.0 -1.0
22 11 19
11 22 14
0 3 2
3 0 1
20 15 23
15 20 12
18 8 16
8 18 10
7 4 6
4 7 5
17 13 21
13 17 9
MATERIALS 2
Mtl #4
Mtl #8
MATERIAL Mtl #4
0.749019980430603 0.749019980430603 0.749019980430603 1.0
0.749019980430603 0.749019980430603 0.749019980430603 1.0
0.556863009929657 0.556863009929657 0.556863009929657 1.0 8
0.0 0.0 0.0 1.0
MATERIAL Mtl #8
1.0 0.9803919792175293 0.4352940022945404 1.0
1.0 0.9803919792175293 0.4352940022945404 1.0
0.8999999761581421 0.8999999761581421 0.8999999761581421 1.0 1
0.8052286505699158 0.7894397104549 0.3505112020688106 1.0
TEXTURES 0
