MSHX1
GROUPS 1
LABEL Group0
MATERIAL 1
TEXTURE 1
GEOM 436 282
0.6338450908660889 1.7296290397644043 -0.25033217668533325 -0.1821039468050003 0.7041841149330139 0.6862391829490662 0.9808859825134277 0.9833269994705915
0.8097421526908875 1.6707558631896973 -0.25033217668533325 0.5693227648735046 0.4526810646057129 0.6862391829490662 0.4134739935398102 0.9833269994705915
0.8976905941963196 1.6413193941116333 -0.4109678566455841 0.9450361728668213 0.3269447982311249 -0.0 0.5269560217857361 0.9833269994705915
0.8097422122955322 1.6707559823989868 -0.5716097950935364 0.5693227648735046 0.4526810646057129 -0.6862391829490662 0.640438973903656 0.9833269994705915
0.6338450908660889 1.7296290397644043 -0.5716097950935364 -0.1821039468050003 0.7041841149330139 -0.6862391829490662 0.7539209723472595 0.9833269994705915
0.30833685398101807 1.0493018627166748 -0.41096800565719604 -0.9450361728668213 -0.3269447982311249 -0.0 0.867402970790863 0.3613319993019104
0.3962857723236084 1.0198651552200317 -0.2503323256969452 -0.5693227648735046 -0.4526810646057129 0.6862391829490662 0.9808859825134277 0.3613319993019104
0.572182834148407 0.9609920978546143 -0.2503322958946228 0.1821039468050003 -0.7041841149330139 0.6862391829490662 0.4134739935398102 0.3613319993019104
0.6601312756538391 0.9315555691719055 -0.41096797585487366 0.5578173398971558 -0.8299508690834045 -0.0 0.5269560217857361 0.3613319993019104
0.5721828937530518 0.960992157459259 -0.5716099143028259 0.1821039468050003 -0.7041841149330139 -0.6862391829490662 0.640438973903656 0.3613319993019104
0.3962857723236084 1.0198652744293213 -0.5716099143028259 -0.5693227648735046 -0.4526810646057129 -0.6862391829490662 0.7539209723472595 0.3613319993019104
0.7597401738166809 1.7251657247543335 -0.2853890359401703 0.8362987041473389 0.4846644401550293 -0.2562639117240906 0.1466740071773529 0.17294299602508545
0.748400866985321 1.6912869215011597 -0.32961201667785645 0.6031067967414856 0.5509811639785767 -0.5767387747764587 0.22346000373363495 0.13354802131652832
0.6951863765716553 1.709097981452942 -0.32961201667785645 -0.1498764008283615 0.8030335307121277 -0.5767387747764587 0.22346000373363495 0.31179600954055786
0.7065256834030151 1.7429766654968262 -0.2853890359401703 -0.37601855397224426 0.8904385566711426 -0.2562639117240906 0.1466740071773529 0.27285701036453247
0.7597401738166809 1.7251657247543335 -0.25031334161758423 0.730735182762146 0.3642384111881256 0.5773491859436035 0.08606600016355515 0.17290401458740234
0.7065256834030151 1.7429766654968262 -0.25031334161758423 -0.3642384111881256 0.730735182762146 0.5773491859436035 0.08606600016355515 0.27306801080703735
0.6951863765716553 1.7090978622436523 -0.25031334161758423 -0.670522153377533 0.22440260648727417 0.7070833444595337 0.08576030284166336 0.31179600954055786
0.748400866985321 1.6912869215011597 -0.25031334161758423 0.670522153377533 -0.22443312406539917 0.7070833444595337 0.08576030284166336 0.13354802131652832
0.49432241916656494 1.0697516202926636 -0.38246971368789673 -0.2454298585653305 0.08212530612945557 0.9659108519554138 0.7530710101127625 0.11207902431488037
0.5476840734481812 1.0518913269042969 -0.4149569869041443 0.9159520268440247 -0.30655843019485474 0.25879696011543274 0.7530710101127625 0.15833497047424316
0.5298968553543091 1.0578447580337524 -0.44744426012039185 0.2454298585653305 -0.08212530612945557 -0.9659108519554138 0.7530710101127625 0.18146300315856934
0.47653496265411377 1.0757051706314087 -0.4149569869041443 -0.9159520268440247 0.30655843019485474 -0.25879696011543274 0.7530710101127625 0.2277190089225769
0.3663473427295685 0.7464938759803772 -0.41495704650878906 -0.9159520268440247 0.30655843019485474 -0.25879696011543274 0.9796350002288818 0.2277190089225769
0.38413476943969727 0.7405403852462769 -0.3824697732925415 -0.2454298585653305 0.08212530612945557 0.9659108519554138 0.9796350002288818 0.11207902431488037
0.43749645352363586 0.7226801514625549 -0.41495704650878906 0.9159520268440247 -0.30655843019485474 0.25879696011543274 0.9796350002288818 0.15833497047424316
0.4197092056274414 0.7286335825920105 -0.4474443197250366 0.2454298585653305 -0.08212530612945557 -0.9659108519554138 0.9796350002288818 0.18146300315856934
0.3546256422996521 0.79512619972229 -0.4149570167064667 -0.5578173398971558 0.8299508690834045 -0.0 0.19717399775981903 0.9214550033211708
0.3850020468235016 0.7849591374397278 -0.3594735264778137 -0.1821039468050003 0.7041841149330139 0.6862391829490662 0.19717399775981903 0.9773210007697344
0.3579258620738983 0.7040627598762512 -0.3594735264778137 -0.5693227648735046 -0.4526810646057129 0.6862391829490662 0.2785109877586365 0.9773210007697344
0.32754945755004883 0.7142298221588135 -0.41495704650878906 -0.9450361728668213 -0.3269447982311249 -0.0 0.2785109877586365 0.9214550033211708
0.4457553029060364 0.7646249532699585 -0.3594735264778137 0.5693227648735046 0.4526810646057129 0.6862391829490662 0.19717399775981903 0.6979910135269165
0.4186791181564331 0.6837285757064819 -0.3594735264778137 0.1821039468050003 -0.7041841149330139 0.6862391829490662 0.2785109877586365 0.6979910135269165
0.4761319160461426 0.7544578313827515 -0.4149570167064667 0.9450361728668213 0.3269447982311249 -0.0 0.19717399775981903 0.7538570016622543
0.4490557312965393 0.6735614538192749 -0.41495704650878906 0.5578173398971558 -0.8299508690834045 -0.0 0.017274299636483192 0.9406349994242191
0.4457553029060364 0.7646249532699585 -0.47044047713279724 0.5693227648735046 0.4526810646057129 -0.6862391829490662 0.19717399775981903 0.8097230046987534
0.4186791181564331 0.6837285757064819 -0.47044050693511963 0.1821039468050003 -0.7041841149330139 -0.6862391829490662 0.03254169970750809 0.9682679995894432
0.3850020468235016 0.7849591374397278 -0.47044047713279724 -0.1821039468050003 0.7041841149330139 -0.6862391829490662 0.19717399775981903 0.8655889928340912
0.3579258620738983 0.7040627598762512 -0.47044050693511963 -0.5693227648735046 -0.4526810646057129 -0.6862391829490662 0.06307650357484818 0.9682679995894432
0.35377687215805054 1.0458027124404907 -0.4139816164970398 -0.9482711553573608 0.317392498254776 -0.0 0.8671820163726807 0.3210369944572449
0.39321884512901306 1.0326014757156372 -0.3135685920715332 -0.670522153377533 0.22440260648727417 0.7070833444595337 0.9229559898376465 0.3210369944572449
0.48843997716903687 1.0007307529449463 -0.27197790145874023 -0.0 0.0 1.0 0.9787300229072571 0.3210369944572449
0.5836612582206726 0.9688600301742554 -0.3135685920715332 0.670522153377533 -0.22440260648727417 0.7070833444595337 0.5883110165596008 0.3210369944572449
0.6231026649475098 0.9556589126586914 -0.4139816164970398 0.9482711553573608 -0.317392498254776 -0.0 0.6440849900245667 0.3210369944572449
0.5836612582206726 0.9688600301742554 -0.5143945217132568 0.670552670955658 -0.22443312406539917 -0.7070833444595337 0.6998590230941772 0.3210369944572449
0.48844000697135925 1.0007307529449463 -0.555991530418396 -0.0 0.0 -1.0 0.7556340098381042 0.3210369944572449
0.39321887493133545 1.0326014757156372 -0.5143945217132568 -0.670552670955658 0.22443312406539917 -0.7070833444595337 0.8114079833030701 0.3210369944572449
0.3364483714103699 0.9940298795700073 -0.4139816164970398 -0.9362773299217224 -0.35123753547668457 -0.0 0.8671820163726807 0.2716060280799866
0.3758903741836548 0.9808286428451538 -0.3135686218738556 -0.7206335663795471 -0.42341381311416626 0.5489669442176819 0.9229559898376465 0.2716060280799866
0.471111536026001 0.9489578604698181 -0.2719779312610626 -0.20001831650733948 -0.5976744890213013 0.7763603329658508 0.9787300229072571 0.2716060280799866
0.5663327574729919 0.917087197303772 -0.3135686218738556 0.32053589820861816 -0.7719046473503113 0.5489669442176819 0.5883110165596008 0.2716060280799866
0.6057741641998291 0.903886079788208 -0.4139816164970398 0.5361797213554382 -0.844080924987793 -0.0 0.6440849900245667 0.2716060280799866
0.5663328170776367 0.917087197303772 -0.5143945813179016 0.32056641578674316 -0.7719046473503113 -0.5489669442176819 0.6998590230941772 0.2716060280799866
0.471111536026001 0.9489579200744629 -0.555991530418396 -0.20001831650733948 -0.5976439714431763 -0.7763603329658508 0.7556340098381042 0.2716060280799866
0.3758903741836548 0.9808286428451538 -0.5143945813179016 -0.7206335663795471 -0.42341381311416626 -0.5489669442176819 0.8114079833030701 0.2716060280799866
0.347175270318985 0.9904395937919617 -0.4139816164970398 0.3083895444869995 -0.9512314200401306 -0.0 0.10579100251197815 0.5558919906616211
0.3834754228591919 0.9782898426055908 -0.3215716481208801 0.143314927816391 -0.8959929347038269 -0.4202703833580017 0.04816779866814613 0.5780290067195892
0.471111536026001 0.9489578604698181 -0.28328850865364075 -0.2552262842655182 -0.7625964879989624 -0.5943479537963867 0.024299299344420433 0.6314719915390015
0.5587478280067444 0.9196258783340454 -0.3215716481208801 -0.6537980437278748 -0.6291695833206177 -0.4202703833580017 0.04816779866814613 0.6849150061607361
0.5950478911399841 0.9074761867523193 -0.4139816164970398 -0.8188726305961609 -0.573931097984314 -0.0 0.10579100251197815 0.7070519924163818
0.5587477684020996 0.9196258783340454 -0.5063977837562561 -0.6537980437278748 -0.6292001008987427 0.4202703833580017 0.16341499984264374 0.6849150061607361
0.471111536026001 0.9489579200744629 -0.5446810126304626 -0.2552262842655182 -0.7625964879989624 0.5943479537963867 0.18728399276733398 0.6314719915390015
0.3834754228591919 0.9782899022102356 -0.5063977837562561 0.143314927816391 -0.8959929347038269 0.4202703833580017 0.16341499984264374 0.5780290067195892
0.3719574213027954 1.0644819736480713 -0.4139816164970398 0.9482711553573608 -0.317392498254776 -0.0 0.8671820163726807 0.3422960042953491
0.4082575738430023 1.0523322820663452 -0.3215716481208801 0.670522153377533 -0.22443312406539917 -0.7070833444595337 0.9229559898376465 0.3422960042953491
0.495893657207489 1.0230002403259277 -0.28328847885131836 -0.0 0.0 -1.0 0.9787300229072571 0.3422960042953491
0.5835300087928772 0.993668258190155 -0.3215716481208801 -0.670522153377533 0.22443312406539917 -0.7070833444595337 0.5883110165596008 0.3422960042953491
0.6198300123214722 0.981518566608429 -0.4139815866947174 -0.9482711553573608 0.317392498254776 -0.0 0.6440849900245667 0.3422960042953491
0.5835299491882324 0.9936683177947998 -0.5063977837562561 -0.670552670955658 0.22443312406539917 0.7070833444595337 0.6998590230941772 0.3422960042953491
0.4958936870098114 1.0230003595352173 -0.5446809530258179 -0.0 0.0 0.999969482421875 0.7556340098381042 0.3422960042953491
0.4082575738430023 1.0523322820663452 -0.5063977837562561 0.670552670955658 -0.22443312406539917 0.7070833444595337 0.8114079833030701 0.3422960042953491
0.7901831865310669 1.6567577123641968 -0.5695152878761292 0.8949552774429321 0.4460890591144562 -0.0 0.0076025198213756084 0.4791100025177002
0.72712242603302 1.6778643131256104 -0.5695152878761292 -0.4460890591144562 0.8949552774429321 -0.0 0.18985100090503693 0.4791100025177002
0.7618548274040222 1.572120189666748 -0.5695152878761292 0.4460890591144562 -0.8949552774429321 -0.0 0.050633400678634644 0.33781301975250244
0.6987940669059753 1.5932267904281616 -0.5695152878761292 -0.8949552774429321 -0.4460890591144562 -0.0 0.18985100090503693 0.3920130133628845
0.7901831865310669 1.6567577123641968 -0.5992640256881714 0.730735182762146 0.3642384111881256 -0.5773491859436035 0.050633400678634644 0.4791100025177002
0.72712242603302 1.6778643131256104 -0.5992640256881714 -0.3642384111881256 0.730735182762146 -0.5773491859436035 0.14681999385356903 0.4791100025177002
0.7618548274040222 1.572120189666748 -0.5992640256881714 0.3642384111881256 -0.730735182762146 -0.5773491859436035 0.050633400678634644 0.3920130133628845
0.6987940669059753 1.5932267904281616 -0.5992640256881714 -0.730735182762146 -0.3642384111881256 -0.5773491859436035 0.14681999385356903 0.3920130133628845
0.7013886570930481 1.6864774227142334 -0.5992640256881714 0.730735182762146 0.3642384111881256 -0.5773491859436035 0.050633400678634644 0.4791100025177002
0.6383278965950012 1.707584023475647 -0.5992640256881714 -0.3642384111881256 0.730735182762146 -0.5773491859436035 0.14681999385356903 0.4791100025177002
0.6099995374679565 1.6229465007781982 -0.5992640256881714 -0.730735182762146 -0.3642384111881256 -0.5773491859436035 0.14681999385356903 0.3920130133628845
0.6730603575706482 1.6018399000167847 -0.5992640256881714 0.3642384111881256 -0.730735182762146 -0.5773491859436035 0.050633400678634644 0.3920130133628845
0.7013886570930481 1.6864774227142334 -0.5695152878761292 0.8949552774429321 0.4460890591144562 -0.0 0.050633400678634644 0.5333099961280823
0.6383278965950012 1.707584023475647 -0.5695152878761292 -0.4460890591144562 0.8949552774429321 -0.0 0.14681999385356903 0.5333099961280823
0.6099995374679565 1.6229465007781982 -0.5695152878761292 -0.8949552774429321 -0.4460890591144562 -0.0 0.18985100090503693 0.3920130133628845
0.6730603575706482 1.6018399000167847 -0.5695152878761292 0.4460890591144562 -0.8949552774429321 -0.0 0.050633400678634644 0.33781301975250244
0.8295623660087585 1.6435773372650146 -0.2506135106086731 0.38355663418769836 0.48042237758636475 0.7886898517608643 0.050633400678634644 0.4791100025177002
0.8610932230949402 1.633023977279663 -0.3082040548324585 0.9311197400093079 0.29715871810913086 -0.21131016314029694 0.14681999385356903 0.4791100025177002
0.8327648639678955 1.5483863353729248 -0.3082040846347809 0.5646229386329651 -0.7978148460388184 -0.21131016314029694 0.14681999385356903 0.3920130133628845
0.8012340664863586 1.558939814567566 -0.2506135106086731 0.017059847712516785 -0.6145207285881042 0.7886898517608643 0.050633400678634644 0.3920130133628845
0.8051308393478394 1.65175461769104 -0.26549404859542847 -0.110904261469841 0.7827997803688049 0.6122623085975647 0.0076025198213756084 0.4791100025177002
0.8366612792015076 1.641201376914978 -0.3230784237384796 0.5596789717674255 0.5583361387252808 -0.6123539209365845 0.18985100090503693 0.4791100025177002
0.8083329200744629 1.5565638542175293 -0.3230784237384796 0.110812708735466 -0.7827387452125549 -0.6123539209365845 0.18985100090503693 0.3920130133628845
0.7768024802207947 1.5671170949935913 -0.26549407839775085 -0.5598010420799255 -0.5583056211471558 0.6122623085975647 0.050633400678634644 0.33781301975250244
0.8739598989486694 1.6287174224853516 -0.33170658349990845 0.38364818692207336 0.48039186000823975 0.7886593341827393 0.050633400678634644 0.4791100025177002
0.9054901003837585 1.618164300918579 -0.38929715752601624 0.9311197400093079 0.29715871810913086 -0.21131016314029694 0.14681999385356903 0.4791100025177002
0.8771617412567139 1.5335266590118408 -0.38929715752601624 0.5646229386329651 -0.7978148460388184 -0.21131016314029694 0.14681999385356903 0.3920130133628845
0.8456315398216248 1.5440798997879028 -0.33170661330223083 0.017151402309536934 -0.6145512461662292 0.7886593341827393 0.050633400678634644 0.3920130133628845
0.8495279550552368 1.636894941329956 -0.34658101201057434 -0.110812708735466 0.7827387452125549 0.6123539209365845 0.050633400678634644 0.5333099961280823
0.8810582160949707 1.6263415813446045 -0.40417149662971497 0.5596789717674255 0.5583056211471558 -0.6123539209365845 0.14681999385356903 0.5333099961280823
0.852729856967926 1.5417041778564453 -0.40417152643203735 0.110812708735466 -0.7827387452125549 -0.6123539209365845 0.18985100090503693 0.3920130133628845
0.8211996555328369 1.5522572994232178 -0.34658101201057434 -0.5596789717674255 -0.5583056211471558 0.6123539209365845 0.050633400678634644 0.33781301975250244
0.5248193740844727 1.7455754280090332 -0.381994366645813 -0.5646229386329651 0.7978148460388184 -0.21131016314029694 0.050633400678634644 0.4791100025177002
0.556349515914917 1.7350223064422607 -0.32440394163131714 -0.017151402309536934 0.6145512461662292 0.7886593341827393 0.14681999385356903 0.4791100025177002
0.5280212163925171 1.6503846645355225 -0.32440394163131714 -0.38364818692207336 -0.48042237758636475 0.7886593341827393 0.14681999385356903 0.3920130133628845
0.496491014957428 1.660938024520874 -0.3819943964481354 -0.9311197400093079 -0.29715871810913086 -0.21131016314029694 0.050633400678634644 0.3920130133628845
0.5492512583732605 1.7373980283737183 -0.3968687951564789 -0.110812708735466 0.7827387452125549 -0.6123539209365845 0.050633400678634644 0.5333099961280823
0.5807814598083496 1.7268447875976562 -0.3392782211303711 0.5596789717674255 0.5583056211471558 0.6123539209365845 0.14681999385356903 0.5333099961280823
0.5524531006813049 1.642207384109497 -0.3392782509326935 0.110812708735466 -0.7827387452125549 0.6123539209365845 0.18985100090503693 0.3920130133628845
0.5209228992462158 1.6527605056762695 -0.3968687951564789 -0.5596789717674255 -0.5583056211471558 -0.6123539209365845 0.050633400678634644 0.33781301975250244
0.5692168474197388 1.7307155132293701 -0.30090129375457764 -0.5646229386329651 0.7978148460388184 -0.21131016314029694 0.050633400678634644 0.4791100025177002
0.6007470488548279 1.720162272453308 -0.24331073462963104 -0.017151402309536934 0.6145512461662292 0.7886593341827393 0.14681999385356903 0.4791100025177002
0.5724186897277832 1.6355247497558594 -0.24331074953079224 -0.38364818692207336 -0.48042237758636475 0.7886593341827393 0.14681999385356903 0.3920130133628845
0.5408878922462463 1.6460782289505005 -0.30090129375457764 -0.9311197400093079 -0.29715871810913086 -0.21131016314029694 0.050633400678634644 0.3920130133628845
0.5936481356620789 1.7225383520126343 -0.31577563285827637 -0.110812708735466 0.7827387452125549 -0.6123539209365845 0.050633400678634644 0.5333099961280823
0.6251789331436157 1.7119848728179932 -0.25818508863449097 0.5596789717674255 0.5583056211471558 0.6123539209365845 0.14681999385356903 0.5333099961280823
0.5968500375747681 1.6273475885391235 -0.25818508863449097 0.110812708735466 -0.7827387452125549 0.6123539209365845 0.18985100090503693 0.3920130133628845
0.565319836139679 1.6379008293151855 -0.31577566266059875 -0.5596789717674255 -0.5583056211471558 -0.6123539209365845 0.050633400678634644 0.33781301975250244
0.8248651623725891 1.7033683061599731 -0.4943549335002899 -0.28342539072036743 0.8594317436218262 -0.42542803287506104 0.1466740071773529 0.17294299602508545
0.8514723777770996 1.694462776184082 -0.44575533270835876 0.32273322343826294 0.6565141677856445 0.6817224621772766 0.1466740071773529 0.27285701036453247
0.8038175702095032 1.6727389097213745 -0.42364701628685 -0.05880916863679886 0.772515058517456 0.6322519779205322 0.22346000373363495 0.2734609842300415
0.7772104740142822 1.681644320487976 -0.47224661707878113 -0.4353465437889099 0.8985259532928467 -0.0554826483130455 0.22346000373363495 0.17279702425003052
0.8536744713783264 1.693725824356079 -0.5118928551673889 0.38364818692207336 0.48042237758636475 -0.7886593341827393 0.08606600016355515 0.17290401458740234
0.8423351645469666 1.6598470211029053 -0.5118928551673889 0.2454298585653305 -0.08212530612945557 -0.9659108519554138 0.08576030284166336 0.13354802131652832
0.8689418435096741 1.6509416103363037 -0.4632995128631592 0.9159825444221497 -0.30658894777297974 0.25876644253730774 0.08576030284166336 0.31179600954055786
0.8802811503410339 1.6848204135894775 -0.4632994830608368 0.9311502575874329 0.29715871810913086 0.21124912798404694 0.08606600016355515 0.27306801080703735
0.6158068180084229 1.7733404636383057 -0.4466058015823364 0.13724173605442047 0.7184667587280273 0.6818445324897766 0.1466740071773529 0.17294299602508545
0.6424141526222229 1.764435052871704 -0.4952054023742676 0.7437360882759094 0.5157017707824707 -0.42527541518211365 0.1466740071773529 0.27285701036453247
0.6673904061317444 1.718401312828064 -0.473097026348114 0.8885158896446228 0.45545822381973267 -0.0554216131567955 0.22346000373363495 0.2734609842300415
0.6407830715179443 1.727306842803955 -0.42449742555618286 0.5119479894638062 0.5814691781997681 0.6322519779205322 0.22346000373363495 0.17279702425003052
0.5865169167518616 1.7831438779830933 -0.46445295214653015 -0.5646534562110901 0.7978148460388184 0.21124912798404694 0.08606600016355515 0.17290401458740234
0.5751776099205017 1.749265193939209 -0.46445295214653015 -0.9159825444221497 0.30655843019485474 0.25873592495918274 0.04840109869837761 0.17282599210739136
0.6017849445343018 1.7403596639633179 -0.5130525827407837 -0.2452772557735443 0.08215582370758057 -0.9659413695335388 0.04840109869837761 0.2734900116920471
0.6131242513656616 1.7742383480072021 -0.5130525827407837 -0.016998808830976486 0.6144902110099792 -0.7887203693389893 0.08606600016355515 0.27306801080703735
0.5458961725234985 1.7590656280517578 -0.4109678566455841 -0.5578173398971558 0.8299508690834045 -0.0 0.867402970790863 0.9833269994705915
0.5735689401626587 1.7624361515045166 -0.4817522168159485 -0.5663625001907349 0.7892391681671143 0.2372203767299652 0.9780709743499756 0.06958669424057007
0.3322432041168213 1.0414198637008667 -0.4817524552345276 -0.6975310444831848 0.6834925413131714 0.2150334119796753 0.04369639977812767 0.06958681344985962
0.3409295678138733 1.0384399890899658 -0.49865487217903137 -0.14551225304603577 0.4980315566062927 -0.8548234701156616 0.04217519983649254 0.01790088415145874
0.58244389295578 1.7600198984146118 -0.49865463376045227 -0.03582873195409775 0.6298409700393677 -0.7758720517158508 0.9765490293502808 0.01790088415145874
0.5851399302482605 1.7585632801055908 -0.47512298822402954 0.3982055187225342 0.4664143919944763 0.7898495197296143 0.9774900078773499 0.046465516090393066
0.5940148830413818 1.756147027015686 -0.4920254051685333 0.9239478707313538 0.3085726499557495 -0.22598956525325775 0.9774389863014221 0.03334468603134155
0.3525005578994751 1.03456711769104 -0.4920256435871124 0.9681081771850586 0.12530900537967682 -0.21680349111557007 0.04306510090827942 0.03621232509613037
0.3438141942024231 1.037546992301941 -0.47512322664260864 0.41767632961273193 0.3102206587791443 0.8539689183235168 0.04311529919505119 0.04933309555053711
0.3325357139110565 1.0206059217453003 -0.5165303945541382 -0.3237098157405853 -0.21268349885940552 -0.921933650970459 0.02780509926378727 0.10461199283599854
0.31065359711647034 1.028107762336731 -0.4739536643028259 -0.9533982276916504 0.0020447401329874992 0.3016144335269928 0.02830040082335472 0.073039710521698
0.3398130238056183 1.0183480978012085 -0.45724767446517944 0.13150425255298615 -0.36106449365615845 0.9232154488563538 0.028579499572515488 0.06057161092758179
0.36169514060020447 1.0108461380004883 -0.4998244345188141 0.7603991627693176 -0.5755485892295837 -0.3007904291152954 0.02771740034222603 0.02713257074356079
0.4511910378932953 1.4465596675872803 -0.47417697310447693 -0.5656605958938599 0.7899105548858643 0.23670156300067902 0.5178269743919373 0.3425009846687317
0.4204574227333069 1.354736089706421 -0.474176824092865 -0.9241004586219788 -0.3077181279659271 0.22653889656066895 0.5178269743919373 0.2106800079345703
0.4423935115337372 1.3486402034759521 -0.5160264372825623 -0.3986327648162842 -0.4671162962913513 -0.7892086505889893 0.43250998854637146 0.2106800079345703
0.47312498092651367 1.4404579401016235 -0.5160262584686279 -0.03588976711034775 0.6289864778518677 -0.7765740156173706 0.43250998854637146 0.3425009846687317
0.47986075282096863 1.4369637966156006 -0.4577515721321106 0.3986632823944092 0.4671468138694763 0.7891781330108643 0.31115201115608215 0.3425009846687317
0.501794695854187 1.4308621883392334 -0.4996008276939392 0.9241004586219788 0.3076570928096771 -0.22653889656066895 0.39695799350738525 0.3425009846687317
0.4710632264614105 1.339044451713562 -0.49960100650787354 0.5656911134719849 -0.7898800373077393 -0.23670156300067902 0.3958609998226166 0.21003198623657227
0.4491271376609802 1.3451403379440308 -0.45775142312049866 0.03588976711034775 -0.6290169954299927 0.7765434980392456 0.3113139867782593 0.21024799346923828
0.7348107695579529 1.7087814807891846 -0.2365414798259735 0.730185866355896 0.365611732006073 0.5771355032920837 0.9780709743499756 0.06958669424057007
0.49339085817337036 0.9874833822250366 -0.23654180765151978 0.712271511554718 0.21161533892154694 0.669209897518158 0.04369639977812767 0.06958681344985962
0.4751277565956116 0.9935234785079956 -0.23654180765151978 -0.443006694316864 0.5976134538650513 0.6682637929916382 0.04217519983649254 0.01790088415145874
0.7165476679801941 1.7148215770721436 -0.2365414798259735 -0.365489661693573 0.729972243309021 0.5775322914123535 0.9765490293502808 0.01790088415145874
0.7348107695579529 1.7087814807891846 -0.25042790174484253 0.730185866355896 0.365611732006073 -0.5771355032920837 0.9774900078773499 0.046465516090393066
0.7165476679801941 1.7148215770721436 -0.25042790174484253 -0.365489661693573 0.729972243309021 -0.5775322914123535 0.9774389863014221 0.03334468603134155
0.47512778639793396 0.9935234785079956 -0.2504282593727112 -0.443006694316864 0.5976134538650513 -0.6682332754135132 0.04306510090827942 0.03621232509613037
0.49339088797569275 0.9874833822250366 -0.2504282593727112 0.712302029132843 0.21161533892154694 -0.669179379940033 0.04311529919505119 0.04933309555053711
0.4550604224205017 0.9795966148376465 -0.2259877771139145 -0.7564012408256531 -0.06784264743328094 0.6505325436592102 0.02780509926378727 0.10461199283599854
0.5010632276535034 0.9643772840499878 -0.2259877771139145 0.5655080080032349 -0.5063020586967468 0.6510208249092102 0.02830040082335472 0.073039710521698
0.5010632276535034 0.9643772840499878 -0.2609822750091553 0.5655080080032349 -0.5063020586967468 -0.6510208249092102 0.028579499572515488 0.06057161092758179
0.4550604224205017 0.9795966148376465 -0.2609822750091553 -0.7564012408256531 -0.06784264743328094 -0.6505325436592102 0.02771740034222603 0.02713257074356079
0.6407757997512817 1.3831053972244263 -0.22628146409988403 0.7343363761901855 0.35477766394615173 0.5786309242248535 0.5178269743919373 0.3425009846687317
0.61004239320755 1.2912817001342773 -0.22628149390220642 0.3555406332015991 -0.7360149025917053 0.5760368704795837 0.5178269743919373 0.2106800079345703
0.5652530193328857 1.3075188398361206 -0.22628149390220642 -0.7343668937683105 -0.35474714636802673 0.5786614418029785 0.43250998854637146 0.2106800079345703
0.5959847569465637 1.3993364572525024 -0.22628146409988403 -0.3555711507797241 0.7359843850135803 0.5760368704795837 0.43250998854637146 0.3425009846687317
0.6407757997512817 1.3831053972244263 -0.26068824529647827 0.7343363761901855 0.35477766394615173 -0.5786309242248535 0.31115201115608215 0.3425009846687317
0.5959847569465637 1.399336576461792 -0.26068824529647827 -0.3555711507797241 0.7359843850135803 -0.5760368704795837 0.39695799350738525 0.3425009846687317
0.5652530193328857 1.3075188398361206 -0.26068827509880066 -0.7343668937683105 -0.35474714636802673 -0.5786614418029785 0.3958609998226166 0.21003198623657227
0.61004239320755 1.2912817001342773 -0.26068827509880066 0.3555406332015991 -0.7360149025917053 -0.5760368704795837 0.3113139867782593 0.21024799346923828
0.8671204447746277 1.664698600769043 -0.5021629333496094 0.40705588459968567 0.48030030727386475 -0.7768791913986206 0.9780709743499756 0.06958669424057007
0.6256400346755981 0.9432191848754883 -0.5021631717681885 0.41767632961273193 0.3102206587791443 -0.8539689183235168 0.04369639977812767 0.06958681344985962
0.6343264579772949 0.940239429473877 -0.4852607548236847 0.9681386947631836 0.12527848780155182 0.21677297353744507 0.04217519983649254 0.01790088415145874
0.8756855726242065 1.6613564491271973 -0.4852605164051056 0.9271218180656433 0.29068881273269653 0.23642688989639282 0.9765490293502808 0.01790088415145874
0.8555494546890259 1.6685714721679688 -0.49553370475769043 -0.5530259013175964 0.8016601800918579 -0.22681355476379395 0.9774900078773499 0.046465516090393066
0.8641145825386047 1.665229320526123 -0.47863128781318665 -0.03707998991012573 0.6134220361709595 0.7888729572296143 0.9774389863014221 0.03334468603134155
0.6227554678916931 0.9441123008728027 -0.47863152623176575 -0.14551225304603577 0.4980315566062927 0.8548234701156616 0.04306510090827942 0.03621232509613037
0.6140690445899963 0.9470920562744141 -0.49553394317626953 -0.6975310444831848 0.6834925413131714 -0.2150334119796753 0.04311529919505119 0.04933309555053711
0.6435210704803467 0.9165184497833252 -0.47746196389198303 0.7603991627693176 -0.5755485892295837 0.3007904291152954 0.02780509926378727 0.10461199283599854
0.6216389536857605 0.9240204095840454 -0.5200387239456177 0.13150425255298615 -0.36106449365615845 -0.9232154488563538 0.02830040082335472 0.073039710521698
0.5924794673919678 0.9337800741195679 -0.5033327341079712 -0.9533982276916504 0.0020447401329874992 -0.3016144335269928 0.028579499572515488 0.06057161092758179
0.614361584186554 0.9262782335281372 -0.46075597405433655 -0.3237098157405853 -0.21268349885940552 0.921933650970459 0.02771740034222603 0.02713257074356079
0.7616865038871765 1.342636227607727 -0.5195345282554626 0.3986632823944092 0.4671468138694763 -0.7891781330108643 0.5178269743919373 0.3425009846687317
0.7309529185295105 1.2508127689361572 -0.519534707069397 0.03588976711034775 -0.6290169954299927 -0.7765434980392456 0.5178269743919373 0.2106800079345703
0.7528889775276184 1.244716763496399 -0.4776851534843445 0.5656911134719849 -0.7898800373077393 0.23673208057880402 0.43250998854637146 0.2106800079345703
0.7836204171180725 1.3365345001220703 -0.47768527269363403 0.9241004586219788 0.3076570928096771 0.22653889656066895 0.43250998854637146 0.3425009846687317
0.7330167889595032 1.3522319793701172 -0.5031091570854187 -0.5656605958938599 0.7899105548858643 -0.23670156300067902 0.31115201115608215 0.3425009846687317
0.7549507021903992 1.34613037109375 -0.4612598717212677 -0.03588976711034775 0.6289864778518677 0.7765740156173706 0.39695799350738525 0.3425009846687317
0.7242192625999451 1.2543126344680786 -0.46125975251197815 -0.3986327648162842 -0.4671162962913513 0.7892086505889893 0.3958609998226166 0.21003198623657227
0.7022832036018372 1.2604085206985474 -0.503109335899353 -0.9241004586219788 -0.3077181279659271 -0.22653889656066895 0.3113139867782593 0.21024799346923828
0.6338450908660889 1.7296290397644043 -0.25033217668533325 -0.1821039468050003 0.7041841149330139 0.6862391829490662 0.29999101161956787 0.9833269994705915
0.3962857723236084 1.0198651552200317 -0.2503323256969452 -0.5693227648735046 -0.4526810646057129 0.6862391829490662 0.29999101161956787 0.3613319993019104
0.6338450908660889 1.7296290397644043 -0.25033217668533325 -0.1821039468050003 0.7041841149330139 0.6862391829490662 0.29999101161956787 0.9833269994705915
0.8097422122955322 1.6707559823989868 -0.5716097950935364 0.5693227648735046 0.4526810646057129 -0.6862391829490662 0.18409499526023865 0.8680520057678223
0.8976905941963196 1.6413193941116333 -0.4109678566455841 0.9450361728668213 0.3269447982311249 -0.0 0.103023000061512 0.9109909981489182
0.8097421526908875 1.6707558631896973 -0.25033217668533325 0.5693227648735046 0.4526810646057129 0.6862391829490662 0.02195120044052601 0.8680520057678223
0.8097421526908875 1.6707558631896973 -0.25033217668533325 0.5693227648735046 0.4526810646057129 0.6862391829490662 0.02195120044052601 0.8680520057678223
0.6338450908660889 1.7296290397644043 -0.25033217668533325 -0.1821039468050003 0.7041841149330139 0.6862391829490662 0.02195120044052601 0.7821750044822693
0.5458961725234985 1.7590656280517578 -0.4109678566455841 -0.5578173398971558 0.8299508690834045 -0.0 0.103023000061512 0.7392370104789734
0.8097422122955322 1.6707559823989868 -0.5716097950935364 0.5693227648735046 0.4526810646057129 -0.6862391829490662 0.18409499526023865 0.8680520057678223
0.8097421526908875 1.6707558631896973 -0.25033217668533325 0.5693227648735046 0.4526810646057129 0.6862391829490662 0.02195120044052601 0.8680520057678223
0.5458961725234985 1.7590656280517578 -0.4109678566455841 -0.5578173398971558 0.8299508690834045 -0.0 0.103023000061512 0.7392370104789734
0.6338450908660889 1.7296290397644043 -0.5716097950935364 -0.1821039468050003 0.7041841149330139 -0.6862391829490662 0.18409499526023865 0.7821750044822693
0.8097422122955322 1.6707559823989868 -0.5716097950935364 0.5693227648735046 0.4526810646057129 -0.6862391829490662 0.18409499526023865 0.8680520057678223
0.5458961725234985 1.7590656280517578 -0.4109678566455841 -0.5578173398971558 0.8299508690834045 -0.0 0.103023000061512 0.7392370104789734
0.3962857723236084 1.0198651552200317 -0.2503323256969452 -0.5693227648735046 -0.4526810646057129 0.6862391829490662 0.02195120044052601 0.7821750044822693
0.572182834148407 0.9609920978546143 -0.2503322958946228 0.1821039468050003 -0.7041841149330139 0.6862391829490662 0.02195120044052601 0.8680520057678223
0.6601312756538391 0.9315555691719055 -0.41096797585487366 0.5578173398971558 -0.8299508690834045 -0.0 0.103023000061512 0.9109909981489182
0.6601312756538391 0.9315555691719055 -0.41096797585487366 0.5578173398971558 -0.8299508690834045 -0.0 0.103023000061512 0.9109909981489182
0.5721828937530518 0.960992157459259 -0.5716099143028259 0.1821039468050003 -0.7041841149330139 -0.6862391829490662 0.18409499526023865 0.8680520057678223
0.3962857723236084 1.0198652744293213 -0.5716099143028259 -0.5693227648735046 -0.4526810646057129 -0.6862391829490662 0.18409499526023865 0.7821750044822693
0.3962857723236084 1.0198651552200317 -0.2503323256969452 -0.5693227648735046 -0.4526810646057129 0.6862391829490662 0.02195120044052601 0.7821750044822693
0.6601312756538391 0.9315555691719055 -0.41096797585487366 0.5578173398971558 -0.8299508690834045 -0.0 0.103023000061512 0.9109909981489182
0.3962857723236084 1.0198652744293213 -0.5716099143028259 -0.5693227648735046 -0.4526810646057129 -0.6862391829490662 0.18409499526023865 0.7821750044822693
0.30833685398101807 1.0493018627166748 -0.41096800565719604 -0.9450361728668213 -0.3269447982311249 -0.0 0.103023000061512 0.7392370104789734
0.3962857723236084 1.0198651552200317 -0.2503323256969452 -0.5693227648735046 -0.4526810646057129 0.6862391829490662 0.02195120044052601 0.7821750044822693
0.3962857723236084 1.0198652744293213 -0.5716099143028259 -0.5693227648735046 -0.4526810646057129 -0.6862391829490662 0.18409499526023865 0.7821750044822693
0.3850020468235016 0.7849591374397278 -0.3594735264778137 -0.1821039468050003 0.7041841149330139 0.6862391829490662 0.19717399775981903 0.6421250104904175
0.3579258620738983 0.7040627598762512 -0.3594735264778137 -0.5693227648735046 -0.4526810646057129 0.6862391829490662 0.2785109877586365 0.6421250104904175
0.3850020468235016 0.7849591374397278 -0.3594735264778137 -0.1821039468050003 0.7041841149330139 0.6862391829490662 0.19717399775981903 0.6421250104904175
0.38413476943969727 0.7405403852462769 -0.3824697732925415 -0.2454298585653305 0.08212530612945557 0.9659108519554138 0.9796350002288818 0.2508469820022583
0.49432241916656494 1.0697516202926636 -0.38246971368789673 -0.2454298585653305 0.08212530612945557 0.9659108519554138 0.7530710101127625 0.2508469820022583
0.3579258620738983 0.7040627598762512 -0.3594735264778137 -0.5693227648735046 -0.4526810646057129 0.6862391829490662 0.06307650357484818 0.9130019992589951
0.4186791181564331 0.6837285757064819 -0.3594735264778137 0.1821039468050003 -0.7041841149330139 0.6862391829490662 0.03254169970750809 0.9130019992589951
0.3579258620738983 0.7040627598762512 -0.3594735264778137 -0.5693227648735046 -0.4526810646057129 0.6862391829490662 0.06307650357484818 0.9130019992589951
0.32754945755004883 0.7142298221588135 -0.41495704650878906 -0.9450361728668213 -0.3269447982311249 -0.0 0.07834380120038986 0.9406349994242191
0.3579258620738983 0.7040627598762512 -0.3594735264778137 -0.5693227648735046 -0.4526810646057129 0.6862391829490662 0.06307650357484818 0.9130019992589951
0.48843997716903687 1.0007307529449463 -0.27197790145874023 -0.0 0.0 1.0 0.5325369834899902 0.3210369944572449
0.471111536026001 0.9489578604698181 -0.2719779312610626 -0.20001831650733948 -0.5976744890213013 0.7763603329658508 0.5325369834899902 0.2716060280799866
0.48843997716903687 1.0007307529449463 -0.27197790145874023 -0.0 0.0 1.0 0.5325369834899902 0.3210369944572449
0.4490557312965393 0.6735614538192749 -0.41495704650878906 0.5578173398971558 -0.8299508690834045 -0.0 0.2785109877586365 0.7538570016622543
0.3364483714103699 0.9940298795700073 -0.4139816164970398 -0.9362773299217224 -0.35123753547668457 -0.0 0.10579200088977814 0.5493510067462921
0.3758903741836548 0.9808286428451538 -0.3135686218738556 -0.7206335663795471 -0.42341381311416626 0.5489669442176819 0.04318059980869293 0.573403000831604
0.3364483714103699 0.9940298795700073 -0.4139816164970398 -0.9362773299217224 -0.35123753547668457 -0.0 0.10579200088977814 0.5493510067462921
0.3758903741836548 0.9808286428451538 -0.3135686218738556 -0.7206335663795471 -0.42341381311416626 0.5489669442176819 0.04318059980869293 0.573403000831604
0.471111536026001 0.9489578604698181 -0.2719779312610626 -0.20001831650733948 -0.5976744890213013 0.7763603329658508 0.017246300354599953 0.6314719915390015
0.3758903741836548 0.9808286428451538 -0.3135686218738556 -0.7206335663795471 -0.42341381311416626 0.5489669442176819 0.04318059980869293 0.573403000831604
0.471111536026001 0.9489578604698181 -0.2719779312610626 -0.20001831650733948 -0.5976744890213013 0.7763603329658508 0.017246300354599953 0.6314719915390015
0.5663327574729919 0.917087197303772 -0.3135686218738556 0.32053589820861816 -0.7719046473503113 0.5489669442176819 0.04318059980869293 0.6895399987697601
0.471111536026001 0.9489578604698181 -0.2719779312610626 -0.20001831650733948 -0.5976744890213013 0.7763603329658508 0.017246300354599953 0.6314719915390015
0.5663327574729919 0.917087197303772 -0.3135686218738556 0.32053589820861816 -0.7719046473503113 0.5489669442176819 0.04318059980869293 0.6895399987697601
0.6057741641998291 0.903886079788208 -0.4139816164970398 0.5361797213554382 -0.844080924987793 -0.0 0.10579100251197815 0.7135930061340332
0.5663327574729919 0.917087197303772 -0.3135686218738556 0.32053589820861816 -0.7719046473503113 0.5489669442176819 0.04318059980869293 0.6895399987697601
0.6057741641998291 0.903886079788208 -0.4139816164970398 0.5361797213554382 -0.844080924987793 -0.0 0.10579100251197815 0.7135930061340332
0.5663328170776367 0.917087197303772 -0.5143945813179016 0.32056641578674316 -0.7719046473503113 -0.5489669442176819 0.16840200126171112 0.6895399987697601
0.6057741641998291 0.903886079788208 -0.4139816164970398 0.5361797213554382 -0.844080924987793 -0.0 0.10579100251197815 0.7135930061340332
0.5663328170776367 0.917087197303772 -0.5143945813179016 0.32056641578674316 -0.7719046473503113 -0.5489669442176819 0.16840200126171112 0.6895399987697601
0.471111536026001 0.9489579200744629 -0.555991530418396 -0.20001831650733948 -0.5976439714431763 -0.7763603329658508 0.19433699548244476 0.6314719915390015
0.5663328170776367 0.917087197303772 -0.5143945813179016 0.32056641578674316 -0.7719046473503113 -0.5489669442176819 0.16840200126171112 0.6895399987697601
0.471111536026001 0.9489579200744629 -0.555991530418396 -0.20001831650733948 -0.5976439714431763 -0.7763603329658508 0.19433699548244476 0.6314719915390015
0.3758903741836548 0.9808286428451538 -0.5143945813179016 -0.7206335663795471 -0.42341381311416626 -0.5489669442176819 0.16840200126171112 0.573403000831604
0.471111536026001 0.9489579200744629 -0.555991530418396 -0.20001831650733948 -0.5976439714431763 -0.7763603329658508 0.19433699548244476 0.6314719915390015
0.3758903741836548 0.9808286428451538 -0.5143945813179016 -0.7206335663795471 -0.42341381311416626 -0.5489669442176819 0.16840200126171112 0.573403000831604
0.3364483714103699 0.9940298795700073 -0.4139816164970398 -0.9362773299217224 -0.35123753547668457 -0.0 0.10579200088977814 0.5493510067462921
0.3758903741836548 0.9808286428451538 -0.5143945813179016 -0.7206335663795471 -0.42341381311416626 -0.5489669442176819 0.16840200126171112 0.573403000831604
0.347175270318985 0.9904395937919617 -0.4139816164970398 0.3083895444869995 -0.9512314200401306 -0.0 0.8671820163726807 0.2716060280799866
0.3834754228591919 0.9782898426055908 -0.3215716481208801 0.143314927816391 -0.8959929347038269 -0.4202703833580017 0.9229559898376465 0.2716060280799866
0.347175270318985 0.9904395937919617 -0.4139816164970398 0.3083895444869995 -0.9512314200401306 -0.0 0.8671820163726807 0.2716060280799866
0.3834754228591919 0.9782898426055908 -0.3215716481208801 0.143314927816391 -0.8959929347038269 -0.4202703833580017 0.9229559898376465 0.2716060280799866
0.471111536026001 0.9489578604698181 -0.28328850865364075 -0.2552262842655182 -0.7625964879989624 -0.5943479537963867 0.9787300229072571 0.2716060280799866
0.3834754228591919 0.9782898426055908 -0.3215716481208801 0.143314927816391 -0.8959929347038269 -0.4202703833580017 0.9229559898376465 0.2716060280799866
0.471111536026001 0.9489578604698181 -0.28328850865364075 -0.2552262842655182 -0.7625964879989624 -0.5943479537963867 0.5325369834899902 0.2716060280799866
0.5587478280067444 0.9196258783340454 -0.3215716481208801 -0.6537980437278748 -0.6291695833206177 -0.4202703833580017 0.5883110165596008 0.2716060280799866
0.495893657207489 1.0230002403259277 -0.28328847885131836 -0.0 0.0 -1.0 0.5325369834899902 0.3422960042953491
0.471111536026001 0.9489578604698181 -0.28328850865364075 -0.2552262842655182 -0.7625964879989624 -0.5943479537963867 0.5325369834899902 0.2716060280799866
0.5587478280067444 0.9196258783340454 -0.3215716481208801 -0.6537980437278748 -0.6291695833206177 -0.4202703833580017 0.5883110165596008 0.2716060280799866
0.5950478911399841 0.9074761867523193 -0.4139816164970398 -0.8188726305961609 -0.573931097984314 -0.0 0.6440849900245667 0.2716060280799866
0.5587478280067444 0.9196258783340454 -0.3215716481208801 -0.6537980437278748 -0.6291695833206177 -0.4202703833580017 0.5883110165596008 0.2716060280799866
0.5950478911399841 0.9074761867523193 -0.4139816164970398 -0.8188726305961609 -0.573931097984314 -0.0 0.6440849900245667 0.2716060280799866
0.5587477684020996 0.9196258783340454 -0.5063977837562561 -0.6537980437278748 -0.6292001008987427 0.4202703833580017 0.6998590230941772 0.2716060280799866
0.5950478911399841 0.9074761867523193 -0.4139816164970398 -0.8188726305961609 -0.573931097984314 -0.0 0.6440849900245667 0.2716060280799866
0.5587477684020996 0.9196258783340454 -0.5063977837562561 -0.6537980437278748 -0.6292001008987427 0.4202703833580017 0.6998590230941772 0.2716060280799866
0.471111536026001 0.9489579200744629 -0.5446810126304626 -0.2552262842655182 -0.7625964879989624 0.5943479537963867 0.7556340098381042 0.2716060280799866
0.5587477684020996 0.9196258783340454 -0.5063977837562561 -0.6537980437278748 -0.6292001008987427 0.4202703833580017 0.6998590230941772 0.2716060280799866
0.471111536026001 0.9489579200744629 -0.5446810126304626 -0.2552262842655182 -0.7625964879989624 0.5943479537963867 0.7556340098381042 0.2716060280799866
0.3834754228591919 0.9782899022102356 -0.5063977837562561 0.143314927816391 -0.8959929347038269 0.4202703833580017 0.8114079833030701 0.2716060280799866
0.471111536026001 0.9489579200744629 -0.5446810126304626 -0.2552262842655182 -0.7625964879989624 0.5943479537963867 0.7556340098381042 0.2716060280799866
0.3834754228591919 0.9782899022102356 -0.5063977837562561 0.143314927816391 -0.8959929347038269 0.4202703833580017 0.8114079833030701 0.2716060280799866
0.347175270318985 0.9904395937919617 -0.4139816164970398 0.3083895444869995 -0.9512314200401306 -0.0 0.8671820163726807 0.2716060280799866
0.3834754228591919 0.9782899022102356 -0.5063977837562561 0.143314927816391 -0.8959929347038269 0.4202703833580017 0.8114079833030701 0.2716060280799866
0.6951863765716553 1.7090978622436523 -0.25031334161758423 -0.670522153377533 0.22440260648727417 0.7070833444595337 0.04840109869837761 0.2734900116920471
0.748400866985321 1.6912869215011597 -0.25031334161758423 0.670522153377533 -0.22443312406539917 0.7070833444595337 0.04840109869837761 0.17282599210739136
0.6951863765716553 1.709097981452942 -0.32961201667785645 -0.1498764008283615 0.8030335307121277 -0.5767387747764587 0.22346000373363495 0.2734609842300415
0.748400866985321 1.6912869215011597 -0.32961201667785645 0.6031067967414856 0.5509811639785767 -0.5767387747764587 0.22346000373363495 0.17279702425003052
0.4186791181564331 0.6837285757064819 -0.47044050693511963 0.1821039468050003 -0.7041841149330139 -0.6862391829490662 0.2785109877586365 0.8097230046987534
0.4490557312965393 0.6735614538192749 -0.41495704650878906 0.5578173398971558 -0.8299508690834045 -0.0 0.2785109877586365 0.7538570016622543
0.6987940669059753 1.5932267904281616 -0.5695152878761292 -0.8949552774429321 -0.4460890591144562 -0.0 0.14681999385356903 0.33781301975250244
0.6987940669059753 1.5932267904281616 -0.5695152878761292 -0.8949552774429321 -0.4460890591144562 -0.0 0.14681999385356903 0.33781301975250244
0.7618548274040222 1.572120189666748 -0.5695152878761292 0.4460890591144562 -0.8949552774429321 -0.0 0.0076025198213756084 0.3920130133628845
0.7618548274040222 1.572120189666748 -0.5695152878761292 0.4460890591144562 -0.8949552774429321 -0.0 0.0076025198213756084 0.3920130133628845
0.7901831865310669 1.6567577123641968 -0.5695152878761292 0.8949552774429321 0.4460890591144562 -0.0 0.050633400678634644 0.5333099961280823
0.72712242603302 1.6778643131256104 -0.5695152878761292 -0.4460890591144562 0.8949552774429321 -0.0 0.14681999385356903 0.5333099961280823
0.3579258620738983 0.7040627598762512 -0.47044050693511963 -0.5693227648735046 -0.4526810646057129 -0.6862391829490662 0.2785109877586365 0.8655889928340912
0.4186791181564331 0.6837285757064819 -0.47044050693511963 0.1821039468050003 -0.7041841149330139 -0.6862391829490662 0.2785109877586365 0.8097230046987534
0.6383278965950012 1.707584023475647 -0.5695152878761292 -0.4460890591144562 0.8949552774429321 -0.0 0.18985100090503693 0.4791100025177002
0.6383278965950012 1.707584023475647 -0.5695152878761292 -0.4460890591144562 0.8949552774429321 -0.0 0.18985100090503693 0.4791100025177002
0.6099995374679565 1.6229465007781982 -0.5695152878761292 -0.8949552774429321 -0.4460890591144562 -0.0 0.14681999385356903 0.33781301975250244
0.6099995374679565 1.6229465007781982 -0.5695152878761292 -0.8949552774429321 -0.4460890591144562 -0.0 0.14681999385356903 0.33781301975250244
0.6730603575706482 1.6018399000167847 -0.5695152878761292 0.4460890591144562 -0.8949552774429321 -0.0 0.0076025198213756084 0.3920130133628845
0.7013886570930481 1.6864774227142334 -0.5695152878761292 0.8949552774429321 0.4460890591144562 -0.0 0.0076025198213756084 0.4791100025177002
0.6730603575706482 1.6018399000167847 -0.5695152878761292 0.4460890591144562 -0.8949552774429321 -0.0 0.0076025198213756084 0.3920130133628845
0.8083329200744629 1.5565638542175293 -0.3230784237384796 0.110812708735466 -0.7827387452125549 -0.6123539209365845 0.14681999385356903 0.33781301975250244
0.8083329200744629 1.5565638542175293 -0.3230784237384796 0.110812708735466 -0.7827387452125549 -0.6123539209365845 0.14681999385356903 0.33781301975250244
0.7768024802207947 1.5671170949935913 -0.26549407839775085 -0.5598010420799255 -0.5583056211471558 0.6122623085975647 0.0076025198213756084 0.3920130133628845
0.7768024802207947 1.5671170949935913 -0.26549407839775085 -0.5598010420799255 -0.5583056211471558 0.6122623085975647 0.0076025198213756084 0.3920130133628845
0.8810582160949707 1.6263415813446045 -0.40417149662971497 0.5596789717674255 0.5583056211471558 -0.6123539209365845 0.18985100090503693 0.4791100025177002
0.8810582160949707 1.6263415813446045 -0.40417149662971497 0.5596789717674255 0.5583056211471558 -0.6123539209365845 0.18985100090503693 0.4791100025177002
0.852729856967926 1.5417041778564453 -0.40417152643203735 0.110812708735466 -0.7827387452125549 -0.6123539209365845 0.14681999385356903 0.33781301975250244
0.852729856967926 1.5417041778564453 -0.40417152643203735 0.110812708735466 -0.7827387452125549 -0.6123539209365845 0.14681999385356903 0.33781301975250244
0.8211996555328369 1.5522572994232178 -0.34658101201057434 -0.5596789717674255 -0.5583056211471558 0.6123539209365845 0.0076025198213756084 0.3920130133628845
0.8495279550552368 1.636894941329956 -0.34658101201057434 -0.110812708735466 0.7827387452125549 0.6123539209365845 0.0076025198213756084 0.4791100025177002
0.8211996555328369 1.5522572994232178 -0.34658101201057434 -0.5596789717674255 -0.5583056211471558 0.6123539209365845 0.0076025198213756084 0.3920130133628845
0.5807814598083496 1.7268447875976562 -0.3392782211303711 0.5596789717674255 0.5583056211471558 0.6123539209365845 0.18985100090503693 0.4791100025177002
0.5807814598083496 1.7268447875976562 -0.3392782211303711 0.5596789717674255 0.5583056211471558 0.6123539209365845 0.18985100090503693 0.4791100025177002
0.5524531006813049 1.642207384109497 -0.3392782509326935 0.110812708735466 -0.7827387452125549 0.6123539209365845 0.14681999385356903 0.33781301975250244
0.5524531006813049 1.642207384109497 -0.3392782509326935 0.110812708735466 -0.7827387452125549 0.6123539209365845 0.14681999385356903 0.33781301975250244
0.5209228992462158 1.6527605056762695 -0.3968687951564789 -0.5596789717674255 -0.5583056211471558 -0.6123539209365845 0.0076025198213756084 0.3920130133628845
0.5492512583732605 1.7373980283737183 -0.3968687951564789 -0.110812708735466 0.7827387452125549 -0.6123539209365845 0.0076025198213756084 0.4791100025177002
0.5209228992462158 1.6527605056762695 -0.3968687951564789 -0.5596789717674255 -0.5583056211471558 -0.6123539209365845 0.0076025198213756084 0.3920130133628845
0.6251789331436157 1.7119848728179932 -0.25818508863449097 0.5596789717674255 0.5583056211471558 0.6123539209365845 0.18985100090503693 0.4791100025177002
0.6251789331436157 1.7119848728179932 -0.25818508863449097 0.5596789717674255 0.5583056211471558 0.6123539209365845 0.18985100090503693 0.4791100025177002
0.5968500375747681 1.6273475885391235 -0.25818508863449097 0.110812708735466 -0.7827387452125549 0.6123539209365845 0.14681999385356903 0.33781301975250244
0.5968500375747681 1.6273475885391235 -0.25818508863449097 0.110812708735466 -0.7827387452125549 0.6123539209365845 0.14681999385356903 0.33781301975250244
0.565319836139679 1.6379008293151855 -0.31577566266059875 -0.5596789717674255 -0.5583056211471558 -0.6123539209365845 0.0076025198213756084 0.3920130133628845
0.5936481356620789 1.7225383520126343 -0.31577563285827637 -0.110812708735466 0.7827387452125549 -0.6123539209365845 0.0076025198213756084 0.4791100025177002
0.565319836139679 1.6379008293151855 -0.31577566266059875 -0.5596789717674255 -0.5583056211471558 -0.6123539209365845 0.0076025198213756084 0.3920130133628845
0.8051308393478394 1.65175461769104 -0.26549404859542847 -0.110904261469841 0.7827997803688049 0.6122623085975647 0.050633400678634644 0.5333099961280823
0.8366612792015076 1.641201376914978 -0.3230784237384796 0.5596789717674255 0.5583361387252808 -0.6123539209365845 0.14681999385356903 0.5333099961280823
0.8038175702095032 1.6727389097213745 -0.42364701628685 -0.05880916863679886 0.772515058517456 0.6322519779205322 0.22346000373363495 0.31179600954055786
0.7772104740142822 1.681644320487976 -0.47224661707878113 -0.4353465437889099 0.8985259532928467 -0.0554826483130455 0.22346000373363495 0.13354802131652832
0.7772104740142822 1.681644320487976 -0.47224661707878113 -0.4353465437889099 0.8985259532928467 -0.0554826483130455 0.22346000373363495 0.13354802131652832
0.3579258620738983 0.7040627598762512 -0.47044050693511963 -0.5693227648735046 -0.4526810646057129 -0.6862391829490662 0.2785109877586365 0.8655889928340912
0.6017849445343018 1.7403596639633179 -0.5130525827407837 -0.2452772557735443 0.08215582370758057 -0.9659413695335388 0.08576030284166336 0.31179600954055786
0.6017849445343018 1.7403596639633179 -0.5130525827407837 -0.2452772557735443 0.08215582370758057 -0.9659413695335388 0.08576030284166336 0.31179600954055786
0.6673904061317444 1.718401312828064 -0.473097026348114 0.8885158896446228 0.45545822381973267 -0.0554216131567955 0.22346000373363495 0.31179600954055786
0.6407830715179443 1.727306842803955 -0.42449742555618286 0.5119479894638062 0.5814691781997681 0.6322519779205322 0.22346000373363495 0.13354802131652832
0.5751776099205017 1.749265193939209 -0.46445295214653015 -0.9159825444221497 0.30655843019485474 0.25873592495918274 0.08576030284166336 0.13354802131652832
0.6407830715179443 1.727306842803955 -0.42449742555618286 0.5119479894638062 0.5814691781997681 0.6322519779205322 0.22346000373363495 0.13354802131652832
0.8689418435096741 1.6509416103363037 -0.4632995128631592 0.9159825444221497 -0.30658894777297974 0.25876644253730774 0.04840109869837761 0.2734900116920471
0.8423351645469666 1.6598470211029053 -0.5118928551673889 0.2454298585653305 -0.08212530612945557 -0.9659108519554138 0.04840109869837761 0.17282599210739136
0.3525005578994751 1.03456711769104 -0.4920256435871124 0.9681081771850586 0.12530900537967682 -0.21680349111557007 0.04217519983649254 0.022975802421569824
0.3525005578994751 1.03456711769104 -0.4920256435871124 0.9681081771850586 0.12530900537967682 -0.21680349111557007 0.04217519983649254 0.022975802421569824
0.5940148830413818 1.756147027015686 -0.4920254051685333 0.9239478707313538 0.3085726499557495 -0.22598956525325775 0.9765490293502808 0.022975802421569824
0.5851399302482605 1.7585632801055908 -0.47512298822402954 0.3982055187225342 0.4664143919944763 0.7898495197296143 0.9780709743499756 0.06451171636581421
0.5851399302482605 1.7585632801055908 -0.47512298822402954 0.3982055187225342 0.4664143919944763 0.7898495197296143 0.9780709743499756 0.06451171636581421
0.3438141942024231 1.037546992301941 -0.47512322664260864 0.41767632961273193 0.3102206587791443 0.8539689183235168 0.04369639977812767 0.06451177597045898
0.4423935115337372 1.3486402034759521 -0.5160264372825623 -0.3986327648162842 -0.4671162962913513 -0.7892086505889893 0.3947649896144867 0.18429797887802124
0.4204574227333069 1.354736089706421 -0.474176824092865 -0.9241004586219788 -0.3077181279659271 0.22653889656066895 0.3116379976272583 0.18429797887802124
0.4423935115337372 1.3486402034759521 -0.5160264372825623 -0.3986327648162842 -0.4671162962913513 -0.7892086505889893 0.3947649896144867 0.18429797887802124
0.4204574227333069 1.354736089706421 -0.474176824092865 -0.9241004586219788 -0.3077181279659271 0.22653889656066895 0.27751100063323975 0.2106800079345703
0.4511910378932953 1.4465596675872803 -0.47417697310447693 -0.5656605958938599 0.7899105548858643 0.23670156300067902 0.27751100063323975 0.3425009846687317
0.4204574227333069 1.354736089706421 -0.474176824092865 -0.9241004586219788 -0.3077181279659271 0.22653889656066895 0.27751100063323975 0.2106800079345703
0.3409295678138733 1.0384399890899658 -0.49865487217903137 -0.14551225304603577 0.4980315566062927 -0.8548234701156616 0.04191809892654419 0.09656429290771484
0.3322432041168213 1.0414198637008667 -0.4817524552345276 -0.6975310444831848 0.6834925413131714 0.2150334119796753 0.04196830093860626 0.0834435224533081
0.3409295678138733 1.0384399890899658 -0.49865487217903137 -0.14551225304603577 0.4980315566062927 -0.8548234701156616 0.04191809892654419 0.09656429290771484
0.3438141942024231 1.037546992301941 -0.47512322664260864 0.41767632961273193 0.3102206587791443 0.8539689183235168 0.04369639977812767 0.06451177597045898
0.3525005578994751 1.03456711769104 -0.4920256435871124 0.9681081771850586 0.12530900537967682 -0.21680349111557007 0.04217519983649254 0.022975802421569824
0.3325357139110565 1.0206059217453003 -0.5165303945541382 -0.3237098157405853 -0.21268349885940552 -0.921933650970459 0.02727239951491356 0.014046311378479004
0.3325357139110565 1.0206059217453003 -0.5165303945541382 -0.3237098157405853 -0.21268349885940552 -0.921933650970459 0.02727239951491356 0.014046311378479004
0.3525005578994751 1.03456711769104 -0.4920256435871124 0.9681081771850586 0.12530900537967682 -0.21680349111557007 0.04217519983649254 0.022975802421569824
0.3398130238056183 1.0183480978012085 -0.45724767446517944 0.13150425255298615 -0.36106449365615845 0.9232154488563538 0.018581200391054153 0.07321351766586304
0.36169514060020447 1.0108461380004883 -0.4998244345188141 0.7603991627693176 -0.5755485892295837 -0.3007904291152954 0.018581200391054153 0.10388201475143433
0.3409295678138733 1.0384399890899658 -0.49865487217903137 -0.14551225304603577 0.4980315566062927 -0.8548234701156616 0.04191809892654419 0.09656429290771484
0.58244389295578 1.7600198984146118 -0.49865463376045227 -0.03582873195409775 0.6298409700393677 -0.7758720517158508 0.9762920141220093 0.09943187236785889
0.5735689401626587 1.7624361515045166 -0.4817522168159485 -0.5663625001907349 0.7892391681671143 0.2372203767299652 0.9763420224189758 0.0863112211227417
0.3322432041168213 1.0414198637008667 -0.4817524552345276 -0.6975310444831848 0.6834925413131714 0.2150334119796753 0.04196830093860626 0.0834435224533081
0.4511910378932953 1.4465596675872803 -0.47417697310447693 -0.5656605958938599 0.7899105548858643 0.23670156300067902 0.27751100063323975 0.3425009846687317
0.5940148830413818 1.756147027015686 -0.4920254051685333 0.9239478707313538 0.3085726499557495 -0.22598956525325775 0.9765490293502808 0.022975802421569824
0.5851399302482605 1.7585632801055908 -0.47512298822402954 0.3982055187225342 0.4664143919944763 0.7898495197296143 0.9780709743499756 0.06451171636581421
0.5735689401626587 1.7624361515045166 -0.4817522168159485 -0.5663625001907349 0.7892391681671143 0.2372203767299652 0.9763420224189758 0.0863112211227417
0.47512778639793396 0.9935234785079956 -0.2504282593727112 -0.443006694316864 0.5976134538650513 -0.6682332754135132 0.04217519983649254 0.022975802421569824
0.47512778639793396 0.9935234785079956 -0.2504282593727112 -0.443006694316864 0.5976134538650513 -0.6682332754135132 0.04217519983649254 0.022975802421569824
0.7165476679801941 1.7148215770721436 -0.25042790174484253 -0.365489661693573 0.729972243309021 -0.5775322914123535 0.9765490293502808 0.022975802421569824
0.7348107695579529 1.7087814807891846 -0.25042790174484253 0.730185866355896 0.365611732006073 -0.5771355032920837 0.9780709743499756 0.06451171636581421
0.7348107695579529 1.7087814807891846 -0.25042790174484253 0.730185866355896 0.365611732006073 -0.5771355032920837 0.9780709743499756 0.06451171636581421
0.49339088797569275 0.9874833822250366 -0.2504282593727112 0.712302029132843 0.21161533892154694 -0.669179379940033 0.04369639977812767 0.06451177597045898
0.5652530193328857 1.3075188398361206 -0.22628149390220642 -0.7343668937683105 -0.35474714636802673 0.5786614418029785 0.3947649896144867 0.18429797887802124
0.61004239320755 1.2912817001342773 -0.22628149390220642 0.3555406332015991 -0.7360149025917053 0.5760368704795837 0.3116379976272583 0.18429797887802124
0.5652530193328857 1.3075188398361206 -0.22628149390220642 -0.7343668937683105 -0.35474714636802673 0.5786614418029785 0.3947649896144867 0.18429797887802124
0.61004239320755 1.2912817001342773 -0.22628149390220642 0.3555406332015991 -0.7360149025917053 0.5760368704795837 0.27751100063323975 0.2106800079345703
0.6407757997512817 1.3831053972244263 -0.22628146409988403 0.7343363761901855 0.35477766394615173 0.5786309242248535 0.27751100063323975 0.3425009846687317
0.61004239320755 1.2912817001342773 -0.22628149390220642 0.3555406332015991 -0.7360149025917053 0.5760368704795837 0.27751100063323975 0.2106800079345703
0.4751277565956116 0.9935234785079956 -0.23654180765151978 -0.443006694316864 0.5976134538650513 0.6682637929916382 0.04191809892654419 0.09656429290771484
0.49339085817337036 0.9874833822250366 -0.23654180765151978 0.712271511554718 0.21161533892154694 0.669209897518158 0.04196830093860626 0.0834435224533081
0.4751277565956116 0.9935234785079956 -0.23654180765151978 -0.443006694316864 0.5976134538650513 0.6682637929916382 0.04191809892654419 0.09656429290771484
0.49339088797569275 0.9874833822250366 -0.2504282593727112 0.712302029132843 0.21161533892154694 -0.669179379940033 0.04369639977812767 0.06451177597045898
0.47512778639793396 0.9935234785079956 -0.2504282593727112 -0.443006694316864 0.5976134538650513 -0.6682332754135132 0.04217519983649254 0.022975802421569824
0.4550604224205017 0.9795966148376465 -0.2259877771139145 -0.7564012408256531 -0.06784264743328094 0.6505325436592102 0.02727239951491356 0.014046311378479004
0.4550604224205017 0.9795966148376465 -0.2259877771139145 -0.7564012408256531 -0.06784264743328094 0.6505325436592102 0.02727239951491356 0.014046311378479004
0.47512778639793396 0.9935234785079956 -0.2504282593727112 -0.443006694316864 0.5976134538650513 -0.6682332754135132 0.04217519983649254 0.022975802421569824
0.5010632276535034 0.9643772840499878 -0.2609822750091553 0.5655080080032349 -0.5063020586967468 -0.6510208249092102 0.018581200391054153 0.07321351766586304
0.4550604224205017 0.9795966148376465 -0.2609822750091553 -0.7564012408256531 -0.06784264743328094 -0.6505325436592102 0.018581200391054153 0.10388201475143433
0.4751277565956116 0.9935234785079956 -0.23654180765151978 -0.443006694316864 0.5976134538650513 0.6682637929916382 0.04191809892654419 0.09656429290771484
0.7165476679801941 1.7148215770721436 -0.2365414798259735 -0.365489661693573 0.729972243309021 0.5775322914123535 0.9762920141220093 0.09943187236785889
0.7348107695579529 1.7087814807891846 -0.2365414798259735 0.730185866355896 0.365611732006073 0.5771355032920837 0.9763420224189758 0.0863112211227417
0.49339085817337036 0.9874833822250366 -0.23654180765151978 0.712271511554718 0.21161533892154694 0.669209897518158 0.04196830093860626 0.0834435224533081
0.6407757997512817 1.3831053972244263 -0.22628146409988403 0.7343363761901855 0.35477766394615173 0.5786309242248535 0.27751100063323975 0.3425009846687317
0.7165476679801941 1.7148215770721436 -0.25042790174484253 -0.365489661693573 0.729972243309021 -0.5775322914123535 0.9765490293502808 0.022975802421569824
0.7348107695579529 1.7087814807891846 -0.25042790174484253 0.730185866355896 0.365611732006073 -0.5771355032920837 0.9780709743499756 0.06451171636581421
0.7348107695579529 1.7087814807891846 -0.2365414798259735 0.730185866355896 0.365611732006073 0.5771355032920837 0.9763420224189758 0.0863112211227417
0.6227554678916931 0.9441123008728027 -0.47863152623176575 -0.14551225304603577 0.4980315566062927 0.8548234701156616 0.04217519983649254 0.022975802421569824
0.6227554678916931 0.9441123008728027 -0.47863152623176575 -0.14551225304603577 0.4980315566062927 0.8548234701156616 0.04217519983649254 0.022975802421569824
0.8641145825386047 1.665229320526123 -0.47863128781318665 -0.03707998991012573 0.6134220361709595 0.7888729572296143 0.9765490293502808 0.022975802421569824
0.8555494546890259 1.6685714721679688 -0.49553370475769043 -0.5530259013175964 0.8016601800918579 -0.22681355476379395 0.9780709743499756 0.06451171636581421
0.8555494546890259 1.6685714721679688 -0.49553370475769043 -0.5530259013175964 0.8016601800918579 -0.22681355476379395 0.9780709743499756 0.06451171636581421
0.6140690445899963 0.9470920562744141 -0.49553394317626953 -0.6975310444831848 0.6834925413131714 -0.2150334119796753 0.04369639977812767 0.06451177597045898
0.7528889775276184 1.244716763496399 -0.4776851534843445 0.5656911134719849 -0.7898800373077393 0.23673208057880402 0.3947649896144867 0.18429797887802124
0.7309529185295105 1.2508127689361572 -0.519534707069397 0.03588976711034775 -0.6290169954299927 -0.7765434980392456 0.3116379976272583 0.18429797887802124
0.7528889775276184 1.244716763496399 -0.4776851534843445 0.5656911134719849 -0.7898800373077393 0.23673208057880402 0.3947649896144867 0.18429797887802124
0.7309529185295105 1.2508127689361572 -0.519534707069397 0.03588976711034775 -0.6290169954299927 -0.7765434980392456 0.27751100063323975 0.2106800079345703
0.7616865038871765 1.342636227607727 -0.5195345282554626 0.3986632823944092 0.4671468138694763 -0.7891781330108643 0.27751100063323975 0.3425009846687317
0.7309529185295105 1.2508127689361572 -0.519534707069397 0.03588976711034775 -0.6290169954299927 -0.7765434980392456 0.27751100063323975 0.2106800079345703
0.6343264579772949 0.940239429473877 -0.4852607548236847 0.9681386947631836 0.12527848780155182 0.21677297353744507 0.04191809892654419 0.09656429290771484
0.6256400346755981 0.9432191848754883 -0.5021631717681885 0.41767632961273193 0.3102206587791443 -0.8539689183235168 0.04196830093860626 0.0834435224533081
0.6343264579772949 0.940239429473877 -0.4852607548236847 0.9681386947631836 0.12527848780155182 0.21677297353744507 0.04191809892654419 0.09656429290771484
0.6140690445899963 0.9470920562744141 -0.49553394317626953 -0.6975310444831848 0.6834925413131714 -0.2150334119796753 0.04369639977812767 0.06451177597045898
0.6227554678916931 0.9441123008728027 -0.47863152623176575 -0.14551225304603577 0.4980315566062927 0.8548234701156616 0.04217519983649254 0.022975802421569824
0.6435210704803467 0.9165184497833252 -0.47746196389198303 0.7603991627693176 -0.5755485892295837 0.3007904291152954 0.02727239951491356 0.014046311378479004
0.6435210704803467 0.9165184497833252 -0.47746196389198303 0.7603991627693176 -0.5755485892295837 0.3007904291152954 0.02727239951491356 0.014046311378479004
0.6227554678916931 0.9441123008728027 -0.47863152623176575 -0.14551225304603577 0.4980315566062927 0.8548234701156616 0.04217519983649254 0.022975802421569824
0.5924794673919678 0.9337800741195679 -0.5033327341079712 -0.9533982276916504 0.0020447401329874992 -0.3016144335269928 0.018581200391054153 0.07321351766586304
0.614361584186554 0.9262782335281372 -0.46075597405433655 -0.3237098157405853 -0.21268349885940552 0.921933650970459 0.018581200391054153 0.10388201475143433
0.6343264579772949 0.940239429473877 -0.4852607548236847 0.9681386947631836 0.12527848780155182 0.21677297353744507 0.04191809892654419 0.09656429290771484
0.8756855726242065 1.6613564491271973 -0.4852605164051056 0.9271218180656433 0.29068881273269653 0.23642688989639282 0.9762920141220093 0.09943187236785889
0.8671204447746277 1.664698600769043 -0.5021629333496094 0.40705588459968567 0.48030030727386475 -0.7768791913986206 0.9763420224189758 0.0863112211227417
0.6256400346755981 0.9432191848754883 -0.5021631717681885 0.41767632961273193 0.3102206587791443 -0.8539689183235168 0.04196830093860626 0.0834435224533081
0.7616865038871765 1.342636227607727 -0.5195345282554626 0.3986632823944092 0.4671468138694763 -0.7891781330108643 0.27751100063323975 0.3425009846687317
0.8641145825386047 1.665229320526123 -0.47863128781318665 -0.03707998991012573 0.6134220361709595 0.7888729572296143 0.9765490293502808 0.022975802421569824
0.8555494546890259 1.6685714721679688 -0.49553370475769043 -0.5530259013175964 0.8016601800918579 -0.22681355476379395 0.9780709743499756 0.06451171636581421
0.8671204447746277 1.664698600769043 -0.5021629333496094 0.40705588459968567 0.48030030727386475 -0.7768791913986206 0.9763420224189758 0.0863112211227417
135 6 0
6 135 5
196 7 1
7 198 197
1 8 2
8 1 7
2 9 3
9 2 8
3 10 4
10 3 9
4 5 135
5 4 10
199 201 200
202 204 203
205 207 206
208 210 209
211 213 212
214 216 215
217 219 218
220 222 221
29 27 30
27 29 28
51 42 50
42 51 43
47 46 54
46 47 39
14 17 16
17 14 13
12 15 18
15 12 11
19 25 20
25 19 24
53 44 52
44 53 45
89 87 90
87 89 88
48 39 47
39 48 40
223 32 31
32 225 224
226 22 23
22 226 227
49 40 48
40 49 41
228 34 229
34 38 36
230 38 34
231 38 232
81 79 82
79 81 80
233 50 42
50 235 234
133 131 134
131 133 132
113 111 114
111 113 112
236 31 32
31 236 33
105 103 106
103 105 104
237 56 238
56 239 55
240 57 241
57 242 56
243 58 244
58 245 57
246 59 247
59 248 58
249 60 250
60 251 59
252 61 253
61 254 60
255 62 256
62 257 61
258 55 259
55 260 62
261 64 262
64 263 63
264 65 265
65 266 64
267 66 268
66 270 269
271 67 272
67 273 66
274 68 275
68 276 67
277 69 278
69 279 68
280 70 281
70 282 69
283 63 284
63 285 70
126 119 120
119 126 123
286 15 16
15 286 287
288 11 289
11 288 14
112 115 111
115 112 116
96 99 95
99 96 100
78 75 77
75 78 76
80 83 79
83 80 84
16 11 14
11 16 15
290 33 291
33 290 35
97 95 98
95 97 96
72 78 74
78 72 76
292 77 73
77 293 78
294 75 71
75 295 77
76 296 75
296 76 297
298 35 299
35 298 37
300 81 85
81 301 80
302 82 86
82 303 81
304 79 305
79 306 82
54 45 53
45 54 46
134 127 128
127 134 131
92 89 93
89 92 88
307 90 94
90 308 89
309 87 91
87 310 90
23 21 26
21 23 22
104 107 103
107 104 108
311 97 101
97 312 96
313 98 102
98 314 97
315 95 316
95 317 98
52 43 51
43 52 44
121 119 122
119 121 120
318 105 109
105 319 104
320 106 110
106 321 105
322 103 323
103 324 106
325 113 117
113 326 112
327 114 118
114 328 113
329 111 330
111 331 114
129 127 130
127 129 128
26 20 25
20 26 21
88 332 87
332 88 333
120 125 126
125 120 334
335 123 124
123 336 119
30 37 337
37 30 27
128 338 134
339 128 340
341 131 342
131 343 127
344 123 126
123 344 345
35 31 33
31 27 28
27 35 37
31 35 27
154 151 153
151 154 150
142 140 143
140 142 141
150 148 151
148 150 149
139 346 138
347 139 348
137 349 136
350 137 351
154 152 155
152 154 153
352 155 353
155 354 154
355 152 356
152 357 155
358 145 359
145 360 144
137 146 361
146 137 145
143 147 142
147 143 146
362 363 138
364 365 147
366 144 367
144 366 145
368 370 369
370 368 371
151 152 153
152 151 372
373 375 374
375 373 139
174 171 173
171 174 170
162 160 163
160 162 161
170 168 171
168 170 169
159 376 158
377 159 378
157 379 156
380 157 381
174 172 175
172 174 173
382 175 383
175 384 174
385 172 386
172 387 175
388 165 389
165 390 164
157 166 391
166 157 165
163 167 162
167 163 166
392 393 158
394 395 167
396 164 397
164 396 165
398 400 399
400 398 401
171 172 173
172 171 402
403 405 404
405 403 159
194 191 193
191 194 190
182 180 183
180 182 181
190 188 191
188 190 189
179 406 178
407 179 408
177 409 176
410 177 411
194 192 195
192 194 193
412 195 413
195 414 194
415 192 416
192 417 195
418 185 419
185 420 184
177 186 421
186 177 185
183 187 182
187 183 186
422 423 178
424 425 187
426 184 427
184 426 185
428 430 429
430 428 431
191 192 193
192 191 432
433 435 434
435 433 179
MATERIALS 1
09 - Default
MATERIAL 09 - Default
1.0 1.0 1.0 1.0
1.0 1.0 1.0 1.0
1.0 1.0 1.0 1.0 50
0.0 0.0 0.0 1.0
TEXTURES 1
ProjectApollo\SubSatellite.dds
