MSHX1
GROUPS 1
LABEL A15LM_ABNORMAL_VEHICLE_DYNAMICS
MATERIAL 1
TEXTURE 1
FLAG 0
GEOM 4 2
0.4440 0.4479 1.6834 -1.0000 0.0000 0.0000 0.0000 1.0000
0.4440 0.4896 1.3768 -1.0000 0.0000 0.0000 1.0000 1.0000
0.4440 0.6724 1.7139 -1.0000 0.0000 0.0000
0.4440 0.7141 1.4073 -1.0000 0.0000 0.0000 1.0000 0.0000
0 3 1
0 2 3
MATERIALS 1
A15LM_ABNORMAL_VEHICLE_DYNAMICS
MATERIAL A15LM_ABNORMAL_VEHICLE_DYNAMICS
0.800 0.800 0.800 1.000
1.000 1.000 1.000 1.000
0.000 0.000 0.000 1.000 0.000
0.700 0.700 0.700 1.000
TEXTURES 1
ProjectApollo\VC\CueCards\A15LM_ABNORMAL_VEHICLE_DYNAMICS.dds
