MSHX1
GROUPS 1
LABEL A15LM_DPS_BURN
MATERIAL 1
TEXTURE 1
FLAG 0
GEOM 4 2
-0.4457 0.4742 1.4605 1.0000 0.0000 0.0000 0.0000 1.0000
-0.4457 0.4490 1.6457 1.0000 0.0000 0.0000 1.0000 1.0000
-0.4457 0.6980 1.4909 1.0000 0.0000 0.0000
-0.4457 0.6728 1.6762 1.0000 0.0000 0.0000 1.0000 0.0000
0 3 1
0 2 3
MATERIALS 1
A15LM_DPS_BURN
MATERIAL A15LM_DPS_BURN
0.800 0.800 0.800 1.000
1.000 1.000 1.000 1.000
0.000 0.000 0.000 1.000 0.000
0.700 0.700 0.700 1.000
TEXTURES 1
ProjectApollo\VC\CueCards\A15LM_DPS_BURN.dds
