MSHX1
GROUPS 1
LABEL A15LM_COAS_BORESIGHT_LOG
MATERIAL 1
TEXTURE 1
FLAG 0
GEOM 4 2
-0.4208 0.6215 1.7029 0.0000 0.1420 -0.9899 0.0000 1.0000
-0.1970 0.6215 1.7029 0.0000 0.1420 -0.9899 1.0000 1.0000
-0.4208 0.7983 1.7282 0.0000 0.1420 -0.9899
-0.1970 0.7983 1.7282 0.0000 0.1420 -0.9899 1.0000 0.0000
0 3 1
0 2 3
MATERIALS 1
A15LM_COAS_BORESIGHT_LOG
MATERIAL A15LM_COAS_BORESIGHT_LOG
0.800 0.800 0.800 1.000
1.000 1.000 1.000 1.000
0.000 0.000 0.000 1.000 0.000
0.700 0.700 0.700 1.000
TEXTURES 1
ProjectApollo\VC\CueCards\A15LM_COAS_BORESIGHT_LOG.dds
