MSHX1
GROUPS 1
LABEL A15LM_DEDA_ADDRESSES
MATERIAL 1
TEXTURE 1
FLAG 0
GEOM 4 2
0.3921 -0.0134 1.4209 0.0000 0.9842 -0.1770 0.0000 1.0000
0.5139 -0.0134 1.4209 0.0000 0.9842 -0.1770 1.0000 1.0000
0.3921 0.0006 1.4986 0.0000 0.9842 -0.1770
0.5139 0.0006 1.4986 0.0000 0.9842 -0.1770 1.0000 0.0000
0 3 1
0 2 3
MATERIALS 1
A15LM_DEDA_ADDRESSES
MATERIAL A15LM_DEDA_ADDRESSES
0.800 0.800 0.800 1.000
1.000 1.000 1.000 1.000
0.000 0.000 0.000 1.000 0.000
0.700 0.700 0.700 1.000
TEXTURES 1
ProjectApollo\VC\CueCards\A15LM_DEDA_ADDRESSES.dds
