MSHX1
GROUPS 1
LABEL A15LM_DESCENT_H_vs_HDOT
MATERIAL 1
TEXTURE 1
FLAG 0
GEOM 4 2
-0.2234 0.4905 1.6875 0.0000 0.1392 -0.9903 0.0000 1.0000
-0.1867 0.4905 1.6875 0.0000 0.1392 -0.9903 1.0000 1.0000
-0.2234 0.6060 1.7037 0.0000 0.1392 -0.9903
-0.1867 0.6060 1.7037 0.0000 0.1392 -0.9903 1.0000 0.0000
0 3 1
0 2 3
MATERIALS 1
A15LM_DESCENT_H_vs_HDOT
MATERIAL A15LM_DESCENT_H_vs_HDOT
0.800 0.800 0.800 1.000
1.000 1.000 1.000 1.000
0.000 0.000 0.000 1.000 0.000
0.700 0.700 0.700 1.000
TEXTURES 1
ProjectApollo\VC\CueCards\A15LM_DESCENT_H_vs_HDOT.dds
