MSHX1
GROUPS 1
LABEL A15LM_CDR_LMP_BUS_LOST
MATERIAL 1
TEXTURE 1
FLAG 0
GEOM 4 2
0.0444 0.1079 1.5333 0.0000 0.5771 -0.8167 0.0000 1.0000
0.1937 0.1079 1.5333 0.0000 0.5771 -0.8167 1.0000 1.0000
0.0444 0.1420 1.5573 0.0000 0.5771 -0.8167
0.1937 0.1420 1.5573 0.0000 0.5771 -0.8167 1.0000 0.0000
0 3 1
0 2 3
MATERIALS 1
A15LM_CDR_LMP_BUS_LOST
MATERIAL A15LM_CDR_LMP_BUS_LOST
0.800 0.800 0.800 1.000
1.000 1.000 1.000 1.000
0.000 0.000 0.000 1.000 0.000
0.700 0.700 0.700 1.000
TEXTURES 1
ProjectApollo\VC\CueCards\A15LM_CDR_LMP_BUS_LOST.dds
