MSHX1
GROUPS 1
LABEL A15LM_ALARM_CODES
MATERIAL 1
TEXTURE 1
FLAG 0
GEOM 4 2
-0.4457 0.4909 1.3995 1.0000 0.0000 -0.0000 0.0000 1.0000
-0.4457 0.4531 1.6825 1.0000 0.0000 -0.0000 1.0000 1.0000
-0.4457 0.7065 1.4282 1.0000 0.0000 -0.0000
-0.4457 0.6687 1.7112 1.0000 0.0000 -0.0000 1.0000 0.0000
0 3 1
0 2 3
MATERIALS 1
A15LM_ALARM_CODES
MATERIAL A15LM_ALARM_CODES
0.800 0.800 0.800 1.000
1.000 1.000 1.000 1.000
0.000 0.000 0.000 1.000 0.000
0.700 0.700 0.700 1.000
TEXTURES 1
ProjectApollo\VC\CueCards\A15LM_ALARM_CODES.dds
