MSHX1
GROUPS 1
LABEL A15LM_DPS_PROCEDURE
MATERIAL 1
TEXTURE 1
FLAG 0
GEOM 4 2
-0.4203 0.6275 1.7035 0.0000 0.1442 -0.9895 0.0000 1.0000
-0.1977 0.6275 1.7035 0.0000 0.1442 -0.9895 1.0000 1.0000
-0.4203 0.8043 1.7293 0.0000 0.1442 -0.9895
-0.1977 0.8043 1.7293 0.0000 0.1442 -0.9895 1.0000 0.0000
0 3 1
0 2 3
MATERIALS 1
A15LM_DPS_PROCEDURE
MATERIAL A15LM_DPS_PROCEDURE
1.000 1.000 1.000 1.000
1.000 1.000 1.000 1.000
0.000 0.000 0.000 1.000 0.000
0.745 0.745 0.745 1.000
TEXTURES 1
ProjectApollo\VC\CueCards\A15LM_DPS_PROCEDURE.dds
