MSHX1
GROUPS 1
LABEL A15LM_MISSION_RULES_NOGO
MATERIAL 1
TEXTURE 1
FLAG 0
GEOM 4 2
-0.4457 0.3975 1.4469 1.0000 0.0000 0.0000 0.0000 1.0000
-0.4457 0.3671 1.6704 1.0000 0.0000 0.0000 1.0000 1.0000
-0.4457 0.6987 1.4878 1.0000 0.0000 0.0000
-0.4457 0.6683 1.7114 1.0000 0.0000 0.0000 1.0000 0.0000
0 3 1
0 2 3
MATERIALS 1
A15LM_MISSION_RULES_NOGO
MATERIAL A15LM_MISSION_RULES_NOGO
0.800 0.800 0.800 1.000
1.000 1.000 1.000 1.000
0.000 0.000 0.000 1.000 0.000
0.700 0.700 0.700 1.000
TEXTURES 1
ProjectApollo\VC\CueCards\A15LM_MISSION_RULES_NOGO.dds
