MSHX1
GROUPS 1
LABEL A15LM_BUS_LOSS
MATERIAL 1
TEXTURE 1
FLAG 0
GEOM 4 2
-0.7408 0.6959 1.5155 0.7666 -0.1383 -0.6270 0.0000 1.0000
-0.6260 0.7170 1.6512 0.7666 -0.1383 -0.6270 1.0000 1.0000
-0.7382 0.7763 1.5009 0.7666 -0.1383 -0.6270
-0.6235 0.7974 1.6366 0.7666 -0.1383 -0.6270 1.0000 0.0000
0 3 1
0 2 3
MATERIALS 1
A15LM_BUS_LOSS
MATERIAL A15LM_BUS_LOSS
0.800 0.800 0.800 1.000
1.000 1.000 1.000 1.000
0.000 0.000 0.000 1.000 0.000
0.700 0.700 0.700 1.000
TEXTURES 1
ProjectApollo\VC\CueCards\A15LM_BUS_LOSS.dds
