MSHX1
GROUPS 1
LABEL A15LM_NO_DPI_APS_BURN
MATERIAL 1
TEXTURE 1
FLAG 0
GEOM 4 2
-0.4457 0.4614 1.4590 1.0000 0.0000 0.0000 0.0000 1.0000
-0.4457 0.4350 1.6536 1.0000 0.0000 0.0000 1.0000 1.0000
-0.4457 0.6980 1.4912 1.0000 0.0000 0.0000
-0.4457 0.6715 1.6857 1.0000 0.0000 0.0000 1.0000 0.0000
0 3 1
0 2 3
MATERIALS 1
A15LM_NO_DPI_APS_BURN
MATERIAL A15LM_NO_DPI_APS_BURN
0.800 0.800 0.800 1.000
1.000 1.000 1.000 1.000
0.000 0.000 0.000 1.000 0.000
0.700 0.700 0.700 1.000
TEXTURES 1
ProjectApollo\VC\CueCards\A15LM_NO_DPI_APS_BURN.dds
