MSHX1
GROUPS 1
LABEL A15LM_DPS_PRE_SHe_PRESS_RNG
MATERIAL 1
TEXTURE 1
FLAG 0
GEOM 4 2
0.0766 0.3301 1.6671 0.0000 0.1372 -0.9905 0.0000 1.0000
0.1665 0.3301 1.6671 0.0000 0.1372 -0.9905 1.0000 1.0000
0.0766 0.4033 1.6773 0.0000 0.1372 -0.9905
0.1665 0.4033 1.6773 0.0000 0.1372 -0.9905 1.0000 0.0000
0 3 1
0 2 3
MATERIALS 1
A15LM_DPS_PRE_SHe_PRESS_RNG
MATERIAL A15LM_DPS_PRE_SHe_PRESS_RNG
0.800 0.800 0.800 1.000
1.000 1.000 1.000 1.000
0.000 0.000 0.000 1.000 0.000
0.700 0.700 0.700 1.000
TEXTURES 1
ProjectApollo\VC\CueCards\A15LM_DPS_PRE_SHe_PRESS_RNG.dds
