MSHX1
GROUPS 1
LABEL A15LM_ABORT_OPS_MANUAL_STAGE_A
MATERIAL 1
TEXTURE 1
FLAG 0
GEOM 4 2
-0.4447 0.8491 1.7380 0.0000 0.1371 -0.9906 0.0000 1.0000
-0.3019 0.8491 1.7380 0.0000 0.1371 -0.9906 1.0000 1.0000
-0.4447 0.9659 1.7541 0.0000 0.1371 -0.9906
-0.3019 0.9659 1.7541 0.0000 0.1371 -0.9906 1.0000 0.0000
0 3 1
0 2 3
MATERIALS 1
A15LM_ABORT_OPS_MANUAL_STAGE_A
MATERIAL A15LM_ABORT_OPS_MANUAL_STAGE_A
0.800 0.800 0.800 1.000
1.000 1.000 1.000 1.000
0.000 0.000 0.000 1.000 0.000
0.700 0.700 0.700 1.000
TEXTURES 1
ProjectApollo\VC\CueCards\A15LM_ABORT_OPS_MANUAL_STAGE_A.dds
