MSHX1
GROUPS 1
LABEL A15LM_DPS_APS_RCS
MATERIAL 1
TEXTURE 1
FLAG 0
GEOM 4 2
-0.0895 0.2765 1.6558 0.0000 0.2157 -0.9764 0.0000 1.0000
0.1974 0.2765 1.6558 0.0000 0.2157 -0.9764 1.0000 1.0000
-0.0895 0.3300 1.6676 0.0000 0.2157 -0.9764
0.1974 0.3300 1.6676 0.0000 0.2157 -0.9764 1.0000 0.0000
0 3 1
0 2 3
MATERIALS 1
A15LM_DPS_APS_RCS
MATERIAL A15LM_DPS_APS_RCS
0.800 0.800 0.800 1.000
1.000 1.000 1.000 1.000
0.000 0.000 0.000 1.000 0.000
0.700 0.700 0.700 1.000
TEXTURES 1
ProjectApollo\VC\CueCards\A15LM_DPS_APS_RCS.dds
