MSHX1
GROUPS 1
LABEL A15LM_LIGHT_MEANING_IMMEDIATE
MATERIAL 1
TEXTURE 1
FLAG 0
GEOM 4 2
0.4440 0.4416 1.6819 -1.0000 0.0000 0.0000 0.0000 1.0000
0.4440 0.4816 1.3876 -1.0000 0.0000 0.0000 1.0000 1.0000
0.4440 0.6683 1.7127 -1.0000 0.0000 0.0000
0.4440 0.7083 1.4185 -1.0000 0.0000 0.0000 1.0000 0.0000
0 3 1
0 2 3
MATERIALS 1
A15LM_LIGHT_MEANING_IMMEDIATE
MATERIAL A15LM_LIGHT_MEANING_IMMEDIATE
0.800 0.800 0.800 1.000
1.000 1.000 1.000 1.000
0.000 0.000 0.000 1.000 0.000
0.700 0.700 0.700 1.000
TEXTURES 1
ProjectApollo\VC\CueCards\A15LM_LIGHT_MEANING_IMMEDIATE.dds
