MSHX1
GROUPS 1
LABEL A15LM_LM_COMM_MODES
MATERIAL 1
TEXTURE 1
FLAG 0
GEOM 4 2
0.8746 0.0085 0.8563 -0.2871 0.9579 -0.0000 0.0000 1.0000
0.8746 0.0085 0.6912 -0.2871 0.9579 -0.0000 1.0000 1.0000
1.1290 0.0847 0.8563 -0.2871 0.9579 -0.0000
1.1290 0.0847 0.6912 -0.2871 0.9579 -0.0000 1.0000 0.0000
0 3 1
0 2 3
MATERIALS 1
A15LM_LM_COMM_MODES
MATERIAL A15LM_LM_COMM_MODES
0.800 0.800 0.800 1.000
1.000 1.000 1.000 1.000
0.000 0.000 0.000 1.000 0.000
0.700 0.700 0.700 1.000
TEXTURES 1
ProjectApollo\VC\CueCards\A15LM_LM_COMM_MODES.dds
