MSHX1
GROUPS 1
LABEL A15LM_DPS_ASCENT
MATERIAL 1
TEXTURE 1
FLAG 0
GEOM 24 28
-0.2568 0.1831 1.5806 0.0000 0.7649 -0.6441 0.0000 1.0000
-0.1160 0.1831 1.5806 0.0000 0.7649 -0.6441 1.0000 1.0000
-0.2568 0.2986 1.6643 -0.0003 0.4376 -0.8992
-0.1160 0.2986 1.6643 -0.0054 0.4420 -0.8970 1.0000 0.0000
-0.2568 0.2637 1.6456 -0.0055 0.5517 -0.8340 0.0000 0.2760
-0.2568 0.2813 1.6559 -0.0021 0.4823 -0.8760 0.0000 0.1341
-0.1160 0.2814 1.6558 -0.0160 0.4968 -0.8677 1.0000 0.1341
-0.1160 0.2645 1.6445 -0.0343 0.5631 -0.8257 1.0000 0.2760
-0.1160 0.2084 1.6065 -0.0105 0.5971 -0.8021 1.0000 0.7468
-0.1160 0.1926 1.5920 0.0000 0.7404 -0.6722 1.0000 0.8968
-0.1160 0.2001 1.5997 0.0000 0.6765 -0.7364 1.0000 0.8218
-0.2568 0.1926 1.5920 0.0000 0.7404 -0.6722 0.0000 0.8968
-0.2568 0.2084 1.6065 -0.0018 0.6031 -0.7977 0.0000 0.7468
-0.2568 0.2001 1.5997 0.0000 0.6765 -0.7364 0.0000 0.8218
-0.1259 0.1831 1.5806 0.0000 0.7649 -0.6441 0.9298 1.0000
-0.1259 0.2986 1.6643 -0.0029 0.4398 -0.8981 0.9298 0.0000
-0.1259 0.2813 1.6559 -0.0090 0.4896 -0.8719 0.9298 0.1341
-0.1259 0.2643 1.6448 -0.0199 0.5575 -0.8299 0.9298 0.2760
-0.1259 0.2084 1.6065 -0.0062 0.6001 -0.7999 0.9298 0.7468
-0.1259 0.2001 1.5997 0.0000 0.6765 -0.7364 0.9298 0.8218
-0.1259 0.1926 1.5920 0.0000 0.7404 -0.6722 0.9298 0.8968
-0.2568 0.2455 1.6327 -0.0053 0.5729 -0.8196 0.0000 0.4314
-0.1160 0.2462 1.6316 -0.0316 0.5665 -0.8235 1.0000 0.4314
-0.1259 0.2460 1.6319 -0.0185 0.5697 -0.8216 0.9298 0.4314
23 7 22
23 17 7
16 3 6
16 15 3
16 4 5
16 17 4
18 13 12
18 19 13
19 11 13
19 20 11
14 9 1
14 20 9
0 20 14
0 11 20
10 20 19
10 9 20
8 19 18
8 10 19
6 17 16
6 7 17
5 15 16
5 2 15
21 17 23
21 4 17
12 23 18
12 21 23
18 22 8
18 23 22
MATERIALS 1
A15LM_DPS_ASCENT
MATERIAL A15LM_DPS_ASCENT
0.800 0.800 0.800 1.000
1.000 1.000 1.000 1.000
0.000 0.000 0.000 1.000 0.000
0.700 0.700 0.700 1.000
TEXTURES 1
ProjectApollo\VC\CueCards\A15LM_DPS_ASCENT.dds
