MSHX1
GROUPS 1
LABEL A15LM_DPS_ABORT_INSERTION
MATERIAL 1
TEXTURE 1
FLAG 0
GEOM 4 2
0.4440 0.4427 1.6540 -1.0000 0.0000 -0.0000 0.0000 1.0000
0.4440 0.4691 1.4597 -1.0000 0.0000 -0.0000 1.0000 1.0000
0.4440 0.6767 1.6858 -1.0000 0.0000 -0.0000
0.4440 0.7031 1.4915 -1.0000 0.0000 -0.0000 1.0000 0.0000
0 3 1
0 2 3
MATERIALS 1
A15LM_DPS_ABORT_INSERTION
MATERIAL A15LM_DPS_ABORT_INSERTION
0.800 0.800 0.800 1.000
1.000 1.000 1.000 1.000
0.000 0.000 0.000 1.000 0.000
0.700 0.700 0.700 1.000
TEXTURES 1
ProjectApollo\VC\CueCards\A15LM_DPS_ABORT_INSERTION.dds
