MSHX1
GROUPS 1
LABEL A15LM_S_BAND_ANTENNA_ANGLES
MATERIAL 1
TEXTURE 1
FLAG 0
GEOM 4 2
0.9446 0.2370 1.1901 -1.0000 0.0000 0.0000 0.0000 1.0000
0.9446 0.3056 1.1901 -1.0000 0.0000 0.0000 1.0000 1.0000
0.9446 0.2370 1.4110 -1.0000 0.0000 0.0000
0.9446 0.3056 1.4110 -1.0000 0.0000 0.0000 1.0000 0.0000
0 3 1
0 2 3
MATERIALS 1
A15LM_S_BAND_ANTENNA_ANGLES
MATERIAL A15LM_S_BAND_ANTENNA_ANGLES
0.800 0.800 0.800 1.000
1.000 1.000 1.000 1.000
0.000 0.000 0.000 1.000 0.000
0.700 0.700 0.700 1.000
TEXTURES 1
ProjectApollo\VC\CueCards\A15LM_S_BAND_ANTENNA_ANGLES.dds
