MSHX1
GROUPS 1
LABEL A15LM_STAGING
MATERIAL 1
TEXTURE 1
FLAG 0
GEOM 4 2
0.4440 0.4449 1.6518 -1.0000 0.0000 0.0000 0.0000 1.0000
0.4440 0.4707 1.4624 -1.0000 0.0000 0.0000 1.0000 1.0000
0.4440 0.6751 1.6831 -1.0000 0.0000 0.0000
0.4440 0.7009 1.4936 -1.0000 0.0000 0.0000 1.0000 0.0000
0 3 1
0 2 3
MATERIALS 1
A15LM_STAGING
MATERIAL A15LM_STAGING
0.800 0.800 0.800 1.000
1.000 1.000 1.000 1.000
0.000 0.000 0.000 1.000 0.000
0.700 0.700 0.700 1.000
TEXTURES 1
ProjectApollo\VC\CueCards\A15LM_STAGING.dds
