MSHX1
GROUPS 1
LABEL A15LM_LOSS_OF_COMM
MATERIAL 1
TEXTURE 1
FLAG 0
GEOM 4 2
0.9242 0.0228 0.8411 -0.2931 0.9561 0.0000 0.0000 1.0000
0.9242 0.0228 0.7063 -0.2931 0.9561 0.0000 1.0000 1.0000
1.1274 0.0851 0.8411 -0.2931 0.9561 0.0000
1.1274 0.0851 0.7063 -0.2931 0.9561 0.0000 1.0000 0.0000
0 3 1
0 2 3
MATERIALS 1
A15LM_LOSS_OF_COMM
MATERIAL A15LM_LOSS_OF_COMM
0.800 0.800 0.800 1.000
1.000 1.000 1.000 1.000
0.000 0.000 0.000 1.000 0.000
0.700 0.700 0.700 1.000
TEXTURES 1
ProjectApollo\VC\CueCards\A15LM_LOSS_OF_COMM.dds
