MSHX1
GROUPS 1
LABEL ASTP_LAUNCH_ABORT_PAD
MATERIAL 1
TEXTURE 1
FLAG 0
GEOM 4 2
0.2705 0.9065 -0.3257 -1.0000 0.0000 0.0000 0.0000 1.0000
0.2705 0.9553 -0.3973 -1.0000 0.0000 0.0000 1.0000 1.0000
0.2705 0.9953 -0.2651 -1.0000 0.0000 0.0000
0.2705 1.0442 -0.3367 -1.0000 0.0000 0.0000 1.0000 0.0000
0 3 1
0 2 3
MATERIALS 1
ASTP_LAUNCH_ABORT_PAD
MATERIAL ASTP_LAUNCH_ABORT_PAD
0.800 0.800 0.800 1.000
1.000 1.000 1.000 1.000
1.000 1.000 1.000 1.000 0.000
0.700 0.700 0.700 1.000
TEXTURES 1
ProjectApollo\VC\CueCards\ASTP_LAUNCH_ABORT_PAD.dds
