MSHX1
GROUPS 1
LABEL CueCard_ClickSpots_SmallArrows
MATERIAL 1
TEXTURE 0
FLAG 0
GEOM 775 288
0.7027 0.7935 0.3772 -0.6884 0.5802 0.4353
0.2400 0.4010 0.2555 0.6884 0.5753 0.4418
-0.4447 0.5839 0.3114 -0.6884 0.5802 0.4353
0.0300 0.7850 0.3870 0.6884 0.6301 0.3593
-0.7427 0.7649 0.3806 0.6884 0.5234 0.5022
-0.5365 0.5977 0.3241 -0.6884 0.5801 0.4354
0.4291 0.5395 0.2975 -0.6884 0.5802 0.4353
0.4793 0.6431 0.3359 -0.6884 0.5802 0.4353
0.5896 0.8671 0.4113 0.6884 0.5802 0.4353
-0.3385 0.6216 0.3290 0.6884 0.5789 0.4370
-0.2937 0.6782 0.3513 -0.6884 0.5801 0.4354
-0.2937 0.6877 0.3386 -0.6884 0.5801 0.4354
-0.2887 0.6830 0.3371 0.6884 0.5801 0.4354
-0.2937 0.6783 0.3355 0.6884 -0.7254 -0.0017
-0.2987 0.6830 0.3371 -0.6884 0.5801 0.4354
-0.5812 0.7901 0.3623 0.6884 0.5802 0.4353
-0.5812 0.7996 0.3496 0.6884 0.5802 0.4353
-0.5862 0.7948 0.3480 -0.6884 0.5802 0.4353
-0.5812 0.7901 0.3464 -0.6884 -0.7254 -0.0015
-0.5762 0.7948 0.3480 0.6884 0.5802 0.4353
-0.3385 0.6312 0.3163 0.6884 0.5789 0.4370
-0.3435 0.6264 0.3147 -0.6884 0.5789 0.4370
-0.3385 0.6217 0.3131 -0.6884 -0.7254 -0.0037
-0.3335 0.6264 0.3147 0.6884 0.5789 0.4370
0.5896 0.8766 0.3986 0.6884 0.5802 0.4353
0.5846 0.8719 0.3971 -0.6884 0.5802 0.4353
0.5896 0.8671 0.3955 -0.6884 -0.7254 -0.0015
0.5946 0.8719 0.3971 0.6884 0.5802 0.4353
0.4793 0.6526 0.3232 -0.6884 0.5802 0.4353
0.4843 0.6479 0.3216 0.6884 0.5802 0.4353
0.4793 0.6431 0.3201 0.6884 -0.7254 -0.0015
0.4743 0.6479 0.3216 -0.6884 0.5802 0.4353
0.3541 0.5514 0.3015 0.6884 0.5802 0.4353
0.3541 0.5609 0.2888 0.6884 0.5802 0.4353
0.3491 0.5561 0.2872 -0.6884 0.5802 0.4353
0.3541 0.5514 0.2857 -0.6884 -0.7254 -0.0015
0.3591 0.5561 0.2872 0.6884 0.5802 0.4353
0.4291 0.5490 0.2849 -0.6884 0.5802 0.4353
0.4341 0.5443 0.2833 0.6884 0.5802 0.4353
0.4291 0.5395 0.2817 0.6884 -0.7254 -0.0015
0.4241 0.5443 0.2833 -0.6884 0.5802 0.4353
-0.5365 0.6072 0.3114 0.0000 0.3175 -0.9483
-0.5315 0.6025 0.3098 0.0000 0.3175 -0.9483
-0.5365 0.5977 0.3082 0.0000 0.3175 -0.9483
-0.5415 0.6025 0.3098 0.0000 0.3175 -0.9483
-0.7427 0.7759 0.3692 0.6884 0.5234 0.5022
-0.7477 0.7714 0.3670 -0.6884 0.5234 0.5022
-0.7427 0.7669 0.3649 -0.6884 -0.7199 -0.0891
-0.7377 0.7714 0.3670 0.6884 0.5234 0.5022
1.0290 0.9655 -0.0302 0.3041 0.7074 -0.6380
1.0169 0.9620 -0.0399 0.3041 0.7074 -0.6380
1.0158 0.9577 -0.0344 -0.5550 0.7072 0.4380
1.0210 0.9534 -0.0367 0.0021 -0.4710 0.8821
1.0221 0.9577 -0.0422 0.3041 0.7074 -0.6380
-0.4447 0.7759 0.3757 0.6884 0.5802 0.4353
-0.4447 0.7854 0.3630 0.0000 0.3173 -0.9483
-0.4497 0.7807 0.3614 0.0000 0.3173 -0.9483
-0.4447 0.7760 0.3598 0.0000 0.3173 -0.9483
-0.4397 0.7807 0.3614 0.0000 0.3173 -0.9483
0.8964 0.5866 0.3168 0.6979 0.5713 0.4320
0.8961 0.5964 0.3043 -0.0203 0.3364 -0.9415
0.8911 0.5916 0.3028 -0.0203 0.3364 -0.9415
0.8961 0.5869 0.3010 -0.0203 0.3364 -0.9415
0.9011 0.5916 0.3025 -0.0203 0.3364 -0.9415
0.0300 0.7929 0.3732 -0.0000 0.1961 -0.9806
0.0250 0.7880 0.3722 -0.0000 0.1961 -0.9806
0.0300 0.7830 0.3713 -0.0000 0.1961 -0.9806
0.0350 0.7880 0.3722 -0.0000 0.1961 -0.9806
-0.4447 0.5934 0.2988 0.0000 0.3173 -0.9483
-0.4397 0.5887 0.2972 0.0000 0.3173 -0.9483
-0.4447 0.5839 0.2956 0.0000 0.3173 -0.9483
-0.4497 0.5887 0.2972 0.0000 0.3173 -0.9483
0.3100 0.9260 -0.2799 0.0000 -0.4872 0.8733
0.3050 0.9217 -0.2824 0.0000 -0.4872 0.8733
0.3100 0.9173 -0.2848 0.0000 -0.4872 0.8733
0.3150 0.9217 -0.2824 0.0000 -0.4872 0.8733
0.3100 0.9290 -0.2955 0.6884 0.7126 0.1356
0.2400 0.4107 0.2429 0.6884 0.5753 0.4418
0.2350 0.4059 0.2413 -0.6884 0.5753 0.4418
0.2400 0.4012 0.2396 -0.6884 -0.7253 -0.0097
0.2450 0.4059 0.2413 0.6884 0.5753 0.4418
1.0605 0.0689 -0.1350 -0.9999 0.0115 -0.0010
1.0605 0.0639 -0.1400 -0.9999 0.0115 -0.0010
1.0604 0.0589 -0.1350 -0.9999 0.0115 -0.0010
1.0604 0.0639 -0.1300 -0.9999 0.0115 -0.0010
1.0755 0.0638 -0.1350 0.2361 0.6856 0.6886
0.7027 0.8030 0.3645 0.0000 0.3173 -0.9483
0.7077 0.7983 0.3629 0.0000 0.3173 -0.9483
0.7027 0.7935 0.3613 0.0000 0.3173 -0.9483
0.6977 0.7983 0.3629 0.0000 0.3173 -0.9483
1.0175 0.9577 -0.0365 -0.7264 0.6055 0.3251
1.0199 0.9558 -0.0376 -0.1551 -0.6053 0.7808
1.0022 0.9459 -0.0487 -0.7264 0.6055 0.3251
0.2400 0.4156 0.2204 0.0000 0.3280 -0.9447
0.2377 0.4134 0.2197 0.0000 0.3280 -0.9447
-0.4470 0.7880 0.3397 0.0000 0.3172 -0.9483
-0.4447 0.7858 0.3390 0.0000 0.3172 -0.9483
0.8938 0.5916 0.3027 -0.7018 0.6659 0.2531
0.8961 0.5895 0.3019 -0.7121 -0.6659 -0.2226
-0.4424 0.5887 0.2972 0.7071 0.6706 0.2243
-0.4447 0.5865 0.2964 0.7071 -0.6706 -0.2243
0.3077 0.9105 -0.2624 0.0000 -0.4872 0.8733
0.3100 0.9085 -0.2635 0.0000 -0.4872 0.8733
0.3077 0.9217 -0.2824 -0.7071 0.6175 0.3445
0.2377 0.4059 0.2413 -0.7071 0.6680 0.2319
0.2400 0.4038 0.2405 -0.7071 -0.6680 -0.2319
1.0376 0.0642 -0.1373 -0.9999 0.0114 -0.0010
1.0605 0.0639 -0.1373 0.0088 0.7071 -0.7071
0.7050 0.7983 0.3629 0.7071 0.6706 0.2244
0.7027 0.7961 0.3622 0.7071 -0.6706 -0.2244
0.5896 0.8813 0.3761 0.0000 0.3173 -0.9483
0.5873 0.8791 0.3753 0.0000 0.3173 -0.9483
-0.5812 0.8043 0.3270 0.0000 0.3173 -0.9483
-0.5789 0.8021 0.3263 0.0000 0.3173 -0.9483
-0.5812 0.7970 0.3488 0.7071 0.6706 0.2243
-0.5835 0.7948 0.3480 -0.7071 0.6706 0.2244
-0.5789 0.7948 0.3480 0.7071 0.6706 0.2243
0.5896 0.8740 0.3978 0.7071 0.6706 0.2243
0.5873 0.8719 0.3971 -0.7071 0.6706 0.2243
0.5919 0.8719 0.3971 0.7071 0.6706 0.2243
0.3541 0.5583 0.2880 0.7071 0.6706 0.2243
0.3518 0.5561 0.2872 -0.7071 0.6706 0.2243
0.3564 0.5561 0.2872 0.7071 0.6706 0.2243
0.3541 0.5656 0.2662 0.0000 0.3172 -0.9483
0.4291 0.5537 0.2623 0.0000 0.3173 -0.9483
0.4268 0.5516 0.2616 0.0000 0.3173 -0.9483
0.4291 0.5464 0.2840 -0.7071 0.6706 0.2244
-0.5365 0.6046 0.3105 -0.7071 0.6705 0.2245
-0.5342 0.6025 0.3098 0.7071 0.6705 0.2245
-0.5388 0.6025 0.3098 -0.7071 0.6705 0.2245
-0.7427 0.7833 0.3473 0.0000 0.4295 -0.9031
-0.7404 0.7812 0.3463 0.0000 0.4295 -0.9031
1.0180 0.9596 -0.0390 0.1551 0.6052 -0.7808
1.0027 0.9478 -0.0512 0.1551 0.6052 -0.7808
0.2400 0.4113 0.2189 0.0000 0.3280 -0.9447
0.8961 0.5938 0.3034 0.7121 0.6659 0.2226
0.8956 0.6015 0.2819 -0.0203 0.3364 -0.9415
0.0277 0.7924 0.3498 0.0000 0.1961 -0.9806
0.0300 0.7902 0.3493 0.0000 0.1961 -0.9806
-0.4447 0.5908 0.2979 -0.7071 0.6706 0.2243
0.8934 0.5994 0.2811 -0.0203 0.3364 -0.9415
0.8956 0.5972 0.2803 -0.0203 0.3364 -0.9415
0.2400 0.4081 0.2420 0.7071 0.6680 0.2319
0.2423 0.4059 0.2413 0.7071 0.6680 0.2319
1.0050 0.9459 -0.0523 0.1551 0.6052 -0.7808
0.7027 0.8004 0.3636 -0.7071 0.6706 0.2243
0.5896 0.8770 0.3746 0.0000 0.3173 -0.9483
-0.5812 0.7927 0.3473 -0.7071 -0.6706 -0.2244
-0.5835 0.8021 0.3263 0.0000 0.3173 -0.9483
-0.4447 0.7828 0.3621 0.7071 0.6706 0.2243
-0.4424 0.7807 0.3614 0.7071 0.6706 0.2243
0.5896 0.8697 0.3963 -0.7071 -0.6706 -0.2243
0.3541 0.5540 0.2865 -0.7071 -0.6706 -0.2243
0.3518 0.5634 0.2655 0.0000 0.3172 -0.9483
-0.5365 0.6003 0.3091 0.7071 -0.6705 -0.2245
0.7004 0.7983 0.3629 -0.7071 0.6706 0.2243
1.0204 0.9577 -0.0401 0.1551 0.6052 -0.7808
0.0323 0.7924 0.3498 0.0000 0.1961 -0.9806
0.8979 0.5994 0.2810 -0.0203 0.3364 -0.9415
0.2423 0.4134 0.2197 0.0000 0.3280 -0.9447
-0.5812 0.8000 0.3256 0.0000 0.3173 -0.9483
0.4793 0.6530 0.2992 0.0000 0.3173 -0.9483
0.4793 0.6457 0.3209 0.7071 -0.6706 -0.2243
0.4291 0.5494 0.2608 0.0000 0.3173 -0.9483
0.4291 0.5421 0.2826 0.7071 -0.6706 -0.2243
0.0300 0.7902 0.3727 0.7071 0.6934 0.1387
0.0323 0.7880 0.3722 0.7071 0.6934 0.1387
-0.7427 0.7792 0.3454 0.0000 0.4295 -0.9031
-0.4424 0.7880 0.3397 0.0000 0.3172 -0.9483
0.8984 0.5916 0.3026 0.7121 0.6659 0.2226
1.0605 0.0662 -0.1350 0.0074 0.7071 0.7071
1.0604 0.0639 -0.1328 0.0074 0.7071 0.7071
-0.4470 0.5887 0.2972 -0.7071 0.6706 0.2243
0.3100 0.9197 -0.2835 -0.7071 -0.6175 -0.3445
-0.2960 0.6903 0.3153 0.0000 0.3175 -0.9483
-0.2960 0.6830 0.3371 -0.7071 0.6705 0.2245
0.5919 0.8791 0.3753 0.0000 0.3173 -0.9483
0.3564 0.5634 0.2655 0.0000 0.3172 -0.9483
0.4268 0.5443 0.2833 -0.7071 0.6706 0.2244
0.7027 0.8077 0.3419 0.0000 0.3173 -0.9483
0.7004 0.8056 0.3412 0.0000 0.3173 -0.9483
-0.4470 0.7807 0.3614 -0.7071 0.6706 0.2243
-0.4447 0.7786 0.3607 -0.7071 -0.6706 -0.2243
1.0376 0.0665 -0.1350 -0.9999 0.0114 -0.0010
1.0376 0.0642 -0.1328 -0.9999 0.0114 -0.0010
0.3100 0.9125 -0.2613 0.0000 -0.4872 0.8733
0.3123 0.9105 -0.2624 0.0000 -0.4872 0.8733
-0.4447 0.5981 0.2762 0.0000 0.3173 -0.9483
-0.4424 0.5959 0.2755 0.0000 0.3173 -0.9483
0.0277 0.7880 0.3722 -0.7071 0.6934 0.1387
0.0300 0.7857 0.3718 -0.7071 -0.6934 -0.1387
-0.4470 0.5959 0.2755 0.0000 0.3173 -0.9483
1.0604 0.0617 -0.1350 -0.0074 -0.7071 -0.7071
0.7050 0.8056 0.3412 0.0000 0.3173 -0.9483
0.4793 0.6573 0.3006 0.0000 0.3173 -0.9483
0.4816 0.6551 0.2999 0.0000 0.3173 -0.9483
0.4770 0.6551 0.2999 0.0000 0.3173 -0.9483
-0.2937 0.6924 0.3161 0.0000 0.3175 -0.9483
-0.2915 0.6903 0.3153 0.0000 0.3175 -0.9483
-0.2937 0.6852 0.3378 -0.7071 0.6705 0.2245
-0.2915 0.6830 0.3371 0.7071 0.6705 0.2245
-0.3385 0.6286 0.3155 0.7071 0.6699 0.2263
-0.3408 0.6264 0.3147 -0.7071 0.6699 0.2263
-0.3362 0.6264 0.3147 0.7071 0.6699 0.2263
0.4793 0.6500 0.3224 -0.7071 0.6706 0.2243
0.4816 0.6479 0.3216 0.7071 0.6706 0.2243
0.4770 0.6479 0.3216 -0.7071 0.6706 0.2243
0.4314 0.5443 0.2833 0.7071 0.6706 0.2243
-0.5365 0.6119 0.2888 0.0000 0.3175 -0.9483
-0.5388 0.6097 0.2881 0.0000 0.3175 -0.9483
-0.7427 0.7734 0.3680 0.7071 0.6385 0.3037
-0.7449 0.7714 0.3670 -0.7071 0.6386 0.3037
-0.7404 0.7714 0.3670 0.7071 0.6385 0.3037
0.3100 0.9236 -0.2813 0.7071 0.6175 0.3445
0.3123 0.9217 -0.2824 0.7071 0.6175 0.3445
0.0300 0.7947 0.3502 0.0000 0.1961 -0.9806
-0.2937 0.6881 0.3146 0.0000 0.3175 -0.9483
-0.2937 0.6809 0.3363 0.7071 -0.6705 -0.2245
-0.3385 0.6243 0.3140 -0.7071 -0.6699 -0.2263
-0.3408 0.6337 0.2930 0.0000 0.3201 -0.9474
-0.7427 0.7693 0.3661 -0.7071 -0.6386 -0.3037
0.7027 0.8034 0.3405 0.0000 0.3173 -0.9483
1.0375 0.0619 -0.1350 -0.9999 0.0114 -0.0010
-0.5365 0.6076 0.2874 0.0000 0.3175 -0.9483
-0.4447 0.5938 0.2747 0.0000 0.3173 -0.9483
-0.3362 0.6337 0.2930 0.0000 0.3201 -0.9474
-0.4447 0.7901 0.3404 0.0000 0.3172 -0.9483
-0.7449 0.7812 0.3463 0.0000 0.4295 -0.9031
-0.3385 0.6359 0.2938 0.0000 0.3201 -0.9474
0.4314 0.5516 0.2616 0.0000 0.3173 -0.9483
1.0045 0.9439 -0.0498 -0.1551 -0.6053 0.7808
0.3541 0.5613 0.2648 0.0000 0.3172 -0.9483
-0.3385 0.6316 0.2923 0.0000 0.3201 -0.9474
-0.5342 0.6097 0.2881 0.0000 0.3175 -0.9483
-0.2937 0.6782 0.3513 0.6884 0.5801 0.4354
-0.2937 0.6877 0.3386 0.6884 0.5801 0.4354
-0.2937 0.6782 0.3513 0.6884 -0.7254 -0.0017
-0.2887 0.6830 0.3371 0.6884 -0.7254 -0.0017
-0.2987 0.6830 0.3371 -0.6884 -0.7254 -0.0017
-0.2937 0.6782 0.3513 -0.6884 -0.7254 -0.0017
-0.2937 0.6783 0.3355 -0.6884 -0.7254 -0.0017
-0.5812 0.7901 0.3623 -0.6884 0.5802 0.4353
-0.5812 0.7996 0.3496 -0.6884 0.5802 0.4353
-0.5812 0.7901 0.3623 -0.6884 -0.7254 -0.0015
-0.5862 0.7948 0.3480 -0.6884 -0.7254 -0.0015
-0.5812 0.7901 0.3623 0.6884 -0.7254 -0.0015
-0.5762 0.7948 0.3480 0.6884 -0.7254 -0.0015
-0.5812 0.7901 0.3464 0.6884 -0.7254 -0.0015
-0.3385 0.6216 0.3290 -0.6884 0.5789 0.4370
-0.3385 0.6312 0.3163 -0.6884 0.5789 0.4370
-0.3385 0.6216 0.3290 -0.6884 -0.7254 -0.0037
-0.3435 0.6264 0.3147 -0.6884 -0.7254 -0.0037
-0.3385 0.6216 0.3290 0.6884 -0.7254 -0.0037
-0.3335 0.6264 0.3147 0.6884 -0.7254 -0.0037
-0.3385 0.6217 0.3131 0.6884 -0.7254 -0.0037
-0.5812 0.7996 0.3496 0.0000 0.3173 -0.9483
-0.5862 0.7948 0.3480 0.0000 0.3173 -0.9483
-0.5812 0.7901 0.3464 0.0000 0.3173 -0.9483
-0.5812 0.7996 0.3496 0.0000 0.3173 -0.9483
-0.5812 0.7901 0.3464 0.0000 0.3173 -0.9483
-0.5762 0.7948 0.3480 0.0000 0.3173 -0.9483
0.5896 0.8671 0.4113 -0.6884 0.5802 0.4353
0.5896 0.8766 0.3986 -0.6884 0.5802 0.4353
0.5896 0.8671 0.4113 -0.6884 -0.7254 -0.0015
0.5846 0.8719 0.3971 -0.6884 -0.7254 -0.0015
0.5896 0.8671 0.4113 0.6884 -0.7254 -0.0015
0.5946 0.8719 0.3971 0.6884 -0.7254 -0.0015
0.5896 0.8671 0.3955 0.6884 -0.7254 -0.0015
0.5896 0.8766 0.3986 0.0000 0.3173 -0.9483
0.5846 0.8719 0.3971 0.0000 0.3173 -0.9483
0.5896 0.8671 0.3955 0.0000 0.3173 -0.9483
0.5896 0.8766 0.3986 0.0000 0.3173 -0.9483
0.5896 0.8671 0.3955 0.0000 0.3173 -0.9483
0.5946 0.8719 0.3971 0.0000 0.3173 -0.9483
0.4793 0.6431 0.3359 0.6884 0.5802 0.4353
0.4793 0.6526 0.3232 0.6884 0.5802 0.4353
0.4793 0.6431 0.3359 0.6884 -0.7254 -0.0015
0.4843 0.6479 0.3216 0.6884 -0.7254 -0.0015
0.4743 0.6479 0.3216 -0.6884 -0.7254 -0.0015
0.4793 0.6431 0.3359 -0.6884 -0.7254 -0.0015
0.4793 0.6431 0.3201 -0.6884 -0.7254 -0.0015
0.3541 0.5514 0.3015 -0.6884 0.5802 0.4353
0.3541 0.5609 0.2888 -0.6884 0.5802 0.4353
0.3541 0.5514 0.3015 -0.6884 -0.7254 -0.0015
0.3491 0.5561 0.2872 -0.6884 -0.7254 -0.0015
0.3541 0.5514 0.3015 0.6884 -0.7254 -0.0015
0.3591 0.5561 0.2872 0.6884 -0.7254 -0.0015
0.3541 0.5514 0.2857 0.6884 -0.7254 -0.0015
0.4793 0.6526 0.3232 0.0000 0.3173 -0.9483
0.4743 0.6479 0.3216 0.0000 0.3173 -0.9483
0.4793 0.6431 0.3201 0.0000 0.3173 -0.9483
0.4793 0.6526 0.3232 0.0000 0.3173 -0.9483
0.4793 0.6431 0.3201 0.0000 0.3173 -0.9483
0.4843 0.6479 0.3216 0.0000 0.3173 -0.9483
0.4291 0.5395 0.2975 0.6884 0.5802 0.4353
0.4291 0.5490 0.2849 0.6884 0.5802 0.4353
0.4291 0.5395 0.2975 0.6884 -0.7254 -0.0015
0.4341 0.5443 0.2833 0.6884 -0.7254 -0.0015
0.4241 0.5443 0.2833 -0.6884 -0.7254 -0.0015
0.4291 0.5395 0.2975 -0.6884 -0.7254 -0.0015
0.4291 0.5395 0.2817 -0.6884 -0.7254 -0.0015
-0.5365 0.6072 0.3114 -0.6884 0.5801 0.4354
-0.5415 0.6025 0.3098 -0.6884 0.5801 0.4354
-0.5315 0.6025 0.3098 0.6884 0.5801 0.4354
-0.5365 0.5977 0.3241 0.6884 0.5801 0.4354
-0.5365 0.6072 0.3114 0.6884 0.5801 0.4354
-0.5365 0.5977 0.3082 0.6884 -0.7254 -0.0017
-0.5365 0.5977 0.3241 0.6884 -0.7254 -0.0017
-0.5315 0.6025 0.3098 0.6884 -0.7254 -0.0017
-0.5415 0.6025 0.3098 -0.6884 -0.7254 -0.0017
-0.5365 0.5977 0.3241 -0.6884 -0.7254 -0.0017
-0.5365 0.5977 0.3082 -0.6884 -0.7254 -0.0017
-0.7427 0.7649 0.3806 -0.6884 0.5234 0.5022
-0.7427 0.7759 0.3692 -0.6884 0.5234 0.5022
-0.7427 0.7649 0.3806 -0.6884 -0.7199 -0.0891
-0.7477 0.7714 0.3670 -0.6884 -0.7199 -0.0891
-0.7427 0.7649 0.3806 0.6884 -0.7199 -0.0891
-0.7377 0.7714 0.3670 0.6884 -0.7199 -0.0891
-0.7427 0.7669 0.3649 0.6884 -0.7199 -0.0891
1.0290 0.9655 -0.0302 -0.5550 0.7072 0.4380
1.0169 0.9620 -0.0399 -0.5550 0.7072 0.4380
1.0290 0.9655 -0.0302 0.0021 -0.4710 0.8821
1.0158 0.9577 -0.0344 0.0021 -0.4710 0.8821
1.0290 0.9655 -0.0302 0.8609 -0.4705 -0.1938
1.0221 0.9577 -0.0422 0.8609 -0.4705 -0.1938
1.0210 0.9534 -0.0367 0.8609 -0.4705 -0.1938
-0.4447 0.7854 0.3630 0.6884 0.5802 0.4353
-0.4397 0.7807 0.3614 0.6884 0.5802 0.4353
-0.4447 0.7759 0.3757 -0.6884 0.5802 0.4353
-0.4497 0.7807 0.3614 -0.6884 0.5802 0.4353
-0.4447 0.7854 0.3630 -0.6884 0.5802 0.4353
-0.4447 0.7759 0.3757 -0.6884 -0.7254 -0.0015
-0.4447 0.7760 0.3598 -0.6884 -0.7254 -0.0015
-0.4497 0.7807 0.3614 -0.6884 -0.7254 -0.0015
-0.4447 0.7759 0.3757 0.6884 -0.7254 -0.0015
-0.4397 0.7807 0.3614 0.6884 -0.7254 -0.0015
-0.4447 0.7760 0.3598 0.6884 -0.7254 -0.0015
0.8961 0.5964 0.3043 0.6979 0.5713 0.4320
0.9011 0.5916 0.3025 0.6979 0.5713 0.4320
0.8964 0.5866 0.3168 -0.6785 0.5713 0.4617
0.8911 0.5916 0.3028 -0.6785 0.5713 0.4617
0.8961 0.5964 0.3043 -0.6785 0.5713 0.4617
0.8964 0.5866 0.3168 -0.6886 -0.7252 -0.0013
0.8961 0.5869 0.3010 -0.6886 -0.7252 -0.0013
0.8911 0.5916 0.3028 -0.6886 -0.7252 -0.0013
0.8964 0.5866 0.3168 0.6879 -0.7252 -0.0311
0.9011 0.5916 0.3025 0.6879 -0.7252 -0.0311
0.8961 0.5869 0.3010 0.6879 -0.7252 -0.0311
0.0300 0.7929 0.3732 0.6884 0.6301 0.3593
0.0350 0.7880 0.3722 0.6884 0.6301 0.3593
0.0300 0.7850 0.3870 -0.6884 0.6301 0.3593
0.0250 0.7880 0.3722 -0.6884 0.6301 0.3593
0.0300 0.7929 0.3732 -0.6884 0.6301 0.3593
0.0300 0.7850 0.3870 -0.6884 -0.7198 0.0893
0.0300 0.7830 0.3713 -0.6884 -0.7198 0.0893
0.0250 0.7880 0.3722 -0.6884 -0.7198 0.0893
0.0300 0.7850 0.3870 0.6884 -0.7198 0.0893
0.0350 0.7880 0.3722 0.6884 -0.7198 0.0893
0.0300 0.7830 0.3713 0.6884 -0.7198 0.0893
-0.7427 0.7759 0.3692 0.0000 0.4295 -0.9031
-0.7477 0.7714 0.3670 0.0000 0.4295 -0.9031
-0.7427 0.7669 0.3649 0.0000 0.4295 -0.9031
-0.7427 0.7759 0.3692 0.0000 0.4295 -0.9031
-0.7427 0.7669 0.3649 0.0000 0.4295 -0.9031
-0.7377 0.7714 0.3670 0.0000 0.4295 -0.9031
-0.2937 0.6877 0.3386 0.0000 0.3175 -0.9483
-0.2987 0.6830 0.3371 0.0000 0.3175 -0.9483
-0.2937 0.6783 0.3355 0.0000 0.3175 -0.9483
-0.2937 0.6877 0.3386 0.0000 0.3175 -0.9483
-0.2937 0.6783 0.3355 0.0000 0.3175 -0.9483
-0.2887 0.6830 0.3371 0.0000 0.3175 -0.9483
1.0210 0.9534 -0.0367 -0.6694 -0.5169 -0.5336
1.0221 0.9577 -0.0422 -0.6694 -0.5169 -0.5336
1.0169 0.9620 -0.0399 -0.6694 -0.5169 -0.5336
1.0210 0.9534 -0.0367 -0.6694 -0.5169 -0.5336
1.0169 0.9620 -0.0399 -0.6694 -0.5169 -0.5336
1.0158 0.9577 -0.0344 -0.6694 -0.5169 -0.5336
-0.4447 0.5934 0.2988 -0.6884 0.5802 0.4353
-0.4497 0.5887 0.2972 -0.6884 0.5802 0.4353
-0.4397 0.5887 0.2972 0.6884 0.5802 0.4353
-0.4447 0.5839 0.3114 0.6884 0.5802 0.4353
-0.4447 0.5934 0.2988 0.6884 0.5802 0.4353
-0.4447 0.5839 0.2956 0.6884 -0.7254 -0.0015
-0.4447 0.5839 0.3114 0.6884 -0.7254 -0.0015
-0.4397 0.5887 0.2972 0.6884 -0.7254 -0.0015
-0.4497 0.5887 0.2972 -0.6884 -0.7254 -0.0015
-0.4447 0.5839 0.3114 -0.6884 -0.7254 -0.0015
-0.4447 0.5839 0.2956 -0.6884 -0.7254 -0.0015
0.3541 0.5609 0.2888 0.0000 0.3173 -0.9483
0.3491 0.5561 0.2872 0.0000 0.3173 -0.9483
0.3541 0.5514 0.2857 0.0000 0.3173 -0.9483
0.3541 0.5609 0.2888 0.0000 0.3173 -0.9483
0.3541 0.5514 0.2857 0.0000 0.3173 -0.9483
0.3591 0.5561 0.2872 0.0000 0.3173 -0.9483
0.3100 0.9260 -0.2799 0.6884 0.7126 0.1356
0.3150 0.9217 -0.2824 0.6884 0.7126 0.1356
0.3050 0.9217 -0.2824 -0.6884 0.7126 0.1356
0.3100 0.9290 -0.2955 -0.6884 0.7126 0.1356
0.3100 0.9260 -0.2799 -0.6884 0.7126 0.1356
0.3100 0.9173 -0.2848 -0.6884 -0.4897 -0.5351
0.3100 0.9290 -0.2955 -0.6884 -0.4897 -0.5351
0.3050 0.9217 -0.2824 -0.6884 -0.4897 -0.5351
0.3150 0.9217 -0.2824 0.6884 -0.4897 -0.5351
0.3100 0.9290 -0.2955 0.6884 -0.4897 -0.5351
0.3100 0.9173 -0.2848 0.6884 -0.4897 -0.5351
0.2400 0.4010 0.2555 -0.6884 0.5753 0.4418
0.2400 0.4107 0.2429 -0.6884 0.5753 0.4418
0.2400 0.4010 0.2555 -0.6884 -0.7253 -0.0097
0.2350 0.4059 0.2413 -0.6884 -0.7253 -0.0097
0.2400 0.4010 0.2555 0.6884 -0.7253 -0.0097
0.2450 0.4059 0.2413 0.6884 -0.7253 -0.0097
0.2400 0.4012 0.2396 0.6884 -0.7253 -0.0097
0.2400 0.4012 0.2396 0.0000 0.3280 -0.9447
0.2450 0.4059 0.2413 0.0000 0.3280 -0.9447
0.2400 0.4107 0.2429 0.0000 0.3280 -0.9447
0.2400 0.4012 0.2396 0.0000 0.3280 -0.9447
0.2400 0.4107 0.2429 0.0000 0.3280 -0.9447
0.2350 0.4059 0.2413 0.0000 0.3280 -0.9447
-0.3385 0.6312 0.3163 0.0000 0.3201 -0.9474
-0.3435 0.6264 0.3147 0.0000 0.3201 -0.9474
-0.3385 0.6217 0.3131 0.0000 0.3201 -0.9474
-0.3385 0.6312 0.3163 0.0000 0.3201 -0.9474
-0.3385 0.6217 0.3131 0.0000 0.3201 -0.9474
-0.3335 0.6264 0.3147 0.0000 0.3201 -0.9474
0.4291 0.5490 0.2849 0.0000 0.3173 -0.9483
0.4241 0.5443 0.2833 0.0000 0.3173 -0.9483
0.4291 0.5395 0.2817 0.0000 0.3173 -0.9483
0.4291 0.5490 0.2849 0.0000 0.3173 -0.9483
0.4291 0.5395 0.2817 0.0000 0.3173 -0.9483
0.4341 0.5443 0.2833 0.0000 0.3173 -0.9483
1.0605 0.0689 -0.1350 0.2361 0.6856 0.6886
1.0604 0.0639 -0.1300 0.2361 0.6856 0.6886
1.0605 0.0639 -0.1400 0.2376 0.6856 -0.6881
1.0755 0.0638 -0.1350 0.2376 0.6856 -0.6881
1.0605 0.0689 -0.1350 0.2376 0.6856 -0.6881
1.0604 0.0589 -0.1350 0.2212 -0.6910 -0.6882
1.0755 0.0638 -0.1350 0.2212 -0.6910 -0.6882
1.0605 0.0639 -0.1400 0.2212 -0.6910 -0.6882
1.0604 0.0639 -0.1300 0.2198 -0.6910 0.6886
1.0755 0.0638 -0.1350 0.2198 -0.6910 0.6886
1.0604 0.0589 -0.1350 0.2198 -0.6910 0.6886
0.7027 0.8030 0.3645 -0.6884 0.5802 0.4353
0.6977 0.7983 0.3629 -0.6884 0.5802 0.4353
0.7077 0.7983 0.3629 0.6884 0.5802 0.4353
0.7027 0.7935 0.3772 0.6884 0.5802 0.4353
0.7027 0.8030 0.3645 0.6884 0.5802 0.4353
0.7027 0.7935 0.3613 0.6884 -0.7254 -0.0015
0.7027 0.7935 0.3772 0.6884 -0.7254 -0.0015
0.7077 0.7983 0.3629 0.6884 -0.7254 -0.0015
0.6977 0.7983 0.3629 -0.6884 -0.7254 -0.0015
0.7027 0.7935 0.3772 -0.6884 -0.7254 -0.0015
0.7027 0.7935 0.3613 -0.6884 -0.7254 -0.0015
-0.2937 0.6924 0.3161 -0.7071 0.6705 0.2245
-0.2937 0.6924 0.3161 -0.7071 0.6705 0.2245
-0.2960 0.6903 0.3153 -0.7071 0.6705 0.2245
-0.2915 0.6903 0.3153 0.7071 0.6705 0.2245
-0.2937 0.6852 0.3378 0.7071 0.6705 0.2245
-0.2915 0.6903 0.3153 0.7071 0.6705 0.2245
-0.2937 0.6852 0.3378 0.7071 0.6705 0.2245
-0.2937 0.6924 0.3161 0.7071 0.6705 0.2245
-0.2937 0.6881 0.3146 0.7071 -0.6705 -0.2245
-0.2915 0.6830 0.3371 0.7071 -0.6705 -0.2245
-0.2937 0.6881 0.3146 0.7071 -0.6705 -0.2245
-0.2915 0.6830 0.3371 0.7071 -0.6705 -0.2245
-0.2915 0.6903 0.3153 0.7071 -0.6705 -0.2245
-0.2960 0.6903 0.3153 -0.7071 -0.6705 -0.2245
-0.2960 0.6830 0.3371 -0.7071 -0.6705 -0.2245
-0.2937 0.6809 0.3363 -0.7071 -0.6705 -0.2245
-0.2960 0.6903 0.3153 -0.7071 -0.6705 -0.2245
-0.2937 0.6809 0.3363 -0.7071 -0.6705 -0.2245
-0.2937 0.6881 0.3146 -0.7071 -0.6705 -0.2245
-0.5812 0.8043 0.3270 0.7071 0.6706 0.2243
-0.5789 0.8021 0.3263 0.7071 0.6706 0.2243
-0.5789 0.8021 0.3263 0.7071 0.6706 0.2243
-0.5835 0.8021 0.3263 -0.7071 0.6706 0.2244
-0.5812 0.8043 0.3270 -0.7071 0.6706 0.2244
-0.5812 0.8043 0.3270 -0.7071 0.6706 0.2244
-0.5812 0.7970 0.3488 -0.7071 0.6706 0.2244
-0.5812 0.8000 0.3256 -0.7071 -0.6706 -0.2244
-0.5835 0.8021 0.3263 -0.7071 -0.6706 -0.2244
-0.5835 0.8021 0.3263 -0.7071 -0.6706 -0.2244
-0.5835 0.7948 0.3480 -0.7071 -0.6706 -0.2244
-0.5789 0.7948 0.3480 0.7071 -0.6706 -0.2243
-0.5789 0.8021 0.3263 0.7071 -0.6706 -0.2243
-0.5812 0.8000 0.3256 0.7071 -0.6706 -0.2243
-0.5789 0.7948 0.3480 0.7071 -0.6706 -0.2243
-0.5812 0.8000 0.3256 0.7071 -0.6706 -0.2243
-0.5812 0.7927 0.3473 0.7071 -0.6706 -0.2243
-0.3385 0.6359 0.2938 0.7071 0.6699 0.2263
-0.3362 0.6337 0.2930 0.7071 0.6699 0.2263
-0.3362 0.6337 0.2930 0.7071 0.6699 0.2263
-0.3408 0.6337 0.2930 -0.7071 0.6699 0.2263
-0.3385 0.6359 0.2938 -0.7071 0.6699 0.2263
-0.3385 0.6359 0.2938 -0.7071 0.6699 0.2263
-0.3385 0.6286 0.3155 -0.7071 0.6699 0.2263
-0.3385 0.6316 0.2923 -0.7071 -0.6699 -0.2263
-0.3408 0.6337 0.2930 -0.7071 -0.6699 -0.2263
-0.3408 0.6337 0.2930 -0.7071 -0.6699 -0.2263
-0.3408 0.6264 0.3147 -0.7071 -0.6699 -0.2263
-0.3362 0.6264 0.3147 0.7071 -0.6699 -0.2263
-0.3362 0.6337 0.2930 0.7071 -0.6699 -0.2263
-0.3385 0.6316 0.2923 0.7071 -0.6699 -0.2263
-0.3362 0.6264 0.3147 0.7071 -0.6699 -0.2263
-0.3385 0.6316 0.2923 0.7071 -0.6699 -0.2263
-0.3385 0.6243 0.3140 0.7071 -0.6699 -0.2263
0.5896 0.8813 0.3761 0.7071 0.6706 0.2243
0.5919 0.8791 0.3753 0.7071 0.6706 0.2243
0.5919 0.8791 0.3753 0.7071 0.6706 0.2243
0.5873 0.8791 0.3753 -0.7071 0.6706 0.2243
0.5896 0.8813 0.3761 -0.7071 0.6706 0.2243
0.5896 0.8813 0.3761 -0.7071 0.6706 0.2243
0.5896 0.8740 0.3978 -0.7071 0.6706 0.2243
0.5896 0.8770 0.3746 -0.7071 -0.6706 -0.2243
0.5873 0.8791 0.3753 -0.7071 -0.6706 -0.2243
0.5873 0.8791 0.3753 -0.7071 -0.6706 -0.2243
0.5873 0.8719 0.3971 -0.7071 -0.6706 -0.2243
0.5919 0.8719 0.3971 0.7071 -0.6706 -0.2243
0.5919 0.8791 0.3753 0.7071 -0.6706 -0.2243
0.5896 0.8770 0.3746 0.7071 -0.6706 -0.2243
0.5919 0.8719 0.3971 0.7071 -0.6706 -0.2243
0.5896 0.8770 0.3746 0.7071 -0.6706 -0.2243
0.5896 0.8697 0.3963 0.7071 -0.6706 -0.2243
0.4793 0.6573 0.3006 -0.7071 0.6706 0.2243
0.4793 0.6573 0.3006 -0.7071 0.6706 0.2243
0.4770 0.6551 0.2999 -0.7071 0.6706 0.2243
0.4816 0.6551 0.2999 0.7071 0.6706 0.2243
0.4793 0.6500 0.3224 0.7071 0.6706 0.2243
0.4816 0.6551 0.2999 0.7071 0.6706 0.2243
0.4793 0.6500 0.3224 0.7071 0.6706 0.2243
0.4793 0.6573 0.3006 0.7071 0.6706 0.2243
0.4793 0.6530 0.2992 0.7071 -0.6706 -0.2243
0.4816 0.6479 0.3216 0.7071 -0.6706 -0.2243
0.4793 0.6530 0.2992 0.7071 -0.6706 -0.2243
0.4816 0.6479 0.3216 0.7071 -0.6706 -0.2243
0.4816 0.6551 0.2999 0.7071 -0.6706 -0.2243
0.4770 0.6551 0.2999 -0.7071 -0.6706 -0.2243
0.4770 0.6479 0.3216 -0.7071 -0.6706 -0.2243
0.4793 0.6457 0.3209 -0.7071 -0.6706 -0.2243
0.4770 0.6551 0.2999 -0.7071 -0.6706 -0.2243
0.4793 0.6457 0.3209 -0.7071 -0.6706 -0.2243
0.4793 0.6530 0.2992 -0.7071 -0.6706 -0.2243
0.3541 0.5656 0.2662 0.7071 0.6706 0.2243
0.3564 0.5634 0.2655 0.7071 0.6706 0.2243
0.3564 0.5634 0.2655 0.7071 0.6706 0.2243
0.3518 0.5634 0.2655 -0.7071 0.6706 0.2243
0.3541 0.5656 0.2662 -0.7071 0.6706 0.2243
0.3541 0.5656 0.2662 -0.7071 0.6706 0.2243
0.3541 0.5583 0.2880 -0.7071 0.6706 0.2243
0.3541 0.5613 0.2648 -0.7071 -0.6706 -0.2243
0.3518 0.5634 0.2655 -0.7071 -0.6706 -0.2243
0.3518 0.5634 0.2655 -0.7071 -0.6706 -0.2243
0.3518 0.5561 0.2872 -0.7071 -0.6706 -0.2243
0.3564 0.5561 0.2872 0.7071 -0.6706 -0.2243
0.3564 0.5634 0.2655 0.7071 -0.6706 -0.2243
0.3541 0.5613 0.2648 0.7071 -0.6706 -0.2243
0.3564 0.5561 0.2872 0.7071 -0.6706 -0.2243
0.3541 0.5613 0.2648 0.7071 -0.6706 -0.2243
0.3541 0.5540 0.2865 0.7071 -0.6706 -0.2243
0.4291 0.5537 0.2623 -0.7071 0.6706 0.2244
0.4291 0.5537 0.2623 -0.7071 0.6706 0.2244
0.4268 0.5516 0.2616 -0.7071 0.6706 0.2244
0.4314 0.5516 0.2616 0.7071 0.6706 0.2243
0.4291 0.5464 0.2840 0.7071 0.6706 0.2243
0.4314 0.5516 0.2616 0.7071 0.6706 0.2243
0.4291 0.5464 0.2840 0.7071 0.6706 0.2243
0.4291 0.5537 0.2623 0.7071 0.6706 0.2243
0.4291 0.5494 0.2608 0.7071 -0.6706 -0.2243
0.4314 0.5443 0.2833 0.7071 -0.6706 -0.2243
0.4291 0.5494 0.2608 0.7071 -0.6706 -0.2243
0.4314 0.5443 0.2833 0.7071 -0.6706 -0.2243
0.4314 0.5516 0.2616 0.7071 -0.6706 -0.2243
0.4268 0.5516 0.2616 -0.7071 -0.6706 -0.2244
0.4268 0.5443 0.2833 -0.7071 -0.6706 -0.2244
0.4291 0.5421 0.2826 -0.7071 -0.6706 -0.2244
0.4268 0.5516 0.2616 -0.7071 -0.6706 -0.2244
0.4291 0.5421 0.2826 -0.7071 -0.6706 -0.2244
0.4291 0.5494 0.2608 -0.7071 -0.6706 -0.2244
-0.5365 0.6119 0.2888 -0.7071 0.6705 0.2245
-0.5365 0.6119 0.2888 -0.7071 0.6705 0.2245
-0.5388 0.6097 0.2881 -0.7071 0.6705 0.2245
-0.5342 0.6097 0.2881 0.7071 0.6705 0.2245
-0.5365 0.6046 0.3105 0.7071 0.6705 0.2245
-0.5342 0.6097 0.2881 0.7071 0.6705 0.2245
-0.5365 0.6046 0.3105 0.7071 0.6705 0.2245
-0.5365 0.6119 0.2888 0.7071 0.6705 0.2245
-0.5365 0.6076 0.2874 0.7071 -0.6705 -0.2245
-0.5342 0.6025 0.3098 0.7071 -0.6705 -0.2245
-0.5365 0.6076 0.2874 0.7071 -0.6705 -0.2245
-0.5342 0.6025 0.3098 0.7071 -0.6705 -0.2245
-0.5342 0.6097 0.2881 0.7071 -0.6705 -0.2245
-0.5388 0.6097 0.2881 -0.7071 -0.6705 -0.2245
-0.5388 0.6025 0.3098 -0.7071 -0.6705 -0.2245
-0.5365 0.6003 0.3091 -0.7071 -0.6705 -0.2245
-0.5388 0.6097 0.2881 -0.7071 -0.6705 -0.2245
-0.5365 0.6003 0.3091 -0.7071 -0.6705 -0.2245
-0.5365 0.6076 0.2874 -0.7071 -0.6705 -0.2245
-0.7427 0.7833 0.3473 0.7071 0.6385 0.3037
-0.7404 0.7812 0.3463 0.7071 0.6385 0.3037
-0.7404 0.7812 0.3463 0.7071 0.6385 0.3037
-0.7449 0.7812 0.3463 -0.7071 0.6386 0.3037
-0.7427 0.7833 0.3473 -0.7071 0.6386 0.3037
-0.7427 0.7833 0.3473 -0.7071 0.6386 0.3037
-0.7427 0.7734 0.3680 -0.7071 0.6386 0.3037
-0.7427 0.7792 0.3454 -0.7071 -0.6386 -0.3037
-0.7449 0.7812 0.3463 -0.7071 -0.6386 -0.3037
-0.7449 0.7812 0.3463 -0.7071 -0.6386 -0.3037
-0.7449 0.7714 0.3670 -0.7071 -0.6386 -0.3037
-0.7404 0.7714 0.3670 0.7071 -0.6386 -0.3037
-0.7404 0.7812 0.3463 0.7071 -0.6386 -0.3037
-0.7427 0.7792 0.3454 0.7071 -0.6386 -0.3037
-0.7404 0.7714 0.3670 0.7071 -0.6386 -0.3037
-0.7427 0.7792 0.3454 0.7071 -0.6386 -0.3037
-0.7427 0.7693 0.3661 0.7071 -0.6386 -0.3037
1.0027 0.9478 -0.0512 -0.7264 0.6055 0.3251
1.0027 0.9478 -0.0512 -0.7264 0.6055 0.3251
1.0180 0.9596 -0.0390 -0.7264 0.6055 0.3251
1.0022 0.9459 -0.0487 -0.1551 -0.6053 0.7808
1.0022 0.9459 -0.0487 -0.1551 -0.6053 0.7808
1.0175 0.9577 -0.0365 -0.1551 -0.6053 0.7808
1.0204 0.9577 -0.0401 0.7265 -0.6055 -0.3250
1.0050 0.9459 -0.0523 0.7265 -0.6055 -0.3250
1.0045 0.9439 -0.0498 0.7265 -0.6055 -0.3250
1.0204 0.9577 -0.0401 0.7265 -0.6055 -0.3250
1.0045 0.9439 -0.0498 0.7265 -0.6055 -0.3250
1.0199 0.9558 -0.0376 0.7265 -0.6055 -0.3250
-0.4447 0.7901 0.3404 0.7071 0.6706 0.2243
-0.4424 0.7880 0.3397 0.7071 0.6706 0.2243
-0.4424 0.7880 0.3397 0.7071 0.6706 0.2243
-0.4470 0.7880 0.3397 -0.7071 0.6706 0.2243
-0.4447 0.7901 0.3404 -0.7071 0.6706 0.2243
-0.4447 0.7901 0.3404 -0.7071 0.6706 0.2243
-0.4447 0.7828 0.3621 -0.7071 0.6706 0.2243
-0.4447 0.7858 0.3390 -0.7071 -0.6706 -0.2243
-0.4470 0.7880 0.3397 -0.7071 -0.6706 -0.2243
-0.4470 0.7880 0.3397 -0.7071 -0.6706 -0.2243
-0.4470 0.7807 0.3614 -0.7071 -0.6706 -0.2243
-0.4424 0.7807 0.3614 0.7071 -0.6706 -0.2243
-0.4424 0.7880 0.3397 0.7071 -0.6706 -0.2243
-0.4447 0.7858 0.3390 0.7071 -0.6706 -0.2243
-0.4424 0.7807 0.3614 0.7071 -0.6706 -0.2243
-0.4447 0.7858 0.3390 0.7071 -0.6706 -0.2243
-0.4447 0.7786 0.3607 0.7071 -0.6706 -0.2243
0.8956 0.6015 0.2819 0.7121 0.6659 0.2226
0.8979 0.5994 0.2810 0.7121 0.6659 0.2226
0.8979 0.5994 0.2810 0.7121 0.6659 0.2226
0.8934 0.5994 0.2811 -0.7018 0.6659 0.2531
0.8956 0.6015 0.2819 -0.7018 0.6659 0.2531
0.8956 0.6015 0.2819 -0.7018 0.6659 0.2531
0.8961 0.5938 0.3034 -0.7018 0.6659 0.2531
0.8956 0.5972 0.2803 -0.7121 -0.6659 -0.2226
0.8934 0.5994 0.2811 -0.7121 -0.6659 -0.2226
0.8934 0.5994 0.2811 -0.7121 -0.6659 -0.2226
0.8938 0.5916 0.3027 -0.7121 -0.6659 -0.2226
0.8984 0.5916 0.3026 0.7018 -0.6659 -0.2531
0.8979 0.5994 0.2810 0.7018 -0.6659 -0.2531
0.8956 0.5972 0.2803 0.7018 -0.6659 -0.2531
0.8984 0.5916 0.3026 0.7018 -0.6659 -0.2531
0.8956 0.5972 0.2803 0.7018 -0.6659 -0.2531
0.8961 0.5895 0.3019 0.7018 -0.6659 -0.2531
0.0300 0.7947 0.3502 0.7071 0.6934 0.1387
0.0323 0.7924 0.3498 0.7071 0.6934 0.1387
0.0323 0.7924 0.3498 0.7071 0.6934 0.1387
0.0277 0.7924 0.3498 -0.7071 0.6934 0.1387
0.0300 0.7947 0.3502 -0.7071 0.6934 0.1387
0.0300 0.7947 0.3502 -0.7071 0.6934 0.1387
0.0300 0.7902 0.3727 -0.7071 0.6934 0.1387
0.0300 0.7902 0.3493 -0.7071 -0.6934 -0.1387
0.0277 0.7924 0.3498 -0.7071 -0.6934 -0.1387
0.0277 0.7924 0.3498 -0.7071 -0.6934 -0.1387
0.0277 0.7880 0.3722 -0.7071 -0.6934 -0.1387
0.0323 0.7880 0.3722 0.7071 -0.6934 -0.1387
0.0323 0.7924 0.3498 0.7071 -0.6934 -0.1387
0.0300 0.7902 0.3493 0.7071 -0.6934 -0.1387
0.0323 0.7880 0.3722 0.7071 -0.6934 -0.1387
0.0300 0.7902 0.3493 0.7071 -0.6934 -0.1387
0.0300 0.7857 0.3718 0.7071 -0.6934 -0.1387
-0.4447 0.5981 0.2762 -0.7071 0.6706 0.2243
-0.4447 0.5981 0.2762 -0.7071 0.6706 0.2243
-0.4470 0.5959 0.2755 -0.7071 0.6706 0.2243
-0.4424 0.5959 0.2755 0.7071 0.6706 0.2243
-0.4447 0.5908 0.2979 0.7071 0.6706 0.2243
-0.4424 0.5959 0.2755 0.7071 0.6706 0.2243
-0.4447 0.5908 0.2979 0.7071 0.6706 0.2243
-0.4447 0.5981 0.2762 0.7071 0.6706 0.2243
-0.4447 0.5938 0.2747 0.7071 -0.6706 -0.2243
-0.4424 0.5887 0.2972 0.7071 -0.6706 -0.2243
-0.4447 0.5938 0.2747 0.7071 -0.6706 -0.2243
-0.4424 0.5887 0.2972 0.7071 -0.6706 -0.2243
-0.4424 0.5959 0.2755 0.7071 -0.6706 -0.2243
-0.4470 0.5959 0.2755 -0.7071 -0.6706 -0.2243
-0.4470 0.5887 0.2972 -0.7071 -0.6706 -0.2243
-0.4447 0.5865 0.2964 -0.7071 -0.6706 -0.2243
-0.4470 0.5959 0.2755 -0.7071 -0.6706 -0.2243
-0.4447 0.5865 0.2964 -0.7071 -0.6706 -0.2243
-0.4447 0.5938 0.2747 -0.7071 -0.6706 -0.2243
0.3100 0.9125 -0.2613 0.7071 0.6175 0.3445
0.3100 0.9125 -0.2613 0.7071 0.6175 0.3445
0.3123 0.9105 -0.2624 0.7071 0.6175 0.3445
0.3077 0.9105 -0.2624 -0.7071 0.6175 0.3445
0.3100 0.9236 -0.2813 -0.7071 0.6175 0.3445
0.3077 0.9105 -0.2624 -0.7071 0.6175 0.3445
0.3100 0.9236 -0.2813 -0.7071 0.6175 0.3445
0.3100 0.9125 -0.2613 -0.7071 0.6175 0.3445
0.3100 0.9085 -0.2635 -0.7071 -0.6175 -0.3445
0.3077 0.9217 -0.2824 -0.7071 -0.6175 -0.3445
0.3100 0.9085 -0.2635 -0.7071 -0.6175 -0.3445
0.3077 0.9217 -0.2824 -0.7071 -0.6175 -0.3445
0.3077 0.9105 -0.2624 -0.7071 -0.6175 -0.3445
0.3123 0.9105 -0.2624 0.7071 -0.6175 -0.3445
0.3123 0.9217 -0.2824 0.7071 -0.6175 -0.3445
0.3100 0.9197 -0.2835 0.7071 -0.6175 -0.3445
0.3123 0.9105 -0.2624 0.7071 -0.6175 -0.3445
0.3100 0.9197 -0.2835 0.7071 -0.6175 -0.3445
0.3100 0.9085 -0.2635 0.7071 -0.6175 -0.3445
0.2400 0.4156 0.2204 0.7071 0.6680 0.2319
0.2423 0.4134 0.2197 0.7071 0.6680 0.2319
0.2423 0.4134 0.2197 0.7071 0.6680 0.2319
0.2377 0.4134 0.2197 -0.7071 0.6680 0.2319
0.2400 0.4156 0.2204 -0.7071 0.6680 0.2319
0.2400 0.4156 0.2204 -0.7071 0.6680 0.2319
0.2400 0.4081 0.2420 -0.7071 0.6680 0.2319
0.2400 0.4113 0.2189 -0.7071 -0.6680 -0.2319
0.2377 0.4134 0.2197 -0.7071 -0.6680 -0.2319
0.2377 0.4134 0.2197 -0.7071 -0.6680 -0.2319
0.2377 0.4059 0.2413 -0.7071 -0.6680 -0.2319
0.2423 0.4059 0.2413 0.7071 -0.6680 -0.2319
0.2423 0.4134 0.2197 0.7071 -0.6680 -0.2319
0.2400 0.4113 0.2189 0.7071 -0.6680 -0.2319
0.2423 0.4059 0.2413 0.7071 -0.6680 -0.2319
0.2400 0.4113 0.2189 0.7071 -0.6680 -0.2319
0.2400 0.4038 0.2405 0.7071 -0.6680 -0.2319
1.0376 0.0665 -0.1350 0.0074 0.7071 0.7071
1.0376 0.0665 -0.1350 0.0074 0.7071 0.7071
1.0376 0.0642 -0.1328 0.0074 0.7071 0.7071
1.0376 0.0642 -0.1373 0.0088 0.7071 -0.7071
1.0605 0.0662 -0.1350 0.0088 0.7071 -0.7071
1.0376 0.0642 -0.1373 0.0088 0.7071 -0.7071
1.0605 0.0662 -0.1350 0.0088 0.7071 -0.7071
1.0376 0.0665 -0.1350 0.0088 0.7071 -0.7071
1.0375 0.0619 -0.1350 -0.0074 -0.7071 -0.7071
1.0605 0.0639 -0.1373 -0.0074 -0.7071 -0.7071
1.0375 0.0619 -0.1350 -0.0074 -0.7071 -0.7071
1.0605 0.0639 -0.1373 -0.0074 -0.7071 -0.7071
1.0376 0.0642 -0.1373 -0.0074 -0.7071 -0.7071
1.0376 0.0642 -0.1328 -0.0088 -0.7071 0.7071
1.0604 0.0639 -0.1328 -0.0088 -0.7071 0.7071
1.0604 0.0617 -0.1350 -0.0088 -0.7071 0.7071
1.0376 0.0642 -0.1328 -0.0088 -0.7071 0.7071
1.0604 0.0617 -0.1350 -0.0088 -0.7071 0.7071
1.0375 0.0619 -0.1350 -0.0088 -0.7071 0.7071
0.7027 0.8077 0.3419 -0.7071 0.6706 0.2243
0.7027 0.8077 0.3419 -0.7071 0.6706 0.2243
0.7004 0.8056 0.3412 -0.7071 0.6706 0.2243
0.7050 0.8056 0.3412 0.7071 0.6706 0.2244
0.7027 0.8004 0.3636 0.7071 0.6706 0.2244
0.7050 0.8056 0.3412 0.7071 0.6706 0.2244
0.7027 0.8004 0.3636 0.7071 0.6706 0.2244
0.7027 0.8077 0.3419 0.7071 0.6706 0.2244
0.7027 0.8034 0.3405 0.7071 -0.6706 -0.2244
0.7050 0.7983 0.3629 0.7071 -0.6706 -0.2244
0.7027 0.8034 0.3405 0.7071 -0.6706 -0.2244
0.7050 0.7983 0.3629 0.7071 -0.6706 -0.2244
0.7050 0.8056 0.3412 0.7071 -0.6706 -0.2244
0.7004 0.8056 0.3412 -0.7071 -0.6706 -0.2244
0.7004 0.7983 0.3629 -0.7071 -0.6706 -0.2244
0.7027 0.7961 0.3622 -0.7071 -0.6706 -0.2244
0.7004 0.8056 0.3412 -0.7071 -0.6706 -0.2244
0.7027 0.7961 0.3622 -0.7071 -0.6706 -0.2244
0.7027 0.8034 0.3405 -0.7071 -0.6706 -0.2244
1.0027 0.9478 -0.0512 -0.6696 -0.5167 -0.5335
1.0022 0.9459 -0.0487 -0.6696 -0.5167 -0.5335
1.0045 0.9439 -0.0498 -0.6696 -0.5167 -0.5335
1.0027 0.9478 -0.0512 -0.6696 -0.5167 -0.5335
1.0045 0.9439 -0.0498 -0.6696 -0.5167 -0.5335
1.0050 0.9459 -0.0523 -0.6696 -0.5167 -0.5335
11 14 10
12 235 234
13 237 236
238 240 239
15 19 16
241 242 17
243 244 18
245 247 246
9 23 20
248 249 21
250 251 22
252 254 253
255 257 256
258 260 259
8 27 24
261 262 25
263 264 26
265 267 266
268 270 269
271 273 272
70 68 69
70 71 68
62 60 63
62 61 60
58 56 55
58 57 56
28 31 7
29 275 274
30 277 276
278 280 279
32 36 33
281 282 34
283 284 35
285 287 286
67 65 64
67 66 65
288 290 289
291 293 292
74 72 73
74 75 72
37 40 6
38 295 294
39 297 296
298 300 299
41 43 44
41 42 43
301 302 5
303 305 304
306 308 307
309 311 310
4 48 45
312 313 46
314 315 47
316 318 317
84 82 83
84 81 82
49 53 50
319 320 51
321 322 52
323 325 324
54 327 326
328 330 329
331 333 332
334 336 335
59 338 337
339 341 340
342 344 343
345 347 346
3 349 348
350 352 351
353 355 354
356 358 357
359 361 360
362 364 363
365 367 366
368 370 369
371 373 372
374 376 375
377 378 2
379 381 380
382 384 383
385 387 386
388 390 389
391 393 392
394 395 76
396 398 397
399 401 400
402 404 403
1 80 77
405 406 78
407 408 79
409 411 410
412 414 413
415 417 416
88 86 87
88 89 86
418 420 419
421 423 422
424 426 425
427 429 428
430 431 85
432 434 433
435 437 436
438 440 439
441 442 0
443 445 444
446 448 447
449 451 450
226 96 95
226 168 96
112 160 148
112 113 160
215 138 137
215 157 138
208 223 209
208 233 223
110 146 111
110 176 146
136 141 140
136 158 141
179 221 180
179 193 221
124 163 125
124 229 163
228 232 219
228 225 232
130 167 227
130 131 167
194 161 196
194 195 161
93 134 94
93 159 134
197 216 174
197 198 216
123 231 153
123 177 231
183 222 184
183 106 222
185 102 186
185 101 102
187 224 191
187 188 224
452 175 199
453 454 175
455 456 200
457 459 458
460 461 217
462 464 463
465 467 466
468 470 469
114 472 471
114 116 473
115 475 474
115 477 476
147 479 478
147 481 480
482 484 483
485 487 486
201 489 488
201 203 490
202 492 491
202 494 493
218 496 495
218 498 497
499 501 500
502 504 503
117 506 505
117 119 507
118 509 508
118 511 510
151 513 512
151 515 514
516 518 517
519 521 520
522 206 204
523 524 206
525 526 205
527 529 528
530 531 162
532 534 533
535 537 536
538 540 539
120 542 541
120 122 543
121 545 544
121 547 546
152 549 548
152 551 550
552 554 553
555 557 556
558 178 126
559 560 178
561 562 207
563 565 564
566 567 164
568 570 569
571 573 572
574 576 575
577 129 127
578 579 129
580 581 128
582 584 583
585 586 154
587 589 588
590 592 591
593 595 594
210 597 596
210 212 598
211 600 599
211 602 601
220 604 603
220 606 605
607 609 608
610 612 611
132 144 133
132 156 144
90 613 92
90 615 614
91 616 230
91 618 617
619 621 620
622 624 623
149 626 625
149 150 627
181 629 628
181 631 630
182 633 632
182 635 634
636 638 637
639 641 640
135 643 642
135 169 644
97 646 645
97 648 647
98 650 649
98 652 651
653 655 654
656 658 657
165 660 659
165 166 661
189 663 662
189 665 664
190 667 666
190 669 668
670 672 671
673 675 674
676 172 139
677 678 172
679 680 99
681 683 682
684 685 100
686 688 687
689 691 690
692 694 693
695 214 213
696 697 214
698 699 103
700 702 701
703 704 173
705 707 706
708 710 709
711 713 712
142 715 714
142 143 716
104 718 717
104 720 719
105 722 721
105 724 723
725 727 726
728 730 729
731 171 170
732 733 171
734 735 107
736 738 737
739 740 192
741 743 742
744 746 745
747 749 748
750 155 145
751 752 155
753 754 108
755 757 756
758 759 109
760 762 761
763 765 764
766 768 767
769 771 770
772 774 773
MATERIALS 1
PointingArrow.001
MATERIAL PointingArrow.001
1.000 1.000 0.000 1.000
1.000 1.000 1.000 1.000
1.000 1.000 1.000 1.000 0.000
0.614 0.614 0.000 0.000
TEXTURES 0
