MSHX1
GROUPS 1
LABEL CueCard_ClickSpots_SmallArrows
MATERIAL 1
TEXTURE 0
FLAG 0
GEOM 672 224
-0.3013 0.7171 1.7382 -0.6866 0.6494 0.3268
-0.3013 0.7243 1.7240 -0.6866 0.6494 0.3268
-0.2963 0.7194 1.7232 0.6866 0.6494 0.3268
-0.3013 0.7144 1.7226 0.6925 -0.7102 0.1263
-0.3063 0.7194 1.7232 -0.6866 0.6494 0.3268
-0.3013 0.7205 1.7003 -0.0067 0.1382 -0.9904
-0.3013 0.7171 1.7229 0.7084 -0.6981 -0.1044
-0.3013 0.7249 1.7009 -0.0067 0.1382 -0.9904
-0.2990 0.7226 1.7006 0.0067 0.1382 -0.9904
-0.3036 0.7226 1.7006 -0.0067 0.1382 -0.9904
-0.3013 0.7216 1.7237 -0.6985 0.7079 0.1049
-0.2990 0.7194 1.7232 0.6985 0.7082 0.1029
-0.3036 0.7194 1.7232 -0.6985 0.7079 0.1049
-0.3013 0.7171 1.7382 0.6866 0.6494 0.3268
-0.3013 0.7243 1.7240 0.6866 0.6494 0.3268
-0.3013 0.7171 1.7382 0.6925 -0.7102 0.1263
-0.2963 0.7194 1.7232 0.6925 -0.7102 0.1263
-0.3063 0.7194 1.7232 -0.6925 -0.7102 0.1263
-0.3013 0.7171 1.7382 -0.6925 -0.7102 0.1263
-0.3013 0.7144 1.7226 -0.6925 -0.7102 0.1263
-0.3013 0.7243 1.7240 0.0126 0.1389 -0.9902
-0.3063 0.7194 1.7232 0.0126 0.1389 -0.9902
-0.3013 0.7144 1.7226 0.0126 0.1389 -0.9902
-0.3013 0.7243 1.7240 -0.0126 0.1389 -0.9902
-0.3013 0.7144 1.7226 -0.0126 0.1389 -0.9902
-0.2963 0.7194 1.7232 -0.0126 0.1389 -0.9902
-0.3013 0.7249 1.7009 -0.6985 0.7079 0.1049
-0.3013 0.7249 1.7009 -0.7084 0.6985 0.1015
-0.3036 0.7226 1.7006 -0.7084 0.6985 0.1015
-0.2990 0.7226 1.7006 0.6985 0.7082 0.1029
-0.3013 0.7216 1.7237 0.6985 0.7082 0.1029
-0.2990 0.7226 1.7006 0.7084 0.6982 0.1034
-0.3013 0.7216 1.7237 0.7084 0.6982 0.1034
-0.3013 0.7249 1.7009 0.7084 0.6982 0.1034
-0.3013 0.7205 1.7003 0.7084 -0.6981 -0.1044
-0.2990 0.7194 1.7232 0.7084 -0.6981 -0.1044
-0.3013 0.7205 1.7003 0.6934 -0.7130 -0.1036
-0.2990 0.7194 1.7232 0.6934 -0.7130 -0.1036
-0.2990 0.7226 1.7006 0.6934 -0.7130 -0.1036
-0.3036 0.7226 1.7006 -0.7084 -0.6985 -0.1015
-0.3036 0.7194 1.7232 -0.7084 -0.6985 -0.1015
-0.3013 0.7171 1.7229 -0.7084 -0.6985 -0.1015
-0.3036 0.7226 1.7006 -0.6934 -0.7126 -0.1066
-0.3013 0.7171 1.7229 -0.6934 -0.7126 -0.1066
-0.3013 0.7205 1.7003 -0.6934 -0.7126 -0.1066
0.1340 0.1266 1.5513 -0.6866 0.4411 0.5779
0.1340 0.1392 1.5417 -0.6866 0.4411 0.5779
0.1390 0.1351 1.5389 0.6866 0.4411 0.5779
0.1340 0.1309 1.5361 0.6925 -0.6940 -0.1970
0.1290 0.1351 1.5389 -0.6866 0.4411 0.5779
0.1340 0.1461 1.5187 -0.0067 0.5574 -0.8302
0.1340 0.1332 1.5376 0.7084 -0.5821 -0.3992
0.1340 0.1499 1.5212 -0.0067 0.5574 -0.8302
0.1363 0.1479 1.5200 0.0067 0.5574 -0.8302
0.1317 0.1479 1.5200 -0.0067 0.5574 -0.8302
0.1340 0.1369 1.5402 -0.6986 0.5907 0.4038
0.1363 0.1351 1.5389 0.6985 0.5918 0.4022
0.1317 0.1351 1.5389 -0.6986 0.5907 0.4038
0.1340 0.1266 1.5513 0.6866 0.4411 0.5779
0.1340 0.1392 1.5417 0.6866 0.4411 0.5779
0.1340 0.1266 1.5513 0.6925 -0.6940 -0.1970
0.1390 0.1351 1.5389 0.6925 -0.6940 -0.1970
0.1290 0.1351 1.5389 -0.6925 -0.6940 -0.1970
0.1340 0.1266 1.5513 -0.6925 -0.6940 -0.1970
0.1340 0.1309 1.5361 -0.6925 -0.6940 -0.1970
0.1340 0.1392 1.5417 0.0126 0.5580 -0.8298
0.1290 0.1351 1.5389 0.0126 0.5580 -0.8298
0.1340 0.1309 1.5361 0.0126 0.5580 -0.8298
0.1340 0.1392 1.5417 -0.0126 0.5580 -0.8298
0.1340 0.1309 1.5361 -0.0126 0.5580 -0.8298
0.1390 0.1351 1.5389 -0.0126 0.5580 -0.8298
0.1340 0.1499 1.5212 -0.6986 0.5907 0.4038
0.1340 0.1499 1.5212 -0.7084 0.5837 0.3967
0.1317 0.1479 1.5200 -0.7084 0.5837 0.3967
0.1363 0.1479 1.5200 0.6985 0.5918 0.4022
0.1340 0.1369 1.5402 0.6985 0.5918 0.4022
0.1363 0.1479 1.5200 0.7084 0.5827 0.3984
0.1340 0.1369 1.5402 0.7084 0.5827 0.3984
0.1340 0.1499 1.5212 0.7084 0.5827 0.3984
0.1340 0.1461 1.5187 0.7084 -0.5821 -0.3992
0.1363 0.1351 1.5389 0.7084 -0.5821 -0.3992
0.1340 0.1461 1.5187 0.6934 -0.5959 -0.4050
0.1363 0.1351 1.5389 0.6934 -0.5959 -0.4050
0.1363 0.1479 1.5200 0.6934 -0.5959 -0.4050
0.1317 0.1479 1.5200 -0.7084 -0.5837 -0.3967
0.1317 0.1351 1.5389 -0.7084 -0.5837 -0.3967
0.1340 0.1332 1.5376 -0.7084 -0.5837 -0.3967
0.1317 0.1479 1.5200 -0.6934 -0.5942 -0.4075
0.1340 0.1332 1.5376 -0.6934 -0.5942 -0.4075
0.1340 0.1461 1.5187 -0.6934 -0.5942 -0.4075
0.0539 0.3027 1.6656 -0.6866 0.6495 0.3268
0.0539 0.3098 1.6514 -0.6866 0.6495 0.3268
0.0589 0.3049 1.6506 0.6866 0.6495 0.3268
0.0539 0.2999 1.6500 0.6925 -0.7102 0.1263
0.0489 0.3049 1.6506 -0.6866 0.6495 0.3268
0.0539 0.3060 1.6277 -0.0067 0.1383 -0.9904
0.0539 0.3026 1.6503 0.7084 -0.6981 -0.1044
0.0539 0.3105 1.6283 -0.0067 0.1383 -0.9904
0.0563 0.3082 1.6280 0.0067 0.1383 -0.9904
0.0517 0.3082 1.6280 -0.0067 0.1383 -0.9904
0.0539 0.3071 1.6511 -0.6986 0.7078 0.1049
0.0563 0.3049 1.6506 0.6985 0.7082 0.1029
0.0517 0.3049 1.6506 -0.6986 0.7078 0.1049
0.0539 0.3027 1.6656 0.6866 0.6495 0.3268
0.0539 0.3098 1.6514 0.6866 0.6495 0.3268
0.0539 0.3027 1.6656 0.6925 -0.7102 0.1263
0.0589 0.3049 1.6506 0.6925 -0.7102 0.1263
0.0489 0.3049 1.6506 -0.6925 -0.7102 0.1263
0.0539 0.3027 1.6656 -0.6925 -0.7102 0.1263
0.0539 0.2999 1.6500 -0.6925 -0.7102 0.1263
0.0539 0.3098 1.6514 0.0126 0.1389 -0.9902
0.0489 0.3049 1.6506 0.0126 0.1389 -0.9902
0.0539 0.2999 1.6500 0.0126 0.1389 -0.9902
0.0539 0.3098 1.6514 -0.0126 0.1389 -0.9902
0.0539 0.2999 1.6500 -0.0126 0.1389 -0.9902
0.0589 0.3049 1.6506 -0.0126 0.1389 -0.9902
0.0539 0.3105 1.6283 -0.6986 0.7078 0.1049
0.0539 0.3105 1.6283 -0.7084 0.6985 0.1015
0.0517 0.3082 1.6280 -0.7084 0.6985 0.1015
0.0563 0.3082 1.6280 0.6985 0.7082 0.1029
0.0539 0.3071 1.6511 0.6985 0.7082 0.1029
0.0563 0.3082 1.6280 0.7084 0.6982 0.1034
0.0539 0.3071 1.6511 0.7084 0.6982 0.1034
0.0539 0.3105 1.6283 0.7084 0.6982 0.1034
0.0539 0.3060 1.6277 0.7084 -0.6981 -0.1044
0.0563 0.3049 1.6506 0.7084 -0.6981 -0.1044
0.0539 0.3060 1.6277 0.6934 -0.7130 -0.1036
0.0563 0.3049 1.6506 0.6934 -0.7130 -0.1036
0.0563 0.3082 1.6280 0.6934 -0.7130 -0.1036
0.0517 0.3082 1.6280 -0.7084 -0.6985 -0.1015
0.0517 0.3049 1.6506 -0.7084 -0.6985 -0.1015
0.0539 0.3026 1.6503 -0.7084 -0.6985 -0.1015
0.0517 0.3082 1.6280 -0.6934 -0.7126 -0.1066
0.0539 0.3026 1.6503 -0.6934 -0.7126 -0.1066
0.0539 0.3060 1.6277 -0.6934 -0.7126 -0.1066
-0.2131 0.2546 1.6419 -0.6866 0.4412 0.5779
-0.2131 0.2672 1.6323 -0.6866 0.4412 0.5779
-0.2081 0.2631 1.6295 0.6866 0.4412 0.5779
-0.2131 0.2589 1.6267 0.6925 -0.6940 -0.1970
-0.2181 0.2631 1.6295 -0.6866 0.4412 0.5779
-0.2131 0.2742 1.6093 -0.0067 0.5575 -0.8302
-0.2131 0.2612 1.6282 0.7084 -0.5821 -0.3992
-0.2131 0.2779 1.6118 -0.0067 0.5575 -0.8302
-0.2108 0.2760 1.6106 0.0067 0.5575 -0.8302
-0.2154 0.2760 1.6106 -0.0067 0.5575 -0.8302
-0.2131 0.2649 1.6308 -0.6986 0.5907 0.4038
-0.2108 0.2631 1.6295 0.6985 0.5918 0.4022
-0.2154 0.2631 1.6295 -0.6986 0.5907 0.4038
-0.2131 0.2546 1.6419 0.6866 0.4412 0.5779
-0.2131 0.2672 1.6323 0.6866 0.4412 0.5779
-0.2131 0.2546 1.6419 0.6925 -0.6940 -0.1970
-0.2081 0.2631 1.6295 0.6925 -0.6940 -0.1970
-0.2181 0.2631 1.6295 -0.6925 -0.6940 -0.1970
-0.2131 0.2546 1.6419 -0.6925 -0.6940 -0.1970
-0.2131 0.2589 1.6267 -0.6925 -0.6940 -0.1970
-0.2131 0.2672 1.6323 0.0126 0.5580 -0.8298
-0.2181 0.2631 1.6295 0.0126 0.5580 -0.8298
-0.2131 0.2589 1.6267 0.0126 0.5580 -0.8298
-0.2131 0.2672 1.6323 -0.0126 0.5580 -0.8298
-0.2131 0.2589 1.6267 -0.0126 0.5580 -0.8298
-0.2081 0.2631 1.6295 -0.0126 0.5580 -0.8298
-0.2131 0.2779 1.6118 -0.6986 0.5907 0.4038
-0.2131 0.2779 1.6118 -0.7084 0.5837 0.3967
-0.2154 0.2760 1.6106 -0.7084 0.5837 0.3967
-0.2108 0.2760 1.6106 0.6985 0.5918 0.4022
-0.2131 0.2649 1.6308 0.6985 0.5918 0.4022
-0.2108 0.2760 1.6106 0.7084 0.5827 0.3984
-0.2131 0.2649 1.6308 0.7084 0.5827 0.3984
-0.2131 0.2779 1.6118 0.7084 0.5827 0.3984
-0.2131 0.2742 1.6093 0.7084 -0.5821 -0.3992
-0.2108 0.2631 1.6295 0.7084 -0.5821 -0.3992
-0.2131 0.2742 1.6093 0.6934 -0.5959 -0.4050
-0.2108 0.2631 1.6295 0.6934 -0.5959 -0.4050
-0.2108 0.2760 1.6106 0.6934 -0.5959 -0.4050
-0.2154 0.2760 1.6106 -0.7084 -0.5837 -0.3967
-0.2154 0.2631 1.6295 -0.7084 -0.5837 -0.3967
-0.2131 0.2612 1.6282 -0.7084 -0.5837 -0.3967
-0.2154 0.2760 1.6106 -0.6934 -0.5942 -0.4075
-0.2131 0.2612 1.6282 -0.6934 -0.5942 -0.4075
-0.2131 0.2742 1.6093 -0.6934 -0.5942 -0.4075
0.2154 0.1744 1.5833 -0.6866 0.4412 0.5779
0.2154 0.1870 1.5737 -0.6866 0.4412 0.5779
0.2204 0.1829 1.5709 0.6866 0.4412 0.5779
0.2154 0.1787 1.5681 0.6925 -0.6940 -0.1970
0.2104 0.1829 1.5709 -0.6866 0.4412 0.5779
0.2154 0.1939 1.5507 -0.0067 0.5574 -0.8302
0.2154 0.1810 1.5696 0.7084 -0.5821 -0.3992
0.2154 0.1977 1.5532 -0.0067 0.5574 -0.8302
0.2177 0.1958 1.5519 0.0067 0.5574 -0.8302
0.2131 0.1958 1.5519 -0.0067 0.5574 -0.8302
0.2154 0.1847 1.5722 -0.6986 0.5907 0.4039
0.2177 0.1829 1.5709 0.6985 0.5919 0.4022
0.2131 0.1829 1.5709 -0.6986 0.5907 0.4039
0.2154 0.1744 1.5833 0.6866 0.4412 0.5779
0.2154 0.1870 1.5737 0.6866 0.4412 0.5779
0.2154 0.1744 1.5833 0.6925 -0.6940 -0.1970
0.2204 0.1829 1.5709 0.6925 -0.6940 -0.1970
0.2104 0.1829 1.5709 -0.6925 -0.6940 -0.1970
0.2154 0.1744 1.5833 -0.6925 -0.6940 -0.1970
0.2154 0.1787 1.5681 -0.6925 -0.6940 -0.1970
0.2154 0.1870 1.5737 0.0126 0.5580 -0.8298
0.2104 0.1829 1.5709 0.0126 0.5580 -0.8298
0.2154 0.1787 1.5681 0.0126 0.5580 -0.8298
0.2154 0.1870 1.5737 -0.0126 0.5580 -0.8298
0.2154 0.1787 1.5681 -0.0126 0.5580 -0.8298
0.2204 0.1829 1.5709 -0.0126 0.5580 -0.8298
0.2154 0.1977 1.5532 -0.6986 0.5907 0.4039
0.2154 0.1977 1.5532 -0.7084 0.5837 0.3967
0.2131 0.1958 1.5519 -0.7084 0.5837 0.3967
0.2177 0.1958 1.5519 0.6985 0.5919 0.4022
0.2154 0.1847 1.5722 0.6985 0.5919 0.4022
0.2177 0.1958 1.5519 0.7084 0.5827 0.3983
0.2154 0.1847 1.5722 0.7084 0.5827 0.3983
0.2154 0.1977 1.5532 0.7084 0.5827 0.3983
0.2154 0.1939 1.5507 0.7084 -0.5821 -0.3992
0.2177 0.1829 1.5709 0.7084 -0.5821 -0.3992
0.2154 0.1939 1.5507 0.6934 -0.5959 -0.4050
0.2177 0.1829 1.5709 0.6934 -0.5959 -0.4050
0.2177 0.1958 1.5519 0.6934 -0.5959 -0.4050
0.2131 0.1958 1.5519 -0.7084 -0.5837 -0.3967
0.2131 0.1829 1.5709 -0.7084 -0.5837 -0.3967
0.2154 0.1810 1.5696 -0.7084 -0.5837 -0.3967
0.2131 0.1958 1.5519 -0.6934 -0.5942 -0.4075
0.2154 0.1810 1.5696 -0.6934 -0.5942 -0.4075
0.2154 0.1939 1.5507 -0.6934 -0.5942 -0.4075
-0.4058 0.9138 1.7505 -0.6866 0.6495 0.3268
-0.4058 0.9209 1.7363 -0.6866 0.6495 0.3268
-0.4008 0.9160 1.7356 0.6866 0.6495 0.3268
-0.4058 0.9110 1.7349 0.6925 -0.7103 0.1263
-0.4108 0.9160 1.7356 -0.6866 0.6495 0.3268
-0.4058 0.9171 1.7126 -0.0067 0.1383 -0.9904
-0.4058 0.9137 1.7353 0.7084 -0.6981 -0.1044
-0.4058 0.9216 1.7133 -0.0067 0.1383 -0.9904
-0.4035 0.9193 1.7130 0.0067 0.1382 -0.9904
-0.4081 0.9193 1.7130 -0.0067 0.1383 -0.9904
-0.4058 0.9182 1.7360 -0.6986 0.7078 0.1049
-0.4035 0.9160 1.7356 0.6985 0.7082 0.1029
-0.4081 0.9160 1.7356 -0.6986 0.7078 0.1049
-0.4058 0.9138 1.7505 0.6866 0.6495 0.3268
-0.4058 0.9209 1.7363 0.6866 0.6495 0.3268
-0.4058 0.9138 1.7505 0.6925 -0.7103 0.1263
-0.4008 0.9160 1.7356 0.6925 -0.7103 0.1263
-0.4108 0.9160 1.7356 -0.6925 -0.7103 0.1263
-0.4058 0.9138 1.7505 -0.6925 -0.7103 0.1263
-0.4058 0.9110 1.7349 -0.6925 -0.7103 0.1263
-0.4058 0.9209 1.7363 0.0126 0.1389 -0.9902
-0.4108 0.9160 1.7356 0.0126 0.1389 -0.9902
-0.4058 0.9110 1.7349 0.0126 0.1389 -0.9902
-0.4058 0.9209 1.7363 -0.0126 0.1389 -0.9902
-0.4058 0.9110 1.7349 -0.0126 0.1389 -0.9902
-0.4008 0.9160 1.7356 -0.0126 0.1389 -0.9902
-0.4058 0.9216 1.7133 -0.6986 0.7078 0.1049
-0.4058 0.9216 1.7133 -0.7084 0.6985 0.1015
-0.4081 0.9193 1.7130 -0.7084 0.6985 0.1015
-0.4035 0.9193 1.7130 0.6985 0.7082 0.1029
-0.4058 0.9182 1.7360 0.6985 0.7082 0.1029
-0.4035 0.9193 1.7130 0.7084 0.6982 0.1034
-0.4058 0.9182 1.7360 0.7084 0.6982 0.1034
-0.4058 0.9216 1.7133 0.7084 0.6982 0.1034
-0.4058 0.9171 1.7126 0.7084 -0.6981 -0.1044
-0.4035 0.9160 1.7356 0.7084 -0.6981 -0.1044
-0.4058 0.9171 1.7126 0.6935 -0.7130 -0.1036
-0.4035 0.9160 1.7356 0.6935 -0.7130 -0.1036
-0.4035 0.9193 1.7130 0.6935 -0.7130 -0.1036
-0.4081 0.9193 1.7130 -0.7084 -0.6984 -0.1015
-0.4081 0.9160 1.7356 -0.7084 -0.6984 -0.1015
-0.4058 0.9137 1.7353 -0.7084 -0.6984 -0.1015
-0.4081 0.9193 1.7130 -0.6934 -0.7126 -0.1066
-0.4058 0.9137 1.7353 -0.6934 -0.7126 -0.1066
-0.4058 0.9171 1.7126 -0.6934 -0.7126 -0.1066
-0.2055 0.5343 1.6974 -0.6866 0.6495 0.3268
-0.2055 0.5414 1.6833 -0.6866 0.6495 0.3268
-0.2005 0.5365 1.6825 0.6866 0.6495 0.3268
-0.2055 0.5315 1.6819 0.6925 -0.7102 0.1263
-0.2105 0.5365 1.6825 -0.6866 0.6495 0.3268
-0.2055 0.5376 1.6596 -0.0067 0.1383 -0.9904
-0.2055 0.5342 1.6822 0.7084 -0.6981 -0.1044
-0.2055 0.5421 1.6602 -0.0067 0.1383 -0.9904
-0.2032 0.5398 1.6599 0.0067 0.1383 -0.9904
-0.2078 0.5398 1.6599 -0.0067 0.1383 -0.9904
-0.2055 0.5387 1.6829 -0.6986 0.7078 0.1049
-0.2032 0.5365 1.6825 0.6985 0.7081 0.1029
-0.2078 0.5365 1.6825 -0.6986 0.7078 0.1049
-0.2055 0.5343 1.6974 0.6866 0.6495 0.3268
-0.2055 0.5414 1.6833 0.6866 0.6495 0.3268
-0.2055 0.5343 1.6974 0.6925 -0.7102 0.1263
-0.2005 0.5365 1.6825 0.6925 -0.7102 0.1263
-0.2105 0.5365 1.6825 -0.6925 -0.7102 0.1263
-0.2055 0.5343 1.6974 -0.6925 -0.7102 0.1263
-0.2055 0.5315 1.6819 -0.6925 -0.7102 0.1263
-0.2055 0.5414 1.6833 0.0126 0.1389 -0.9902
-0.2105 0.5365 1.6825 0.0126 0.1389 -0.9902
-0.2055 0.5315 1.6819 0.0126 0.1389 -0.9902
-0.2055 0.5414 1.6833 -0.0126 0.1389 -0.9902
-0.2055 0.5315 1.6819 -0.0126 0.1389 -0.9902
-0.2005 0.5365 1.6825 -0.0126 0.1389 -0.9902
-0.2055 0.5421 1.6602 -0.6986 0.7078 0.1049
-0.2055 0.5421 1.6602 -0.7084 0.6985 0.1015
-0.2078 0.5398 1.6599 -0.7084 0.6985 0.1015
-0.2032 0.5398 1.6599 0.6985 0.7081 0.1029
-0.2055 0.5387 1.6829 0.6985 0.7081 0.1029
-0.2032 0.5398 1.6599 0.7084 0.6982 0.1034
-0.2055 0.5387 1.6829 0.7084 0.6982 0.1034
-0.2055 0.5421 1.6602 0.7084 0.6982 0.1034
-0.2055 0.5376 1.6596 0.7084 -0.6981 -0.1044
-0.2032 0.5365 1.6825 0.7084 -0.6981 -0.1044
-0.2055 0.5376 1.6596 0.6934 -0.7130 -0.1036
-0.2032 0.5365 1.6825 0.6934 -0.7130 -0.1036
-0.2032 0.5398 1.6599 0.6934 -0.7130 -0.1036
-0.2078 0.5398 1.6599 -0.7084 -0.6985 -0.1015
-0.2078 0.5365 1.6825 -0.7084 -0.6985 -0.1015
-0.2055 0.5342 1.6822 -0.7084 -0.6985 -0.1015
-0.2078 0.5398 1.6599 -0.6934 -0.7126 -0.1066
-0.2055 0.5342 1.6822 -0.6934 -0.7126 -0.1066
-0.2055 0.5376 1.6596 -0.6934 -0.7126 -0.1066
-0.4462 0.5324 1.5796 -0.2286 0.6902 -0.6866
-0.4312 0.5374 1.5796 -0.2286 0.6902 -0.6866
-0.4312 0.5324 1.5846 -0.2286 0.6902 0.6866
-0.4313 0.5274 1.5796 -0.2286 -0.6842 0.6925
-0.4312 0.5324 1.5746 -0.2286 0.6902 -0.6866
-0.4083 0.5302 1.5796 0.9999 -0.0076 -0.0067
-0.4312 0.5301 1.5796 0.0015 -0.7058 0.7084
-0.4083 0.5347 1.5796 0.9999 -0.0076 -0.0067
-0.4083 0.5324 1.5819 0.9999 -0.0076 0.0067
-0.4083 0.5324 1.5773 0.9999 -0.0076 -0.0067
-0.4312 0.5347 1.5796 -0.0005 0.7155 -0.6986
-0.4312 0.5324 1.5819 0.0014 0.7156 0.6985
-0.4312 0.5324 1.5773 -0.0005 0.7155 -0.6986
-0.4462 0.5324 1.5796 -0.2286 0.6902 0.6866
-0.4312 0.5374 1.5796 -0.2286 0.6902 0.6866
-0.4462 0.5324 1.5796 -0.2286 -0.6842 0.6925
-0.4312 0.5324 1.5846 -0.2286 -0.6842 0.6925
-0.4312 0.5324 1.5746 -0.2286 -0.6842 -0.6925
-0.4462 0.5324 1.5796 -0.2286 -0.6842 -0.6925
-0.4313 0.5274 1.5796 -0.2286 -0.6842 -0.6925
-0.4312 0.5374 1.5796 0.9999 -0.0070 0.0126
-0.4312 0.5324 1.5746 0.9999 -0.0070 0.0126
-0.4313 0.5274 1.5796 0.9999 -0.0070 0.0126
-0.4312 0.5374 1.5796 0.9999 -0.0070 -0.0126
-0.4313 0.5274 1.5796 0.9999 -0.0070 -0.0126
-0.4312 0.5324 1.5846 0.9999 -0.0070 -0.0126
-0.4083 0.5347 1.5796 -0.0005 0.7155 -0.6986
-0.4083 0.5347 1.5796 0.0014 0.7058 -0.7084
-0.4083 0.5324 1.5773 0.0014 0.7058 -0.7084
-0.4083 0.5324 1.5819 0.0014 0.7156 0.6985
-0.4312 0.5347 1.5796 0.0014 0.7156 0.6985
-0.4083 0.5324 1.5819 -0.0005 0.7059 0.7083
-0.4312 0.5347 1.5796 -0.0005 0.7059 0.7083
-0.4083 0.5347 1.5796 -0.0005 0.7059 0.7083
-0.4083 0.5302 1.5796 0.0015 -0.7058 0.7084
-0.4312 0.5324 1.5819 0.0015 -0.7058 0.7084
-0.4083 0.5302 1.5796 -0.0015 -0.7205 0.6934
-0.4312 0.5324 1.5819 -0.0015 -0.7205 0.6934
-0.4083 0.5324 1.5819 -0.0015 -0.7205 0.6934
-0.4083 0.5324 1.5773 -0.0014 -0.7058 -0.7084
-0.4312 0.5324 1.5773 -0.0014 -0.7058 -0.7084
-0.4312 0.5301 1.5796 -0.0014 -0.7058 -0.7084
-0.4083 0.5324 1.5773 0.0015 -0.7205 -0.6934
-0.4312 0.5301 1.5796 0.0015 -0.7205 -0.6934
-0.4083 0.5302 1.5796 0.0015 -0.7205 -0.6934
0.4445 0.5324 1.5796 0.2286 0.6902 0.6866
0.4295 0.5374 1.5796 0.2286 0.6902 0.6866
0.4294 0.5324 1.5746 0.2286 0.6901 -0.6866
0.4295 0.5274 1.5796 0.2286 -0.6842 -0.6925
0.4294 0.5324 1.5846 0.2286 0.6902 0.6866
0.4066 0.5302 1.5796 -0.9999 -0.0076 0.0067
0.4295 0.5301 1.5796 -0.0015 -0.7058 -0.7084
0.4065 0.5347 1.5796 -0.9999 -0.0076 0.0067
0.4066 0.5324 1.5773 -0.9999 -0.0076 -0.0067
0.4066 0.5324 1.5819 -0.9999 -0.0076 0.0067
0.4295 0.5347 1.5796 0.0005 0.7155 0.6986
0.4294 0.5324 1.5773 -0.0014 0.7156 -0.6985
0.4294 0.5324 1.5819 0.0005 0.7155 0.6986
0.4445 0.5324 1.5796 0.2286 0.6901 -0.6866
0.4295 0.5374 1.5796 0.2286 0.6901 -0.6866
0.4445 0.5324 1.5796 0.2286 -0.6842 -0.6925
0.4294 0.5324 1.5746 0.2286 -0.6842 -0.6925
0.4294 0.5324 1.5846 0.2286 -0.6842 0.6925
0.4445 0.5324 1.5796 0.2286 -0.6842 0.6925
0.4295 0.5274 1.5796 0.2286 -0.6842 0.6925
0.4295 0.5374 1.5796 -0.9999 -0.0070 -0.0126
0.4294 0.5324 1.5846 -0.9999 -0.0070 -0.0126
0.4295 0.5274 1.5796 -0.9999 -0.0070 -0.0126
0.4295 0.5374 1.5796 -0.9999 -0.0070 0.0126
0.4295 0.5274 1.5796 -0.9999 -0.0070 0.0126
0.4294 0.5324 1.5746 -0.9999 -0.0070 0.0126
0.4065 0.5347 1.5796 0.0005 0.7155 0.6986
0.4065 0.5347 1.5796 -0.0014 0.7058 0.7085
0.4066 0.5324 1.5819 -0.0014 0.7058 0.7085
0.4066 0.5324 1.5773 -0.0014 0.7156 -0.6985
0.4295 0.5347 1.5796 -0.0014 0.7156 -0.6985
0.4066 0.5324 1.5773 0.0005 0.7058 -0.7084
0.4295 0.5347 1.5796 0.0005 0.7058 -0.7084
0.4065 0.5347 1.5796 0.0005 0.7058 -0.7084
0.4066 0.5302 1.5796 -0.0015 -0.7058 -0.7084
0.4294 0.5324 1.5773 -0.0015 -0.7058 -0.7084
0.4066 0.5302 1.5796 0.0015 -0.7205 -0.6934
0.4294 0.5324 1.5773 0.0015 -0.7205 -0.6934
0.4066 0.5324 1.5773 0.0015 -0.7205 -0.6934
0.4066 0.5324 1.5819 0.0014 -0.7057 0.7085
0.4294 0.5324 1.5819 0.0014 -0.7057 0.7085
0.4295 0.5301 1.5796 0.0014 -0.7057 0.7085
0.4066 0.5324 1.5819 -0.0015 -0.7205 0.6934
0.4295 0.5301 1.5796 -0.0015 -0.7205 0.6934
0.4066 0.5302 1.5796 -0.0015 -0.7205 0.6934
0.1157 0.3386 1.6701 -0.6866 0.6495 0.3268
0.1157 0.3457 1.6560 -0.6866 0.6495 0.3268
0.1207 0.3408 1.6552 0.6866 0.6495 0.3268
0.1157 0.3358 1.6546 0.6925 -0.7102 0.1263
0.1107 0.3408 1.6552 -0.6866 0.6495 0.3268
0.1157 0.3419 1.6323 -0.0067 0.1383 -0.9904
0.1157 0.3385 1.6549 0.7084 -0.6981 -0.1044
0.1157 0.3464 1.6329 -0.0067 0.1383 -0.9904
0.1180 0.3441 1.6326 0.0067 0.1383 -0.9904
0.1134 0.3441 1.6326 -0.0067 0.1383 -0.9904
0.1157 0.3430 1.6556 -0.6986 0.7078 0.1049
0.1180 0.3408 1.6552 0.6985 0.7082 0.1029
0.1134 0.3408 1.6552 -0.6986 0.7078 0.1049
0.1157 0.3386 1.6701 0.6866 0.6495 0.3268
0.1157 0.3457 1.6560 0.6866 0.6495 0.3268
0.1157 0.3386 1.6701 0.6925 -0.7102 0.1263
0.1207 0.3408 1.6552 0.6925 -0.7102 0.1263
0.1107 0.3408 1.6552 -0.6925 -0.7102 0.1263
0.1157 0.3386 1.6701 -0.6925 -0.7102 0.1263
0.1157 0.3358 1.6546 -0.6925 -0.7102 0.1263
0.1157 0.3457 1.6560 0.0126 0.1389 -0.9902
0.1107 0.3408 1.6552 0.0126 0.1389 -0.9902
0.1157 0.3358 1.6546 0.0126 0.1389 -0.9902
0.1157 0.3457 1.6560 -0.0126 0.1389 -0.9902
0.1157 0.3358 1.6546 -0.0126 0.1389 -0.9902
0.1207 0.3408 1.6552 -0.0126 0.1389 -0.9902
0.1157 0.3464 1.6329 -0.6986 0.7078 0.1049
0.1157 0.3464 1.6329 -0.7084 0.6985 0.1015
0.1134 0.3441 1.6326 -0.7084 0.6985 0.1015
0.1180 0.3441 1.6326 0.6985 0.7082 0.1029
0.1157 0.3430 1.6556 0.6985 0.7082 0.1029
0.1180 0.3441 1.6326 0.7084 0.6982 0.1034
0.1157 0.3430 1.6556 0.7084 0.6982 0.1034
0.1157 0.3464 1.6329 0.7084 0.6982 0.1034
0.1157 0.3419 1.6323 0.7084 -0.6981 -0.1044
0.1180 0.3408 1.6552 0.7084 -0.6981 -0.1044
0.1157 0.3419 1.6323 0.6934 -0.7130 -0.1036
0.1180 0.3408 1.6552 0.6934 -0.7130 -0.1036
0.1180 0.3441 1.6326 0.6934 -0.7130 -0.1036
0.1134 0.3441 1.6326 -0.7084 -0.6985 -0.1015
0.1134 0.3408 1.6552 -0.7084 -0.6985 -0.1015
0.1157 0.3385 1.6549 -0.7084 -0.6985 -0.1015
0.1134 0.3441 1.6326 -0.6935 -0.7126 -0.1066
0.1157 0.3385 1.6549 -0.6935 -0.7126 -0.1066
0.1157 0.3419 1.6323 -0.6935 -0.7126 -0.1066
-0.6821 0.7467 1.5766 -0.6139 0.6902 -0.3831
-0.6705 0.7517 1.5669 -0.6139 0.6902 -0.3831
-0.6673 0.7467 1.5708 0.2617 0.6902 0.6747
-0.6706 0.7417 1.5670 0.2655 -0.6842 0.6792
-0.6737 0.7467 1.5631 -0.6139 0.6902 -0.3831
-0.6529 0.7444 1.5524 0.7660 -0.0076 -0.6428
-0.6705 0.7444 1.5670 0.4529 -0.7058 0.5447
-0.6529 0.7490 1.5523 0.7660 -0.0076 -0.6428
-0.6514 0.7467 1.5541 0.7746 -0.0076 -0.6325
-0.6543 0.7467 1.5506 0.7660 -0.0076 -0.6428
-0.6706 0.7489 1.5670 -0.4459 0.7155 -0.5378
-0.6690 0.7467 1.5687 0.4466 0.7156 0.5372
-0.6720 0.7467 1.5652 -0.4459 0.7155 -0.5378
-0.6821 0.7467 1.5766 0.2617 0.6902 0.6747
-0.6705 0.7517 1.5669 0.2617 0.6902 0.6747
-0.6821 0.7467 1.5766 0.2655 -0.6842 0.6792
-0.6673 0.7467 1.5708 0.2655 -0.6842 0.6792
-0.6737 0.7467 1.5631 -0.6176 -0.6842 -0.3877
-0.6821 0.7467 1.5766 -0.6176 -0.6842 -0.3877
-0.6706 0.7417 1.5670 -0.6176 -0.6842 -0.3877
-0.6705 0.7517 1.5669 0.7783 -0.0070 -0.6279
-0.6737 0.7467 1.5631 0.7783 -0.0070 -0.6279
-0.6706 0.7417 1.5670 0.7783 -0.0070 -0.6279
-0.6705 0.7517 1.5669 0.7622 -0.0070 -0.6473
-0.6706 0.7417 1.5670 0.7622 -0.0070 -0.6473
-0.6673 0.7467 1.5708 0.7622 -0.0070 -0.6473
-0.6529 0.7490 1.5523 -0.4459 0.7155 -0.5378
-0.6529 0.7490 1.5523 -0.4506 0.7058 -0.5466
-0.6543 0.7467 1.5506 -0.4506 0.7058 -0.5466
-0.6514 0.7467 1.5541 0.4466 0.7156 0.5372
-0.6706 0.7489 1.5670 0.4466 0.7156 0.5372
-0.6514 0.7467 1.5541 0.4513 0.7058 0.5460
-0.6706 0.7489 1.5670 0.4513 0.7058 0.5460
-0.6529 0.7490 1.5523 0.4513 0.7058 0.5460
-0.6529 0.7444 1.5524 0.4529 -0.7058 0.5447
-0.6690 0.7467 1.5687 0.4529 -0.7058 0.5447
-0.6529 0.7444 1.5524 0.4411 -0.7205 0.5351
-0.6690 0.7467 1.5687 0.4411 -0.7205 0.5351
-0.6514 0.7467 1.5541 0.4411 -0.7205 0.5351
-0.6543 0.7467 1.5506 -0.4528 -0.7058 -0.5448
-0.6720 0.7467 1.5652 -0.4528 -0.7058 -0.5448
-0.6705 0.7444 1.5670 -0.4528 -0.7058 -0.5448
-0.6543 0.7467 1.5506 -0.4410 -0.7205 -0.5351
-0.6705 0.7444 1.5670 -0.4410 -0.7205 -0.5351
-0.6529 0.7444 1.5524 -0.4410 -0.7205 -0.5351
0.4530 -0.0064 1.4598 -0.6866 -0.1201 0.7170
0.4530 0.0092 1.4624 -0.6866 -0.1201 0.7170
0.4580 0.0085 1.4575 0.6866 -0.1201 0.7170
0.4530 0.0076 1.4525 0.6925 -0.3307 -0.6411
0.4480 0.0085 1.4575 -0.6866 -0.1201 0.7170
0.4530 0.0307 1.4517 -0.0067 0.9870 -0.1608
0.4530 0.0081 1.4552 0.7084 -0.1067 -0.6977
0.4530 0.0314 1.4562 -0.0067 0.9870 -0.1608
0.4553 0.0311 1.4539 0.0067 0.9870 -0.1608
0.4507 0.0311 1.4539 -0.0067 0.9870 -0.1608
0.4530 0.0087 1.4597 -0.6986 0.1091 0.7072
0.4553 0.0085 1.4575 0.6985 0.1111 0.7069
0.4507 0.0085 1.4575 -0.6986 0.1091 0.7072
0.4530 -0.0064 1.4598 0.6866 -0.1201 0.7170
0.4530 0.0092 1.4624 0.6866 -0.1201 0.7170
0.4530 -0.0064 1.4598 0.6925 -0.3307 -0.6411
0.4580 0.0085 1.4575 0.6925 -0.3307 -0.6411
0.4480 0.0085 1.4575 -0.6925 -0.3307 -0.6411
0.4530 -0.0064 1.4598 -0.6925 -0.3307 -0.6411
0.4530 0.0076 1.4525 -0.6925 -0.3307 -0.6411
0.4530 0.0092 1.4624 0.0126 0.9870 -0.1601
0.4480 0.0085 1.4575 0.0126 0.9870 -0.1601
0.4530 0.0076 1.4525 0.0126 0.9870 -0.1601
0.4530 0.0092 1.4624 -0.0126 0.9870 -0.1601
0.4530 0.0076 1.4525 -0.0126 0.9870 -0.1601
0.4580 0.0085 1.4575 -0.0126 0.9870 -0.1601
0.4530 0.0314 1.4562 -0.6986 0.1091 0.7072
0.4530 0.0314 1.4562 -0.7084 0.1095 0.6973
0.4507 0.0311 1.4539 -0.7084 0.1095 0.6973
0.4553 0.0311 1.4539 0.6985 0.1111 0.7069
0.4530 0.0087 1.4597 0.6985 0.1111 0.7069
0.4553 0.0311 1.4539 0.7084 0.1076 0.6976
0.4530 0.0087 1.4597 0.7084 0.1076 0.6976
0.4530 0.0314 1.4562 0.7084 0.1076 0.6976
0.4530 0.0307 1.4517 0.7084 -0.1067 -0.6977
0.4553 0.0085 1.4575 0.7084 -0.1067 -0.6977
0.4530 0.0307 1.4517 0.6934 -0.1118 -0.7118
0.4553 0.0085 1.4575 0.6934 -0.1118 -0.7118
0.4553 0.0311 1.4539 0.6934 -0.1118 -0.7118
0.4507 0.0311 1.4539 -0.7084 -0.1095 -0.6973
0.4507 0.0085 1.4575 -0.7084 -0.1095 -0.6973
0.4530 0.0081 1.4552 -0.7084 -0.1095 -0.6973
0.4507 0.0311 1.4539 -0.6935 -0.1089 -0.7122
0.4530 0.0081 1.4552 -0.6935 -0.1089 -0.7122
0.4530 0.0307 1.4517 -0.6935 -0.1089 -0.7122
0.9451 0.2754 1.3016 0.2286 0.6902 0.6866
0.9300 0.2804 1.3016 0.2286 0.6902 0.6866
0.9300 0.2754 1.2966 0.2286 0.6901 -0.6866
0.9301 0.2704 1.3016 0.2286 -0.6842 -0.6925
0.9300 0.2754 1.3066 0.2286 0.6902 0.6866
0.9071 0.2732 1.3016 -0.9999 -0.0076 0.0068
0.9300 0.2731 1.3016 -0.0015 -0.7058 -0.7084
0.9071 0.2777 1.3016 -0.9999 -0.0076 0.0068
0.9071 0.2754 1.2993 -0.9999 -0.0076 -0.0068
0.9071 0.2754 1.3039 -0.9999 -0.0076 0.0068
0.9301 0.2777 1.3016 0.0005 0.7156 0.6986
0.9300 0.2754 1.2993 -0.0014 0.7156 -0.6985
0.9300 0.2754 1.3039 0.0005 0.7156 0.6986
0.9451 0.2754 1.3016 0.2286 0.6901 -0.6866
0.9300 0.2804 1.3016 0.2286 0.6901 -0.6866
0.9451 0.2754 1.3016 0.2286 -0.6842 -0.6925
0.9300 0.2754 1.2966 0.2286 -0.6842 -0.6925
0.9300 0.2754 1.3066 0.2286 -0.6842 0.6925
0.9451 0.2754 1.3016 0.2286 -0.6842 0.6925
0.9301 0.2704 1.3016 0.2286 -0.6842 0.6925
0.9300 0.2804 1.3016 -0.9999 -0.0070 -0.0126
0.9300 0.2754 1.3066 -0.9999 -0.0070 -0.0126
0.9301 0.2704 1.3016 -0.9999 -0.0070 -0.0126
0.9300 0.2804 1.3016 -0.9999 -0.0070 0.0126
0.9301 0.2704 1.3016 -0.9999 -0.0070 0.0126
0.9300 0.2754 1.2966 -0.9999 -0.0070 0.0126
0.9071 0.2777 1.3016 0.0005 0.7156 0.6986
0.9071 0.2777 1.3016 -0.0014 0.7058 0.7084
0.9071 0.2754 1.3039 -0.0014 0.7058 0.7084
0.9071 0.2754 1.2993 -0.0014 0.7156 -0.6985
0.9301 0.2777 1.3016 -0.0014 0.7156 -0.6985
0.9071 0.2754 1.2993 0.0005 0.7058 -0.7084
0.9301 0.2777 1.3016 0.0005 0.7058 -0.7084
0.9071 0.2777 1.3016 0.0005 0.7058 -0.7084
0.9071 0.2732 1.3016 -0.0015 -0.7058 -0.7084
0.9300 0.2754 1.2993 -0.0015 -0.7058 -0.7084
0.9071 0.2732 1.3016 0.0015 -0.7205 -0.6934
0.9300 0.2754 1.2993 0.0015 -0.7205 -0.6934
0.9071 0.2754 1.2993 0.0015 -0.7205 -0.6934
0.9071 0.2754 1.3039 0.0014 -0.7058 0.7084
0.9300 0.2754 1.3039 0.0014 -0.7058 0.7084
0.9300 0.2731 1.3016 0.0014 -0.7058 0.7084
0.9071 0.2754 1.3039 -0.0015 -0.7205 0.6934
0.9300 0.2731 1.3016 -0.0015 -0.7205 0.6934
0.9071 0.2732 1.3016 -0.0015 -0.7205 0.6934
1.0416 0.0573 0.7742 0.7265 -0.0279 0.6866
1.0422 0.0732 0.7742 0.7265 -0.0279 0.6866
1.0375 0.0718 0.7692 0.7265 -0.0279 -0.6866
1.0327 0.0704 0.7742 -0.5938 -0.4096 -0.6925
1.0375 0.0718 0.7792 0.7265 -0.0279 0.6866
1.0289 0.0932 0.7742 -0.2851 0.9585 0.0067
1.0353 0.0712 0.7742 -0.6784 -0.1946 -0.7084
1.0333 0.0945 0.7742 -0.2851 0.9585 0.0067
1.0311 0.0938 0.7719 -0.2851 0.9585 -0.0067
1.0311 0.0938 0.7765 -0.2851 0.9585 0.0067
1.0396 0.0724 0.7742 0.6875 0.1982 0.6986
1.0375 0.0718 0.7719 0.6871 0.2002 -0.6985
1.0375 0.0718 0.7765 0.6875 0.1982 0.6986
1.0416 0.0573 0.7742 0.7265 -0.0279 -0.6866
1.0422 0.0732 0.7742 0.7265 -0.0279 -0.6866
1.0416 0.0573 0.7742 -0.5938 -0.4096 -0.6925
1.0375 0.0718 0.7692 -0.5938 -0.4096 -0.6925
1.0375 0.0718 0.7792 -0.5938 -0.4096 0.6925
1.0416 0.0573 0.7742 -0.5938 -0.4096 0.6925
1.0327 0.0704 0.7742 -0.5938 -0.4096 0.6925
1.0422 0.0732 0.7742 -0.2844 0.9586 -0.0126
1.0375 0.0718 0.7792 -0.2844 0.9586 -0.0126
1.0327 0.0704 0.7742 -0.2844 0.9586 -0.0126
1.0422 0.0732 0.7742 -0.2844 0.9586 0.0126
1.0327 0.0704 0.7742 -0.2844 0.9586 0.0126
1.0375 0.0718 0.7692 -0.2844 0.9586 0.0126
1.0333 0.0945 0.7742 0.6875 0.1982 0.6986
1.0333 0.0945 0.7742 0.6776 0.1974 0.7084
1.0311 0.0938 0.7765 0.6776 0.1974 0.7084
1.0311 0.0938 0.7719 0.6871 0.2002 -0.6985
1.0396 0.0724 0.7742 0.6871 0.2002 -0.6985
1.0311 0.0938 0.7719 0.6782 0.1955 -0.7084
1.0396 0.0724 0.7742 0.6782 0.1955 -0.7084
1.0333 0.0945 0.7742 0.6782 0.1955 -0.7084
1.0289 0.0932 0.7742 -0.6784 -0.1946 -0.7084
1.0375 0.0718 0.7719 -0.6784 -0.1946 -0.7084
1.0289 0.0932 0.7742 -0.6918 -0.2015 -0.6934
1.0375 0.0718 0.7719 -0.6918 -0.2015 -0.6934
1.0311 0.0938 0.7719 -0.6918 -0.2015 -0.6934
1.0311 0.0938 0.7765 -0.6777 -0.1974 0.7084
1.0375 0.0718 0.7765 -0.6777 -0.1974 0.7084
1.0353 0.0712 0.7742 -0.6777 -0.1974 0.7084
1.0311 0.0938 0.7765 -0.6926 -0.1986 0.6935
1.0353 0.0712 0.7742 -0.6926 -0.1986 0.6935
1.0289 0.0932 0.7742 -0.6926 -0.1986 0.6935
-0.3013 0.7249 1.7009 0.0067 0.1382 -0.9904
-0.3013 0.7205 1.7003 0.0067 0.1382 -0.9904
-0.3036 0.7194 1.7232 -0.7084 0.6985 0.1015
0.1340 0.1499 1.5212 0.0067 0.5574 -0.8302
0.1340 0.1461 1.5187 0.0067 0.5574 -0.8302
0.1317 0.1351 1.5389 -0.7084 0.5837 0.3967
0.0539 0.3105 1.6283 0.0067 0.1383 -0.9904
0.0539 0.3060 1.6277 0.0067 0.1383 -0.9904
0.0517 0.3049 1.6506 -0.7084 0.6985 0.1015
-0.2131 0.2779 1.6118 0.0067 0.5575 -0.8302
-0.2131 0.2742 1.6093 0.0067 0.5575 -0.8302
-0.2154 0.2631 1.6295 -0.7084 0.5837 0.3967
0.2154 0.1977 1.5532 0.0067 0.5574 -0.8302
0.2154 0.1939 1.5507 0.0067 0.5574 -0.8302
0.2131 0.1829 1.5709 -0.7084 0.5837 0.3967
-0.4058 0.9216 1.7133 0.0067 0.1382 -0.9904
-0.4058 0.9171 1.7126 0.0067 0.1382 -0.9904
-0.4081 0.9160 1.7356 -0.7084 0.6985 0.1015
-0.2055 0.5421 1.6602 0.0067 0.1383 -0.9904
-0.2055 0.5376 1.6596 0.0067 0.1383 -0.9904
-0.2078 0.5365 1.6825 -0.7084 0.6985 0.1015
-0.4083 0.5347 1.5796 0.9999 -0.0076 0.0067
-0.4083 0.5302 1.5796 0.9999 -0.0076 0.0067
-0.4312 0.5324 1.5773 0.0014 0.7058 -0.7084
0.4065 0.5347 1.5796 -0.9999 -0.0076 -0.0067
0.4066 0.5302 1.5796 -0.9999 -0.0076 -0.0067
0.4294 0.5324 1.5819 -0.0014 0.7058 0.7085
0.1157 0.3464 1.6329 0.0067 0.1383 -0.9904
0.1157 0.3419 1.6323 0.0067 0.1383 -0.9904
0.1134 0.3408 1.6552 -0.7084 0.6985 0.1015
-0.6529 0.7490 1.5523 0.7746 -0.0076 -0.6325
-0.6529 0.7444 1.5524 0.7746 -0.0076 -0.6325
-0.6720 0.7467 1.5652 -0.4506 0.7058 -0.5466
0.4530 0.0314 1.4562 0.0067 0.9870 -0.1608
0.4530 0.0307 1.4517 0.0067 0.9870 -0.1608
0.4507 0.0085 1.4575 -0.7084 0.1095 0.6973
0.9071 0.2777 1.3016 -0.9999 -0.0076 -0.0068
0.9071 0.2732 1.3016 -0.9999 -0.0076 -0.0068
0.9300 0.2754 1.3039 -0.0014 0.7058 0.7084
1.0333 0.0945 0.7742 -0.2851 0.9585 -0.0067
1.0289 0.0932 0.7742 -0.2851 0.9585 -0.0067
1.0375 0.0718 0.7765 0.6776 0.1974 0.7084
1 4 0
2 14 13
3 16 15
17 19 18
20 22 21
23 25 24
7 5 9
630 8 631
26 12 10
27 28 632
29 30 11
31 33 32
34 35 6
36 38 37
39 41 40
42 44 43
46 49 45
47 59 58
48 61 60
62 64 63
65 67 66
68 70 69
52 50 54
633 53 634
71 57 55
72 73 635
74 75 56
76 78 77
79 80 51
81 83 82
84 86 85
87 89 88
91 94 90
92 104 103
93 106 105
107 109 108
110 112 111
113 115 114
97 95 99
636 98 637
116 102 100
117 118 638
119 120 101
121 123 122
124 125 96
126 128 127
129 131 130
132 134 133
136 139 135
137 149 148
138 151 150
152 154 153
155 157 156
158 160 159
142 140 144
639 143 640
161 147 145
162 163 641
164 165 146
166 168 167
169 170 141
171 173 172
174 176 175
177 179 178
181 184 180
182 194 193
183 196 195
197 199 198
200 202 201
203 205 204
187 185 189
642 188 643
206 192 190
207 208 644
209 210 191
211 213 212
214 215 186
216 218 217
219 221 220
222 224 223
226 229 225
227 239 238
228 241 240
242 244 243
245 247 246
248 250 249
232 230 234
645 233 646
251 237 235
252 253 647
254 255 236
256 258 257
259 260 231
261 263 262
264 266 265
267 269 268
271 274 270
272 284 283
273 286 285
287 289 288
290 292 291
293 295 294
277 275 279
648 278 649
296 282 280
297 298 650
299 300 281
301 303 302
304 305 276
306 308 307
309 311 310
312 314 313
316 319 315
317 329 328
318 331 330
332 334 333
335 337 336
338 340 339
322 320 324
651 323 652
341 327 325
342 343 653
344 345 326
346 348 347
349 350 321
351 353 352
354 356 355
357 359 358
361 364 360
362 374 373
363 376 375
377 379 378
380 382 381
383 385 384
367 365 369
654 368 655
386 372 370
387 388 656
389 390 371
391 393 392
394 395 366
396 398 397
399 401 400
402 404 403
406 409 405
407 419 418
408 421 420
422 424 423
425 427 426
428 430 429
412 410 414
657 413 658
431 417 415
432 433 659
434 435 416
436 438 437
439 440 411
441 443 442
444 446 445
447 449 448
451 454 450
452 464 463
453 466 465
467 469 468
470 472 471
473 475 474
457 455 459
660 458 661
476 462 460
477 478 662
479 480 461
481 483 482
484 485 456
486 488 487
489 491 490
492 494 493
496 499 495
497 509 508
498 511 510
512 514 513
515 517 516
518 520 519
502 500 504
663 503 664
521 507 505
522 523 665
524 525 506
526 528 527
529 530 501
531 533 532
534 536 535
537 539 538
541 544 540
542 554 553
543 556 555
557 559 558
560 562 561
563 565 564
547 545 549
666 548 667
566 552 550
567 568 668
569 570 551
571 573 572
574 575 546
576 578 577
579 581 580
582 584 583
586 589 585
587 599 598
588 601 600
602 604 603
605 607 606
608 610 609
592 590 594
669 593 670
611 597 595
612 613 671
614 615 596
616 618 617
619 620 591
621 623 622
624 626 625
627 629 628
MATERIALS 1
PointingArrow.001_CM-CueCardsArrows
MATERIAL PointingArrow.001_CM-CueCardsArrows
1.000 1.000 0.000 1.000
1.000 1.000 1.000 1.000
1.000 1.000 1.000 1.000 0.000
0.614 0.614 0.000 0.000
TEXTURES 0
