MSHX1
GROUPS 2
LABEL PointingArrow
MATERIAL 1
TEXTURE 1
FLAG 0
GEOM 154 92
0.0001 -0.0018 0.0002 0.3776 -0.8607 -0.3416 0.0129 0.0129
-0.0000 -0.0017 -0.0000 0.0000 -0.4831 -0.8756 0.5405 0.4786
-0.0001 -0.0018 0.0002 -0.3776 -0.8607 -0.3416 0.5405 0.4830
-0.0018 -0.0001 0.0398 -0.8166 -0.3532 -0.4566 0.2135 0.9871
-0.0018 0.0001 0.0398 -0.8166 0.3532 -0.4566 0.2048 0.9871
-0.0020 0.0002 0.0400 -0.2506 0.0980 -0.9631 0.3454 0.3614
-0.0020 -0.0002 0.0400 -0.2506 -0.0980 -0.9631 0.3392 0.3675
0.0018 0.0001 0.0002 0.8607 0.3776 -0.3416 0.0798 0.0129
0.0017 0.0000 0.0000 0.4831 0.0000 -0.8756 0.5405 0.4205
0.0018 -0.0001 0.0002 0.8607 -0.3776 -0.3416 0.0711 0.0129
0.0001 0.0018 0.0398 0.3532 0.8166 -0.4566 0.1379 0.9871
0.0002 0.0020 0.0400 0.0980 0.2506 -0.9631 0.4148 0.3675
-0.0002 0.0020 0.0400 -0.0980 0.2506 -0.9631 0.4086 0.3614
-0.0001 0.0018 0.0398 -0.3532 0.8166 -0.4566 0.1466 0.9871
0.0001 0.0018 0.0002 0.3776 0.8607 -0.3416 0.1379 0.0129
-0.0001 0.0018 0.0002 -0.3776 0.8607 -0.3416 0.1466 0.0129
-0.0000 0.0017 0.0000 0.0000 0.4831 -0.8756 0.4823 0.4205
0.0018 0.0001 0.0398 0.8166 0.3532 -0.4566 0.0798 0.9871
0.0018 -0.0001 0.0398 0.8166 -0.3532 -0.4566 0.0711 0.9871
0.0020 -0.0002 0.0400 0.2506 -0.0980 -0.9631 0.4086 0.4369
0.0020 0.0002 0.0400 0.2506 0.0980 -0.9631 0.4148 0.4308
-0.0018 -0.0001 0.0002 -0.8607 -0.3776 -0.3416 0.4823 0.4830
-0.0017 0.0000 -0.0000 -0.4831 0.0000 -0.8756 0.4823 0.4786
-0.0018 0.0001 0.0002 -0.8607 0.3776 -0.3416 0.2048 0.0129
0.0001 -0.0018 0.0398 0.3532 -0.8166 -0.4566 0.0129 0.9871
-0.0001 -0.0018 0.0398 -0.3532 -0.8166 -0.4566 0.2716 0.9871
-0.0002 -0.0020 0.0400 -0.0980 -0.2506 -0.9631 0.3392 0.4308
0.0002 -0.0020 0.0400 0.0980 -0.2506 -0.9631 0.3454 0.4369
-0.0044 -0.0002 0.0400 -0.4019 -0.2431 -0.8828 0.2975 0.3258
-0.0044 0.0002 0.0400 -0.4019 0.2431 -0.8828 0.3037 0.3197
-0.0046 0.0001 0.0402 -0.8537 0.3186 0.4120 0.3901 0.5076
-0.0046 -0.0001 0.0402 -0.8537 -0.3186 0.4120 0.5491 0.9854
0.0002 0.0044 0.0400 0.2431 0.4019 -0.8828 0.4565 0.3258
0.0001 0.0046 0.0402 0.3186 0.8537 0.4120 0.2975 0.6430
-0.0001 0.0046 0.0402 -0.3186 0.8537 0.4120 0.3002 0.6347
-0.0002 0.0044 0.0400 -0.2431 0.4019 -0.8828 0.4503 0.3197
0.0044 0.0002 0.0400 0.4019 0.2431 -0.8828 0.4565 0.4725
0.0044 -0.0002 0.0400 0.4019 -0.2432 -0.8828 0.4503 0.4786
0.0046 -0.0001 0.0402 0.8537 -0.3186 0.4120 0.3017 0.8070
0.0046 0.0001 0.0402 0.8537 0.3186 0.4120 0.2989 0.7987
0.0002 -0.0044 0.0400 0.2431 -0.4019 -0.8828 0.3037 0.4786
-0.0002 -0.0044 0.0400 -0.2431 -0.4019 -0.8828 0.2975 0.4725
-0.0001 -0.0046 0.0402 -0.3186 -0.8537 0.4120 0.4009 0.9376
0.0001 -0.0046 0.0402 0.3186 -0.8537 0.4120 0.3939 0.9325
-0.0001 0.0001 0.0495 -0.6051 0.6051 0.5174 0.5419 0.7104
0.0001 0.0001 0.0495 0.6051 0.6051 0.5174 0.5393 0.7187
0.0001 -0.0001 0.0495 0.6051 -0.6051 0.5174 0.5421 0.7270
-0.0001 -0.0001 0.0495 -0.6051 -0.6051 0.5174 0.5491 0.7321
0.0001 -0.0018 0.0002 0.3776 -0.8607 -0.3416 0.5448 0.4786
-0.0018 0.0001 0.0398 -0.8166 0.3532 -0.4566 0.2091 0.9871
-0.0020 0.0002 0.0400 -0.2506 0.0980 -0.9631 0.2091 0.9914
-0.0020 0.0002 0.0400 -0.2506 0.0980 -0.9631 0.2091 0.9914
-0.0020 -0.0002 0.0400 -0.2506 -0.0980 -0.9631 0.2109 0.9914
0.0018 0.0001 0.0002 0.8607 0.3776 -0.3416 0.5405 0.4162
0.0018 -0.0001 0.0002 0.8607 -0.3776 -0.3416 0.5448 0.4205
0.0002 0.0020 0.0400 0.0980 0.2506 -0.9631 0.1405 0.9914
-0.0002 0.0020 0.0400 -0.0980 0.2506 -0.9631 0.1423 0.9914
-0.0002 0.0020 0.0400 -0.0980 0.2506 -0.9631 0.1423 0.9914
-0.0001 0.0018 0.0398 -0.3532 0.8166 -0.4566 0.1423 0.9871
0.0001 0.0018 0.0002 0.3776 0.8607 -0.3416 0.1423 0.0129
-0.0000 0.0017 0.0000 0.0000 0.4831 -0.8756 0.1466 0.0086
0.0018 0.0001 0.0398 0.8166 0.3532 -0.4566 0.0754 0.9871
0.0020 -0.0002 0.0400 0.2506 -0.0980 -0.9631 0.0736 0.9914
0.0018 0.0001 0.0398 0.8166 0.3532 -0.4566 0.0754 0.9871
0.0020 -0.0002 0.0400 0.2506 -0.0980 -0.9631 0.0736 0.9914
0.0020 0.0002 0.0400 0.2506 0.0980 -0.9631 0.0754 0.9914
-0.0018 0.0001 0.0002 -0.8607 0.3776 -0.3416 0.4780 0.4786
0.0001 -0.0018 0.0398 0.3532 -0.8166 -0.4566 0.2760 0.9871
-0.0002 -0.0020 0.0400 -0.0980 -0.2506 -0.9631 0.2742 0.9914
0.0001 -0.0018 0.0398 0.3532 -0.8166 -0.4566 0.2760 0.9871
-0.0002 -0.0020 0.0400 -0.0980 -0.2506 -0.9631 0.2742 0.9914
0.0002 -0.0020 0.0400 0.0980 -0.2506 -0.9631 0.2760 0.9914
-0.0044 0.0002 0.0400 -0.4019 0.2431 -0.8828 0.3006 0.3227
-0.0046 0.0001 0.0402 -0.6282 0.1960 -0.7529 0.2968 0.3190
-0.0046 0.0001 0.0402 -0.6282 0.1960 -0.7529 0.2968 0.3190
-0.0046 -0.0001 0.0402 -0.6282 -0.1960 -0.7529 0.2945 0.3213
0.0002 0.0044 0.0400 0.2431 0.4019 -0.8828 0.2946 0.6475
0.0001 0.0046 0.0402 0.1960 0.6282 -0.7529 0.2975 0.6430
-0.0001 0.0046 0.0402 -0.1960 0.6282 -0.7529 0.2988 0.6388
0.0002 0.0044 0.0400 0.2431 0.4019 -0.8828 0.2946 0.6475
-0.0001 0.0046 0.0402 -0.1960 0.6282 -0.7529 0.2988 0.6388
-0.0002 0.0044 0.0400 -0.2431 0.4019 -0.8828 0.2966 0.6414
0.0044 0.0002 0.0400 0.4019 0.2431 -0.8828 0.4534 0.4756
0.0046 -0.0001 0.0402 0.6282 -0.1960 -0.7529 0.4549 0.4816
0.0044 0.0002 0.0400 0.4019 0.2431 -0.8828 0.4534 0.4756
0.0046 -0.0001 0.0402 0.6282 -0.1960 -0.7529 0.4549 0.4816
0.0046 0.0001 0.0402 0.6282 0.1960 -0.7529 0.4571 0.4793
-0.0002 -0.0044 0.0400 -0.2431 -0.4019 -0.8828 0.3006 0.4756
-0.0001 -0.0046 0.0402 -0.1960 -0.6282 -0.7529 0.2968 0.4793
-0.0001 -0.0046 0.0402 -0.1960 -0.6282 -0.7529 0.2968 0.4793
0.0001 -0.0046 0.0402 0.1960 -0.6282 -0.7529 0.2991 0.4816
-0.0001 0.0001 0.0495 0.0000 -0.0000 1.0000 0.5419 0.7104
0.0001 0.0001 0.0495 0.0000 -0.0000 1.0000 0.5406 0.7146
0.0001 -0.0001 0.0495 0.0000 -0.0000 1.0000 0.5443 0.7121
-0.0001 0.0001 0.0495 0.0000 -0.0000 1.0000 0.5419 0.7104
0.0001 -0.0001 0.0495 0.0000 -0.0000 1.0000 0.5443 0.7121
-0.0001 -0.0001 0.0495 0.0000 -0.0000 1.0000 0.5454 0.7078
-0.0001 -0.0018 0.0002 -0.3776 -0.8607 -0.3416 0.2716 0.0129
0.0001 -0.0018 0.0398 0.3532 -0.8166 -0.4566 0.2760 0.9871
-0.0001 -0.0018 0.0002 -0.3776 -0.8607 -0.3416 0.2716 0.0129
0.0001 -0.0018 0.0398 0.3532 -0.8166 -0.4566 0.2760 0.9871
0.0001 -0.0018 0.0002 0.3776 -0.8607 -0.3416 0.2760 0.0129
-0.0018 -0.0001 0.0002 -0.8607 -0.3776 -0.3416 0.2135 0.0129
-0.0046 0.0001 0.0402 -0.8537 0.3186 0.4120 0.5535 0.9854
-0.0001 0.0001 0.0495 -0.6051 0.6051 0.5174 0.5535 0.7321
-0.0046 0.0001 0.0402 -0.8537 0.3186 0.4120 0.5535 0.9854
-0.0001 0.0046 0.0402 -0.1960 0.6282 -0.7529 0.3002 0.6347
-0.0046 0.0001 0.0402 -0.6282 0.1960 -0.7529 0.3901 0.5076
-0.0044 0.0002 0.0400 -0.4019 0.2431 -0.8828 0.3840 0.5087
-0.0001 0.0046 0.0402 -0.1960 0.6282 -0.7529 0.3002 0.6347
-0.0044 0.0002 0.0400 -0.4019 0.2431 -0.8828 0.3840 0.5087
-0.0002 0.0044 0.0400 -0.2431 0.4019 -0.8828 0.2992 0.6285
-0.0002 0.0020 0.0400 -0.0980 0.2506 -0.9631 0.1441 0.9914
-0.0020 0.0002 0.0400 -0.2506 0.0980 -0.9631 0.2073 0.9914
-0.0002 0.0020 0.0400 -0.0980 0.2506 -0.9631 0.1441 0.9914
-0.0001 0.0018 0.0002 -0.3776 0.8607 -0.3416 0.4780 0.4205
-0.0018 0.0001 0.0002 -0.8607 0.3776 -0.3416 0.4780 0.4786
-0.0001 0.0018 0.0002 -0.3776 0.8607 -0.3416 0.4780 0.4205
-0.0020 -0.0002 0.0400 -0.2506 -0.0980 -0.9631 0.2109 0.9914
-0.0002 -0.0020 0.0400 -0.0980 -0.2506 -0.9631 0.2742 0.9914
-0.0020 -0.0002 0.0400 -0.2506 -0.0980 -0.9631 0.2109 0.9914
-0.0046 -0.0001 0.0402 -0.6282 -0.1960 -0.7529 0.5491 0.9854
-0.0001 -0.0046 0.0402 -0.1960 -0.6282 -0.7529 0.4009 0.9376
-0.0002 -0.0044 0.0400 -0.2431 -0.4019 -0.8828 0.4039 0.9431
-0.0046 -0.0001 0.0402 -0.6282 -0.1960 -0.7529 0.5491 0.9854
-0.0002 -0.0044 0.0400 -0.2431 -0.4019 -0.8828 0.4039 0.9431
-0.0044 -0.0002 0.0400 -0.4019 -0.2431 -0.8828 0.5435 0.9882
0.0001 -0.0046 0.0402 0.1960 -0.6282 -0.7529 0.3939 0.9325
0.0046 -0.0001 0.0402 0.6282 -0.1960 -0.7529 0.3017 0.8070
0.0044 -0.0002 0.0400 0.4019 -0.2432 -0.8828 0.3008 0.8132
0.0001 -0.0046 0.0402 0.1960 -0.6282 -0.7529 0.3939 0.9325
0.0044 -0.0002 0.0400 0.4019 -0.2432 -0.8828 0.3008 0.8132
0.0002 -0.0044 0.0400 0.2431 -0.4019 -0.8828 0.3877 0.9314
0.0002 -0.0020 0.0400 0.0980 -0.2506 -0.9631 0.0104 0.9914
0.0020 -0.0002 0.0400 0.2506 -0.0980 -0.9631 0.0736 0.9914
0.0002 -0.0020 0.0400 0.0980 -0.2506 -0.9631 0.0104 0.9914
0.0001 -0.0018 0.0002 0.3776 -0.8607 -0.3416 0.5448 0.4786
0.0018 -0.0001 0.0002 0.8607 -0.3776 -0.3416 0.5448 0.4205
0.0001 -0.0018 0.0002 0.3776 -0.8607 -0.3416 0.5448 0.4786
0.0046 0.0001 0.0402 0.6282 0.1960 -0.7529 0.2989 0.7987
0.0001 0.0046 0.0402 0.1960 0.6282 -0.7529 0.2975 0.6430
0.0002 0.0044 0.0400 0.2431 0.4019 -0.8828 0.2932 0.6476
0.0046 0.0001 0.0402 0.6282 0.1960 -0.7529 0.2989 0.7987
0.0002 0.0044 0.0400 0.2431 0.4019 -0.8828 0.2932 0.6476
0.0044 0.0002 0.0400 0.4019 0.2431 -0.8828 0.2945 0.7942
0.0020 0.0002 0.0400 0.2506 0.0980 -0.9631 0.0772 0.9914
0.0002 0.0020 0.0400 0.0980 0.2506 -0.9631 0.1405 0.9914
0.0020 0.0002 0.0400 0.2506 0.0980 -0.9631 0.0772 0.9914
0.0018 0.0001 0.0002 0.8607 0.3776 -0.3416 0.5405 0.4162
0.0001 0.0018 0.0002 0.3776 0.8607 -0.3416 0.4823 0.4162
0.0018 0.0001 0.0002 0.8607 0.3776 -0.3416 0.5405 0.4162
-0.0018 -0.0001 0.0002 -0.8607 -0.3776 -0.3416 0.2135 0.0129
-0.0018 -0.0001 0.0002 -0.8607 -0.3776 -0.3416 0.2135 0.0129
-0.0001 -0.0018 0.0002 -0.3776 -0.8607 -0.3416 0.2716 0.0129
0 18 24
0 9 18
12 29 35
12 5 29
27 37 40
27 19 37
15 4 13
15 23 4
6 41 28
6 26 41
33 45 39
7 10 17
7 14 10
1 16 8
1 22 16
20 32 36
20 11 32
42 47 31
38 46 43
30 44 34
48 2 1
3 50 49
3 52 51
53 54 8
10 56 55
10 58 57
59 60 15
61 62 18
63 65 64
21 66 22
67 68 25
69 71 70
28 73 72
28 75 74
76 78 77
79 81 80
82 83 37
84 86 85
40 88 87
40 90 89
91 93 92
94 96 95
97 98 25
99 101 100
9 17 18
9 7 17
13 14 15
13 10 14
3 23 102
3 4 23
19 36 37
19 20 36
26 40 41
26 27 40
35 11 12
35 32 11
28 5 6
28 29 5
33 44 45
33 34 44
45 38 39
45 46 38
46 42 43
46 47 42
103 47 104
105 31 47
106 108 107
109 111 110
112 4 113
114 13 4
115 22 116
117 16 22
21 1 2
21 22 1
118 25 119
120 3 25
121 123 122
124 126 125
127 129 128
130 132 131
133 18 134
135 24 18
136 8 137
138 1 8
139 141 140
142 144 143
145 10 146
147 17 10
148 16 149
150 8 16
151 25 3
152 153 25
LABEL PointingCircle
MATERIAL 1
TEXTURE 1
FLAG 0
GEOM 512 256
-0.0000 0.0150 0.0500 0.0000 0.0000 1.0000 0.7042 0.7513
-0.0029 0.0147 0.0500 0.0000 0.0000 1.0000 0.6814 0.7536
-0.0057 0.0139 0.0500 0.0000 0.0000 1.0000 0.6594 0.7602
-0.0083 0.0125 0.0500 0.0000 -0.0000 1.0000 0.6392 0.7710
-0.0106 0.0106 0.0500 0.0000 -0.0000 1.0000 0.6215 0.7856
-0.0125 0.0083 0.0500 0.0000 0.0000 1.0000 0.6069 0.8033
-0.0139 0.0057 0.0500 0.0000 0.0000 1.0000 0.5961 0.8236
-0.0147 0.0029 0.0500 0.0000 0.0000 1.0000 0.5894 0.8455
-0.0150 0.0000 0.0500 0.0000 -0.0000 1.0000 0.5872 0.8683
-0.0147 -0.0029 0.0500 0.0000 -0.0000 1.0000 0.5894 0.8912
-0.0139 -0.0057 0.0500 0.0000 -0.0000 1.0000 0.5961 0.9131
-0.0125 -0.0083 0.0500 0.0000 0.0000 1.0000 0.6069 0.9334
-0.0106 -0.0106 0.0500 0.0000 0.0000 1.0000 0.6215 0.9511
-0.0083 -0.0125 0.0500 0.0000 -0.0000 1.0000 0.6392 0.9656
-0.0057 -0.0139 0.0500 0.0000 -0.0000 1.0000 0.6594 0.9765
-0.0029 -0.0147 0.0500 0.0000 0.0000 1.0000 0.6814 0.9831
-0.0000 -0.0150 0.0500 0.0000 0.0000 1.0000 0.7042 0.9854
0.0029 -0.0147 0.0500 0.0000 0.0000 1.0000 0.7270 0.9831
0.0057 -0.0139 0.0500 0.0000 0.0000 1.0000 0.7490 0.9765
0.0083 -0.0125 0.0500 0.0000 0.0000 1.0000 0.7692 0.9656
0.0106 -0.0106 0.0500 0.0000 0.0000 1.0000 0.7870 0.9511
0.0125 -0.0083 0.0500 0.0000 -0.0000 1.0000 0.8015 0.9334
0.0139 -0.0057 0.0500 0.0000 -0.0000 1.0000 0.8123 0.9131
0.0147 -0.0029 0.0500 0.0000 0.0000 1.0000 0.8190 0.8912
0.0150 0.0000 0.0500 0.0000 0.0000 1.0000 0.8212 0.8683
0.0147 0.0029 0.0500 0.0000 0.0000 1.0000 0.8190 0.8455
0.0139 0.0057 0.0500 0.0000 0.0000 1.0000 0.8123 0.8236
0.0125 0.0083 0.0500 0.0000 0.0000 1.0000 0.8015 0.8033
0.0106 0.0106 0.0500 0.0000 -0.0000 1.0000 0.7870 0.7856
0.0083 0.0125 0.0500 0.0000 -0.0000 1.0000 0.7692 0.7710
0.0057 0.0139 0.0500 0.0000 -0.0000 1.0000 0.7490 0.7602
0.0029 0.0147 0.0500 0.0000 -0.0000 1.0000 0.7270 0.7536
-0.0000 0.0137 0.0500 0.0000 0.0000 1.0000 0.7042 0.7678
-0.0027 0.0134 0.0500 0.0000 0.0000 1.0000 0.6846 0.7697
-0.0052 0.0127 0.0500 0.0000 0.0000 1.0000 0.6657 0.7754
-0.0076 0.0114 0.0500 0.0000 -0.0000 1.0000 0.6483 0.7847
-0.0097 0.0097 0.0500 0.0000 -0.0000 1.0000 0.6331 0.7972
-0.0114 0.0076 0.0500 0.0000 0.0000 1.0000 0.6206 0.8125
-0.0127 0.0052 0.0500 0.0000 0.0000 1.0000 0.6113 0.8299
-0.0134 0.0027 0.0500 0.0000 0.0000 1.0000 0.6056 0.8487
-0.0137 0.0000 0.0500 0.0000 -0.0000 1.0000 0.6036 0.8683
-0.0134 -0.0027 0.0500 0.0000 -0.0000 1.0000 0.6056 0.8880
-0.0127 -0.0052 0.0500 0.0000 -0.0000 1.0000 0.6113 0.9068
-0.0114 -0.0076 0.0500 0.0000 0.0000 1.0000 0.6206 0.9242
-0.0097 -0.0097 0.0500 0.0000 0.0000 1.0000 0.6331 0.9395
-0.0076 -0.0114 0.0500 0.0000 -0.0000 1.0000 0.6483 0.9520
-0.0052 -0.0127 0.0500 0.0000 -0.0000 1.0000 0.6657 0.9613
-0.0027 -0.0134 0.0500 0.0000 0.0000 1.0000 0.6846 0.9670
-0.0000 -0.0137 0.0500 0.0000 0.0000 1.0000 0.7042 0.9689
0.0027 -0.0134 0.0500 0.0000 0.0000 1.0000 0.7238 0.9670
0.0052 -0.0127 0.0500 0.0000 0.0000 1.0000 0.7427 0.9613
0.0076 -0.0114 0.0500 0.0000 0.0000 1.0000 0.7601 0.9520
0.0097 -0.0097 0.0500 0.0000 0.0000 1.0000 0.7753 0.9395
0.0114 -0.0076 0.0500 0.0000 -0.0000 1.0000 0.7878 0.9242
0.0127 -0.0052 0.0500 0.0000 -0.0000 1.0000 0.7971 0.9068
0.0134 -0.0027 0.0500 0.0000 0.0000 1.0000 0.8029 0.8880
0.0137 0.0000 0.0500 0.0000 0.0000 1.0000 0.8048 0.8683
0.0134 0.0027 0.0500 0.0000 0.0000 1.0000 0.8029 0.8487
0.0127 0.0052 0.0500 0.0000 0.0000 1.0000 0.7971 0.8299
0.0114 0.0076 0.0500 0.0000 0.0000 1.0000 0.7878 0.8125
0.0097 0.0097 0.0500 0.0000 -0.0000 1.0000 0.7753 0.7972
0.0076 0.0114 0.0500 0.0000 -0.0000 1.0000 0.7601 0.7847
0.0052 0.0127 0.0500 0.0000 -0.0000 1.0000 0.7427 0.7754
0.0027 0.0134 0.0500 0.0000 -0.0000 1.0000 0.7238 0.7697
-0.0000 0.0150 0.0491 0.0000 0.0000 -1.0000 0.7042 0.7552
-0.0029 0.0147 0.0491 0.0000 0.0000 -1.0000 0.6822 0.7574
-0.0057 0.0139 0.0491 0.0000 0.0000 -1.0000 0.6609 0.7638
-0.0083 0.0125 0.0491 0.0000 -0.0000 -1.0000 0.6414 0.7743
-0.0106 0.0106 0.0491 0.0000 -0.0000 -1.0000 0.6242 0.7884
-0.0125 0.0083 0.0491 0.0000 -0.0000 -1.0000 0.6102 0.8055
-0.0139 0.0057 0.0491 0.0000 0.0000 -1.0000 0.5997 0.8251
-0.0147 0.0029 0.0491 0.0000 0.0000 -1.0000 0.5933 0.8463
-0.0150 0.0000 0.0491 0.0000 0.0000 -1.0000 0.5911 0.8683
-0.0147 -0.0029 0.0491 0.0000 -0.0000 -1.0000 0.5933 0.8904
-0.0139 -0.0057 0.0491 0.0000 -0.0000 -1.0000 0.5997 0.9116
-0.0125 -0.0083 0.0491 0.0000 0.0000 -1.0000 0.6102 0.9312
-0.0106 -0.0106 0.0491 0.0000 0.0000 -1.0000 0.6242 0.9483
-0.0083 -0.0125 0.0491 0.0000 0.0000 -1.0000 0.6414 0.9624
-0.0057 -0.0139 0.0491 0.0000 0.0000 -1.0000 0.6609 0.9728
-0.0029 -0.0147 0.0491 0.0000 0.0000 -1.0000 0.6822 0.9793
-0.0000 -0.0150 0.0491 0.0000 0.0000 -1.0000 0.7042 0.9815
0.0029 -0.0147 0.0491 0.0000 -0.0000 -1.0000 0.7263 0.9793
0.0057 -0.0139 0.0491 0.0000 -0.0000 -1.0000 0.7475 0.9728
0.0083 -0.0125 0.0491 0.0000 -0.0000 -1.0000 0.7671 0.9624
0.0106 -0.0106 0.0491 0.0000 0.0000 -1.0000 0.7842 0.9483
0.0125 -0.0083 0.0491 0.0000 0.0000 -1.0000 0.7983 0.9312
0.0139 -0.0057 0.0491 0.0000 0.0000 -1.0000 0.8087 0.9116
0.0147 -0.0029 0.0491 0.0000 0.0000 -1.0000 0.8152 0.8904
0.0150 0.0000 0.0491 0.0000 0.0000 -1.0000 0.8173 0.8683
0.0147 0.0029 0.0491 0.0000 0.0000 -1.0000 0.8152 0.8463
0.0139 0.0057 0.0491 0.0000 -0.0000 -1.0000 0.8087 0.8251
0.0125 0.0083 0.0491 0.0000 -0.0000 -1.0000 0.7983 0.8055
0.0106 0.0106 0.0491 0.0000 -0.0000 -1.0000 0.7842 0.7884
0.0083 0.0125 0.0491 0.0000 -0.0000 -1.0000 0.7671 0.7743
0.0057 0.0139 0.0491 0.0000 0.0000 -1.0000 0.7475 0.7638
0.0029 0.0147 0.0491 0.0000 0.0000 -1.0000 0.7263 0.7574
-0.0000 0.0137 0.0491 0.0000 0.0000 -1.0000 0.7042 0.7650
-0.0027 0.0134 0.0491 0.0000 0.0000 -1.0000 0.6841 0.7670
-0.0052 0.0127 0.0491 0.0000 0.0000 -1.0000 0.6647 0.7729
-0.0076 0.0114 0.0491 0.0000 -0.0000 -1.0000 0.6468 0.7824
-0.0097 0.0097 0.0491 0.0000 -0.0000 -1.0000 0.6311 0.7953
-0.0114 0.0076 0.0491 0.0000 -0.0000 -1.0000 0.6183 0.8109
-0.0127 0.0052 0.0491 0.0000 0.0000 -1.0000 0.6087 0.8288
-0.0134 0.0027 0.0491 0.0000 0.0000 -1.0000 0.6029 0.8482
-0.0137 0.0000 0.0491 0.0000 0.0000 -1.0000 0.6009 0.8683
-0.0134 -0.0027 0.0491 0.0000 -0.0000 -1.0000 0.6029 0.8885
-0.0127 -0.0052 0.0491 0.0000 -0.0000 -1.0000 0.6087 0.9079
-0.0114 -0.0076 0.0491 0.0000 0.0000 -1.0000 0.6183 0.9258
-0.0097 -0.0097 0.0491 0.0000 0.0000 -1.0000 0.6311 0.9414
-0.0076 -0.0114 0.0491 0.0000 0.0000 -1.0000 0.6468 0.9543
-0.0052 -0.0127 0.0491 0.0000 0.0000 -1.0000 0.6647 0.9638
-0.0027 -0.0134 0.0491 0.0000 0.0000 -1.0000 0.6841 0.9697
-0.0000 -0.0137 0.0491 0.0000 0.0000 -1.0000 0.7042 0.9717
0.0027 -0.0134 0.0491 0.0000 -0.0000 -1.0000 0.7244 0.9697
0.0052 -0.0127 0.0491 0.0000 -0.0000 -1.0000 0.7438 0.9638
0.0076 -0.0114 0.0491 0.0000 -0.0000 -1.0000 0.7616 0.9543
0.0097 -0.0097 0.0491 0.0000 0.0000 -1.0000 0.7773 0.9414
0.0114 -0.0076 0.0491 0.0000 0.0000 -1.0000 0.7901 0.9258
0.0127 -0.0052 0.0491 0.0000 0.0000 -1.0000 0.7997 0.9079
0.0134 -0.0027 0.0491 0.0000 0.0000 -1.0000 0.8056 0.8885
0.0137 0.0000 0.0491 0.0000 0.0000 -1.0000 0.8076 0.8683
0.0134 0.0027 0.0491 0.0000 0.0000 -1.0000 0.8056 0.8482
0.0127 0.0052 0.0491 0.0000 -0.0000 -1.0000 0.7997 0.8288
0.0114 0.0076 0.0491 0.0000 -0.0000 -1.0000 0.7901 0.8109
0.0097 0.0097 0.0491 0.0000 -0.0000 -1.0000 0.7773 0.7953
0.0076 0.0114 0.0491 0.0000 -0.0000 -1.0000 0.7616 0.7824
0.0052 0.0127 0.0491 0.0000 0.0000 -1.0000 0.7438 0.7729
0.0027 0.0134 0.0491 0.0000 0.0000 -1.0000 0.7244 0.7670
-0.0134 -0.0027 0.0500 0.9808 0.1951 0.0000 0.6056 0.8880
-0.0134 -0.0027 0.0491 0.9808 0.1951 0.0000 0.6029 0.8885
-0.0127 -0.0052 0.0491 0.9239 0.3827 0.0000 0.6087 0.9079
-0.0134 -0.0027 0.0500 0.9808 0.1951 0.0000 0.6056 0.8880
-0.0127 -0.0052 0.0491 0.9239 0.3827 0.0000 0.6087 0.9079
-0.0127 -0.0052 0.0500 0.9239 0.3827 0.0000 0.6113 0.9068
-0.0000 -0.0150 0.0500 0.0000 -1.0000 0.0000 0.7042 0.9854
-0.0000 -0.0150 0.0491 0.0000 -1.0000 0.0000 0.7042 0.9815
-0.0029 -0.0147 0.0491 -0.1951 -0.9808 0.0000 0.6822 0.9793
-0.0000 -0.0150 0.0500 0.0000 -1.0000 0.0000 0.7042 0.9854
-0.0029 -0.0147 0.0491 -0.1951 -0.9808 0.0000 0.6822 0.9793
-0.0029 -0.0147 0.0500 -0.1951 -0.9808 0.0000 0.6814 0.9831
-0.0127 -0.0052 0.0500 0.9239 0.3827 0.0000 0.6113 0.9068
-0.0127 -0.0052 0.0491 0.9239 0.3827 0.0000 0.6087 0.9079
-0.0114 -0.0076 0.0491 0.8315 0.5556 0.0000 0.6183 0.9258
-0.0127 -0.0052 0.0500 0.9239 0.3827 0.0000 0.6113 0.9068
-0.0114 -0.0076 0.0491 0.8315 0.5556 0.0000 0.6183 0.9258
-0.0114 -0.0076 0.0500 0.8315 0.5556 0.0000 0.6206 0.9242
0.0029 -0.0147 0.0500 0.1951 -0.9808 0.0000 0.7270 0.9831
0.0029 -0.0147 0.0491 0.1951 -0.9808 0.0000 0.7263 0.9793
-0.0000 -0.0150 0.0491 0.0000 -1.0000 0.0000 0.7042 0.9815
0.0029 -0.0147 0.0500 0.1951 -0.9808 0.0000 0.7270 0.9831
-0.0000 -0.0150 0.0491 0.0000 -1.0000 0.0000 0.7042 0.9815
-0.0000 -0.0150 0.0500 0.0000 -1.0000 0.0000 0.7042 0.9854
-0.0114 -0.0076 0.0500 0.8315 0.5556 0.0000 0.6206 0.9242
-0.0114 -0.0076 0.0491 0.8315 0.5556 0.0000 0.6183 0.9258
-0.0097 -0.0097 0.0491 0.7071 0.7071 0.0000 0.6311 0.9414
-0.0114 -0.0076 0.0500 0.8315 0.5556 0.0000 0.6206 0.9242
-0.0097 -0.0097 0.0491 0.7071 0.7071 0.0000 0.6311 0.9414
-0.0097 -0.0097 0.0500 0.7071 0.7071 0.0000 0.6331 0.9395
0.0057 -0.0139 0.0500 0.3827 -0.9239 0.0000 0.7490 0.9765
0.0057 -0.0139 0.0491 0.3827 -0.9239 0.0000 0.7475 0.9728
0.0029 -0.0147 0.0491 0.1951 -0.9808 0.0000 0.7263 0.9793
0.0057 -0.0139 0.0500 0.3827 -0.9239 0.0000 0.7490 0.9765
0.0029 -0.0147 0.0491 0.1951 -0.9808 0.0000 0.7263 0.9793
0.0029 -0.0147 0.0500 0.1951 -0.9808 0.0000 0.7270 0.9831
-0.0097 -0.0097 0.0500 0.7071 0.7071 0.0000 0.6331 0.9395
-0.0097 -0.0097 0.0491 0.7071 0.7071 0.0000 0.6311 0.9414
-0.0076 -0.0114 0.0491 0.5556 0.8315 0.0000 0.6468 0.9543
-0.0097 -0.0097 0.0500 0.7071 0.7071 0.0000 0.6331 0.9395
-0.0076 -0.0114 0.0491 0.5556 0.8315 0.0000 0.6468 0.9543
-0.0076 -0.0114 0.0500 0.5556 0.8315 0.0000 0.6483 0.9520
0.0083 -0.0125 0.0500 0.5556 -0.8315 0.0000 0.7692 0.9656
0.0083 -0.0125 0.0491 0.5556 -0.8315 0.0000 0.7671 0.9624
0.0057 -0.0139 0.0491 0.3827 -0.9239 0.0000 0.7475 0.9728
0.0083 -0.0125 0.0500 0.5556 -0.8315 0.0000 0.7692 0.9656
0.0057 -0.0139 0.0491 0.3827 -0.9239 0.0000 0.7475 0.9728
0.0057 -0.0139 0.0500 0.3827 -0.9239 0.0000 0.7490 0.9765
-0.0076 -0.0114 0.0500 0.5556 0.8315 0.0000 0.6483 0.9520
-0.0076 -0.0114 0.0491 0.5556 0.8315 0.0000 0.6468 0.9543
-0.0052 -0.0127 0.0491 0.3827 0.9239 0.0000 0.6647 0.9638
-0.0076 -0.0114 0.0500 0.5556 0.8315 0.0000 0.6483 0.9520
-0.0052 -0.0127 0.0491 0.3827 0.9239 0.0000 0.6647 0.9638
-0.0052 -0.0127 0.0500 0.3827 0.9239 0.0000 0.6657 0.9613
0.0106 -0.0106 0.0500 0.7071 -0.7071 0.0000 0.7870 0.9511
0.0106 -0.0106 0.0491 0.7071 -0.7071 0.0000 0.7842 0.9483
0.0083 -0.0125 0.0491 0.5556 -0.8315 0.0000 0.7671 0.9624
0.0106 -0.0106 0.0500 0.7071 -0.7071 0.0000 0.7870 0.9511
0.0083 -0.0125 0.0491 0.5556 -0.8315 0.0000 0.7671 0.9624
0.0083 -0.0125 0.0500 0.5556 -0.8315 0.0000 0.7692 0.9656
-0.0052 -0.0127 0.0500 0.3827 0.9239 0.0000 0.6657 0.9613
-0.0052 -0.0127 0.0491 0.3827 0.9239 0.0000 0.6647 0.9638
-0.0027 -0.0134 0.0491 0.1951 0.9808 0.0000 0.6841 0.9697
-0.0052 -0.0127 0.0500 0.3827 0.9239 0.0000 0.6657 0.9613
-0.0027 -0.0134 0.0491 0.1951 0.9808 0.0000 0.6841 0.9697
-0.0027 -0.0134 0.0500 0.1951 0.9808 0.0000 0.6846 0.9670
0.0125 -0.0083 0.0500 0.8315 -0.5556 0.0000 0.8015 0.9334
0.0125 -0.0083 0.0491 0.8315 -0.5556 0.0000 0.7983 0.9312
0.0106 -0.0106 0.0491 0.7071 -0.7071 0.0000 0.7842 0.9483
0.0125 -0.0083 0.0500 0.8315 -0.5556 0.0000 0.8015 0.9334
0.0106 -0.0106 0.0491 0.7071 -0.7071 0.0000 0.7842 0.9483
0.0106 -0.0106 0.0500 0.7071 -0.7071 0.0000 0.7870 0.9511
-0.0027 -0.0134 0.0500 0.1951 0.9808 0.0000 0.6846 0.9670
-0.0027 -0.0134 0.0491 0.1951 0.9808 0.0000 0.6841 0.9697
-0.0000 -0.0137 0.0491 0.0000 1.0000 0.0000 0.7042 0.9717
-0.0027 -0.0134 0.0500 0.1951 0.9808 0.0000 0.6846 0.9670
-0.0000 -0.0137 0.0491 0.0000 1.0000 0.0000 0.7042 0.9717
-0.0000 -0.0137 0.0500 0.0000 1.0000 0.0000 0.7042 0.9689
0.0139 -0.0057 0.0500 0.9239 -0.3827 0.0000 0.8123 0.9131
0.0139 -0.0057 0.0491 0.9239 -0.3827 0.0000 0.8087 0.9116
0.0125 -0.0083 0.0491 0.8315 -0.5556 0.0000 0.7983 0.9312
0.0139 -0.0057 0.0500 0.9239 -0.3827 0.0000 0.8123 0.9131
0.0125 -0.0083 0.0491 0.8315 -0.5556 0.0000 0.7983 0.9312
0.0125 -0.0083 0.0500 0.8315 -0.5556 0.0000 0.8015 0.9334
-0.0000 -0.0137 0.0500 0.0000 1.0000 0.0000 0.7042 0.9689
-0.0000 -0.0137 0.0491 0.0000 1.0000 0.0000 0.7042 0.9717
0.0027 -0.0134 0.0491 -0.1951 0.9808 0.0000 0.7244 0.9697
-0.0000 -0.0137 0.0500 0.0000 1.0000 0.0000 0.7042 0.9689
0.0027 -0.0134 0.0491 -0.1951 0.9808 0.0000 0.7244 0.9697
0.0027 -0.0134 0.0500 -0.1951 0.9808 0.0000 0.7238 0.9670
0.0147 -0.0029 0.0500 0.9808 -0.1951 -0.0000 0.8190 0.8912
0.0147 -0.0029 0.0491 0.9808 -0.1951 -0.0000 0.8152 0.8904
0.0139 -0.0057 0.0491 0.9239 -0.3827 0.0000 0.8087 0.9116
0.0147 -0.0029 0.0500 0.9808 -0.1951 -0.0000 0.8190 0.8912
0.0139 -0.0057 0.0491 0.9239 -0.3827 0.0000 0.8087 0.9116
0.0139 -0.0057 0.0500 0.9239 -0.3827 0.0000 0.8123 0.9131
0.0027 -0.0134 0.0500 -0.1951 0.9808 0.0000 0.7238 0.9670
0.0027 -0.0134 0.0491 -0.1951 0.9808 0.0000 0.7244 0.9697
0.0052 -0.0127 0.0491 -0.3827 0.9239 0.0000 0.7438 0.9638
0.0027 -0.0134 0.0500 -0.1951 0.9808 0.0000 0.7238 0.9670
0.0052 -0.0127 0.0491 -0.3827 0.9239 0.0000 0.7438 0.9638
0.0052 -0.0127 0.0500 -0.3827 0.9239 0.0000 0.7427 0.9613
0.0150 0.0000 0.0500 1.0000 0.0000 -0.0000 0.8212 0.8683
0.0150 0.0000 0.0491 1.0000 -0.0000 -0.0000 0.8173 0.8683
0.0147 -0.0029 0.0491 0.9808 -0.1951 -0.0000 0.8152 0.8904
0.0150 0.0000 0.0500 1.0000 0.0000 -0.0000 0.8212 0.8683
0.0147 -0.0029 0.0491 0.9808 -0.1951 -0.0000 0.8152 0.8904
0.0147 -0.0029 0.0500 0.9808 -0.1951 -0.0000 0.8190 0.8912
0.0052 -0.0127 0.0500 -0.3827 0.9239 0.0000 0.7427 0.9613
0.0052 -0.0127 0.0491 -0.3827 0.9239 0.0000 0.7438 0.9638
0.0076 -0.0114 0.0491 -0.5556 0.8315 0.0000 0.7616 0.9543
0.0052 -0.0127 0.0500 -0.3827 0.9239 0.0000 0.7427 0.9613
0.0076 -0.0114 0.0491 -0.5556 0.8315 0.0000 0.7616 0.9543
0.0076 -0.0114 0.0500 -0.5556 0.8315 0.0000 0.7601 0.9520
0.0147 0.0029 0.0500 0.9808 0.1951 0.0000 0.8190 0.8455
0.0147 0.0029 0.0491 0.9808 0.1951 0.0000 0.8152 0.8463
0.0150 0.0000 0.0491 1.0000 -0.0000 -0.0000 0.8173 0.8683
0.0147 0.0029 0.0500 0.9808 0.1951 0.0000 0.8190 0.8455
0.0150 0.0000 0.0491 1.0000 -0.0000 -0.0000 0.8173 0.8683
0.0150 0.0000 0.0500 1.0000 0.0000 -0.0000 0.8212 0.8683
0.0076 -0.0114 0.0500 -0.5556 0.8315 0.0000 0.7601 0.9520
0.0076 -0.0114 0.0491 -0.5556 0.8315 0.0000 0.7616 0.9543
0.0097 -0.0097 0.0491 -0.7071 0.7071 0.0000 0.7773 0.9414
0.0076 -0.0114 0.0500 -0.5556 0.8315 0.0000 0.7601 0.9520
0.0097 -0.0097 0.0491 -0.7071 0.7071 0.0000 0.7773 0.9414
0.0097 -0.0097 0.0500 -0.7071 0.7071 0.0000 0.7753 0.9395
0.0139 0.0057 0.0500 0.9239 0.3827 0.0000 0.8123 0.8236
0.0139 0.0057 0.0491 0.9239 0.3827 0.0000 0.8087 0.8251
0.0147 0.0029 0.0491 0.9808 0.1951 0.0000 0.8152 0.8463
0.0139 0.0057 0.0500 0.9239 0.3827 0.0000 0.8123 0.8236
0.0147 0.0029 0.0491 0.9808 0.1951 0.0000 0.8152 0.8463
0.0147 0.0029 0.0500 0.9808 0.1951 0.0000 0.8190 0.8455
0.0097 -0.0097 0.0500 -0.7071 0.7071 0.0000 0.7753 0.9395
0.0097 -0.0097 0.0491 -0.7071 0.7071 0.0000 0.7773 0.9414
0.0114 -0.0076 0.0491 -0.8315 0.5556 0.0000 0.7901 0.9258
0.0097 -0.0097 0.0500 -0.7071 0.7071 0.0000 0.7753 0.9395
0.0114 -0.0076 0.0491 -0.8315 0.5556 0.0000 0.7901 0.9258
0.0114 -0.0076 0.0500 -0.8315 0.5556 0.0000 0.7878 0.9242
0.0125 0.0083 0.0500 0.8315 0.5556 0.0000 0.8015 0.8033
0.0125 0.0083 0.0491 0.8315 0.5556 0.0000 0.7983 0.8055
0.0139 0.0057 0.0491 0.9239 0.3827 0.0000 0.8087 0.8251
0.0125 0.0083 0.0500 0.8315 0.5556 0.0000 0.8015 0.8033
0.0139 0.0057 0.0491 0.9239 0.3827 0.0000 0.8087 0.8251
0.0139 0.0057 0.0500 0.9239 0.3827 0.0000 0.8123 0.8236
-0.0029 0.0147 0.0500 -0.1951 0.9808 0.0000 0.6814 0.7536
-0.0029 0.0147 0.0491 -0.1951 0.9808 0.0000 0.6822 0.7574
-0.0000 0.0150 0.0491 0.0000 1.0000 0.0000 0.7042 0.7552
-0.0029 0.0147 0.0500 -0.1951 0.9808 0.0000 0.6814 0.7536
-0.0000 0.0150 0.0491 0.0000 1.0000 0.0000 0.7042 0.7552
-0.0000 0.0150 0.0500 0.0000 1.0000 0.0000 0.7042 0.7513
0.0114 -0.0076 0.0500 -0.8315 0.5556 0.0000 0.7878 0.9242
0.0114 -0.0076 0.0491 -0.8315 0.5556 0.0000 0.7901 0.9258
0.0127 -0.0052 0.0491 -0.9239 0.3827 0.0000 0.7997 0.9079
0.0114 -0.0076 0.0500 -0.8315 0.5556 0.0000 0.7878 0.9242
0.0127 -0.0052 0.0491 -0.9239 0.3827 0.0000 0.7997 0.9079
0.0127 -0.0052 0.0500 -0.9239 0.3827 0.0000 0.7971 0.9068
0.0106 0.0106 0.0500 0.7071 0.7071 0.0000 0.7870 0.7856
0.0106 0.0106 0.0491 0.7071 0.7071 0.0000 0.7842 0.7884
0.0125 0.0083 0.0491 0.8315 0.5556 0.0000 0.7983 0.8055
0.0106 0.0106 0.0500 0.7071 0.7071 0.0000 0.7870 0.7856
0.0125 0.0083 0.0491 0.8315 0.5556 0.0000 0.7983 0.8055
0.0125 0.0083 0.0500 0.8315 0.5556 0.0000 0.8015 0.8033
-0.0057 0.0139 0.0500 -0.3827 0.9239 0.0000 0.6594 0.7602
-0.0057 0.0139 0.0491 -0.3827 0.9239 0.0000 0.6609 0.7638
-0.0029 0.0147 0.0491 -0.1951 0.9808 0.0000 0.6822 0.7574
-0.0057 0.0139 0.0500 -0.3827 0.9239 0.0000 0.6594 0.7602
-0.0029 0.0147 0.0491 -0.1951 0.9808 0.0000 0.6822 0.7574
-0.0029 0.0147 0.0500 -0.1951 0.9808 0.0000 0.6814 0.7536
0.0127 -0.0052 0.0500 -0.9239 0.3827 0.0000 0.7971 0.9068
0.0127 -0.0052 0.0491 -0.9239 0.3827 0.0000 0.7997 0.9079
0.0134 -0.0027 0.0491 -0.9808 0.1951 -0.0000 0.8056 0.8885
0.0127 -0.0052 0.0500 -0.9239 0.3827 0.0000 0.7971 0.9068
0.0134 -0.0027 0.0491 -0.9808 0.1951 -0.0000 0.8056 0.8885
0.0134 -0.0027 0.0500 -0.9808 0.1951 -0.0000 0.8029 0.8880
0.0083 0.0125 0.0500 0.5556 0.8315 0.0000 0.7692 0.7710
0.0083 0.0125 0.0491 0.5556 0.8315 0.0000 0.7671 0.7743
0.0106 0.0106 0.0491 0.7071 0.7071 0.0000 0.7842 0.7884
0.0083 0.0125 0.0500 0.5556 0.8315 0.0000 0.7692 0.7710
0.0106 0.0106 0.0491 0.7071 0.7071 0.0000 0.7842 0.7884
0.0106 0.0106 0.0500 0.7071 0.7071 0.0000 0.7870 0.7856
-0.0083 0.0125 0.0500 -0.5556 0.8315 0.0000 0.6392 0.7710
-0.0083 0.0125 0.0491 -0.5556 0.8315 0.0000 0.6414 0.7743
-0.0057 0.0139 0.0491 -0.3827 0.9239 0.0000 0.6609 0.7638
-0.0083 0.0125 0.0500 -0.5556 0.8315 0.0000 0.6392 0.7710
-0.0057 0.0139 0.0491 -0.3827 0.9239 0.0000 0.6609 0.7638
-0.0057 0.0139 0.0500 -0.3827 0.9239 0.0000 0.6594 0.7602
0.0134 -0.0027 0.0500 -0.9808 0.1951 -0.0000 0.8029 0.8880
0.0134 -0.0027 0.0491 -0.9808 0.1951 -0.0000 0.8056 0.8885
0.0137 0.0000 0.0491 -1.0000 0.0000 -0.0000 0.8076 0.8683
0.0134 -0.0027 0.0500 -0.9808 0.1951 -0.0000 0.8029 0.8880
0.0137 0.0000 0.0491 -1.0000 0.0000 -0.0000 0.8076 0.8683
0.0137 0.0000 0.0500 -1.0000 0.0000 -0.0000 0.8048 0.8683
0.0057 0.0139 0.0500 0.3827 0.9239 0.0000 0.7490 0.7602
0.0057 0.0139 0.0491 0.3827 0.9239 0.0000 0.7475 0.7638
0.0083 0.0125 0.0491 0.5556 0.8315 0.0000 0.7671 0.7743
0.0057 0.0139 0.0500 0.3827 0.9239 0.0000 0.7490 0.7602
0.0083 0.0125 0.0491 0.5556 0.8315 0.0000 0.7671 0.7743
0.0083 0.0125 0.0500 0.5556 0.8315 0.0000 0.7692 0.7710
-0.0106 0.0106 0.0500 -0.7071 0.7071 0.0000 0.6215 0.7856
-0.0106 0.0106 0.0491 -0.7071 0.7071 0.0000 0.6242 0.7884
-0.0083 0.0125 0.0491 -0.5556 0.8315 0.0000 0.6414 0.7743
-0.0106 0.0106 0.0500 -0.7071 0.7071 0.0000 0.6215 0.7856
-0.0083 0.0125 0.0491 -0.5556 0.8315 0.0000 0.6414 0.7743
-0.0083 0.0125 0.0500 -0.5556 0.8315 0.0000 0.6392 0.7710
0.0137 0.0000 0.0500 -1.0000 0.0000 -0.0000 0.8048 0.8683
0.0137 0.0000 0.0491 -1.0000 0.0000 -0.0000 0.8076 0.8683
0.0134 0.0027 0.0491 -0.9808 -0.1951 0.0000 0.8056 0.8482
0.0137 0.0000 0.0500 -1.0000 0.0000 -0.0000 0.8048 0.8683
0.0134 0.0027 0.0491 -0.9808 -0.1951 0.0000 0.8056 0.8482
0.0134 0.0027 0.0500 -0.9808 -0.1951 0.0000 0.8029 0.8487
0.0029 0.0147 0.0500 0.1951 0.9808 0.0000 0.7270 0.7536
0.0029 0.0147 0.0491 0.1951 0.9808 0.0000 0.7263 0.7574
0.0057 0.0139 0.0491 0.3827 0.9239 0.0000 0.7475 0.7638
0.0029 0.0147 0.0500 0.1951 0.9808 0.0000 0.7270 0.7536
0.0057 0.0139 0.0491 0.3827 0.9239 0.0000 0.7475 0.7638
0.0057 0.0139 0.0500 0.3827 0.9239 0.0000 0.7490 0.7602
-0.0125 0.0083 0.0500 -0.8315 0.5556 0.0000 0.6069 0.8033
-0.0125 0.0083 0.0491 -0.8315 0.5556 0.0000 0.6102 0.8055
-0.0106 0.0106 0.0491 -0.7071 0.7071 0.0000 0.6242 0.7884
-0.0125 0.0083 0.0500 -0.8315 0.5556 0.0000 0.6069 0.8033
-0.0106 0.0106 0.0491 -0.7071 0.7071 0.0000 0.6242 0.7884
-0.0106 0.0106 0.0500 -0.7071 0.7071 0.0000 0.6215 0.7856
0.0134 0.0027 0.0500 -0.9808 -0.1951 0.0000 0.8029 0.8487
0.0134 0.0027 0.0491 -0.9808 -0.1951 0.0000 0.8056 0.8482
0.0127 0.0052 0.0491 -0.9239 -0.3827 0.0000 0.7997 0.8288
0.0134 0.0027 0.0500 -0.9808 -0.1951 0.0000 0.8029 0.8487
0.0127 0.0052 0.0491 -0.9239 -0.3827 0.0000 0.7997 0.8288
0.0127 0.0052 0.0500 -0.9239 -0.3827 0.0000 0.7971 0.8299
-0.0000 0.0150 0.0500 0.0000 1.0000 0.0000 0.7042 0.7513
-0.0000 0.0150 0.0491 0.0000 1.0000 0.0000 0.7042 0.7552
0.0029 0.0147 0.0491 0.1951 0.9808 0.0000 0.7263 0.7574
-0.0000 0.0150 0.0500 0.0000 1.0000 0.0000 0.7042 0.7513
0.0029 0.0147 0.0491 0.1951 0.9808 0.0000 0.7263 0.7574
0.0029 0.0147 0.0500 0.1951 0.9808 0.0000 0.7270 0.7536
-0.0139 0.0057 0.0500 -0.9239 0.3827 0.0000 0.5961 0.8236
-0.0139 0.0057 0.0491 -0.9239 0.3827 0.0000 0.5997 0.8251
-0.0125 0.0083 0.0491 -0.8315 0.5556 0.0000 0.6102 0.8055
-0.0139 0.0057 0.0500 -0.9239 0.3827 0.0000 0.5961 0.8236
-0.0125 0.0083 0.0491 -0.8315 0.5556 0.0000 0.6102 0.8055
-0.0125 0.0083 0.0500 -0.8315 0.5556 0.0000 0.6069 0.8033
0.0127 0.0052 0.0500 -0.9239 -0.3827 0.0000 0.7971 0.8299
0.0127 0.0052 0.0491 -0.9239 -0.3827 0.0000 0.7997 0.8288
0.0114 0.0076 0.0491 -0.8315 -0.5556 0.0000 0.7901 0.8109
0.0127 0.0052 0.0500 -0.9239 -0.3827 0.0000 0.7971 0.8299
0.0114 0.0076 0.0491 -0.8315 -0.5556 0.0000 0.7901 0.8109
0.0114 0.0076 0.0500 -0.8315 -0.5556 0.0000 0.7878 0.8125
-0.0000 0.0137 0.0500 0.0000 -1.0000 0.0000 0.7042 0.7678
-0.0000 0.0137 0.0491 0.0000 -1.0000 0.0000 0.7042 0.7650
-0.0027 0.0134 0.0491 0.1951 -0.9808 0.0000 0.6841 0.7670
-0.0000 0.0137 0.0500 0.0000 -1.0000 0.0000 0.7042 0.7678
-0.0027 0.0134 0.0491 0.1951 -0.9808 0.0000 0.6841 0.7670
-0.0027 0.0134 0.0500 0.1951 -0.9808 0.0000 0.6846 0.7697
-0.0147 0.0029 0.0500 -0.9808 0.1951 0.0000 0.5894 0.8455
-0.0147 0.0029 0.0491 -0.9808 0.1951 0.0000 0.5933 0.8463
-0.0139 0.0057 0.0491 -0.9239 0.3827 0.0000 0.5997 0.8251
-0.0147 0.0029 0.0500 -0.9808 0.1951 0.0000 0.5894 0.8455
-0.0139 0.0057 0.0491 -0.9239 0.3827 0.0000 0.5997 0.8251
-0.0139 0.0057 0.0500 -0.9239 0.3827 0.0000 0.5961 0.8236
0.0114 0.0076 0.0500 -0.8315 -0.5556 0.0000 0.7878 0.8125
0.0114 0.0076 0.0491 -0.8315 -0.5556 0.0000 0.7901 0.8109
0.0097 0.0097 0.0491 -0.7071 -0.7071 0.0000 0.7773 0.7953
0.0114 0.0076 0.0500 -0.8315 -0.5556 0.0000 0.7878 0.8125
0.0097 0.0097 0.0491 -0.7071 -0.7071 0.0000 0.7773 0.7953
0.0097 0.0097 0.0500 -0.7071 -0.7071 0.0000 0.7753 0.7972
-0.0027 0.0134 0.0500 0.1951 -0.9808 0.0000 0.6846 0.7697
-0.0027 0.0134 0.0491 0.1951 -0.9808 0.0000 0.6841 0.7670
-0.0052 0.0127 0.0491 0.3827 -0.9239 0.0000 0.6647 0.7729
-0.0027 0.0134 0.0500 0.1951 -0.9808 0.0000 0.6846 0.7697
-0.0052 0.0127 0.0491 0.3827 -0.9239 0.0000 0.6647 0.7729
-0.0052 0.0127 0.0500 0.3827 -0.9239 0.0000 0.6657 0.7754
-0.0150 0.0000 0.0500 -1.0000 0.0000 0.0000 0.5872 0.8683
-0.0150 0.0000 0.0491 -1.0000 -0.0000 0.0000 0.5911 0.8683
-0.0147 0.0029 0.0491 -0.9808 0.1951 0.0000 0.5933 0.8463
-0.0150 0.0000 0.0500 -1.0000 0.0000 0.0000 0.5872 0.8683
-0.0147 0.0029 0.0491 -0.9808 0.1951 0.0000 0.5933 0.8463
-0.0147 0.0029 0.0500 -0.9808 0.1951 0.0000 0.5894 0.8455
0.0097 0.0097 0.0500 -0.7071 -0.7071 0.0000 0.7753 0.7972
0.0097 0.0097 0.0491 -0.7071 -0.7071 0.0000 0.7773 0.7953
0.0076 0.0114 0.0491 -0.5556 -0.8315 0.0000 0.7616 0.7824
0.0097 0.0097 0.0500 -0.7071 -0.7071 0.0000 0.7753 0.7972
0.0076 0.0114 0.0491 -0.5556 -0.8315 0.0000 0.7616 0.7824
0.0076 0.0114 0.0500 -0.5556 -0.8315 0.0000 0.7601 0.7847
-0.0052 0.0127 0.0500 0.3827 -0.9239 0.0000 0.6657 0.7754
-0.0052 0.0127 0.0491 0.3827 -0.9239 0.0000 0.6647 0.7729
-0.0076 0.0114 0.0491 0.5556 -0.8315 0.0000 0.6468 0.7824
-0.0052 0.0127 0.0500 0.3827 -0.9239 0.0000 0.6657 0.7754
-0.0076 0.0114 0.0491 0.5556 -0.8315 0.0000 0.6468 0.7824
-0.0076 0.0114 0.0500 0.5556 -0.8315 0.0000 0.6483 0.7847
-0.0147 -0.0029 0.0500 -0.9808 -0.1951 -0.0000 0.5894 0.8912
-0.0147 -0.0029 0.0491 -0.9808 -0.1951 -0.0000 0.5933 0.8904
-0.0150 0.0000 0.0491 -1.0000 -0.0000 0.0000 0.5911 0.8683
-0.0147 -0.0029 0.0500 -0.9808 -0.1951 -0.0000 0.5894 0.8912
-0.0150 0.0000 0.0491 -1.0000 -0.0000 0.0000 0.5911 0.8683
-0.0150 0.0000 0.0500 -1.0000 0.0000 0.0000 0.5872 0.8683
0.0076 0.0114 0.0500 -0.5556 -0.8315 0.0000 0.7601 0.7847
0.0076 0.0114 0.0491 -0.5556 -0.8315 0.0000 0.7616 0.7824
0.0052 0.0127 0.0491 -0.3827 -0.9239 0.0000 0.7438 0.7729
0.0076 0.0114 0.0500 -0.5556 -0.8315 0.0000 0.7601 0.7847
0.0052 0.0127 0.0491 -0.3827 -0.9239 0.0000 0.7438 0.7729
0.0052 0.0127 0.0500 -0.3827 -0.9239 0.0000 0.7427 0.7754
-0.0076 0.0114 0.0500 0.5556 -0.8315 0.0000 0.6483 0.7847
-0.0076 0.0114 0.0491 0.5556 -0.8315 0.0000 0.6468 0.7824
-0.0097 0.0097 0.0491 0.7071 -0.7071 0.0000 0.6311 0.7953
-0.0076 0.0114 0.0500 0.5556 -0.8315 0.0000 0.6483 0.7847
-0.0097 0.0097 0.0491 0.7071 -0.7071 0.0000 0.6311 0.7953
-0.0097 0.0097 0.0500 0.7071 -0.7071 0.0000 0.6331 0.7972
-0.0139 -0.0057 0.0500 -0.9239 -0.3827 0.0000 0.5961 0.9131
-0.0139 -0.0057 0.0491 -0.9239 -0.3827 0.0000 0.5997 0.9116
-0.0147 -0.0029 0.0491 -0.9808 -0.1951 -0.0000 0.5933 0.8904
-0.0139 -0.0057 0.0500 -0.9239 -0.3827 0.0000 0.5961 0.9131
-0.0147 -0.0029 0.0491 -0.9808 -0.1951 -0.0000 0.5933 0.8904
-0.0147 -0.0029 0.0500 -0.9808 -0.1951 -0.0000 0.5894 0.8912
0.0052 0.0127 0.0500 -0.3827 -0.9239 0.0000 0.7427 0.7754
0.0052 0.0127 0.0491 -0.3827 -0.9239 0.0000 0.7438 0.7729
0.0027 0.0134 0.0491 -0.1951 -0.9808 0.0000 0.7244 0.7670
0.0052 0.0127 0.0500 -0.3827 -0.9239 0.0000 0.7427 0.7754
0.0027 0.0134 0.0491 -0.1951 -0.9808 0.0000 0.7244 0.7670
0.0027 0.0134 0.0500 -0.1951 -0.9808 0.0000 0.7238 0.7697
-0.0097 0.0097 0.0500 0.7071 -0.7071 0.0000 0.6331 0.7972
-0.0097 0.0097 0.0491 0.7071 -0.7071 0.0000 0.6311 0.7953
-0.0114 0.0076 0.0491 0.8315 -0.5556 0.0000 0.6183 0.8109
-0.0097 0.0097 0.0500 0.7071 -0.7071 0.0000 0.6331 0.7972
-0.0114 0.0076 0.0491 0.8315 -0.5556 0.0000 0.6183 0.8109
-0.0114 0.0076 0.0500 0.8315 -0.5556 0.0000 0.6206 0.8125
-0.0125 -0.0083 0.0500 -0.8315 -0.5556 0.0000 0.6069 0.9334
-0.0125 -0.0083 0.0491 -0.8315 -0.5556 0.0000 0.6102 0.9312
-0.0139 -0.0057 0.0491 -0.9239 -0.3827 0.0000 0.5997 0.9116
-0.0125 -0.0083 0.0500 -0.8315 -0.5556 0.0000 0.6069 0.9334
-0.0139 -0.0057 0.0491 -0.9239 -0.3827 0.0000 0.5997 0.9116
-0.0139 -0.0057 0.0500 -0.9239 -0.3827 0.0000 0.5961 0.9131
0.0027 0.0134 0.0500 -0.1951 -0.9808 0.0000 0.7238 0.7697
0.0027 0.0134 0.0491 -0.1951 -0.9808 0.0000 0.7244 0.7670
-0.0000 0.0137 0.0491 0.0000 -1.0000 0.0000 0.7042 0.7650
0.0027 0.0134 0.0500 -0.1951 -0.9808 0.0000 0.7238 0.7697
-0.0000 0.0137 0.0491 0.0000 -1.0000 0.0000 0.7042 0.7650
-0.0000 0.0137 0.0500 0.0000 -1.0000 0.0000 0.7042 0.7678
-0.0114 0.0076 0.0500 0.8315 -0.5556 0.0000 0.6206 0.8125
-0.0114 0.0076 0.0491 0.8315 -0.5556 0.0000 0.6183 0.8109
-0.0127 0.0052 0.0491 0.9239 -0.3827 0.0000 0.6087 0.8288
-0.0114 0.0076 0.0500 0.8315 -0.5556 0.0000 0.6206 0.8125
-0.0127 0.0052 0.0491 0.9239 -0.3827 0.0000 0.6087 0.8288
-0.0127 0.0052 0.0500 0.9239 -0.3827 0.0000 0.6113 0.8299
-0.0106 -0.0106 0.0500 -0.7071 -0.7071 0.0000 0.6215 0.9511
-0.0106 -0.0106 0.0491 -0.7071 -0.7071 0.0000 0.6242 0.9483
-0.0125 -0.0083 0.0491 -0.8315 -0.5556 0.0000 0.6102 0.9312
-0.0106 -0.0106 0.0500 -0.7071 -0.7071 0.0000 0.6215 0.9511
-0.0125 -0.0083 0.0491 -0.8315 -0.5556 0.0000 0.6102 0.9312
-0.0125 -0.0083 0.0500 -0.8315 -0.5556 0.0000 0.6069 0.9334
-0.0127 0.0052 0.0500 0.9239 -0.3827 0.0000 0.6113 0.8299
-0.0127 0.0052 0.0491 0.9239 -0.3827 0.0000 0.6087 0.8288
-0.0134 0.0027 0.0491 0.9808 -0.1951 0.0000 0.6029 0.8482
-0.0127 0.0052 0.0500 0.9239 -0.3827 0.0000 0.6113 0.8299
-0.0134 0.0027 0.0491 0.9808 -0.1951 0.0000 0.6029 0.8482
-0.0134 0.0027 0.0500 0.9808 -0.1951 0.0000 0.6056 0.8487
-0.0083 -0.0125 0.0500 -0.5556 -0.8315 0.0000 0.6392 0.9656
-0.0083 -0.0125 0.0491 -0.5556 -0.8315 0.0000 0.6414 0.9624
-0.0106 -0.0106 0.0491 -0.7071 -0.7071 0.0000 0.6242 0.9483
-0.0083 -0.0125 0.0500 -0.5556 -0.8315 0.0000 0.6392 0.9656
-0.0106 -0.0106 0.0491 -0.7071 -0.7071 0.0000 0.6242 0.9483
-0.0106 -0.0106 0.0500 -0.7071 -0.7071 0.0000 0.6215 0.9511
-0.0134 0.0027 0.0500 0.9808 -0.1951 0.0000 0.6056 0.8487
-0.0134 0.0027 0.0491 0.9808 -0.1951 0.0000 0.6029 0.8482
-0.0137 0.0000 0.0491 1.0000 0.0000 0.0000 0.6009 0.8683
-0.0134 0.0027 0.0500 0.9808 -0.1951 0.0000 0.6056 0.8487
-0.0137 0.0000 0.0491 1.0000 0.0000 0.0000 0.6009 0.8683
-0.0137 0.0000 0.0500 1.0000 0.0000 0.0000 0.6036 0.8683
-0.0057 -0.0139 0.0500 -0.3827 -0.9239 0.0000 0.6594 0.9765
-0.0057 -0.0139 0.0491 -0.3827 -0.9239 0.0000 0.6609 0.9728
-0.0083 -0.0125 0.0491 -0.5556 -0.8315 0.0000 0.6414 0.9624
-0.0057 -0.0139 0.0500 -0.3827 -0.9239 0.0000 0.6594 0.9765
-0.0083 -0.0125 0.0491 -0.5556 -0.8315 0.0000 0.6414 0.9624
-0.0083 -0.0125 0.0500 -0.5556 -0.8315 0.0000 0.6392 0.9656
-0.0137 0.0000 0.0500 1.0000 0.0000 0.0000 0.6036 0.8683
-0.0137 0.0000 0.0491 1.0000 0.0000 0.0000 0.6009 0.8683
-0.0134 -0.0027 0.0491 0.9808 0.1951 0.0000 0.6029 0.8885
-0.0137 0.0000 0.0500 1.0000 0.0000 0.0000 0.6036 0.8683
-0.0134 -0.0027 0.0491 0.9808 0.1951 0.0000 0.6029 0.8885
-0.0134 -0.0027 0.0500 0.9808 0.1951 0.0000 0.6056 0.8880
-0.0029 -0.0147 0.0500 -0.1951 -0.9808 0.0000 0.6814 0.9831
-0.0029 -0.0147 0.0491 -0.1951 -0.9808 0.0000 0.6822 0.9793
-0.0057 -0.0139 0.0491 -0.3827 -0.9239 0.0000 0.6609 0.9728
-0.0029 -0.0147 0.0500 -0.1951 -0.9808 0.0000 0.6814 0.9831
-0.0057 -0.0139 0.0491 -0.3827 -0.9239 0.0000 0.6609 0.9728
-0.0057 -0.0139 0.0500 -0.3827 -0.9239 0.0000 0.6594 0.9765
27 58 26
27 59 58
14 45 13
14 46 45
1 32 0
1 33 32
28 59 27
28 60 59
15 46 14
15 47 46
2 33 1
2 34 33
29 60 28
29 61 60
16 47 15
16 48 47
3 34 2
3 35 34
30 61 29
30 62 61
17 48 16
17 49 48
4 35 3
4 36 35
31 62 30
31 63 62
18 49 17
18 50 49
5 36 4
5 37 36
0 63 31
0 32 63
19 50 18
19 51 50
6 37 5
6 38 37
20 51 19
20 52 51
7 38 6
7 39 38
21 52 20
21 53 52
8 39 7
8 40 39
22 53 21
22 54 53
9 40 8
9 41 40
23 54 22
23 55 54
10 41 9
10 42 41
24 55 23
24 56 55
11 42 10
11 43 42
25 56 24
25 57 56
12 43 11
12 44 43
26 57 25
26 58 57
13 44 12
13 45 44
91 122 123
91 90 122
78 109 110
78 77 109
65 96 97
65 64 96
92 123 124
92 91 123
79 110 111
79 78 110
66 97 98
66 65 97
93 124 125
93 92 124
80 111 112
80 79 111
67 98 99
67 66 98
94 125 126
94 93 125
81 112 113
81 80 112
68 99 100
68 67 99
95 126 127
95 94 126
82 113 114
82 81 113
69 100 101
69 68 100
64 127 96
64 95 127
83 114 115
83 82 114
70 101 102
70 69 101
84 115 116
84 83 115
71 102 103
71 70 102
85 116 117
85 84 116
72 103 104
72 71 103
86 117 118
86 85 117
73 104 105
73 72 104
87 118 119
87 86 118
74 105 106
74 73 105
88 119 120
88 87 119
75 106 107
75 74 106
89 120 121
89 88 120
76 107 108
76 75 107
90 121 122
90 89 121
77 108 109
77 76 108
128 130 129
131 133 132
134 136 135
137 139 138
140 142 141
143 145 144
146 148 147
149 151 150
152 154 153
155 157 156
158 160 159
161 163 162
164 166 165
167 169 168
170 172 171
173 175 174
176 178 177
179 181 180
182 184 183
185 187 186
188 190 189
191 193 192
194 196 195
197 199 198
200 202 201
203 205 204
206 208 207
209 211 210
212 214 213
215 217 216
218 220 219
221 223 222
224 226 225
227 229 228
230 232 231
233 235 234
236 238 237
239 241 240
242 244 243
245 247 246
248 250 249
251 253 252
254 256 255
257 259 258
260 262 261
263 265 264
266 268 267
269 271 270
272 274 273
275 277 276
278 280 279
281 283 282
284 286 285
287 289 288
290 292 291
293 295 294
296 298 297
299 301 300
302 304 303
305 307 306
308 310 309
311 313 312
314 316 315
317 319 318
320 322 321
323 325 324
326 328 327
329 331 330
332 334 333
335 337 336
338 340 339
341 343 342
344 346 345
347 349 348
350 352 351
353 355 354
356 358 357
359 361 360
362 364 363
365 367 366
368 370 369
371 373 372
374 376 375
377 379 378
380 382 381
383 385 384
386 388 387
389 391 390
392 394 393
395 397 396
398 400 399
401 403 402
404 406 405
407 409 408
410 412 411
413 415 414
416 418 417
419 421 420
422 424 423
425 427 426
428 430 429
431 433 432
434 436 435
437 439 438
440 442 441
443 445 444
446 448 447
449 451 450
452 454 453
455 457 456
458 460 459
461 463 462
464 466 465
467 469 468
470 472 471
473 475 474
476 478 477
479 481 480
482 484 483
485 487 486
488 490 489
491 493 492
494 496 495
497 499 498
500 502 501
503 505 504
506 508 507
509 511 510
MATERIALS 1
PointingArrow_t
MATERIAL PointingArrow_t
1.000 1.000 0.000 1.000
1.000 1.000 0.000 1.000
1.000 1.000 0.000 1.000 0.000
1.000 1.000 0.000 0.000
TEXTURES 1
ProjectApollo\VC\PointingArrow.dds
